<svg viewBox="0 0 18 18" class="msportalfx-svg-placeholder" xmlns='http://www.w3.org/2000/svg'><defs><linearGradient id="pIJbU9J-u__a" x1="9.004" x2="9.004" y1="14.297" y2="2.464" gradientUnits="userSpaceOnUse"><stop offset=".246" stop-color="#32bedd"/><stop offset=".314" stop-color="#37c5e3"/><stop offset=".526" stop-color="#45d7f2"/><stop offset=".749" stop-color="#4de2fc"/><stop offset="1" stop-color="#50e6ff"/></linearGradient></defs><path fill="#005ba1" d="M9 1.234c4.282 0 7.766 3.484 7.766 7.766S13.282 16.766 9 16.766 1.234 13.282 1.234 9 4.718 1.234 9 1.234M9 .125C4.098.125.125 4.098.125 9S4.098 17.875 9 17.875 17.875 13.902 17.875 9 13.902.125 9 .125"/><path fill="url(#pIJbU9J-u__a)" d="m15.225 10.433-.763-1.322a.4.4 0 0 0-.344-.198h-1.527a.4.4 0 0 0-.344.198l-.763 1.322a.4.4 0 0 0 0 .397l.763 1.322a.4.4 0 0 0 .344.199h1.527a.4.4 0 0 0 .344-.199l.763-1.322a.4.4 0 0 0 0-.397m-9.464 1.719.763-1.322a.4.4 0 0 0 0-.397l-.763-1.322a.4.4 0 0 0-.344-.198H3.89a.4.4 0 0 0-.344.198l-.763 1.322a.4.4 0 0 0 0 .397l.763 1.322a.4.4 0 0 0 .344.199h1.527a.4.4 0 0 0 .344-.199m2.134-6.449a.4.4 0 0 0 .344.198h1.526a.4.4 0 0 0 .344-.198l.763-1.322a.4.4 0 0 0 0-.397l-.763-1.322a.4.4 0 0 0-.344-.198H8.239a.4.4 0 0 0-.344.198l-.763 1.322a.4.4 0 0 0 0 .397zm2.856-.343a3.97 3.97 0 0 1 2.199 3.168h1.168a.8.8 0 0 1 .245.044 5.37 5.37 0 0 0-3.071-4.517.78.78 0 0 1-.088.519l-.454.786Zm-5.7 3.167a3.97 3.97 0 0 1 2.201-3.169l-.453-.785a.78.78 0 0 1-.088-.52 5.37 5.37 0 0 0-3.073 4.521.8.8 0 0 1 .253-.048zm6.864 3.817-.273-.472a3.95 3.95 0 0 1-5.279.005l-.27.468a.78.78 0 0 1-.677.391H5.21c.972.965 2.311 1.562 3.79 1.562s2.817-.597 3.79-1.562h-.198a.78.78 0 0 1-.677-.391Z"/><style>.msportalfx-svg-c01{fill:#fff}.msportalfx-svg-c02{fill:#e5e5e5}.msportalfx-svg-c03{fill:#a0a1a2}.msportalfx-svg-c04{fill:#7a7a7a}.msportalfx-svg-c05{fill:#3e3e3e}.msportalfx-svg-c06{fill:#1e1e1e}.msportalfx-svg-c07{fill:#0f0f0f}.msportalfx-svg-c08{fill:#ba141a}.msportalfx-svg-c09{fill:#dd5900}.msportalfx-svg-c10{fill:#ff8c00}.msportalfx-svg-c11{fill:#fcd116}.msportalfx-svg-c12{fill:#fee087}.msportalfx-svg-c13{fill:#b8d432}.msportalfx-svg-c14,.msportalfx-svg-c32{fill:#57a300}.msportalfx-svg-c15{fill:#59b4d9}.msportalfx-svg-c16{fill:#3999c6}.msportalfx-svg-c17{fill:#804998}.msportalfx-svg-c18{fill:#ec008c}.msportalfx-svg-c19{fill:#0072c6}.msportalfx-svg-c20{fill:#68217a}.msportalfx-svg-c21{fill:#00188f}.msportalfx-svg-c22{fill:#e81123}.fxs-mode-light .msportalfx-svg-c22{fill:#a4262c}.msportalfx-svg-c23{fill:#cae3f3}.msportalfx-svg-c24{fill:#59aed3}.msportalfx-svg-c25{fill:#4c3b12}.msportalfx-svg-c26{fill:#be9555}.msportalfx-svg-c27{fill:#4f4d52}.msportalfx-svg-c28{fill:#ef6f59}.msportalfx-svg-c29{fill:#f7cb64}.msportalfx-svg-c30{fill:#fdd8db}.msportalfx-svg-c31{fill:#f6ffec}.msportalfx-svg-c33{fill:#8a2da5}.msportalfx-svg-c34{fill:#e00b1c}.msportalfx-svg-c35{fill:#015cda}.msportalfx-svg-c36{fill:#5db300}.msportalfx-svg-c97{fill:#ffb900}.msportalfx-svg-c98{fill:#00a4ef}.msportalfx-svg-c99{fill:#f25022}.msportalfx-inverted-theme .msportalfx-svg-c05,.fxs-theme-dark .msportalfx-svg-c05{fill:#777}.msportalfx-inverted-theme .msportalfx-svg-c07,.fxs-theme-dark .msportalfx-svg-c07{fill:#f2f2f2}.msportalfx-svg-palette-white{fill:#fff}.msportalfx-svg-palette-blue{fill:#015cda}.msportalfx-svg-palette-black{fill:#1e1e1e}.msportalfx-svg-palette-green{fill:#57a300}.msportalfx-svg-palette-gray{fill:#a0a1a2}.msportalfx-svg-palette-inherit{fill:inherit}.msportalfx-svg-badge{position:absolute;left:0;bottom:0;min-height:10px;min-width:10px}.fxc-menu-icon>.msportalfx-svg-badge{left:-2px;bottom:-2px;min-height:8px;min-width:8px}.msportalfx-svg-disabled{filter:grayscale(100%)}.msportalfx-svg-loading-square{animation:ProgressFlagAnimation 1.45s infinite ease-in-out;transform-origin:50%}.msportalfx-svg-loading-square:nth-child(1){animation-delay:0s}.msportalfx-svg-loading-square:nth-child(2){animation-delay:.2s}.msportalfx-svg-loading-square:nth-child(3){animation-delay:.4s}@keyframes ProgressFlagAnimation{0%{transform:scale(1);opacity:.3}36.1%{transform:scale(1.06);opacity:1}50%{transform:scale(1.06);opacity:1}86.1%{transform:scale(1);opacity:.3}}.msportalfx-svg-flip-horizontal>svg,svg.msportalfx-svg-flip-horizontal{transform:scaleX(-1)}.msportalfx-svg-fabric-rotate360{animation:ImageRotation 1.3s cubic-bezier(.53,.21,.29,.67) infinite}@keyframes ImageRotation{0%{transform:rotate(-45deg)}100%{transform:rotate(315deg)}}.fxs-svg-number .msportalfx-font-bold{font-size:10px;fill:#0065ad}.fxs-svg-number .fxs-svg-circle{stroke-width:0%;fill:#0078d4}.fxs-svg-number .fxs-svg-text{fill:#fff;font-size:10px}.fxs-svg-number.msportalfx-svg-disabled{filter:grayscale(0%)}.fxs-svg-number.msportalfx-svg-disabled .fxs-svg-circle{fill:#fff;stroke-width:1px;stroke:#949494}.fxs-svg-number.msportalfx-svg-disabled .fxs-svg-text{fill:#949494}.fxs-theme-dark .fxs-svg-number .fxs-svg-text{fill:#0f0f0f}.fxs-theme-dark .fxs-svg-number .fxs-svg-circle{stroke-width:0%;fill:#0078d4}.fxs-theme-dark .fxs-svg-number.msportalfx-svg-disabled .fxs-svg-circle{fill:#0f0f0f;stroke-width:1px;stroke:#949494}.fxs-theme-dark .fxs-svg-number.msportalfx-svg-disabled .fxs-svg-text{fill:#949494}</style></svg>