<svg viewBox="0 0 18 18" class="msportalfx-svg-placeholder" xmlns="http://www.w3.org/2000/svg"><title>Community endpoint</title><desc>Community endpoints are collections of networking rules that enable external connectivity to trusted destinations including public websites, well-known services, and external private networks</desc><defs><linearGradient id="pjElC7muc__a" x1="9.004" x2="9.004" y1="13.178" y2="10.256" gradientUnits="userSpaceOnUse"><stop offset=".246" stop-color="#32bedd" /><stop offset=".314" stop-color="#37c5e3" /><stop offset=".526" stop-color="#45d7f2" /><stop offset=".749" stop-color="#4de2fc" /><stop offset="1" stop-color="#50e6ff" /></linearGradient><linearGradient id="pjElC7muc__b" x1="9" x2="9" y1="9.969" y2="5.802" gradientUnits="userSpaceOnUse"><stop offset=".246" stop-color="#32bedd" /><stop offset=".314" stop-color="#37c5e3" /><stop offset=".526" stop-color="#45d7f2" /><stop offset=".749" stop-color="#4de2fc" /><stop offset="1" stop-color="#50e6ff" /></linearGradient><linearGradient id="pjElC7muc__c" x1="65.005" x2="65.005" y1="642.826" y2="633.292" gradientTransform="matrix(1 0 0 -1 -56 645.516)" gradientUnits="userSpaceOnUse"><stop offset="0" stop-color="#e6e6e6" /><stop offset="1" stop-color="#999" /></linearGradient><linearGradient id="pjElC7muc__d" x1="65.003" x2="65.003" y1="645.307" y2="641.536" gradientTransform="matrix(1 0 0 -1 -56 645.516)" gradientUnits="userSpaceOnUse"><stop offset="0" stop-color="#50e6ff" /><stop offset="1" stop-color="#32bedd" /></linearGradient></defs><path fill="url(#pjElC7muc__a)" d="M6.246 10.425a.34.34 0 0 0-.292-.169H4.656a.34.34 0 0 0-.292.169l-.649 1.124a.34.34 0 0 0 0 .337l.649 1.124c.06.104.172.169.292.169h1.298a.34.34 0 0 0 .292-.169l.649-1.124a.34.34 0 0 0 0-.337zm8.046 1.123-.649-1.124a.34.34 0 0 0-.292-.169h-1.298a.34.34 0 0 0-.292.169l-.649 1.124a.34.34 0 0 0 0 .337l.649 1.124c.06.104.172.169.292.169h1.298a.34.34 0 0 0 .292-.169l.649-1.124a.34.34 0 0 0 0-.337" /><path fill="url(#pjElC7muc__b)" d="m11.478 13.173-.232-.401a3.355 3.355 0 0 1-4.487.004l-.229.398a.67.67 0 0 1-.576.332h-.175c.827.821 1.965 1.328 3.221 1.328s2.395-.508 3.221-1.328h-.169a.67.67 0 0 1-.576-.332ZM7.995 7.045V5.801a4.57 4.57 0 0 0-3.554 4.168.7.7 0 0 1 .215-.041h.986a3.35 3.35 0 0 1 1.112-2.177 3.4 3.4 0 0 1 1.24-.706Zm4.222-.027h.005a4.57 4.57 0 0 0-2.133-1.197v1.253c.429.148.821.377 1.153.674a3.35 3.35 0 0 1 1.116 2.181h.993q.108.002.208.038a4.55 4.55 0 0 0-1.342-2.949" /><path fill="url(#pjElC7muc__c)" d="M7.682 11.628c2.29 2.004 4.765-1.921 1.963-3.112V2.879H8.439v5.614c-1.343.37-1.781 2.202-.758 3.135Z" /><circle cx="9.003" cy="2.011" r="1.886" fill="url(#pjElC7muc__d)" /><path fill="#005ba1" d="M11.072 3.076a2.35 2.35 0 0 1-.681.801c2.974.64 5.211 3.29 5.211 6.453 0 3.64-2.961 6.601-6.601 6.601S2.4 13.97 2.4 10.33c0-3.163 2.236-5.812 5.21-6.453a2.3 2.3 0 0 1-.679-.802 7.545 7.545 0 1 0 4.143.001Z" /><style>.msportalfx-svg-c01{fill:#fff}.msportalfx-svg-c02{fill:#e5e5e5}.msportalfx-svg-c03{fill:#a0a1a2}.msportalfx-svg-c04{fill:#7a7a7a}.msportalfx-svg-c05{fill:#3e3e3e}.msportalfx-svg-c06{fill:#1e1e1e}.msportalfx-svg-c07{fill:#0f0f0f}.msportalfx-svg-c08{fill:#ba141a}.msportalfx-svg-c09{fill:#dd5900}.msportalfx-svg-c10{fill:#ff8c00}.msportalfx-svg-c11{fill:#fcd116}.msportalfx-svg-c12{fill:#fee087}.msportalfx-svg-c13{fill:#b8d432}.msportalfx-svg-c14,.msportalfx-svg-c32{fill:#57a300}.msportalfx-svg-c15{fill:#59b4d9}.msportalfx-svg-c16{fill:#3999c6}.msportalfx-svg-c17{fill:#804998}.msportalfx-svg-c18{fill:#ec008c}.msportalfx-svg-c19{fill:#0072c6}.msportalfx-svg-c20{fill:#68217a}.msportalfx-svg-c21{fill:#00188f}.msportalfx-svg-c22{fill:#e81123}.fxs-mode-light .msportalfx-svg-c22{fill:#a4262c}.msportalfx-svg-c23{fill:#cae3f3}.msportalfx-svg-c24{fill:#59aed3}.msportalfx-svg-c25{fill:#4c3b12}.msportalfx-svg-c26{fill:#be9555}.msportalfx-svg-c27{fill:#4f4d52}.msportalfx-svg-c28{fill:#ef6f59}.msportalfx-svg-c29{fill:#f7cb64}.msportalfx-svg-c30{fill:#fdd8db}.msportalfx-svg-c31{fill:#f6ffec}.msportalfx-svg-c33{fill:#8a2da5}.msportalfx-svg-c34{fill:#e00b1c}.msportalfx-svg-c35{fill:#015cda}.msportalfx-svg-c36{fill:#5db300}.msportalfx-svg-c97{fill:#ffb900}.msportalfx-svg-c98{fill:#00a4ef}.msportalfx-svg-c99{fill:#f25022}.msportalfx-inverted-theme .msportalfx-svg-c05,.fxs-theme-dark .msportalfx-svg-c05{fill:#777}.msportalfx-inverted-theme .msportalfx-svg-c07,.fxs-theme-dark .msportalfx-svg-c07{fill:#f2f2f2}.msportalfx-svg-palette-white{fill:#fff}.msportalfx-svg-palette-blue{fill:#015cda}.msportalfx-svg-palette-black{fill:#1e1e1e}.msportalfx-svg-palette-green{fill:#57a300}.msportalfx-svg-palette-gray{fill:#a0a1a2}.msportalfx-svg-palette-inherit{fill:inherit}.msportalfx-svg-badge{position:absolute;left:0;bottom:0;min-height:10px;min-width:10px}.fxc-menu-icon&gt;.msportalfx-svg-badge{left:-2px;bottom:-2px;min-height:8px;min-width:8px}.msportalfx-svg-disabled{filter:grayscale(100%)}.msportalfx-svg-loading-square{animation:ProgressFlagAnimation 1.45s infinite ease-in-out;transform-origin:50%}.msportalfx-svg-loading-square:nth-child(1){animation-delay:0s}.msportalfx-svg-loading-square:nth-child(2){animation-delay:.2s}.msportalfx-svg-loading-square:nth-child(3){animation-delay:.4s}@keyframes ProgressFlagAnimation{0%{transform:scale(1);opacity:.3}36.1%{transform:scale(1.06);opacity:1}50%{transform:scale(1.06);opacity:1}86.1%{transform:scale(1);opacity:.3}}.msportalfx-svg-flip-horizontal&gt;svg,svg.msportalfx-svg-flip-horizontal{transform:scaleX(-1)}.msportalfx-svg-fabric-rotate360{animation:ImageRotation 1.3s cubic-bezier(.53,.21,.29,.67) infinite}@keyframes ImageRotation{0%{transform:rotate(-45deg)}100%{transform:rotate(315deg)}}.fxs-svg-number .msportalfx-font-bold{font-size:10px;fill:#0065ad}.fxs-svg-number .fxs-svg-circle{stroke-width:0%;fill:#0078d4}.fxs-svg-number .fxs-svg-text{fill:#fff;font-size:10px}.fxs-svg-number.msportalfx-svg-disabled{filter:grayscale(0%)}.fxs-svg-number.msportalfx-svg-disabled .fxs-svg-circle{fill:#fff;stroke-width:1px;stroke:#949494}.fxs-svg-number.msportalfx-svg-disabled .fxs-svg-text{fill:#949494}.fxs-theme-dark .fxs-svg-number .fxs-svg-text{fill:#0f0f0f}.fxs-theme-dark .fxs-svg-number .fxs-svg-circle{stroke-width:0%;fill:#0078d4}.fxs-theme-dark .fxs-svg-number.msportalfx-svg-disabled .fxs-svg-circle{fill:#0f0f0f;stroke-width:1px;stroke:#949494}.fxs-theme-dark .fxs-svg-number.msportalfx-svg-disabled .fxs-svg-text{fill:#949494}</style></svg>