<svg viewBox="0 0 18 18" class="msportalfx-svg-placeholder" xmlns="http://www.w3.org/2000/svg"><title>Dedicated hub</title><desc>Create dedicated hubs for improved network performance (up to 100 Gbps throughput per hub), greater network isolation, and independent hub lifecycle management.</desc><path fill="#666" d="M14.3 4.24a1.3 1.3 0 0 1-.54-.53l-2.45 2.47h1.06ZM9.4 2.88a1.6 1.6 0 0 1-.4.06 1.7 1.7 0 0 1-.38-.06v3.3h.78Zm-5.16.83a1.4 1.4 0 0 1-.53.53l1.94 1.94h1.07Zm4.4 11.41a1.7 1.7 0 0 1 .36-.06 1.6 1.6 0 0 1 .38.06v-3.3h-.74ZM3.71 13.8a1.4 1.4 0 0 1 .53.53l2.51-2.51H5.69Zm10.58 0-2-2h-1.04l2.51 2.51a1.5 1.5 0 0 1 .53-.51" /><path fill="#a0a1a2" d="M9.4 2.88a1.45 1.45 0 0 0 1.09-1.41 1.47 1.47 0 1 0-1.85 1.41 1.7 1.7 0 0 0 .36.06 1.6 1.6 0 0 0 .4-.06m-5.16.83A1.45 1.45 0 0 0 4.45 3 1.47 1.47 0 1 0 3 4.44a1.4 1.4 0 0 0 .73-.2 1.4 1.4 0 0 0 .51-.53m4.4 11.41a1.47 1.47 0 1 0 .76 0 1.6 1.6 0 0 0-.4-.06 1.7 1.7 0 0 0-.36.06M14.3 4.24a1.37 1.37 0 0 0 .72.2A1.47 1.47 0 1 0 13.55 3a1.4 1.4 0 0 0 .21.74 1.3 1.3 0 0 0 .54.5M3.71 13.8a1.4 1.4 0 0 0-.71-.21 1.47 1.47 0 1 0 1.47 1.47 1.4 1.4 0 0 0-.21-.73 1.4 1.4 0 0 0-.55-.53M15 13.59a1.4 1.4 0 0 0-.73.21 1.5 1.5 0 0 0-.53.53 1.4 1.4 0 0 0-.21.73A1.47 1.47 0 1 0 15 13.59" /><path fill="#821010" d="M14 11.82a.41.41 0 0 0 .42-.4V6.58a.41.41 0 0 0-.42-.4H4a.41.41 0 0 0-.42.4v4.84a.41.41 0 0 0 .42.4zm-.11-2.22h-1.22V8.38h1.22ZM11 6.74h2.93V8H11Zm1.22 1.64V9.6H9.25V8.38ZM7.59 6.74h2.93V8H7.59Zm1.22 1.64V9.6H5.88V8.38ZM4.22 6.74h2.93V8H4.22Zm0 1.64h1.21V9.6H4.22Zm2.93 2.87H4.22V10h2.93Zm3.37 0H7.59V10h2.93Zm.44 0V10h2.93v1.23Z" /><path fill="#e62323" d="M4.22 6.74h2.93v1.22H4.22z" /><path fill="#ff7381" d="M7.59 6.74h2.93v1.22H7.59z" /><path fill="#e62323" d="M10.96 6.74h2.93v1.22h-2.93zM4.22 8.38h1.22V9.6H4.22z" /><path fill="#ff7381" d="M12.67 8.38h1.22V9.6h-1.22zm-6.79 0h2.93V9.6H5.88z" /><path fill="#e62323" d="M9.25 8.38h2.93V9.6H9.25zm-5.03 1.64h2.93v1.22H4.22z" /><path fill="#ff7381" d="M7.59 10.02h2.93v1.22H7.59z" /><path fill="#e62323" d="M10.96 10.02h2.93v1.22h-2.93z" /><style>.msportalfx-svg-c01{fill:#fff}.msportalfx-svg-c02{fill:#e5e5e5}.msportalfx-svg-c03{fill:#a0a1a2}.msportalfx-svg-c04{fill:#7a7a7a}.msportalfx-svg-c05{fill:#3e3e3e}.msportalfx-svg-c06{fill:#1e1e1e}.msportalfx-svg-c07{fill:#0f0f0f}.msportalfx-svg-c08{fill:#ba141a}.msportalfx-svg-c09{fill:#dd5900}.msportalfx-svg-c10{fill:#ff8c00}.msportalfx-svg-c11{fill:#fcd116}.msportalfx-svg-c12{fill:#fee087}.msportalfx-svg-c13{fill:#b8d432}.msportalfx-svg-c14,.msportalfx-svg-c32{fill:#57a300}.msportalfx-svg-c15{fill:#59b4d9}.msportalfx-svg-c16{fill:#3999c6}.msportalfx-svg-c17{fill:#804998}.msportalfx-svg-c18{fill:#ec008c}.msportalfx-svg-c19{fill:#0072c6}.msportalfx-svg-c20{fill:#68217a}.msportalfx-svg-c21{fill:#00188f}.msportalfx-svg-c22{fill:#e81123}.fxs-mode-light .msportalfx-svg-c22{fill:#a4262c}.msportalfx-svg-c23{fill:#cae3f3}.msportalfx-svg-c24{fill:#59aed3}.msportalfx-svg-c25{fill:#4c3b12}.msportalfx-svg-c26{fill:#be9555}.msportalfx-svg-c27{fill:#4f4d52}.msportalfx-svg-c28{fill:#ef6f59}.msportalfx-svg-c29{fill:#f7cb64}.msportalfx-svg-c30{fill:#fdd8db}.msportalfx-svg-c31{fill:#f6ffec}.msportalfx-svg-c33{fill:#8a2da5}.msportalfx-svg-c34{fill:#e00b1c}.msportalfx-svg-c35{fill:#015cda}.msportalfx-svg-c36{fill:#5db300}.msportalfx-svg-c97{fill:#ffb900}.msportalfx-svg-c98{fill:#00a4ef}.msportalfx-svg-c99{fill:#f25022}.msportalfx-inverted-theme .msportalfx-svg-c05,.fxs-theme-dark .msportalfx-svg-c05{fill:#777}.msportalfx-inverted-theme .msportalfx-svg-c07,.fxs-theme-dark .msportalfx-svg-c07{fill:#f2f2f2}.msportalfx-svg-palette-white{fill:#fff}.msportalfx-svg-palette-blue{fill:#015cda}.msportalfx-svg-palette-black{fill:#1e1e1e}.msportalfx-svg-palette-green{fill:#57a300}.msportalfx-svg-palette-gray{fill:#a0a1a2}.msportalfx-svg-palette-inherit{fill:inherit}.msportalfx-svg-badge{position:absolute;left:0;bottom:0;min-height:10px;min-width:10px}.fxc-menu-icon&gt;.msportalfx-svg-badge{left:-2px;bottom:-2px;min-height:8px;min-width:8px}.msportalfx-svg-disabled{filter:grayscale(100%)}.msportalfx-svg-loading-square{animation:ProgressFlagAnimation 1.45s infinite ease-in-out;transform-origin:50%}.msportalfx-svg-loading-square:nth-child(1){animation-delay:0s}.msportalfx-svg-loading-square:nth-child(2){animation-delay:.2s}.msportalfx-svg-loading-square:nth-child(3){animation-delay:.4s}@keyframes ProgressFlagAnimation{0%{transform:scale(1);opacity:.3}36.1%{transform:scale(1.06);opacity:1}50%{transform:scale(1.06);opacity:1}86.1%{transform:scale(1);opacity:.3}}.msportalfx-svg-flip-horizontal&gt;svg,svg.msportalfx-svg-flip-horizontal{transform:scaleX(-1)}.msportalfx-svg-fabric-rotate360{animation:ImageRotation 1.3s cubic-bezier(.53,.21,.29,.67) infinite}@keyframes ImageRotation{0%{transform:rotate(-45deg)}100%{transform:rotate(315deg)}}.fxs-svg-number .msportalfx-font-bold{font-size:10px;fill:#0065ad}.fxs-svg-number .fxs-svg-circle{stroke-width:0%;fill:#0078d4}.fxs-svg-number .fxs-svg-text{fill:#fff;font-size:10px}.fxs-svg-number.msportalfx-svg-disabled{filter:grayscale(0%)}.fxs-svg-number.msportalfx-svg-disabled .fxs-svg-circle{fill:#fff;stroke-width:1px;stroke:#949494}.fxs-svg-number.msportalfx-svg-disabled .fxs-svg-text{fill:#949494}.fxs-theme-dark .fxs-svg-number .fxs-svg-text{fill:#0f0f0f}.fxs-theme-dark .fxs-svg-number .fxs-svg-circle{stroke-width:0%;fill:#0078d4}.fxs-theme-dark .fxs-svg-number.msportalfx-svg-disabled .fxs-svg-circle{fill:#0f0f0f;stroke-width:1px;stroke:#949494}.fxs-theme-dark .fxs-svg-number.msportalfx-svg-disabled .fxs-svg-text{fill:#949494}</style></svg>