<svg viewBox="0 0 18 18" class="msportalfx-svg-placeholder" xmlns="http://www.w3.org/2000/svg"><title>Enclave</title><desc>Create an enclave within a community. Enclaves are isolated virtual networks that host workloads and are secured through managed routes, connections, and Azure Policy.</desc><defs><linearGradient id="p0ZeL0sxh__a" x1="10.072" x2="13.818" y1="9.056" y2="2.233" gradientUnits="userSpaceOnUse"><stop offset=".338" stop-color="#32bedd" /><stop offset=".477" stop-color="#3dcde9" /><stop offset=".697" stop-color="#4bdff9" /><stop offset=".853" stop-color="#50e6ff" /></linearGradient><linearGradient id="p0ZeL0sxh__b" x1="8.192" x2="13.695" y1="7.791" y2="13.295" gradientUnits="userSpaceOnUse"><stop offset=".01" stop-color="#198ab3" /><stop offset=".233" stop-color="#1b8fb7" /><stop offset=".516" stop-color="#239fc4" /><stop offset=".832" stop-color="#2fb9d9" /><stop offset=".881" stop-color="#32bedd" /></linearGradient><linearGradient id="p0ZeL0sxh__c" x1="7.575" x2="7.575" y1="13.19" y2="5.402" gradientUnits="userSpaceOnUse"><stop offset="0" stop-color="#50e6ff" /><stop offset="1" stop-color="#9cebff" /></linearGradient></defs><path fill="#32bedd" d="M16.569 6.271c.104-.093-1.3-3.264-1.352-3.442a1.04 1.04 0 0 0-.436-.502c-.219-.093-2.94-.852-3.173-.836-.104-.033-1.432.694-1.553.739-.019-.014-.167.119-.221.2L8.33 4.748c-.14.217-.153.524-.035.808l1.274 3.063c.118.286.349.502.607.572l2.776.745a.6.6 0 0 0 .424-.036c.194-.127 1.491-.669 1.576-.883l1.502-2.318a.77.77 0 0 0 .115-.429Z" /><path fill="url(#p0ZeL0sxh__a)" d="m13.86 3.512 1.272 3.063c.118.286.105.594-.034.808l-1.502 2.318a.564.564 0 0 1-.643.236l-2.776-.745c-.258-.069-.489-.286-.607-.572L8.296 5.557c-.118-.284-.105-.592.034-.808l1.504-2.318a.565.565 0 0 1 .642-.236l2.776.745c.258.069.491.288.609.572Z" /><path fill="#198ab3" d="M17.875 12.824c.104-.093-1.3-3.264-1.352-3.442a1.04 1.04 0 0 0-.436-.502c-.219-.093-2.94-.852-3.173-.836-.104-.033-1.432.694-1.553.739-.019-.014-.167.119-.221.2l-1.504 2.318c-.14.217-.153.524-.035.808l1.274 3.063c.118.286.349.502.607.572l2.776.745a.6.6 0 0 0 .424-.036c.194-.127 1.491-.669 1.576-.883l1.502-2.318a.77.77 0 0 0 .115-.429Z" /><path fill="url(#p0ZeL0sxh__b)" d="m15.166 10.065 1.272 3.063c.118.286.105.594-.034.808l-1.502 2.318a.564.564 0 0 1-.643.236l-2.776-.745c-.258-.069-.489-.286-.607-.572L9.602 12.11c-.118-.284-.105-.592.034-.808l1.504-2.318a.565.565 0 0 1 .642-.236l2.776.745c.258.069.491.288.609.572Z" /><path fill="#50e6ff" d="M12.43 9.501c.104-.093-1.3-3.264-1.352-3.442a1.04 1.04 0 0 0-.436-.502c-.219-.093-2.94-.852-3.173-.836-.104-.033-1.432.694-1.553.739-.019-.014-.167.119-.221.2L4.191 7.978c-.14.217-.153.524-.035.808l1.274 3.063c.118.286.349.502.607.572l2.776.745a.6.6 0 0 0 .424-.036c.194-.127 1.491-.669 1.576-.883l1.502-2.318a.77.77 0 0 0 .115-.429Z" /><path fill="url(#p0ZeL0sxh__c)" d="m9.721 6.742 1.272 3.063c.118.286.105.594-.034.808l-1.502 2.318a.564.564 0 0 1-.643.236l-2.776-.745c-.258-.069-.489-.286-.607-.572L4.157 8.787c-.118-.284-.105-.592.034-.808l1.504-2.318a.565.565 0 0 1 .642-.236l2.776.745c.258.069.491.288.609.572Z" /><path fill="#005ba1" d="M10.131 14.78a21.5 21.5 0 0 1-2.758 2.124c-.75-.484-2.217-1.509-3.574-2.916-1.848-1.917-2.785-3.793-2.785-5.577V3.09c2.338-.13 3.27-.793 4.027-1.332.605-.431 1.042-.742 2.332-.742s1.727.311 2.332.742l.044.031c.326-.229.902-.461.902-.461C9.767.758 9.273.125 7.372.125 4.017.125 5.048 2.098.57 2.216a.457.457 0 0 0-.445.456v5.739c0 4.774 5.757 8.617 7.01 9.396a.45.45 0 0 0 .476 0 22.3 22.3 0 0 0 2.903-2.175c-.242-.291-.384-.852-.384-.852Z" /><style>.msportalfx-svg-c01{fill:#fff}.msportalfx-svg-c02{fill:#e5e5e5}.msportalfx-svg-c03{fill:#a0a1a2}.msportalfx-svg-c04{fill:#7a7a7a}.msportalfx-svg-c05{fill:#3e3e3e}.msportalfx-svg-c06{fill:#1e1e1e}.msportalfx-svg-c07{fill:#0f0f0f}.msportalfx-svg-c08{fill:#ba141a}.msportalfx-svg-c09{fill:#dd5900}.msportalfx-svg-c10{fill:#ff8c00}.msportalfx-svg-c11{fill:#fcd116}.msportalfx-svg-c12{fill:#fee087}.msportalfx-svg-c13{fill:#b8d432}.msportalfx-svg-c14,.msportalfx-svg-c32{fill:#57a300}.msportalfx-svg-c15{fill:#59b4d9}.msportalfx-svg-c16{fill:#3999c6}.msportalfx-svg-c17{fill:#804998}.msportalfx-svg-c18{fill:#ec008c}.msportalfx-svg-c19{fill:#0072c6}.msportalfx-svg-c20{fill:#68217a}.msportalfx-svg-c21{fill:#00188f}.msportalfx-svg-c22{fill:#e81123}.fxs-mode-light .msportalfx-svg-c22{fill:#a4262c}.msportalfx-svg-c23{fill:#cae3f3}.msportalfx-svg-c24{fill:#59aed3}.msportalfx-svg-c25{fill:#4c3b12}.msportalfx-svg-c26{fill:#be9555}.msportalfx-svg-c27{fill:#4f4d52}.msportalfx-svg-c28{fill:#ef6f59}.msportalfx-svg-c29{fill:#f7cb64}.msportalfx-svg-c30{fill:#fdd8db}.msportalfx-svg-c31{fill:#f6ffec}.msportalfx-svg-c33{fill:#8a2da5}.msportalfx-svg-c34{fill:#e00b1c}.msportalfx-svg-c35{fill:#015cda}.msportalfx-svg-c36{fill:#5db300}.msportalfx-svg-c97{fill:#ffb900}.msportalfx-svg-c98{fill:#00a4ef}.msportalfx-svg-c99{fill:#f25022}.msportalfx-inverted-theme .msportalfx-svg-c05,.fxs-theme-dark .msportalfx-svg-c05{fill:#777}.msportalfx-inverted-theme .msportalfx-svg-c07,.fxs-theme-dark .msportalfx-svg-c07{fill:#f2f2f2}.msportalfx-svg-palette-white{fill:#fff}.msportalfx-svg-palette-blue{fill:#015cda}.msportalfx-svg-palette-black{fill:#1e1e1e}.msportalfx-svg-palette-green{fill:#57a300}.msportalfx-svg-palette-gray{fill:#a0a1a2}.msportalfx-svg-palette-inherit{fill:inherit}.msportalfx-svg-badge{position:absolute;left:0;bottom:0;min-height:10px;min-width:10px}.fxc-menu-icon&gt;.msportalfx-svg-badge{left:-2px;bottom:-2px;min-height:8px;min-width:8px}.msportalfx-svg-disabled{filter:grayscale(100%)}.msportalfx-svg-loading-square{animation:ProgressFlagAnimation 1.45s infinite ease-in-out;transform-origin:50%}.msportalfx-svg-loading-square:nth-child(1){animation-delay:0s}.msportalfx-svg-loading-square:nth-child(2){animation-delay:.2s}.msportalfx-svg-loading-square:nth-child(3){animation-delay:.4s}@keyframes ProgressFlagAnimation{0%{transform:scale(1);opacity:.3}36.1%{transform:scale(1.06);opacity:1}50%{transform:scale(1.06);opacity:1}86.1%{transform:scale(1);opacity:.3}}.msportalfx-svg-flip-horizontal&gt;svg,svg.msportalfx-svg-flip-horizontal{transform:scaleX(-1)}.msportalfx-svg-fabric-rotate360{animation:ImageRotation 1.3s cubic-bezier(.53,.21,.29,.67) infinite}@keyframes ImageRotation{0%{transform:rotate(-45deg)}100%{transform:rotate(315deg)}}.fxs-svg-number .msportalfx-font-bold{font-size:10px;fill:#0065ad}.fxs-svg-number .fxs-svg-circle{stroke-width:0%;fill:#0078d4}.fxs-svg-number .fxs-svg-text{fill:#fff;font-size:10px}.fxs-svg-number.msportalfx-svg-disabled{filter:grayscale(0%)}.fxs-svg-number.msportalfx-svg-disabled .fxs-svg-circle{fill:#fff;stroke-width:1px;stroke:#949494}.fxs-svg-number.msportalfx-svg-disabled .fxs-svg-text{fill:#949494}.fxs-theme-dark .fxs-svg-number .fxs-svg-text{fill:#0f0f0f}.fxs-theme-dark .fxs-svg-number .fxs-svg-circle{stroke-width:0%;fill:#0078d4}.fxs-theme-dark .fxs-svg-number.msportalfx-svg-disabled .fxs-svg-circle{fill:#0f0f0f;stroke-width:1px;stroke:#949494}.fxs-theme-dark .fxs-svg-number.msportalfx-svg-disabled .fxs-svg-text{fill:#949494}</style></svg>