<svg viewBox="0 0 18 18" class="msportalfx-svg-placeholder" xmlns="http://www.w3.org/2000/svg"><title>Enclave connection</title><desc>Enclave connections associate two virtual enclaves within a community using exposed endpoints that define security rules and firewall policies for connecting.</desc><defs><linearGradient id="pHQ8dlKRU__a" x1="2.376" x2="11.833" y1="5.25" y2="13.079" gradientUnits="userSpaceOnUse"><stop offset="0" stop-color="#198ab3" /><stop offset=".254" stop-color="#1d92ba" /><stop offset=".663" stop-color="#28aacd" /><stop offset=".933" stop-color="#32bedd" /></linearGradient><linearGradient id="pHQ8dlKRU__b" x1=".913" x2="5" y1="10.64" y2="3.196" gradientUnits="userSpaceOnUse"><stop offset="0" stop-color="#50e6ff" /><stop offset="1" stop-color="#9cebff" /></linearGradient><linearGradient id="pHQ8dlKRU__c" x1="-1962.841" x2="-1959.21" y1="363.142" y2="355.006" gradientTransform="rotate(19.968 25.804 5778.346)" gradientUnits="userSpaceOnUse"><stop offset=".104" stop-color="#999" /><stop offset=".126" stop-color="#afafaf" /><stop offset=".171" stop-color="#e7e7e7" /><stop offset=".189" stop-color="#fff" /></linearGradient><linearGradient id="pHQ8dlKRU__d" x1="9.109" x2="11.011" y1="12.766" y2="10.864" gradientUnits="userSpaceOnUse"><stop offset=".066" stop-color="#999" /><stop offset=".085" stop-color="#9d9d9d" /><stop offset=".272" stop-color="#c7c7c7" /><stop offset=".442" stop-color="#e5e5e5" /><stop offset=".586" stop-color="#f8f8f8" /><stop offset=".688" stop-color="#fff" /></linearGradient><linearGradient id="pHQ8dlKRU__e" x1="2.732" x2="4.595" y1="6.389" y2="4.484" gradientUnits="userSpaceOnUse"><stop offset=".066" stop-color="#999" /><stop offset=".253" stop-color="#b3b3b3" /><stop offset=".583" stop-color="#dcdcdc" /><stop offset=".843" stop-color="#f5f5f5" /><stop offset="1" stop-color="#fff" /></linearGradient></defs><path fill="#198ab3" d="M17.875 12.058c.175-.152-2.06-5.143-2.135-5.428a1.64 1.64 0 0 0-.689-.791 1.2 1.2 0 0 0-.273-.111l-4.382-1.175a1 1 0 0 0-.346-.032c-.176-.052-2.26 1.092-2.461 1.166-.04-.009-.26.18-.348.316L4.867 9.657c-.221.342-.241.827-.054 1.274l2.011 4.83c.187.451.551.792.958.901l4.382 1.175c.229.08.533.014.669-.057.306-.203 2.354-1.053 2.489-1.393l2.371-3.655c.13-.199.184-.44.181-.676ZM7.9 5.6h.027q-.03.002-.059.007l.031-.006Zm.173-.001h.008l.008.002-.052-.002zm-.346.035.025-.008.02-.004-.057.016.011-.005Z" /><path fill="url(#pHQ8dlKRU__a)" d="m13.598 7.708 2.008 4.829c.187.451.166.936-.054 1.274l-2.371 3.655c-.221.342-.609.481-1.016.372l-4.382-1.175c-.407-.109-.772-.451-.958-.902l-2.011-4.83c-.187-.447-.166-.933.054-1.274l2.374-3.654c.22-.338.606-.482 1.013-.373l4.382 1.175c.407.109.775.455.961.902Z" /><path fill="#50e6ff" d="M9.247 5.341c.114-.102-1.42-3.56-1.477-3.754a1.13 1.13 0 0 0-.476-.547C7.054.939 4.083.111 3.829.129a.6.6 0 0 0-.215.061c-.223.139-1.682.765-1.723.964L.249 3.682c-.153.236-.167.572-.038.881l1.391 3.341c.129.312.381.548.663.623l3.031.813c.159.055.368.01.463-.039.212-.138 1.628-.73 1.721-.964l1.64-2.528a.84.84 0 0 0 .125-.468ZM2.348.873h.019q-.02.001-.041.005l.022-.004Zm.119 0h.006l.005.001-.036-.002zm-.239.025.018-.005L2.26.89l-.04.011q.004 0 .008-.003" /><path fill="url(#pHQ8dlKRU__b)" d="m6.289 2.332 1.389 3.34c.129.312.115.647-.038.881L6 9.081a.62.62 0 0 1-.703.257l-3.031-.813c-.282-.076-.534-.312-.663-.624L.213 4.562c-.129-.309-.115-.645.038-.881l1.641-2.528a.62.62 0 0 1 .701-.258l3.031.813c.282.076.536.315.665.624" /><path fill="url(#pHQ8dlKRU__c)" d="M11.44 11.651a1.304 1.304 0 0 0-1.384-1.22 1.3 1.3 0 0 0-.531.156l-4.56-4.686a1.298 1.298 0 0 0-1.264-1.842v.002a1.306 1.306 0 0 0 .164 2.605 1.3 1.3 0 0 0 .528-.154l4.563 4.687a1.298 1.298 0 0 0 1.264 1.839v-.002a1.306 1.306 0 0 0 1.22-1.385" /><circle cx="10.139" cy="11.735" r="1.303" fill="url(#pHQ8dlKRU__d)" /><path fill="url(#pHQ8dlKRU__e)" d="M4.271 6.208c0-.23.186-.416.416-.416.106 0 .2.043.274.108a1.303 1.303 0 1 0-1.188.772c.228 0 .439-.064.625-.166a.42.42 0 0 1-.127-.298" /><style>.msportalfx-svg-c01{fill:#fff}.msportalfx-svg-c02{fill:#e5e5e5}.msportalfx-svg-c03{fill:#a0a1a2}.msportalfx-svg-c04{fill:#7a7a7a}.msportalfx-svg-c05{fill:#3e3e3e}.msportalfx-svg-c06{fill:#1e1e1e}.msportalfx-svg-c07{fill:#0f0f0f}.msportalfx-svg-c08{fill:#ba141a}.msportalfx-svg-c09{fill:#dd5900}.msportalfx-svg-c10{fill:#ff8c00}.msportalfx-svg-c11{fill:#fcd116}.msportalfx-svg-c12{fill:#fee087}.msportalfx-svg-c13{fill:#b8d432}.msportalfx-svg-c14,.msportalfx-svg-c32{fill:#57a300}.msportalfx-svg-c15{fill:#59b4d9}.msportalfx-svg-c16{fill:#3999c6}.msportalfx-svg-c17{fill:#804998}.msportalfx-svg-c18{fill:#ec008c}.msportalfx-svg-c19{fill:#0072c6}.msportalfx-svg-c20{fill:#68217a}.msportalfx-svg-c21{fill:#00188f}.msportalfx-svg-c22{fill:#e81123}.fxs-mode-light .msportalfx-svg-c22{fill:#a4262c}.msportalfx-svg-c23{fill:#cae3f3}.msportalfx-svg-c24{fill:#59aed3}.msportalfx-svg-c25{fill:#4c3b12}.msportalfx-svg-c26{fill:#be9555}.msportalfx-svg-c27{fill:#4f4d52}.msportalfx-svg-c28{fill:#ef6f59}.msportalfx-svg-c29{fill:#f7cb64}.msportalfx-svg-c30{fill:#fdd8db}.msportalfx-svg-c31{fill:#f6ffec}.msportalfx-svg-c33{fill:#8a2da5}.msportalfx-svg-c34{fill:#e00b1c}.msportalfx-svg-c35{fill:#015cda}.msportalfx-svg-c36{fill:#5db300}.msportalfx-svg-c97{fill:#ffb900}.msportalfx-svg-c98{fill:#00a4ef}.msportalfx-svg-c99{fill:#f25022}.msportalfx-inverted-theme .msportalfx-svg-c05,.fxs-theme-dark .msportalfx-svg-c05{fill:#777}.msportalfx-inverted-theme .msportalfx-svg-c07,.fxs-theme-dark .msportalfx-svg-c07{fill:#f2f2f2}.msportalfx-svg-palette-white{fill:#fff}.msportalfx-svg-palette-blue{fill:#015cda}.msportalfx-svg-palette-black{fill:#1e1e1e}.msportalfx-svg-palette-green{fill:#57a300}.msportalfx-svg-palette-gray{fill:#a0a1a2}.msportalfx-svg-palette-inherit{fill:inherit}.msportalfx-svg-badge{position:absolute;left:0;bottom:0;min-height:10px;min-width:10px}.fxc-menu-icon&gt;.msportalfx-svg-badge{left:-2px;bottom:-2px;min-height:8px;min-width:8px}.msportalfx-svg-disabled{filter:grayscale(100%)}.msportalfx-svg-loading-square{animation:ProgressFlagAnimation 1.45s infinite ease-in-out;transform-origin:50%}.msportalfx-svg-loading-square:nth-child(1){animation-delay:0s}.msportalfx-svg-loading-square:nth-child(2){animation-delay:.2s}.msportalfx-svg-loading-square:nth-child(3){animation-delay:.4s}@keyframes ProgressFlagAnimation{0%{transform:scale(1);opacity:.3}36.1%{transform:scale(1.06);opacity:1}50%{transform:scale(1.06);opacity:1}86.1%{transform:scale(1);opacity:.3}}.msportalfx-svg-flip-horizontal&gt;svg,svg.msportalfx-svg-flip-horizontal{transform:scaleX(-1)}.msportalfx-svg-fabric-rotate360{animation:ImageRotation 1.3s cubic-bezier(.53,.21,.29,.67) infinite}@keyframes ImageRotation{0%{transform:rotate(-45deg)}100%{transform:rotate(315deg)}}.fxs-svg-number .msportalfx-font-bold{font-size:10px;fill:#0065ad}.fxs-svg-number .fxs-svg-circle{stroke-width:0%;fill:#0078d4}.fxs-svg-number .fxs-svg-text{fill:#fff;font-size:10px}.fxs-svg-number.msportalfx-svg-disabled{filter:grayscale(0%)}.fxs-svg-number.msportalfx-svg-disabled .fxs-svg-circle{fill:#fff;stroke-width:1px;stroke:#949494}.fxs-svg-number.msportalfx-svg-disabled .fxs-svg-text{fill:#949494}.fxs-theme-dark .fxs-svg-number .fxs-svg-text{fill:#0f0f0f}.fxs-theme-dark .fxs-svg-number .fxs-svg-circle{stroke-width:0%;fill:#0078d4}.fxs-theme-dark .fxs-svg-number.msportalfx-svg-disabled .fxs-svg-circle{fill:#0f0f0f;stroke-width:1px;stroke:#949494}.fxs-theme-dark .fxs-svg-number.msportalfx-svg-disabled .fxs-svg-text{fill:#949494}</style></svg>