<svg viewBox="0 0 18 18" class="msportalfx-svg-placeholder" xmlns="http://www.w3.org/2000/svg"><title>Enclave endpoint</title><desc>Community endpoints are collections of networking rules that enable external connectivity to trusted destinations including public websites, well-known services, and external private networks</desc><defs><linearGradient id="pcf76uCRy__a" x1="9" x2="9" y1="17.875" y2="8.913" gradientUnits="userSpaceOnUse"><stop offset=".359" stop-color="#198ab3" /><stop offset=".597" stop-color="#28a9cc" /><stop offset=".784" stop-color="#32bedd" /></linearGradient><linearGradient id="pcf76uCRy__b" x1="8.281" x2="8.281" y1="17.875" y2="9.636" gradientUnits="userSpaceOnUse"><stop offset=".294" stop-color="#32bedd" /><stop offset=".67" stop-color="#50e6ff" /></linearGradient><linearGradient id="pcf76uCRy__c" x1="67.583" x2="62.01" y1="642.763" y2="631.22" gradientTransform="matrix(1 0 0 -1 -56 645.516)" gradientUnits="userSpaceOnUse"><stop offset=".753" stop-color="#e6e6e6" /><stop offset="1" stop-color="#999" /></linearGradient><linearGradient id="pcf76uCRy__d" x1="64.19" x2="64.19" y1="645.307" y2="641.536" gradientTransform="matrix(1 0 0 -1 -56 645.516)" gradientUnits="userSpaceOnUse"><stop offset="0" stop-color="#50e6ff" /><stop offset="1" stop-color="#32bedd" /></linearGradient></defs><path fill="url(#pcf76uCRy__a)" d="m13.428 13.972-.001-.042-.003-.043-.005-.046-.007-.04v-.008a1 1 0 0 0-.067-.221l-1.349-3.24-.02-.045a1 1 0 0 0-.088-.153l-.024-.032q-.023-.034-.047-.064a1 1 0 0 0-.067-.073l-.018-.016-.008-.007-.027-.025-.087-.067-.039-.026-.02-.012-.004-.002-.014-.008-.037-.019-.036-.017-.036-.015-.035-.012-.035-.011-.004-.001-2.943-.788-.032-.008-.036-.007-.037-.005h-.017l-.021-.002h-.04l-.043.002h-.012l-.034.004-.053.011-.012.004-.017.005q-.017.004-.034.011-.03.011-.058.025l-1.438.723.023-.009a.6.6 0 0 0-.257.221l-1.594 2.452c-.148.229-.162.555-.037.855l1.35 3.241c.125.302.37.532.644.605l2.943.789a.63.63 0 0 0 .457-.043l-.007.005 1.438-.723a.6.6 0 0 0 .117-.08l.032-.032.045-.045.039-.054 1.592-2.452.003-.005a1 1 0 0 0 .049-.092l.017-.042.014-.04.002-.007v-.002l.008-.03.009-.039.007-.039.005-.039.004-.039.001-.024v-.056ZM6.73 9.639h.019q-.02.001-.039.004l.021-.004Zm.116-.001h.006l.005.001-.035-.002h.024Zm-.232.024.017-.005-.024.008q.004 0 .008-.003Z" /><path fill="url(#pcf76uCRy__b)" d="m10.556 11.054 1.349 3.24c.125.302.111.628-.037.855l-1.592 2.452a.6.6 0 0 1-.682.25l-2.943-.788c-.273-.073-.518-.302-.644-.605l-1.35-3.241c-.125-.3-.112-.626.037-.855L6.288 9.91a.6.6 0 0 1 .68-.25l2.943.788c.273.073.52.305.646.605Z" /><path fill="url(#pcf76uCRy__c)" d="M6.869 14.853a1.886 1.886 0 1 0 2.643-2.691 1.85 1.85 0 0 0-.68-.421V2.879H7.626v8.84a1.875 1.875 0 0 0-.76 3.137z" /><circle cx="8.19" cy="2.011" r="1.886" fill="url(#pcf76uCRy__d)" /><style>.msportalfx-svg-c01{fill:#fff}.msportalfx-svg-c02{fill:#e5e5e5}.msportalfx-svg-c03{fill:#a0a1a2}.msportalfx-svg-c04{fill:#7a7a7a}.msportalfx-svg-c05{fill:#3e3e3e}.msportalfx-svg-c06{fill:#1e1e1e}.msportalfx-svg-c07{fill:#0f0f0f}.msportalfx-svg-c08{fill:#ba141a}.msportalfx-svg-c09{fill:#dd5900}.msportalfx-svg-c10{fill:#ff8c00}.msportalfx-svg-c11{fill:#fcd116}.msportalfx-svg-c12{fill:#fee087}.msportalfx-svg-c13{fill:#b8d432}.msportalfx-svg-c14,.msportalfx-svg-c32{fill:#57a300}.msportalfx-svg-c15{fill:#59b4d9}.msportalfx-svg-c16{fill:#3999c6}.msportalfx-svg-c17{fill:#804998}.msportalfx-svg-c18{fill:#ec008c}.msportalfx-svg-c19{fill:#0072c6}.msportalfx-svg-c20{fill:#68217a}.msportalfx-svg-c21{fill:#00188f}.msportalfx-svg-c22{fill:#e81123}.fxs-mode-light .msportalfx-svg-c22{fill:#a4262c}.msportalfx-svg-c23{fill:#cae3f3}.msportalfx-svg-c24{fill:#59aed3}.msportalfx-svg-c25{fill:#4c3b12}.msportalfx-svg-c26{fill:#be9555}.msportalfx-svg-c27{fill:#4f4d52}.msportalfx-svg-c28{fill:#ef6f59}.msportalfx-svg-c29{fill:#f7cb64}.msportalfx-svg-c30{fill:#fdd8db}.msportalfx-svg-c31{fill:#f6ffec}.msportalfx-svg-c33{fill:#8a2da5}.msportalfx-svg-c34{fill:#e00b1c}.msportalfx-svg-c35{fill:#015cda}.msportalfx-svg-c36{fill:#5db300}.msportalfx-svg-c97{fill:#ffb900}.msportalfx-svg-c98{fill:#00a4ef}.msportalfx-svg-c99{fill:#f25022}.msportalfx-inverted-theme .msportalfx-svg-c05,.fxs-theme-dark .msportalfx-svg-c05{fill:#777}.msportalfx-inverted-theme .msportalfx-svg-c07,.fxs-theme-dark .msportalfx-svg-c07{fill:#f2f2f2}.msportalfx-svg-palette-white{fill:#fff}.msportalfx-svg-palette-blue{fill:#015cda}.msportalfx-svg-palette-black{fill:#1e1e1e}.msportalfx-svg-palette-green{fill:#57a300}.msportalfx-svg-palette-gray{fill:#a0a1a2}.msportalfx-svg-palette-inherit{fill:inherit}.msportalfx-svg-badge{position:absolute;left:0;bottom:0;min-height:10px;min-width:10px}.fxc-menu-icon&gt;.msportalfx-svg-badge{left:-2px;bottom:-2px;min-height:8px;min-width:8px}.msportalfx-svg-disabled{filter:grayscale(100%)}.msportalfx-svg-loading-square{animation:ProgressFlagAnimation 1.45s infinite ease-in-out;transform-origin:50%}.msportalfx-svg-loading-square:nth-child(1){animation-delay:0s}.msportalfx-svg-loading-square:nth-child(2){animation-delay:.2s}.msportalfx-svg-loading-square:nth-child(3){animation-delay:.4s}@keyframes ProgressFlagAnimation{0%{transform:scale(1);opacity:.3}36.1%{transform:scale(1.06);opacity:1}50%{transform:scale(1.06);opacity:1}86.1%{transform:scale(1);opacity:.3}}.msportalfx-svg-flip-horizontal&gt;svg,svg.msportalfx-svg-flip-horizontal{transform:scaleX(-1)}.msportalfx-svg-fabric-rotate360{animation:ImageRotation 1.3s cubic-bezier(.53,.21,.29,.67) infinite}@keyframes ImageRotation{0%{transform:rotate(-45deg)}100%{transform:rotate(315deg)}}.fxs-svg-number .msportalfx-font-bold{font-size:10px;fill:#0065ad}.fxs-svg-number .fxs-svg-circle{stroke-width:0%;fill:#0078d4}.fxs-svg-number .fxs-svg-text{fill:#fff;font-size:10px}.fxs-svg-number.msportalfx-svg-disabled{filter:grayscale(0%)}.fxs-svg-number.msportalfx-svg-disabled .fxs-svg-circle{fill:#fff;stroke-width:1px;stroke:#949494}.fxs-svg-number.msportalfx-svg-disabled .fxs-svg-text{fill:#949494}.fxs-theme-dark .fxs-svg-number .fxs-svg-text{fill:#0f0f0f}.fxs-theme-dark .fxs-svg-number .fxs-svg-circle{stroke-width:0%;fill:#0078d4}.fxs-theme-dark .fxs-svg-number.msportalfx-svg-disabled .fxs-svg-circle{fill:#0f0f0f;stroke-width:1px;stroke:#949494}.fxs-theme-dark .fxs-svg-number.msportalfx-svg-disabled .fxs-svg-text{fill:#949494}</style></svg>