<svg viewBox="0 0 18 18" class="msportalfx-svg-placeholder" xmlns="http://www.w3.org/2000/svg"><title>Transit hub</title><desc>Create transit hubs to securely allow network traffic through the community firewall to and from external destinations.</desc><defs><clipPath id="p15nQ3tKL__a"><path fill="none" d="M12.614 3.933a1.3 1.3 0 0 0-1.128-.651H6.475a1.3 1.3 0 0 0-1.128.651L2.842 8.269a1.3 1.3 0 0 0 0 1.302l2.505 4.336c.233.403.663.651 1.128.651h5.011a1.3 1.3 0 0 0 1.128-.651l2.505-4.336a1.3 1.3 0 0 0 0-1.302z" /></clipPath></defs><g clip-path="url(#p15nQ3tKL__a)"><path fill="#005ba1" d="M15.082 14.354a.5.5 0 0 0 .512-.488V3.972a.5.5 0 0 0-.512-.488s-12.196 0-12.196 0a.5.5 0 0 0-.512.488v9.894a.5.5 0 0 0 .512.488s12.196 0 12.196 0" /><path fill="#50e6ff" d="M3.154 4.168h3.574v1.488H3.154z" /><path fill="#c3f1ff" d="M7.264 4.168h3.574v1.488H7.264z" /><path fill="#50e6ff" d="M11.375 4.168h3.574v1.488h-3.574zm-8.221 2h1.488v1.488H3.154z" /><path fill="#c3f1ff" d="M13.46 6.168h1.488v1.488H13.46zm-8.281 0h3.574v1.488H5.179z" /><path fill="#50e6ff" d="M9.289 6.168h3.574v1.488H9.289zm-6.135 2h3.574v1.488H3.154z" /><path fill="#c3f1ff" d="M7.264 8.168h3.574v1.488H7.264z" /><path fill="#50e6ff" d="M11.375 8.168h3.574v1.488h-3.574zm2.085 1.978h1.488v1.488H13.46z" /><path fill="#c3f1ff" d="M3.154 10.146h1.488v1.488H3.154zm6.196 0h3.574v1.488H9.35z" /><path fill="#50e6ff" d="M5.24 10.146h3.574v1.488H5.24zm-2.086 2.001h3.574v1.488H3.154z" /><path fill="#c3f1ff" d="M7.264 12.147h3.574v1.488H7.264z" /><path fill="#50e6ff" d="M11.375 12.147h3.574v1.488h-3.574z" /></g><path fill="#005ba1" d="M11.485 4.124c.164 0 .317.088.399.23l2.505 4.336a.46.46 0 0 1 0 .459l-2.505 4.336a.46.46 0 0 1-.399.23H6.474a.46.46 0 0 1-.399-.23L3.57 9.149a.46.46 0 0 1 0-.459l2.505-4.336a.46.46 0 0 1 .399-.23zm0-.842H6.474a1.3 1.3 0 0 0-1.128.651L2.841 8.269a1.3 1.3 0 0 0 0 1.302l2.505 4.336c.233.403.663.651 1.128.651h5.011a1.3 1.3 0 0 0 1.128-.651l2.505-4.336a1.3 1.3 0 0 0 0-1.302l-2.505-4.336a1.3 1.3 0 0 0-1.128-.651" /><path fill="#005ba1" d="m1.074 13.47 2.85-2.52.798.902-2.85 2.52zm.051-9.061.697-.982 3.168 2.25-.697.981zm12.054 7.442.797-.902 2.85 2.52-.797.903zm-.269-6.173 3.169-2.251.697.981-3.168 2.252z" /><path fill="#50e6ff" d="M2.736 14.663c.131-.215.203-.46.21-.712a1.473 1.473 0 1 0-1.503 1.443h.05a1.41 1.41 0 0 0 1.243-.731m0-9.843c.131-.215.203-.46.21-.712a1.473 1.473 0 1 0-1.503 1.444h.05a1.41 1.41 0 0 0 1.243-.731Zm13.069.532c.217.132.467.202.722.2a1.473 1.473 0 1 0-1.474-1.473v.03a1.4 1.4 0 0 0 .751 1.243Zm0 9.842c.217.132.467.202.722.2a1.473 1.473 0 1 0-1.474-1.473v.03a1.4 1.4 0 0 0 .751 1.243Z" /><style>.msportalfx-svg-c01{fill:#fff}.msportalfx-svg-c02{fill:#e5e5e5}.msportalfx-svg-c03{fill:#a0a1a2}.msportalfx-svg-c04{fill:#7a7a7a}.msportalfx-svg-c05{fill:#3e3e3e}.msportalfx-svg-c06{fill:#1e1e1e}.msportalfx-svg-c07{fill:#0f0f0f}.msportalfx-svg-c08{fill:#ba141a}.msportalfx-svg-c09{fill:#dd5900}.msportalfx-svg-c10{fill:#ff8c00}.msportalfx-svg-c11{fill:#fcd116}.msportalfx-svg-c12{fill:#fee087}.msportalfx-svg-c13{fill:#b8d432}.msportalfx-svg-c14,.msportalfx-svg-c32{fill:#57a300}.msportalfx-svg-c15{fill:#59b4d9}.msportalfx-svg-c16{fill:#3999c6}.msportalfx-svg-c17{fill:#804998}.msportalfx-svg-c18{fill:#ec008c}.msportalfx-svg-c19{fill:#0072c6}.msportalfx-svg-c20{fill:#68217a}.msportalfx-svg-c21{fill:#00188f}.msportalfx-svg-c22{fill:#e81123}.fxs-mode-light .msportalfx-svg-c22{fill:#a4262c}.msportalfx-svg-c23{fill:#cae3f3}.msportalfx-svg-c24{fill:#59aed3}.msportalfx-svg-c25{fill:#4c3b12}.msportalfx-svg-c26{fill:#be9555}.msportalfx-svg-c27{fill:#4f4d52}.msportalfx-svg-c28{fill:#ef6f59}.msportalfx-svg-c29{fill:#f7cb64}.msportalfx-svg-c30{fill:#fdd8db}.msportalfx-svg-c31{fill:#f6ffec}.msportalfx-svg-c33{fill:#8a2da5}.msportalfx-svg-c34{fill:#e00b1c}.msportalfx-svg-c35{fill:#015cda}.msportalfx-svg-c36{fill:#5db300}.msportalfx-svg-c97{fill:#ffb900}.msportalfx-svg-c98{fill:#00a4ef}.msportalfx-svg-c99{fill:#f25022}.msportalfx-inverted-theme .msportalfx-svg-c05,.fxs-theme-dark .msportalfx-svg-c05{fill:#777}.msportalfx-inverted-theme .msportalfx-svg-c07,.fxs-theme-dark .msportalfx-svg-c07{fill:#f2f2f2}.msportalfx-svg-palette-white{fill:#fff}.msportalfx-svg-palette-blue{fill:#015cda}.msportalfx-svg-palette-black{fill:#1e1e1e}.msportalfx-svg-palette-green{fill:#57a300}.msportalfx-svg-palette-gray{fill:#a0a1a2}.msportalfx-svg-palette-inherit{fill:inherit}.msportalfx-svg-badge{position:absolute;left:0;bottom:0;min-height:10px;min-width:10px}.fxc-menu-icon&gt;.msportalfx-svg-badge{left:-2px;bottom:-2px;min-height:8px;min-width:8px}.msportalfx-svg-disabled{filter:grayscale(100%)}.msportalfx-svg-loading-square{animation:ProgressFlagAnimation 1.45s infinite ease-in-out;transform-origin:50%}.msportalfx-svg-loading-square:nth-child(1){animation-delay:0s}.msportalfx-svg-loading-square:nth-child(2){animation-delay:.2s}.msportalfx-svg-loading-square:nth-child(3){animation-delay:.4s}@keyframes ProgressFlagAnimation{0%{transform:scale(1);opacity:.3}36.1%{transform:scale(1.06);opacity:1}50%{transform:scale(1.06);opacity:1}86.1%{transform:scale(1);opacity:.3}}.msportalfx-svg-flip-horizontal&gt;svg,svg.msportalfx-svg-flip-horizontal{transform:scaleX(-1)}.msportalfx-svg-fabric-rotate360{animation:ImageRotation 1.3s cubic-bezier(.53,.21,.29,.67) infinite}@keyframes ImageRotation{0%{transform:rotate(-45deg)}100%{transform:rotate(315deg)}}.fxs-svg-number .msportalfx-font-bold{font-size:10px;fill:#0065ad}.fxs-svg-number .fxs-svg-circle{stroke-width:0%;fill:#0078d4}.fxs-svg-number .fxs-svg-text{fill:#fff;font-size:10px}.fxs-svg-number.msportalfx-svg-disabled{filter:grayscale(0%)}.fxs-svg-number.msportalfx-svg-disabled .fxs-svg-circle{fill:#fff;stroke-width:1px;stroke:#949494}.fxs-svg-number.msportalfx-svg-disabled .fxs-svg-text{fill:#949494}.fxs-theme-dark .fxs-svg-number .fxs-svg-text{fill:#0f0f0f}.fxs-theme-dark .fxs-svg-number .fxs-svg-circle{stroke-width:0%;fill:#0078d4}.fxs-theme-dark .fxs-svg-number.msportalfx-svg-disabled .fxs-svg-circle{fill:#0f0f0f;stroke-width:1px;stroke:#949494}.fxs-theme-dark .fxs-svg-number.msportalfx-svg-disabled .fxs-svg-text{fill:#949494}</style></svg>