<svg viewBox="0 0 18 18" class="msportalfx-svg-placeholder" xmlns="http://www.w3.org/2000/svg"><title>Workload</title><desc>Creating a workload establishes a platform-managed resource group protected by Azure Policy.</desc><linearGradient id="pVmROgzZf__a" x1="8.148" x2="11.037" y1="782.564" y2="787.826" gradientTransform="matrix(1 0 0 -1 0 791.516)" gradientUnits="userSpaceOnUse"><stop offset=".338" stop-color="#32bedd" /><stop offset=".858" stop-color="#50e6ff" /></linearGradient><linearGradient id="pVmROgzZf__b" x1="6.698" x2="10.942" y1="783.54" y2="779.296" gradientTransform="matrix(1 0 0 -1 0 791.516)" gradientUnits="userSpaceOnUse"><stop offset=".01" stop-color="#198ab3" /><stop offset=".881" stop-color="#32bedd" /></linearGradient><linearGradient id="pVmROgzZf__c" x1="6.222" x2="6.222" y1="779.376" y2="785.382" gradientTransform="matrix(1 0 0 -1 0 791.516)" gradientUnits="userSpaceOnUse"><stop offset="0" stop-color="#50e6ff" /><stop offset="1" stop-color="#9cebff" /></linearGradient><path fill="#a3a3a3" d="m4.382 15.935-.626-.361-1.732-1.005a.17.17 0 0 1-.084-.145l-.003.002V3.576h.003c0-.059.031-.114.084-.143l2.358-1.37a.17.17 0 0 0 .061-.228L3.764.654a.16.16 0 0 0-.065-.06L3.683.586a.16.16 0 0 0-.089-.013.2.2 0 0 0-.083.02L1.536 1.739l-1.228.713a.2.2 0 0 0-.059.058l.019.012a.15.15 0 0 0-.019.075v12.808q0 .04.019.076l-.019.011a.2.2 0 0 0 .059.059l1.226.712 1.975 1.147a.15.15 0 0 0 .084.02c.014.002.026-.005.04-.006a.1.1 0 0 0 .037-.006.16.16 0 0 0 .077-.055c.004-.006.012-.008.016-.014l.68-1.181a.17.17 0 0 0 .015-.129.17.17 0 0 0-.077-.103ZM17.75 2.596a.2.2 0 0 0-.019-.076l.019-.011a.2.2 0 0 0-.059-.059l-1.228-.712L14.488.591a.15.15 0 0 0-.084-.02H14.4a.16.16 0 0 0-.084.013L14.3.591a.16.16 0 0 0-.064.059l-.187.325-.494.858a.17.17 0 0 0 .061.229l2.358 1.369a.16.16 0 0 1 .084.145s0 10.846 0 10.846c0 .06-.031.116-.084.145l-2.358 1.37a.2.2 0 0 0-.041.037l-.008.007-.003.007a.17.17 0 0 0-.01.177l.68 1.181.005.005a.16.16 0 0 0 .077.063q.044.019.092.012a.2.2 0 0 0 .079-.019l1.975-1.146 1.228-.713a.2.2 0 0 0 .059-.058l-.019-.011a.2.2 0 0 0 .02-.075z" /><path fill="#32bedd" d="M13.158 6.804c.08-.072-1.003-2.517-1.043-2.655a.8.8 0 0 0-.336-.387c-.169-.072-2.267-.657-2.447-.645-.08-.025-1.104.535-1.198.57-.015-.011-.129.092-.17.154l-1.16 1.788c-.108.167-.118.404-.027.623l.983 2.362a.74.74 0 0 0 .468.441l2.141.575c.113.039.26.007.327-.028.15-.098 1.15-.516 1.215-.681l1.158-1.788a.6.6 0 0 0 .089-.331Z" /><path fill="url(#pVmROgzZf__a)" d="m11.069 4.676.981 2.362c.091.221.081.458-.026.623l-1.158 1.788a.436.436 0 0 1-.496.182l-2.141-.575c-.199-.053-.377-.221-.468-.441l-.983-2.362c-.091-.219-.081-.457.026-.623l1.16-1.788a.436.436 0 0 1 .495-.182l2.141.575a.75.75 0 0 1 .47.441Z" /><path fill="#198ab3" d="M14.165 11.858c.08-.072-1.003-2.517-1.043-2.655a.8.8 0 0 0-.336-.387c-.169-.072-2.267-.657-2.447-.645-.08-.025-1.104.535-1.198.57-.015-.011-.129.092-.17.154l-1.16 1.788c-.108.167-.118.404-.027.623l.983 2.362a.74.74 0 0 0 .468.441l2.141.575c.113.039.26.007.327-.028.15-.098 1.15-.516 1.215-.681l1.158-1.788a.6.6 0 0 0 .089-.331Z" /><path fill="url(#pVmROgzZf__b)" d="m12.076 9.73.981 2.362c.091.221.081.458-.026.623l-1.158 1.788a.436.436 0 0 1-.496.182l-2.141-.575c-.199-.053-.377-.221-.468-.441l-.983-2.362c-.091-.219-.081-.457.026-.623l1.16-1.788a.436.436 0 0 1 .495-.182l2.141.575a.75.75 0 0 1 .47.441Z" /><path fill="#50e6ff" d="M9.966 9.295c.08-.072-1.003-2.517-1.043-2.655a.8.8 0 0 0-.336-.387c-.169-.072-2.267-.657-2.447-.645-.08-.025-1.104.535-1.198.57-.015-.011-.129.092-.17.154L3.612 8.12c-.108.167-.118.404-.027.623l.983 2.362a.74.74 0 0 0 .468.441l2.141.575c.113.039.26.007.327-.028.15-.098 1.15-.516 1.215-.681l1.158-1.788a.6.6 0 0 0 .089-.331Z" /><path fill="url(#pVmROgzZf__c)" d="m7.877 7.167.981 2.362c.091.221.081.458-.026.623L7.674 11.94a.436.436 0 0 1-.496.182l-2.141-.575c-.199-.053-.377-.221-.468-.441l-.983-2.362c-.091-.219-.081-.457.026-.623l1.16-1.788a.436.436 0 0 1 .495-.182l2.141.575a.75.75 0 0 1 .47.441Z" /><style>.msportalfx-svg-c01{fill:#fff}.msportalfx-svg-c02{fill:#e5e5e5}.msportalfx-svg-c03{fill:#a0a1a2}.msportalfx-svg-c04{fill:#7a7a7a}.msportalfx-svg-c05{fill:#3e3e3e}.msportalfx-svg-c06{fill:#1e1e1e}.msportalfx-svg-c07{fill:#0f0f0f}.msportalfx-svg-c08{fill:#ba141a}.msportalfx-svg-c09{fill:#dd5900}.msportalfx-svg-c10{fill:#ff8c00}.msportalfx-svg-c11{fill:#fcd116}.msportalfx-svg-c12{fill:#fee087}.msportalfx-svg-c13{fill:#b8d432}.msportalfx-svg-c14,.msportalfx-svg-c32{fill:#57a300}.msportalfx-svg-c15{fill:#59b4d9}.msportalfx-svg-c16{fill:#3999c6}.msportalfx-svg-c17{fill:#804998}.msportalfx-svg-c18{fill:#ec008c}.msportalfx-svg-c19{fill:#0072c6}.msportalfx-svg-c20{fill:#68217a}.msportalfx-svg-c21{fill:#00188f}.msportalfx-svg-c22{fill:#e81123}.fxs-mode-light .msportalfx-svg-c22{fill:#a4262c}.msportalfx-svg-c23{fill:#cae3f3}.msportalfx-svg-c24{fill:#59aed3}.msportalfx-svg-c25{fill:#4c3b12}.msportalfx-svg-c26{fill:#be9555}.msportalfx-svg-c27{fill:#4f4d52}.msportalfx-svg-c28{fill:#ef6f59}.msportalfx-svg-c29{fill:#f7cb64}.msportalfx-svg-c30{fill:#fdd8db}.msportalfx-svg-c31{fill:#f6ffec}.msportalfx-svg-c33{fill:#8a2da5}.msportalfx-svg-c34{fill:#e00b1c}.msportalfx-svg-c35{fill:#015cda}.msportalfx-svg-c36{fill:#5db300}.msportalfx-svg-c97{fill:#ffb900}.msportalfx-svg-c98{fill:#00a4ef}.msportalfx-svg-c99{fill:#f25022}.msportalfx-inverted-theme .msportalfx-svg-c05,.fxs-theme-dark .msportalfx-svg-c05{fill:#777}.msportalfx-inverted-theme .msportalfx-svg-c07,.fxs-theme-dark .msportalfx-svg-c07{fill:#f2f2f2}.msportalfx-svg-palette-white{fill:#fff}.msportalfx-svg-palette-blue{fill:#015cda}.msportalfx-svg-palette-black{fill:#1e1e1e}.msportalfx-svg-palette-green{fill:#57a300}.msportalfx-svg-palette-gray{fill:#a0a1a2}.msportalfx-svg-palette-inherit{fill:inherit}.msportalfx-svg-badge{position:absolute;left:0;bottom:0;min-height:10px;min-width:10px}.fxc-menu-icon&gt;.msportalfx-svg-badge{left:-2px;bottom:-2px;min-height:8px;min-width:8px}.msportalfx-svg-disabled{filter:grayscale(100%)}.msportalfx-svg-loading-square{animation:ProgressFlagAnimation 1.45s infinite ease-in-out;transform-origin:50%}.msportalfx-svg-loading-square:nth-child(1){animation-delay:0s}.msportalfx-svg-loading-square:nth-child(2){animation-delay:.2s}.msportalfx-svg-loading-square:nth-child(3){animation-delay:.4s}@keyframes ProgressFlagAnimation{0%{transform:scale(1);opacity:.3}36.1%{transform:scale(1.06);opacity:1}50%{transform:scale(1.06);opacity:1}86.1%{transform:scale(1);opacity:.3}}.msportalfx-svg-flip-horizontal&gt;svg,svg.msportalfx-svg-flip-horizontal{transform:scaleX(-1)}.msportalfx-svg-fabric-rotate360{animation:ImageRotation 1.3s cubic-bezier(.53,.21,.29,.67) infinite}@keyframes ImageRotation{0%{transform:rotate(-45deg)}100%{transform:rotate(315deg)}}.fxs-svg-number .msportalfx-font-bold{font-size:10px;fill:#0065ad}.fxs-svg-number .fxs-svg-circle{stroke-width:0%;fill:#0078d4}.fxs-svg-number .fxs-svg-text{fill:#fff;font-size:10px}.fxs-svg-number.msportalfx-svg-disabled{filter:grayscale(0%)}.fxs-svg-number.msportalfx-svg-disabled .fxs-svg-circle{fill:#fff;stroke-width:1px;stroke:#949494}.fxs-svg-number.msportalfx-svg-disabled .fxs-svg-text{fill:#949494}.fxs-theme-dark .fxs-svg-number .fxs-svg-text{fill:#0f0f0f}.fxs-theme-dark .fxs-svg-number .fxs-svg-circle{stroke-width:0%;fill:#0078d4}.fxs-theme-dark .fxs-svg-number.msportalfx-svg-disabled .fxs-svg-circle{fill:#0f0f0f;stroke-width:1px;stroke:#949494}.fxs-theme-dark .fxs-svg-number.msportalfx-svg-disabled .fxs-svg-text{fill:#949494}</style></svg>