<svg fill="none" viewBox="0 0 40 40" class="msportalfx-svg-placeholder" xmlns='http://www.w3.org/2000/svg'><path fill="#9B9C9C" d="M.556 6.089q0-.099.046-.187a.36.36 0 0 1 .136-.133l2.744-1.533 4.394-2.538a.39.39 0 0 1 .518.187l1.513 2.562a.4.4 0 0 1 .026.269.35.35 0 0 1-.164.21L4.516 7.9a.37.37 0 0 0-.183.32v23.604a.39.39 0 0 0 .183.32l5.26 2.978a.363.363 0 0 1 .137.48L8.4 38.165a.4.4 0 0 1-.236.175.38.38 0 0 1-.29-.04L3.39 35.707l-2.65-1.48a.4.4 0 0 1-.136-.136.34.34 0 0 1-.046-.187zm38.888-.045a.36.36 0 0 0-.182-.32l-2.744-1.533-4.394-2.493a.39.39 0 0 0-.518.187l-1.513 2.562a.4.4 0 0 0-.026.269.36.36 0 0 0 .164.21L35.484 7.9a.35.35 0 0 1 .134.136.35.35 0 0 1 .049.184v23.604a.39.39 0 0 1-.183.32l-5.26 2.978a.35.35 0 0 0-.162.211.37.37 0 0 0 .025.27l1.513 2.561a.386.386 0 0 0 .527.136l4.482-2.593 2.653-1.487a.36.36 0 0 0 .131-.133.35.35 0 0 0 .05-.183z"/><path fill="#B1B3B3" d="M2.616 7.073.556 5.907c0-.036.017-.07.042-.096a.14.14 0 0 1 .095-.04l2.723-1.533L7.829 1.7a.34.34 0 0 1 .333-.013c.08.04.142.11.171.195l1.514 2.562q.019.029.035.06a.3.3 0 0 1 0 .245.34.34 0 0 1-.173.175L4.447 7.902l-.138.136zm7.088 28-5.26-2.975a.5.5 0 0 1-.16-.216L.58 34.18h.116l2.628 1.489 4.578 2.538a.35.35 0 0 0 .476-.091l.029-.047 1.513-2.56a.3.3 0 0 0 0-.247.33.33 0 0 0-.171-.175l-.042-.016zm27.68-28.037 2.06-1.176-.137-.136-2.723-1.533-4.413-2.493a.34.34 0 0 0-.333-.013.36.36 0 0 0-.174.195l-1.513 2.562-.035.06a.3.3 0 0 0 0 .245.34.34 0 0 0 .173.175L35.55 7.9l.138.136 1.691-1zm-7.182 28.473 1.513 2.56.027.047a.34.34 0 0 0 .22.142.34.34 0 0 0 .258-.051l4.575-2.538 2.63-1.489-3.705-2.287a.5.5 0 0 1-.16.216l-5.26 2.973a.32.32 0 0 0-.093.425z"/><path fill="#664B96" d="M32.962 13.52v7.022a.9.9 0 0 0-.324-.064c-1.578-.023-2.053-.367-2.571-.714-.562-.389-1.21-.842-2.68-.842-1.491 0-2.118.453-2.68.842-.518.347-1.016.692-2.571.714-.67.022-1.19.54-1.19 1.209v4.277c0 1.62.778 3.09 1.772 4.3l-2.658 1.058a.44.44 0 0 1-.238.065c-.042 0-.086 0-.129-.023a.34.34 0 0 1-.173-.302V8.918c0-.13.064-.238.173-.28l.065-.022h.173l.087.022 12.466 4.235c.28.087.476.347.476.65z"/><path fill="#8661C5" d="M19.758 8.611 7.342 10.878a.376.376 0 0 0-.304.369v17.137c0 .178.122.331.298.367l12.413 2.633a.378.378 0 0 0 .458-.366V8.98a.375.375 0 0 0-.374-.376q-.034-.002-.073.007z"/><path fill="#A58AD4" d="M14.022 27.969V12.024l4.318-.753v17.396zm-5.309-1.116V12.884l3.763-.63v15.362z"/><path fill="url(#pqtarFLJG__a)" d="M32.962 25.956c0 3.544-4.43 6.4-5.395 6.977a.36.36 0 0 1-.367 0c-.964-.575-5.396-3.433-5.396-6.977v-4.267c0-.187.156-.336.345-.34 3.447-.091 2.653-1.553 5.235-1.553s1.79 1.464 5.236 1.553c.189 0 .34.153.344.34z"/><path fill="#fff" d="M29.811 25.307a.26.26 0 0 0-.18-.074h-.322v-1.115a2.1 2.1 0 0 0-.551-1.425 1.85 1.85 0 0 0-1.371-.604 1.85 1.85 0 0 0-1.371.604c-.36.387-.558.896-.552 1.425v1.117h-.326a.256.256 0 0 0-.258.251v2.9a.256.256 0 0 0 .258.252h4.493a.27.27 0 0 0 .18-.074.25.25 0 0 0 .078-.177v-2.9a.26.26 0 0 0-.078-.178zm-1.402-.076h-2.047v-1.133c0-.291.118-.571.323-.78a.94.94 0 0 1 1.086-.234c.12.054.229.134.318.234q.066.074.12.157c.127.185.198.4.202.623l-.004 1.133z"/><defs><linearGradient id="pqtarFLJG__a" x1="27.384" x2="27.384" y1="32.984" y2="19.796" gradientUnits="userSpaceOnUse"><stop stop-color="#4AA647"/><stop offset=".218" stop-color="#51AD4B"/><stop offset=".542" stop-color="#65C158"/><stop offset=".932" stop-color="#86E26C"/><stop offset=".998" stop-color="#8DE971"/></linearGradient></defs><style>.msportalfx-svg-c01{fill:#fff}.msportalfx-svg-c02{fill:#e5e5e5}.msportalfx-svg-c03{fill:#a0a1a2}.msportalfx-svg-c04{fill:#7a7a7a}.msportalfx-svg-c05{fill:#3e3e3e}.msportalfx-svg-c06{fill:#1e1e1e}.msportalfx-svg-c07{fill:#0f0f0f}.msportalfx-svg-c08{fill:#ba141a}.msportalfx-svg-c09{fill:#dd5900}.msportalfx-svg-c10{fill:#ff8c00}.msportalfx-svg-c11{fill:#fcd116}.msportalfx-svg-c12{fill:#fee087}.msportalfx-svg-c13{fill:#b8d432}.msportalfx-svg-c14,.msportalfx-svg-c32{fill:#57a300}.msportalfx-svg-c15{fill:#59b4d9}.msportalfx-svg-c16{fill:#3999c6}.msportalfx-svg-c17{fill:#804998}.msportalfx-svg-c18{fill:#ec008c}.msportalfx-svg-c19{fill:#0072c6}.msportalfx-svg-c20{fill:#68217a}.msportalfx-svg-c21{fill:#00188f}.msportalfx-svg-c22{fill:#e81123}.fxs-mode-light .msportalfx-svg-c22{fill:#a4262c}.msportalfx-svg-c23{fill:#cae3f3}.msportalfx-svg-c24{fill:#59aed3}.msportalfx-svg-c25{fill:#4c3b12}.msportalfx-svg-c26{fill:#be9555}.msportalfx-svg-c27{fill:#4f4d52}.msportalfx-svg-c28{fill:#ef6f59}.msportalfx-svg-c29{fill:#f7cb64}.msportalfx-svg-c30{fill:#fdd8db}.msportalfx-svg-c31{fill:#f6ffec}.msportalfx-svg-c33{fill:#8a2da5}.msportalfx-svg-c34{fill:#e00b1c}.msportalfx-svg-c35{fill:#015cda}.msportalfx-svg-c36{fill:#5db300}.msportalfx-svg-c97{fill:#ffb900}.msportalfx-svg-c98{fill:#00a4ef}.msportalfx-svg-c99{fill:#f25022}.msportalfx-inverted-theme .msportalfx-svg-c05,.fxs-theme-dark .msportalfx-svg-c05{fill:#777}.msportalfx-inverted-theme .msportalfx-svg-c07,.fxs-theme-dark .msportalfx-svg-c07{fill:#f2f2f2}.msportalfx-svg-palette-white{fill:#fff}.msportalfx-svg-palette-blue{fill:#015cda}.msportalfx-svg-palette-black{fill:#1e1e1e}.msportalfx-svg-palette-green{fill:#57a300}.msportalfx-svg-palette-gray{fill:#a0a1a2}.msportalfx-svg-palette-inherit{fill:inherit}.msportalfx-svg-badge{position:absolute;left:0;bottom:0;min-height:10px;min-width:10px}.fxc-menu-icon>.msportalfx-svg-badge{left:-2px;bottom:-2px;min-height:8px;min-width:8px}.msportalfx-svg-disabled{filter:grayscale(100%)}.msportalfx-svg-loading-square{animation:ProgressFlagAnimation 1.45s infinite ease-in-out;transform-origin:50%}.msportalfx-svg-loading-square:nth-child(1){animation-delay:0s}.msportalfx-svg-loading-square:nth-child(2){animation-delay:.2s}.msportalfx-svg-loading-square:nth-child(3){animation-delay:.4s}@keyframes ProgressFlagAnimation{0%{transform:scale(1);opacity:.3}36.1%{transform:scale(1.06);opacity:1}50%{transform:scale(1.06);opacity:1}86.1%{transform:scale(1);opacity:.3}}.msportalfx-svg-flip-horizontal>svg,svg.msportalfx-svg-flip-horizontal{transform:scaleX(-1)}.msportalfx-svg-fabric-rotate360{animation:ImageRotation 1.3s cubic-bezier(.53,.21,.29,.67) infinite}@keyframes ImageRotation{0%{transform:rotate(-45deg)}100%{transform:rotate(315deg)}}.fxs-svg-number .msportalfx-font-bold{font-size:10px;fill:#0065ad}.fxs-svg-number .fxs-svg-circle{stroke-width:0%;fill:#0078d4}.fxs-svg-number .fxs-svg-text{fill:#fff;font-size:10px}.fxs-svg-number.msportalfx-svg-disabled{filter:grayscale(0%)}.fxs-svg-number.msportalfx-svg-disabled .fxs-svg-circle{fill:#fff;stroke-width:1px;stroke:#949494}.fxs-svg-number.msportalfx-svg-disabled .fxs-svg-text{fill:#949494}.fxs-theme-dark .fxs-svg-number .fxs-svg-text{fill:#0f0f0f}.fxs-theme-dark .fxs-svg-number .fxs-svg-circle{stroke-width:0%;fill:#0078d4}.fxs-theme-dark .fxs-svg-number.msportalfx-svg-disabled .fxs-svg-circle{fill:#0f0f0f;stroke-width:1px;stroke:#949494}.fxs-theme-dark .fxs-svg-number.msportalfx-svg-disabled .fxs-svg-text{fill:#949494}</style></svg>