<svg xml:space="preserve" viewBox="0 0 50 50" class="msportalfx-svg-placeholder" xmlns='http://www.w3.org/2000/svg'><path fill="#59B4D9" d="M45 6.8 40.2 2l-2-2H3v50h44V8.8z"/><path fill="#FFF" d="M38 2H5v46h40V9h-7z" opacity=".8"/><path fill="#59B4D9" d="M13.243 26.675q0 1.62-.8 2.52-.801.9-2.135.899-.623 0-1.023-.146v-1.424q.363.248.935.248 1.512 0 1.512-2.339v-5.605h1.512v5.847zm1.748 2.904v-1.557q.21.19.499.343c.289.153.397.188.613.258q.324.104.648.162.324.057.597.057.954 0 1.42-.317c.466-.317.467-.519.467-.922q0-.323-.155-.563a1.6 1.6 0 0 0-.436-.435 4.6 4.6 0 0 0-.658-.379q-.378-.18-.81-.377-.465-.248-.864-.503a3.7 3.7 0 0 1-.696-.562 2.4 2.4 0 0 1-.464-.696 2.3 2.3 0 0 1-.168-.909q0-.642.289-1.115t.763-.781a3.5 3.5 0 0 1 1.077-.458 5 5 0 0 1 1.232-.149q1.43 0 2.084.324v1.494q-.775-.56-1.995-.559-.337 0-.67.063a2 2 0 0 0-.598.209 1.3 1.3 0 0 0-.429.375.92.92 0 0 0-.166.553q0 .305.127.528.126.222.372.406.244.185.597.359.352.175.817.378.476.248.899.521t.744.604q.32.33.508.733.188.404.188.919 0 .693-.28 1.169t-.753.775c-.473.299-.679.343-1.09.433a5.7 5.7 0 0 1-1.866.098 8 8 0 0 1-.683-.102q-.35-.067-.661-.162c-.311-.095-.372-.134-.499-.215m11.261.515q-1.971 0-3.156-1.277-1.185-1.278-1.185-3.323 0-2.199 1.208-3.508t3.278-1.309q1.92 0 3.092 1.271 1.174 1.27 1.174 3.323 0 2.23-1.201 3.527c-1.201 1.297-1.872 1.296-3.21 1.296m.068-8.09q-1.251 0-2.036.934t-.785 2.46q0 1.518.763 2.446.762.927 1.996.928 1.31 0 2.064-.884c.754-.884.756-1.413.756-2.472q0-1.633-.732-2.523-.735-.888-2.026-.889m13.741 7.937h-1.652l-4.354-6.698a3 3 0 0 1-.273-.528h-.038q.051.292.051 1.252v5.974h-1.461v-9.113h1.76l4.207 6.54q.267.406.344.559h.025q-.064-.361-.063-1.227v-5.872h1.455z"/><style>.msportalfx-svg-c01{fill:#fff}.msportalfx-svg-c02{fill:#e5e5e5}.msportalfx-svg-c03{fill:#a0a1a2}.msportalfx-svg-c04{fill:#7a7a7a}.msportalfx-svg-c05{fill:#3e3e3e}.msportalfx-svg-c06{fill:#1e1e1e}.msportalfx-svg-c07{fill:#0f0f0f}.msportalfx-svg-c08{fill:#ba141a}.msportalfx-svg-c09{fill:#dd5900}.msportalfx-svg-c10{fill:#ff8c00}.msportalfx-svg-c11{fill:#fcd116}.msportalfx-svg-c12{fill:#fee087}.msportalfx-svg-c13{fill:#b8d432}.msportalfx-svg-c14,.msportalfx-svg-c32{fill:#57a300}.msportalfx-svg-c15{fill:#59b4d9}.msportalfx-svg-c16{fill:#3999c6}.msportalfx-svg-c17{fill:#804998}.msportalfx-svg-c18{fill:#ec008c}.msportalfx-svg-c19{fill:#0072c6}.msportalfx-svg-c20{fill:#68217a}.msportalfx-svg-c21{fill:#00188f}.msportalfx-svg-c22{fill:#e81123}.fxs-mode-light .msportalfx-svg-c22{fill:#a4262c}.msportalfx-svg-c23{fill:#cae3f3}.msportalfx-svg-c24{fill:#59aed3}.msportalfx-svg-c25{fill:#4c3b12}.msportalfx-svg-c26{fill:#be9555}.msportalfx-svg-c27{fill:#4f4d52}.msportalfx-svg-c28{fill:#ef6f59}.msportalfx-svg-c29{fill:#f7cb64}.msportalfx-svg-c30{fill:#fdd8db}.msportalfx-svg-c31{fill:#f6ffec}.msportalfx-svg-c33{fill:#8a2da5}.msportalfx-svg-c34{fill:#e00b1c}.msportalfx-svg-c35{fill:#015cda}.msportalfx-svg-c36{fill:#5db300}.msportalfx-svg-c97{fill:#ffb900}.msportalfx-svg-c98{fill:#00a4ef}.msportalfx-svg-c99{fill:#f25022}.msportalfx-inverted-theme .msportalfx-svg-c05,.fxs-theme-dark .msportalfx-svg-c05{fill:#777}.msportalfx-inverted-theme .msportalfx-svg-c07,.fxs-theme-dark .msportalfx-svg-c07{fill:#f2f2f2}.msportalfx-svg-palette-white{fill:#fff}.msportalfx-svg-palette-blue{fill:#015cda}.msportalfx-svg-palette-black{fill:#1e1e1e}.msportalfx-svg-palette-green{fill:#57a300}.msportalfx-svg-palette-gray{fill:#a0a1a2}.msportalfx-svg-palette-inherit{fill:inherit}.msportalfx-svg-badge{position:absolute;left:0;bottom:0;min-height:10px;min-width:10px}.fxc-menu-icon>.msportalfx-svg-badge{left:-2px;bottom:-2px;min-height:8px;min-width:8px}.msportalfx-svg-disabled{filter:grayscale(100%)}.msportalfx-svg-loading-square{animation:ProgressFlagAnimation 1.45s infinite ease-in-out;transform-origin:50%}.msportalfx-svg-loading-square:nth-child(1){animation-delay:0s}.msportalfx-svg-loading-square:nth-child(2){animation-delay:.2s}.msportalfx-svg-loading-square:nth-child(3){animation-delay:.4s}@keyframes ProgressFlagAnimation{0%{transform:scale(1);opacity:.3}36.1%{transform:scale(1.06);opacity:1}50%{transform:scale(1.06);opacity:1}86.1%{transform:scale(1);opacity:.3}}.msportalfx-svg-flip-horizontal>svg,svg.msportalfx-svg-flip-horizontal{transform:scaleX(-1)}.msportalfx-svg-fabric-rotate360{animation:ImageRotation 1.3s cubic-bezier(.53,.21,.29,.67) infinite}@keyframes ImageRotation{0%{transform:rotate(-45deg)}100%{transform:rotate(315deg)}}.fxs-svg-number .msportalfx-font-bold{font-size:10px;fill:#0065ad}.fxs-svg-number .fxs-svg-circle{stroke-width:0%;fill:#0078d4}.fxs-svg-number .fxs-svg-text{fill:#fff;font-size:10px}.fxs-svg-number.msportalfx-svg-disabled{filter:grayscale(0%)}.fxs-svg-number.msportalfx-svg-disabled .fxs-svg-circle{fill:#fff;stroke-width:1px;stroke:#949494}.fxs-svg-number.msportalfx-svg-disabled .fxs-svg-text{fill:#949494}.fxs-theme-dark .fxs-svg-number .fxs-svg-text{fill:#0f0f0f}.fxs-theme-dark .fxs-svg-number .fxs-svg-circle{stroke-width:0%;fill:#0078d4}.fxs-theme-dark .fxs-svg-number.msportalfx-svg-disabled .fxs-svg-circle{fill:#0f0f0f;stroke-width:1px;stroke:#949494}.fxs-theme-dark .fxs-svg-number.msportalfx-svg-disabled .fxs-svg-text{fill:#949494}</style></svg>