<svg xml:space="preserve" viewBox="0 0 50 50" class="msportalfx-svg-placeholder" xmlns='http://www.w3.org/2000/svg'><path fill="#59B4D9" d="M33.99 12.727c.007-.156.024-.31.024-.468C34.014 6.593 29.414 2 23.74 2a10.27 10.27 0 0 0-9.135 5.579 10 10 0 0 0-2.645-.367c-5.473 0-9.909 4.43-9.909 9.894 0 .108.013.212.016.319-.004.105-.017.207-.017.312C2.05 22.853 6.292 27 11.525 27h21.056c4.07 0 7.369-3.225 7.369-7.204 0-3.507-2.565-6.426-5.96-7.069"/><path fill="#FFF" d="M33.99 12.727c.007-.156.024-.31.024-.468C34.014 6.593 29.414 2 23.74 2a10.27 10.27 0 0 0-9.135 5.579 10 10 0 0 0-2.645-.367c-5.473 0-9.909 4.43-9.909 9.894 0 .108.013.212.016.319-.004.105-.017.207-.017.312C2.05 22.853 6.292 27 11.525 27h21.056c4.07 0 7.369-3.225 7.369-7.204 0-3.507-2.565-6.426-5.96-7.069" opacity=".2"/><path fill="#3999C6" d="m27.182 28.586-11.31-11.31c.005-.093.028-.181.028-.276 0-2.702-2.198-4.9-4.9-4.9S6.1 14.298 6.1 17s2.198 4.9 4.9 4.9c.095 0 .183-.023.276-.028l11.31 11.31z" opacity=".4"/><path fill="#3999C6" d="M11.988 31.5c-.008-.181-.027-.359-.027-.541 0-6.549 5.316-11.859 11.873-11.859 4.604 0 8.588 2.623 10.558 6.449a11.5 11.5 0 0 1 3.057-.425c6.325 0 11.452 5.121 11.452 11.438 0 .125-.015.245-.019.369.004.121.019.239.019.361C48.9 43.206 43.998 48 37.95 48H13.617C8.913 48 5.1 44.271 5.1 39.672c0-4.054 2.964-7.428 6.888-8.172"/><path fill="#FFF" d="M24 25.1c-.615 0-1.197.126-1.739.333l-7.438-7.438a4 4 0 0 0 .127-.945 3.95 3.95 0 1 0-7.9 0A3.95 3.95 0 0 0 11 21a4 4 0 0 0 1.022-.15l7.411 7.411A4.9 4.9 0 0 0 19.1 30a4.9 4.9 0 1 0 4.9-4.9"/><style>.msportalfx-svg-c01{fill:#fff}.msportalfx-svg-c02{fill:#e5e5e5}.msportalfx-svg-c03{fill:#a0a1a2}.msportalfx-svg-c04{fill:#7a7a7a}.msportalfx-svg-c05{fill:#3e3e3e}.msportalfx-svg-c06{fill:#1e1e1e}.msportalfx-svg-c07{fill:#0f0f0f}.msportalfx-svg-c08{fill:#ba141a}.msportalfx-svg-c09{fill:#dd5900}.msportalfx-svg-c10{fill:#ff8c00}.msportalfx-svg-c11{fill:#fcd116}.msportalfx-svg-c12{fill:#fee087}.msportalfx-svg-c13{fill:#b8d432}.msportalfx-svg-c14,.msportalfx-svg-c32{fill:#57a300}.msportalfx-svg-c15{fill:#59b4d9}.msportalfx-svg-c16{fill:#3999c6}.msportalfx-svg-c17{fill:#804998}.msportalfx-svg-c18{fill:#ec008c}.msportalfx-svg-c19{fill:#0072c6}.msportalfx-svg-c20{fill:#68217a}.msportalfx-svg-c21{fill:#00188f}.msportalfx-svg-c22{fill:#e81123}.fxs-mode-light .msportalfx-svg-c22{fill:#a4262c}.msportalfx-svg-c23{fill:#cae3f3}.msportalfx-svg-c24{fill:#59aed3}.msportalfx-svg-c25{fill:#4c3b12}.msportalfx-svg-c26{fill:#be9555}.msportalfx-svg-c27{fill:#4f4d52}.msportalfx-svg-c28{fill:#ef6f59}.msportalfx-svg-c29{fill:#f7cb64}.msportalfx-svg-c30{fill:#fdd8db}.msportalfx-svg-c31{fill:#f6ffec}.msportalfx-svg-c33{fill:#8a2da5}.msportalfx-svg-c34{fill:#e00b1c}.msportalfx-svg-c35{fill:#015cda}.msportalfx-svg-c36{fill:#5db300}.msportalfx-svg-c97{fill:#ffb900}.msportalfx-svg-c98{fill:#00a4ef}.msportalfx-svg-c99{fill:#f25022}.msportalfx-inverted-theme .msportalfx-svg-c05,.fxs-theme-dark .msportalfx-svg-c05{fill:#777}.msportalfx-inverted-theme .msportalfx-svg-c07,.fxs-theme-dark .msportalfx-svg-c07{fill:#f2f2f2}.msportalfx-svg-palette-white{fill:#fff}.msportalfx-svg-palette-blue{fill:#015cda}.msportalfx-svg-palette-black{fill:#1e1e1e}.msportalfx-svg-palette-green{fill:#57a300}.msportalfx-svg-palette-gray{fill:#a0a1a2}.msportalfx-svg-palette-inherit{fill:inherit}.msportalfx-svg-badge{position:absolute;left:0;bottom:0;min-height:10px;min-width:10px}.fxc-menu-icon>.msportalfx-svg-badge{left:-2px;bottom:-2px;min-height:8px;min-width:8px}.msportalfx-svg-disabled{filter:grayscale(100%)}.msportalfx-svg-loading-square{animation:ProgressFlagAnimation 1.45s infinite ease-in-out;transform-origin:50%}.msportalfx-svg-loading-square:nth-child(1){animation-delay:0s}.msportalfx-svg-loading-square:nth-child(2){animation-delay:.2s}.msportalfx-svg-loading-square:nth-child(3){animation-delay:.4s}@keyframes ProgressFlagAnimation{0%{transform:scale(1);opacity:.3}36.1%{transform:scale(1.06);opacity:1}50%{transform:scale(1.06);opacity:1}86.1%{transform:scale(1);opacity:.3}}.msportalfx-svg-flip-horizontal>svg,svg.msportalfx-svg-flip-horizontal{transform:scaleX(-1)}.msportalfx-svg-fabric-rotate360{animation:ImageRotation 1.3s cubic-bezier(.53,.21,.29,.67) infinite}@keyframes ImageRotation{0%{transform:rotate(-45deg)}100%{transform:rotate(315deg)}}.fxs-svg-number .msportalfx-font-bold{font-size:10px;fill:#0065ad}.fxs-svg-number .fxs-svg-circle{stroke-width:0%;fill:#0078d4}.fxs-svg-number .fxs-svg-text{fill:#fff;font-size:10px}.fxs-svg-number.msportalfx-svg-disabled{filter:grayscale(0%)}.fxs-svg-number.msportalfx-svg-disabled .fxs-svg-circle{fill:#fff;stroke-width:1px;stroke:#949494}.fxs-svg-number.msportalfx-svg-disabled .fxs-svg-text{fill:#949494}.fxs-theme-dark .fxs-svg-number .fxs-svg-text{fill:#0f0f0f}.fxs-theme-dark .fxs-svg-number .fxs-svg-circle{stroke-width:0%;fill:#0078d4}.fxs-theme-dark .fxs-svg-number.msportalfx-svg-disabled .fxs-svg-circle{fill:#0f0f0f;stroke-width:1px;stroke:#949494}.fxs-theme-dark .fxs-svg-number.msportalfx-svg-disabled .fxs-svg-text{fill:#949494}</style></svg>