<svg viewBox="0 0 18 18" class="msportalfx-svg-placeholder" xmlns='http://www.w3.org/2000/svg'><defs><linearGradient id="pp9jy9HtK__a" x1="5.073" x2="5.073" y1="786.069" y2="788.809" gradientTransform="matrix(1 0 0 -1 0 791.516)" gradientUnits="userSpaceOnUse"><stop offset="0" stop-color="#773adc"/><stop offset="1" stop-color="#b77af4"/></linearGradient><linearGradient id="pp9jy9HtK__b" x1="8.768" x2="8.768" y1="782.673" y2="785.405" gradientTransform="matrix(1 0 0 -1 0 791.516)" gradientUnits="userSpaceOnUse"><stop offset="0" stop-color="#773adc"/><stop offset="1" stop-color="#b77af4"/></linearGradient><linearGradient id="pp9jy9HtK__c" x1="12.197" x2="12.197" y1="788.784" y2="791.516" gradientTransform="matrix(1 0 0 -1 0 791.516)" gradientUnits="userSpaceOnUse"><stop offset="0" stop-color="#773adc"/><stop offset="1" stop-color="#b77af4"/></linearGradient><linearGradient id="pp9jy9HtK__d" x1="1.984" x2="1.984" y1="782.084" y2="784.815" gradientTransform="matrix(1 0 0 -1 0 791.516)" gradientUnits="userSpaceOnUse"><stop offset="0" stop-color="#773adc"/><stop offset="1" stop-color="#b77af4"/></linearGradient></defs><g fill="#a67af4"><rect width="2.15" height="6.317" x="4.32" y="7.836" rx=".233"/><rect width="2.15" height="4.133" x=".895" y="10.019" rx=".233"/><path d="M13.32 9.2V5.953a.234.234 0 0 0-.234-.234H11.4a.233.233 0 0 0-.233.234v5.4Zm-5.342 4.953h.39L9.9 12.625v-2.372a.234.234 0 0 0-.233-.234H7.978a.233.233 0 0 0-.233.234v3.666a.233.233 0 0 0 .233.234"/></g><path fill="#0078d4" d="m13.789 9.557-5.202 5.202.207.345.643 1.043 5.47-5.471zm1.448.789 1.181-1.18-.853-.852a.37.37 0 0 0-.526 0l-.918.918Z" opacity=".9"/><path fill="#0078d4" d="m16.026 11.793-5.203 5.201-.344-.207-1.044-.641 5.472-5.472zm-.791-1.447 1.181-1.181.853.852a.374.374 0 0 1 0 .527l-.918.918Z"/><path fill="#83b9f9" d="m10.822 17-2.856 1a.374.374 0 0 1-.379-.366v-.011l1-2.858.852 1.384Z"/><path fill="#b796f9" d="M11.848.93 8.535 6.825l-3.503-3.57L1.42 7.938l.847.664 2.864-3.695 3.637 3.712 4.019-7.149z"/><ellipse cx="5.073" cy="4.077" fill="url(#pp9jy9HtK__a)" rx="1.362" ry="1.37"/><ellipse cx="8.768" cy="7.473" fill="url(#pp9jy9HtK__b)" rx="1.362" ry="1.37"/><ellipse cx="12.197" cy="1.37" fill="url(#pp9jy9HtK__c)" rx="1.362" ry="1.37"/><ellipse cx="1.984" cy="8.071" fill="url(#pp9jy9HtK__d)" rx="1.362" ry="1.37"/><style>.msportalfx-svg-c01{fill:#fff}.msportalfx-svg-c02{fill:#e5e5e5}.msportalfx-svg-c03{fill:#a0a1a2}.msportalfx-svg-c04{fill:#7a7a7a}.msportalfx-svg-c05{fill:#3e3e3e}.msportalfx-svg-c06{fill:#1e1e1e}.msportalfx-svg-c07{fill:#0f0f0f}.msportalfx-svg-c08{fill:#ba141a}.msportalfx-svg-c09{fill:#dd5900}.msportalfx-svg-c10{fill:#ff8c00}.msportalfx-svg-c11{fill:#fcd116}.msportalfx-svg-c12{fill:#fee087}.msportalfx-svg-c13{fill:#b8d432}.msportalfx-svg-c14,.msportalfx-svg-c32{fill:#57a300}.msportalfx-svg-c15{fill:#59b4d9}.msportalfx-svg-c16{fill:#3999c6}.msportalfx-svg-c17{fill:#804998}.msportalfx-svg-c18{fill:#ec008c}.msportalfx-svg-c19{fill:#0072c6}.msportalfx-svg-c20{fill:#68217a}.msportalfx-svg-c21{fill:#00188f}.msportalfx-svg-c22{fill:#e81123}.fxs-mode-light .msportalfx-svg-c22{fill:#a4262c}.msportalfx-svg-c23{fill:#cae3f3}.msportalfx-svg-c24{fill:#59aed3}.msportalfx-svg-c25{fill:#4c3b12}.msportalfx-svg-c26{fill:#be9555}.msportalfx-svg-c27{fill:#4f4d52}.msportalfx-svg-c28{fill:#ef6f59}.msportalfx-svg-c29{fill:#f7cb64}.msportalfx-svg-c30{fill:#fdd8db}.msportalfx-svg-c31{fill:#f6ffec}.msportalfx-svg-c33{fill:#8a2da5}.msportalfx-svg-c34{fill:#e00b1c}.msportalfx-svg-c35{fill:#015cda}.msportalfx-svg-c36{fill:#5db300}.msportalfx-svg-c97{fill:#ffb900}.msportalfx-svg-c98{fill:#00a4ef}.msportalfx-svg-c99{fill:#f25022}.msportalfx-inverted-theme .msportalfx-svg-c05,.fxs-theme-dark .msportalfx-svg-c05{fill:#777}.msportalfx-inverted-theme .msportalfx-svg-c07,.fxs-theme-dark .msportalfx-svg-c07{fill:#f2f2f2}.msportalfx-svg-palette-white{fill:#fff}.msportalfx-svg-palette-blue{fill:#015cda}.msportalfx-svg-palette-black{fill:#1e1e1e}.msportalfx-svg-palette-green{fill:#57a300}.msportalfx-svg-palette-gray{fill:#a0a1a2}.msportalfx-svg-palette-inherit{fill:inherit}.msportalfx-svg-badge{position:absolute;left:0;bottom:0;min-height:10px;min-width:10px}.fxc-menu-icon>.msportalfx-svg-badge{left:-2px;bottom:-2px;min-height:8px;min-width:8px}.msportalfx-svg-disabled{filter:grayscale(100%)}.msportalfx-svg-loading-square{animation:ProgressFlagAnimation 1.45s infinite ease-in-out;transform-origin:50%}.msportalfx-svg-loading-square:nth-child(1){animation-delay:0s}.msportalfx-svg-loading-square:nth-child(2){animation-delay:.2s}.msportalfx-svg-loading-square:nth-child(3){animation-delay:.4s}@keyframes ProgressFlagAnimation{0%{transform:scale(1);opacity:.3}36.1%{transform:scale(1.06);opacity:1}50%{transform:scale(1.06);opacity:1}86.1%{transform:scale(1);opacity:.3}}.msportalfx-svg-flip-horizontal>svg,svg.msportalfx-svg-flip-horizontal{transform:scaleX(-1)}.msportalfx-svg-fabric-rotate360{animation:ImageRotation 1.3s cubic-bezier(.53,.21,.29,.67) infinite}@keyframes ImageRotation{0%{transform:rotate(-45deg)}100%{transform:rotate(315deg)}}.fxs-svg-number .msportalfx-font-bold{font-size:10px;fill:#0065ad}.fxs-svg-number .fxs-svg-circle{stroke-width:0%;fill:#0078d4}.fxs-svg-number .fxs-svg-text{fill:#fff;font-size:10px}.fxs-svg-number.msportalfx-svg-disabled{filter:grayscale(0%)}.fxs-svg-number.msportalfx-svg-disabled .fxs-svg-circle{fill:#fff;stroke-width:1px;stroke:#949494}.fxs-svg-number.msportalfx-svg-disabled .fxs-svg-text{fill:#949494}.fxs-theme-dark .fxs-svg-number .fxs-svg-text{fill:#0f0f0f}.fxs-theme-dark .fxs-svg-number .fxs-svg-circle{stroke-width:0%;fill:#0078d4}.fxs-theme-dark .fxs-svg-number.msportalfx-svg-disabled .fxs-svg-circle{fill:#0f0f0f;stroke-width:1px;stroke:#949494}.fxs-theme-dark .fxs-svg-number.msportalfx-svg-disabled .fxs-svg-text{fill:#949494}</style></svg>