<svg viewBox="0 0 18 18" class="msportalfx-svg-placeholder" xmlns="http://www.w3.org/2000/svg"><title>Cloud Services Network (Operator Nexus)</title><desc></desc><defs><linearGradient id="pNfN1nX06__a" x1="10.498" x2="10.498" y1="6.675" y2="9.809" gradientUnits="userSpaceOnUse"><stop offset="0" stop-color="#32d4f5" /><stop offset=".299" stop-color="#2cc2e5" /><stop offset=".899" stop-color="#1c93bb" /><stop offset="1" stop-color="#198ab3" /></linearGradient><linearGradient id="pNfN1nX06__b" x1="-559.435" x2="-559.435" y1="850.156" y2="859.63" gradientTransform="matrix(1 0 0 -1 564 866.734)" gradientUnits="userSpaceOnUse"><stop offset="0" stop-color="#0078d4" /><stop offset="1" stop-color="#5ea0ef" /></linearGradient></defs><path fill="url(#pNfN1nX06__a)" d="M14.714 6.675H6.282a.374.374 0 0 0-.373.373v1.624a2.7 2.7 0 0 1 1.017-.2c.984 0 1.85.533 2.313 1.337h5.474a.373.373 0 0 0 .373-.373V7.048a.374.374 0 0 0-.373-.373Z" /><g fill="#b4ec36"><rect width=".814" height=".814" x="13.39" y="7.104" rx=".113" ry=".113" /><rect width=".814" height=".814" x="13.39" y="8.505" rx=".113" ry=".113" /></g><path fill="#32bedd" d="M10.435 1.422h.176c.137 0 .248.111.248.248v.927h-.672V1.67c0-.137.111-.248.248-.248m-.247 1.671h.672v1.175h-.672zm0 1.614h.672v1.175h-.672z" /><path fill="#198ab3" d="M8.872 5.863h3.254c.112 0 .203.091.203.203v.61H8.667v-.611c0-.112.092-.203.204-.202Z" /><path fill="#32bedd" d="M17.875 8.321v.176a.25.25 0 0 1-.248.248h-.928v-.672h.928c.137 0 .248.111.248.248m-1.613-.248v.672h-1.175v-.672zm-10.352 0v.672H4.615v-.672zm-1.727 0v.672h-.928a.25.25 0 0 1-.248-.248v-.176c0-.137.111-.248.248-.248z" /><path fill="url(#pNfN1nX06__b)" d="M8.993 10.909C8.867 9.772 7.84 8.952 6.699 9.076s-1.964 1.147-1.839 2.285a2.08 2.08 0 0 0 2.294 1.833 2.07 2.07 0 0 0 1.839-2.285m-4.946 4.58a4.66 4.66 0 0 1-2.752-3.738 4.62 4.62 0 0 1 1.242-3.688c.216-.229.205-.588-.024-.804s-.591-.205-.807.024A5.75 5.75 0 0 0 .16 11.875a5.8 5.8 0 0 0 3.428 4.654.574.574 0 0 0 .754-.291.566.566 0 0 0-.293-.749zm.9-1.96a2.68 2.68 0 0 1-1.32-2.034 2.68 2.68 0 0 1 .371-1.686.57.57 0 0 0-.978-.586 3.8 3.8 0 0 0-.528 2.397 3.86 3.86 0 0 0 1.874 2.89.577.577 0 0 0 .782-.201.57.57 0 0 0-.201-.779Z" /><style>.msportalfx-svg-c01{fill:#fff}.msportalfx-svg-c02{fill:#e5e5e5}.msportalfx-svg-c03{fill:#a0a1a2}.msportalfx-svg-c04{fill:#7a7a7a}.msportalfx-svg-c05{fill:#3e3e3e}.msportalfx-svg-c06{fill:#1e1e1e}.msportalfx-svg-c07{fill:#0f0f0f}.msportalfx-svg-c08{fill:#ba141a}.msportalfx-svg-c09{fill:#dd5900}.msportalfx-svg-c10{fill:#ff8c00}.msportalfx-svg-c11{fill:#fcd116}.msportalfx-svg-c12{fill:#fee087}.msportalfx-svg-c13{fill:#b8d432}.msportalfx-svg-c14,.msportalfx-svg-c32{fill:#57a300}.msportalfx-svg-c15{fill:#59b4d9}.msportalfx-svg-c16{fill:#3999c6}.msportalfx-svg-c17{fill:#804998}.msportalfx-svg-c18{fill:#ec008c}.msportalfx-svg-c19{fill:#0072c6}.msportalfx-svg-c20{fill:#68217a}.msportalfx-svg-c21{fill:#00188f}.msportalfx-svg-c22{fill:#e81123}.fxs-mode-light .msportalfx-svg-c22{fill:#a4262c}.msportalfx-svg-c23{fill:#cae3f3}.msportalfx-svg-c24{fill:#59aed3}.msportalfx-svg-c25{fill:#4c3b12}.msportalfx-svg-c26{fill:#be9555}.msportalfx-svg-c27{fill:#4f4d52}.msportalfx-svg-c28{fill:#ef6f59}.msportalfx-svg-c29{fill:#f7cb64}.msportalfx-svg-c30{fill:#fdd8db}.msportalfx-svg-c31{fill:#f6ffec}.msportalfx-svg-c33{fill:#8a2da5}.msportalfx-svg-c34{fill:#e00b1c}.msportalfx-svg-c35{fill:#015cda}.msportalfx-svg-c36{fill:#5db300}.msportalfx-svg-c97{fill:#ffb900}.msportalfx-svg-c98{fill:#00a4ef}.msportalfx-svg-c99{fill:#f25022}.msportalfx-inverted-theme .msportalfx-svg-c05,.fxs-theme-dark .msportalfx-svg-c05{fill:#777}.msportalfx-inverted-theme .msportalfx-svg-c07,.fxs-theme-dark .msportalfx-svg-c07{fill:#f2f2f2}.msportalfx-svg-palette-white{fill:#fff}.msportalfx-svg-palette-blue{fill:#015cda}.msportalfx-svg-palette-black{fill:#1e1e1e}.msportalfx-svg-palette-green{fill:#57a300}.msportalfx-svg-palette-gray{fill:#a0a1a2}.msportalfx-svg-palette-inherit{fill:inherit}.msportalfx-svg-badge{position:absolute;left:0;bottom:0;min-height:10px;min-width:10px}.fxc-menu-icon&gt;.msportalfx-svg-badge{left:-2px;bottom:-2px;min-height:8px;min-width:8px}.msportalfx-svg-disabled{filter:grayscale(100%)}.msportalfx-svg-loading-square{animation:ProgressFlagAnimation 1.45s infinite ease-in-out;transform-origin:50%}.msportalfx-svg-loading-square:nth-child(1){animation-delay:0s}.msportalfx-svg-loading-square:nth-child(2){animation-delay:.2s}.msportalfx-svg-loading-square:nth-child(3){animation-delay:.4s}@keyframes ProgressFlagAnimation{0%{transform:scale(1);opacity:.3}36.1%{transform:scale(1.06);opacity:1}50%{transform:scale(1.06);opacity:1}86.1%{transform:scale(1);opacity:.3}}.msportalfx-svg-flip-horizontal&gt;svg,svg.msportalfx-svg-flip-horizontal{transform:scaleX(-1)}.msportalfx-svg-fabric-rotate360{animation:ImageRotation 1.3s cubic-bezier(.53,.21,.29,.67) infinite}@keyframes ImageRotation{0%{transform:rotate(-45deg)}100%{transform:rotate(315deg)}}.fxs-svg-number .msportalfx-font-bold{font-size:10px;fill:#0065ad}.fxs-svg-number .fxs-svg-circle{stroke-width:0%;fill:#0078d4}.fxs-svg-number .fxs-svg-text{fill:#fff;font-size:10px}.fxs-svg-number.msportalfx-svg-disabled{filter:grayscale(0%)}.fxs-svg-number.msportalfx-svg-disabled .fxs-svg-circle{fill:#fff;stroke-width:1px;stroke:#949494}.fxs-svg-number.msportalfx-svg-disabled .fxs-svg-text{fill:#949494}.fxs-theme-dark .fxs-svg-number .fxs-svg-text{fill:#0f0f0f}.fxs-theme-dark .fxs-svg-number .fxs-svg-circle{stroke-width:0%;fill:#0078d4}.fxs-theme-dark .fxs-svg-number.msportalfx-svg-disabled .fxs-svg-circle{fill:#0f0f0f;stroke-width:1px;stroke:#949494}.fxs-theme-dark .fxs-svg-number.msportalfx-svg-disabled .fxs-svg-text{fill:#949494}</style></svg>