<svg viewBox="0 0 18 18" class="msportalfx-svg-placeholder" xmlns="http://www.w3.org/2000/svg"><title>Storage Appliance (Operator Nexus)</title><desc></desc><defs><linearGradient id="pEncEocLG__a" x1="10.015" x2="10.015" y1="16.858" y2="2.02" gradientUnits="userSpaceOnUse"><stop offset="0" stop-color="#198ab3" /><stop offset=".101" stop-color="#1c93bb" /><stop offset=".701" stop-color="#2cc2e5" /><stop offset="1" stop-color="#32d4f5" /></linearGradient><linearGradient id="pEncEocLG__b" x1="-171.981" x2="-171.981" y1="68.953" y2="78.278" gradientTransform="rotate(2.252 1455.27 4536.135)" gradientUnits="userSpaceOnUse"><stop offset="0" stop-color="#5ea0ef" /><stop offset="1" stop-color="#0078d4" /></linearGradient></defs><path fill="#9cebff" d="M10.019 3.873c4.253 0 7.701-.811 7.701-1.811S14.272.25 10.019.25s-7.701.812-7.701 1.812 3.448 1.811 7.701 1.811m0 5.711c-2.115 0-4.03.201-5.421.526a1.14 1.14 0 0 1 .197.944q.09-.133.197-.256a2.61 2.61 0 0 1 1.986-.903 2.636 2.636 0 0 1 2.623 2.438c.021.298-.011.591-.087.87q.25.004.505.004c4.253 0 7.701-.811 7.701-1.811s-3.448-1.812-7.701-1.812m0-4.658c-4.253 0-7.701.812-7.701 1.812s3.448 1.811 7.701 1.811 7.701-.811 7.701-1.811-3.448-1.812-7.701-1.812" /><path fill="url(#pEncEocLG__a)" d="M10.019 13.208q-.255 0-.505-.004a2.61 2.61 0 0 1-2.535 1.934 2.6 2.6 0 0 1-1.304-.348c.156.343.14.756-.079 1.096a1.14 1.14 0 0 1-.76.502c1.367.292 3.182.471 5.176.471 4.254 0 7.701-.811 7.701-1.812V11.43c-.074.99-3.484 1.778-7.693 1.778Zm0-4.658c-4.252 0-7.699-.811-7.701-1.812v1.048l.068-.003a1.14 1.14 0 0 1 1.145 1.154 1.14 1.14 0 0 1-.344.806l-.035.035a1.15 1.15 0 0 1 1.154.058 1.135 1.135 0 0 1 .489 1.218q.09-.133.197-.256a2.61 2.61 0 0 1 1.986-.903 2.634 2.634 0 0 1 2.606 2.303q.212.003.426.003c4.254 0 7.701-.811 7.701-1.812V6.772c-.074.99-3.484 1.778-7.693 1.778Zm-.008-1.067c4.254 0 7.701-.811 7.701-1.812V2.054c-.074.99-3.484 1.778-7.693 1.778-4.252 0-7.699-.811-7.701-1.812v3.715c.141.971 3.529 1.748 7.693 1.748" /><path fill="url(#pEncEocLG__b)" d="M9.019 12.373c-.08-1.123-1.058-1.969-2.185-1.891s-1.976 1.052-1.897 2.176a2.045 2.045 0 0 0 2.185 1.891 2.04 2.04 0 0 0 1.897-2.176m-5.041 4.314a4.58 4.58 0 0 1-2.562-3.783A4.54 4.54 0 0 1 2.78 9.325c.221-.217.225-.571.008-.792s-.574-.225-.795-.008a5.65 5.65 0 0 0-1.698 4.457 5.7 5.7 0 0 0 3.191 4.71.566.566 0 0 0 .753-.257.557.557 0 0 0-.259-.748zm.961-1.893a2.64 2.64 0 0 1-1.219-2.051 2.63 2.63 0 0 1 .43-1.644.563.563 0 0 0-.94-.615 3.73 3.73 0 0 0-.612 2.337 3.8 3.8 0 0 0 1.731 2.914.563.563 0 0 0 .777-.168.56.56 0 0 0-.168-.774Z" /><style>.msportalfx-svg-c01{fill:#fff}.msportalfx-svg-c02{fill:#e5e5e5}.msportalfx-svg-c03{fill:#a0a1a2}.msportalfx-svg-c04{fill:#7a7a7a}.msportalfx-svg-c05{fill:#3e3e3e}.msportalfx-svg-c06{fill:#1e1e1e}.msportalfx-svg-c07{fill:#0f0f0f}.msportalfx-svg-c08{fill:#ba141a}.msportalfx-svg-c09{fill:#dd5900}.msportalfx-svg-c10{fill:#ff8c00}.msportalfx-svg-c11{fill:#fcd116}.msportalfx-svg-c12{fill:#fee087}.msportalfx-svg-c13{fill:#b8d432}.msportalfx-svg-c14,.msportalfx-svg-c32{fill:#57a300}.msportalfx-svg-c15{fill:#59b4d9}.msportalfx-svg-c16{fill:#3999c6}.msportalfx-svg-c17{fill:#804998}.msportalfx-svg-c18{fill:#ec008c}.msportalfx-svg-c19{fill:#0072c6}.msportalfx-svg-c20{fill:#68217a}.msportalfx-svg-c21{fill:#00188f}.msportalfx-svg-c22{fill:#e81123}.fxs-mode-light .msportalfx-svg-c22{fill:#a4262c}.msportalfx-svg-c23{fill:#cae3f3}.msportalfx-svg-c24{fill:#59aed3}.msportalfx-svg-c25{fill:#4c3b12}.msportalfx-svg-c26{fill:#be9555}.msportalfx-svg-c27{fill:#4f4d52}.msportalfx-svg-c28{fill:#ef6f59}.msportalfx-svg-c29{fill:#f7cb64}.msportalfx-svg-c30{fill:#fdd8db}.msportalfx-svg-c31{fill:#f6ffec}.msportalfx-svg-c33{fill:#8a2da5}.msportalfx-svg-c34{fill:#e00b1c}.msportalfx-svg-c35{fill:#015cda}.msportalfx-svg-c36{fill:#5db300}.msportalfx-svg-c97{fill:#ffb900}.msportalfx-svg-c98{fill:#00a4ef}.msportalfx-svg-c99{fill:#f25022}.msportalfx-inverted-theme .msportalfx-svg-c05,.fxs-theme-dark .msportalfx-svg-c05{fill:#777}.msportalfx-inverted-theme .msportalfx-svg-c07,.fxs-theme-dark .msportalfx-svg-c07{fill:#f2f2f2}.msportalfx-svg-palette-white{fill:#fff}.msportalfx-svg-palette-blue{fill:#015cda}.msportalfx-svg-palette-black{fill:#1e1e1e}.msportalfx-svg-palette-green{fill:#57a300}.msportalfx-svg-palette-gray{fill:#a0a1a2}.msportalfx-svg-palette-inherit{fill:inherit}.msportalfx-svg-badge{position:absolute;left:0;bottom:0;min-height:10px;min-width:10px}.fxc-menu-icon&gt;.msportalfx-svg-badge{left:-2px;bottom:-2px;min-height:8px;min-width:8px}.msportalfx-svg-disabled{filter:grayscale(100%)}.msportalfx-svg-loading-square{animation:ProgressFlagAnimation 1.45s infinite ease-in-out;transform-origin:50%}.msportalfx-svg-loading-square:nth-child(1){animation-delay:0s}.msportalfx-svg-loading-square:nth-child(2){animation-delay:.2s}.msportalfx-svg-loading-square:nth-child(3){animation-delay:.4s}@keyframes ProgressFlagAnimation{0%{transform:scale(1);opacity:.3}36.1%{transform:scale(1.06);opacity:1}50%{transform:scale(1.06);opacity:1}86.1%{transform:scale(1);opacity:.3}}.msportalfx-svg-flip-horizontal&gt;svg,svg.msportalfx-svg-flip-horizontal{transform:scaleX(-1)}.msportalfx-svg-fabric-rotate360{animation:ImageRotation 1.3s cubic-bezier(.53,.21,.29,.67) infinite}@keyframes ImageRotation{0%{transform:rotate(-45deg)}100%{transform:rotate(315deg)}}.fxs-svg-number .msportalfx-font-bold{font-size:10px;fill:#0065ad}.fxs-svg-number .fxs-svg-circle{stroke-width:0%;fill:#0078d4}.fxs-svg-number .fxs-svg-text{fill:#fff;font-size:10px}.fxs-svg-number.msportalfx-svg-disabled{filter:grayscale(0%)}.fxs-svg-number.msportalfx-svg-disabled .fxs-svg-circle{fill:#fff;stroke-width:1px;stroke:#949494}.fxs-svg-number.msportalfx-svg-disabled .fxs-svg-text{fill:#949494}.fxs-theme-dark .fxs-svg-number .fxs-svg-text{fill:#0f0f0f}.fxs-theme-dark .fxs-svg-number .fxs-svg-circle{stroke-width:0%;fill:#0078d4}.fxs-theme-dark .fxs-svg-number.msportalfx-svg-disabled .fxs-svg-circle{fill:#0f0f0f;stroke-width:1px;stroke:#949494}.fxs-theme-dark .fxs-svg-number.msportalfx-svg-disabled .fxs-svg-text{fill:#949494}</style></svg>