<svg viewBox="0 0 18 18" class="msportalfx-svg-placeholder" xmlns="http://www.w3.org/2000/svg"><title>Compute Rack (Operator Nexus)</title><desc></desc><defs><linearGradient id="pJN0DVCl4__a" x1="306.803" x2="306.803" y1="163.005" y2="158.083" gradientTransform="matrix(1 0 0 -1 -297 163.29)" gradientUnits="userSpaceOnUse"><stop offset="0" stop-color="#5ea0ef" /><stop offset="1" stop-color="#005ba1" /></linearGradient><linearGradient id="pJN0DVCl4__b" x1="12.873" x2="12.873" y1="14.326" y2="9.404" gradientUnits="userSpaceOnUse"><stop offset="0" stop-color="#005ba1" /><stop offset="1" stop-color="#5ea0ef" /></linearGradient><linearGradient id="pJN0DVCl4__c" x1="5.236" x2="5.236" y1="11.047" y2="9.931" gradientUnits="userSpaceOnUse"><stop offset="0" stop-color="#005ba1" /><stop offset="1" stop-color="#5ea0ef" /></linearGradient><linearGradient id="pJN0DVCl4__d" x1="9.803" x2="9.803" y1="9.345" y2="4.423" gradientUnits="userSpaceOnUse"><stop offset="0" stop-color="#005ba1" /><stop offset="1" stop-color="#5ea0ef" /></linearGradient><linearGradient id="pJN0DVCl4__e" x1="-172.021" x2="-172.021" y1="70.441" y2="79.901" gradientTransform="rotate(2.252 1493.265 4536.126)" gradientUnits="userSpaceOnUse"><stop offset="0" stop-color="#5ea0ef" /><stop offset="1" stop-color="#0078d4" /></linearGradient></defs><path fill="url(#pJN0DVCl4__a)" d="M17.315.123H2.291a.54.54 0 0 0-.538.538v3.326c0 .297.24.538.538.538h15.025c.297 0 .538-.24.538-.538V.661a.54.54 0 0 0-.539-.538" /><path fill="url(#pJN0DVCl4__b)" d="M17.315 10.086H7.892a2.67 2.67 0 0 1 1.709 2.295 2.64 2.64 0 0 1-.815 2.107h8.529c.297 0 .538-.24.538-.538v-3.326a.54.54 0 0 0-.539-.538Z" /><path fill="url(#pJN0DVCl4__c)" d="M4.495 10.086a1.16 1.16 0 0 1 .231.998q.091-.135.2-.26a2.64 2.64 0 0 1 1.052-.738z" /><path fill="url(#pJN0DVCl4__d)" d="M17.315 5.104H2.291a.54.54 0 0 0-.538.538v2.251a1.16 1.16 0 0 1 1.359.22 1.15 1.15 0 0 1 .174 1.393h14.03c.297 0 .538-.24.538-.538V5.642a.54.54 0 0 0-.539-.538" /><g fill="#fff"><rect width="1.203" height="1.203" x="15.414" y="10.857" rx=".269" ry=".269" /><rect width="1.203" height="1.203" x="15.414" y="12.515" rx=".269" ry=".269" /><rect width="1.203" height="1.203" x="15.414" y="5.876" rx=".269" ry=".269" /><rect width="1.203" height="1.203" x="15.414" y="7.534" rx=".269" ry=".269" /><rect width="1.203" height="1.203" x="15.414" y=".894" rx=".269" ry=".269" /><rect width="1.203" height="1.203" x="15.414" y="2.552" rx=".269" ry=".269" /></g><path fill="url(#pJN0DVCl4__e)" d="M9.012 12.422c-.081-1.139-1.073-1.998-2.217-1.919S4.79 11.57 4.871 12.711a2.075 2.075 0 0 0 2.217 1.919 2.07 2.07 0 0 0 1.924-2.208m-5.114 4.376a4.65 4.65 0 0 1-2.599-3.837A4.61 4.61 0 0 1 2.682 9.33c.224-.22.228-.579.008-.803s-.582-.228-.806-.008A5.74 5.74 0 0 0 .161 13.04a5.79 5.79 0 0 0 3.237 4.778.57.57 0 0 0 .763-.261.565.565 0 0 0-.263-.759m.974-1.92a2.68 2.68 0 0 1-1.237-2.081 2.67 2.67 0 0 1 .436-1.668.57.57 0 0 0-.953-.624 3.8 3.8 0 0 0-.621 2.371 3.85 3.85 0 0 0 1.757 2.957.57.57 0 0 0 .618-.954Z" /><style>.msportalfx-svg-c01{fill:#fff}.msportalfx-svg-c02{fill:#e5e5e5}.msportalfx-svg-c03{fill:#a0a1a2}.msportalfx-svg-c04{fill:#7a7a7a}.msportalfx-svg-c05{fill:#3e3e3e}.msportalfx-svg-c06{fill:#1e1e1e}.msportalfx-svg-c07{fill:#0f0f0f}.msportalfx-svg-c08{fill:#ba141a}.msportalfx-svg-c09{fill:#dd5900}.msportalfx-svg-c10{fill:#ff8c00}.msportalfx-svg-c11{fill:#fcd116}.msportalfx-svg-c12{fill:#fee087}.msportalfx-svg-c13{fill:#b8d432}.msportalfx-svg-c14,.msportalfx-svg-c32{fill:#57a300}.msportalfx-svg-c15{fill:#59b4d9}.msportalfx-svg-c16{fill:#3999c6}.msportalfx-svg-c17{fill:#804998}.msportalfx-svg-c18{fill:#ec008c}.msportalfx-svg-c19{fill:#0072c6}.msportalfx-svg-c20{fill:#68217a}.msportalfx-svg-c21{fill:#00188f}.msportalfx-svg-c22{fill:#e81123}.fxs-mode-light .msportalfx-svg-c22{fill:#a4262c}.msportalfx-svg-c23{fill:#cae3f3}.msportalfx-svg-c24{fill:#59aed3}.msportalfx-svg-c25{fill:#4c3b12}.msportalfx-svg-c26{fill:#be9555}.msportalfx-svg-c27{fill:#4f4d52}.msportalfx-svg-c28{fill:#ef6f59}.msportalfx-svg-c29{fill:#f7cb64}.msportalfx-svg-c30{fill:#fdd8db}.msportalfx-svg-c31{fill:#f6ffec}.msportalfx-svg-c33{fill:#8a2da5}.msportalfx-svg-c34{fill:#e00b1c}.msportalfx-svg-c35{fill:#015cda}.msportalfx-svg-c36{fill:#5db300}.msportalfx-svg-c97{fill:#ffb900}.msportalfx-svg-c98{fill:#00a4ef}.msportalfx-svg-c99{fill:#f25022}.msportalfx-inverted-theme .msportalfx-svg-c05,.fxs-theme-dark .msportalfx-svg-c05{fill:#777}.msportalfx-inverted-theme .msportalfx-svg-c07,.fxs-theme-dark .msportalfx-svg-c07{fill:#f2f2f2}.msportalfx-svg-palette-white{fill:#fff}.msportalfx-svg-palette-blue{fill:#015cda}.msportalfx-svg-palette-black{fill:#1e1e1e}.msportalfx-svg-palette-green{fill:#57a300}.msportalfx-svg-palette-gray{fill:#a0a1a2}.msportalfx-svg-palette-inherit{fill:inherit}.msportalfx-svg-badge{position:absolute;left:0;bottom:0;min-height:10px;min-width:10px}.fxc-menu-icon&gt;.msportalfx-svg-badge{left:-2px;bottom:-2px;min-height:8px;min-width:8px}.msportalfx-svg-disabled{filter:grayscale(100%)}.msportalfx-svg-loading-square{animation:ProgressFlagAnimation 1.45s infinite ease-in-out;transform-origin:50%}.msportalfx-svg-loading-square:nth-child(1){animation-delay:0s}.msportalfx-svg-loading-square:nth-child(2){animation-delay:.2s}.msportalfx-svg-loading-square:nth-child(3){animation-delay:.4s}@keyframes ProgressFlagAnimation{0%{transform:scale(1);opacity:.3}36.1%{transform:scale(1.06);opacity:1}50%{transform:scale(1.06);opacity:1}86.1%{transform:scale(1);opacity:.3}}.msportalfx-svg-flip-horizontal&gt;svg,svg.msportalfx-svg-flip-horizontal{transform:scaleX(-1)}.msportalfx-svg-fabric-rotate360{animation:ImageRotation 1.3s cubic-bezier(.53,.21,.29,.67) infinite}@keyframes ImageRotation{0%{transform:rotate(-45deg)}100%{transform:rotate(315deg)}}.fxs-svg-number .msportalfx-font-bold{font-size:10px;fill:#0065ad}.fxs-svg-number .fxs-svg-circle{stroke-width:0%;fill:#0078d4}.fxs-svg-number .fxs-svg-text{fill:#fff;font-size:10px}.fxs-svg-number.msportalfx-svg-disabled{filter:grayscale(0%)}.fxs-svg-number.msportalfx-svg-disabled .fxs-svg-circle{fill:#fff;stroke-width:1px;stroke:#949494}.fxs-svg-number.msportalfx-svg-disabled .fxs-svg-text{fill:#949494}.fxs-theme-dark .fxs-svg-number .fxs-svg-text{fill:#0f0f0f}.fxs-theme-dark .fxs-svg-number .fxs-svg-circle{stroke-width:0%;fill:#0078d4}.fxs-theme-dark .fxs-svg-number.msportalfx-svg-disabled .fxs-svg-circle{fill:#0f0f0f;stroke-width:1px;stroke:#949494}.fxs-theme-dark .fxs-svg-number.msportalfx-svg-disabled .fxs-svg-text{fill:#949494}</style></svg>