<svg viewBox="0 0 18 18" class="msportalfx-svg-placeholder" xmlns='http://www.w3.org/2000/svg'><defs><linearGradient id="pDY-idPVf__a" x1="-258.002" x2="-258.002" y1="-615.704" y2="-607.767" gradientTransform="translate(267 620.516)" gradientUnits="userSpaceOnUse"><stop offset="0" stop-color="#c3f1ff"/><stop offset=".134" stop-color="#bdeefd"/><stop offset=".312" stop-color="#ace9f9"/><stop offset=".513" stop-color="#91dff3"/><stop offset=".732" stop-color="#6bd2ea"/><stop offset=".963" stop-color="#3ac1df"/><stop offset="1" stop-color="#32bedd"/></linearGradient></defs><path fill="#b1eb80" d="m6.223 13.568-.655.657a.295.295 0 0 1-.418 0L.304 9.394a.59.59 0 0 1-.001-.837l.001-.001.655-.657 5.264 5.249a.295.295 0 0 1 .002.418z"/><path fill="#4aa647" d="m5.469 3.772.657.655a.295.295 0 0 1 0 .418L.953 10.034l-.654-.652a.59.59 0 0 1-.001-.837l.001-.001 4.757-4.772a.295.295 0 0 1 .418-.002l.002.002z"/><path fill="#b1eb80" d="m17.046 7.899.655.657c.232.23.233.605.002.837l-.002.002-4.846 4.833a.295.295 0 0 1-.418 0l-.655-.657a.295.295 0 0 1 0-.418l5.265-5.251V7.9Z"/><path fill="#4aa647" d="m17.704 9.379-.657.655-5.173-5.188a.295.295 0 0 1 0-.418l.656-.655a.296.296 0 0 1 .416 0L17.7 8.541c.232.23.233.605.002.837l-.002.002z"/><circle cx="8.998" cy="8.794" r="3.982" fill="url(#pDY-idPVf__a)"/><path fill="#198ab3" d="M12.978 8.648A3.983 3.983 0 0 0 6.559 5.65a3.97 3.97 0 0 0-1.537 2.907q-.008.114-.006.236c.002.122 0 .168.006.253a3.978 3.978 0 0 0 6.411 2.896q.053-.035.104-.075a4 4 0 0 0 1.445-2.815c0-.075.005-.156.005-.23-.004-.058-.004-.117-.009-.174m-.968-1.669h-.857a4.6 4.6 0 0 0-.651-1.364 3.47 3.47 0 0 1 1.508 1.364m-1.347 0H9.248V5.286c.944.231 1.174 1.042 1.415 1.693M8.767 5.281v1.698H7.271c.18-.612.617-1.566 1.496-1.698m-1.692.563a3 3 0 0 1 .328-.187 4.5 4.5 0 0 0-.621 1.335h-.807a3.55 3.55 0 0 1 1.103-1.148zM5.74 7.458h.921c-.2.841-.19 1.719.029 2.556h-.993a3.53 3.53 0 0 1 .05-2.557zm1.231 4.205a3.4 3.4 0 0 1-1.053-1.169h.913c.19.558.47 1.081.829 1.548a3.3 3.3 0 0 1-.684-.381H6.97Zm1.808.639a2.7 2.7 0 0 1-1.433-1.808h1.433zm0-2.275H7.192q-.033-.104-.057-.207a4.9 4.9 0 0 1 .012-2.351h1.634zm.466-2.572h1.544q.156.656.155 1.33a4.5 4.5 0 0 1-.197 1.226H9.246V7.455Zm.012 4.847v-1.805h1.341a4 4 0 0 1-1.339 1.808zm1.767-.639q-.362.259-.777.414a5.4 5.4 0 0 0 .858-1.578h.967a3.5 3.5 0 0 1-1.045 1.168l-.002-.004Zm1.272-1.646h-1.048c.223-.839.233-1.72.03-2.564h.972c.195.474.283.985.259 1.496a3.4 3.4 0 0 1-.211 1.063z"/><style>.msportalfx-svg-c01{fill:#fff}.msportalfx-svg-c02{fill:#e5e5e5}.msportalfx-svg-c03{fill:#a0a1a2}.msportalfx-svg-c04{fill:#7a7a7a}.msportalfx-svg-c05{fill:#3e3e3e}.msportalfx-svg-c06{fill:#1e1e1e}.msportalfx-svg-c07{fill:#0f0f0f}.msportalfx-svg-c08{fill:#ba141a}.msportalfx-svg-c09{fill:#dd5900}.msportalfx-svg-c10{fill:#ff8c00}.msportalfx-svg-c11{fill:#fcd116}.msportalfx-svg-c12{fill:#fee087}.msportalfx-svg-c13{fill:#b8d432}.msportalfx-svg-c14,.msportalfx-svg-c32{fill:#57a300}.msportalfx-svg-c15{fill:#59b4d9}.msportalfx-svg-c16{fill:#3999c6}.msportalfx-svg-c17{fill:#804998}.msportalfx-svg-c18{fill:#ec008c}.msportalfx-svg-c19{fill:#0072c6}.msportalfx-svg-c20{fill:#68217a}.msportalfx-svg-c21{fill:#00188f}.msportalfx-svg-c22{fill:#e81123}.fxs-mode-light .msportalfx-svg-c22{fill:#a4262c}.msportalfx-svg-c23{fill:#cae3f3}.msportalfx-svg-c24{fill:#59aed3}.msportalfx-svg-c25{fill:#4c3b12}.msportalfx-svg-c26{fill:#be9555}.msportalfx-svg-c27{fill:#4f4d52}.msportalfx-svg-c28{fill:#ef6f59}.msportalfx-svg-c29{fill:#f7cb64}.msportalfx-svg-c30{fill:#fdd8db}.msportalfx-svg-c31{fill:#f6ffec}.msportalfx-svg-c33{fill:#8a2da5}.msportalfx-svg-c34{fill:#e00b1c}.msportalfx-svg-c35{fill:#015cda}.msportalfx-svg-c36{fill:#5db300}.msportalfx-svg-c97{fill:#ffb900}.msportalfx-svg-c98{fill:#00a4ef}.msportalfx-svg-c99{fill:#f25022}.msportalfx-inverted-theme .msportalfx-svg-c05,.fxs-theme-dark .msportalfx-svg-c05{fill:#777}.msportalfx-inverted-theme .msportalfx-svg-c07,.fxs-theme-dark .msportalfx-svg-c07{fill:#f2f2f2}.msportalfx-svg-palette-white{fill:#fff}.msportalfx-svg-palette-blue{fill:#015cda}.msportalfx-svg-palette-black{fill:#1e1e1e}.msportalfx-svg-palette-green{fill:#57a300}.msportalfx-svg-palette-gray{fill:#a0a1a2}.msportalfx-svg-palette-inherit{fill:inherit}.msportalfx-svg-badge{position:absolute;left:0;bottom:0;min-height:10px;min-width:10px}.fxc-menu-icon>.msportalfx-svg-badge{left:-2px;bottom:-2px;min-height:8px;min-width:8px}.msportalfx-svg-disabled{filter:grayscale(100%)}.msportalfx-svg-loading-square{animation:ProgressFlagAnimation 1.45s infinite ease-in-out;transform-origin:50%}.msportalfx-svg-loading-square:nth-child(1){animation-delay:0s}.msportalfx-svg-loading-square:nth-child(2){animation-delay:.2s}.msportalfx-svg-loading-square:nth-child(3){animation-delay:.4s}@keyframes ProgressFlagAnimation{0%{transform:scale(1);opacity:.3}36.1%{transform:scale(1.06);opacity:1}50%{transform:scale(1.06);opacity:1}86.1%{transform:scale(1);opacity:.3}}.msportalfx-svg-flip-horizontal>svg,svg.msportalfx-svg-flip-horizontal{transform:scaleX(-1)}.msportalfx-svg-fabric-rotate360{animation:ImageRotation 1.3s cubic-bezier(.53,.21,.29,.67) infinite}@keyframes ImageRotation{0%{transform:rotate(-45deg)}100%{transform:rotate(315deg)}}.fxs-svg-number .msportalfx-font-bold{font-size:10px;fill:#0065ad}.fxs-svg-number .fxs-svg-circle{stroke-width:0%;fill:#0078d4}.fxs-svg-number .fxs-svg-text{fill:#fff;font-size:10px}.fxs-svg-number.msportalfx-svg-disabled{filter:grayscale(0%)}.fxs-svg-number.msportalfx-svg-disabled .fxs-svg-circle{fill:#fff;stroke-width:1px;stroke:#949494}.fxs-svg-number.msportalfx-svg-disabled .fxs-svg-text{fill:#949494}.fxs-theme-dark .fxs-svg-number .fxs-svg-text{fill:#0f0f0f}.fxs-theme-dark .fxs-svg-number .fxs-svg-circle{stroke-width:0%;fill:#0078d4}.fxs-theme-dark .fxs-svg-number.msportalfx-svg-disabled .fxs-svg-circle{fill:#0f0f0f;stroke-width:1px;stroke:#949494}.fxs-theme-dark .fxs-svg-number.msportalfx-svg-disabled .fxs-svg-text{fill:#949494}</style></svg>