<svg viewBox="0 0 18 18" class="msportalfx-svg-placeholder" xmlns="http://www.w3.org/2000/svg"><title>Internet Gateway Rule (Operator Nexus)</title><desc></desc><defs><linearGradient id="pPfkCWngg__a" x1="9.187" x2="9.187" y1="17.875" y2=".125" gradientUnits="userSpaceOnUse"><stop offset="0" stop-color="#4aa647" /><stop offset=".998" stop-color="#8de971" /></linearGradient><linearGradient id="pPfkCWngg__b" x1="-259.015" x2="-259.015" y1="-615.49" y2="-609.909" gradientTransform="translate(267 620.516)" gradientUnits="userSpaceOnUse"><stop offset="0" stop-color="#c3f1ff" /><stop offset=".134" stop-color="#bdeefd" /><stop offset=".312" stop-color="#ace9f9" /><stop offset=".513" stop-color="#91dff3" /><stop offset=".732" stop-color="#6bd2ea" /><stop offset=".963" stop-color="#3ac1df" /><stop offset="1" stop-color="#32bedd" /></linearGradient></defs><path fill="#07641d" d="M13.531 2.62A2.41 2.41 0 0 1 15.933.198a1.94 1.94 0 0 1 1.66 1.963c.004.448-.148.883-.428 1.232a.74.74 0 0 1-.574.271h-3.132z" /><path fill="url(#pPfkCWngg__a)" d="M13.75.145H4.352a2.39 2.39 0 0 0-2.37 2.391v15.339h9.397a2.39 2.39 0 0 0 2.391-2.391V5.136a27 27 0 0 1 0-3.132C14.146-.074 16.391.292 16.391.292a11.6 11.6 0 0 0-2.642-.146Z" /><path fill="#b1eb80" d="M11.547 17.812a1.92 1.92 0 0 1-.929-3.383.24.24 0 0 0-.156-.428H1.993a1.931 1.931 0 0 0 0 3.801q.151.016.303 0z" /><path fill="#198ab3" d="M11.528 11.069a.2.2 0 0 1-.139-.058L9.84 9.462a.196.196 0 0 1 .004-.278.2.2 0 0 1 .275 0l1.549 1.549a.197.197 0 0 1-.139.337Z" /><path fill="#0078d4" d="M11.338 11.599a.948.948 0 1 1 0-1.896.948.948 0 0 1 0 1.896" /><path fill="#198ab3" d="M7.987 6.494a.197.197 0 0 1-.197-.197V4.106a.197.197 0 0 1 .394 0v2.191a.197.197 0 0 1-.197.197m-3.604 4.575a.197.197 0 0 1-.139-.337l1.549-1.549a.196.196 0 1 1 .278.278L4.522 11.01a.2.2 0 0 1-.139.058Z" /><path fill="#0078d4" d="M4.573 11.599a.948.948 0 1 0 0-1.896.948.948 0 0 0 0 1.896m3.414-7.018a.948.948 0 1 0-.948-.948c0 .524.425.948.948.948" /><circle cx="7.985" cy="7.826" r="2.799" fill="url(#pPfkCWngg__b)" /><path fill="#198ab3" d="M10.783 7.723q0-.093-.012-.186a2.8 2.8 0 0 0-4.488-1.931q-.006.001-.012.008a2.8 2.8 0 0 0-1.08 2.044q-.005.08-.004.166c.001.086 0 .118.004.178a2.796 2.796 0 0 0 4.508 2.036l.073-.053a2.8 2.8 0 0 0 1.016-1.979l.003-.162-.006-.122Zm-.68-1.173H9.5a3.2 3.2 0 0 0-.458-.959c.441.207.81.541 1.06.959Zm-.948 0H8.16V5.36c.664.162.825.732.995 1.19M7.822 5.357v1.194H6.77c.127-.43.434-1.101 1.052-1.194m-1.189.395q.111-.074.231-.132a3.2 3.2 0 0 0-.437.939H5.86a2.5 2.5 0 0 1 .775-.807zm-.939 1.135h.648a3.7 3.7 0 0 0 .02 1.797h-.698a2.48 2.48 0 0 1 .035-1.798zm.866 2.956a2.4 2.4 0 0 1-.741-.822h.642c.134.392.331.76.583 1.089a2.3 2.3 0 0 1-.481-.268zm1.271.449a1.9 1.9 0 0 1-1.008-1.271h1.008zm0-1.599H6.715a3.46 3.46 0 0 1-.032-1.799h1.149zm.327-1.808h1.085q.11.46.109.935a3.2 3.2 0 0 1-.139.862H8.158zm.008 3.407V9.023h.943a2.8 2.8 0 0 1-.942 1.271zm1.243-.449a2.3 2.3 0 0 1-.546.291c.262-.333.466-.708.603-1.11h.68a2.44 2.44 0 0 1-.735.821v-.003Zm.895-1.157h-.737c.157-.59.164-1.21.021-1.803h.684c.137.333.199.692.182 1.052a2.4 2.4 0 0 1-.148.748v.003Z" /><style>.msportalfx-svg-c01{fill:#fff}.msportalfx-svg-c02{fill:#e5e5e5}.msportalfx-svg-c03{fill:#a0a1a2}.msportalfx-svg-c04{fill:#7a7a7a}.msportalfx-svg-c05{fill:#3e3e3e}.msportalfx-svg-c06{fill:#1e1e1e}.msportalfx-svg-c07{fill:#0f0f0f}.msportalfx-svg-c08{fill:#ba141a}.msportalfx-svg-c09{fill:#dd5900}.msportalfx-svg-c10{fill:#ff8c00}.msportalfx-svg-c11{fill:#fcd116}.msportalfx-svg-c12{fill:#fee087}.msportalfx-svg-c13{fill:#b8d432}.msportalfx-svg-c14,.msportalfx-svg-c32{fill:#57a300}.msportalfx-svg-c15{fill:#59b4d9}.msportalfx-svg-c16{fill:#3999c6}.msportalfx-svg-c17{fill:#804998}.msportalfx-svg-c18{fill:#ec008c}.msportalfx-svg-c19{fill:#0072c6}.msportalfx-svg-c20{fill:#68217a}.msportalfx-svg-c21{fill:#00188f}.msportalfx-svg-c22{fill:#e81123}.fxs-mode-light .msportalfx-svg-c22{fill:#a4262c}.msportalfx-svg-c23{fill:#cae3f3}.msportalfx-svg-c24{fill:#59aed3}.msportalfx-svg-c25{fill:#4c3b12}.msportalfx-svg-c26{fill:#be9555}.msportalfx-svg-c27{fill:#4f4d52}.msportalfx-svg-c28{fill:#ef6f59}.msportalfx-svg-c29{fill:#f7cb64}.msportalfx-svg-c30{fill:#fdd8db}.msportalfx-svg-c31{fill:#f6ffec}.msportalfx-svg-c33{fill:#8a2da5}.msportalfx-svg-c34{fill:#e00b1c}.msportalfx-svg-c35{fill:#015cda}.msportalfx-svg-c36{fill:#5db300}.msportalfx-svg-c97{fill:#ffb900}.msportalfx-svg-c98{fill:#00a4ef}.msportalfx-svg-c99{fill:#f25022}.msportalfx-inverted-theme .msportalfx-svg-c05,.fxs-theme-dark .msportalfx-svg-c05{fill:#777}.msportalfx-inverted-theme .msportalfx-svg-c07,.fxs-theme-dark .msportalfx-svg-c07{fill:#f2f2f2}.msportalfx-svg-palette-white{fill:#fff}.msportalfx-svg-palette-blue{fill:#015cda}.msportalfx-svg-palette-black{fill:#1e1e1e}.msportalfx-svg-palette-green{fill:#57a300}.msportalfx-svg-palette-gray{fill:#a0a1a2}.msportalfx-svg-palette-inherit{fill:inherit}.msportalfx-svg-badge{position:absolute;left:0;bottom:0;min-height:10px;min-width:10px}.fxc-menu-icon&gt;.msportalfx-svg-badge{left:-2px;bottom:-2px;min-height:8px;min-width:8px}.msportalfx-svg-disabled{filter:grayscale(100%)}.msportalfx-svg-loading-square{animation:ProgressFlagAnimation 1.45s infinite ease-in-out;transform-origin:50%}.msportalfx-svg-loading-square:nth-child(1){animation-delay:0s}.msportalfx-svg-loading-square:nth-child(2){animation-delay:.2s}.msportalfx-svg-loading-square:nth-child(3){animation-delay:.4s}@keyframes ProgressFlagAnimation{0%{transform:scale(1);opacity:.3}36.1%{transform:scale(1.06);opacity:1}50%{transform:scale(1.06);opacity:1}86.1%{transform:scale(1);opacity:.3}}.msportalfx-svg-flip-horizontal&gt;svg,svg.msportalfx-svg-flip-horizontal{transform:scaleX(-1)}.msportalfx-svg-fabric-rotate360{animation:ImageRotation 1.3s cubic-bezier(.53,.21,.29,.67) infinite}@keyframes ImageRotation{0%{transform:rotate(-45deg)}100%{transform:rotate(315deg)}}.fxs-svg-number .msportalfx-font-bold{font-size:10px;fill:#0065ad}.fxs-svg-number .fxs-svg-circle{stroke-width:0%;fill:#0078d4}.fxs-svg-number .fxs-svg-text{fill:#fff;font-size:10px}.fxs-svg-number.msportalfx-svg-disabled{filter:grayscale(0%)}.fxs-svg-number.msportalfx-svg-disabled .fxs-svg-circle{fill:#fff;stroke-width:1px;stroke:#949494}.fxs-svg-number.msportalfx-svg-disabled .fxs-svg-text{fill:#949494}.fxs-theme-dark .fxs-svg-number .fxs-svg-text{fill:#0f0f0f}.fxs-theme-dark .fxs-svg-number .fxs-svg-circle{stroke-width:0%;fill:#0078d4}.fxs-theme-dark .fxs-svg-number.msportalfx-svg-disabled .fxs-svg-circle{fill:#0f0f0f;stroke-width:1px;stroke:#949494}.fxs-theme-dark .fxs-svg-number.msportalfx-svg-disabled .fxs-svg-text{fill:#949494}</style></svg>