<svg viewBox="0 0 18 18" class="msportalfx-svg-placeholder" xmlns='http://www.w3.org/2000/svg'><defs><linearGradient id="pMvVXnFe0__a" x1="0" x2="6.174" y1="6.829" y2="6.829" gradientUnits="userSpaceOnUse"><stop offset="0" stop-color="#773adc"/><stop offset="1" stop-color="#552f99"/></linearGradient><linearGradient id="pMvVXnFe0__b" x1="11.827" x2="18" y1="6.83" y2="6.83" gradientUnits="userSpaceOnUse"><stop offset="0" stop-color="#773adc"/><stop offset="1" stop-color="#552f99"/></linearGradient><linearGradient id="pMvVXnFe0__c" x1="-258.002" x2="-258.002" y1="-615.763" y2="-607.714" gradientTransform="translate(267 620.516)" gradientUnits="userSpaceOnUse"><stop offset="0" stop-color="#c3f1ff"/><stop offset=".134" stop-color="#bdeefd"/><stop offset=".312" stop-color="#ace9f9"/><stop offset=".513" stop-color="#91dff3"/><stop offset=".732" stop-color="#6bd2ea"/><stop offset=".963" stop-color="#3ac1df"/><stop offset="1" stop-color="#32bedd"/></linearGradient></defs><path fill="#a67af4" d="m6.184 13.633-.664.666a.3.3 0 0 1-.424 0L.182 9.4a.6.6 0 0 1-.001-.849l.001-.001.664-.666 5.338 5.323a.3.3 0 0 1 .002.424z"/><path fill="url(#pMvVXnFe0__a)" d="m5.42 3.699.666.664a.3.3 0 0 1 0 .424L.84 10.049l-.663-.661a.6.6 0 0 1-.001-.849l.001-.001L5 3.699a.3.3 0 0 1 .424-.002l.002.002z"/><path fill="#a67af4" d="m17.159 7.884.664.666a.6.6 0 0 1 .002.849l-.002.002-4.914 4.901a.3.3 0 0 1-.424 0l-.664-.666a.3.3 0 0 1 0-.424l5.339-5.325v-.002Z"/><path fill="url(#pMvVXnFe0__b)" d="m17.827 9.385-.666.664-5.246-5.261a.3.3 0 0 1 0-.424l.665-.664a.3.3 0 0 1 .422 0l4.821 4.835a.6.6 0 0 1 .002.849l-.002.002z"/><circle cx="8.998" cy="8.791" r="4.038" fill="url(#pMvVXnFe0__c)"/><path fill="#198ab3" d="M13.034 8.643a4.039 4.039 0 0 0-6.509-3.04 4.02 4.02 0 0 0-1.558 2.948q-.007.116-.006.239c.001.123 0 .17.006.257a4.034 4.034 0 0 0 6.502 2.937q.054-.036.105-.076a4.04 4.04 0 0 0 1.465-2.855c0-.076.005-.158.005-.233-.004-.059-.004-.119-.009-.176Zm-.981-1.693h-.869a4.7 4.7 0 0 0-.66-1.383c.636.298 1.169.78 1.529 1.383m-1.366 0H9.252V5.234c.957.234 1.19 1.056 1.435 1.716M8.764 5.229v1.722H7.247c.183-.62.626-1.588 1.517-1.722m-1.716.57q.16-.106.333-.19a4.6 4.6 0 0 0-.63 1.354h-.818c.28-.468.662-.866 1.118-1.164zM5.694 7.436h.934a5.35 5.35 0 0 0 .029 2.592H5.65a3.58 3.58 0 0 1 .051-2.594zM6.943 11.7a3.5 3.5 0 0 1-1.068-1.185h.926c.193.566.477 1.096.841 1.57q-.37-.151-.693-.386zm1.833.648a2.73 2.73 0 0 1-1.453-1.833h1.453zm0-2.306H7.167a3 3 0 0 1-.058-.21 5 5 0 0 1 .012-2.384h1.657zm.472-2.609h1.565c.105.442.158.894.157 1.348-.009.422-.076.84-.2 1.243H9.248zm.012 4.915v-1.83h1.36a4.06 4.06 0 0 1-1.358 1.833zm1.793-.648a3.4 3.4 0 0 1-.788.42 5.5 5.5 0 0 0 .87-1.6h.98c-.259.47-.621.875-1.06 1.184zm1.29-1.669H11.28a5.3 5.3 0 0 0 .03-2.601h.986c.198.48.287.998.263 1.517a3.4 3.4 0 0 1-.214 1.078z"/><style>.msportalfx-svg-c01{fill:#fff}.msportalfx-svg-c02{fill:#e5e5e5}.msportalfx-svg-c03{fill:#a0a1a2}.msportalfx-svg-c04{fill:#7a7a7a}.msportalfx-svg-c05{fill:#3e3e3e}.msportalfx-svg-c06{fill:#1e1e1e}.msportalfx-svg-c07{fill:#0f0f0f}.msportalfx-svg-c08{fill:#ba141a}.msportalfx-svg-c09{fill:#dd5900}.msportalfx-svg-c10{fill:#ff8c00}.msportalfx-svg-c11{fill:#fcd116}.msportalfx-svg-c12{fill:#fee087}.msportalfx-svg-c13{fill:#b8d432}.msportalfx-svg-c14,.msportalfx-svg-c32{fill:#57a300}.msportalfx-svg-c15{fill:#59b4d9}.msportalfx-svg-c16{fill:#3999c6}.msportalfx-svg-c17{fill:#804998}.msportalfx-svg-c18{fill:#ec008c}.msportalfx-svg-c19{fill:#0072c6}.msportalfx-svg-c20{fill:#68217a}.msportalfx-svg-c21{fill:#00188f}.msportalfx-svg-c22{fill:#e81123}.fxs-mode-light .msportalfx-svg-c22{fill:#a4262c}.msportalfx-svg-c23{fill:#cae3f3}.msportalfx-svg-c24{fill:#59aed3}.msportalfx-svg-c25{fill:#4c3b12}.msportalfx-svg-c26{fill:#be9555}.msportalfx-svg-c27{fill:#4f4d52}.msportalfx-svg-c28{fill:#ef6f59}.msportalfx-svg-c29{fill:#f7cb64}.msportalfx-svg-c30{fill:#fdd8db}.msportalfx-svg-c31{fill:#f6ffec}.msportalfx-svg-c33{fill:#8a2da5}.msportalfx-svg-c34{fill:#e00b1c}.msportalfx-svg-c35{fill:#015cda}.msportalfx-svg-c36{fill:#5db300}.msportalfx-svg-c97{fill:#ffb900}.msportalfx-svg-c98{fill:#00a4ef}.msportalfx-svg-c99{fill:#f25022}.msportalfx-inverted-theme .msportalfx-svg-c05,.fxs-theme-dark .msportalfx-svg-c05{fill:#777}.msportalfx-inverted-theme .msportalfx-svg-c07,.fxs-theme-dark .msportalfx-svg-c07{fill:#f2f2f2}.msportalfx-svg-palette-white{fill:#fff}.msportalfx-svg-palette-blue{fill:#015cda}.msportalfx-svg-palette-black{fill:#1e1e1e}.msportalfx-svg-palette-green{fill:#57a300}.msportalfx-svg-palette-gray{fill:#a0a1a2}.msportalfx-svg-palette-inherit{fill:inherit}.msportalfx-svg-badge{position:absolute;left:0;bottom:0;min-height:10px;min-width:10px}.fxc-menu-icon>.msportalfx-svg-badge{left:-2px;bottom:-2px;min-height:8px;min-width:8px}.msportalfx-svg-disabled{filter:grayscale(100%)}.msportalfx-svg-loading-square{animation:ProgressFlagAnimation 1.45s infinite ease-in-out;transform-origin:50%}.msportalfx-svg-loading-square:nth-child(1){animation-delay:0s}.msportalfx-svg-loading-square:nth-child(2){animation-delay:.2s}.msportalfx-svg-loading-square:nth-child(3){animation-delay:.4s}@keyframes ProgressFlagAnimation{0%{transform:scale(1);opacity:.3}36.1%{transform:scale(1.06);opacity:1}50%{transform:scale(1.06);opacity:1}86.1%{transform:scale(1);opacity:.3}}.msportalfx-svg-flip-horizontal>svg,svg.msportalfx-svg-flip-horizontal{transform:scaleX(-1)}.msportalfx-svg-fabric-rotate360{animation:ImageRotation 1.3s cubic-bezier(.53,.21,.29,.67) infinite}@keyframes ImageRotation{0%{transform:rotate(-45deg)}100%{transform:rotate(315deg)}}.fxs-svg-number .msportalfx-font-bold{font-size:10px;fill:#0065ad}.fxs-svg-number .fxs-svg-circle{stroke-width:0%;fill:#0078d4}.fxs-svg-number .fxs-svg-text{fill:#fff;font-size:10px}.fxs-svg-number.msportalfx-svg-disabled{filter:grayscale(0%)}.fxs-svg-number.msportalfx-svg-disabled .fxs-svg-circle{fill:#fff;stroke-width:1px;stroke:#949494}.fxs-svg-number.msportalfx-svg-disabled .fxs-svg-text{fill:#949494}.fxs-theme-dark .fxs-svg-number .fxs-svg-text{fill:#0f0f0f}.fxs-theme-dark .fxs-svg-number .fxs-svg-circle{stroke-width:0%;fill:#0078d4}.fxs-theme-dark .fxs-svg-number.msportalfx-svg-disabled .fxs-svg-circle{fill:#0f0f0f;stroke-width:1px;stroke:#949494}.fxs-theme-dark .fxs-svg-number.msportalfx-svg-disabled .fxs-svg-text{fill:#949494}</style></svg>