<svg viewBox="0 0 18 18" class="msportalfx-svg-placeholder" xmlns='http://www.w3.org/2000/svg'><defs><linearGradient id="pQT_NMOSL__a" x1="309.395" x2="309.797" y1="406.276" y2="385.079" gradientTransform="matrix(1 0 0 -1 -297 404.516)" gradientUnits="userSpaceOnUse"><stop offset=".225" stop-color="#32d4f5"/><stop offset="1" stop-color="#198ab3"/></linearGradient><linearGradient id="pQT_NMOSL__b" x1="309.21" x2="307.825" y1="396.986" y2="404.846" gradientTransform="matrix(1 0 0 -1 -297 404.516)" gradientUnits="userSpaceOnUse"><stop offset="0" stop-color="#773adc"/><stop offset="1" stop-color="#552f99"/></linearGradient><linearGradient id="pQT_NMOSL__c" x1="312.608" x2="296.381" y1="390.462" y2="399.832" gradientTransform="matrix(1 0 0 -1 -297 404.516)" gradientUnits="userSpaceOnUse"><stop offset=".301" stop-color="#773adc"/><stop offset="1" stop-color="#a67af4"/></linearGradient></defs><path fill="url(#pQT_NMOSL__a)" d="M17.326 10.776h-.735V8.433a4.45 4.45 0 0 0-1.135-2.989 3.755 3.755 0 0 0-5.631 0 4.37 4.37 0 0 0-1.136 2.985v2.344h-.616a.535.535 0 0 0-.528.526v6.05a.536.536 0 0 0 .528.526h9.252a.536.536 0 0 0 .528-.526v-6.05a.536.536 0 0 0-.528-.523Zm-2.564 0h-4.24V8.392c.005-.61.241-1.195.66-1.638a1.893 1.893 0 0 1 2.874 0q.138.153.246.328c.286.378.446.835.458 1.308v2.385Z"/><path fill="#50e6ff" d="M17.344 10.776h-9.26a.53.53 0 0 0-.34.131l9.94 6.881a.53.53 0 0 0 .189-.394v-6.091a.535.535 0 0 0-.529-.526Z"/><path fill="#fff" d="M8.093 10.776h9.261a.53.53 0 0 1 .34.131l-9.94 6.878a.53.53 0 0 1-.189-.394v-6.088a.536.536 0 0 1 .528-.526Z" opacity=".2"/><path fill="url(#pQT_NMOSL__b)" d="M12.145 3.664q.213-.035.43-.047h.099a4.18 4.18 0 0 1 3.173 1.455c.426.477.757 1.032.972 1.635l.728-.117C16.214 1.873 11.311-.871 6.595.461a9 9 0 0 0-.967.334l.382 2.768a6.13 6.13 0 0 1 6.135.099z"/><path fill="url(#pQT_NMOSL__c)" d="m16.649 6.331.733-.249a8.6 8.6 0 0 1 .382 4.24 1 1 0 0 0-.118-.043 1 1 0 0 0-.197-.044l-.026-.007h-.299V8.44a5 5 0 0 0-.474-2.107ZM6.966 17.349V14.86a6.198 6.198 0 0 1-2.874-9.662s.434-.608.635-.835a.16.16 0 0 1 .156.015l.099.068 1.42 1.017a.162.162 0 0 0 .254-.158L5.954 1.07a.363.363 0 0 0-.416-.296l-4.237.701a.161.161 0 0 0-.067.291l1.423 1.016h.006A8.868 8.868 0 0 0 7.038 17.64a1 1 0 0 1-.073-.292Z"/><style>.msportalfx-svg-c01{fill:#fff}.msportalfx-svg-c02{fill:#e5e5e5}.msportalfx-svg-c03{fill:#a0a1a2}.msportalfx-svg-c04{fill:#7a7a7a}.msportalfx-svg-c05{fill:#3e3e3e}.msportalfx-svg-c06{fill:#1e1e1e}.msportalfx-svg-c07{fill:#0f0f0f}.msportalfx-svg-c08{fill:#ba141a}.msportalfx-svg-c09{fill:#dd5900}.msportalfx-svg-c10{fill:#ff8c00}.msportalfx-svg-c11{fill:#fcd116}.msportalfx-svg-c12{fill:#fee087}.msportalfx-svg-c13{fill:#b8d432}.msportalfx-svg-c14,.msportalfx-svg-c32{fill:#57a300}.msportalfx-svg-c15{fill:#59b4d9}.msportalfx-svg-c16{fill:#3999c6}.msportalfx-svg-c17{fill:#804998}.msportalfx-svg-c18{fill:#ec008c}.msportalfx-svg-c19{fill:#0072c6}.msportalfx-svg-c20{fill:#68217a}.msportalfx-svg-c21{fill:#00188f}.msportalfx-svg-c22{fill:#e81123}.fxs-mode-light .msportalfx-svg-c22{fill:#a4262c}.msportalfx-svg-c23{fill:#cae3f3}.msportalfx-svg-c24{fill:#59aed3}.msportalfx-svg-c25{fill:#4c3b12}.msportalfx-svg-c26{fill:#be9555}.msportalfx-svg-c27{fill:#4f4d52}.msportalfx-svg-c28{fill:#ef6f59}.msportalfx-svg-c29{fill:#f7cb64}.msportalfx-svg-c30{fill:#fdd8db}.msportalfx-svg-c31{fill:#f6ffec}.msportalfx-svg-c33{fill:#8a2da5}.msportalfx-svg-c34{fill:#e00b1c}.msportalfx-svg-c35{fill:#015cda}.msportalfx-svg-c36{fill:#5db300}.msportalfx-svg-c97{fill:#ffb900}.msportalfx-svg-c98{fill:#00a4ef}.msportalfx-svg-c99{fill:#f25022}.msportalfx-inverted-theme .msportalfx-svg-c05,.fxs-theme-dark .msportalfx-svg-c05{fill:#777}.msportalfx-inverted-theme .msportalfx-svg-c07,.fxs-theme-dark .msportalfx-svg-c07{fill:#f2f2f2}.msportalfx-svg-palette-white{fill:#fff}.msportalfx-svg-palette-blue{fill:#015cda}.msportalfx-svg-palette-black{fill:#1e1e1e}.msportalfx-svg-palette-green{fill:#57a300}.msportalfx-svg-palette-gray{fill:#a0a1a2}.msportalfx-svg-palette-inherit{fill:inherit}.msportalfx-svg-badge{position:absolute;left:0;bottom:0;min-height:10px;min-width:10px}.fxc-menu-icon>.msportalfx-svg-badge{left:-2px;bottom:-2px;min-height:8px;min-width:8px}.msportalfx-svg-disabled{filter:grayscale(100%)}.msportalfx-svg-loading-square{animation:ProgressFlagAnimation 1.45s infinite ease-in-out;transform-origin:50%}.msportalfx-svg-loading-square:nth-child(1){animation-delay:0s}.msportalfx-svg-loading-square:nth-child(2){animation-delay:.2s}.msportalfx-svg-loading-square:nth-child(3){animation-delay:.4s}@keyframes ProgressFlagAnimation{0%{transform:scale(1);opacity:.3}36.1%{transform:scale(1.06);opacity:1}50%{transform:scale(1.06);opacity:1}86.1%{transform:scale(1);opacity:.3}}.msportalfx-svg-flip-horizontal>svg,svg.msportalfx-svg-flip-horizontal{transform:scaleX(-1)}.msportalfx-svg-fabric-rotate360{animation:ImageRotation 1.3s cubic-bezier(.53,.21,.29,.67) infinite}@keyframes ImageRotation{0%{transform:rotate(-45deg)}100%{transform:rotate(315deg)}}.fxs-svg-number .msportalfx-font-bold{font-size:10px;fill:#0065ad}.fxs-svg-number .fxs-svg-circle{stroke-width:0%;fill:#0078d4}.fxs-svg-number .fxs-svg-text{fill:#fff;font-size:10px}.fxs-svg-number.msportalfx-svg-disabled{filter:grayscale(0%)}.fxs-svg-number.msportalfx-svg-disabled .fxs-svg-circle{fill:#fff;stroke-width:1px;stroke:#949494}.fxs-svg-number.msportalfx-svg-disabled .fxs-svg-text{fill:#949494}.fxs-theme-dark .fxs-svg-number .fxs-svg-text{fill:#0f0f0f}.fxs-theme-dark .fxs-svg-number .fxs-svg-circle{stroke-width:0%;fill:#0078d4}.fxs-theme-dark .fxs-svg-number.msportalfx-svg-disabled .fxs-svg-circle{fill:#0f0f0f;stroke-width:1px;stroke:#949494}.fxs-theme-dark .fxs-svg-number.msportalfx-svg-disabled .fxs-svg-text{fill:#949494}</style></svg>