<svg viewBox="0 0 18 18" class="msportalfx-svg-placeholder" xmlns='http://www.w3.org/2000/svg'><defs><linearGradient id="ptLbsDS0W__a" x1="21" x2="21" y1="-178.892" y2="-187.127" gradientTransform="translate(-12 192.016)" gradientUnits="userSpaceOnUse"><stop offset="0" stop-color="#32bedd"/><stop offset="1" stop-color="#50e6ff"/></linearGradient></defs><path fill="#a3a3a3" d="M12.779 5.663h.695c.103 0 .187.084.187.187v1.922a.187.187 0 0 1-.187.187h-.695zm0 3.343v3.591h.695a.187.187 0 0 0 .187-.187V9.193a.187.187 0 0 0-.187-.187z"/><rect width="7.554" height="8.235" x="5.223" y="4.889" fill="url(#ptLbsDS0W__a)" rx=".379" ry=".379"/><path fill="#949494" d="M5.212 10.791h-.697a.19.19 0 0 1-.187-.164V7.41c0-.103.084-.187.187-.187h.697z"/><path fill="#c3f1ff" d="m6.841 7.217-.005 3.479h.845v.384H6.654a.19.19 0 0 1-.183-.193V7.028c0-.052.02-.102.057-.138a.15.15 0 0 1 .128-.055h3.089v.381zm2.779 3.441V8.966h.61a.185.185 0 0 0 .169-.192V7.356h-.363v1.236h-.614a.18.18 0 0 0-.172.187v2.103a.17.17 0 0 0 .052.129.18.18 0 0 0 .137.067h1.131v-.418h-.951Z"/><path fill="#198ab3" d="M8.234 10.004v1.728c0 .08-.065.146-.146.146h-.395a.146.146 0 0 1-.146-.145v-1.728c0-.081.065-.146.146-.146h.395c.08 0 .146.065.146.146Zm.681-3.723v1.416c0 .08.065.146.146.146h2.245c.08 0 .146-.065.146-.146V6.281a.146.146 0 0 0-.146-.146H9.061a.146.146 0 0 0-.146.145Z"/><circle cx="10.912" cy="10.868" r=".475" fill="#fff"/><path fill="#949494" d="M0 15.587c0 .062.033.119.086.15l1.221.708 2.075 1.2c.08.047.184.021.231-.06l.7-1.216a.175.175 0 0 0-.063-.236l-2.428-1.4a.17.17 0 0 1-.086-.149V3.422c0-.062.032-.119.086-.149L4.25 1.864a.175.175 0 0 0 .063-.235L3.616.414a.17.17 0 0 0-.233-.065L1.349 1.53l-1.263.733A.17.17 0 0 0 0 2.412v13.174Z"/><path fill="#a3a3a3" d="M4.314 1.629 3.616.414A.17.17 0 0 0 3.442.33q-.046 0-.086.021L1.324 1.53l-1.263.733a.2.2 0 0 0-.061.06l.02.012a.16.16 0 0 0-.02.077l1.739 1.01c0-.062.032-.119.086-.149l2.426-1.409a.175.175 0 0 0 .063-.235m0 14.743-.7 1.215a.17.17 0 0 1-.174.084.2.2 0 0 1-.086-.021l-2.032-1.18-1.261-.732A.2.2 0 0 1 0 15.677l.02-.011a.2.2 0 0 1-.02-.078l1.739-1.009c0 .062.032.119.086.149l2.426 1.408a.175.175 0 0 1 .063.236"/><path fill="#949494" d="M17.999 2.413a.17.17 0 0 0-.086-.15l-1.221-.708L14.615.351a.17.17 0 0 0-.231.06l-.7 1.216a.175.175 0 0 0 .063.236l2.426 1.408c.054.03.087.087.086.149v11.157a.17.17 0 0 1-.086.149l-2.426 1.409a.175.175 0 0 0-.063.235l.7 1.215a.17.17 0 0 0 .233.065l2.033-1.18 1.263-.733a.17.17 0 0 0 .087-.15V2.413Z"/><path fill="#a3a3a3" d="m13.683 16.371.7 1.215a.17.17 0 0 0 .174.084q.046 0 .086-.021l2.032-1.179 1.263-.733a.2.2 0 0 0 .061-.06l-.02-.012a.2.2 0 0 0 .02-.077l-1.739-1.01a.17.17 0 0 1-.086.149l-2.426 1.409a.174.174 0 0 0-.065.235m0-14.743.7-1.215a.17.17 0 0 1 .174-.084q.046 0 .086.021l2.032 1.18 1.263.732a.2.2 0 0 1 .061.061l-.02.011q.02.037.02.078l-1.741 1.009a.17.17 0 0 0-.086-.149l-2.426-1.408a.175.175 0 0 1-.063-.236"/><style>.msportalfx-svg-c01{fill:#fff}.msportalfx-svg-c02{fill:#e5e5e5}.msportalfx-svg-c03{fill:#a0a1a2}.msportalfx-svg-c04{fill:#7a7a7a}.msportalfx-svg-c05{fill:#3e3e3e}.msportalfx-svg-c06{fill:#1e1e1e}.msportalfx-svg-c07{fill:#0f0f0f}.msportalfx-svg-c08{fill:#ba141a}.msportalfx-svg-c09{fill:#dd5900}.msportalfx-svg-c10{fill:#ff8c00}.msportalfx-svg-c11{fill:#fcd116}.msportalfx-svg-c12{fill:#fee087}.msportalfx-svg-c13{fill:#b8d432}.msportalfx-svg-c14,.msportalfx-svg-c32{fill:#57a300}.msportalfx-svg-c15{fill:#59b4d9}.msportalfx-svg-c16{fill:#3999c6}.msportalfx-svg-c17{fill:#804998}.msportalfx-svg-c18{fill:#ec008c}.msportalfx-svg-c19{fill:#0072c6}.msportalfx-svg-c20{fill:#68217a}.msportalfx-svg-c21{fill:#00188f}.msportalfx-svg-c22{fill:#e81123}.fxs-mode-light .msportalfx-svg-c22{fill:#a4262c}.msportalfx-svg-c23{fill:#cae3f3}.msportalfx-svg-c24{fill:#59aed3}.msportalfx-svg-c25{fill:#4c3b12}.msportalfx-svg-c26{fill:#be9555}.msportalfx-svg-c27{fill:#4f4d52}.msportalfx-svg-c28{fill:#ef6f59}.msportalfx-svg-c29{fill:#f7cb64}.msportalfx-svg-c30{fill:#fdd8db}.msportalfx-svg-c31{fill:#f6ffec}.msportalfx-svg-c33{fill:#8a2da5}.msportalfx-svg-c34{fill:#e00b1c}.msportalfx-svg-c35{fill:#015cda}.msportalfx-svg-c36{fill:#5db300}.msportalfx-svg-c97{fill:#ffb900}.msportalfx-svg-c98{fill:#00a4ef}.msportalfx-svg-c99{fill:#f25022}.msportalfx-inverted-theme .msportalfx-svg-c05,.fxs-theme-dark .msportalfx-svg-c05{fill:#777}.msportalfx-inverted-theme .msportalfx-svg-c07,.fxs-theme-dark .msportalfx-svg-c07{fill:#f2f2f2}.msportalfx-svg-palette-white{fill:#fff}.msportalfx-svg-palette-blue{fill:#015cda}.msportalfx-svg-palette-black{fill:#1e1e1e}.msportalfx-svg-palette-green{fill:#57a300}.msportalfx-svg-palette-gray{fill:#a0a1a2}.msportalfx-svg-palette-inherit{fill:inherit}.msportalfx-svg-badge{position:absolute;left:0;bottom:0;min-height:10px;min-width:10px}.fxc-menu-icon>.msportalfx-svg-badge{left:-2px;bottom:-2px;min-height:8px;min-width:8px}.msportalfx-svg-disabled{filter:grayscale(100%)}.msportalfx-svg-loading-square{animation:ProgressFlagAnimation 1.45s infinite ease-in-out;transform-origin:50%}.msportalfx-svg-loading-square:nth-child(1){animation-delay:0s}.msportalfx-svg-loading-square:nth-child(2){animation-delay:.2s}.msportalfx-svg-loading-square:nth-child(3){animation-delay:.4s}@keyframes ProgressFlagAnimation{0%{transform:scale(1);opacity:.3}36.1%{transform:scale(1.06);opacity:1}50%{transform:scale(1.06);opacity:1}86.1%{transform:scale(1);opacity:.3}}.msportalfx-svg-flip-horizontal>svg,svg.msportalfx-svg-flip-horizontal{transform:scaleX(-1)}.msportalfx-svg-fabric-rotate360{animation:ImageRotation 1.3s cubic-bezier(.53,.21,.29,.67) infinite}@keyframes ImageRotation{0%{transform:rotate(-45deg)}100%{transform:rotate(315deg)}}.fxs-svg-number .msportalfx-font-bold{font-size:10px;fill:#0065ad}.fxs-svg-number .fxs-svg-circle{stroke-width:0%;fill:#0078d4}.fxs-svg-number .fxs-svg-text{fill:#fff;font-size:10px}.fxs-svg-number.msportalfx-svg-disabled{filter:grayscale(0%)}.fxs-svg-number.msportalfx-svg-disabled .fxs-svg-circle{fill:#fff;stroke-width:1px;stroke:#949494}.fxs-svg-number.msportalfx-svg-disabled .fxs-svg-text{fill:#949494}.fxs-theme-dark .fxs-svg-number .fxs-svg-text{fill:#0f0f0f}.fxs-theme-dark .fxs-svg-number .fxs-svg-circle{stroke-width:0%;fill:#0078d4}.fxs-theme-dark .fxs-svg-number.msportalfx-svg-disabled .fxs-svg-circle{fill:#0f0f0f;stroke-width:1px;stroke:#949494}.fxs-theme-dark .fxs-svg-number.msportalfx-svg-disabled .fxs-svg-text{fill:#949494}</style></svg>