<svg viewBox="0 0 18 18" class="msportalfx-svg-placeholder" xmlns='http://www.w3.org/2000/svg'><defs><linearGradient id="pBfFvc81x__a" x1="306.122" x2="306.122" y1="389.545" y2="400.076" gradientTransform="matrix(1 0 0 -1 -297 404.516)" gradientUnits="userSpaceOnUse"><stop offset="0" stop-color="#32bedd"/><stop offset=".037" stop-color="#3ac1df"/><stop offset=".268" stop-color="#6bd2ea"/><stop offset=".487" stop-color="#91dff3"/><stop offset=".688" stop-color="#ace9f9"/><stop offset=".866" stop-color="#bdeefd"/><stop offset="1" stop-color="#c3f1ff"/></linearGradient><linearGradient id="pBfFvc81x__b" x1="9" x2="9" y1="17.875" y2="1.934" gradientUnits="userSpaceOnUse"><stop offset="0" stop-color="#006dcd"/><stop offset=".156" stop-color="#1475d4"/><stop offset=".528" stop-color="#3585e0"/><stop offset=".822" stop-color="#4b90e8"/><stop offset="1" stop-color="#5395ec"/></linearGradient></defs><circle cx="9.122" cy="9.705" r="5.265" fill="url(#pBfFvc81x__a)"/><path fill="#198ab3" d="M14.372 9.527h-.009a5.384 5.384 0 1 0 0 .355h.009zm-2.234 0a6.2 6.2 0 0 0-.437-2.241h1.664c.387.686.605 1.454.636 2.241zm-8.164.355H5.91c.007.769.158 1.53.444 2.243H4.608a4.95 4.95 0 0 1-.631-2.243zm7.18-2.95H9.168V4.919a5.66 5.66 0 0 1 1.986 2.013m-2.342 0h-1.86a6 6 0 0 1 1.86-1.871zm0 .354v2.241H6.266a5.4 5.4 0 0 1 .508-2.241zM5.91 9.527H3.978a4.95 4.95 0 0 1 .63-2.241h1.776a5.8 5.8 0 0 0-.474 2.241m.355.355h2.546v2.243H6.756a5.7 5.7 0 0 1-.49-2.243Zm2.545 2.601v1.988a5.8 5.8 0 0 1-1.886-1.988zm.356 0h1.957a5.9 5.9 0 0 1-1.957 2.036zm0-.355V9.883h2.622a5.7 5.7 0 0 1-.49 2.243zm0-2.601V7.286h2.153a5.8 5.8 0 0 1 .464 2.241zm4.012-2.6h-1.639a5.84 5.84 0 0 0-2.022-2.2 5.02 5.02 0 0 1 3.663 2.2h-.001ZM8.709 4.701a6.3 6.3 0 0 0-2.147 2.23H4.8a5.02 5.02 0 0 1 3.91-2.23ZM4.8 12.481h1.728A6 6 0 0 0 8.5 14.686a5.02 5.02 0 0 1-3.701-2.205Zm4.76 2.2a6 6 0 0 0 1.963-2.2h1.655a5.02 5.02 0 0 1-3.618 2.196zm3.81-2.551h-1.669a6.2 6.2 0 0 0 .44-2.247h1.86a4.96 4.96 0 0 1-.63 2.243z"/><path fill="url(#pBfFvc81x__b)" d="M8.952 3.466c.888 0 1.608-.748 1.608-1.67S9.84.125 8.952.125s-1.608.748-1.608 1.67.72 1.67 1.608 1.67Zm7.076 6.296a7.46 7.46 0 0 1-1.026 3.776c.248.107.471.263.656.459a8.3 8.3 0 0 0 1.155-4.233 8.06 8.06 0 0 0-5.871-7.853 2.1 2.1 0 0 1-.2.791 7.26 7.26 0 0 1 5.286 7.06m-1.792 4.024c-.888 0-1.608.748-1.608 1.67s.72 1.67 1.608 1.67 1.608-.748 1.608-1.67-.72-1.67-1.608-1.67m-10.849 0c-.888 0-1.608.748-1.608 1.67s.72 1.67 1.608 1.67 1.608-.748 1.608-1.67-.72-1.67-1.608-1.67m-.454-.349a7.46 7.46 0 0 1-.965-3.676 7.265 7.265 0 0 1 5.201-7.039 2.1 2.1 0 0 1-.206-.788 8.064 8.064 0 0 0-5.776 7.828 8.3 8.3 0 0 0 1.033 4.02c.212-.163.454-.28.713-.345m2.388 2.53a2.1 2.1 0 0 1-.344.74 7.53 7.53 0 0 0 7.802.155 2.1 2.1 0 0 1-.415-.695 6.76 6.76 0 0 1-7.043-.2"/><style>.msportalfx-svg-c01{fill:#fff}.msportalfx-svg-c02{fill:#e5e5e5}.msportalfx-svg-c03{fill:#a0a1a2}.msportalfx-svg-c04{fill:#7a7a7a}.msportalfx-svg-c05{fill:#3e3e3e}.msportalfx-svg-c06{fill:#1e1e1e}.msportalfx-svg-c07{fill:#0f0f0f}.msportalfx-svg-c08{fill:#ba141a}.msportalfx-svg-c09{fill:#dd5900}.msportalfx-svg-c10{fill:#ff8c00}.msportalfx-svg-c11{fill:#fcd116}.msportalfx-svg-c12{fill:#fee087}.msportalfx-svg-c13{fill:#b8d432}.msportalfx-svg-c14,.msportalfx-svg-c32{fill:#57a300}.msportalfx-svg-c15{fill:#59b4d9}.msportalfx-svg-c16{fill:#3999c6}.msportalfx-svg-c17{fill:#804998}.msportalfx-svg-c18{fill:#ec008c}.msportalfx-svg-c19{fill:#0072c6}.msportalfx-svg-c20{fill:#68217a}.msportalfx-svg-c21{fill:#00188f}.msportalfx-svg-c22{fill:#e81123}.fxs-mode-light .msportalfx-svg-c22{fill:#a4262c}.msportalfx-svg-c23{fill:#cae3f3}.msportalfx-svg-c24{fill:#59aed3}.msportalfx-svg-c25{fill:#4c3b12}.msportalfx-svg-c26{fill:#be9555}.msportalfx-svg-c27{fill:#4f4d52}.msportalfx-svg-c28{fill:#ef6f59}.msportalfx-svg-c29{fill:#f7cb64}.msportalfx-svg-c30{fill:#fdd8db}.msportalfx-svg-c31{fill:#f6ffec}.msportalfx-svg-c33{fill:#8a2da5}.msportalfx-svg-c34{fill:#e00b1c}.msportalfx-svg-c35{fill:#015cda}.msportalfx-svg-c36{fill:#5db300}.msportalfx-svg-c97{fill:#ffb900}.msportalfx-svg-c98{fill:#00a4ef}.msportalfx-svg-c99{fill:#f25022}.msportalfx-inverted-theme .msportalfx-svg-c05,.fxs-theme-dark .msportalfx-svg-c05{fill:#777}.msportalfx-inverted-theme .msportalfx-svg-c07,.fxs-theme-dark .msportalfx-svg-c07{fill:#f2f2f2}.msportalfx-svg-palette-white{fill:#fff}.msportalfx-svg-palette-blue{fill:#015cda}.msportalfx-svg-palette-black{fill:#1e1e1e}.msportalfx-svg-palette-green{fill:#57a300}.msportalfx-svg-palette-gray{fill:#a0a1a2}.msportalfx-svg-palette-inherit{fill:inherit}.msportalfx-svg-badge{position:absolute;left:0;bottom:0;min-height:10px;min-width:10px}.fxc-menu-icon>.msportalfx-svg-badge{left:-2px;bottom:-2px;min-height:8px;min-width:8px}.msportalfx-svg-disabled{filter:grayscale(100%)}.msportalfx-svg-loading-square{animation:ProgressFlagAnimation 1.45s infinite ease-in-out;transform-origin:50%}.msportalfx-svg-loading-square:nth-child(1){animation-delay:0s}.msportalfx-svg-loading-square:nth-child(2){animation-delay:.2s}.msportalfx-svg-loading-square:nth-child(3){animation-delay:.4s}@keyframes ProgressFlagAnimation{0%{transform:scale(1);opacity:.3}36.1%{transform:scale(1.06);opacity:1}50%{transform:scale(1.06);opacity:1}86.1%{transform:scale(1);opacity:.3}}.msportalfx-svg-flip-horizontal>svg,svg.msportalfx-svg-flip-horizontal{transform:scaleX(-1)}.msportalfx-svg-fabric-rotate360{animation:ImageRotation 1.3s cubic-bezier(.53,.21,.29,.67) infinite}@keyframes ImageRotation{0%{transform:rotate(-45deg)}100%{transform:rotate(315deg)}}.fxs-svg-number .msportalfx-font-bold{font-size:10px;fill:#0065ad}.fxs-svg-number .fxs-svg-circle{stroke-width:0%;fill:#0078d4}.fxs-svg-number .fxs-svg-text{fill:#fff;font-size:10px}.fxs-svg-number.msportalfx-svg-disabled{filter:grayscale(0%)}.fxs-svg-number.msportalfx-svg-disabled .fxs-svg-circle{fill:#fff;stroke-width:1px;stroke:#949494}.fxs-svg-number.msportalfx-svg-disabled .fxs-svg-text{fill:#949494}.fxs-theme-dark .fxs-svg-number .fxs-svg-text{fill:#0f0f0f}.fxs-theme-dark .fxs-svg-number .fxs-svg-circle{stroke-width:0%;fill:#0078d4}.fxs-theme-dark .fxs-svg-number.msportalfx-svg-disabled .fxs-svg-circle{fill:#0f0f0f;stroke-width:1px;stroke:#949494}.fxs-theme-dark .fxs-svg-number.msportalfx-svg-disabled .fxs-svg-text{fill:#949494}</style></svg>