<svg viewBox="0 0 18 18" class="msportalfx-svg-placeholder" xmlns="http://www.w3.org/2000/svg"><title>Network Monitor (Operator Nexus)</title><desc></desc><defs><linearGradient id="poUL2gioA__a" x1="307.702" x2="307.702" y1="236.047" y2="245.609" gradientTransform="matrix(1 0 0 -1 -297 245.734)" gradientUnits="userSpaceOnUse"><stop offset="0" stop-color="#0078d4" /><stop offset=".82" stop-color="#5ea0ef" /></linearGradient><linearGradient id="poUL2gioA__b" x1="11.759" x2="11.759" y1="9.687" y2="13.376" gradientUnits="userSpaceOnUse"><stop offset=".02" stop-color="#1f56a3" /><stop offset="1" stop-color="#1490df" /></linearGradient><linearGradient id="poUL2gioA__c" x1="-559.431" x2="-559.431" y1="848.859" y2="858.337" gradientTransform="matrix(1 0 0 -1 564 866.734)" gradientUnits="userSpaceOnUse"><stop offset="0" stop-color="#0078d4" /><stop offset="1" stop-color="#5ea0ef" /></linearGradient></defs><rect width="14.343" height="9.562" x="3.531" y=".125" fill="url(#poUL2gioA__a)" rx=".478" ry=".478" /><path fill="#50e6ff" d="M13.093 3.511v2.781l-2.391 1.403V4.906z" /><path fill="#c3f1ff" d="M13.093 3.511 10.71 4.914 8.312 3.511l2.398-1.394z" /><path fill="#9cebff" d="M10.702 4.914v2.781l-2.39-1.403V3.511z" /><path fill="#c3f1ff" d="m8.312 6.292 2.39-1.386v2.789z" /><path fill="#9cebff" d="m13.093 6.292-2.391-1.386v2.789z" /><path fill="url(#poUL2gioA__b)" d="M9.586 12.138c.047.427-.01.848-.158 1.238h4.868a.845.845 0 0 0-.717-.797c-1.418-.223-1.474-1.243-1.466-2.892H9.268c0 .523 0 .983-.046 1.374.192.32.321.684.365 1.077Z" /><path fill="#fff" d="M7.419 1.081H5.228a.526.526 0 0 0-.526.526v2.199c0 .145.118.263.263.263h.175a.263.263 0 0 0 .263-.263V1.774h2.016a.263.263 0 0 0 .255-.263v-.167a.263.263 0 0 0-.255-.263m0 6.901H5.395V5.966a.263.263 0 0 0-.263-.263h-.167a.263.263 0 0 0-.263.263v2.231a.527.527 0 0 0 .518.534h2.199a.27.27 0 0 0 .255-.311v-.175a.263.263 0 0 0-.255-.263m8.789-6.877h-2.159a.263.263 0 0 0-.263.263v.167a.263.263 0 0 0 .238.286l.025.001h2.016v2c0 .145.118.263.263.263h.183a.263.263 0 0 0 .263-.263V1.631a.526.526 0 0 0-.524-.527q-.021 0-.041.002Zm.271 4.614h-.167a.263.263 0 0 0-.263.263v2.024h-2a.263.263 0 0 0-.263.263v.175c0 .145.118.263.263.263h2.191c.292 0 .53-.234.534-.526V5.982a.263.263 0 0 0-.261-.265z" /><path fill="url(#poUL2gioA__c)" d="M8.998 12.203a2.08 2.08 0 0 0-2.295-1.833 2.072 2.072 0 1 0 .456 4.119 2.07 2.07 0 0 0 1.839-2.286M4.05 16.785a4.66 4.66 0 0 1-2.753-3.739 4.62 4.62 0 0 1 1.242-3.689.57.57 0 0 0-.831-.78A5.74 5.74 0 0 0 .162 13.17a5.8 5.8 0 0 0 3.429 4.656.574.574 0 0 0 .754-.291.567.567 0 0 0-.293-.75zm.901-1.96a2.68 2.68 0 0 1-1.32-2.035 2.68 2.68 0 0 1 .371-1.687.572.572 0 0 0-.979-.587 3.8 3.8 0 0 0-.528 2.398 3.86 3.86 0 0 0 1.875 2.891.577.577 0 0 0 .782-.201.57.57 0 0 0-.201-.779" /><style>.msportalfx-svg-c01{fill:#fff}.msportalfx-svg-c02{fill:#e5e5e5}.msportalfx-svg-c03{fill:#a0a1a2}.msportalfx-svg-c04{fill:#7a7a7a}.msportalfx-svg-c05{fill:#3e3e3e}.msportalfx-svg-c06{fill:#1e1e1e}.msportalfx-svg-c07{fill:#0f0f0f}.msportalfx-svg-c08{fill:#ba141a}.msportalfx-svg-c09{fill:#dd5900}.msportalfx-svg-c10{fill:#ff8c00}.msportalfx-svg-c11{fill:#fcd116}.msportalfx-svg-c12{fill:#fee087}.msportalfx-svg-c13{fill:#b8d432}.msportalfx-svg-c14,.msportalfx-svg-c32{fill:#57a300}.msportalfx-svg-c15{fill:#59b4d9}.msportalfx-svg-c16{fill:#3999c6}.msportalfx-svg-c17{fill:#804998}.msportalfx-svg-c18{fill:#ec008c}.msportalfx-svg-c19{fill:#0072c6}.msportalfx-svg-c20{fill:#68217a}.msportalfx-svg-c21{fill:#00188f}.msportalfx-svg-c22{fill:#e81123}.fxs-mode-light .msportalfx-svg-c22{fill:#a4262c}.msportalfx-svg-c23{fill:#cae3f3}.msportalfx-svg-c24{fill:#59aed3}.msportalfx-svg-c25{fill:#4c3b12}.msportalfx-svg-c26{fill:#be9555}.msportalfx-svg-c27{fill:#4f4d52}.msportalfx-svg-c28{fill:#ef6f59}.msportalfx-svg-c29{fill:#f7cb64}.msportalfx-svg-c30{fill:#fdd8db}.msportalfx-svg-c31{fill:#f6ffec}.msportalfx-svg-c33{fill:#8a2da5}.msportalfx-svg-c34{fill:#e00b1c}.msportalfx-svg-c35{fill:#015cda}.msportalfx-svg-c36{fill:#5db300}.msportalfx-svg-c97{fill:#ffb900}.msportalfx-svg-c98{fill:#00a4ef}.msportalfx-svg-c99{fill:#f25022}.msportalfx-inverted-theme .msportalfx-svg-c05,.fxs-theme-dark .msportalfx-svg-c05{fill:#777}.msportalfx-inverted-theme .msportalfx-svg-c07,.fxs-theme-dark .msportalfx-svg-c07{fill:#f2f2f2}.msportalfx-svg-palette-white{fill:#fff}.msportalfx-svg-palette-blue{fill:#015cda}.msportalfx-svg-palette-black{fill:#1e1e1e}.msportalfx-svg-palette-green{fill:#57a300}.msportalfx-svg-palette-gray{fill:#a0a1a2}.msportalfx-svg-palette-inherit{fill:inherit}.msportalfx-svg-badge{position:absolute;left:0;bottom:0;min-height:10px;min-width:10px}.fxc-menu-icon&gt;.msportalfx-svg-badge{left:-2px;bottom:-2px;min-height:8px;min-width:8px}.msportalfx-svg-disabled{filter:grayscale(100%)}.msportalfx-svg-loading-square{animation:ProgressFlagAnimation 1.45s infinite ease-in-out;transform-origin:50%}.msportalfx-svg-loading-square:nth-child(1){animation-delay:0s}.msportalfx-svg-loading-square:nth-child(2){animation-delay:.2s}.msportalfx-svg-loading-square:nth-child(3){animation-delay:.4s}@keyframes ProgressFlagAnimation{0%{transform:scale(1);opacity:.3}36.1%{transform:scale(1.06);opacity:1}50%{transform:scale(1.06);opacity:1}86.1%{transform:scale(1);opacity:.3}}.msportalfx-svg-flip-horizontal&gt;svg,svg.msportalfx-svg-flip-horizontal{transform:scaleX(-1)}.msportalfx-svg-fabric-rotate360{animation:ImageRotation 1.3s cubic-bezier(.53,.21,.29,.67) infinite}@keyframes ImageRotation{0%{transform:rotate(-45deg)}100%{transform:rotate(315deg)}}.fxs-svg-number .msportalfx-font-bold{font-size:10px;fill:#0065ad}.fxs-svg-number .fxs-svg-circle{stroke-width:0%;fill:#0078d4}.fxs-svg-number .fxs-svg-text{fill:#fff;font-size:10px}.fxs-svg-number.msportalfx-svg-disabled{filter:grayscale(0%)}.fxs-svg-number.msportalfx-svg-disabled .fxs-svg-circle{fill:#fff;stroke-width:1px;stroke:#949494}.fxs-svg-number.msportalfx-svg-disabled .fxs-svg-text{fill:#949494}.fxs-theme-dark .fxs-svg-number .fxs-svg-text{fill:#0f0f0f}.fxs-theme-dark .fxs-svg-number .fxs-svg-circle{stroke-width:0%;fill:#0078d4}.fxs-theme-dark .fxs-svg-number.msportalfx-svg-disabled .fxs-svg-circle{fill:#0f0f0f;stroke-width:1px;stroke:#949494}.fxs-theme-dark .fxs-svg-number.msportalfx-svg-disabled .fxs-svg-text{fill:#949494}</style></svg>