<svg viewBox="0 0 18 18" class="msportalfx-svg-placeholder" xmlns="http://www.w3.org/2000/svg"><title>Kubernetes Cluster (Operator Nexus)</title><desc></desc><defs><linearGradient id="p08FBclcj__a" x1="-559.438" x2="-559.438" y1="930.286" y2="939.754" gradientTransform="matrix(1 0 0 -1 564 948.161)" gradientUnits="userSpaceOnUse"><stop offset="0" stop-color="#0078d4" /><stop offset="1" stop-color="#5ea0ef" /></linearGradient></defs><path fill="none" d="m7.719 4.281 2.186-.885a.17.17 0 0 0 .1-.117V1.076a.18.18 0 0 0-.108-.15L7.686.175h-.1l-2.17.401a.17.17 0 0 0-.125.15v2.946a.16.16 0 0 0 .125.159l2.195.459a.3.3 0 0 0 .108-.008Z" /><path fill="#975ae8" d="M10.023 3.371V.943L7.628.125 5.241.567v3.254l2.387.509zm5.157.033V.984L12.793.166l-2.387.442v3.254l2.387.509zM7.578 7.86V5.432l-2.395-.818-2.387.442V8.31l2.387.509zm5.14-2.461-2.387-.818-2.387.442v3.254l2.387.517 2.387-.968zm2.762-.776-2.387.442v3.254l2.387.509 2.395-.96V5.44zM10.34 9.63v3.254l2.387.509 2.395-.96v-2.428l-2.395-.818-2.387.442Zm-5.157-.042v.634a2.8 2.8 0 0 1 1.74-.598 2.81 2.81 0 0 1 2.814 2.859l.227-.092v-2.42l-2.395-.818z" /><path fill="#341a6e" d="m5.241 3.822 2.412.509V.158L5.241.567zM6.535.776l.776-.133v3.121l-.776-.125zm-.952.158.676-.109V3.57l-.676-.134zm4.823 2.929 2.395.509V.2l-2.395.409zM11.692.818l.776-.142v3.129l-.776-.125zm-.952.158.676-.108v2.745l-.676-.134zM5.199 4.623l-2.412.434v3.229l2.412.509zM3.797 8.069l-.676-.142V5.424l.676-.117zm1.06.217-.776-.125V5.265l.776-.134zm5.491-3.663-2.403.401v3.263l2.403.509zM8.954 8.036l-.676-.142V5.391l.676-.117zm1.052.183-.776-.125V5.232l.776-.134zm3.087-3.154v3.221l2.412.509V4.623zm1.019 3.012-.676-.142V5.432l.676-.117zm1.051.184-.776-.125V5.274l.776-.134zm-4.823 4.623 2.412.509V9.221l-2.412.409zm1.293-3.046.776-.134v3.121l-.776-.125zm-.951.159.676-.117v2.762l-.676-.142zm-5.499.225q.163-.126.342-.227v-.04l.101-.017a2.8 2.8 0 0 1 1.968-.23v-.587l-2.412.467v.634Z" /><path fill="url(#p08FBclcj__a)" d="M8.987 12.209c-.126-1.136-1.152-1.956-2.293-1.832s-1.963 1.146-1.838 2.284a2.077 2.077 0 0 0 2.293 1.832 2.07 2.07 0 0 0 1.838-2.284m-4.942 4.577a4.65 4.65 0 0 1-2.75-3.736 4.61 4.61 0 0 1 1.241-3.685c.216-.229.205-.588-.024-.804s-.591-.205-.807.024a5.75 5.75 0 0 0-1.545 4.59 5.79 5.79 0 0 0 3.425 4.651.573.573 0 0 0 .753-.291.566.566 0 0 0-.292-.749zm.899-1.958a2.68 2.68 0 0 1-1.319-2.033 2.67 2.67 0 0 1 .371-1.685.567.567 0 0 0-.195-.78.57.57 0 0 0-.783.194 3.8 3.8 0 0 0-.527 2.396 3.86 3.86 0 0 0 1.873 2.888.577.577 0 0 0 .782-.201.57.57 0 0 0-.201-.778Z" /><style>.msportalfx-svg-c01{fill:#fff}.msportalfx-svg-c02{fill:#e5e5e5}.msportalfx-svg-c03{fill:#a0a1a2}.msportalfx-svg-c04{fill:#7a7a7a}.msportalfx-svg-c05{fill:#3e3e3e}.msportalfx-svg-c06{fill:#1e1e1e}.msportalfx-svg-c07{fill:#0f0f0f}.msportalfx-svg-c08{fill:#ba141a}.msportalfx-svg-c09{fill:#dd5900}.msportalfx-svg-c10{fill:#ff8c00}.msportalfx-svg-c11{fill:#fcd116}.msportalfx-svg-c12{fill:#fee087}.msportalfx-svg-c13{fill:#b8d432}.msportalfx-svg-c14,.msportalfx-svg-c32{fill:#57a300}.msportalfx-svg-c15{fill:#59b4d9}.msportalfx-svg-c16{fill:#3999c6}.msportalfx-svg-c17{fill:#804998}.msportalfx-svg-c18{fill:#ec008c}.msportalfx-svg-c19{fill:#0072c6}.msportalfx-svg-c20{fill:#68217a}.msportalfx-svg-c21{fill:#00188f}.msportalfx-svg-c22{fill:#e81123}.fxs-mode-light .msportalfx-svg-c22{fill:#a4262c}.msportalfx-svg-c23{fill:#cae3f3}.msportalfx-svg-c24{fill:#59aed3}.msportalfx-svg-c25{fill:#4c3b12}.msportalfx-svg-c26{fill:#be9555}.msportalfx-svg-c27{fill:#4f4d52}.msportalfx-svg-c28{fill:#ef6f59}.msportalfx-svg-c29{fill:#f7cb64}.msportalfx-svg-c30{fill:#fdd8db}.msportalfx-svg-c31{fill:#f6ffec}.msportalfx-svg-c33{fill:#8a2da5}.msportalfx-svg-c34{fill:#e00b1c}.msportalfx-svg-c35{fill:#015cda}.msportalfx-svg-c36{fill:#5db300}.msportalfx-svg-c97{fill:#ffb900}.msportalfx-svg-c98{fill:#00a4ef}.msportalfx-svg-c99{fill:#f25022}.msportalfx-inverted-theme .msportalfx-svg-c05,.fxs-theme-dark .msportalfx-svg-c05{fill:#777}.msportalfx-inverted-theme .msportalfx-svg-c07,.fxs-theme-dark .msportalfx-svg-c07{fill:#f2f2f2}.msportalfx-svg-palette-white{fill:#fff}.msportalfx-svg-palette-blue{fill:#015cda}.msportalfx-svg-palette-black{fill:#1e1e1e}.msportalfx-svg-palette-green{fill:#57a300}.msportalfx-svg-palette-gray{fill:#a0a1a2}.msportalfx-svg-palette-inherit{fill:inherit}.msportalfx-svg-badge{position:absolute;left:0;bottom:0;min-height:10px;min-width:10px}.fxc-menu-icon&gt;.msportalfx-svg-badge{left:-2px;bottom:-2px;min-height:8px;min-width:8px}.msportalfx-svg-disabled{filter:grayscale(100%)}.msportalfx-svg-loading-square{animation:ProgressFlagAnimation 1.45s infinite ease-in-out;transform-origin:50%}.msportalfx-svg-loading-square:nth-child(1){animation-delay:0s}.msportalfx-svg-loading-square:nth-child(2){animation-delay:.2s}.msportalfx-svg-loading-square:nth-child(3){animation-delay:.4s}@keyframes ProgressFlagAnimation{0%{transform:scale(1);opacity:.3}36.1%{transform:scale(1.06);opacity:1}50%{transform:scale(1.06);opacity:1}86.1%{transform:scale(1);opacity:.3}}.msportalfx-svg-flip-horizontal&gt;svg,svg.msportalfx-svg-flip-horizontal{transform:scaleX(-1)}.msportalfx-svg-fabric-rotate360{animation:ImageRotation 1.3s cubic-bezier(.53,.21,.29,.67) infinite}@keyframes ImageRotation{0%{transform:rotate(-45deg)}100%{transform:rotate(315deg)}}.fxs-svg-number .msportalfx-font-bold{font-size:10px;fill:#0065ad}.fxs-svg-number .fxs-svg-circle{stroke-width:0%;fill:#0078d4}.fxs-svg-number .fxs-svg-text{fill:#fff;font-size:10px}.fxs-svg-number.msportalfx-svg-disabled{filter:grayscale(0%)}.fxs-svg-number.msportalfx-svg-disabled .fxs-svg-circle{fill:#fff;stroke-width:1px;stroke:#949494}.fxs-svg-number.msportalfx-svg-disabled .fxs-svg-text{fill:#949494}.fxs-theme-dark .fxs-svg-number .fxs-svg-text{fill:#0f0f0f}.fxs-theme-dark .fxs-svg-number .fxs-svg-circle{stroke-width:0%;fill:#0078d4}.fxs-theme-dark .fxs-svg-number.msportalfx-svg-disabled .fxs-svg-circle{fill:#0f0f0f;stroke-width:1px;stroke:#949494}.fxs-theme-dark .fxs-svg-number.msportalfx-svg-disabled .fxs-svg-text{fill:#949494}</style></svg>