<svg viewBox="0 0 63.36 73.44" class="msportalfx-svg-placeholder" role="presentation" focusable="false" xmlns:xlink="http://www.w3.org/1999/xlink" xmlns="http://www.w3.org/2000/svg"><desc>Fully managed NGINX service on Azure provides the capabilities of a load balancer and reverse proxy to deliver your content at scale, secure!</desc><g><title>NGINXaaS</title><title>NGINXaaS</title><path d="M59.975 66.034h.46v-1.023h.362a1.037 1.037 0 0 1 .51.085.64.64 0 0 1 .243.595v.21l.01.078a.158.158 0 0 1 .008.033c.002.013.003.016.01.022h.426l-.016-.029a.299.299 0 0 1-.02-.133c-.007-.073-.007-.136-.007-.194v-.194a.742.742 0 0 0-.142-.406.661.661 0 0 0-.453-.254 1.119 1.119 0 0 0 .378-.123.567.567 0 0 0 .254-.515.64.64 0 0 0-.402-.66 2 2 0 0 0-.712-.094h-.91Zm1.306-1.403a1.188 1.188 0 0 1-.437.058h-.41v-.947h.392a1.155 1.155 0 0 1 .552.102.394.394 0 0 1 .172.38.4.4 0 0 1-.269.407m1.334-1.564a2.308 2.308 0 0 0-1.687-.69 2.373 2.373 0 0 0 0 4.747 2.377 2.377 0 0 0 1.687-4.057m-.241.236a1.944 1.944 0 0 1 .596 1.443 2.04 2.04 0 0 1-3.486 1.451 2.013 2.013 0 0 1-.593-1.45 2.046 2.046 0 0 1 2.037-2.05 1.946 1.946 0 0 1 1.446.606" fill="#999" /><path d="M.503 54.721a3.637 3.637 0 0 0 1.366 1.356l27.953 16.138a3.668 3.668 0 0 0 3.716 0l27.954-16.139a3.666 3.666 0 0 0 1.857-3.216V20.583l-.001-.001a3.667 3.667 0 0 0-1.858-3.217L33.536 1.226a3.663 3.663 0 0 0-3.712 0L1.87 17.365a3.665 3.665 0 0 0-1.859 3.217V52.86a3.644 3.644 0 0 0 .49 1.861" fill="#009639" /><path d="M26.27 47.263a4.986 4.986 0 0 0 3.823 1.71 2.926 2.926 0 0 0 3.187-2.725V26.92a2.735 2.735 0 0 0-2.726-2.727h-.08a2.81 2.81 0 0 0-2.8 2.802l-.002 13.74a.074.074 0 0 1-.13.047L15.11 25.902a4.992 4.992 0 0 0-3.823-1.708 2.925 2.925 0 0 0-3.184 2.726L8.1 46.248a2.734 2.734 0 0 0 2.725 2.727h.081a2.81 2.81 0 0 0 2.8-2.801V32.433a.076.076 0 0 1 .133-.048Zm28.6-12.326h-5.744a.066.066 0 0 1-.066-.067v-5.744a2.42 2.42 0 0 0-4.838 0v5.5a.313.313 0 0 1-.312.311h-5.744a2.42 2.42 0 0 0-.001 4.838h5.99a.066.066 0 0 1 .067.066v5.745a2.42 2.42 0 0 0 4.838 0v-5.5a.311.311 0 0 1 .311-.31h5.5a2.42 2.42 0 1 0 0-4.839" class="msportalfx-svg-c01" /></g><style>.msportalfx-svg-c01{fill:#fff}.msportalfx-svg-c02{fill:#e5e5e5}.msportalfx-svg-c03{fill:#a0a1a2}.msportalfx-svg-c04{fill:#7a7a7a}.msportalfx-svg-c05{fill:#3e3e3e}.msportalfx-svg-c06{fill:#1e1e1e}.msportalfx-svg-c07{fill:#0f0f0f}.msportalfx-svg-c08{fill:#ba141a}.msportalfx-svg-c09{fill:#dd5900}.msportalfx-svg-c10{fill:#ff8c00}.msportalfx-svg-c11{fill:#fcd116}.msportalfx-svg-c12{fill:#fee087}.msportalfx-svg-c13{fill:#b8d432}.msportalfx-svg-c14,.msportalfx-svg-c32{fill:#57a300}.msportalfx-svg-c15{fill:#59b4d9}.msportalfx-svg-c16{fill:#3999c6}.msportalfx-svg-c17{fill:#804998}.msportalfx-svg-c18{fill:#ec008c}.msportalfx-svg-c19{fill:#0072c6}.msportalfx-svg-c20{fill:#68217a}.msportalfx-svg-c21{fill:#00188f}.msportalfx-svg-c22{fill:#e81123}.fxs-mode-light .msportalfx-svg-c22{fill:#a4262c}.msportalfx-svg-c23{fill:#cae3f3}.msportalfx-svg-c24{fill:#59aed3}.msportalfx-svg-c25{fill:#4c3b12}.msportalfx-svg-c26{fill:#be9555}.msportalfx-svg-c27{fill:#4f4d52}.msportalfx-svg-c28{fill:#ef6f59}.msportalfx-svg-c29{fill:#f7cb64}.msportalfx-svg-c30{fill:#fdd8db}.msportalfx-svg-c31{fill:#f6ffec}.msportalfx-svg-c33{fill:#8a2da5}.msportalfx-svg-c34{fill:#e00b1c}.msportalfx-svg-c35{fill:#015cda}.msportalfx-svg-c36{fill:#5db300}.msportalfx-svg-c97{fill:#ffb900}.msportalfx-svg-c98{fill:#00a4ef}.msportalfx-svg-c99{fill:#f25022}.msportalfx-inverted-theme .msportalfx-svg-c05,.fxs-theme-dark .msportalfx-svg-c05{fill:#777}.msportalfx-inverted-theme .msportalfx-svg-c07,.fxs-theme-dark .msportalfx-svg-c07{fill:#f2f2f2}.msportalfx-svg-palette-white{fill:#fff}.msportalfx-svg-palette-blue{fill:#015cda}.msportalfx-svg-palette-black{fill:#1e1e1e}.msportalfx-svg-palette-green{fill:#57a300}.msportalfx-svg-palette-gray{fill:#a0a1a2}.msportalfx-svg-palette-inherit{fill:inherit}.msportalfx-svg-badge{position:absolute;left:0;bottom:0;min-height:10px;min-width:10px}.fxc-menu-icon&gt;.msportalfx-svg-badge{left:-2px;bottom:-2px;min-height:8px;min-width:8px}.msportalfx-svg-disabled{filter:grayscale(100%)}.msportalfx-svg-loading-square{animation:ProgressFlagAnimation 1.45s infinite ease-in-out;transform-origin:50%}.msportalfx-svg-loading-square:nth-child(1){animation-delay:0s}.msportalfx-svg-loading-square:nth-child(2){animation-delay:.2s}.msportalfx-svg-loading-square:nth-child(3){animation-delay:.4s}@keyframes ProgressFlagAnimation{0%{transform:scale(1);opacity:.3}36.1%{transform:scale(1.06);opacity:1}50%{transform:scale(1.06);opacity:1}86.1%{transform:scale(1);opacity:.3}}.msportalfx-svg-flip-horizontal&gt;svg,svg.msportalfx-svg-flip-horizontal{transform:scaleX(-1)}.msportalfx-svg-fabric-rotate360{animation:ImageRotation 1.3s cubic-bezier(.53,.21,.29,.67) infinite}@keyframes ImageRotation{0%{transform:rotate(-45deg)}100%{transform:rotate(315deg)}}.fxs-svg-number .msportalfx-font-bold{font-size:10px;fill:#0065ad}.fxs-svg-number .fxs-svg-circle{stroke-width:0%;fill:#0078d4}.fxs-svg-number .fxs-svg-text{fill:#fff;font-size:10px}.fxs-svg-number.msportalfx-svg-disabled{filter:grayscale(0%)}.fxs-svg-number.msportalfx-svg-disabled .fxs-svg-circle{fill:#fff;stroke-width:1px;stroke:#949494}.fxs-svg-number.msportalfx-svg-disabled .fxs-svg-text{fill:#949494}.fxs-theme-dark .fxs-svg-number .fxs-svg-text{fill:#0f0f0f}.fxs-theme-dark .fxs-svg-number .fxs-svg-circle{stroke-width:0%;fill:#0078d4}.fxs-theme-dark .fxs-svg-number.msportalfx-svg-disabled .fxs-svg-circle{fill:#0f0f0f;stroke-width:1px;stroke:#949494}.fxs-theme-dark .fxs-svg-number.msportalfx-svg-disabled .fxs-svg-text{fill:#949494}</style></svg>