<svg viewBox="0 0 18 18" class="msportalfx-svg-placeholder" xmlns="http://www.w3.org/2000/svg"><title>Workloads Hub</title><desc></desc><defs><linearGradient id="p1g6nhIkk__a" x1="7.104" x2="7.104" y1="2.052" y2="18.826" gradientUnits="userSpaceOnUse"><stop offset="0" stop-color="#0078d4" /><stop offset="1" stop-color="#005ba1" /></linearGradient><linearGradient id="p1g6nhIkk__b" x1="14.209" x2="14.209" y1="4.873" y2="14.895" gradientUnits="userSpaceOnUse"><stop offset=".001" stop-color="#76bc2d" /><stop offset="1" stop-color="#86d633" /></linearGradient><linearGradient id="p1g6nhIkk__c" x1="-549.791" x2="-549.791" y1="1012.685" y2="1021.876" gradientTransform="matrix(1 0 0 -1 564 1025.516)" gradientUnits="userSpaceOnUse"><stop offset="0" stop-color="#5e9624" /><stop offset=".999" stop-color="#76bc2d" /></linearGradient></defs><path fill="url(#p1g6nhIkk__a)" d="M9.962 8.728V5.823a.68.68 0 0 1 .676-.673c1.108-.029 1.454-.266 1.821-.518s.784-.538 1.75-.538V2.151a.656.656 0 0 0-.661-.651H.661A.656.656 0 0 0 0 2.151v13.697c0 .36.296.651.661.651h12.887a.656.656 0 0 0 .661-.651v-1.895a.7.7 0 0 1-.361-.099c-.649-.387-3.886-2.455-3.886-5.127Z" /><path fill="#c3f1ff" d="M5.896 5.313v-.47l-.067-.025-.512-.165-.134-.321.26-.544-.335-.33-.067.033-.476.238-.326-.132-.21-.569h-.477l-.025.066-.167.504-.326.132-.545-.257-.335.33.033.066.244.47-.134.321-.587.207v.47l.067.025.512.165.134.321-.26.545.335.33.067-.033.477-.239.326.132.21.569h.477l.025-.066.167-.504.326-.132.553.256.335-.33-.033-.066-.242-.469.134-.321.578-.207Zm-2.094.682c-.507 0-.919-.405-.919-.905s.411-.905.919-.905.919.405.919.905c0 .499-.41.905-.917.905h-.001Zm.276 7.406-.119-.11a.193.193 0 0 0-.271 0l-1.087 1.071-.447-.44a.193.193 0 0 0-.271 0l-.119.11a.19.19 0 0 0 0 .269l.696.685a.193.193 0 0 0 .27.002l.002-.002 1.337-1.316a.186.186 0 0 0 .012-.266zm0-2.49-.119-.11a.193.193 0 0 0-.271 0l-1.087 1.071-.447-.44a.193.193 0 0 0-.271 0l-.119.11a.19.19 0 0 0 0 .269l.696.685a.193.193 0 0 0 .27.002l.002-.002 1.337-1.316a.186.186 0 0 0 .012-.266zm0-2.549-.119-.11a.193.193 0 0 0-.271 0L2.601 9.323l-.447-.44a.193.193 0 0 0-.271 0l-.119.11a.19.19 0 0 0 0 .269l.696.685a.193.193 0 0 0 .27.002l.002-.002 1.337-1.316a.186.186 0 0 0 .012-.266z" /><rect width="7.068" height=".963" x="5.031" y="13.713" fill="#c3f1ff" rx=".325" ry=".325" /><rect width="5.02" height=".963" x="5.031" y="11.166" fill="#c3f1ff" rx=".325" ry=".325" /><rect width="4.189" height=".963" x="5.031" y="8.618" fill="#c3f1ff" rx=".325" ry=".325" /><path fill="url(#p1g6nhIkk__b)" d="M18 8.728c0 2.41-3.012 4.35-3.666 4.743a.25.25 0 0 1-.25 0c-.655-.391-3.666-2.334-3.666-4.743v-2.9a.235.235 0 0 1 .233-.23c2.342-.061 1.803-1.056 3.558-1.056s1.216.995 3.558 1.056a.235.235 0 0 1 .233.23z" /><path fill="url(#p1g6nhIkk__c)" d="M17.685 8.752c0 2.209-2.761 3.989-3.362 4.35a.22.22 0 0 1-.229 0c-.601-.358-3.362-2.14-3.362-4.35V6.095a.215.215 0 0 1 .213-.211c2.148-.058 1.653-.97 3.263-.97s1.115.912 3.261.968a.215.215 0 0 1 .213.211l.002 2.659Z" /><path fill="#fff" d="m16.113 7.144-2.342 2.318-1.141-1.124-.057-.046a.414.414 0 0 0-.568.111.4.4 0 0 0 .046.505l1.43 1.411.057.046a.41.41 0 0 0 .521-.048l2.636-2.603.047-.056a.4.4 0 0 0-.119-.558.414.414 0 0 0-.506.045h-.007.002Z" /><style>.msportalfx-svg-c01{fill:#fff}.msportalfx-svg-c02{fill:#e5e5e5}.msportalfx-svg-c03{fill:#a0a1a2}.msportalfx-svg-c04{fill:#7a7a7a}.msportalfx-svg-c05{fill:#3e3e3e}.msportalfx-svg-c06{fill:#1e1e1e}.msportalfx-svg-c07{fill:#0f0f0f}.msportalfx-svg-c08{fill:#ba141a}.msportalfx-svg-c09{fill:#dd5900}.msportalfx-svg-c10{fill:#ff8c00}.msportalfx-svg-c11{fill:#fcd116}.msportalfx-svg-c12{fill:#fee087}.msportalfx-svg-c13{fill:#b8d432}.msportalfx-svg-c14,.msportalfx-svg-c32{fill:#57a300}.msportalfx-svg-c15{fill:#59b4d9}.msportalfx-svg-c16{fill:#3999c6}.msportalfx-svg-c17{fill:#804998}.msportalfx-svg-c18{fill:#ec008c}.msportalfx-svg-c19{fill:#0072c6}.msportalfx-svg-c20{fill:#68217a}.msportalfx-svg-c21{fill:#00188f}.msportalfx-svg-c22{fill:#e81123}.fxs-mode-light .msportalfx-svg-c22{fill:#a4262c}.msportalfx-svg-c23{fill:#cae3f3}.msportalfx-svg-c24{fill:#59aed3}.msportalfx-svg-c25{fill:#4c3b12}.msportalfx-svg-c26{fill:#be9555}.msportalfx-svg-c27{fill:#4f4d52}.msportalfx-svg-c28{fill:#ef6f59}.msportalfx-svg-c29{fill:#f7cb64}.msportalfx-svg-c30{fill:#fdd8db}.msportalfx-svg-c31{fill:#f6ffec}.msportalfx-svg-c33{fill:#8a2da5}.msportalfx-svg-c34{fill:#e00b1c}.msportalfx-svg-c35{fill:#015cda}.msportalfx-svg-c36{fill:#5db300}.msportalfx-svg-c97{fill:#ffb900}.msportalfx-svg-c98{fill:#00a4ef}.msportalfx-svg-c99{fill:#f25022}.msportalfx-inverted-theme .msportalfx-svg-c05,.fxs-theme-dark .msportalfx-svg-c05{fill:#777}.msportalfx-inverted-theme .msportalfx-svg-c07,.fxs-theme-dark .msportalfx-svg-c07{fill:#f2f2f2}.msportalfx-svg-palette-white{fill:#fff}.msportalfx-svg-palette-blue{fill:#015cda}.msportalfx-svg-palette-black{fill:#1e1e1e}.msportalfx-svg-palette-green{fill:#57a300}.msportalfx-svg-palette-gray{fill:#a0a1a2}.msportalfx-svg-palette-inherit{fill:inherit}.msportalfx-svg-badge{position:absolute;left:0;bottom:0;min-height:10px;min-width:10px}.fxc-menu-icon&gt;.msportalfx-svg-badge{left:-2px;bottom:-2px;min-height:8px;min-width:8px}.msportalfx-svg-disabled{filter:grayscale(100%)}.msportalfx-svg-loading-square{animation:ProgressFlagAnimation 1.45s infinite ease-in-out;transform-origin:50%}.msportalfx-svg-loading-square:nth-child(1){animation-delay:0s}.msportalfx-svg-loading-square:nth-child(2){animation-delay:.2s}.msportalfx-svg-loading-square:nth-child(3){animation-delay:.4s}@keyframes ProgressFlagAnimation{0%{transform:scale(1);opacity:.3}36.1%{transform:scale(1.06);opacity:1}50%{transform:scale(1.06);opacity:1}86.1%{transform:scale(1);opacity:.3}}.msportalfx-svg-flip-horizontal&gt;svg,svg.msportalfx-svg-flip-horizontal{transform:scaleX(-1)}.msportalfx-svg-fabric-rotate360{animation:ImageRotation 1.3s cubic-bezier(.53,.21,.29,.67) infinite}@keyframes ImageRotation{0%{transform:rotate(-45deg)}100%{transform:rotate(315deg)}}.fxs-svg-number .msportalfx-font-bold{font-size:10px;fill:#0065ad}.fxs-svg-number .fxs-svg-circle{stroke-width:0%;fill:#0078d4}.fxs-svg-number .fxs-svg-text{fill:#fff;font-size:10px}.fxs-svg-number.msportalfx-svg-disabled{filter:grayscale(0%)}.fxs-svg-number.msportalfx-svg-disabled .fxs-svg-circle{fill:#fff;stroke-width:1px;stroke:#949494}.fxs-svg-number.msportalfx-svg-disabled .fxs-svg-text{fill:#949494}.fxs-theme-dark .fxs-svg-number .fxs-svg-text{fill:#0f0f0f}.fxs-theme-dark .fxs-svg-number .fxs-svg-circle{stroke-width:0%;fill:#0078d4}.fxs-theme-dark .fxs-svg-number.msportalfx-svg-disabled .fxs-svg-circle{fill:#0f0f0f;stroke-width:1px;stroke:#949494}.fxs-theme-dark .fxs-svg-number.msportalfx-svg-disabled .fxs-svg-text{fill:#949494}</style></svg>