<svg viewBox="0 0 18 18" class="msportalfx-svg-placeholder" xmlns="http://www.w3.org/2000/svg"><title>BareMetal Instance</title><desc></desc><defs><linearGradient id="p4-OQNh_f__a" x1="9" x2="9" y1="13.08" y2="1.019" gradientUnits="userSpaceOnUse"><stop offset="0" stop-color="#005ba1" /><stop offset=".16" stop-color="#005fa8" stop-opacity=".866" /><stop offset=".491" stop-color="#0069b9" stop-opacity=".52" /><stop offset=".939" stop-color="#0078d4" stop-opacity="0" /></linearGradient><linearGradient id="p4-OQNh_f__b" x1="9.443" x2="9.443" y1="16.981" y2="14.094" gradientUnits="userSpaceOnUse"><stop offset="0" stop-color="#005ba1" /><stop offset=".15" stop-color="#0063af" /><stop offset=".439" stop-color="#006fc3" /><stop offset=".724" stop-color="#0076d0" /><stop offset="1" stop-color="#0078d4" /></linearGradient></defs><path fill="#76bc2d" d="M16.674 16.136H1.884a.474.474 0 1 1 0-.948h14.79a.474.474 0 1 1 0 .948" /><path fill="#76bc2d" d="M8.893 12.704h1.129v2.994H8.893z" /><rect width="4.058" height="17" x="6.971" y="-5.452" fill="#5ea0ef" rx=".567" transform="rotate(90 9 3.048)" /><rect width="4.058" height="17" x="6.971" y="-1.479" fill="#0078d4" rx=".567" transform="rotate(90 9 7.021)" /><rect width="4.058" height="17" x="6.971" y="2.551" fill="#005ba1" rx=".567" transform="rotate(90 9 11.051)" /><path fill="url(#p4-OQNh_f__a)" d="M17.5 4.511V1.586a.567.567 0 0 0-.567-.567H1.067a.567.567 0 0 0-.567.567v2.925a.57.57 0 0 0 .352.524.57.57 0 0 0-.352.524v2.925a.566.566 0 0 0 .444.552.566.566 0 0 0-.444.553v2.924a.567.567 0 0 0 .567.567h15.866a.567.567 0 0 0 .567-.567V9.589a.566.566 0 0 0-.444-.553.566.566 0 0 0 .444-.552V5.559a.57.57 0 0 0-.352-.524.57.57 0 0 0 .352-.524" /><circle cx="3.215" cy="2.939" r=".933" fill="#f2f2f2" /><circle cx="6.088" cy="2.939" r=".933" fill="#f2f2f2" /><circle cx="3.215" cy="6.825" r=".933" fill="#83b9f9" /><circle cx="6.088" cy="6.825" r=".933" fill="#83b9f9" /><circle cx="3.215" cy="10.673" r=".933" fill="#83b9f9" /><circle cx="6.088" cy="10.673" r=".933" fill="#83b9f9" /><rect width="5.122" height="2.887" x="6.882" y="14.094" fill="url(#p4-OQNh_f__b)" rx="1.443" /><style>.msportalfx-svg-c01{fill:#fff}.msportalfx-svg-c02{fill:#e5e5e5}.msportalfx-svg-c03{fill:#a0a1a2}.msportalfx-svg-c04{fill:#7a7a7a}.msportalfx-svg-c05{fill:#3e3e3e}.msportalfx-svg-c06{fill:#1e1e1e}.msportalfx-svg-c07{fill:#0f0f0f}.msportalfx-svg-c08{fill:#ba141a}.msportalfx-svg-c09{fill:#dd5900}.msportalfx-svg-c10{fill:#ff8c00}.msportalfx-svg-c11{fill:#fcd116}.msportalfx-svg-c12{fill:#fee087}.msportalfx-svg-c13{fill:#b8d432}.msportalfx-svg-c14,.msportalfx-svg-c32{fill:#57a300}.msportalfx-svg-c15{fill:#59b4d9}.msportalfx-svg-c16{fill:#3999c6}.msportalfx-svg-c17{fill:#804998}.msportalfx-svg-c18{fill:#ec008c}.msportalfx-svg-c19{fill:#0072c6}.msportalfx-svg-c20{fill:#68217a}.msportalfx-svg-c21{fill:#00188f}.msportalfx-svg-c22{fill:#e81123}.fxs-mode-light .msportalfx-svg-c22{fill:#a4262c}.msportalfx-svg-c23{fill:#cae3f3}.msportalfx-svg-c24{fill:#59aed3}.msportalfx-svg-c25{fill:#4c3b12}.msportalfx-svg-c26{fill:#be9555}.msportalfx-svg-c27{fill:#4f4d52}.msportalfx-svg-c28{fill:#ef6f59}.msportalfx-svg-c29{fill:#f7cb64}.msportalfx-svg-c30{fill:#fdd8db}.msportalfx-svg-c31{fill:#f6ffec}.msportalfx-svg-c33{fill:#8a2da5}.msportalfx-svg-c34{fill:#e00b1c}.msportalfx-svg-c35{fill:#015cda}.msportalfx-svg-c36{fill:#5db300}.msportalfx-svg-c97{fill:#ffb900}.msportalfx-svg-c98{fill:#00a4ef}.msportalfx-svg-c99{fill:#f25022}.msportalfx-inverted-theme .msportalfx-svg-c05,.fxs-theme-dark .msportalfx-svg-c05{fill:#777}.msportalfx-inverted-theme .msportalfx-svg-c07,.fxs-theme-dark .msportalfx-svg-c07{fill:#f2f2f2}.msportalfx-svg-palette-white{fill:#fff}.msportalfx-svg-palette-blue{fill:#015cda}.msportalfx-svg-palette-black{fill:#1e1e1e}.msportalfx-svg-palette-green{fill:#57a300}.msportalfx-svg-palette-gray{fill:#a0a1a2}.msportalfx-svg-palette-inherit{fill:inherit}.msportalfx-svg-badge{position:absolute;left:0;bottom:0;min-height:10px;min-width:10px}.fxc-menu-icon&gt;.msportalfx-svg-badge{left:-2px;bottom:-2px;min-height:8px;min-width:8px}.msportalfx-svg-disabled{filter:grayscale(100%)}.msportalfx-svg-loading-square{animation:ProgressFlagAnimation 1.45s infinite ease-in-out;transform-origin:50%}.msportalfx-svg-loading-square:nth-child(1){animation-delay:0s}.msportalfx-svg-loading-square:nth-child(2){animation-delay:.2s}.msportalfx-svg-loading-square:nth-child(3){animation-delay:.4s}@keyframes ProgressFlagAnimation{0%{transform:scale(1);opacity:.3}36.1%{transform:scale(1.06);opacity:1}50%{transform:scale(1.06);opacity:1}86.1%{transform:scale(1);opacity:.3}}.msportalfx-svg-flip-horizontal&gt;svg,svg.msportalfx-svg-flip-horizontal{transform:scaleX(-1)}.msportalfx-svg-fabric-rotate360{animation:ImageRotation 1.3s cubic-bezier(.53,.21,.29,.67) infinite}@keyframes ImageRotation{0%{transform:rotate(-45deg)}100%{transform:rotate(315deg)}}.fxs-svg-number .msportalfx-font-bold{font-size:10px;fill:#0065ad}.fxs-svg-number .fxs-svg-circle{stroke-width:0%;fill:#0078d4}.fxs-svg-number .fxs-svg-text{fill:#fff;font-size:10px}.fxs-svg-number.msportalfx-svg-disabled{filter:grayscale(0%)}.fxs-svg-number.msportalfx-svg-disabled .fxs-svg-circle{fill:#fff;stroke-width:1px;stroke:#949494}.fxs-svg-number.msportalfx-svg-disabled .fxs-svg-text{fill:#949494}.fxs-theme-dark .fxs-svg-number .fxs-svg-text{fill:#0f0f0f}.fxs-theme-dark .fxs-svg-number .fxs-svg-circle{stroke-width:0%;fill:#0078d4}.fxs-theme-dark .fxs-svg-number.msportalfx-svg-disabled .fxs-svg-circle{fill:#0f0f0f;stroke-width:1px;stroke:#949494}.fxs-theme-dark .fxs-svg-number.msportalfx-svg-disabled .fxs-svg-text{fill:#949494}</style></svg>