<svg xml:space="preserve" viewBox="0 0 50 50" class="msportalfx-svg-placeholder" xmlns="http://www.w3.org/2000/svg"><desc></desc><title>SAP HANA on Azure</title><path fill="#0072C6" d="M.917 37h24.259l23.741-24h-48z" /><path fill="#FFF" d="M28.62 17.992h-4.514v10.73l-3.944-10.733h-3.909l-3.367 8.98c-.359-2.263-2.7-3.045-4.542-3.63-1.216-.391-2.507-.965-2.494-1.599.01-.522.692-1.006 2.043-.932a7.4 7.4 0 0 1 3.304.89l1.568-2.731a12.2 12.2 0 0 0-5.113-1.215h-.01a6.2 6.2 0 0 0-4.517 1.649 3.8 3.8 0 0 0-1.08 2.633 3.54 3.54 0 0 0 1.55 3.153c.941.63 1.978 1.104 3.069 1.404 1.252.389 2.276.726 2.263 1.446a1.05 1.05 0 0 1-.295.703 2 2 0 0 1-1.455.456 6.23 6.23 0 0 1-3.736-1.07l-1.394 2.77a10.4 10.4 0 0 0 5.11 1.36h.234a6.16 6.16 0 0 0 3.884-1.302q.086-.072.165-.142l-.453 1.209h4.1l.689-2.093a7.5 7.5 0 0 0 2.41.382 7.6 7.6 0 0 0 2.352-.362l.663 2.073h6.687v-4.336h1.459c3.525 0 5.61-1.796 5.61-4.804.001-3.353-2.025-4.889-6.337-4.889m-10.432 9.184a4.1 4.1 0 0 1-1.446-.253l1.433-4.514h.028l1.405 4.527a4.3 4.3 0 0 1-1.42.24m10.699-2.594h-.997v-3.637h.994c1.326 0 2.388.44 2.388 1.795 0 1.401-1.058 1.842-2.388 1.842" /><path fill="#0072C6" d="M32.079 33.875c.794 0 1.44.646 1.44 1.44s-.646 1.44-1.44 1.44-1.44-.646-1.44-1.44.646-1.44 1.44-1.44m0-.25a1.69 1.69 0 1 0 0 3.38 1.69 1.69 0 0 0 0-3.38" /><path fill="#0072C6" d="M32.39 35.419a.46.46 0 0 0 .463-.457l-.001-.031c0-.347-.208-.5-.625-.5h-.674V36.2h.267l.003-.768h.309l.465.766h.3zm-.568-.215v-.549h.362c.185 0 .383.04.383.26 0 .275-.2.289-.427.289z" /><style>.msportalfx-svg-c01{fill:#fff}.msportalfx-svg-c02{fill:#e5e5e5}.msportalfx-svg-c03{fill:#a0a1a2}.msportalfx-svg-c04{fill:#7a7a7a}.msportalfx-svg-c05{fill:#3e3e3e}.msportalfx-svg-c06{fill:#1e1e1e}.msportalfx-svg-c07{fill:#0f0f0f}.msportalfx-svg-c08{fill:#ba141a}.msportalfx-svg-c09{fill:#dd5900}.msportalfx-svg-c10{fill:#ff8c00}.msportalfx-svg-c11{fill:#fcd116}.msportalfx-svg-c12{fill:#fee087}.msportalfx-svg-c13{fill:#b8d432}.msportalfx-svg-c14,.msportalfx-svg-c32{fill:#57a300}.msportalfx-svg-c15{fill:#59b4d9}.msportalfx-svg-c16{fill:#3999c6}.msportalfx-svg-c17{fill:#804998}.msportalfx-svg-c18{fill:#ec008c}.msportalfx-svg-c19{fill:#0072c6}.msportalfx-svg-c20{fill:#68217a}.msportalfx-svg-c21{fill:#00188f}.msportalfx-svg-c22{fill:#e81123}.fxs-mode-light .msportalfx-svg-c22{fill:#a4262c}.msportalfx-svg-c23{fill:#cae3f3}.msportalfx-svg-c24{fill:#59aed3}.msportalfx-svg-c25{fill:#4c3b12}.msportalfx-svg-c26{fill:#be9555}.msportalfx-svg-c27{fill:#4f4d52}.msportalfx-svg-c28{fill:#ef6f59}.msportalfx-svg-c29{fill:#f7cb64}.msportalfx-svg-c30{fill:#fdd8db}.msportalfx-svg-c31{fill:#f6ffec}.msportalfx-svg-c33{fill:#8a2da5}.msportalfx-svg-c34{fill:#e00b1c}.msportalfx-svg-c35{fill:#015cda}.msportalfx-svg-c36{fill:#5db300}.msportalfx-svg-c97{fill:#ffb900}.msportalfx-svg-c98{fill:#00a4ef}.msportalfx-svg-c99{fill:#f25022}.msportalfx-inverted-theme .msportalfx-svg-c05,.fxs-theme-dark .msportalfx-svg-c05{fill:#777}.msportalfx-inverted-theme .msportalfx-svg-c07,.fxs-theme-dark .msportalfx-svg-c07{fill:#f2f2f2}.msportalfx-svg-palette-white{fill:#fff}.msportalfx-svg-palette-blue{fill:#015cda}.msportalfx-svg-palette-black{fill:#1e1e1e}.msportalfx-svg-palette-green{fill:#57a300}.msportalfx-svg-palette-gray{fill:#a0a1a2}.msportalfx-svg-palette-inherit{fill:inherit}.msportalfx-svg-badge{position:absolute;left:0;bottom:0;min-height:10px;min-width:10px}.fxc-menu-icon&gt;.msportalfx-svg-badge{left:-2px;bottom:-2px;min-height:8px;min-width:8px}.msportalfx-svg-disabled{filter:grayscale(100%)}.msportalfx-svg-loading-square{animation:ProgressFlagAnimation 1.45s infinite ease-in-out;transform-origin:50%}.msportalfx-svg-loading-square:nth-child(1){animation-delay:0s}.msportalfx-svg-loading-square:nth-child(2){animation-delay:.2s}.msportalfx-svg-loading-square:nth-child(3){animation-delay:.4s}@keyframes ProgressFlagAnimation{0%{transform:scale(1);opacity:.3}36.1%{transform:scale(1.06);opacity:1}50%{transform:scale(1.06);opacity:1}86.1%{transform:scale(1);opacity:.3}}.msportalfx-svg-flip-horizontal&gt;svg,svg.msportalfx-svg-flip-horizontal{transform:scaleX(-1)}.msportalfx-svg-fabric-rotate360{animation:ImageRotation 1.3s cubic-bezier(.53,.21,.29,.67) infinite}@keyframes ImageRotation{0%{transform:rotate(-45deg)}100%{transform:rotate(315deg)}}.fxs-svg-number .msportalfx-font-bold{font-size:10px;fill:#0065ad}.fxs-svg-number .fxs-svg-circle{stroke-width:0%;fill:#0078d4}.fxs-svg-number .fxs-svg-text{fill:#fff;font-size:10px}.fxs-svg-number.msportalfx-svg-disabled{filter:grayscale(0%)}.fxs-svg-number.msportalfx-svg-disabled .fxs-svg-circle{fill:#fff;stroke-width:1px;stroke:#949494}.fxs-svg-number.msportalfx-svg-disabled .fxs-svg-text{fill:#949494}.fxs-theme-dark .fxs-svg-number .fxs-svg-text{fill:#0f0f0f}.fxs-theme-dark .fxs-svg-number .fxs-svg-circle{stroke-width:0%;fill:#0078d4}.fxs-theme-dark .fxs-svg-number.msportalfx-svg-disabled .fxs-svg-circle{fill:#0f0f0f;stroke-width:1px;stroke:#949494}.fxs-theme-dark .fxs-svg-number.msportalfx-svg-disabled .fxs-svg-text{fill:#949494}</style></svg>