<svg xml:space="preserve" viewBox="0 0 50 50" class="msportalfx-svg-placeholder" xmlns="http://www.w3.org/2000/svg"><title>Managed applications center</title><desc></desc><path fill="#3999C6" d="M26.194 35.171q.067 0 .125-.031l8.081-4.476a.23.23 0 0 0 .125-.204v-8.982a.24.24 0 0 0-.125-.206.26.26 0 0 0-.247 0l-8.08 4.476a.24.24 0 0 0-.12.205v8.983c0 .086.046.161.12.204q.06.031.121.031m0 11.829q.067 0 .125-.031l8.081-4.476a.23.23 0 0 0 .125-.204v-8.982a.24.24 0 0 0-.125-.206.26.26 0 0 0-.247 0l-8.08 4.476a.24.24 0 0 0-.12.205v8.983c0 .086.046.161.12.204q.06.031.121.031M36.67 29.256q.067 0 .125-.031l8.081-4.476a.23.23 0 0 0 .124-.204v-8.982a.24.24 0 0 0-.125-.206.26.26 0 0 0-.247 0l-8.08 4.476a.24.24 0 0 0-.12.205v8.983c0 .086.046.161.12.204a.25.25 0 0 0 .122.031m0 11.829q.067 0 .125-.031l8.081-4.476a.23.23 0 0 0 .124-.204v-8.982a.24.24 0 0 0-.125-.206.26.26 0 0 0-.247 0l-8.08 4.476a.24.24 0 0 0-.12.205v8.983c0 .086.046.161.12.204a.25.25 0 0 0 .122.031" /><path fill="#62117A" d="M26.194 47q.067 0 .125-.031l8.081-4.476a.23.23 0 0 0 .125-.204v-8.982a.24.24 0 0 0-.125-.206.26.26 0 0 0-.247 0l-8.08 4.476a.24.24 0 0 0-.12.205v8.983c0 .086.046.161.12.204q.06.031.121.031m10.476-5.915q.067 0 .125-.031l8.081-4.476a.23.23 0 0 0 .124-.204v-8.982a.24.24 0 0 0-.125-.206.26.26 0 0 0-.247 0l-8.08 4.476a.24.24 0 0 0-.12.205v8.983c0 .086.046.161.12.204a.25.25 0 0 0 .122.031m-10.476-5.914q.067 0 .125-.031l8.081-4.476a.23.23 0 0 0 .125-.204v-8.982a.24.24 0 0 0-.125-.206.26.26 0 0 0-.247 0l-8.08 4.476a.24.24 0 0 0-.12.205v8.983c0 .086.046.161.12.204q.06.031.121.031m10.476-5.915q.067 0 .125-.031l8.081-4.476a.23.23 0 0 0 .124-.204v-8.982a.24.24 0 0 0-.125-.206.26.26 0 0 0-.247 0l-8.08 4.476a.24.24 0 0 0-.12.205v8.983c0 .086.046.161.12.204a.25.25 0 0 0 .122.031" opacity=".15" /><path fill="#59B4D9" d="M23.806 35.171a.26.26 0 0 1-.125-.031L15.6 30.664a.23.23 0 0 1-.125-.204v-8.982c0-.084.046-.161.125-.206a.26.26 0 0 1 .247 0l8.08 4.476c.075.043.12.121.12.205v8.983a.23.23 0 0 1-.12.204.26.26 0 0 1-.121.031m0 11.829a.26.26 0 0 1-.125-.031L15.6 42.493a.23.23 0 0 1-.125-.204v-8.982c0-.084.046-.161.125-.206a.26.26 0 0 1 .247 0l8.08 4.476c.075.043.12.121.12.205v8.983a.23.23 0 0 1-.12.204.26.26 0 0 1-.121.031M13.33 29.256a.26.26 0 0 1-.125-.031l-8.081-4.476A.23.23 0 0 1 5 24.545v-8.982c0-.084.046-.161.125-.206a.26.26 0 0 1 .247 0l8.08 4.476c.075.043.12.121.12.205v8.983a.23.23 0 0 1-.12.204.25.25 0 0 1-.122.031m0 11.829a.26.26 0 0 1-.125-.031l-8.081-4.476A.23.23 0 0 1 5 36.374v-8.982c0-.084.046-.161.125-.206a.26.26 0 0 1 .247 0l8.08 4.476c.075.043.12.121.12.205v8.983a.23.23 0 0 1-.12.204.25.25 0 0 1-.122.031m3.51-22.3a.24.24 0 0 1 .09-.085l8.031-4.364a.25.25 0 0 1 .243-.002l7.95 4.327a.23.23 0 0 1 .119.2.24.24 0 0 1-.124.199l-8.03 4.363a.26.26 0 0 1-.242-.002l-7.951-4.328a.22.22 0 0 1-.12-.195.23.23 0 0 1 .034-.113M6.37 13.086a.23.23 0 0 1 .089-.085l7.942-4.364a.25.25 0 0 1 .241-.002l7.862 4.327a.23.23 0 0 1 .118.2.24.24 0 0 1-.123.199l-7.942 4.363a.25.25 0 0 1-.239-.002l-7.863-4.328a.23.23 0 0 1-.119-.195.2.2 0 0 1 .034-.113m21.161.096a.23.23 0 0 1 .089-.085l7.942-4.364a.25.25 0 0 1 .241-.002l7.862 4.327a.23.23 0 0 1 .118.2.24.24 0 0 1-.123.199l-7.942 4.363a.25.25 0 0 1-.239-.002l-7.863-4.328a.23.23 0 0 1-.119-.195.23.23 0 0 1 .034-.113M16.88 7.558a.24.24 0 0 1 .09-.084l8.031-4.293a.25.25 0 0 1 .243-.002l7.95 4.257a.22.22 0 0 1 .119.196.24.24 0 0 1-.124.196l-8.03 4.292a.26.26 0 0 1-.242-.002l-7.951-4.257a.22.22 0 0 1-.12-.192.23.23 0 0 1 .034-.111" /><path fill="#FFF" d="M16.84 18.785a.24.24 0 0 1 .09-.085l8.031-4.364a.25.25 0 0 1 .243-.002l7.95 4.327a.23.23 0 0 1 .119.2.24.24 0 0 1-.124.199l-8.03 4.363a.26.26 0 0 1-.242-.002l-7.951-4.328a.22.22 0 0 1-.12-.195.23.23 0 0 1 .034-.113M6.37 13.086a.23.23 0 0 1 .089-.085l7.942-4.364a.25.25 0 0 1 .241-.002l7.862 4.327a.23.23 0 0 1 .118.2.24.24 0 0 1-.123.199l-7.942 4.363a.25.25 0 0 1-.239-.002l-7.863-4.328a.23.23 0 0 1-.119-.195.2.2 0 0 1 .034-.113m21.161.096a.23.23 0 0 1 .089-.085l7.942-4.364a.25.25 0 0 1 .241-.002l7.862 4.327a.23.23 0 0 1 .118.2.24.24 0 0 1-.123.199l-7.942 4.363a.25.25 0 0 1-.239-.002l-7.863-4.328a.23.23 0 0 1-.119-.195.23.23 0 0 1 .034-.113M16.88 7.558a.24.24 0 0 1 .09-.084l8.031-4.293a.25.25 0 0 1 .243-.002l7.95 4.257a.22.22 0 0 1 .119.196.24.24 0 0 1-.124.196l-8.03 4.292a.26.26 0 0 1-.242-.002l-7.951-4.257a.22.22 0 0 1-.12-.192.23.23 0 0 1 .034-.111" opacity=".2" /><path fill="#FFF" d="M45 15.563c0-.093-.069-.158-.099-.182l-.129-.103c-1.718 4.544-6.32 11.112-14.445 17.253-6.541 4.944-12.578 7.544-17.108 8.578l7.297 4.086c4.243-1.76 8.688-4.33 12.955-7.555 4.699-3.551 8.61-7.442 11.529-11.284z" opacity=".4" /><path fill="#804998" d="M48.617 8.142c-2.588-3.569-8.635-3.899-15.859-1.501l3.625 1.944c4.843-1.175 8.383-.711 9.581.94 2.376 3.277-2.299 14.18-15.034 23.805S6.616 44.338 4.24 41.06c-.862-1.189-.782-3.389.26-6.16v-6.825C.228 34.37-1.184 40.303 1.383 43.842c4.345 5.992 18.442 2.858 31.485-7s20.094-22.708 15.749-28.7" /><style>.msportalfx-svg-c01{fill:#fff}.msportalfx-svg-c02{fill:#e5e5e5}.msportalfx-svg-c03{fill:#a0a1a2}.msportalfx-svg-c04{fill:#7a7a7a}.msportalfx-svg-c05{fill:#3e3e3e}.msportalfx-svg-c06{fill:#1e1e1e}.msportalfx-svg-c07{fill:#0f0f0f}.msportalfx-svg-c08{fill:#ba141a}.msportalfx-svg-c09{fill:#dd5900}.msportalfx-svg-c10{fill:#ff8c00}.msportalfx-svg-c11{fill:#fcd116}.msportalfx-svg-c12{fill:#fee087}.msportalfx-svg-c13{fill:#b8d432}.msportalfx-svg-c14,.msportalfx-svg-c32{fill:#57a300}.msportalfx-svg-c15{fill:#59b4d9}.msportalfx-svg-c16{fill:#3999c6}.msportalfx-svg-c17{fill:#804998}.msportalfx-svg-c18{fill:#ec008c}.msportalfx-svg-c19{fill:#0072c6}.msportalfx-svg-c20{fill:#68217a}.msportalfx-svg-c21{fill:#00188f}.msportalfx-svg-c22{fill:#e81123}.fxs-mode-light .msportalfx-svg-c22{fill:#a4262c}.msportalfx-svg-c23{fill:#cae3f3}.msportalfx-svg-c24{fill:#59aed3}.msportalfx-svg-c25{fill:#4c3b12}.msportalfx-svg-c26{fill:#be9555}.msportalfx-svg-c27{fill:#4f4d52}.msportalfx-svg-c28{fill:#ef6f59}.msportalfx-svg-c29{fill:#f7cb64}.msportalfx-svg-c30{fill:#fdd8db}.msportalfx-svg-c31{fill:#f6ffec}.msportalfx-svg-c33{fill:#8a2da5}.msportalfx-svg-c34{fill:#e00b1c}.msportalfx-svg-c35{fill:#015cda}.msportalfx-svg-c36{fill:#5db300}.msportalfx-svg-c97{fill:#ffb900}.msportalfx-svg-c98{fill:#00a4ef}.msportalfx-svg-c99{fill:#f25022}.msportalfx-inverted-theme .msportalfx-svg-c05,.fxs-theme-dark .msportalfx-svg-c05{fill:#777}.msportalfx-inverted-theme .msportalfx-svg-c07,.fxs-theme-dark .msportalfx-svg-c07{fill:#f2f2f2}.msportalfx-svg-palette-white{fill:#fff}.msportalfx-svg-palette-blue{fill:#015cda}.msportalfx-svg-palette-black{fill:#1e1e1e}.msportalfx-svg-palette-green{fill:#57a300}.msportalfx-svg-palette-gray{fill:#a0a1a2}.msportalfx-svg-palette-inherit{fill:inherit}.msportalfx-svg-badge{position:absolute;left:0;bottom:0;min-height:10px;min-width:10px}.fxc-menu-icon&gt;.msportalfx-svg-badge{left:-2px;bottom:-2px;min-height:8px;min-width:8px}.msportalfx-svg-disabled{filter:grayscale(100%)}.msportalfx-svg-loading-square{animation:ProgressFlagAnimation 1.45s infinite ease-in-out;transform-origin:50%}.msportalfx-svg-loading-square:nth-child(1){animation-delay:0s}.msportalfx-svg-loading-square:nth-child(2){animation-delay:.2s}.msportalfx-svg-loading-square:nth-child(3){animation-delay:.4s}@keyframes ProgressFlagAnimation{0%{transform:scale(1);opacity:.3}36.1%{transform:scale(1.06);opacity:1}50%{transform:scale(1.06);opacity:1}86.1%{transform:scale(1);opacity:.3}}.msportalfx-svg-flip-horizontal&gt;svg,svg.msportalfx-svg-flip-horizontal{transform:scaleX(-1)}.msportalfx-svg-fabric-rotate360{animation:ImageRotation 1.3s cubic-bezier(.53,.21,.29,.67) infinite}@keyframes ImageRotation{0%{transform:rotate(-45deg)}100%{transform:rotate(315deg)}}.fxs-svg-number .msportalfx-font-bold{font-size:10px;fill:#0065ad}.fxs-svg-number .fxs-svg-circle{stroke-width:0%;fill:#0078d4}.fxs-svg-number .fxs-svg-text{fill:#fff;font-size:10px}.fxs-svg-number.msportalfx-svg-disabled{filter:grayscale(0%)}.fxs-svg-number.msportalfx-svg-disabled .fxs-svg-circle{fill:#fff;stroke-width:1px;stroke:#949494}.fxs-svg-number.msportalfx-svg-disabled .fxs-svg-text{fill:#949494}.fxs-theme-dark .fxs-svg-number .fxs-svg-text{fill:#0f0f0f}.fxs-theme-dark .fxs-svg-number .fxs-svg-circle{stroke-width:0%;fill:#0078d4}.fxs-theme-dark .fxs-svg-number.msportalfx-svg-disabled .fxs-svg-circle{fill:#0f0f0f;stroke-width:1px;stroke:#949494}.fxs-theme-dark .fxs-svg-number.msportalfx-svg-disabled .fxs-svg-text{fill:#949494}</style></svg>