<svg xml:space="preserve" viewBox="0 0 50 50" class="msportalfx-svg-placeholder" xmlns="http://www.w3.org/2000/svg"><title>Service catalog managed application definition</title><desc>Create new application definitions that comply with your organization&amp;#39;s standards and share them within your organization.</desc><path fill="#646565" d="M2 9h5.5v1H3s-1 0-1-1" /><path fill="#646565" d="M6 6H5a3 3 0 0 0-3 3h1a2 2 0 0 1 2-2h1z" opacity=".5" /><path fill="#646565" d="M2 15h5.5v1H3s-1 0-1-1" /><path fill="#646565" d="M6 12H5a3 3 0 0 0-3 3h1a2 2 0 0 1 2-2h1z" opacity=".5" /><path fill="#646565" d="M2 21h5.5v1H3s-1 0-1-1" /><path fill="#646565" d="M6 18H5a3 3 0 0 0-3 3h1a2 2 0 0 1 2-2h1z" opacity=".5" /><path fill="#646565" d="M2 27h5.5v1H3s-1 0-1-1" /><path fill="#646565" d="M6 24H5a3 3 0 0 0-3 3h1a2 2 0 0 1 2-2h1z" opacity=".5" /><path fill="#646565" d="M2 33h5.5v1H3s-1 0-1-1" /><path fill="#646565" d="M6 30H5a3 3 0 0 0-3 3h1a2 2 0 0 1 2-2h1z" opacity=".5" /><path fill="#646565" d="M2 39h5.5v1H3s-1 0-1-1" /><path fill="#646565" d="M6 36H5a3 3 0 0 0-3 3h1a2 2 0 0 1 2-2h1z" opacity=".5" /><path fill="#646565" d="M2 45h5.5v1H3s-1 0-1-1" /><path fill="#646565" d="M6 42H5a3 3 0 0 0-3 3h1a2 2 0 0 1 2-2h1z" opacity=".5" /><path fill="#0072C6" d="M14 2c-3 0-7 3-7 3h2v42h35v2l3-3V2z" /><path fill="#FFF" d="M12 3 8.5 5H10v43h34l2-2V3z" opacity=".75" /><path fill="#FFF" d="M12.5 3 9 5h35l2-2z" opacity=".8" /><path fill="#0072C6" d="M6 50v-3h2l1-1v-1l-1-1H6v-3h2l1-1v-1l-1-1H6v-3h2l1-1v-1l-1-1H6v-3h2l1-1v-1l-1-1H6v-3h2l1-1v-1l-1-1H6v-3h2l1-1v-1l-1-1H6v-3h2l1-1V9L8 8H6V5h38v45z" /><path fill="#FFF" d="M28.657 31.053a.14.14 0 0 0 .068-.017l4.445-2.462a.13.13 0 0 0 .068-.112v-4.94a.13.13 0 0 0-.068-.113.15.15 0 0 0-.136 0L28.59 25.87a.13.13 0 0 0-.066.113v4.941c0 .047.025.089.066.112a.14.14 0 0 0 .067.017m0 6.506a.14.14 0 0 0 .068-.017l4.445-2.462a.13.13 0 0 0 .068-.112v-4.94a.13.13 0 0 0-.068-.113.15.15 0 0 0-.136 0l-4.444 2.462a.13.13 0 0 0-.066.113v4.941a.127.127 0 0 0 .133.128m5.761-9.759a.15.15 0 0 0 .069-.017l4.445-2.462a.13.13 0 0 0 .068-.112v-4.94a.13.13 0 0 0-.069-.113.15.15 0 0 0-.136 0l-4.444 2.462a.13.13 0 0 0-.066.113v4.941c0 .047.025.089.066.112a.2.2 0 0 0 .067.016m0 6.506a.15.15 0 0 0 .069-.017l4.445-2.462a.13.13 0 0 0 .068-.112v-4.94a.13.13 0 0 0-.069-.113.15.15 0 0 0-.136 0l-4.444 2.462a.13.13 0 0 0-.066.113v4.941c0 .047.025.089.066.112a.2.2 0 0 0 .067.016m-7.075-3.253a.14.14 0 0 1-.068-.017l-4.445-2.462a.13.13 0 0 1-.068-.112v-4.94a.13.13 0 0 1 .068-.113.15.15 0 0 1 .136 0l4.444 2.462a.13.13 0 0 1 .066.113v4.941a.127.127 0 0 1-.133.128m0 6.506a.14.14 0 0 1-.068-.017L22.83 35.08a.13.13 0 0 1-.068-.112v-4.94a.13.13 0 0 1 .068-.113.15.15 0 0 1 .136 0l4.444 2.462a.13.13 0 0 1 .066.113v4.941a.127.127 0 0 1-.133.128M21.582 27.8a.14.14 0 0 1-.068-.017l-4.445-2.462a.13.13 0 0 1-.069-.112v-4.94a.13.13 0 0 1 .068-.113.15.15 0 0 1 .136 0l4.444 2.462a.13.13 0 0 1 .066.113v4.941a.127.127 0 0 1-.132.128m0 6.506a.14.14 0 0 1-.068-.017l-4.445-2.462a.13.13 0 0 1-.069-.112v-4.94a.13.13 0 0 1 .068-.113.15.15 0 0 1 .136 0l4.444 2.462a.13.13 0 0 1 .066.113v4.941a.127.127 0 0 1-.132.128m1.93-12.265a.13.13 0 0 1 .05-.047l4.417-2.4a.14.14 0 0 1 .134-.001l4.372 2.38a.12.12 0 0 1 .066.11.13.13 0 0 1-.068.11l-4.417 2.4a.14.14 0 0 1-.133-.001l-4.373-2.38a.12.12 0 0 1-.048-.171m-5.759-3.135a.13.13 0 0 1 .049-.047l4.368-2.4a.13.13 0 0 1 .132-.001l4.324 2.38c.04.022.065.063.065.11a.13.13 0 0 1-.068.11l-4.368 2.4a.14.14 0 0 1-.131-.001l-4.325-2.38a.12.12 0 0 1-.065-.107.14.14 0 0 1 .019-.064m11.639.053a.13.13 0 0 1 .049-.047l4.368-2.4a.13.13 0 0 1 .132-.001l4.324 2.38c.04.022.065.063.065.11a.13.13 0 0 1-.068.11l-4.368 2.4a.14.14 0 0 1-.131-.001l-4.325-2.38a.12.12 0 0 1-.065-.107.14.14 0 0 1 .019-.064m-5.858-3.093a.13.13 0 0 1 .05-.046l4.417-2.361a.14.14 0 0 1 .134-.001l4.372 2.341a.12.12 0 0 1 .066.108.13.13 0 0 1-.068.108l-4.417 2.361a.14.14 0 0 1-.133-.001l-4.373-2.342a.12.12 0 0 1-.066-.106q0-.034.018-.061" /><path fill="#0072C6" d="M23.136 43.167c-1.797 0-3.402-1.483-4.574-2.567-.335-.31-.651-.602-.86-.749-.772-.548-2.28-1.137-3.764-1.137l-1.375-.002a1.503 1.503 0 0 1-1.495-1.5v-4.653c0-.827.673-1.5 1.5-1.5h2.24l.111 1.002v-1c.644 0 1.647-.187 2.534-.352.71-.132 1.38-.256 1.938-.308q.365-.032.741-.033c.707 0 3.096.115 4.132 1.597.122.17.685.846.941 1.053.216.174.753.359 1.613.359l.157-.002c.067-.002.225-.017.434-.035.597-.052 1.499-.131 2.183-.131.161 0 .31.005.438.015 1.308.097 2.016.987 2.139 1.827.047.32 0 .759-.175 1.164l.487-.238c1.542-.758 3.654-1.795 4.876-2.207a4.3 4.3 0 0 1 1.37-.236c.991 0 1.811.41 2.191 1.097.206.37.458 1.141-.163 2.137-.322.518-.834 1.019-1.404 1.373a455 455 0 0 1-3.273 2.006c-.465.283-.94.591-1.408.894-1.609 1.042-2.636 1.686-3.41 1.792a8 8 0 0 1-1.053.052c-.342 0-.723-.009-1.106-.018A47 47 0 0 0 28 42.849c-.265 0-.509.005-.713.021-.305.023-.648.058-1.019.096-.901.088-2.021.201-3.132.201" /><path fill="#FFF" d="M37.577 34.816c-1.698.574-5.42 2.522-6.273 2.885-1.004.428-2.997.686-5.222.645-1.23-.023-2.109-.156-2.603-.616 0 0-1.761-1.43-2.118-1.781-.603-.595.177-1.498.785-1.022.447.35 1.196 1.102 1.924 1.646.728.545 3.297.291 4.36.217 1.225-.085 1.916-.323 2.189-.456.397-.193.497-.79.461-1.039-.053-.367-.39-.913-1.222-.974-.833-.062-2.682.148-2.956.155-1.281.031-2.038-.269-2.422-.578-.384-.31-1.042-1.126-1.134-1.259-.645-.923-2.435-1.281-3.962-1.14-1.274.117-3.435.696-4.675.661h-2.24a.5.5 0 0 0-.5.5v4.653a.5.5 0 0 0 .498.5l1.372.002c1.624 0 3.335.607 4.342 1.32s2.956 3.133 4.856 3.133c1.506 0 3.017-.216 4.076-.296s3.087.083 3.911-.03 2.773-1.537 4.422-2.541c1.009-.614 2.135-1.3 3.278-2.009.455-.283.851-.677 1.084-1.052.815-1.312-.589-2.079-2.231-1.524" /><style>.msportalfx-svg-c01{fill:#fff}.msportalfx-svg-c02{fill:#e5e5e5}.msportalfx-svg-c03{fill:#a0a1a2}.msportalfx-svg-c04{fill:#7a7a7a}.msportalfx-svg-c05{fill:#3e3e3e}.msportalfx-svg-c06{fill:#1e1e1e}.msportalfx-svg-c07{fill:#0f0f0f}.msportalfx-svg-c08{fill:#ba141a}.msportalfx-svg-c09{fill:#dd5900}.msportalfx-svg-c10{fill:#ff8c00}.msportalfx-svg-c11{fill:#fcd116}.msportalfx-svg-c12{fill:#fee087}.msportalfx-svg-c13{fill:#b8d432}.msportalfx-svg-c14,.msportalfx-svg-c32{fill:#57a300}.msportalfx-svg-c15{fill:#59b4d9}.msportalfx-svg-c16{fill:#3999c6}.msportalfx-svg-c17{fill:#804998}.msportalfx-svg-c18{fill:#ec008c}.msportalfx-svg-c19{fill:#0072c6}.msportalfx-svg-c20{fill:#68217a}.msportalfx-svg-c21{fill:#00188f}.msportalfx-svg-c22{fill:#e81123}.fxs-mode-light .msportalfx-svg-c22{fill:#a4262c}.msportalfx-svg-c23{fill:#cae3f3}.msportalfx-svg-c24{fill:#59aed3}.msportalfx-svg-c25{fill:#4c3b12}.msportalfx-svg-c26{fill:#be9555}.msportalfx-svg-c27{fill:#4f4d52}.msportalfx-svg-c28{fill:#ef6f59}.msportalfx-svg-c29{fill:#f7cb64}.msportalfx-svg-c30{fill:#fdd8db}.msportalfx-svg-c31{fill:#f6ffec}.msportalfx-svg-c33{fill:#8a2da5}.msportalfx-svg-c34{fill:#e00b1c}.msportalfx-svg-c35{fill:#015cda}.msportalfx-svg-c36{fill:#5db300}.msportalfx-svg-c97{fill:#ffb900}.msportalfx-svg-c98{fill:#00a4ef}.msportalfx-svg-c99{fill:#f25022}.msportalfx-inverted-theme .msportalfx-svg-c05,.fxs-theme-dark .msportalfx-svg-c05{fill:#777}.msportalfx-inverted-theme .msportalfx-svg-c07,.fxs-theme-dark .msportalfx-svg-c07{fill:#f2f2f2}.msportalfx-svg-palette-white{fill:#fff}.msportalfx-svg-palette-blue{fill:#015cda}.msportalfx-svg-palette-black{fill:#1e1e1e}.msportalfx-svg-palette-green{fill:#57a300}.msportalfx-svg-palette-gray{fill:#a0a1a2}.msportalfx-svg-palette-inherit{fill:inherit}.msportalfx-svg-badge{position:absolute;left:0;bottom:0;min-height:10px;min-width:10px}.fxc-menu-icon&gt;.msportalfx-svg-badge{left:-2px;bottom:-2px;min-height:8px;min-width:8px}.msportalfx-svg-disabled{filter:grayscale(100%)}.msportalfx-svg-loading-square{animation:ProgressFlagAnimation 1.45s infinite ease-in-out;transform-origin:50%}.msportalfx-svg-loading-square:nth-child(1){animation-delay:0s}.msportalfx-svg-loading-square:nth-child(2){animation-delay:.2s}.msportalfx-svg-loading-square:nth-child(3){animation-delay:.4s}@keyframes ProgressFlagAnimation{0%{transform:scale(1);opacity:.3}36.1%{transform:scale(1.06);opacity:1}50%{transform:scale(1.06);opacity:1}86.1%{transform:scale(1);opacity:.3}}.msportalfx-svg-flip-horizontal&gt;svg,svg.msportalfx-svg-flip-horizontal{transform:scaleX(-1)}.msportalfx-svg-fabric-rotate360{animation:ImageRotation 1.3s cubic-bezier(.53,.21,.29,.67) infinite}@keyframes ImageRotation{0%{transform:rotate(-45deg)}100%{transform:rotate(315deg)}}.fxs-svg-number .msportalfx-font-bold{font-size:10px;fill:#0065ad}.fxs-svg-number .fxs-svg-circle{stroke-width:0%;fill:#0078d4}.fxs-svg-number .fxs-svg-text{fill:#fff;font-size:10px}.fxs-svg-number.msportalfx-svg-disabled{filter:grayscale(0%)}.fxs-svg-number.msportalfx-svg-disabled .fxs-svg-circle{fill:#fff;stroke-width:1px;stroke:#949494}.fxs-svg-number.msportalfx-svg-disabled .fxs-svg-text{fill:#949494}.fxs-theme-dark .fxs-svg-number .fxs-svg-text{fill:#0f0f0f}.fxs-theme-dark .fxs-svg-number .fxs-svg-circle{stroke-width:0%;fill:#0078d4}.fxs-theme-dark .fxs-svg-number.msportalfx-svg-disabled .fxs-svg-circle{fill:#0f0f0f;stroke-width:1px;stroke:#949494}.fxs-theme-dark .fxs-svg-number.msportalfx-svg-disabled .fxs-svg-text{fill:#949494}</style></svg>