<svg viewBox="0 0 16 16" class="msportalfx-svg-placeholder" role="presentation" focusable="false" xmlns:xlink="http://www.w3.org/1999/xlink" xmlns="http://www.w3.org/2000/svg"><desc></desc><g><title>Maintenance configuration</title><path d="M8.631 14.67a7.335 7.335 0 1 0 0-14.67 7.335 7.335 0 0 0 0 14.67Z" fill="url(#definition-1)" /><path d="M8.66 13.722a6.387 6.387 0 1 0 0-12.774 6.387 6.387 0 0 0 0 12.774Z" class="msportalfx-svg-c01" /><path d="m12.4 3.336-.773.774.25.25.773-.774-.25-.25Zm1.68 3.815h-1.093v.353h1.094v-.353Zm-2.255 3.094-.25.25.775.774.25-.25-.774-.774Zm-2.989 1.393h-.353v1.094h.353v-1.094ZM4.882 3.301l-.25.25.774.774.25-.25-.774-.774Zm.577 6.976-.774.774.25.25.774-.774-.25-.25ZM4.263 7.151H3.169v.353h1.094v-.353ZM8.746 1.93H8.66a.449.449 0 0 0-.45.45v4.725a.45.45 0 0 0 .45.449h.086a.449.449 0 0 0 .449-.45V2.38a.449.449 0 0 0-.45-.45Z" class="msportalfx-svg-c04" /><path d="m11.235 9.988.061-.06a.448.448 0 0 0 0-.634L9.44 7.437a.448.448 0 0 0-.634 0l-.06.061a.448.448 0 0 0 0 .634L10.6 9.988a.448.448 0 0 0 .634 0Z" class="msportalfx-svg-c04" /><path d="M8.664 8.362a1.04 1.04 0 1 0 0-2.079 1.04 1.04 0 0 0 0 2.079Z" fill="url(#definition-2)" /><path d="M7.18.13A7.372 7.372 0 0 0 4.8 13.647l.243-.645a.143.143 0 0 1 .245-.041l1.912 2.32a.143.143 0 0 1-.089.233L4.139 16a.143.143 0 0 1-.133-.05.144.144 0 0 1-.024-.142l.356-.955A8.639 8.639 0 0 1 .33 9.736 7.522 7.522 0 0 1 7.181.13Z" fill="#86D633" /><defs><radialGradient id="definition-1" cx="0" cy="0" r="1" gradientUnits="userSpaceOnUse" gradientTransform="translate(8.624 7.329) scale(7.33131)"><stop offset=".183" stop-color="#5EA0EF" /><stop offset=".555" stop-color="#5C9FEE" /><stop offset=".689" stop-color="#559CED" /><stop offset=".785" stop-color="#4A97E9" /><stop offset=".862" stop-color="#3990E4" /><stop offset=".928" stop-color="#2387DE" /><stop offset=".985" stop-color="#087BD6" /><stop offset="1" stop-color="#0078D4" /></radialGradient><radialGradient id="definition-2" cx="0" cy="0" r="1" gradientUnits="userSpaceOnUse" gradientTransform="translate(8.66 7.345) scale(1.02515)"><stop stop-color="#7F7F7F" /><stop offset="1" stop-color="#5E5E5E" /></radialGradient></defs></g><style>.msportalfx-svg-c01{fill:#fff}.msportalfx-svg-c02{fill:#e5e5e5}.msportalfx-svg-c03{fill:#a0a1a2}.msportalfx-svg-c04{fill:#7a7a7a}.msportalfx-svg-c05{fill:#3e3e3e}.msportalfx-svg-c06{fill:#1e1e1e}.msportalfx-svg-c07{fill:#0f0f0f}.msportalfx-svg-c08{fill:#ba141a}.msportalfx-svg-c09{fill:#dd5900}.msportalfx-svg-c10{fill:#ff8c00}.msportalfx-svg-c11{fill:#fcd116}.msportalfx-svg-c12{fill:#fee087}.msportalfx-svg-c13{fill:#b8d432}.msportalfx-svg-c14,.msportalfx-svg-c32{fill:#57a300}.msportalfx-svg-c15{fill:#59b4d9}.msportalfx-svg-c16{fill:#3999c6}.msportalfx-svg-c17{fill:#804998}.msportalfx-svg-c18{fill:#ec008c}.msportalfx-svg-c19{fill:#0072c6}.msportalfx-svg-c20{fill:#68217a}.msportalfx-svg-c21{fill:#00188f}.msportalfx-svg-c22{fill:#e81123}.fxs-mode-light .msportalfx-svg-c22{fill:#a4262c}.msportalfx-svg-c23{fill:#cae3f3}.msportalfx-svg-c24{fill:#59aed3}.msportalfx-svg-c25{fill:#4c3b12}.msportalfx-svg-c26{fill:#be9555}.msportalfx-svg-c27{fill:#4f4d52}.msportalfx-svg-c28{fill:#ef6f59}.msportalfx-svg-c29{fill:#f7cb64}.msportalfx-svg-c30{fill:#fdd8db}.msportalfx-svg-c31{fill:#f6ffec}.msportalfx-svg-c33{fill:#8a2da5}.msportalfx-svg-c34{fill:#e00b1c}.msportalfx-svg-c35{fill:#015cda}.msportalfx-svg-c36{fill:#5db300}.msportalfx-svg-c97{fill:#ffb900}.msportalfx-svg-c98{fill:#00a4ef}.msportalfx-svg-c99{fill:#f25022}.msportalfx-inverted-theme .msportalfx-svg-c05,.fxs-theme-dark .msportalfx-svg-c05{fill:#777}.msportalfx-inverted-theme .msportalfx-svg-c07,.fxs-theme-dark .msportalfx-svg-c07{fill:#f2f2f2}.msportalfx-svg-palette-white{fill:#fff}.msportalfx-svg-palette-blue{fill:#015cda}.msportalfx-svg-palette-black{fill:#1e1e1e}.msportalfx-svg-palette-green{fill:#57a300}.msportalfx-svg-palette-gray{fill:#a0a1a2}.msportalfx-svg-palette-inherit{fill:inherit}.msportalfx-svg-badge{position:absolute;left:0;bottom:0;min-height:10px;min-width:10px}.fxc-menu-icon&gt;.msportalfx-svg-badge{left:-2px;bottom:-2px;min-height:8px;min-width:8px}.msportalfx-svg-disabled{filter:grayscale(100%)}.msportalfx-svg-loading-square{animation:ProgressFlagAnimation 1.45s infinite ease-in-out;transform-origin:50%}.msportalfx-svg-loading-square:nth-child(1){animation-delay:0s}.msportalfx-svg-loading-square:nth-child(2){animation-delay:.2s}.msportalfx-svg-loading-square:nth-child(3){animation-delay:.4s}@keyframes ProgressFlagAnimation{0%{transform:scale(1);opacity:.3}36.1%{transform:scale(1.06);opacity:1}50%{transform:scale(1.06);opacity:1}86.1%{transform:scale(1);opacity:.3}}.msportalfx-svg-flip-horizontal&gt;svg,svg.msportalfx-svg-flip-horizontal{transform:scaleX(-1)}.msportalfx-svg-fabric-rotate360{animation:ImageRotation 1.3s cubic-bezier(.53,.21,.29,.67) infinite}@keyframes ImageRotation{0%{transform:rotate(-45deg)}100%{transform:rotate(315deg)}}.fxs-svg-number .msportalfx-font-bold{font-size:10px;fill:#0065ad}.fxs-svg-number .fxs-svg-circle{stroke-width:0%;fill:#0078d4}.fxs-svg-number .fxs-svg-text{fill:#fff;font-size:10px}.fxs-svg-number.msportalfx-svg-disabled{filter:grayscale(0%)}.fxs-svg-number.msportalfx-svg-disabled .fxs-svg-circle{fill:#fff;stroke-width:1px;stroke:#949494}.fxs-svg-number.msportalfx-svg-disabled .fxs-svg-text{fill:#949494}.fxs-theme-dark .fxs-svg-number .fxs-svg-text{fill:#0f0f0f}.fxs-theme-dark .fxs-svg-number .fxs-svg-circle{stroke-width:0%;fill:#0078d4}.fxs-theme-dark .fxs-svg-number.msportalfx-svg-disabled .fxs-svg-circle{fill:#0f0f0f;stroke-width:1px;stroke:#949494}.fxs-theme-dark .fxs-svg-number.msportalfx-svg-disabled .fxs-svg-text{fill:#949494}</style></svg>