<svg viewBox="0 0 18 18" class="msportalfx-svg-placeholder" xmlns="http://www.w3.org/2000/svg"><title>Connection</title><desc>Utilize Azure Data Transfer to securely transfer data between various environments.</desc><defs><linearGradient id="p256jZCpo__a" x1="9" x2="9" y1="2.28" y2="5.358" gradientUnits="userSpaceOnUse"><stop offset=".016" stop-color="#86d633" /><stop offset="1" stop-color="#76bc2d" /></linearGradient><linearGradient id="p256jZCpo__b" x1="9" x2="9" y1="12.774" y2="15.486" gradientUnits="userSpaceOnUse"><stop offset=".016" stop-color="#86d633" /><stop offset="1" stop-color="#76bc2d" /></linearGradient><linearGradient id="p256jZCpo__c" x1="9.49" x2="15.945" y1="3.03" y2="13.839" gradientUnits="userSpaceOnUse"><stop offset="0" stop-color="#a67af4" /><stop offset=".999" stop-color="#773adc" /></linearGradient><linearGradient id="p256jZCpo__d" x1="8.012" x2="3.733" y1="14.78" y2="5.058" gradientUnits="userSpaceOnUse"><stop offset="0" stop-color="#5ea0ef" /><stop offset="1" stop-color="#0078d4" /></linearGradient></defs><circle cx="9" cy="3.831" r="1.531" fill="url(#p256jZCpo__a)" /><circle cx="9" cy="14.17" r="1.531" fill="url(#p256jZCpo__b)" /><path fill="url(#p256jZCpo__c)" d="M12.943 3.126h-.178A3.83 3.83 0 0 0 6.291 1.12a.7.7 0 0 0 1 1 2.421 2.421 0 0 1 4.134 1.711v.005A2.42 2.42 0 0 1 9 6.252a2.4 2.4 0 0 1-1.712-.708.7.7 0 0 0-1 1A3.8 3.8 0 0 0 9 7.662a3.83 3.83 0 0 0 3.765-3.126h.178a1.987 1.987 0 0 1 1.985 1.985v4.959a1.987 1.987 0 0 1-1.985 1.985h-.817a.7.7 0 1 0 0 1.409h.817a3.4 3.4 0 0 0 3.4-3.394V6.521a3.4 3.4 0 0 0-3.4-3.395" /><path fill="url(#p256jZCpo__d)" d="M10.714 15.882A2.423 2.423 0 1 1 9 11.748a2.4 2.4 0 0 1 1.714.709.7.7 0 0 0 1-1A3.8 3.8 0 0 0 9 10.339a3.824 3.824 0 0 0-3.765 3.126h-.178a1.987 1.987 0 0 1-1.985-1.985V6.521a1.987 1.987 0 0 1 1.985-1.985h.817a.705.705 0 0 0 0-1.41h-.817a3.4 3.4 0 0 0-3.4 3.4v4.954a3.4 3.4 0 0 0 3.4 3.394h.178a3.832 3.832 0 0 0 6.475 2.005.7.7 0 0 0-1-1Z" /><style>.msportalfx-svg-c01{fill:#fff}.msportalfx-svg-c02{fill:#e5e5e5}.msportalfx-svg-c03{fill:#a0a1a2}.msportalfx-svg-c04{fill:#7a7a7a}.msportalfx-svg-c05{fill:#3e3e3e}.msportalfx-svg-c06{fill:#1e1e1e}.msportalfx-svg-c07{fill:#0f0f0f}.msportalfx-svg-c08{fill:#ba141a}.msportalfx-svg-c09{fill:#dd5900}.msportalfx-svg-c10{fill:#ff8c00}.msportalfx-svg-c11{fill:#fcd116}.msportalfx-svg-c12{fill:#fee087}.msportalfx-svg-c13{fill:#b8d432}.msportalfx-svg-c14,.msportalfx-svg-c32{fill:#57a300}.msportalfx-svg-c15{fill:#59b4d9}.msportalfx-svg-c16{fill:#3999c6}.msportalfx-svg-c17{fill:#804998}.msportalfx-svg-c18{fill:#ec008c}.msportalfx-svg-c19{fill:#0072c6}.msportalfx-svg-c20{fill:#68217a}.msportalfx-svg-c21{fill:#00188f}.msportalfx-svg-c22{fill:#e81123}.fxs-mode-light .msportalfx-svg-c22{fill:#a4262c}.msportalfx-svg-c23{fill:#cae3f3}.msportalfx-svg-c24{fill:#59aed3}.msportalfx-svg-c25{fill:#4c3b12}.msportalfx-svg-c26{fill:#be9555}.msportalfx-svg-c27{fill:#4f4d52}.msportalfx-svg-c28{fill:#ef6f59}.msportalfx-svg-c29{fill:#f7cb64}.msportalfx-svg-c30{fill:#fdd8db}.msportalfx-svg-c31{fill:#f6ffec}.msportalfx-svg-c33{fill:#8a2da5}.msportalfx-svg-c34{fill:#e00b1c}.msportalfx-svg-c35{fill:#015cda}.msportalfx-svg-c36{fill:#5db300}.msportalfx-svg-c97{fill:#ffb900}.msportalfx-svg-c98{fill:#00a4ef}.msportalfx-svg-c99{fill:#f25022}.msportalfx-inverted-theme .msportalfx-svg-c05,.fxs-theme-dark .msportalfx-svg-c05{fill:#777}.msportalfx-inverted-theme .msportalfx-svg-c07,.fxs-theme-dark .msportalfx-svg-c07{fill:#f2f2f2}.msportalfx-svg-palette-white{fill:#fff}.msportalfx-svg-palette-blue{fill:#015cda}.msportalfx-svg-palette-black{fill:#1e1e1e}.msportalfx-svg-palette-green{fill:#57a300}.msportalfx-svg-palette-gray{fill:#a0a1a2}.msportalfx-svg-palette-inherit{fill:inherit}.msportalfx-svg-badge{position:absolute;left:0;bottom:0;min-height:10px;min-width:10px}.fxc-menu-icon&gt;.msportalfx-svg-badge{left:-2px;bottom:-2px;min-height:8px;min-width:8px}.msportalfx-svg-disabled{filter:grayscale(100%)}.msportalfx-svg-loading-square{animation:ProgressFlagAnimation 1.45s infinite ease-in-out;transform-origin:50%}.msportalfx-svg-loading-square:nth-child(1){animation-delay:0s}.msportalfx-svg-loading-square:nth-child(2){animation-delay:.2s}.msportalfx-svg-loading-square:nth-child(3){animation-delay:.4s}@keyframes ProgressFlagAnimation{0%{transform:scale(1);opacity:.3}36.1%{transform:scale(1.06);opacity:1}50%{transform:scale(1.06);opacity:1}86.1%{transform:scale(1);opacity:.3}}.msportalfx-svg-flip-horizontal&gt;svg,svg.msportalfx-svg-flip-horizontal{transform:scaleX(-1)}.msportalfx-svg-fabric-rotate360{animation:ImageRotation 1.3s cubic-bezier(.53,.21,.29,.67) infinite}@keyframes ImageRotation{0%{transform:rotate(-45deg)}100%{transform:rotate(315deg)}}.fxs-svg-number .msportalfx-font-bold{font-size:10px;fill:#0065ad}.fxs-svg-number .fxs-svg-circle{stroke-width:0%;fill:#0078d4}.fxs-svg-number .fxs-svg-text{fill:#fff;font-size:10px}.fxs-svg-number.msportalfx-svg-disabled{filter:grayscale(0%)}.fxs-svg-number.msportalfx-svg-disabled .fxs-svg-circle{fill:#fff;stroke-width:1px;stroke:#949494}.fxs-svg-number.msportalfx-svg-disabled .fxs-svg-text{fill:#949494}.fxs-theme-dark .fxs-svg-number .fxs-svg-text{fill:#0f0f0f}.fxs-theme-dark .fxs-svg-number .fxs-svg-circle{stroke-width:0%;fill:#0078d4}.fxs-theme-dark .fxs-svg-number.msportalfx-svg-disabled .fxs-svg-circle{fill:#0f0f0f;stroke-width:1px;stroke:#949494}.fxs-theme-dark .fxs-svg-number.msportalfx-svg-disabled .fxs-svg-text{fill:#949494}</style></svg>