<svg viewBox="0 0 18 18" class="msportalfx-svg-placeholder" xmlns="http://www.w3.org/2000/svg"><title>Pipeline</title><desc>Utilize Azure Data Transfer to securely transfer data between various environments.</desc><defs><linearGradient id="pFiKkrkLp__a" x1="-554.145" x2="-554.145" y1="1021.831" y2="1012.854" gradientTransform="matrix(1 0 0 -1 564 1025.516)" gradientUnits="userSpaceOnUse"><stop offset=".388" stop-color="#50e6ff" /><stop offset="1" stop-color="#32bedd" /></linearGradient><linearGradient id="pFiKkrkLp__b" x1="-553.944" x2="-553.944" y1="1020.255" y2="1012.153" gradientTransform="matrix(1 0 0 -1 564 1025.516)" gradientUnits="userSpaceOnUse"><stop offset="0" stop-color="#198ab3" /><stop offset=".073" stop-color="#2098be" /><stop offset=".214" stop-color="#29accf" /><stop offset=".354" stop-color="#2fb8d9" /><stop offset=".493" stop-color="#31bcdc" /><stop offset=".653" stop-color="#2bb0d2" /><stop offset=".94" stop-color="#1d91b9" /><stop offset="1" stop-color="#198ab3" /></linearGradient></defs><path fill="url(#pFiKkrkLp__a)" d="M6.76 6.368c-.02-.06-.05-.12-.07-.18-.25-.6-.58-.97-.94-.97H4.27c.36 0 .69.37.94.97a8.3 8.3 0 0 1 .49 2.95 8 8 0 0 1-.49 2.95c-.25.61-.58.98-.94.98h1.48c.36 0 .68-.36.93-.97a8 8 0 0 0 .49-2.91v-.05a8.4 8.4 0 0 0-.41-2.77m8.6 1.48a6.6 6.6 0 0 0-.18-.96c-.25-1.01-.68-1.67-1.16-1.67h-1.47c.49 0 .92.68 1.18 1.72.06.28.12.58.16.9a11 11 0 0 1 .08 1.3c0 2.17-.64 3.92-1.42 3.92h1.47c.39 0 .74-.43 1-1.13a8.6 8.6 0 0 0 .42-2.73v-.06a11 11 0 0 0-.08-1.29" /><path fill="#9cebff" d="M13.969 9.14c0 2.17-.635 3.926-1.422 3.926-.361 0-.688-.367-.937-.976h.937c.492 0 .885-1.318.885-2.95s-.393-2.95-.885-2.95h-.937c.249-.6.576-.97.937-.97.787-.001 1.422 1.757 1.422 3.92M4.276 5.218c-.786 0-1.421 1.755-1.421 3.922s.637 3.922 1.421 3.922S5.7 11.3 5.7 9.14s-.64-3.922-1.424-3.922" /><path fill="#32bedd" d="M5.16 9.138a10 10 0 0 1-.052 1.016 6 6 0 0 1-.177.957c-.157.6-.39.978-.656.978s-.5-.378-.656-.978a6 6 0 0 1-.176-.957 10 10 0 0 1-.053-1.016c0-1.627.4-2.947.885-2.947s.885 1.32.885 2.947" /><path fill="url(#pFiKkrkLp__b)" d="M13.432 9.14c0 1.632-.393 2.95-.885 2.95h-1.672v.01h-4.2a8 8 0 0 0 .492-2.911V9.14a8.5 8.5 0 0 0-.413-2.773q-.031-.089-.072-.177h5.861c.496 0 .889 1.323.889 2.95" /><path fill="#198ab3" d="m12.74 14.368-1.83-1.84a.1.1 0 0 0-.14-.01l-.01.01v1.41H2.37a1.415 1.415 0 0 1 0-2.83h2.56a6 6 0 0 0 .18-.95H2.37a2.38 2.38 0 0 0 0 4.76h8.36v1.41a.1.1 0 0 0 .14.01.01.01 0 0 0 .01-.01l1.86-1.83a.085.085 0 0 0 0-.13m5.26-8.9a2.386 2.386 0 0 1-2.38 2.38h-.26a6.6 6.6 0 0 0-.18-.96h.44a1.415 1.415 0 0 0 0-2.83H7.23v1.42h-.01a.1.1 0 0 1-.14 0l-1.83-1.85a.075.075 0 0 1 0-.12l1.86-1.84a.01.01 0 0 0 .01-.01.11.11 0 0 1 .14.01v1.42h8.36A2.38 2.38 0 0 1 18 5.468" /><style>.msportalfx-svg-c01{fill:#fff}.msportalfx-svg-c02{fill:#e5e5e5}.msportalfx-svg-c03{fill:#a0a1a2}.msportalfx-svg-c04{fill:#7a7a7a}.msportalfx-svg-c05{fill:#3e3e3e}.msportalfx-svg-c06{fill:#1e1e1e}.msportalfx-svg-c07{fill:#0f0f0f}.msportalfx-svg-c08{fill:#ba141a}.msportalfx-svg-c09{fill:#dd5900}.msportalfx-svg-c10{fill:#ff8c00}.msportalfx-svg-c11{fill:#fcd116}.msportalfx-svg-c12{fill:#fee087}.msportalfx-svg-c13{fill:#b8d432}.msportalfx-svg-c14,.msportalfx-svg-c32{fill:#57a300}.msportalfx-svg-c15{fill:#59b4d9}.msportalfx-svg-c16{fill:#3999c6}.msportalfx-svg-c17{fill:#804998}.msportalfx-svg-c18{fill:#ec008c}.msportalfx-svg-c19{fill:#0072c6}.msportalfx-svg-c20{fill:#68217a}.msportalfx-svg-c21{fill:#00188f}.msportalfx-svg-c22{fill:#e81123}.fxs-mode-light .msportalfx-svg-c22{fill:#a4262c}.msportalfx-svg-c23{fill:#cae3f3}.msportalfx-svg-c24{fill:#59aed3}.msportalfx-svg-c25{fill:#4c3b12}.msportalfx-svg-c26{fill:#be9555}.msportalfx-svg-c27{fill:#4f4d52}.msportalfx-svg-c28{fill:#ef6f59}.msportalfx-svg-c29{fill:#f7cb64}.msportalfx-svg-c30{fill:#fdd8db}.msportalfx-svg-c31{fill:#f6ffec}.msportalfx-svg-c33{fill:#8a2da5}.msportalfx-svg-c34{fill:#e00b1c}.msportalfx-svg-c35{fill:#015cda}.msportalfx-svg-c36{fill:#5db300}.msportalfx-svg-c97{fill:#ffb900}.msportalfx-svg-c98{fill:#00a4ef}.msportalfx-svg-c99{fill:#f25022}.msportalfx-inverted-theme .msportalfx-svg-c05,.fxs-theme-dark .msportalfx-svg-c05{fill:#777}.msportalfx-inverted-theme .msportalfx-svg-c07,.fxs-theme-dark .msportalfx-svg-c07{fill:#f2f2f2}.msportalfx-svg-palette-white{fill:#fff}.msportalfx-svg-palette-blue{fill:#015cda}.msportalfx-svg-palette-black{fill:#1e1e1e}.msportalfx-svg-palette-green{fill:#57a300}.msportalfx-svg-palette-gray{fill:#a0a1a2}.msportalfx-svg-palette-inherit{fill:inherit}.msportalfx-svg-badge{position:absolute;left:0;bottom:0;min-height:10px;min-width:10px}.fxc-menu-icon&gt;.msportalfx-svg-badge{left:-2px;bottom:-2px;min-height:8px;min-width:8px}.msportalfx-svg-disabled{filter:grayscale(100%)}.msportalfx-svg-loading-square{animation:ProgressFlagAnimation 1.45s infinite ease-in-out;transform-origin:50%}.msportalfx-svg-loading-square:nth-child(1){animation-delay:0s}.msportalfx-svg-loading-square:nth-child(2){animation-delay:.2s}.msportalfx-svg-loading-square:nth-child(3){animation-delay:.4s}@keyframes ProgressFlagAnimation{0%{transform:scale(1);opacity:.3}36.1%{transform:scale(1.06);opacity:1}50%{transform:scale(1.06);opacity:1}86.1%{transform:scale(1);opacity:.3}}.msportalfx-svg-flip-horizontal&gt;svg,svg.msportalfx-svg-flip-horizontal{transform:scaleX(-1)}.msportalfx-svg-fabric-rotate360{animation:ImageRotation 1.3s cubic-bezier(.53,.21,.29,.67) infinite}@keyframes ImageRotation{0%{transform:rotate(-45deg)}100%{transform:rotate(315deg)}}.fxs-svg-number .msportalfx-font-bold{font-size:10px;fill:#0065ad}.fxs-svg-number .fxs-svg-circle{stroke-width:0%;fill:#0078d4}.fxs-svg-number .fxs-svg-text{fill:#fff;font-size:10px}.fxs-svg-number.msportalfx-svg-disabled{filter:grayscale(0%)}.fxs-svg-number.msportalfx-svg-disabled .fxs-svg-circle{fill:#fff;stroke-width:1px;stroke:#949494}.fxs-svg-number.msportalfx-svg-disabled .fxs-svg-text{fill:#949494}.fxs-theme-dark .fxs-svg-number .fxs-svg-text{fill:#0f0f0f}.fxs-theme-dark .fxs-svg-number .fxs-svg-circle{stroke-width:0%;fill:#0078d4}.fxs-theme-dark .fxs-svg-number.msportalfx-svg-disabled .fxs-svg-circle{fill:#0f0f0f;stroke-width:1px;stroke:#949494}.fxs-theme-dark .fxs-svg-number.msportalfx-svg-disabled .fxs-svg-text{fill:#949494}</style></svg>