<svg viewBox="0 0 50 50" class="msportalfx-svg-placeholder" xmlns="http://www.w3.org/2000/svg"><desc>Azure App Configuration lets you centrally manage application configuration and feature flags in the cloud. Create a resource today to be able to manage your configuration as code, propagate changes without having to redeploy, and easily integrate configuration with CI/CD processes.</desc><title>App Configuration</title><path fill="#59b4d9" d="M40.945 14.52c0-.357.089-.8.089-1.159A11.477 11.477 0 0 0 29.44 1.945a11.26 11.26 0 0 0-9.364 4.638 8.3 8.3 0 0 0-4.638-1.338A8.736 8.736 0 0 0 6.7 13.9v.713a8.65 8.65 0 0 0-5 7.844A9.66 9.66 0 0 0 11.693 32h24.614a9.66 9.66 0 0 0 9.993-9.543 8.46 8.46 0 0 0-5.355-7.937" /><path fill="#fcd116" d="m22.935 35.09.94 2.232-2.114 3.7 2.32 2.32L27.9 41.55l2.232.94 1.168 3.494.118.411h3.292l1.38-3.905 2.232-.94 3.289 1.7.411.206 2.32-2.32L42.58 37.5l.94-2.232 3.494-1.174.411-.118v-3.291l-3.9-1.38-.94-2.231 1.7-3.289.206-.411-2.232-2.32-3.7 1.791-2.232-.94-1.174-3.494-.208-.411H31.8l-1.38 3.905-2.231.94-3.289-1.7-.411-.206-2.2 2.643 1.586 3.377-.94 2.232-3.494 1.174-.411.206v3.139Zm5.756-2.848a4.552 4.552 0 1 1 4.551 4.551 4.5 4.5 0 0 1-4.551-4.551" /><path fill="#7fba00" d="m8.769 43.023.868.929-.371 2.207 1.564.722 1.556-1.575 1.27.058 1.212 1.508.133.182 1.62-.6-.029-2.174.929-.868 1.93.242.239.027.722-1.563-1.528-1.475.058-1.27 1.509-1.212.181-.133-.6-1.62-2.174.029-.868-.929.243-1.929.026-.24-1.52-.738-1.5 1.553-1.27-.058-1.212-1.508-.176-.166-1.548.57.029 2.175-.929.867-1.925-.234-.239-.027-.606 1.7 1.394 1.376-.057 1.267-1.51 1.212-.165.176.57 1.548Zm2.319-2.447a2.39 2.39 0 1 1 3.068 1.417 2.363 2.363 0 0 1-3.068-1.417" /><path fill="#fff" d="M7.947 26.827c0-3.656 1.873-6.51 5.351-8.294v-.713a9.36 9.36 0 0 1 14.18-7.848 12.33 12.33 0 0 1 9.989-5.084 12.08 12.08 0 0 0-8.027-3.032 11.57 11.57 0 0 0-9.364 4.727 8.3 8.3 0 0 0-4.638-1.338A8.736 8.736 0 0 0 6.7 13.9v.713a8.65 8.65 0 0 0-5 7.844 9.46 9.46 0 0 0 7.5 9.275 10 10 0 0 1-1.253-4.905" opacity=".2" /><style>.msportalfx-svg-c01{fill:#fff}.msportalfx-svg-c02{fill:#e5e5e5}.msportalfx-svg-c03{fill:#a0a1a2}.msportalfx-svg-c04{fill:#7a7a7a}.msportalfx-svg-c05{fill:#3e3e3e}.msportalfx-svg-c06{fill:#1e1e1e}.msportalfx-svg-c07{fill:#0f0f0f}.msportalfx-svg-c08{fill:#ba141a}.msportalfx-svg-c09{fill:#dd5900}.msportalfx-svg-c10{fill:#ff8c00}.msportalfx-svg-c11{fill:#fcd116}.msportalfx-svg-c12{fill:#fee087}.msportalfx-svg-c13{fill:#b8d432}.msportalfx-svg-c14,.msportalfx-svg-c32{fill:#57a300}.msportalfx-svg-c15{fill:#59b4d9}.msportalfx-svg-c16{fill:#3999c6}.msportalfx-svg-c17{fill:#804998}.msportalfx-svg-c18{fill:#ec008c}.msportalfx-svg-c19{fill:#0072c6}.msportalfx-svg-c20{fill:#68217a}.msportalfx-svg-c21{fill:#00188f}.msportalfx-svg-c22{fill:#e81123}.fxs-mode-light .msportalfx-svg-c22{fill:#a4262c}.msportalfx-svg-c23{fill:#cae3f3}.msportalfx-svg-c24{fill:#59aed3}.msportalfx-svg-c25{fill:#4c3b12}.msportalfx-svg-c26{fill:#be9555}.msportalfx-svg-c27{fill:#4f4d52}.msportalfx-svg-c28{fill:#ef6f59}.msportalfx-svg-c29{fill:#f7cb64}.msportalfx-svg-c30{fill:#fdd8db}.msportalfx-svg-c31{fill:#f6ffec}.msportalfx-svg-c33{fill:#8a2da5}.msportalfx-svg-c34{fill:#e00b1c}.msportalfx-svg-c35{fill:#015cda}.msportalfx-svg-c36{fill:#5db300}.msportalfx-svg-c97{fill:#ffb900}.msportalfx-svg-c98{fill:#00a4ef}.msportalfx-svg-c99{fill:#f25022}.msportalfx-inverted-theme .msportalfx-svg-c05,.fxs-theme-dark .msportalfx-svg-c05{fill:#777}.msportalfx-inverted-theme .msportalfx-svg-c07,.fxs-theme-dark .msportalfx-svg-c07{fill:#f2f2f2}.msportalfx-svg-palette-white{fill:#fff}.msportalfx-svg-palette-blue{fill:#015cda}.msportalfx-svg-palette-black{fill:#1e1e1e}.msportalfx-svg-palette-green{fill:#57a300}.msportalfx-svg-palette-gray{fill:#a0a1a2}.msportalfx-svg-palette-inherit{fill:inherit}.msportalfx-svg-badge{position:absolute;left:0;bottom:0;min-height:10px;min-width:10px}.fxc-menu-icon&gt;.msportalfx-svg-badge{left:-2px;bottom:-2px;min-height:8px;min-width:8px}.msportalfx-svg-disabled{filter:grayscale(100%)}.msportalfx-svg-loading-square{animation:ProgressFlagAnimation 1.45s infinite ease-in-out;transform-origin:50%}.msportalfx-svg-loading-square:nth-child(1){animation-delay:0s}.msportalfx-svg-loading-square:nth-child(2){animation-delay:.2s}.msportalfx-svg-loading-square:nth-child(3){animation-delay:.4s}@keyframes ProgressFlagAnimation{0%{transform:scale(1);opacity:.3}36.1%{transform:scale(1.06);opacity:1}50%{transform:scale(1.06);opacity:1}86.1%{transform:scale(1);opacity:.3}}.msportalfx-svg-flip-horizontal&gt;svg,svg.msportalfx-svg-flip-horizontal{transform:scaleX(-1)}.msportalfx-svg-fabric-rotate360{animation:ImageRotation 1.3s cubic-bezier(.53,.21,.29,.67) infinite}@keyframes ImageRotation{0%{transform:rotate(-45deg)}100%{transform:rotate(315deg)}}.fxs-svg-number .msportalfx-font-bold{font-size:10px;fill:#0065ad}.fxs-svg-number .fxs-svg-circle{stroke-width:0%;fill:#0078d4}.fxs-svg-number .fxs-svg-text{fill:#fff;font-size:10px}.fxs-svg-number.msportalfx-svg-disabled{filter:grayscale(0%)}.fxs-svg-number.msportalfx-svg-disabled .fxs-svg-circle{fill:#fff;stroke-width:1px;stroke:#949494}.fxs-svg-number.msportalfx-svg-disabled .fxs-svg-text{fill:#949494}.fxs-theme-dark .fxs-svg-number .fxs-svg-text{fill:#0f0f0f}.fxs-theme-dark .fxs-svg-number .fxs-svg-circle{stroke-width:0%;fill:#0078d4}.fxs-theme-dark .fxs-svg-number.msportalfx-svg-disabled .fxs-svg-circle{fill:#0f0f0f;stroke-width:1px;stroke:#949494}.fxs-theme-dark .fxs-svg-number.msportalfx-svg-disabled .fxs-svg-text{fill:#949494}</style></svg>