<svg viewBox="0 0 18 18" xmlns='http://www.w3.org/2000/svg'><defs><linearGradient id="pPRpYVEPn__a" x1="-1194.321" x2="-1190.755" y1="9.128" y2="9.128" gradientTransform="matrix(-1 0 0 1 -1179.887 0)" gradientUnits="userSpaceOnUse"><stop offset="0" stop-color="#32bedd"/><stop offset=".998" stop-color="#9cebff" stop-opacity=".5"/></linearGradient><linearGradient id="pPRpYVEPn__b" x1="80.363" x2="83.929" y1="9.135" y2="9.135" gradientTransform="translate(-76.796)" gradientUnits="userSpaceOnUse"><stop offset="0" stop-color="#005ba1"/><stop offset=".998" stop-color="#005ba1" stop-opacity="0"/></linearGradient><linearGradient id="pPRpYVEPn__c" x1="3.555" x2="14.434" y1="9.326" y2="9.326" gradientUnits="userSpaceOnUse"><stop offset="0" stop-color="#005ba1"/><stop offset=".974" stop-color="#32bedd"/></linearGradient></defs><path fill="#5ea0ef" d="M7.132 4.469 3.567 6.542 0 4.468l3.567-2.073z"/><path fill="#005ba1" d="m7.132 13.794-3.566-2.059v4.132z"/><path fill="#0078d4" d="m3.567 6.542-.001-.001zL0 4.468v9.333l3.566 2.073 3.566-2.073v-.007l-3.566 2.073v-4.132l3.566 2.059V4.469z"/><path fill="#9cebff" d="m10.868 4.469 3.565 2.073L18 4.468l-3.567-2.073z"/><path fill="#32bedd" d="m10.868 13.794 3.566-2.059v4.132z"/><path fill="url(#pPRpYVEPn__a)" d="M14.433 6.535v5.193l-3.566 2.066V4.462z"/><path fill="#9cebff" d="m10.868 4.469 3.565 2.073L18 4.468l-3.567-2.073z"/><path fill="#50e6ff" d="m14.433 6.542-3.565-2.073v9.325l3.566-2.059v4.132l-3.566-2.073v.007l3.566 2.073L18 13.801V4.468z"/><path fill="#32bedd" d="m10.868 13.794 3.566-2.059v4.132z"/><path fill="url(#pPRpYVEPn__a)" d="M14.433 6.535v5.193l-3.566 2.066V4.462z"/><path fill="url(#pPRpYVEPn__b)" d="M3.567 6.541v5.193l3.566 2.067V4.469z"/><path fill="url(#pPRpYVEPn__c)" d="M14.423 10.126c-.624 1.556-3.066 2.584-5.348 2.584h-.161c-2.282 0-4.724-1.028-5.348-2.584 0 0-.025-1.561 0-1.713.454 1.737 2.834 3.022 5.293 3.022h.271c2.455 0 4.839-1.285 5.293-3.022.025.152 0 1.713 0 1.713M13.4 5.942a6.65 6.65 0 0 1-4.27 1.474h-.271a6.66 6.66 0 0 1-4.267-1.47l-.856.5C4.553 7.809 6.8 8.69 8.914 8.69h.161c2.115 0 4.366-.883 5.181-2.251Z"/><style>.msportalfx-svg-c01{fill:#fff}.msportalfx-svg-c02{fill:#e5e5e5}.msportalfx-svg-c03{fill:#a0a1a2}.msportalfx-svg-c04{fill:#7a7a7a}.msportalfx-svg-c05{fill:#3e3e3e}.msportalfx-svg-c06{fill:#1e1e1e}.msportalfx-svg-c07{fill:#0f0f0f}.msportalfx-svg-c08{fill:#ba141a}.msportalfx-svg-c09{fill:#dd5900}.msportalfx-svg-c10{fill:#ff8c00}.msportalfx-svg-c11{fill:#fcd116}.msportalfx-svg-c12{fill:#fee087}.msportalfx-svg-c13{fill:#b8d432}.msportalfx-svg-c14,.msportalfx-svg-c32{fill:#57a300}.msportalfx-svg-c15{fill:#59b4d9}.msportalfx-svg-c16{fill:#3999c6}.msportalfx-svg-c17{fill:#804998}.msportalfx-svg-c18{fill:#ec008c}.msportalfx-svg-c19{fill:#0072c6}.msportalfx-svg-c20{fill:#68217a}.msportalfx-svg-c21{fill:#00188f}.msportalfx-svg-c22{fill:#e81123}.fxs-mode-light .msportalfx-svg-c22{fill:#a4262c}.msportalfx-svg-c23{fill:#cae3f3}.msportalfx-svg-c24{fill:#59aed3}.msportalfx-svg-c25{fill:#4c3b12}.msportalfx-svg-c26{fill:#be9555}.msportalfx-svg-c27{fill:#4f4d52}.msportalfx-svg-c28{fill:#ef6f59}.msportalfx-svg-c29{fill:#f7cb64}.msportalfx-svg-c30{fill:#fdd8db}.msportalfx-svg-c31{fill:#f6ffec}.msportalfx-svg-c33{fill:#8a2da5}.msportalfx-svg-c34{fill:#e00b1c}.msportalfx-svg-c35{fill:#015cda}.msportalfx-svg-c36{fill:#5db300}.msportalfx-svg-c97{fill:#ffb900}.msportalfx-svg-c98{fill:#00a4ef}.msportalfx-svg-c99{fill:#f25022}.msportalfx-inverted-theme .msportalfx-svg-c05,.fxs-theme-dark .msportalfx-svg-c05{fill:#777}.msportalfx-inverted-theme .msportalfx-svg-c07,.fxs-theme-dark .msportalfx-svg-c07{fill:#f2f2f2}.msportalfx-svg-palette-white{fill:#fff}.msportalfx-svg-palette-blue{fill:#015cda}.msportalfx-svg-palette-black{fill:#1e1e1e}.msportalfx-svg-palette-green{fill:#57a300}.msportalfx-svg-palette-gray{fill:#a0a1a2}.msportalfx-svg-palette-inherit{fill:inherit}.msportalfx-svg-badge{position:absolute;left:0;bottom:0;min-height:10px;min-width:10px}.fxc-menu-icon>.msportalfx-svg-badge{left:-2px;bottom:-2px;min-height:8px;min-width:8px}.msportalfx-svg-disabled{filter:grayscale(100%)}.msportalfx-svg-loading-square{animation:ProgressFlagAnimation 1.45s infinite ease-in-out;transform-origin:50%}.msportalfx-svg-loading-square:nth-child(1){animation-delay:0s}.msportalfx-svg-loading-square:nth-child(2){animation-delay:.2s}.msportalfx-svg-loading-square:nth-child(3){animation-delay:.4s}@keyframes ProgressFlagAnimation{0%{transform:scale(1);opacity:.3}36.1%{transform:scale(1.06);opacity:1}50%{transform:scale(1.06);opacity:1}86.1%{transform:scale(1);opacity:.3}}.msportalfx-svg-flip-horizontal>svg,svg.msportalfx-svg-flip-horizontal{transform:scaleX(-1)}.msportalfx-svg-fabric-rotate360{animation:ImageRotation 1.3s cubic-bezier(.53,.21,.29,.67) infinite}@keyframes ImageRotation{0%{transform:rotate(-45deg)}100%{transform:rotate(315deg)}}.fxs-svg-number .msportalfx-font-bold{font-size:10px;fill:#0065ad}.fxs-svg-number .fxs-svg-circle{stroke-width:0%;fill:#0078d4}.fxs-svg-number .fxs-svg-text{fill:#fff;font-size:10px}.fxs-svg-number.msportalfx-svg-disabled{filter:grayscale(0%)}.fxs-svg-number.msportalfx-svg-disabled .fxs-svg-circle{fill:#fff;stroke-width:1px;stroke:#949494}.fxs-svg-number.msportalfx-svg-disabled .fxs-svg-text{fill:#949494}.fxs-theme-dark .fxs-svg-number .fxs-svg-text{fill:#0f0f0f}.fxs-theme-dark .fxs-svg-number .fxs-svg-circle{stroke-width:0%;fill:#0078d4}.fxs-theme-dark .fxs-svg-number.msportalfx-svg-disabled .fxs-svg-circle{fill:#0f0f0f;stroke-width:1px;stroke:#949494}.fxs-theme-dark .fxs-svg-number.msportalfx-svg-disabled .fxs-svg-text{fill:#949494}</style></svg>