<svg viewBox="0 0 50 50" class="msportalfx-svg-placeholder" role="presentation" focusable="false" xmlns:xlink="http://www.w3.org/1999/xlink" xmlns="http://www.w3.org/2000/svg"><desc>Consistent experiences across Azure enable users to leverage a few well-known and researched design patterns throughout Azure.</desc><g><title>SolarWinds Observability</title><path d="M0 0v14l25-8-1 3 15-4c-4.92 7.737-11.23 11.601-20 14v1l20-2v1c-6.288 1.49-11.723 5.659-17.816 7.153-3.414.837-5.47-2.96-3.184-5.153v-1L0 15v25h40V0H0z" fill="#fffefd" /><path d="m37 5 1 1-1-1z" fill="#fcd59d" /><path d="m38 5 1 1-1-1M21 6v1l2 2h1l1-3h-4m14 0 1 1-1-1z" fill="#fde2bd" /><path d="m36 6 1 1-1-1z" fill="#fbc475" /><path d="m37 6-14 4 1-3c-6.987.145-17.902 1.748-22 8 4.276.772 7.787 3.834 12 4.408 7.03.958 22.508-5.62 23-13.408z" fill="#f99f21" /><path d="m15 7 1 1-1-1z" fill="#fde2bd" /><path d="m16 7 1 1-1-1z" fill="#fcd59d" /><path d="m17 7 1 1-1-1z" fill="#fbc475" /><path d="m32 7 1 1-1-1z" fill="#fde2bd" /><path d="m33 7 1 1-1-1m4 0 1 1-1-1M12 8l1 1-1-1z" fill="#fcd59d" /><path d="m13 8 1 1-1-1z" fill="#fbc475" /><path d="m28 8 1 1-1-1z" fill="#fde2bd" /><path d="m29 8 1 1-1-1z" fill="#fcd59d" /><path d="m30 8 1 1-1-1z" fill="#fbc475" /><path d="m9 9 1 1-1-1z" fill="#fcd59d" /><path d="m10 9 1 1-1-1m13.667.333.666.334-.666-.334z" fill="#fbc475" /><path d="m36 9 1 1-1-1z" fill="#fde2bd" /><path d="m7 10 1 1-1-1m28 0 1 1-1-1z" fill="#fcd59d" /><path d="m5 11 1 1-1-1z" fill="#fbc475" /><path d="m34 11 1 1-1-1M3 12l1 1-1-1m30 0 1 1-1-1z" fill="#fcd59d" /><path d="m1 13-1 2 1-2z" fill="#fde2bd" /><path d="m31 13 1 1-1-1z" fill="#fbc475" /><path d="m32 13 1 1-1-1z" fill="#fde2bd" /><path d="m1 14 1 1-1-1z" fill="#fbc475" /><path d="m30 14 1 1-1-1z" fill="#fcd59d" /><path d="m3 15 1 1-1-1z" fill="#fde2bd" /><path d="m4 15 1 1-1-1z" fill="#fcd59d" /><path d="m5 15 1 1-1-1z" fill="#fbc475" /><path d="m28 15 1 1-1-1z" fill="#fcd59d" /><path d="m7 16 1 1-1-1m18 0 1 1-1-1z" fill="#fbc475" /><path d="m26 16 1 1-1-1z" fill="#fde2bd" /><path d="m9 17 1 1-1-1m14 0 1 1-1-1z" fill="#fbc475" /><path d="m10 18 1 1-1-1z" fill="#fde2bd" /><path d="m20 18 1 1-1-1z" fill="#fbc475" /><path d="m21 18 1 1-1-1m8 0v1h3l-3-1z" fill="#fde2bd" /><path d="M32 18v1h6l-6-1z" fill="#fcd59d" /><path d="m38 18 1 1-1-1z" fill="#fde2bd" /><path d="m12 19 1 1-1-1m4 0 1 1-1-1z" fill="#fbc475" /><path d="m17 19 2 2-2-2z" fill="#fcd59d" /><path d="m18 19 1 1-1-1m4 0 1 1-1-1z" fill="#fde2bd" /><path d="m23 19 1 1-1-1z" fill="#fcd59d" /><path d="m24.667 19.333.666.334-.666-.334z" fill="#fbc475" /><path d="M16 21c3.323 9.37 12.562.855 19-1l-19 1z" fill="#f99f21" /><path d="m35 19 1 1-1-1z" fill="#fbc475" /><path d="m36 19 1 1-1-1m-22.333 1.333.666.334-.666-.334z" fill="#fde2bd" /><path d="m19 20 1 1-1-1m13 0 1 1-1-1z" fill="#fbc475" /><path d="m33 20 1 1-1-1z" fill="#fcd59d" /><path d="m15 21 1 1-1-1m15 0 1 1-1-1z" fill="#fbc475" /><path d="m31 21 1 1-1-1z" fill="#fde2bd" /><path d="m15 22 1 1-1-1z" fill="#fcd59d" /><path d="m28 22 1 1-1-1m-12 1 1 1-1-1m10 0 1 1-1-1m-2 1 1 1-1-1z" fill="#fbc475" /><path d="m30 24-9 12 2-2h1l2 2-2-2v-1c3.096-2.19 7.45-4.965 6-9z" fill="#fde2bd" /><path d="m31 24 1 1-1-1z" fill="#fbc475" /><path d="m17 25 1 1-1-1z" fill="#fde2bd" /><path d="m22 25 1 1-1-1z" fill="#fbc475" /><path d="m28 25 1 1-1-1z" fill="#fcd59d" /><path d="m20 29 1 6 10-10-11 4z" fill="#f99f21" /><path d="m18 26 1 1-1-1m2 0 1 1-1-1z" fill="#fbc475" /><path d="m21 26 1 1-1-1m4 0 1 1-1-1z" fill="#fde2bd" /><path d="m26 26 1 1-1-1z" fill="#fbc475" /><path d="m19 27 1 1-1-1m4 0 1 1-1-1z" fill="#fde2bd" /><path d="m24 27 1 1-1-1z" fill="#fbc475" /><path d="m21 28 1 1-1-1z" fill="#fcd59d" /><path d="m20 31 1 1-1-1z" fill="#fbc475" /><path d="m20 32 1 1-1-1z" fill="#fde2bd" /><path d="m25 34 1 1-1-1z" fill="#fcd59d" /></g><style>.msportalfx-svg-c01{fill:#fff}.msportalfx-svg-c02{fill:#e5e5e5}.msportalfx-svg-c03{fill:#a0a1a2}.msportalfx-svg-c04{fill:#7a7a7a}.msportalfx-svg-c05{fill:#3e3e3e}.msportalfx-svg-c06{fill:#1e1e1e}.msportalfx-svg-c07{fill:#0f0f0f}.msportalfx-svg-c08{fill:#ba141a}.msportalfx-svg-c09{fill:#dd5900}.msportalfx-svg-c10{fill:#ff8c00}.msportalfx-svg-c11{fill:#fcd116}.msportalfx-svg-c12{fill:#fee087}.msportalfx-svg-c13{fill:#b8d432}.msportalfx-svg-c14,.msportalfx-svg-c32{fill:#57a300}.msportalfx-svg-c15{fill:#59b4d9}.msportalfx-svg-c16{fill:#3999c6}.msportalfx-svg-c17{fill:#804998}.msportalfx-svg-c18{fill:#ec008c}.msportalfx-svg-c19{fill:#0072c6}.msportalfx-svg-c20{fill:#68217a}.msportalfx-svg-c21{fill:#00188f}.msportalfx-svg-c22{fill:#e81123}.fxs-mode-light .msportalfx-svg-c22{fill:#a4262c}.msportalfx-svg-c23{fill:#cae3f3}.msportalfx-svg-c24{fill:#59aed3}.msportalfx-svg-c25{fill:#4c3b12}.msportalfx-svg-c26{fill:#be9555}.msportalfx-svg-c27{fill:#4f4d52}.msportalfx-svg-c28{fill:#ef6f59}.msportalfx-svg-c29{fill:#f7cb64}.msportalfx-svg-c30{fill:#fdd8db}.msportalfx-svg-c31{fill:#f6ffec}.msportalfx-svg-c33{fill:#8a2da5}.msportalfx-svg-c34{fill:#e00b1c}.msportalfx-svg-c35{fill:#015cda}.msportalfx-svg-c36{fill:#5db300}.msportalfx-svg-c97{fill:#ffb900}.msportalfx-svg-c98{fill:#00a4ef}.msportalfx-svg-c99{fill:#f25022}.msportalfx-inverted-theme .msportalfx-svg-c05,.fxs-theme-dark .msportalfx-svg-c05{fill:#777}.msportalfx-inverted-theme .msportalfx-svg-c07,.fxs-theme-dark .msportalfx-svg-c07{fill:#f2f2f2}.msportalfx-svg-palette-white{fill:#fff}.msportalfx-svg-palette-blue{fill:#015cda}.msportalfx-svg-palette-black{fill:#1e1e1e}.msportalfx-svg-palette-green{fill:#57a300}.msportalfx-svg-palette-gray{fill:#a0a1a2}.msportalfx-svg-palette-inherit{fill:inherit}.msportalfx-svg-badge{position:absolute;left:0;bottom:0;min-height:10px;min-width:10px}.fxc-menu-icon&gt;.msportalfx-svg-badge{left:-2px;bottom:-2px;min-height:8px;min-width:8px}.msportalfx-svg-disabled{filter:grayscale(100%)}.msportalfx-svg-loading-square{animation:ProgressFlagAnimation 1.45s infinite ease-in-out;transform-origin:50%}.msportalfx-svg-loading-square:nth-child(1){animation-delay:0s}.msportalfx-svg-loading-square:nth-child(2){animation-delay:.2s}.msportalfx-svg-loading-square:nth-child(3){animation-delay:.4s}@keyframes ProgressFlagAnimation{0%{transform:scale(1);opacity:.3}36.1%{transform:scale(1.06);opacity:1}50%{transform:scale(1.06);opacity:1}86.1%{transform:scale(1);opacity:.3}}.msportalfx-svg-flip-horizontal&gt;svg,svg.msportalfx-svg-flip-horizontal{transform:scaleX(-1)}.msportalfx-svg-fabric-rotate360{animation:ImageRotation 1.3s cubic-bezier(.53,.21,.29,.67) infinite}@keyframes ImageRotation{0%{transform:rotate(-45deg)}100%{transform:rotate(315deg)}}.fxs-svg-number .msportalfx-font-bold{font-size:10px;fill:#0065ad}.fxs-svg-number .fxs-svg-circle{stroke-width:0%;fill:#0078d4}.fxs-svg-number .fxs-svg-text{fill:#fff;font-size:10px}.fxs-svg-number.msportalfx-svg-disabled{filter:grayscale(0%)}.fxs-svg-number.msportalfx-svg-disabled .fxs-svg-circle{fill:#fff;stroke-width:1px;stroke:#949494}.fxs-svg-number.msportalfx-svg-disabled .fxs-svg-text{fill:#949494}.fxs-theme-dark .fxs-svg-number .fxs-svg-text{fill:#0f0f0f}.fxs-theme-dark .fxs-svg-number .fxs-svg-circle{stroke-width:0%;fill:#0078d4}.fxs-theme-dark .fxs-svg-number.msportalfx-svg-disabled .fxs-svg-circle{fill:#0f0f0f;stroke-width:1px;stroke:#949494}.fxs-theme-dark .fxs-svg-number.msportalfx-svg-disabled .fxs-svg-text{fill:#949494}</style></svg>