<svg viewBox="0 0 18 18" class="msportalfx-svg-placeholder" xmlns="http://www.w3.org/2000/svg"><title>Device Update for IoT Hub</title><desc></desc><defs><linearGradient id="pDJX9Juvw__a" x1="8.999" x2="8.999" y1="6.807" y2="13.192" gradientUnits="userSpaceOnUse"><stop offset="0" stop-color="#50e6ff" /><stop offset=".949" stop-color="#32bedd" /></linearGradient></defs><path fill="url(#pDJX9Juvw__a)" d="M14.975 9.021v.155A5.977 5.977 0 0 1 9 15h-.063l-.857-1.455a.87.87 0 0 0-.759-.435.88.88 0 0 0-.821.554l-.262.657q-.15-.08-.3-.167l-.089-.054a2 2 0 0 1-.12-.076l-.115-.078-.08-.058-.08-.058-.048-.036-.134-.1q-.07-.056-.135-.113l-.115-.1A.1.1 0 0 1 5 13.455a4 4 0 0 1-.223-.21l-.114-.116-.016-.016a4 4 0 0 1-.2-.229q-.054-.062-.1-.125c-.046-.063-.069-.086-.1-.13s-.066-.087-.1-.13-.064-.09-.1-.137-.06-.091-.09-.138a1 1 0 0 1-.05-.081l-.055-.09a3 3 0 0 1-.1-.182q-.038-.063-.071-.129a4 4 0 0 1-.122-.255q-.032-.069-.062-.14c-.03-.071-.044-.1-.063-.153s-.04-.1-.056-.152-.031-.08-.044-.123-.021-.062-.031-.094-.023-.072-.032-.107q-.026-.082-.047-.163l-.041-.163-.036-.166a6 6 0 0 1-.111-.842c0-.048-.006-.1-.007-.147v-.216A6 6 0 0 1 3.1 8.08q.017-.111.039-.226c.022-.115.026-.121.04-.182l.021-.084q.02-.093.048-.186v-.017q.027-.096.059-.194v-.012a5.98 5.98 0 0 1 5.675-4.133l.831 1.41a.883.883 0 0 0 1.581-.121l.265-.665a5 5 0 0 1 .446.248l.047.026.151.1q.134.087.261.182.169.123.327.263c.052.045.1.091.155.139a5.92 5.92 0 0 1 1.873 3.586q.015.101.025.205.018.18.026.361v.154q.006.043.005.087" /><g fill="#fff" opacity=".8"><path d="m11.964 11.806-1.861-3.258-.185.106.151-.112-2.107-2.996-.386.279L9.443 8.48l-4.136.341.039.481 4.097-.341-1.358 2.258.408.246L9.89 9.14l1.661 2.901z" opacity=".6" /><path d="M11.775 11.119h-.006a1 1 0 0 0-.187.018.856.856 0 0 0-.679.826v.017a.866.866 0 1 0 .872-.861m-2.913-.27a.73.73 0 0 0-.431-.205l-.083-.006h-.006a.746.746 0 0 0-.75.738v.006a.75.75 0 1 0 1.27-.533M5.984 8.765a.743.743 0 1 0 .088.353.74.74 0 0 0-.088-.353M7.833 4.8h-.027a.928.928 0 0 0 .017 1.856 1 1 0 0 0 .3-.049.93.93 0 0 0 .628-.873.927.927 0 0 0-.918-.934m2.085 2.815a1.1 1.1 0 0 0-.438.085 1.12 1.12 0 0 0-.661.83 1 1 0 0 0-.019.17v.027a1.13 1.13 0 0 0 .314.776 1.1 1.1 0 0 0 .4.266 1.1 1.1 0 0 0 .407.078 1.2 1.2 0 0 0 .348-.055 1.118 1.118 0 0 0-.348-2.181Z" /></g><path fill="#0078d4" d="M16.5 11.493a.463.463 0 0 1-.611.288l-.539-.216a.46.46 0 0 1-.263-.574A6.41 6.41 0 0 0 11.431 3.1l-.156.391-.275.688a.461.461 0 0 1-.825.062l-.693-1.177-.893-1.515a.46.46 0 0 1 .272-.677l3.006-.854a.462.462 0 0 1 .555.616l-.432 1.077a7.91 7.91 0 0 1 4.51 9.782m-7.468 5.636-3.006.852a.46.46 0 0 1-.554-.614l.433-1.081A7.907 7.907 0 0 1 1.5 6.55a.464.464 0 0 1 .611-.288l.529.212a.467.467 0 0 1 .274.574A6.41 6.41 0 0 0 6.462 14.9l.157-.391.273-.682a.461.461 0 0 1 .826-.063l.714 1.212.872 1.48a.46.46 0 0 1-.272.673" /><style>.msportalfx-svg-c01{fill:#fff}.msportalfx-svg-c02{fill:#e5e5e5}.msportalfx-svg-c03{fill:#a0a1a2}.msportalfx-svg-c04{fill:#7a7a7a}.msportalfx-svg-c05{fill:#3e3e3e}.msportalfx-svg-c06{fill:#1e1e1e}.msportalfx-svg-c07{fill:#0f0f0f}.msportalfx-svg-c08{fill:#ba141a}.msportalfx-svg-c09{fill:#dd5900}.msportalfx-svg-c10{fill:#ff8c00}.msportalfx-svg-c11{fill:#fcd116}.msportalfx-svg-c12{fill:#fee087}.msportalfx-svg-c13{fill:#b8d432}.msportalfx-svg-c14,.msportalfx-svg-c32{fill:#57a300}.msportalfx-svg-c15{fill:#59b4d9}.msportalfx-svg-c16{fill:#3999c6}.msportalfx-svg-c17{fill:#804998}.msportalfx-svg-c18{fill:#ec008c}.msportalfx-svg-c19{fill:#0072c6}.msportalfx-svg-c20{fill:#68217a}.msportalfx-svg-c21{fill:#00188f}.msportalfx-svg-c22{fill:#e81123}.fxs-mode-light .msportalfx-svg-c22{fill:#a4262c}.msportalfx-svg-c23{fill:#cae3f3}.msportalfx-svg-c24{fill:#59aed3}.msportalfx-svg-c25{fill:#4c3b12}.msportalfx-svg-c26{fill:#be9555}.msportalfx-svg-c27{fill:#4f4d52}.msportalfx-svg-c28{fill:#ef6f59}.msportalfx-svg-c29{fill:#f7cb64}.msportalfx-svg-c30{fill:#fdd8db}.msportalfx-svg-c31{fill:#f6ffec}.msportalfx-svg-c33{fill:#8a2da5}.msportalfx-svg-c34{fill:#e00b1c}.msportalfx-svg-c35{fill:#015cda}.msportalfx-svg-c36{fill:#5db300}.msportalfx-svg-c97{fill:#ffb900}.msportalfx-svg-c98{fill:#00a4ef}.msportalfx-svg-c99{fill:#f25022}.msportalfx-inverted-theme .msportalfx-svg-c05,.fxs-theme-dark .msportalfx-svg-c05{fill:#777}.msportalfx-inverted-theme .msportalfx-svg-c07,.fxs-theme-dark .msportalfx-svg-c07{fill:#f2f2f2}.msportalfx-svg-palette-white{fill:#fff}.msportalfx-svg-palette-blue{fill:#015cda}.msportalfx-svg-palette-black{fill:#1e1e1e}.msportalfx-svg-palette-green{fill:#57a300}.msportalfx-svg-palette-gray{fill:#a0a1a2}.msportalfx-svg-palette-inherit{fill:inherit}.msportalfx-svg-badge{position:absolute;left:0;bottom:0;min-height:10px;min-width:10px}.fxc-menu-icon&gt;.msportalfx-svg-badge{left:-2px;bottom:-2px;min-height:8px;min-width:8px}.msportalfx-svg-disabled{filter:grayscale(100%)}.msportalfx-svg-loading-square{animation:ProgressFlagAnimation 1.45s infinite ease-in-out;transform-origin:50%}.msportalfx-svg-loading-square:nth-child(1){animation-delay:0s}.msportalfx-svg-loading-square:nth-child(2){animation-delay:.2s}.msportalfx-svg-loading-square:nth-child(3){animation-delay:.4s}@keyframes ProgressFlagAnimation{0%{transform:scale(1);opacity:.3}36.1%{transform:scale(1.06);opacity:1}50%{transform:scale(1.06);opacity:1}86.1%{transform:scale(1);opacity:.3}}.msportalfx-svg-flip-horizontal&gt;svg,svg.msportalfx-svg-flip-horizontal{transform:scaleX(-1)}.msportalfx-svg-fabric-rotate360{animation:ImageRotation 1.3s cubic-bezier(.53,.21,.29,.67) infinite}@keyframes ImageRotation{0%{transform:rotate(-45deg)}100%{transform:rotate(315deg)}}.fxs-svg-number .msportalfx-font-bold{font-size:10px;fill:#0065ad}.fxs-svg-number .fxs-svg-circle{stroke-width:0%;fill:#0078d4}.fxs-svg-number .fxs-svg-text{fill:#fff;font-size:10px}.fxs-svg-number.msportalfx-svg-disabled{filter:grayscale(0%)}.fxs-svg-number.msportalfx-svg-disabled .fxs-svg-circle{fill:#fff;stroke-width:1px;stroke:#949494}.fxs-svg-number.msportalfx-svg-disabled .fxs-svg-text{fill:#949494}.fxs-theme-dark .fxs-svg-number .fxs-svg-text{fill:#0f0f0f}.fxs-theme-dark .fxs-svg-number .fxs-svg-circle{stroke-width:0%;fill:#0078d4}.fxs-theme-dark .fxs-svg-number.msportalfx-svg-disabled .fxs-svg-circle{fill:#0f0f0f;stroke-width:1px;stroke:#949494}.fxs-theme-dark .fxs-svg-number.msportalfx-svg-disabled .fxs-svg-text{fill:#949494}</style></svg>