<svg fill="none" viewBox="0 0 18 18" class="msportalfx-svg-placeholder" xmlns="http://www.w3.org/2000/svg"><title>Intune</title><desc></desc><g clip-path="url(#pKrtxugTo__a)"><path fill="url(#pKrtxugTo__b)" d="M-.001 3.068c0-2.236 3.006-3.46 4.992-2.033L9.31 4.136l3.644-2.008C14.879 1.106 17.965 1.839 18 4.63v10.29c0 2.237-2.918 3.403-4.904 1.975L8.7 13.726l-3.649 2.009c-1.944 1.031-5.05.24-5.05-2.477 0-3.262-.003-2.01-.003-10.19" /><path fill="url(#pKrtxugTo__c)" d="M-.001 3.068c0-2.236 3.006-3.46 4.992-2.033L9.31 4.136l3.644-2.008C14.879 1.106 17.965 1.839 18 4.63v10.29c0 2.237-2.918 3.403-4.904 1.975L8.7 13.726l-3.649 2.009c-1.944 1.031-5.05.24-5.05-2.477 0-3.262-.003-2.01-.003-10.19" /><path fill="url(#pKrtxugTo__d)" d="M-.001 3.068c0-2.236 3.006-3.46 4.992-2.033L9.31 4.136l3.644-2.008C14.879 1.106 17.965 1.839 18 4.63v10.29c0 2.237-2.918 3.403-4.904 1.975L8.7 13.726l-3.649 2.009c-1.944 1.031-5.05.24-5.05-2.477 0-3.262-.003-2.01-.003-10.19" /><path fill="url(#pKrtxugTo__e)" d="M4.991 1.035C3.005-.393 0 .832 0 3.068v10.064c0-.245.128-.732.128-.732.592-1.883 3.11-2.59 4.853-1.348l8.117 5.844c1.986 1.428 4.904.262 4.904-1.975V4.631c0 1.91-2.567 3.829-4.992 2.167z" /><path fill="url(#pKrtxugTo__f)" fill-opacity=".25" d="M4.991 1.035C3.005-.393 0 .832 0 3.068v10.064c0-.245.128-.732.128-.732.592-1.883 3.11-2.59 4.853-1.348l8.117 5.844c1.986 1.428 4.904.262 4.904-1.975V4.631c0 1.91-2.567 3.829-4.992 2.167z" /><path fill="url(#pKrtxugTo__g)" fill-opacity=".55" d="M4.991 1.035C3.005-.393 0 .832 0 3.068v10.064c0-.245.128-.732.128-.732.592-1.883 3.11-2.59 4.853-1.348l8.117 5.844c1.986 1.428 4.904.262 4.904-1.975V4.631c0 1.91-2.567 3.829-4.992 2.167z" /><path fill="url(#pKrtxugTo__h)" d="M4.991 6.738C3.005 5.311 0 6.535 0 8.771V3.068C0 .832 3.006-.392 4.992 1.035l8.018 5.763C15.434 8.46 18 6.542 18 4.63v5.837c0 2.236-3.006 3.46-4.992 2.033Q9 9.621 4.99 6.738" /><path fill="url(#pKrtxugTo__i)" fill-opacity=".35" d="M4.991 6.738C3.005 5.311 0 6.535 0 8.771V3.068C0 .832 3.006-.392 4.992 1.035l8.018 5.763C15.434 8.46 18 6.542 18 4.63v5.837c0 2.236-3.006 3.46-4.992 2.033Q9 9.621 4.99 6.738" /></g><defs><radialGradient id="pKrtxugTo__c" cx="0" cy="0" r="1" gradientTransform="matrix(-4.54695 12.00463 -9.18273 -3.47811 16.11 -1.947)" gradientUnits="userSpaceOnUse"><stop offset=".423" stop-color="#004AFF" stop-opacity=".1" /><stop offset=".729" stop-color="#014DB9" /><stop offset=".836" stop-color="#014DB9" stop-opacity=".9" /><stop offset=".955" stop-color="#014DB9" stop-opacity="0" /></radialGradient><radialGradient id="pKrtxugTo__d" cx="0" cy="0" r="1" gradientTransform="rotate(-73.209 12.644 6.883)scale(10.2083 12.727)" gradientUnits="userSpaceOnUse"><stop offset=".091" stop-color="#004AFF" stop-opacity=".1" /><stop offset=".56" stop-color="#014DB9" /><stop offset=".749" stop-color="#014DB9" stop-opacity=".99" /><stop offset="1" stop-color="#014DB9" stop-opacity="0" /></radialGradient><radialGradient id="pKrtxugTo__e" cx="0" cy="0" r="1" gradientTransform="matrix(-17.65338 17.73862 -13.66978 -13.6041 19.746 .422)" gradientUnits="userSpaceOnUse"><stop offset=".249" stop-color="#23C0FE" /><stop offset=".717" stop-color="#23C0FE" /><stop offset=".995" stop-color="#1C91FF" /></radialGradient><radialGradient id="pKrtxugTo__f" cx="0" cy="0" r="1" gradientTransform="rotate(45.115 .505 7.365)scale(17.9039 4.26129)" gradientUnits="userSpaceOnUse"><stop offset=".165" stop-color="#096DD6" stop-opacity="0" /><stop offset=".484" stop-color="#096DD6" /><stop offset=".901" stop-color="#0876DE" stop-opacity=".814" /><stop offset="1" stop-color="#029AFF" stop-opacity="0" /></radialGradient><radialGradient id="pKrtxugTo__g" cx="0" cy="0" r="1" gradientTransform="rotate(91.655 3.365 13.874)scale(2.8367 2.62634)" gradientUnits="userSpaceOnUse"><stop stop-color="#0068B3" /><stop offset=".93" stop-color="#006CB8" stop-opacity="0" /></radialGradient><radialGradient id="pKrtxugTo__i" cx="0" cy="0" r="1" gradientTransform="matrix(1.5737 4.08556 -3.36906 1.29772 3.019 .422)" gradientUnits="userSpaceOnUse"><stop stop-color="#CCF9FF" stop-opacity=".93" /><stop offset="1" stop-color="#35DDFF" /></radialGradient><linearGradient id="pKrtxugTo__b" x1="7.687" x2="13.824" y1="17.522" y2="4.019" gradientUnits="userSpaceOnUse"><stop offset=".02" stop-color="#1169DA" /><stop offset=".435" stop-color="#0151BD" /><stop offset=".614" stop-color="#014DB7" /><stop offset="1" stop-color="#126AD9" /></linearGradient><linearGradient id="pKrtxugTo__h" x1="5.131" x2="8.007" y1="4.455" y2="17.018" gradientUnits="userSpaceOnUse"><stop stop-color="#92EEFE" /><stop offset=".565" stop-color="#35DDFF" /><stop offset="1" stop-color="#08B1F9" /></linearGradient><clipPath id="pKrtxugTo__a"><path fill="#fff" d="M0 0h18v18H0z" /></clipPath></defs><style>.msportalfx-svg-c01{fill:#fff}.msportalfx-svg-c02{fill:#e5e5e5}.msportalfx-svg-c03{fill:#a0a1a2}.msportalfx-svg-c04{fill:#7a7a7a}.msportalfx-svg-c05{fill:#3e3e3e}.msportalfx-svg-c06{fill:#1e1e1e}.msportalfx-svg-c07{fill:#0f0f0f}.msportalfx-svg-c08{fill:#ba141a}.msportalfx-svg-c09{fill:#dd5900}.msportalfx-svg-c10{fill:#ff8c00}.msportalfx-svg-c11{fill:#fcd116}.msportalfx-svg-c12{fill:#fee087}.msportalfx-svg-c13{fill:#b8d432}.msportalfx-svg-c14,.msportalfx-svg-c32{fill:#57a300}.msportalfx-svg-c15{fill:#59b4d9}.msportalfx-svg-c16{fill:#3999c6}.msportalfx-svg-c17{fill:#804998}.msportalfx-svg-c18{fill:#ec008c}.msportalfx-svg-c19{fill:#0072c6}.msportalfx-svg-c20{fill:#68217a}.msportalfx-svg-c21{fill:#00188f}.msportalfx-svg-c22{fill:#e81123}.fxs-mode-light .msportalfx-svg-c22{fill:#a4262c}.msportalfx-svg-c23{fill:#cae3f3}.msportalfx-svg-c24{fill:#59aed3}.msportalfx-svg-c25{fill:#4c3b12}.msportalfx-svg-c26{fill:#be9555}.msportalfx-svg-c27{fill:#4f4d52}.msportalfx-svg-c28{fill:#ef6f59}.msportalfx-svg-c29{fill:#f7cb64}.msportalfx-svg-c30{fill:#fdd8db}.msportalfx-svg-c31{fill:#f6ffec}.msportalfx-svg-c33{fill:#8a2da5}.msportalfx-svg-c34{fill:#e00b1c}.msportalfx-svg-c35{fill:#015cda}.msportalfx-svg-c36{fill:#5db300}.msportalfx-svg-c97{fill:#ffb900}.msportalfx-svg-c98{fill:#00a4ef}.msportalfx-svg-c99{fill:#f25022}.msportalfx-inverted-theme .msportalfx-svg-c05,.fxs-theme-dark .msportalfx-svg-c05{fill:#777}.msportalfx-inverted-theme .msportalfx-svg-c07,.fxs-theme-dark .msportalfx-svg-c07{fill:#f2f2f2}.msportalfx-svg-palette-white{fill:#fff}.msportalfx-svg-palette-blue{fill:#015cda}.msportalfx-svg-palette-black{fill:#1e1e1e}.msportalfx-svg-palette-green{fill:#57a300}.msportalfx-svg-palette-gray{fill:#a0a1a2}.msportalfx-svg-palette-inherit{fill:inherit}.msportalfx-svg-badge{position:absolute;left:0;bottom:0;min-height:10px;min-width:10px}.fxc-menu-icon&gt;.msportalfx-svg-badge{left:-2px;bottom:-2px;min-height:8px;min-width:8px}.msportalfx-svg-disabled{filter:grayscale(100%)}.msportalfx-svg-loading-square{animation:ProgressFlagAnimation 1.45s infinite ease-in-out;transform-origin:50%}.msportalfx-svg-loading-square:nth-child(1){animation-delay:0s}.msportalfx-svg-loading-square:nth-child(2){animation-delay:.2s}.msportalfx-svg-loading-square:nth-child(3){animation-delay:.4s}@keyframes ProgressFlagAnimation{0%{transform:scale(1);opacity:.3}36.1%{transform:scale(1.06);opacity:1}50%{transform:scale(1.06);opacity:1}86.1%{transform:scale(1);opacity:.3}}.msportalfx-svg-flip-horizontal&gt;svg,svg.msportalfx-svg-flip-horizontal{transform:scaleX(-1)}.msportalfx-svg-fabric-rotate360{animation:ImageRotation 1.3s cubic-bezier(.53,.21,.29,.67) infinite}@keyframes ImageRotation{0%{transform:rotate(-45deg)}100%{transform:rotate(315deg)}}.fxs-svg-number .msportalfx-font-bold{font-size:10px;fill:#0065ad}.fxs-svg-number .fxs-svg-circle{stroke-width:0%;fill:#0078d4}.fxs-svg-number .fxs-svg-text{fill:#fff;font-size:10px}.fxs-svg-number.msportalfx-svg-disabled{filter:grayscale(0%)}.fxs-svg-number.msportalfx-svg-disabled .fxs-svg-circle{fill:#fff;stroke-width:1px;stroke:#949494}.fxs-svg-number.msportalfx-svg-disabled .fxs-svg-text{fill:#949494}.fxs-theme-dark .fxs-svg-number .fxs-svg-text{fill:#0f0f0f}.fxs-theme-dark .fxs-svg-number .fxs-svg-circle{stroke-width:0%;fill:#0078d4}.fxs-theme-dark .fxs-svg-number.msportalfx-svg-disabled .fxs-svg-circle{fill:#0f0f0f;stroke-width:1px;stroke:#949494}.fxs-theme-dark .fxs-svg-number.msportalfx-svg-disabled .fxs-svg-text{fill:#949494}</style></svg>