<svg viewBox="0 0 18 18"><defs><linearGradient id="p71YrzFJt__a" x1="7.673" x2="7.673" y1=".689" y2="16.067" gradientUnits="userSpaceOnUse"><stop offset="0" stop-color="#5ea0ef"/><stop offset="1" stop-color="#0078d4"/></linearGradient><linearGradient id="p71YrzFJt__b" x1="12.837" x2="12.837" y1="13.342" y2="11.165" gradientUnits="userSpaceOnUse"><stop offset="0" stop-color="#0078d4"/><stop offset="1" stop-color="#5ea0ef"/></linearGradient></defs><path fill="url(#p71YrzFJt__a)" d="M15.345 5.27h-4.538V.7l3.9-.043a.64.64 0 0 1 .64.641Zm-5.339.043V.657H5.382l.086 4.656ZM.043 10.7h4.624V6.039H0ZM0 15.394a.64.64 0 0 0 .641.64h4.026v-4.613H0ZM0 1.3l.043 3.97h4.624V.657H.641A.64.64 0 0 0 0 1.3"/><path fill="#a3a3a3" d="M6.38 6.634h.911v2.527a.205.205 0 0 1-.205.205h-.911a.2.2 0 0 1-.2-.205V7.043a.4.4 0 0 1 .395-.409Z"/><path fill="#a3a3a3" d="M6.38 6.634h.911v2.527a.205.205 0 0 1-.205.205h-.911a.2.2 0 0 1-.2-.205V7.043a.4.4 0 0 1 .395-.409Z" opacity=".5"/><path fill="#a3a3a3" d="M16.68 6.634h.911a.4.4 0 0 1 .4.4v2.127a.205.205 0 0 1-.2.205h-.9a.205.205 0 0 1-.205-.205V6.634Z"/><path fill="#a3a3a3" d="M16.68 6.634h.911a.4.4 0 0 1 .4.4v2.127a.205.205 0 0 1-.2.205h-.9a.205.205 0 0 1-.205-.205V6.634Z" opacity=".5"/><path fill="#949494" d="M17.993 7.029v.882h-12v-.882a.4.4 0 0 1 .4-.4h11.2a.4.4 0 0 1 .4.4"/><path fill="#a3a3a3" d="M6.175 14.59h.911a.2.2 0 0 1 .205.2v2.549H6.38a.4.4 0 0 1-.41-.395v-2.135a.2.2 0 0 1 .19-.219Z"/><path fill="#a3a3a3" d="M6.175 14.59h.911a.2.2 0 0 1 .205.2v2.549H6.38a.4.4 0 0 1-.41-.395v-2.135a.2.2 0 0 1 .19-.219Z" opacity=".5"/><path fill="#a3a3a3" d="M16.885 14.59h.91a.2.2 0 0 1 .2.2v2.118a.4.4 0 0 1-.4.4h-.915v-2.499a.2.2 0 0 1 .19-.219Z"/><path fill="#a3a3a3" d="M16.885 14.59h.91a.2.2 0 0 1 .2.2v2.118a.4.4 0 0 1-.4.4h-.915v-2.499a.2.2 0 0 1 .19-.219Z" opacity=".5"/><path fill="#949494" d="M5.971 16.941v-.883h12v.883a.4.4 0 0 1-.4.4H6.373a.4.4 0 0 1-.402-.4"/><path fill="url(#p71YrzFJt__b)" d="M14.6 13.516a.07.07 0 0 0 .055-.026l1.43-1.422a.16.16 0 0 0 0-.213l-1.43-1.446a.07.07 0 0 0-.056-.027.1.1 0 0 0-.044.014.07.07 0 0 0-.026.068v.888a.07.07 0 0 1-.062.079h-3.326a.82.82 0 0 0-.653-.322h-.083a.864.864 0 0 0-.081 1.725h.164a.85.85 0 0 0 .66-.33h3.317a.07.07 0 0 1 .071.063v.881a.07.07 0 0 0 .064.068"/><path fill="#773adc" d="M11.909 13.035A1.836 1.836 0 1 1 11.9 10.9h1a2.7 2.7 0 1 0 0 2.139Z"/>​<style>.msportalfx-svg-c01{fill:#fff}.msportalfx-svg-c02{fill:#e5e5e5}.msportalfx-svg-c03{fill:#a0a1a2}.msportalfx-svg-c04{fill:#7a7a7a}.msportalfx-svg-c05{fill:#3e3e3e}.msportalfx-svg-c06{fill:#1e1e1e}.msportalfx-svg-c07{fill:#0f0f0f}.msportalfx-svg-c08{fill:#ba141a}.msportalfx-svg-c09{fill:#dd5900}.msportalfx-svg-c10{fill:#ff8c00}.msportalfx-svg-c11{fill:#fcd116}.msportalfx-svg-c12{fill:#fee087}.msportalfx-svg-c13{fill:#b8d432}.msportalfx-svg-c14,.msportalfx-svg-c32{fill:#57a300}.msportalfx-svg-c15{fill:#59b4d9}.msportalfx-svg-c16{fill:#3999c6}.msportalfx-svg-c17{fill:#804998}.msportalfx-svg-c18{fill:#ec008c}.msportalfx-svg-c19{fill:#0072c6}.msportalfx-svg-c20{fill:#68217a}.msportalfx-svg-c21{fill:#00188f}.msportalfx-svg-c22{fill:#e81123}.fxs-mode-light .msportalfx-svg-c22{fill:#a4262c}.msportalfx-svg-c23{fill:#cae3f3}.msportalfx-svg-c24{fill:#59aed3}.msportalfx-svg-c25{fill:#4c3b12}.msportalfx-svg-c26{fill:#be9555}.msportalfx-svg-c27{fill:#4f4d52}.msportalfx-svg-c28{fill:#ef6f59}.msportalfx-svg-c29{fill:#f7cb64}.msportalfx-svg-c30{fill:#fdd8db}.msportalfx-svg-c31{fill:#f6ffec}.msportalfx-svg-c33{fill:#8a2da5}.msportalfx-svg-c34{fill:#e00b1c}.msportalfx-svg-c35{fill:#015cda}.msportalfx-svg-c36{fill:#5db300}.msportalfx-svg-c97{fill:#ffb900}.msportalfx-svg-c98{fill:#00a4ef}.msportalfx-svg-c99{fill:#f25022}.msportalfx-inverted-theme .msportalfx-svg-c05,.fxs-theme-dark .msportalfx-svg-c05{fill:#777}.msportalfx-inverted-theme .msportalfx-svg-c07,.fxs-theme-dark .msportalfx-svg-c07{fill:#f2f2f2}.msportalfx-svg-palette-white{fill:#fff}.msportalfx-svg-palette-blue{fill:#015cda}.msportalfx-svg-palette-black{fill:#1e1e1e}.msportalfx-svg-palette-green{fill:#57a300}.msportalfx-svg-palette-gray{fill:#a0a1a2}.msportalfx-svg-palette-inherit{fill:inherit}.msportalfx-svg-badge{position:absolute;left:0;bottom:0;min-height:10px;min-width:10px}.fxc-menu-icon>.msportalfx-svg-badge{left:-2px;bottom:-2px;min-height:8px;min-width:8px}.msportalfx-svg-disabled{filter:grayscale(100%)}.msportalfx-svg-loading-square{animation:ProgressFlagAnimation 1.45s infinite ease-in-out;transform-origin:50%}.msportalfx-svg-loading-square:nth-child(1){animation-delay:0s}.msportalfx-svg-loading-square:nth-child(2){animation-delay:.2s}.msportalfx-svg-loading-square:nth-child(3){animation-delay:.4s}@keyframes ProgressFlagAnimation{0%{transform:scale(1);opacity:.3}36.1%{transform:scale(1.06);opacity:1}50%{transform:scale(1.06);opacity:1}86.1%{transform:scale(1);opacity:.3}}.msportalfx-svg-flip-horizontal>svg,svg.msportalfx-svg-flip-horizontal{transform:scaleX(-1)}.msportalfx-svg-fabric-rotate360{animation:ImageRotation 1.3s cubic-bezier(.53,.21,.29,.67) infinite}@keyframes ImageRotation{0%{transform:rotate(-45deg)}100%{transform:rotate(315deg)}}.fxs-svg-number .msportalfx-font-bold{font-size:10px;fill:#0065ad}.fxs-svg-number .fxs-svg-circle{stroke-width:0%;fill:#0078d4}.fxs-svg-number .fxs-svg-text{fill:#fff;font-size:10px}.fxs-svg-number.msportalfx-svg-disabled{filter:grayscale(0%)}.fxs-svg-number.msportalfx-svg-disabled .fxs-svg-circle{fill:#fff;stroke-width:1px;stroke:#949494}.fxs-svg-number.msportalfx-svg-disabled .fxs-svg-text{fill:#949494}.fxs-theme-dark .fxs-svg-number .fxs-svg-text{fill:#0f0f0f}.fxs-theme-dark .fxs-svg-number .fxs-svg-circle{stroke-width:0%;fill:#0078d4}.fxs-theme-dark .fxs-svg-number.msportalfx-svg-disabled .fxs-svg-circle{fill:#0f0f0f;stroke-width:1px;stroke:#949494}.fxs-theme-dark .fxs-svg-number.msportalfx-svg-disabled .fxs-svg-text{fill:#949494}</style></svg>