<svg viewBox="0 0 18 18"><defs><linearGradient id="pWsUI-SRy__a" x1="3.907" x2="3.907" y1="835.989" y2="840.232" gradientTransform="matrix(1 0 0 -1 0 847.139)" gradientUnits="userSpaceOnUse"><stop offset="0" stop-color="#773adc"/><stop offset="1" stop-color="#a67af4"/></linearGradient></defs><path fill="#a3a3a3" d="M.613.993h1.363v3.782a.306.306 0 0 1-.306.306H.307A.306.306 0 0 1 0 4.775V1.606A.6.6 0 0 1 .592.993Z"/><path fill="#a3a3a3" d="M.613.993h1.363v3.782a.306.306 0 0 1-.306.306H.307A.306.306 0 0 1 0 4.775V1.606A.6.6 0 0 1 .592.993Z" opacity=".5"/><path fill="#a3a3a3" d="M16.025.993h1.362a.6.6 0 0 1 .6.6v3.18a.306.306 0 0 1-.306.306h-1.35a.306.306 0 0 1-.306-.306z"/><path fill="#a3a3a3" d="M16.025.993h1.362a.6.6 0 0 1 .6.6v3.18a.306.306 0 0 1-.306.306h-1.35a.306.306 0 0 1-.306-.306z" opacity=".5"/><path fill="#949494" d="M17.989 1.585v1.32H.032v-1.32a.6.6 0 0 1 .6-.6h16.755a.6.6 0 0 1 .602.6"/><path fill="#a3a3a3" d="M.307 12.9H1.67a.306.306 0 0 1 .306.306v3.813H.613A.6.6 0 0 1 0 16.426v-3.201a.306.306 0 0 1 .285-.325Z"/><path fill="#a3a3a3" d="M.307 12.9H1.67a.306.306 0 0 1 .306.306v3.813H.613A.6.6 0 0 1 0 16.426v-3.201a.306.306 0 0 1 .285-.325Z" opacity=".5"/><path fill="#a3a3a3" d="M16.331 12.9h1.363a.306.306 0 0 1 .306.3v3.169a.6.6 0 0 1-.6.6h-1.375v-3.75a.306.306 0 0 1 .284-.327Z"/><path fill="#a3a3a3" d="M16.331 12.9h1.363a.306.306 0 0 1 .306.3v3.169a.6.6 0 0 1-.6.6h-1.375v-3.75a.306.306 0 0 1 .284-.327Z" opacity=".5"/><path fill="#949494" d="M0 16.415V15.1h17.958v1.32a.6.6 0 0 1-.6.6H.6a.6.6 0 0 1-.6-.605"/><path fill="#0078d4" d="M13.672 9.409v-.795H8.709V5.263h4.14v-.795h-4.14a.8.8 0 0 0-.795.8v3.346H4.383v.8h3.54v3.328a.8.8 0 0 0 .8.794h4.131v-.795H8.718V9.409Z"/><circle cx="14.042" cy="8.97" r="1.213" fill="#5ea0ef"/><circle cx="3.907" cy="9.008" r="1.72" fill="url(#pWsUI-SRy__a)"/><circle cx="12.947" cy="13.171" r="1.213" fill="#5ea0ef"/><circle cx="12.947" cy="4.829" r="1.213" fill="#5ea0ef"/>​<style>.msportalfx-svg-c01{fill:#fff}.msportalfx-svg-c02{fill:#e5e5e5}.msportalfx-svg-c03{fill:#a0a1a2}.msportalfx-svg-c04{fill:#7a7a7a}.msportalfx-svg-c05{fill:#3e3e3e}.msportalfx-svg-c06{fill:#1e1e1e}.msportalfx-svg-c07{fill:#0f0f0f}.msportalfx-svg-c08{fill:#ba141a}.msportalfx-svg-c09{fill:#dd5900}.msportalfx-svg-c10{fill:#ff8c00}.msportalfx-svg-c11{fill:#fcd116}.msportalfx-svg-c12{fill:#fee087}.msportalfx-svg-c13{fill:#b8d432}.msportalfx-svg-c14,.msportalfx-svg-c32{fill:#57a300}.msportalfx-svg-c15{fill:#59b4d9}.msportalfx-svg-c16{fill:#3999c6}.msportalfx-svg-c17{fill:#804998}.msportalfx-svg-c18{fill:#ec008c}.msportalfx-svg-c19{fill:#0072c6}.msportalfx-svg-c20{fill:#68217a}.msportalfx-svg-c21{fill:#00188f}.msportalfx-svg-c22{fill:#e81123}.fxs-mode-light .msportalfx-svg-c22{fill:#a4262c}.msportalfx-svg-c23{fill:#cae3f3}.msportalfx-svg-c24{fill:#59aed3}.msportalfx-svg-c25{fill:#4c3b12}.msportalfx-svg-c26{fill:#be9555}.msportalfx-svg-c27{fill:#4f4d52}.msportalfx-svg-c28{fill:#ef6f59}.msportalfx-svg-c29{fill:#f7cb64}.msportalfx-svg-c30{fill:#fdd8db}.msportalfx-svg-c31{fill:#f6ffec}.msportalfx-svg-c33{fill:#8a2da5}.msportalfx-svg-c34{fill:#e00b1c}.msportalfx-svg-c35{fill:#015cda}.msportalfx-svg-c36{fill:#5db300}.msportalfx-svg-c97{fill:#ffb900}.msportalfx-svg-c98{fill:#00a4ef}.msportalfx-svg-c99{fill:#f25022}.msportalfx-inverted-theme .msportalfx-svg-c05,.fxs-theme-dark .msportalfx-svg-c05{fill:#777}.msportalfx-inverted-theme .msportalfx-svg-c07,.fxs-theme-dark .msportalfx-svg-c07{fill:#f2f2f2}.msportalfx-svg-palette-white{fill:#fff}.msportalfx-svg-palette-blue{fill:#015cda}.msportalfx-svg-palette-black{fill:#1e1e1e}.msportalfx-svg-palette-green{fill:#57a300}.msportalfx-svg-palette-gray{fill:#a0a1a2}.msportalfx-svg-palette-inherit{fill:inherit}.msportalfx-svg-badge{position:absolute;left:0;bottom:0;min-height:10px;min-width:10px}.fxc-menu-icon>.msportalfx-svg-badge{left:-2px;bottom:-2px;min-height:8px;min-width:8px}.msportalfx-svg-disabled{filter:grayscale(100%)}.msportalfx-svg-loading-square{animation:ProgressFlagAnimation 1.45s infinite ease-in-out;transform-origin:50%}.msportalfx-svg-loading-square:nth-child(1){animation-delay:0s}.msportalfx-svg-loading-square:nth-child(2){animation-delay:.2s}.msportalfx-svg-loading-square:nth-child(3){animation-delay:.4s}@keyframes ProgressFlagAnimation{0%{transform:scale(1);opacity:.3}36.1%{transform:scale(1.06);opacity:1}50%{transform:scale(1.06);opacity:1}86.1%{transform:scale(1);opacity:.3}}.msportalfx-svg-flip-horizontal>svg,svg.msportalfx-svg-flip-horizontal{transform:scaleX(-1)}.msportalfx-svg-fabric-rotate360{animation:ImageRotation 1.3s cubic-bezier(.53,.21,.29,.67) infinite}@keyframes ImageRotation{0%{transform:rotate(-45deg)}100%{transform:rotate(315deg)}}.fxs-svg-number .msportalfx-font-bold{font-size:10px;fill:#0065ad}.fxs-svg-number .fxs-svg-circle{stroke-width:0%;fill:#0078d4}.fxs-svg-number .fxs-svg-text{fill:#fff;font-size:10px}.fxs-svg-number.msportalfx-svg-disabled{filter:grayscale(0%)}.fxs-svg-number.msportalfx-svg-disabled .fxs-svg-circle{fill:#fff;stroke-width:1px;stroke:#949494}.fxs-svg-number.msportalfx-svg-disabled .fxs-svg-text{fill:#949494}.fxs-theme-dark .fxs-svg-number .fxs-svg-text{fill:#0f0f0f}.fxs-theme-dark .fxs-svg-number .fxs-svg-circle{stroke-width:0%;fill:#0078d4}.fxs-theme-dark .fxs-svg-number.msportalfx-svg-disabled .fxs-svg-circle{fill:#0f0f0f;stroke-width:1px;stroke:#949494}.fxs-theme-dark .fxs-svg-number.msportalfx-svg-disabled .fxs-svg-text{fill:#949494}</style></svg>