<svg viewBox="0 0 18 18" class="msportalfx-svg-placeholder"><defs><linearGradient id="p93aBXZ7r__a" x1="8.981" x2="8.981" y1="11.453" y2="6.949" gradientUnits="userSpaceOnUse"><stop offset=".255" stop-color="#0078d4"/><stop offset="1" stop-color="#5ea0ef"/></linearGradient></defs><path fill="none" stroke="#b3b3b3" stroke-miterlimit="10" stroke-width=".75" d="m6.092 5.301 5.764 8.256"/><path fill="#32bedd" d="M6.355 4.559A1.026 1.026 0 1 0 7.38 5.585a1.025 1.025 0 0 0-1.025-1.026"/><path fill="#773adc" d="M11.516 11.886a1.026 1.026 0 1 0 1.026 1.025 1.025 1.025 0 0 0-1.025-1.025Z"/><path fill="none" stroke="#b3b3b3" stroke-miterlimit="10" stroke-width=".75" d="M3.129 9.201h11.108"/><path fill="#773adc" d="M3.215 8.106A1.026 1.026 0 1 0 4.24 9.131a1.024 1.024 0 0 0-1.025-1.025"/><path fill="#32bedd" d="M13.722 8.175A1.026 1.026 0 1 0 14.747 9.2a1.025 1.025 0 0 0-1.025-1.025"/><path fill="#4f4f4f" stroke="#b3b3b3" stroke-miterlimit="10" stroke-width=".75" d="m5.193 14.022 7.425-10.087"/><path fill="#32bedd" d="M5.183 14.962a1.024 1.024 0 0 0 1.031-1.018 1.026 1.026 0 1 0-1.032 1.019Z"/><path fill="#773adc" d="M12.258 5.29a1.025 1.025 0 0 0 1.031-1.019 1.026 1.026 0 1 0-1.032 1.019Z"/><circle cx="8.981" cy="9.201" r="2.252" fill="url(#p93aBXZ7r__a)"/><g fill="#999"><path d="M1.066 0h1.29v3.6a.29.29 0 0 1-.29.29H.786A.29.29 0 0 1 .5 3.6v-3a.57.57 0 0 1 .535-.6Z"/><path d="M1.066 0h1.29v3.6a.29.29 0 0 1-.29.29H.786A.29.29 0 0 1 .5 3.6v-3a.57.57 0 0 1 .535-.6Z" opacity=".5"/></g><g fill="#999"><path d="M15.636 0h1.28a.57.57 0 0 1 .57.57v3a.29.29 0 0 1-.29.29h-1.28a.29.29 0 0 1-.29-.29V0Z"/><path d="M15.636 0h1.28a.57.57 0 0 1 .57.57v3a.29.29 0 0 1-.29.29h-1.28a.29.29 0 0 1-.29-.29V0Z" opacity=".5"/></g><path fill="#949494" d="M17.5.57v1.26H.5V.57A.57.57 0 0 1 1.066 0h15.86a.57.57 0 0 1 .574.57"/><g fill="#999"><path d="M.786 14.1h1.29a.29.29 0 0 1 .29.29v3.6h-1.3a.57.57 0 0 1-.57-.57v-3a.29.29 0 0 1 .258-.32z"/><path d="M.786 14.1h1.29a.29.29 0 0 1 .29.29v3.6h-1.3a.57.57 0 0 1-.57-.57v-3a.29.29 0 0 1 .258-.32z" opacity=".5"/></g><g fill="#999"><path d="M15.916 14.1h1.3a.29.29 0 0 1 .29.29v3a.57.57 0 0 1-.57.57h-1.3v-3.6a.29.29 0 0 1 .28-.26"/><path d="M15.916 14.1h1.3a.29.29 0 0 1 .29.29v3a.57.57 0 0 1-.57.57h-1.3v-3.6a.29.29 0 0 1 .28-.26" opacity=".5"/></g><path fill="#949494" d="M.5 17.43v-1.26h17v1.26a.57.57 0 0 1-.57.57H1.066a.57.57 0 0 1-.566-.57"/><style>.msportalfx-svg-c01{fill:#fff}.msportalfx-svg-c02{fill:#e5e5e5}.msportalfx-svg-c03{fill:#a0a1a2}.msportalfx-svg-c04{fill:#7a7a7a}.msportalfx-svg-c05{fill:#3e3e3e}.msportalfx-svg-c06{fill:#1e1e1e}.msportalfx-svg-c07{fill:#0f0f0f}.msportalfx-svg-c08{fill:#ba141a}.msportalfx-svg-c09{fill:#dd5900}.msportalfx-svg-c10{fill:#ff8c00}.msportalfx-svg-c11{fill:#fcd116}.msportalfx-svg-c12{fill:#fee087}.msportalfx-svg-c13{fill:#b8d432}.msportalfx-svg-c14,.msportalfx-svg-c32{fill:#57a300}.msportalfx-svg-c15{fill:#59b4d9}.msportalfx-svg-c16{fill:#3999c6}.msportalfx-svg-c17{fill:#804998}.msportalfx-svg-c18{fill:#ec008c}.msportalfx-svg-c19{fill:#0072c6}.msportalfx-svg-c20{fill:#68217a}.msportalfx-svg-c21{fill:#00188f}.msportalfx-svg-c22{fill:#e81123}.fxs-mode-light .msportalfx-svg-c22{fill:#a4262c}.msportalfx-svg-c23{fill:#cae3f3}.msportalfx-svg-c24{fill:#59aed3}.msportalfx-svg-c25{fill:#4c3b12}.msportalfx-svg-c26{fill:#be9555}.msportalfx-svg-c27{fill:#4f4d52}.msportalfx-svg-c28{fill:#ef6f59}.msportalfx-svg-c29{fill:#f7cb64}.msportalfx-svg-c30{fill:#fdd8db}.msportalfx-svg-c31{fill:#f6ffec}.msportalfx-svg-c33{fill:#8a2da5}.msportalfx-svg-c34{fill:#e00b1c}.msportalfx-svg-c35{fill:#015cda}.msportalfx-svg-c36{fill:#5db300}.msportalfx-svg-c97{fill:#ffb900}.msportalfx-svg-c98{fill:#00a4ef}.msportalfx-svg-c99{fill:#f25022}.msportalfx-inverted-theme .msportalfx-svg-c05,.fxs-theme-dark .msportalfx-svg-c05{fill:#777}.msportalfx-inverted-theme .msportalfx-svg-c07,.fxs-theme-dark .msportalfx-svg-c07{fill:#f2f2f2}.msportalfx-svg-palette-white{fill:#fff}.msportalfx-svg-palette-blue{fill:#015cda}.msportalfx-svg-palette-black{fill:#1e1e1e}.msportalfx-svg-palette-green{fill:#57a300}.msportalfx-svg-palette-gray{fill:#a0a1a2}.msportalfx-svg-palette-inherit{fill:inherit}.msportalfx-svg-badge{position:absolute;left:0;bottom:0;min-height:10px;min-width:10px}.fxc-menu-icon>.msportalfx-svg-badge{left:-2px;bottom:-2px;min-height:8px;min-width:8px}.msportalfx-svg-disabled{filter:grayscale(100%)}.msportalfx-svg-loading-square{animation:ProgressFlagAnimation 1.45s infinite ease-in-out;transform-origin:50%}.msportalfx-svg-loading-square:nth-child(1){animation-delay:0s}.msportalfx-svg-loading-square:nth-child(2){animation-delay:.2s}.msportalfx-svg-loading-square:nth-child(3){animation-delay:.4s}@keyframes ProgressFlagAnimation{0%{transform:scale(1);opacity:.3}36.1%{transform:scale(1.06);opacity:1}50%{transform:scale(1.06);opacity:1}86.1%{transform:scale(1);opacity:.3}}.msportalfx-svg-flip-horizontal>svg,svg.msportalfx-svg-flip-horizontal{transform:scaleX(-1)}.msportalfx-svg-fabric-rotate360{animation:ImageRotation 1.3s cubic-bezier(.53,.21,.29,.67) infinite}@keyframes ImageRotation{0%{transform:rotate(-45deg)}100%{transform:rotate(315deg)}}.fxs-svg-number .msportalfx-font-bold{font-size:10px;fill:#0065ad}.fxs-svg-number .fxs-svg-circle{stroke-width:0%;fill:#0078d4}.fxs-svg-number .fxs-svg-text{fill:#fff;font-size:10px}.fxs-svg-number.msportalfx-svg-disabled{filter:grayscale(0%)}.fxs-svg-number.msportalfx-svg-disabled .fxs-svg-circle{fill:#fff;stroke-width:1px;stroke:#949494}.fxs-svg-number.msportalfx-svg-disabled .fxs-svg-text{fill:#949494}.fxs-theme-dark .fxs-svg-number .fxs-svg-text{fill:#0f0f0f}.fxs-theme-dark .fxs-svg-number .fxs-svg-circle{stroke-width:0%;fill:#0078d4}.fxs-theme-dark .fxs-svg-number.msportalfx-svg-disabled .fxs-svg-circle{fill:#0f0f0f;stroke-width:1px;stroke:#949494}.fxs-theme-dark .fxs-svg-number.msportalfx-svg-disabled .fxs-svg-text{fill:#949494}</style></svg>