<svg viewBox="0 0 18 18"><defs><linearGradient id="pHC9_BVew__a" x1="7.268" x2="7.268" y1="18" y2="0" gradientUnits="userSpaceOnUse"><stop offset="0" stop-color="#198ab3"/><stop offset="1" stop-color="#32bedd"/></linearGradient></defs><path fill="#32bedd" d="M3.638 6.293v1.526a.38.38 0 0 0 .381.381h1.526a.38.38 0 0 0 .381-.381V6.293a.38.38 0 0 0-.381-.381H4.019a.38.38 0 0 0-.381.381m0-3.888v1.526a.38.38 0 0 0 .381.381h1.526a.38.38 0 0 0 .381-.381V2.405a.38.38 0 0 0-.381-.381H4.019a.38.38 0 0 0-.381.381m0 7.777v1.525a.38.38 0 0 0 .381.381h1.526a.38.38 0 0 0 .381-.381v-1.525a.38.38 0 0 0-.381-.381H4.019a.38.38 0 0 0-.381.381m0 3.888v1.526a.38.38 0 0 0 .381.381h1.526a.38.38 0 0 0 .381-.381V14.07a.38.38 0 0 0-.381-.381H4.019a.38.38 0 0 0-.381.381"/><path fill="#7fcb30" d="M15.225 5.566V4.534a.09.09 0 0 0-.089-.089H8.195a.09.09 0 0 1-.089-.09V3.264a.09.09 0 0 1 .089-.09h6.941a.09.09 0 0 0 .09-.088V2.054a.09.09 0 0 1 .088-.09.1.1 0 0 1 .064.026l1.757 1.757c.035.034.036.09.002.125l-.002.002-1.757 1.757a.09.09 0 0 1-.126 0 .1.1 0 0 1-.026-.064Zm0 4.287V8.821a.09.09 0 0 0-.089-.089H8.195a.09.09 0 0 1-.089-.09V7.551a.09.09 0 0 1 .089-.09h6.941a.09.09 0 0 0 .09-.088V6.341a.09.09 0 0 1 .088-.09.1.1 0 0 1 .064.026l1.757 1.757c.035.034.036.09.002.125l-.002.002-1.757 1.757a.09.09 0 0 1-.126 0 .1.1 0 0 1-.026-.064Zm-5.065 4.789a.822.822 0 0 1 0-1.642h5.065v1.14a.1.1 0 0 0 .026.064.09.09 0 0 0 .126 0l1.757-1.757.002-.002a.09.09 0 0 0-.002-.125l-1.757-1.757a.1.1 0 0 0-.064-.026.09.09 0 0 0-.088.09v1.14H10.16c-1.133 0-2.054.922-2.054 2.054s.922 2.054 2.054 2.054h7.001v-1.233z"/><path fill="url(#pHC9_BVew__a)" d="M12.838 16.701v.154a.286.286 0 0 1-.286.286H1.983a.286.286 0 0 1-.286-.286V1.144c0-.158.128-.286.286-.286h10.569c.158 0 .286.128.286.286v1.203h.858V1.144C13.696.513 13.183 0 12.552 0H1.983C1.353 0 .839.513.839 1.144v15.712c0 .631.513 1.144 1.144 1.144h10.569c.631 0 1.144-.513 1.144-1.144v-.154z"/><style>.msportalfx-svg-c01{fill:#fff}.msportalfx-svg-c02{fill:#e5e5e5}.msportalfx-svg-c03{fill:#a0a1a2}.msportalfx-svg-c04{fill:#7a7a7a}.msportalfx-svg-c05{fill:#3e3e3e}.msportalfx-svg-c06{fill:#1e1e1e}.msportalfx-svg-c07{fill:#0f0f0f}.msportalfx-svg-c08{fill:#ba141a}.msportalfx-svg-c09{fill:#dd5900}.msportalfx-svg-c10{fill:#ff8c00}.msportalfx-svg-c11{fill:#fcd116}.msportalfx-svg-c12{fill:#fee087}.msportalfx-svg-c13{fill:#b8d432}.msportalfx-svg-c14,.msportalfx-svg-c32{fill:#57a300}.msportalfx-svg-c15{fill:#59b4d9}.msportalfx-svg-c16{fill:#3999c6}.msportalfx-svg-c17{fill:#804998}.msportalfx-svg-c18{fill:#ec008c}.msportalfx-svg-c19{fill:#0072c6}.msportalfx-svg-c20{fill:#68217a}.msportalfx-svg-c21{fill:#00188f}.msportalfx-svg-c22{fill:#e81123}.fxs-mode-light .msportalfx-svg-c22{fill:#a4262c}.msportalfx-svg-c23{fill:#cae3f3}.msportalfx-svg-c24{fill:#59aed3}.msportalfx-svg-c25{fill:#4c3b12}.msportalfx-svg-c26{fill:#be9555}.msportalfx-svg-c27{fill:#4f4d52}.msportalfx-svg-c28{fill:#ef6f59}.msportalfx-svg-c29{fill:#f7cb64}.msportalfx-svg-c30{fill:#fdd8db}.msportalfx-svg-c31{fill:#f6ffec}.msportalfx-svg-c33{fill:#8a2da5}.msportalfx-svg-c34{fill:#e00b1c}.msportalfx-svg-c35{fill:#015cda}.msportalfx-svg-c36{fill:#5db300}.msportalfx-svg-c97{fill:#ffb900}.msportalfx-svg-c98{fill:#00a4ef}.msportalfx-svg-c99{fill:#f25022}.msportalfx-inverted-theme .msportalfx-svg-c05,.fxs-theme-dark .msportalfx-svg-c05{fill:#777}.msportalfx-inverted-theme .msportalfx-svg-c07,.fxs-theme-dark .msportalfx-svg-c07{fill:#f2f2f2}.msportalfx-svg-palette-white{fill:#fff}.msportalfx-svg-palette-blue{fill:#015cda}.msportalfx-svg-palette-black{fill:#1e1e1e}.msportalfx-svg-palette-green{fill:#57a300}.msportalfx-svg-palette-gray{fill:#a0a1a2}.msportalfx-svg-palette-inherit{fill:inherit}.msportalfx-svg-badge{position:absolute;left:0;bottom:0;min-height:10px;min-width:10px}.fxc-menu-icon>.msportalfx-svg-badge{left:-2px;bottom:-2px;min-height:8px;min-width:8px}.msportalfx-svg-disabled{filter:grayscale(100%)}.msportalfx-svg-loading-square{animation:ProgressFlagAnimation 1.45s infinite ease-in-out;transform-origin:50%}.msportalfx-svg-loading-square:nth-child(1){animation-delay:0s}.msportalfx-svg-loading-square:nth-child(2){animation-delay:.2s}.msportalfx-svg-loading-square:nth-child(3){animation-delay:.4s}@keyframes ProgressFlagAnimation{0%{transform:scale(1);opacity:.3}36.1%{transform:scale(1.06);opacity:1}50%{transform:scale(1.06);opacity:1}86.1%{transform:scale(1);opacity:.3}}.msportalfx-svg-flip-horizontal>svg,svg.msportalfx-svg-flip-horizontal{transform:scaleX(-1)}.msportalfx-svg-fabric-rotate360{animation:ImageRotation 1.3s cubic-bezier(.53,.21,.29,.67) infinite}@keyframes ImageRotation{0%{transform:rotate(-45deg)}100%{transform:rotate(315deg)}}.fxs-svg-number .msportalfx-font-bold{font-size:10px;fill:#0065ad}.fxs-svg-number .fxs-svg-circle{stroke-width:0%;fill:#0078d4}.fxs-svg-number .fxs-svg-text{fill:#fff;font-size:10px}.fxs-svg-number.msportalfx-svg-disabled{filter:grayscale(0%)}.fxs-svg-number.msportalfx-svg-disabled .fxs-svg-circle{fill:#fff;stroke-width:1px;stroke:#949494}.fxs-svg-number.msportalfx-svg-disabled .fxs-svg-text{fill:#949494}.fxs-theme-dark .fxs-svg-number .fxs-svg-text{fill:#0f0f0f}.fxs-theme-dark .fxs-svg-number .fxs-svg-circle{stroke-width:0%;fill:#0078d4}.fxs-theme-dark .fxs-svg-number.msportalfx-svg-disabled .fxs-svg-circle{fill:#0f0f0f;stroke-width:1px;stroke:#949494}.fxs-theme-dark .fxs-svg-number.msportalfx-svg-disabled .fxs-svg-text{fill:#949494}</style></svg>