<svg viewBox="0 0 18 18" class="msportalfx-svg-placeholder" xmlns="http://www.w3.org/2000/svg"><title>Network Security Perimeter</title><desc>Network Security Perimeter is a boundary around PaaS resources. Access between resources on the same network security perimeter is allowed by default.</desc><defs><linearGradient id="peT3NCPqf__a" x1="3.397" x2="3.397" y1="2.087" y2="10.659" gradientUnits="userSpaceOnUse"><stop offset=".167" stop-color="#50e6ff" /><stop offset="1" stop-color="#32bedd" /></linearGradient><linearGradient id="peT3NCPqf__b" x1="-1258.471" x2="-1258.471" y1="827.868" y2="834.423" gradientTransform="rotate(180 -626.176 422.808)" gradientUnits="userSpaceOnUse"><stop offset="0" stop-color="#32bedd" /><stop offset=".826" stop-color="#50e6ff" /></linearGradient><linearGradient id="peT3NCPqf__c" x1="11.505" x2="11.505" y1=".126" y2="6.41" gradientUnits="userSpaceOnUse"><stop offset=".167" stop-color="#50e6ff" /><stop offset="1" stop-color="#32bedd" /></linearGradient></defs><path fill="#0078d4" d="M15.712 4.536v3.1a.136.136 0 0 1-.205.118 2.96 2.96 0 0 0-1.485-.4h-.078a3 3 0 0 0-.293.015.136.136 0 0 1-.147-.137V3.091a.382.382 0 0 1 .62-.3l.02.019L15.6 4.266l.025.028a.4.4 0 0 1 .052.083.4.4 0 0 1 .035.159M4.668 2.162H7.4a.273.273 0 0 1 .193.467l-1.7 1.7a.14.14 0 0 1-.1.04H3.222a.381.381 0 0 1-.269-.65L4.4 2.274a.38.38 0 0 1 .268-.112" /><path fill="url(#peT3NCPqf__a)" d="M4.51 2.162v5.016a.154.154 0 0 0 .154.154h1.717a.15.15 0 0 1 .118.049.153.153 0 0 1-.006.217L3.545 10.53a.153.153 0 0 1-.209 0L.361 7.6a.164.164 0 1 1 .112-.31h1.705a.14.14 0 0 0 .122-.154V4.514a.35.35 0 0 1 .1-.245Z" /><path fill="#0078d4" d="M2.294 13.206v-2.732a.274.274 0 0 1 .468-.193l1.7 1.7a.13.13 0 0 1 .04.1v2.574a.381.381 0 0 1-.65.269l-1.446-1.448a.4.4 0 0 1-.112-.27" /><path fill="url(#peT3NCPqf__b)" d="M2.294 13.364h4.254a.154.154 0 0 0 .152-.154v-1.716a.15.15 0 0 1 .049-.119.153.153 0 0 1 .217.006L9.9 14.329a.153.153 0 0 1 0 .209l-2.932 2.976a.164.164 0 0 1-.308-.114v-1.7a.14.14 0 0 0-.153-.124H4.646a.35.35 0 0 1-.245-.1Z" /><path fill="url(#peT3NCPqf__c)" d="M15.71 4.379h-5.047a.14.14 0 0 0-.075.041.15.15 0 0 0-.048.109v1.72a.15.15 0 0 1-.049.119l-.023.019a.154.154 0 0 1-.192-.026L7.342 3.414a.154.154 0 0 1 0-.21L10.275.229s.1-.128.209-.1c.087.023.1.119.1.21v1.7a.2.2 0 0 0 .015.05.13.13 0 0 0 .136.074h2.624a.3.3 0 0 1 .1.015l.033.011a.4.4 0 0 1 .111.075l2.021 2.022Z" /><path fill="#ffbd02" d="M17.619 12.58h-.006a.2.2 0 0 0-.039-.031.2.2 0 0 0-.052-.029l-.035-.014a.1.1 0 0 0-.033-.01h-.612v-1.71a3.22 3.22 0 0 0-.82-2.161 2.725 2.725 0 0 0-4.079 0 3.16 3.16 0 0 0-.821 2.161v1.694h-.468l-.038.006a.4.4 0 0 0-.126.045l-.027.017-.035.027-.019.018-.019.021-.038.052a.3.3 0 0 0-.029.06l-.01.031-.008.032c0 .012-.005.023-.006.035v4.408a.4.4 0 0 0 .034.149l.014.03a.4.4 0 0 0 .107.124h.007a.4.4 0 0 0 .221.073h6.691a.37.37 0 0 0 .231-.082.38.38 0 0 0 .15-.3v-4.365a.38.38 0 0 0-.135-.281m-5.174-1.822a1.74 1.74 0 0 1 .477-1.184 1.37 1.37 0 0 1 1.93-.147 1.3 1.3 0 0 1 .148.147 2 2 0 0 1 .179.238 1.7 1.7 0 0 1 .24.447 1.7 1.7 0 0 1 .091.5v1.722h-3.065Z" /><path fill="#ffe452" d="M17.747 12.861v4.373a.38.38 0 0 1-.15.3l-3.565-2.468h-.007l-3.588-2.483a.37.37 0 0 1 .176-.087l.038-.006h6.8a.1.1 0 0 1 .033.01l.035.014a.2.2 0 0 1 .052.029.2.2 0 0 1 .039.031h.006a.38.38 0 0 1 .131.287" opacity=".4" /><path fill="#ffe452" d="M17.613 12.576h-.007l-3.58 2.48h-.007l-3.571 2.473h-.006a.4.4 0 0 1-.115-.128l-.013-.03a.4.4 0 0 1-.021-.121v-4.437q-.002-.018.006-.035l.008-.032.01-.031a.3.3 0 0 1 .029-.06l.038-.052.016-.003.019-.018.035-.027.027-.017a.3.3 0 0 1 .112-.045l.038-.006h6.813a.1.1 0 0 1 .033.01l.035.014a.2.2 0 0 1 .052.029.2.2 0 0 1 .049.036" opacity=".4" /><style>.msportalfx-svg-c01{fill:#fff}.msportalfx-svg-c02{fill:#e5e5e5}.msportalfx-svg-c03{fill:#a0a1a2}.msportalfx-svg-c04{fill:#7a7a7a}.msportalfx-svg-c05{fill:#3e3e3e}.msportalfx-svg-c06{fill:#1e1e1e}.msportalfx-svg-c07{fill:#0f0f0f}.msportalfx-svg-c08{fill:#ba141a}.msportalfx-svg-c09{fill:#dd5900}.msportalfx-svg-c10{fill:#ff8c00}.msportalfx-svg-c11{fill:#fcd116}.msportalfx-svg-c12{fill:#fee087}.msportalfx-svg-c13{fill:#b8d432}.msportalfx-svg-c14,.msportalfx-svg-c32{fill:#57a300}.msportalfx-svg-c15{fill:#59b4d9}.msportalfx-svg-c16{fill:#3999c6}.msportalfx-svg-c17{fill:#804998}.msportalfx-svg-c18{fill:#ec008c}.msportalfx-svg-c19{fill:#0072c6}.msportalfx-svg-c20{fill:#68217a}.msportalfx-svg-c21{fill:#00188f}.msportalfx-svg-c22{fill:#e81123}.fxs-mode-light .msportalfx-svg-c22{fill:#a4262c}.msportalfx-svg-c23{fill:#cae3f3}.msportalfx-svg-c24{fill:#59aed3}.msportalfx-svg-c25{fill:#4c3b12}.msportalfx-svg-c26{fill:#be9555}.msportalfx-svg-c27{fill:#4f4d52}.msportalfx-svg-c28{fill:#ef6f59}.msportalfx-svg-c29{fill:#f7cb64}.msportalfx-svg-c30{fill:#fdd8db}.msportalfx-svg-c31{fill:#f6ffec}.msportalfx-svg-c33{fill:#8a2da5}.msportalfx-svg-c34{fill:#e00b1c}.msportalfx-svg-c35{fill:#015cda}.msportalfx-svg-c36{fill:#5db300}.msportalfx-svg-c97{fill:#ffb900}.msportalfx-svg-c98{fill:#00a4ef}.msportalfx-svg-c99{fill:#f25022}.msportalfx-inverted-theme .msportalfx-svg-c05,.fxs-theme-dark .msportalfx-svg-c05{fill:#777}.msportalfx-inverted-theme .msportalfx-svg-c07,.fxs-theme-dark .msportalfx-svg-c07{fill:#f2f2f2}.msportalfx-svg-palette-white{fill:#fff}.msportalfx-svg-palette-blue{fill:#015cda}.msportalfx-svg-palette-black{fill:#1e1e1e}.msportalfx-svg-palette-green{fill:#57a300}.msportalfx-svg-palette-gray{fill:#a0a1a2}.msportalfx-svg-palette-inherit{fill:inherit}.msportalfx-svg-badge{position:absolute;left:0;bottom:0;min-height:10px;min-width:10px}.fxc-menu-icon&gt;.msportalfx-svg-badge{left:-2px;bottom:-2px;min-height:8px;min-width:8px}.msportalfx-svg-disabled{filter:grayscale(100%)}.msportalfx-svg-loading-square{animation:ProgressFlagAnimation 1.45s infinite ease-in-out;transform-origin:50%}.msportalfx-svg-loading-square:nth-child(1){animation-delay:0s}.msportalfx-svg-loading-square:nth-child(2){animation-delay:.2s}.msportalfx-svg-loading-square:nth-child(3){animation-delay:.4s}@keyframes ProgressFlagAnimation{0%{transform:scale(1);opacity:.3}36.1%{transform:scale(1.06);opacity:1}50%{transform:scale(1.06);opacity:1}86.1%{transform:scale(1);opacity:.3}}.msportalfx-svg-flip-horizontal&gt;svg,svg.msportalfx-svg-flip-horizontal{transform:scaleX(-1)}.msportalfx-svg-fabric-rotate360{animation:ImageRotation 1.3s cubic-bezier(.53,.21,.29,.67) infinite}@keyframes ImageRotation{0%{transform:rotate(-45deg)}100%{transform:rotate(315deg)}}.fxs-svg-number .msportalfx-font-bold{font-size:10px;fill:#0065ad}.fxs-svg-number .fxs-svg-circle{stroke-width:0%;fill:#0078d4}.fxs-svg-number .fxs-svg-text{fill:#fff;font-size:10px}.fxs-svg-number.msportalfx-svg-disabled{filter:grayscale(0%)}.fxs-svg-number.msportalfx-svg-disabled .fxs-svg-circle{fill:#fff;stroke-width:1px;stroke:#949494}.fxs-svg-number.msportalfx-svg-disabled .fxs-svg-text{fill:#949494}.fxs-theme-dark .fxs-svg-number .fxs-svg-text{fill:#0f0f0f}.fxs-theme-dark .fxs-svg-number .fxs-svg-circle{stroke-width:0%;fill:#0078d4}.fxs-theme-dark .fxs-svg-number.msportalfx-svg-disabled .fxs-svg-circle{fill:#0f0f0f;stroke-width:1px;stroke:#949494}.fxs-theme-dark .fxs-svg-number.msportalfx-svg-disabled .fxs-svg-text{fill:#949494}</style></svg>