<svg viewBox="0 0 18 18" class="msportalfx-svg-placeholder" xmlns="http://www.w3.org/2000/svg"><title>Dashboard hub</title><desc></desc><defs><linearGradient id="p8SHws82q__a" x1="4.984" x2="8.956" y1="18.749" y2="4.782" gradientUnits="userSpaceOnUse"><stop offset="0" stop-color="#258277" /><stop offset=".2" stop-color="#27887d" /><stop offset=".5" stop-color="#2c9a8d" /><stop offset="1" stop-color="#37c2b1" /></linearGradient><linearGradient id="p8SHws82q__b" x1="6.489" x2="9.98" y1="19.216" y2="5.02" gradientUnits="userSpaceOnUse"><stop offset="0" stop-color="#258277" /><stop offset=".3" stop-color="#2ea193" /><stop offset=".7" stop-color="#34b9a9" /><stop offset="1" stop-color="#37c2b1" /></linearGradient><linearGradient id="p8SHws82q__c" x1="10.741" x2="10.741" y1="12.441" y2="1.908" gradientUnits="userSpaceOnUse"><stop offset="0" stop-color="#37c2b1" /><stop offset="1" stop-color="#3cd4c2" /></linearGradient></defs><path fill="url(#p8SHws82q__a)" d="M14.087 5.605H.442a.427.427 0 0 0-.442.41v9.464a.43.43 0 0 0 .443.4h13.644a.42.42 0 0 0 .435-.4V6a.42.42 0 0 0-.435-.395" /><path fill="url(#p8SHws82q__b)" d="M15.826 3.866H2.182a.43.43 0 0 0-.443.411v9.463a.426.426 0 0 0 .443.394h13.644a.42.42 0 0 0 .435-.394V4.26a.42.42 0 0 0-.435-.394" /><path fill="url(#p8SHws82q__c)" d="M17.556 2.149H3.933a.426.426 0 0 0-.441.411v9.448a.426.426 0 0 0 .442.394h13.622a.42.42 0 0 0 .434-.394V2.543a.417.417 0 0 0-.434-.394" /><rect width="1.234" height="7.53" x="13.527" y="3.414" fill="#fff" opacity=".9" rx=".119" /><rect width="6.904" height="1.56" x="4.803" y="9.392" fill="#fff" opacity=".6" rx=".128" /><rect width="1.234" height="4.45" x="15.419" y="6.494" fill="#fff" opacity=".9" rx=".091" /><path fill="#fff" d="M10.835 3.869 9.119 6.922 7.305 5.073 5.434 7.498l.439.344 1.483-1.913L9.24 7.851l2.081-3.702z" /><ellipse cx="7.326" cy="5.499" fill="#fff" rx=".705" ry=".709" /><ellipse cx="9.24" cy="7.258" fill="#fff" rx=".705" ry=".709" /><ellipse cx="11.016" cy="4.097" fill="#fff" rx=".705" ry=".709" /><ellipse cx="5.727" cy="7.567" fill="#fff" rx=".705" ry=".709" /><style>.msportalfx-svg-c01{fill:#fff}.msportalfx-svg-c02{fill:#e5e5e5}.msportalfx-svg-c03{fill:#a0a1a2}.msportalfx-svg-c04{fill:#7a7a7a}.msportalfx-svg-c05{fill:#3e3e3e}.msportalfx-svg-c06{fill:#1e1e1e}.msportalfx-svg-c07{fill:#0f0f0f}.msportalfx-svg-c08{fill:#ba141a}.msportalfx-svg-c09{fill:#dd5900}.msportalfx-svg-c10{fill:#ff8c00}.msportalfx-svg-c11{fill:#fcd116}.msportalfx-svg-c12{fill:#fee087}.msportalfx-svg-c13{fill:#b8d432}.msportalfx-svg-c14,.msportalfx-svg-c32{fill:#57a300}.msportalfx-svg-c15{fill:#59b4d9}.msportalfx-svg-c16{fill:#3999c6}.msportalfx-svg-c17{fill:#804998}.msportalfx-svg-c18{fill:#ec008c}.msportalfx-svg-c19{fill:#0072c6}.msportalfx-svg-c20{fill:#68217a}.msportalfx-svg-c21{fill:#00188f}.msportalfx-svg-c22{fill:#e81123}.fxs-mode-light .msportalfx-svg-c22{fill:#a4262c}.msportalfx-svg-c23{fill:#cae3f3}.msportalfx-svg-c24{fill:#59aed3}.msportalfx-svg-c25{fill:#4c3b12}.msportalfx-svg-c26{fill:#be9555}.msportalfx-svg-c27{fill:#4f4d52}.msportalfx-svg-c28{fill:#ef6f59}.msportalfx-svg-c29{fill:#f7cb64}.msportalfx-svg-c30{fill:#fdd8db}.msportalfx-svg-c31{fill:#f6ffec}.msportalfx-svg-c33{fill:#8a2da5}.msportalfx-svg-c34{fill:#e00b1c}.msportalfx-svg-c35{fill:#015cda}.msportalfx-svg-c36{fill:#5db300}.msportalfx-svg-c97{fill:#ffb900}.msportalfx-svg-c98{fill:#00a4ef}.msportalfx-svg-c99{fill:#f25022}.msportalfx-inverted-theme .msportalfx-svg-c05,.fxs-theme-dark .msportalfx-svg-c05{fill:#777}.msportalfx-inverted-theme .msportalfx-svg-c07,.fxs-theme-dark .msportalfx-svg-c07{fill:#f2f2f2}.msportalfx-svg-palette-white{fill:#fff}.msportalfx-svg-palette-blue{fill:#015cda}.msportalfx-svg-palette-black{fill:#1e1e1e}.msportalfx-svg-palette-green{fill:#57a300}.msportalfx-svg-palette-gray{fill:#a0a1a2}.msportalfx-svg-palette-inherit{fill:inherit}.msportalfx-svg-badge{position:absolute;left:0;bottom:0;min-height:10px;min-width:10px}.fxc-menu-icon&gt;.msportalfx-svg-badge{left:-2px;bottom:-2px;min-height:8px;min-width:8px}.msportalfx-svg-disabled{filter:grayscale(100%)}.msportalfx-svg-loading-square{animation:ProgressFlagAnimation 1.45s infinite ease-in-out;transform-origin:50%}.msportalfx-svg-loading-square:nth-child(1){animation-delay:0s}.msportalfx-svg-loading-square:nth-child(2){animation-delay:.2s}.msportalfx-svg-loading-square:nth-child(3){animation-delay:.4s}@keyframes ProgressFlagAnimation{0%{transform:scale(1);opacity:.3}36.1%{transform:scale(1.06);opacity:1}50%{transform:scale(1.06);opacity:1}86.1%{transform:scale(1);opacity:.3}}.msportalfx-svg-flip-horizontal&gt;svg,svg.msportalfx-svg-flip-horizontal{transform:scaleX(-1)}.msportalfx-svg-fabric-rotate360{animation:ImageRotation 1.3s cubic-bezier(.53,.21,.29,.67) infinite}@keyframes ImageRotation{0%{transform:rotate(-45deg)}100%{transform:rotate(315deg)}}.fxs-svg-number .msportalfx-font-bold{font-size:10px;fill:#0065ad}.fxs-svg-number .fxs-svg-circle{stroke-width:0%;fill:#0078d4}.fxs-svg-number .fxs-svg-text{fill:#fff;font-size:10px}.fxs-svg-number.msportalfx-svg-disabled{filter:grayscale(0%)}.fxs-svg-number.msportalfx-svg-disabled .fxs-svg-circle{fill:#fff;stroke-width:1px;stroke:#949494}.fxs-svg-number.msportalfx-svg-disabled .fxs-svg-text{fill:#949494}.fxs-theme-dark .fxs-svg-number .fxs-svg-text{fill:#0f0f0f}.fxs-theme-dark .fxs-svg-number .fxs-svg-circle{stroke-width:0%;fill:#0078d4}.fxs-theme-dark .fxs-svg-number.msportalfx-svg-disabled .fxs-svg-circle{fill:#0f0f0f;stroke-width:1px;stroke:#949494}.fxs-theme-dark .fxs-svg-number.msportalfx-svg-disabled .fxs-svg-text{fill:#949494}</style></svg>