<svg fill="none" viewBox="0 0 20 20" class="msportalfx-svg-placeholder" xmlns="http://www.w3.org/2000/svg"><title>Security Private Link</title><desc>Manage your private links to securely connect to Microsoft Security services.</desc><g clip-path="url(#pccZKb9tv__a)"><path fill="#B3B3B3" d="M8.722 14.824a1.932 1.932 0 1 0 2.707-2.754 1.9 1.9 0 0 0-.696-.432V3.343H9.498v8.271a1.92 1.92 0 0 0-.778 3.213z" /><path fill="url(#pccZKb9tv__b)" d="M10.093 4.386a1.931 1.931 0 1 0 0-3.863 1.931 1.931 0 0 0 0 3.863" /><path fill="#50E6FF" d="m6.883 18.642-.735.737a.333.333 0 0 1-.472 0L.24 13.96a.667.667 0 0 1-.001-.943l.735-.737 5.908 5.891a.333.333 0 0 1 0 .472" /><path fill="#1490DF" d="m6.04 7.65.736.736a.333.333 0 0 1 .001.471L.971 14.68l-.738-.736A.667.667 0 0 1 .232 13l5.335-5.35a.333.333 0 0 1 .472 0" /><path fill="#50E6FF" d="m19.024 12.28.735.737a.667.667 0 0 1-.001.943l-5.436 5.42a.333.333 0 0 1-.472 0l-.735-.737a.333.333 0 0 1 .001-.472z" /><path fill="#1490DF" d="m19.765 13.941-.737.735-5.806-5.822a.334.334 0 0 1 0-.471l.738-.735a.333.333 0 0 1 .471 0l5.335 5.35a.666.666 0 0 1-.001.943" /><path fill="url(#pccZKb9tv__c)" d="M10.072 15.382a1.931 1.931 0 1 0 0-3.862 1.931 1.931 0 0 0 0 3.862" /></g><g clip-path="url(#pccZKb9tv__d)"><path fill="#76BC2D" d="M13.148 3.75c0 2.032-2.5 3.667-3.044 4a.2.2 0 0 1-.208 0c-.544-.332-3.044-1.967-3.044-4V1.306a.196.196 0 0 1 .193-.195C8.99 1.061 8.542.222 10 .222s1.01.838 2.955.89a.196.196 0 0 1 .193.192z" /><path fill="url(#pccZKb9tv__e)" d="M12.889 3.771c0 1.863-2.293 3.363-2.792 3.667a.18.18 0 0 1-.19 0c-.5-.304-2.796-1.804-2.796-3.667V1.53a.18.18 0 0 1 .178-.177C9.074 1.304 8.663.536 10 .536s.926.768 2.711.816a.18.18 0 0 1 .178.178z" /><path fill="#fff" d="M11.268 3.404h-.181v-.63a1.18 1.18 0 0 0-.311-.803 1.05 1.05 0 0 0-1.548 0 1.16 1.16 0 0 0-.312.803v.63h-.184a.146.146 0 0 0-.145.143v1.636a.146.146 0 0 0 .145.142h2.536a.146.146 0 0 0 .145-.142V3.547a.146.146 0 0 0-.145-.143m-.688 0H9.422v-.64a.64.64 0 0 1 .182-.44.533.533 0 0 1 .795 0 1 1 0 0 1 .068.089.64.64 0 0 1 .115.351z" /><path fill="#B3B3B3" d="M8.732 3.404h2.536q.053.001.093.035L8.64 5.29a.14.14 0 0 1-.051-.107V3.546a.146.146 0 0 1 .144-.142" opacity=".15" /><path fill="#A3A3A3" d="M11.268 3.404H8.732a.15.15 0 0 0-.093.035l2.722 1.85a.14.14 0 0 0 .052-.107V3.546a.146.146 0 0 0-.145-.142" opacity=".09" /></g><defs><linearGradient id="pccZKb9tv__b" x1="10.093" x2="10.093" y1=".61" y2="4.471" gradientUnits="userSpaceOnUse"><stop stop-color="#50E6FF" /><stop offset="1" stop-color="#32BEDD" /></linearGradient><linearGradient id="pccZKb9tv__c" x1="10.072" x2="10.072" y1="15.381" y2="11.52" gradientUnits="userSpaceOnUse"><stop stop-color="#5E9624" /><stop offset=".183" stop-color="#629C25" /><stop offset=".435" stop-color="#6DAE2A" /><stop offset=".726" stop-color="#7FCB30" /><stop offset=".822" stop-color="#86D633" /></linearGradient><linearGradient id="pccZKb9tv__e" x1="10" x2="10" y1="7.464" y2=".536" gradientUnits="userSpaceOnUse"><stop stop-color="#5E9624" /><stop offset=".321" stop-color="#639D26" /><stop offset=".794" stop-color="#6FB12A" /><stop offset=".999" stop-color="#76BC2D" /></linearGradient><clipPath id="pccZKb9tv__a"><path fill="#fff" d="M0 0h20v20H0z" /></clipPath><clipPath id="pccZKb9tv__d"><path fill="#fff" d="M6 0h8v8H6z" /></clipPath></defs><style>.msportalfx-svg-c01{fill:#fff}.msportalfx-svg-c02{fill:#e5e5e5}.msportalfx-svg-c03{fill:#a0a1a2}.msportalfx-svg-c04{fill:#7a7a7a}.msportalfx-svg-c05{fill:#3e3e3e}.msportalfx-svg-c06{fill:#1e1e1e}.msportalfx-svg-c07{fill:#0f0f0f}.msportalfx-svg-c08{fill:#ba141a}.msportalfx-svg-c09{fill:#dd5900}.msportalfx-svg-c10{fill:#ff8c00}.msportalfx-svg-c11{fill:#fcd116}.msportalfx-svg-c12{fill:#fee087}.msportalfx-svg-c13{fill:#b8d432}.msportalfx-svg-c14,.msportalfx-svg-c32{fill:#57a300}.msportalfx-svg-c15{fill:#59b4d9}.msportalfx-svg-c16{fill:#3999c6}.msportalfx-svg-c17{fill:#804998}.msportalfx-svg-c18{fill:#ec008c}.msportalfx-svg-c19{fill:#0072c6}.msportalfx-svg-c20{fill:#68217a}.msportalfx-svg-c21{fill:#00188f}.msportalfx-svg-c22{fill:#e81123}.fxs-mode-light .msportalfx-svg-c22{fill:#a4262c}.msportalfx-svg-c23{fill:#cae3f3}.msportalfx-svg-c24{fill:#59aed3}.msportalfx-svg-c25{fill:#4c3b12}.msportalfx-svg-c26{fill:#be9555}.msportalfx-svg-c27{fill:#4f4d52}.msportalfx-svg-c28{fill:#ef6f59}.msportalfx-svg-c29{fill:#f7cb64}.msportalfx-svg-c30{fill:#fdd8db}.msportalfx-svg-c31{fill:#f6ffec}.msportalfx-svg-c33{fill:#8a2da5}.msportalfx-svg-c34{fill:#e00b1c}.msportalfx-svg-c35{fill:#015cda}.msportalfx-svg-c36{fill:#5db300}.msportalfx-svg-c97{fill:#ffb900}.msportalfx-svg-c98{fill:#00a4ef}.msportalfx-svg-c99{fill:#f25022}.msportalfx-inverted-theme .msportalfx-svg-c05,.fxs-theme-dark .msportalfx-svg-c05{fill:#777}.msportalfx-inverted-theme .msportalfx-svg-c07,.fxs-theme-dark .msportalfx-svg-c07{fill:#f2f2f2}.msportalfx-svg-palette-white{fill:#fff}.msportalfx-svg-palette-blue{fill:#015cda}.msportalfx-svg-palette-black{fill:#1e1e1e}.msportalfx-svg-palette-green{fill:#57a300}.msportalfx-svg-palette-gray{fill:#a0a1a2}.msportalfx-svg-palette-inherit{fill:inherit}.msportalfx-svg-badge{position:absolute;left:0;bottom:0;min-height:10px;min-width:10px}.fxc-menu-icon&gt;.msportalfx-svg-badge{left:-2px;bottom:-2px;min-height:8px;min-width:8px}.msportalfx-svg-disabled{filter:grayscale(100%)}.msportalfx-svg-loading-square{animation:ProgressFlagAnimation 1.45s infinite ease-in-out;transform-origin:50%}.msportalfx-svg-loading-square:nth-child(1){animation-delay:0s}.msportalfx-svg-loading-square:nth-child(2){animation-delay:.2s}.msportalfx-svg-loading-square:nth-child(3){animation-delay:.4s}@keyframes ProgressFlagAnimation{0%{transform:scale(1);opacity:.3}36.1%{transform:scale(1.06);opacity:1}50%{transform:scale(1.06);opacity:1}86.1%{transform:scale(1);opacity:.3}}.msportalfx-svg-flip-horizontal&gt;svg,svg.msportalfx-svg-flip-horizontal{transform:scaleX(-1)}.msportalfx-svg-fabric-rotate360{animation:ImageRotation 1.3s cubic-bezier(.53,.21,.29,.67) infinite}@keyframes ImageRotation{0%{transform:rotate(-45deg)}100%{transform:rotate(315deg)}}.fxs-svg-number .msportalfx-font-bold{font-size:10px;fill:#0065ad}.fxs-svg-number .fxs-svg-circle{stroke-width:0%;fill:#0078d4}.fxs-svg-number .fxs-svg-text{fill:#fff;font-size:10px}.fxs-svg-number.msportalfx-svg-disabled{filter:grayscale(0%)}.fxs-svg-number.msportalfx-svg-disabled .fxs-svg-circle{fill:#fff;stroke-width:1px;stroke:#949494}.fxs-svg-number.msportalfx-svg-disabled .fxs-svg-text{fill:#949494}.fxs-theme-dark .fxs-svg-number .fxs-svg-text{fill:#0f0f0f}.fxs-theme-dark .fxs-svg-number .fxs-svg-circle{stroke-width:0%;fill:#0078d4}.fxs-theme-dark .fxs-svg-number.msportalfx-svg-disabled .fxs-svg-circle{fill:#0f0f0f;stroke-width:1px;stroke:#949494}.fxs-theme-dark .fxs-svg-number.msportalfx-svg-disabled .fxs-svg-text{fill:#949494}</style></svg>