<svg fill="none" viewBox="0 0 88 64" class="msportalfx-svg-placeholder" xmlns="http://www.w3.org/2000/svg"><title>Managed Kubernetes namespace</title><desc></desc><path fill="#773ADC" d="M65.028 5.749H36a1.37 1.37 0 0 1-.85-.265L26.835.226A1.75 1.75 0 0 0 25.973 0H1.569C1.159 0 .767.152.474.424A1.46 1.46 0 0 0 0 1.456v48.886c.01.39.18.76.474 1.032a1.6 1.6 0 0 0 1.095.424h63.46c.409.002.803-.15 1.097-.422s.462-.644.471-1.034V7.24q0-.297-.12-.572a1.5 1.5 0 0 0-.34-.484 1.6 1.6 0 0 0-.509-.323 1.6 1.6 0 0 0-.6-.112" /><path fill="#fff" d="M20.568 2.837H6.698c-.346 0-.626.267-.626.596v1.681c0 .33.28.596.625.596h13.87c.346 0 .626-.267.626-.596V3.433c0-.329-.28-.596-.625-.596" opacity=".6" /><path fill="url(#p01QohRpi__a)" d="M65.028 5.671h-31.73a1.5 1.5 0 0 0-.607.106 1.4 1.4 0 0 0-.502.342l-5.276 4.853c-.306.26-.7.405-1.11.409H1.569a1.6 1.6 0 0 0-1.11.438c-.294.28-.459.66-.459 1.056v37.32c.012.388.182.758.475 1.03.292.272.685.424 1.094.425h63.46c.409 0 .802-.151 1.096-.423.293-.272.463-.643.472-1.033V7.24a1.45 1.45 0 0 0-.4-1.074 1.6 1.6 0 0 0-1.08-.491z" /><path fill="#fff" d="M13.942 22.473H8.804c-.776 0-1.404.62-1.404 1.385v3.222c0 .765.628 1.385 1.404 1.385h5.137c.776 0 1.405-.62 1.405-1.385v-3.222c0-.765-.629-1.385-1.405-1.385" opacity=".8" /><path fill="#fff" d="M46.737 22.473H21.18c-.752 0-1.361.601-1.361 1.343v3.306c0 .742.61 1.343 1.361 1.343h25.557c.751 0 1.36-.601 1.36-1.343v-3.306c0-.742-.609-1.343-1.36-1.343" /><path fill="#fff" d="M13.942 33.079H8.804c-.776 0-1.404.62-1.404 1.385v3.221c0 .765.628 1.385 1.404 1.385h5.137c.776 0 1.405-.62 1.405-1.385v-3.221c0-.765-.629-1.385-1.405-1.385" opacity=".8" /><path fill="#fff" d="M46.737 33.079H21.18c-.752 0-1.361.6-1.361 1.343v3.306c0 .741.61 1.342 1.361 1.342h25.557c.751 0 1.36-.6 1.36-1.342v-3.306c0-.742-.609-1.343-1.36-1.343" /><path fill="url(#p01QohRpi__b)" d="M44.334 63.268q.732.732 1.734.732h9.867q.847-.038 1.348-.347t.733-.848.308-1.156.077-1.272v-1.31a54 54 0 0 0 2.775-.116q1.003-.077 1.503-.578.501-.501.578-1.464.078-.965.077-2.775h2.467q.81 0 1.31-.347.501-.347.771-.848.27-.502.347-1.156.077-.655.077-1.35a17 17 0 0 1-.038-1.117v-.963a13 13 0 0 0 2.582.655q1.31.193 2.659.193 3.084-.039 5.665-1.195a14.6 14.6 0 0 0 4.586-3.237 15.4 15.4 0 0 0 3.122-4.741A14.4 14.4 0 0 0 88 34.401q0-3.083-1.156-5.78a14.9 14.9 0 0 0-3.16-4.703 14.8 14.8 0 0 0-4.702-3.16q-2.699-1.155-5.781-1.156-3.007.076-5.665 1.156a14.4 14.4 0 0 0-4.703 3.083 15.3 15.3 0 0 0-3.237 4.625q-1.195 2.62-1.195 5.627 0 1.811.424 3.815L44.334 52.4q-.732.733-.732 1.735v7.4q0 1.001.732 1.734M79.521 28.08q1.08 1.08 1.08 2.62 0 1.542-1.08 2.62-1.08 1.08-2.62 1.08-1.542 0-2.621-1.08-1.08-1.078-1.08-2.62 0-1.54 1.08-2.62T76.9 27q1.542 0 2.621 1.08" /><defs><linearGradient id="p01QohRpi__a" x1="33.299" x2="33.299" y1="9.143" y2="62.851" gradientUnits="userSpaceOnUse"><stop stop-color="#A67AF4" /><stop offset="1" stop-color="#773ADC" /></linearGradient><linearGradient id="p01QohRpi__b" x1="65.801" x2="65.801" y1="19.602" y2="64" gradientUnits="userSpaceOnUse"><stop offset=".163" stop-color="#8DC8E8" /><stop offset=".668" stop-color="#46A0DE" /><stop offset="1" stop-color="#0078D4" /></linearGradient></defs><style>.msportalfx-svg-c01{fill:#fff}.msportalfx-svg-c02{fill:#e5e5e5}.msportalfx-svg-c03{fill:#a0a1a2}.msportalfx-svg-c04{fill:#7a7a7a}.msportalfx-svg-c05{fill:#3e3e3e}.msportalfx-svg-c06{fill:#1e1e1e}.msportalfx-svg-c07{fill:#0f0f0f}.msportalfx-svg-c08{fill:#ba141a}.msportalfx-svg-c09{fill:#dd5900}.msportalfx-svg-c10{fill:#ff8c00}.msportalfx-svg-c11{fill:#fcd116}.msportalfx-svg-c12{fill:#fee087}.msportalfx-svg-c13{fill:#b8d432}.msportalfx-svg-c14,.msportalfx-svg-c32{fill:#57a300}.msportalfx-svg-c15{fill:#59b4d9}.msportalfx-svg-c16{fill:#3999c6}.msportalfx-svg-c17{fill:#804998}.msportalfx-svg-c18{fill:#ec008c}.msportalfx-svg-c19{fill:#0072c6}.msportalfx-svg-c20{fill:#68217a}.msportalfx-svg-c21{fill:#00188f}.msportalfx-svg-c22{fill:#e81123}.fxs-mode-light .msportalfx-svg-c22{fill:#a4262c}.msportalfx-svg-c23{fill:#cae3f3}.msportalfx-svg-c24{fill:#59aed3}.msportalfx-svg-c25{fill:#4c3b12}.msportalfx-svg-c26{fill:#be9555}.msportalfx-svg-c27{fill:#4f4d52}.msportalfx-svg-c28{fill:#ef6f59}.msportalfx-svg-c29{fill:#f7cb64}.msportalfx-svg-c30{fill:#fdd8db}.msportalfx-svg-c31{fill:#f6ffec}.msportalfx-svg-c33{fill:#8a2da5}.msportalfx-svg-c34{fill:#e00b1c}.msportalfx-svg-c35{fill:#015cda}.msportalfx-svg-c36{fill:#5db300}.msportalfx-svg-c97{fill:#ffb900}.msportalfx-svg-c98{fill:#00a4ef}.msportalfx-svg-c99{fill:#f25022}.msportalfx-inverted-theme .msportalfx-svg-c05,.fxs-theme-dark .msportalfx-svg-c05{fill:#777}.msportalfx-inverted-theme .msportalfx-svg-c07,.fxs-theme-dark .msportalfx-svg-c07{fill:#f2f2f2}.msportalfx-svg-palette-white{fill:#fff}.msportalfx-svg-palette-blue{fill:#015cda}.msportalfx-svg-palette-black{fill:#1e1e1e}.msportalfx-svg-palette-green{fill:#57a300}.msportalfx-svg-palette-gray{fill:#a0a1a2}.msportalfx-svg-palette-inherit{fill:inherit}.msportalfx-svg-badge{position:absolute;left:0;bottom:0;min-height:10px;min-width:10px}.fxc-menu-icon&gt;.msportalfx-svg-badge{left:-2px;bottom:-2px;min-height:8px;min-width:8px}.msportalfx-svg-disabled{filter:grayscale(100%)}.msportalfx-svg-loading-square{animation:ProgressFlagAnimation 1.45s infinite ease-in-out;transform-origin:50%}.msportalfx-svg-loading-square:nth-child(1){animation-delay:0s}.msportalfx-svg-loading-square:nth-child(2){animation-delay:.2s}.msportalfx-svg-loading-square:nth-child(3){animation-delay:.4s}@keyframes ProgressFlagAnimation{0%{transform:scale(1);opacity:.3}36.1%{transform:scale(1.06);opacity:1}50%{transform:scale(1.06);opacity:1}86.1%{transform:scale(1);opacity:.3}}.msportalfx-svg-flip-horizontal&gt;svg,svg.msportalfx-svg-flip-horizontal{transform:scaleX(-1)}.msportalfx-svg-fabric-rotate360{animation:ImageRotation 1.3s cubic-bezier(.53,.21,.29,.67) infinite}@keyframes ImageRotation{0%{transform:rotate(-45deg)}100%{transform:rotate(315deg)}}.fxs-svg-number .msportalfx-font-bold{font-size:10px;fill:#0065ad}.fxs-svg-number .fxs-svg-circle{stroke-width:0%;fill:#0078d4}.fxs-svg-number .fxs-svg-text{fill:#fff;font-size:10px}.fxs-svg-number.msportalfx-svg-disabled{filter:grayscale(0%)}.fxs-svg-number.msportalfx-svg-disabled .fxs-svg-circle{fill:#fff;stroke-width:1px;stroke:#949494}.fxs-svg-number.msportalfx-svg-disabled .fxs-svg-text{fill:#949494}.fxs-theme-dark .fxs-svg-number .fxs-svg-text{fill:#0f0f0f}.fxs-theme-dark .fxs-svg-number .fxs-svg-circle{stroke-width:0%;fill:#0078d4}.fxs-theme-dark .fxs-svg-number.msportalfx-svg-disabled .fxs-svg-circle{fill:#0f0f0f;stroke-width:1px;stroke:#949494}.fxs-theme-dark .fxs-svg-number.msportalfx-svg-disabled .fxs-svg-text{fill:#949494}</style></svg>