<svg viewBox="0 0 18 18" class="msportalfx-svg-placeholder" xmlns="http://www.w3.org/2000/svg"><title>Agentic Web App</title><desc>Agentic Web Apps let you embed AI-powered chat experiences directly into your website. Configure how the agent behaves, ground responses with your knowledge sources, and expose the experience through Azure Front Door domains and paths to make it available to users.</desc><defs><linearGradient id="pCCZGdv_-__a" x1="6.26" x2="6.26" y1="13.7" y2="1.18" gradientUnits="userSpaceOnUse"><stop offset="0" stop-color="#2764e7" /><stop offset=".19" stop-color="#3478f0" /><stop offset=".4" stop-color="#3f87f8" /><stop offset=".65" stop-color="#4591fc" /><stop offset="1" stop-color="#4894fe" /></linearGradient><linearGradient id="pCCZGdv_-__b" x1="12.32" x2="12.32" y1="16.75" y2="4.07" gradientUnits="userSpaceOnUse"><stop offset="0" stop-color="#197123" /><stop offset=".24" stop-color="#318b35" /><stop offset=".51" stop-color="#4aa647" /></linearGradient><linearGradient id="pCCZGdv_-__c" x1="6.26" x2="6.26" y1="7.9" y2="6.23" gradientUnits="userSpaceOnUse"><stop offset="0" stop-color="#cfcfcf" /><stop offset=".08" stop-color="#d6d6d6" /><stop offset=".33" stop-color="#e5e5e5" /><stop offset=".61" stop-color="#efefef" /><stop offset="1" stop-color="#f2f2f2" /></linearGradient><linearGradient id="pCCZGdv_-__d" x1="3.74" x2="3.74" gradientUnits="userSpaceOnUse"><stop offset="0" stop-color="#cfcfcf" /><stop offset=".08" stop-color="#d6d6d6" /><stop offset=".33" stop-color="#e5e5e5" /><stop offset=".61" stop-color="#efefef" /><stop offset="1" stop-color="#f2f2f2" /></linearGradient><linearGradient id="pCCZGdv_-__e" x1="8.76" x2="8.76" gradientUnits="userSpaceOnUse"><stop offset="0" stop-color="#cfcfcf" /><stop offset=".08" stop-color="#d6d6d6" /><stop offset=".33" stop-color="#e5e5e5" /><stop offset=".61" stop-color="#efefef" /><stop offset="1" stop-color="#f2f2f2" /></linearGradient></defs><path fill="url(#pCCZGdv_-__a)" d="M6.26 1.18C2.8 1.18 0 3.99 0 7.44c0 .95.21 1.84.59 2.65-.25 1.02-.47 2.11-.57 2.62-.11.58.39 1.08.96.98.52-.09 1.65-.3 2.7-.54.79.36 1.66.55 2.58.55 3.46 0 6.26-2.8 6.26-6.26s-2.8-6.26-6.26-6.26m0 5.05c.46 0 .83.37.83.83s-.37.83-.83.83-.83-.37-.83-.83.37-.83.83-.83m-2.52 0c.46 0 .83.37.83.83s-.37.83-.83.83-.83-.37-.83-.83.37-.83.83-.83m5.02 0c.46 0 .83.37.83.83s-.37.83-.83.83-.83-.37-.83-.83.37-.83.83-.83" /><path fill="url(#pCCZGdv_-__b)" d="M12.38 4.13c.41.75.68 1.58.78 2.46.2.47.37 1.02.49 1.63h-.48c-.04.33-.09.64-.17.95h.8c.04.41.07.83.07 1.27 0 .67-.06 1.32-.15 1.91h-2.54a6.8 6.8 0 0 1-1.19.95h3.53c-.42 1.54-1.14 2.55-1.87 2.55s-1.42-.96-1.84-2.44c-.28.17-.57.31-.87.44.19.62.43 1.17.72 1.62-.72-.28-1.35-.72-1.88-1.26-.37.08-.75.14-1.13.16a6.35 6.35 0 0 0 5 2.43c3.51 0 6.36-2.85 6.36-6.36 0-3.26-2.46-5.95-5.62-6.32Zm1.31 1.4-.07-.11.18.08c1.22.54 2.21 1.51 2.76 2.73h-1.94c-.19-1.06-.51-1.99-.94-2.7Zm2.42 7.97c-.61.89-1.47 1.59-2.49 1.99.37-.58.67-1.32.87-2.17h1.73l-.12.18Zm-1.43-1.14a13.2 13.2 0 0 0 .08-3.18h2.14c.1.41.15.84.15 1.27 0 .67-.12 1.32-.35 1.91z" /><path fill="url(#pCCZGdv_-__c)" d="M6.26 6.23c.46 0 .83.37.83.83s-.37.83-.83.83-.83-.37-.83-.83.37-.83.83-.83" /><path fill="url(#pCCZGdv_-__d)" d="M3.74 6.23c.46 0 .83.37.83.83s-.37.83-.83.83-.83-.37-.83-.83.37-.83.83-.83" /><path fill="url(#pCCZGdv_-__e)" d="M8.76 6.23c.46 0 .83.37.83.83s-.37.83-.83.83-.83-.37-.83-.83.37-.83.83-.83" /><style>.msportalfx-svg-c01{fill:#fff}.msportalfx-svg-c02{fill:#e5e5e5}.msportalfx-svg-c03{fill:#a0a1a2}.msportalfx-svg-c04{fill:#7a7a7a}.msportalfx-svg-c05{fill:#3e3e3e}.msportalfx-svg-c06{fill:#1e1e1e}.msportalfx-svg-c07{fill:#0f0f0f}.msportalfx-svg-c08{fill:#ba141a}.msportalfx-svg-c09{fill:#dd5900}.msportalfx-svg-c10{fill:#ff8c00}.msportalfx-svg-c11{fill:#fcd116}.msportalfx-svg-c12{fill:#fee087}.msportalfx-svg-c13{fill:#b8d432}.msportalfx-svg-c14,.msportalfx-svg-c32{fill:#57a300}.msportalfx-svg-c15{fill:#59b4d9}.msportalfx-svg-c16{fill:#3999c6}.msportalfx-svg-c17{fill:#804998}.msportalfx-svg-c18{fill:#ec008c}.msportalfx-svg-c19{fill:#0072c6}.msportalfx-svg-c20{fill:#68217a}.msportalfx-svg-c21{fill:#00188f}.msportalfx-svg-c22{fill:#e81123}.fxs-mode-light .msportalfx-svg-c22{fill:#a4262c}.msportalfx-svg-c23{fill:#cae3f3}.msportalfx-svg-c24{fill:#59aed3}.msportalfx-svg-c25{fill:#4c3b12}.msportalfx-svg-c26{fill:#be9555}.msportalfx-svg-c27{fill:#4f4d52}.msportalfx-svg-c28{fill:#ef6f59}.msportalfx-svg-c29{fill:#f7cb64}.msportalfx-svg-c30{fill:#fdd8db}.msportalfx-svg-c31{fill:#f6ffec}.msportalfx-svg-c33{fill:#8a2da5}.msportalfx-svg-c34{fill:#e00b1c}.msportalfx-svg-c35{fill:#015cda}.msportalfx-svg-c36{fill:#5db300}.msportalfx-svg-c97{fill:#ffb900}.msportalfx-svg-c98{fill:#00a4ef}.msportalfx-svg-c99{fill:#f25022}.msportalfx-inverted-theme .msportalfx-svg-c05,.fxs-theme-dark .msportalfx-svg-c05{fill:#777}.msportalfx-inverted-theme .msportalfx-svg-c07,.fxs-theme-dark .msportalfx-svg-c07{fill:#f2f2f2}.msportalfx-svg-palette-white{fill:#fff}.msportalfx-svg-palette-blue{fill:#015cda}.msportalfx-svg-palette-black{fill:#1e1e1e}.msportalfx-svg-palette-green{fill:#57a300}.msportalfx-svg-palette-gray{fill:#a0a1a2}.msportalfx-svg-palette-inherit{fill:inherit}.msportalfx-svg-badge{position:absolute;left:0;bottom:0;min-height:10px;min-width:10px}.fxc-menu-icon&gt;.msportalfx-svg-badge{left:-2px;bottom:-2px;min-height:8px;min-width:8px}.msportalfx-svg-disabled{filter:grayscale(100%)}.msportalfx-svg-loading-square{animation:ProgressFlagAnimation 1.45s infinite ease-in-out;transform-origin:50%}.msportalfx-svg-loading-square:nth-child(1){animation-delay:0s}.msportalfx-svg-loading-square:nth-child(2){animation-delay:.2s}.msportalfx-svg-loading-square:nth-child(3){animation-delay:.4s}@keyframes ProgressFlagAnimation{0%{transform:scale(1);opacity:.3}36.1%{transform:scale(1.06);opacity:1}50%{transform:scale(1.06);opacity:1}86.1%{transform:scale(1);opacity:.3}}.msportalfx-svg-flip-horizontal&gt;svg,svg.msportalfx-svg-flip-horizontal{transform:scaleX(-1)}.msportalfx-svg-fabric-rotate360{animation:ImageRotation 1.3s cubic-bezier(.53,.21,.29,.67) infinite}@keyframes ImageRotation{0%{transform:rotate(-45deg)}100%{transform:rotate(315deg)}}.fxs-svg-number .msportalfx-font-bold{font-size:10px;fill:#0065ad}.fxs-svg-number .fxs-svg-circle{stroke-width:0%;fill:#0078d4}.fxs-svg-number .fxs-svg-text{fill:#fff;font-size:10px}.fxs-svg-number.msportalfx-svg-disabled{filter:grayscale(0%)}.fxs-svg-number.msportalfx-svg-disabled .fxs-svg-circle{fill:#fff;stroke-width:1px;stroke:#949494}.fxs-svg-number.msportalfx-svg-disabled .fxs-svg-text{fill:#949494}.fxs-theme-dark .fxs-svg-number .fxs-svg-text{fill:#0f0f0f}.fxs-theme-dark .fxs-svg-number .fxs-svg-circle{stroke-width:0%;fill:#0078d4}.fxs-theme-dark .fxs-svg-number.msportalfx-svg-disabled .fxs-svg-circle{fill:#0f0f0f;stroke-width:1px;stroke:#949494}.fxs-theme-dark .fxs-svg-number.msportalfx-svg-disabled .fxs-svg-text{fill:#949494}</style></svg>