<svg fill="none" viewBox="0 0 32 32" class="msportalfx-svg-placeholder" xmlns="http://www.w3.org/2000/svg"><title>Multifactor authentication (Phase 2)</title><desc></desc><g clip-path="url(#pHSBgMeD4__a)"><path fill="#d40000" d="M30.613 24.747a1.4 1.4 0 0 0 1.422-1.405.5.5 0 0 0-.035-.23c-.551-4.445-3.093-8.072-7.929-8.072s-7.449 3.129-7.947 8.071a1.44 1.44 0 0 0 1.28 1.565h13.21z" /><path fill="#fff" d="M24.089 16.16c-.859.007-1.7-.24-2.418-.711l2.4 6.257 2.364-6.204a4.5 4.5 0 0 1-2.346.658" opacity=".8" /><path fill="#d40000" d="M24.089 16.16a4.462 4.462 0 1 0 0-8.925 4.462 4.462 0 0 0 0 8.925" /><path fill="url(#pHSBgMeD4__b)" d="M21.671 29.084a2.116 2.116 0 0 0 2.116-2.115 1.2 1.2 0 0 0 0-.25c-.836-6.648-4.622-12.053-11.84-12.053S.782 19.254 0 26.667a2.133 2.133 0 0 0 1.902 2.33h19.734z" /><path fill="#fff" d="M12.036 16.249a6.6 6.6 0 0 1-3.556-1.067l3.556 9.333 3.555-9.262c-1.07.655-2.3 1-3.555.996" opacity=".8" /><path fill="url(#pHSBgMeD4__c)" d="M11.982 16.249a6.667 6.667 0 1 0 0-13.334 6.667 6.667 0 0 0 0 13.334" /></g><defs><linearGradient id="pHSBgMeD4__b" x1="11.911" x2="11.911" y1="12.906" y2="32.64" gradientUnits="userSpaceOnUse"><stop offset=".22" stop-color="#a14f4f" /><stop offset="1" stop-color="#931414" /></linearGradient><linearGradient id="pHSBgMeD4__c" x1="11.413" x2="12.853" y1="2.347" y2="20.249" gradientUnits="userSpaceOnUse"><stop offset=".22" stop-color="#a14f4f" /><stop offset="1" stop-color="#931414" /></linearGradient><clipPath id="pHSBgMeD4__a"><path fill="#fff" d="M0 0h32v32H0z" /></clipPath></defs><style>.msportalfx-svg-c01{fill:#fff}.msportalfx-svg-c02{fill:#e5e5e5}.msportalfx-svg-c03{fill:#a0a1a2}.msportalfx-svg-c04{fill:#7a7a7a}.msportalfx-svg-c05{fill:#3e3e3e}.msportalfx-svg-c06{fill:#1e1e1e}.msportalfx-svg-c07{fill:#0f0f0f}.msportalfx-svg-c08{fill:#ba141a}.msportalfx-svg-c09{fill:#dd5900}.msportalfx-svg-c10{fill:#ff8c00}.msportalfx-svg-c11{fill:#fcd116}.msportalfx-svg-c12{fill:#fee087}.msportalfx-svg-c13{fill:#b8d432}.msportalfx-svg-c14,.msportalfx-svg-c32{fill:#57a300}.msportalfx-svg-c15{fill:#59b4d9}.msportalfx-svg-c16{fill:#3999c6}.msportalfx-svg-c17{fill:#804998}.msportalfx-svg-c18{fill:#ec008c}.msportalfx-svg-c19{fill:#0072c6}.msportalfx-svg-c20{fill:#68217a}.msportalfx-svg-c21{fill:#00188f}.msportalfx-svg-c22{fill:#e81123}.fxs-mode-light .msportalfx-svg-c22{fill:#a4262c}.msportalfx-svg-c23{fill:#cae3f3}.msportalfx-svg-c24{fill:#59aed3}.msportalfx-svg-c25{fill:#4c3b12}.msportalfx-svg-c26{fill:#be9555}.msportalfx-svg-c27{fill:#4f4d52}.msportalfx-svg-c28{fill:#ef6f59}.msportalfx-svg-c29{fill:#f7cb64}.msportalfx-svg-c30{fill:#fdd8db}.msportalfx-svg-c31{fill:#f6ffec}.msportalfx-svg-c33{fill:#8a2da5}.msportalfx-svg-c34{fill:#e00b1c}.msportalfx-svg-c35{fill:#015cda}.msportalfx-svg-c36{fill:#5db300}.msportalfx-svg-c97{fill:#ffb900}.msportalfx-svg-c98{fill:#00a4ef}.msportalfx-svg-c99{fill:#f25022}.msportalfx-inverted-theme .msportalfx-svg-c05,.fxs-theme-dark .msportalfx-svg-c05{fill:#777}.msportalfx-inverted-theme .msportalfx-svg-c07,.fxs-theme-dark .msportalfx-svg-c07{fill:#f2f2f2}.msportalfx-svg-palette-white{fill:#fff}.msportalfx-svg-palette-blue{fill:#015cda}.msportalfx-svg-palette-black{fill:#1e1e1e}.msportalfx-svg-palette-green{fill:#57a300}.msportalfx-svg-palette-gray{fill:#a0a1a2}.msportalfx-svg-palette-inherit{fill:inherit}.msportalfx-svg-badge{position:absolute;left:0;bottom:0;min-height:10px;min-width:10px}.fxc-menu-icon&gt;.msportalfx-svg-badge{left:-2px;bottom:-2px;min-height:8px;min-width:8px}.msportalfx-svg-disabled{filter:grayscale(100%)}.msportalfx-svg-loading-square{animation:ProgressFlagAnimation 1.45s infinite ease-in-out;transform-origin:50%}.msportalfx-svg-loading-square:nth-child(1){animation-delay:0s}.msportalfx-svg-loading-square:nth-child(2){animation-delay:.2s}.msportalfx-svg-loading-square:nth-child(3){animation-delay:.4s}@keyframes ProgressFlagAnimation{0%{transform:scale(1);opacity:.3}36.1%{transform:scale(1.06);opacity:1}50%{transform:scale(1.06);opacity:1}86.1%{transform:scale(1);opacity:.3}}.msportalfx-svg-flip-horizontal&gt;svg,svg.msportalfx-svg-flip-horizontal{transform:scaleX(-1)}.msportalfx-svg-fabric-rotate360{animation:ImageRotation 1.3s cubic-bezier(.53,.21,.29,.67) infinite}@keyframes ImageRotation{0%{transform:rotate(-45deg)}100%{transform:rotate(315deg)}}.fxs-svg-number .msportalfx-font-bold{font-size:10px;fill:#0065ad}.fxs-svg-number .fxs-svg-circle{stroke-width:0%;fill:#0078d4}.fxs-svg-number .fxs-svg-text{fill:#fff;font-size:10px}.fxs-svg-number.msportalfx-svg-disabled{filter:grayscale(0%)}.fxs-svg-number.msportalfx-svg-disabled .fxs-svg-circle{fill:#fff;stroke-width:1px;stroke:#949494}.fxs-svg-number.msportalfx-svg-disabled .fxs-svg-text{fill:#949494}.fxs-theme-dark .fxs-svg-number .fxs-svg-text{fill:#0f0f0f}.fxs-theme-dark .fxs-svg-number .fxs-svg-circle{stroke-width:0%;fill:#0078d4}.fxs-theme-dark .fxs-svg-number.msportalfx-svg-disabled .fxs-svg-circle{fill:#0f0f0f;stroke-width:1px;stroke:#949494}.fxs-theme-dark .fxs-svg-number.msportalfx-svg-disabled .fxs-svg-text{fill:#949494}</style></svg>