<svg fill="none" viewBox="0 0 19 18" class="msportalfx-svg-placeholder" xmlns="http://www.w3.org/2000/svg"><title>Change modification request</title><desc></desc><g clip-path="url(#p08s-Nume__a)"><path fill="#198AB3" d="M13.628 0H1.318a.547.547 0 0 0-.547.547v15.319c0 .302.245.547.547.547h12.31a.547.547 0 0 0 .547-.547V.547A.547.547 0 0 0 13.628 0" /><path fill="url(#p08s-Nume__b)" d="M17.867 1.587H5.557a.547.547 0 0 0-.547.547v15.319c0 .302.245.547.547.547h12.31a.547.547 0 0 0 .547-.547V2.133a.547.547 0 0 0-.547-.546" /><path fill="#fff" d="M17.422 2.451H6.004a.137.137 0 0 0-.137.137V17c0 .076.061.137.137.137h11.418a.137.137 0 0 0 .137-.137V2.59a.137.137 0 0 0-.137-.138" /><path fill="#9CEBFF" d="M8.757 8.7H7.61a.137.137 0 0 1-.137-.14V7.414a.137.137 0 0 1 .137-.137h1.147a.136.136 0 0 1 .136.137V8.56a.136.136 0 0 1-.136.14m7.2-.137v-1.15a.137.137 0 0 0-.137-.136h-5.682a.136.136 0 0 0-.136.137V8.56a.13.13 0 0 0 .084.126q.024.01.052.01h5.677a.137.137 0 0 0 .137-.136zm-7.064 2.85v-1.145a.136.136 0 0 0-.136-.137H7.61a.137.137 0 0 0-.137.137v1.146a.137.137 0 0 0 .137.137h1.147a.136.136 0 0 0 .136-.137m7.06 0v-1.145a.137.137 0 0 0-.138-.137h-5.677a.136.136 0 0 0-.136.137v1.146a.13.13 0 0 0 .04.097.14.14 0 0 0 .096.04h5.677a.137.137 0 0 0 .137-.137m-7.06 2.855v-1.146a.136.136 0 0 0-.136-.137H7.61a.137.137 0 0 0-.137.137v1.146a.137.137 0 0 0 .137.137h1.147a.136.136 0 0 0 .136-.137m7.06 0v-1.146a.137.137 0 0 0-.138-.137h-5.677a.136.136 0 0 0-.136.137v1.146a.13.13 0 0 0 .04.097.14.14 0 0 0 .096.04h5.677a.137.137 0 0 0 .137-.137" /><path fill="#773ADC" d="m8.05 3.123 3.024 3.024a.36.36 0 0 1 0 .51L8.05 9.681a.161.161 0 0 1-.275-.114V7.708a.16.16 0 0 0-.16-.161h-5.14a.13.13 0 0 1-.129-.129V5.386a.13.13 0 0 1 .128-.128h5.14a.16.16 0 0 0 .161-.158V3.237a.161.161 0 0 1 .275-.114" /><path fill="#fff" d="M7.937 3.075a.16.16 0 0 1 .113.048l3.024 3.024a.36.36 0 0 1 0 .51L8.05 9.681a.16.16 0 0 1-.175.036.16.16 0 0 1-.1-.15V7.708a.16.16 0 0 0-.161-.161h-5.14a.13.13 0 0 1-.128-.129V5.386a.13.13 0 0 1 .128-.128h5.14a.16.16 0 0 0 .161-.158V3.237a.16.16 0 0 1 .162-.162m0-.389a.55.55 0 0 0-.551.551v1.632H2.474a.52.52 0 0 0-.517.517v2.032a.52.52 0 0 0 .517.518h4.912v1.631a.551.551 0 0 0 .939.389l3.024-3.024a.75.75 0 0 0 0-1.06L8.325 2.848a.55.55 0 0 0-.388-.162" /></g><defs><linearGradient id="p08s-Nume__b" x1="11.713" x2="11.713" y1="1.587" y2="18" gradientUnits="userSpaceOnUse"><stop stop-color="#32D4F5" /><stop offset="1" stop-color="#198AB3" /></linearGradient><clipPath id="p08s-Nume__a"><path fill="#fff" d="M.593 0h18v18h-18z" /></clipPath></defs><style>.msportalfx-svg-c01{fill:#fff}.msportalfx-svg-c02{fill:#e5e5e5}.msportalfx-svg-c03{fill:#a0a1a2}.msportalfx-svg-c04{fill:#7a7a7a}.msportalfx-svg-c05{fill:#3e3e3e}.msportalfx-svg-c06{fill:#1e1e1e}.msportalfx-svg-c07{fill:#0f0f0f}.msportalfx-svg-c08{fill:#ba141a}.msportalfx-svg-c09{fill:#dd5900}.msportalfx-svg-c10{fill:#ff8c00}.msportalfx-svg-c11{fill:#fcd116}.msportalfx-svg-c12{fill:#fee087}.msportalfx-svg-c13{fill:#b8d432}.msportalfx-svg-c14,.msportalfx-svg-c32{fill:#57a300}.msportalfx-svg-c15{fill:#59b4d9}.msportalfx-svg-c16{fill:#3999c6}.msportalfx-svg-c17{fill:#804998}.msportalfx-svg-c18{fill:#ec008c}.msportalfx-svg-c19{fill:#0072c6}.msportalfx-svg-c20{fill:#68217a}.msportalfx-svg-c21{fill:#00188f}.msportalfx-svg-c22{fill:#e81123}.fxs-mode-light .msportalfx-svg-c22{fill:#a4262c}.msportalfx-svg-c23{fill:#cae3f3}.msportalfx-svg-c24{fill:#59aed3}.msportalfx-svg-c25{fill:#4c3b12}.msportalfx-svg-c26{fill:#be9555}.msportalfx-svg-c27{fill:#4f4d52}.msportalfx-svg-c28{fill:#ef6f59}.msportalfx-svg-c29{fill:#f7cb64}.msportalfx-svg-c30{fill:#fdd8db}.msportalfx-svg-c31{fill:#f6ffec}.msportalfx-svg-c33{fill:#8a2da5}.msportalfx-svg-c34{fill:#e00b1c}.msportalfx-svg-c35{fill:#015cda}.msportalfx-svg-c36{fill:#5db300}.msportalfx-svg-c97{fill:#ffb900}.msportalfx-svg-c98{fill:#00a4ef}.msportalfx-svg-c99{fill:#f25022}.msportalfx-inverted-theme .msportalfx-svg-c05,.fxs-theme-dark .msportalfx-svg-c05{fill:#777}.msportalfx-inverted-theme .msportalfx-svg-c07,.fxs-theme-dark .msportalfx-svg-c07{fill:#f2f2f2}.msportalfx-svg-palette-white{fill:#fff}.msportalfx-svg-palette-blue{fill:#015cda}.msportalfx-svg-palette-black{fill:#1e1e1e}.msportalfx-svg-palette-green{fill:#57a300}.msportalfx-svg-palette-gray{fill:#a0a1a2}.msportalfx-svg-palette-inherit{fill:inherit}.msportalfx-svg-badge{position:absolute;left:0;bottom:0;min-height:10px;min-width:10px}.fxc-menu-icon&gt;.msportalfx-svg-badge{left:-2px;bottom:-2px;min-height:8px;min-width:8px}.msportalfx-svg-disabled{filter:grayscale(100%)}.msportalfx-svg-loading-square{animation:ProgressFlagAnimation 1.45s infinite ease-in-out;transform-origin:50%}.msportalfx-svg-loading-square:nth-child(1){animation-delay:0s}.msportalfx-svg-loading-square:nth-child(2){animation-delay:.2s}.msportalfx-svg-loading-square:nth-child(3){animation-delay:.4s}@keyframes ProgressFlagAnimation{0%{transform:scale(1);opacity:.3}36.1%{transform:scale(1.06);opacity:1}50%{transform:scale(1.06);opacity:1}86.1%{transform:scale(1);opacity:.3}}.msportalfx-svg-flip-horizontal&gt;svg,svg.msportalfx-svg-flip-horizontal{transform:scaleX(-1)}.msportalfx-svg-fabric-rotate360{animation:ImageRotation 1.3s cubic-bezier(.53,.21,.29,.67) infinite}@keyframes ImageRotation{0%{transform:rotate(-45deg)}100%{transform:rotate(315deg)}}.fxs-svg-number .msportalfx-font-bold{font-size:10px;fill:#0065ad}.fxs-svg-number .fxs-svg-circle{stroke-width:0%;fill:#0078d4}.fxs-svg-number .fxs-svg-text{fill:#fff;font-size:10px}.fxs-svg-number.msportalfx-svg-disabled{filter:grayscale(0%)}.fxs-svg-number.msportalfx-svg-disabled .fxs-svg-circle{fill:#fff;stroke-width:1px;stroke:#949494}.fxs-svg-number.msportalfx-svg-disabled .fxs-svg-text{fill:#949494}.fxs-theme-dark .fxs-svg-number .fxs-svg-text{fill:#0f0f0f}.fxs-theme-dark .fxs-svg-number .fxs-svg-circle{stroke-width:0%;fill:#0078d4}.fxs-theme-dark .fxs-svg-number.msportalfx-svg-disabled .fxs-svg-circle{fill:#0f0f0f;stroke-width:1px;stroke:#949494}.fxs-theme-dark .fxs-svg-number.msportalfx-svg-disabled .fxs-svg-text{fill:#949494}</style></svg>