<svg fill="none" viewBox="0 0 28 28" class="msportalfx-svg-placeholder" xmlns="http://www.w3.org/2000/svg"><title>Validation</title><desc></desc><path fill="url(#p5KIsmf_t__a)" d="M20.896 2.459v10.559a6.2 6.2 0 0 0-3.355.266 6.3 6.3 0 0 0-2.737 1.992 6.44 6.44 0 0 0-1.332 3.143 6.5 6.5 0 0 0 .457 3.39.37.37 0 0 1-.128.46.36.36 0 0 1-.159.059q-.515.053-1.031.053c-1.626.002-4.823-.053-6.376 0-2.295.078-1.912-.572-1.912-4.374V2.457a.7.7 0 0 1 .2-.484A.67.67 0 0 1 5 1.774h15.22c.179 0 .35.073.477.2a.7.7 0 0 1 .198.485" /><path fill="#fff" d="M11.108 7.642h6.34c.096 0 .188.039.255.108a.37.37 0 0 1 .105.259v.94a.37.37 0 0 1-.105.26.36.36 0 0 1-.254.108h-6.341a.36.36 0 0 1-.255-.108.37.37 0 0 1-.106-.26v-.94a.37.37 0 0 1 .106-.26.36.36 0 0 1 .255-.107m-.309 3.966v.943a.36.36 0 0 0 .361.367h6.34a.36.36 0 0 0 .255-.108.37.37 0 0 0 .105-.26v-.942a.37.37 0 0 0-.106-.259.36.36 0 0 0-.254-.107h-6.34a.36.36 0 0 0-.333.226.4.4 0 0 0-.028.14m.345 3.234a.36.36 0 0 0-.255.108.37.37 0 0 0-.105.259v.941c0 .097.038.19.105.26a.36.36 0 0 0 .255.107h2.89a6.4 6.4 0 0 1 1.148-1.675zm7.72 7.234a.36.36 0 0 0 .277.116.36.36 0 0 0 .267-.14l3.493-4.547a.296.296 0 0 0-.058-.404l-.65-.51a.286.286 0 0 0-.405.053l-2.734 3.557-1.53-1.673a.287.287 0 0 0-.408-.015l-.6.563a.3.3 0 0 0-.016.42z" /><path fill="#fff" d="M7.673 7.642h1.31a.37.37 0 0 1 .262.11.38.38 0 0 1 .108.268v.918a.38.38 0 0 1-.108.268.37.37 0 0 1-.263.11h-1.31a.37.37 0 0 1-.262-.11.38.38 0 0 1-.108-.268V8.02a.38.38 0 0 1 .229-.35.4.4 0 0 1 .142-.028m-.32 3.978v.918c0 .1.039.197.109.268a.37.37 0 0 0 .263.11h1.307a.37.37 0 0 0 .263-.11.38.38 0 0 0 .11-.268v-.918a.38.38 0 0 0-.23-.35.4.4 0 0 0-.143-.029H7.725a.37.37 0 0 0-.344.234.4.4 0 0 0-.028.145m-.016 3.6v.919a.38.38 0 0 0 .23.35.4.4 0 0 0 .141.028h1.309a.37.37 0 0 0 .343-.234.4.4 0 0 0 .028-.144v-.918a.38.38 0 0 0-.229-.35.4.4 0 0 0-.142-.03h-1.31a.37.37 0 0 0-.262.112.38.38 0 0 0-.108.268" opacity=".8" /><path fill="#fff" d="M25.702 19.44a5.9 5.9 0 0 1-.967 3.242 5.76 5.76 0 0 1-2.575 2.15 5.65 5.65 0 0 1-3.315.331 5.7 5.7 0 0 1-2.937-1.597 5.87 5.87 0 0 1-1.57-2.987 5.93 5.93 0 0 1 .326-3.372 5.8 5.8 0 0 1 2.113-2.618 5.67 5.67 0 0 1 3.188-.984 5.7 5.7 0 0 1 4.057 1.71 5.9 5.9 0 0 1 1.68 4.125" /><path fill="#57A300" d="M25.702 19.44a5.9 5.9 0 0 1-.967 3.242 5.76 5.76 0 0 1-2.575 2.15 5.65 5.65 0 0 1-3.315.331 5.7 5.7 0 0 1-2.937-1.597 5.87 5.87 0 0 1-1.57-2.987 5.93 5.93 0 0 1 .326-3.372 5.8 5.8 0 0 1 2.113-2.618 5.67 5.67 0 0 1 3.188-.984 5.7 5.7 0 0 1 4.057 1.71 5.9 5.9 0 0 1 1.68 4.125" /><path fill="#fff" d="M19.138 22.235a.36.36 0 0 0 .426.076.4.4 0 0 0 .118-.099l3.493-4.547a.296.296 0 0 0-.058-.405l-.65-.51a.286.286 0 0 0-.405.054l-2.734 3.556-1.53-1.672a.287.287 0 0 0-.408-.016l-.6.563a.3.3 0 0 0-.075.322q.02.055.06.098z" /><defs><linearGradient id="p5KIsmf_t__a" x1="12.609" x2="12.609" y1="1.721" y2="22.202" gradientUnits="userSpaceOnUse"><stop stop-color="#5EA0EF" /><stop offset="1" stop-color="#0078D4" /></linearGradient></defs><style>.msportalfx-svg-c01{fill:#fff}.msportalfx-svg-c02{fill:#e5e5e5}.msportalfx-svg-c03{fill:#a0a1a2}.msportalfx-svg-c04{fill:#7a7a7a}.msportalfx-svg-c05{fill:#3e3e3e}.msportalfx-svg-c06{fill:#1e1e1e}.msportalfx-svg-c07{fill:#0f0f0f}.msportalfx-svg-c08{fill:#ba141a}.msportalfx-svg-c09{fill:#dd5900}.msportalfx-svg-c10{fill:#ff8c00}.msportalfx-svg-c11{fill:#fcd116}.msportalfx-svg-c12{fill:#fee087}.msportalfx-svg-c13{fill:#b8d432}.msportalfx-svg-c14,.msportalfx-svg-c32{fill:#57a300}.msportalfx-svg-c15{fill:#59b4d9}.msportalfx-svg-c16{fill:#3999c6}.msportalfx-svg-c17{fill:#804998}.msportalfx-svg-c18{fill:#ec008c}.msportalfx-svg-c19{fill:#0072c6}.msportalfx-svg-c20{fill:#68217a}.msportalfx-svg-c21{fill:#00188f}.msportalfx-svg-c22{fill:#e81123}.fxs-mode-light .msportalfx-svg-c22{fill:#a4262c}.msportalfx-svg-c23{fill:#cae3f3}.msportalfx-svg-c24{fill:#59aed3}.msportalfx-svg-c25{fill:#4c3b12}.msportalfx-svg-c26{fill:#be9555}.msportalfx-svg-c27{fill:#4f4d52}.msportalfx-svg-c28{fill:#ef6f59}.msportalfx-svg-c29{fill:#f7cb64}.msportalfx-svg-c30{fill:#fdd8db}.msportalfx-svg-c31{fill:#f6ffec}.msportalfx-svg-c33{fill:#8a2da5}.msportalfx-svg-c34{fill:#e00b1c}.msportalfx-svg-c35{fill:#015cda}.msportalfx-svg-c36{fill:#5db300}.msportalfx-svg-c97{fill:#ffb900}.msportalfx-svg-c98{fill:#00a4ef}.msportalfx-svg-c99{fill:#f25022}.msportalfx-inverted-theme .msportalfx-svg-c05,.fxs-theme-dark .msportalfx-svg-c05{fill:#777}.msportalfx-inverted-theme .msportalfx-svg-c07,.fxs-theme-dark .msportalfx-svg-c07{fill:#f2f2f2}.msportalfx-svg-palette-white{fill:#fff}.msportalfx-svg-palette-blue{fill:#015cda}.msportalfx-svg-palette-black{fill:#1e1e1e}.msportalfx-svg-palette-green{fill:#57a300}.msportalfx-svg-palette-gray{fill:#a0a1a2}.msportalfx-svg-palette-inherit{fill:inherit}.msportalfx-svg-badge{position:absolute;left:0;bottom:0;min-height:10px;min-width:10px}.fxc-menu-icon&gt;.msportalfx-svg-badge{left:-2px;bottom:-2px;min-height:8px;min-width:8px}.msportalfx-svg-disabled{filter:grayscale(100%)}.msportalfx-svg-loading-square{animation:ProgressFlagAnimation 1.45s infinite ease-in-out;transform-origin:50%}.msportalfx-svg-loading-square:nth-child(1){animation-delay:0s}.msportalfx-svg-loading-square:nth-child(2){animation-delay:.2s}.msportalfx-svg-loading-square:nth-child(3){animation-delay:.4s}@keyframes ProgressFlagAnimation{0%{transform:scale(1);opacity:.3}36.1%{transform:scale(1.06);opacity:1}50%{transform:scale(1.06);opacity:1}86.1%{transform:scale(1);opacity:.3}}.msportalfx-svg-flip-horizontal&gt;svg,svg.msportalfx-svg-flip-horizontal{transform:scaleX(-1)}.msportalfx-svg-fabric-rotate360{animation:ImageRotation 1.3s cubic-bezier(.53,.21,.29,.67) infinite}@keyframes ImageRotation{0%{transform:rotate(-45deg)}100%{transform:rotate(315deg)}}.fxs-svg-number .msportalfx-font-bold{font-size:10px;fill:#0065ad}.fxs-svg-number .fxs-svg-circle{stroke-width:0%;fill:#0078d4}.fxs-svg-number .fxs-svg-text{fill:#fff;font-size:10px}.fxs-svg-number.msportalfx-svg-disabled{filter:grayscale(0%)}.fxs-svg-number.msportalfx-svg-disabled .fxs-svg-circle{fill:#fff;stroke-width:1px;stroke:#949494}.fxs-svg-number.msportalfx-svg-disabled .fxs-svg-text{fill:#949494}.fxs-theme-dark .fxs-svg-number .fxs-svg-text{fill:#0f0f0f}.fxs-theme-dark .fxs-svg-number .fxs-svg-circle{stroke-width:0%;fill:#0078d4}.fxs-theme-dark .fxs-svg-number.msportalfx-svg-disabled .fxs-svg-circle{fill:#0f0f0f;stroke-width:1px;stroke:#949494}.fxs-theme-dark .fxs-svg-number.msportalfx-svg-disabled .fxs-svg-text{fill:#949494}</style></svg>