<svg viewBox="0 0 18 18" class="msportalfx-svg-placeholder" xmlns="http://www.w3.org/2000/svg"><title>Connected Resource</title><desc></desc><path fill="none" stroke="#a3a3a3" stroke-miterlimit="10" stroke-width="1.2" d="M9.082 14.677h3.345a1.2 1.2 0 0 0 1.2-1.2V7.071" /><path fill="#66c0ff" d="m4.973 13.084 3.681-2.126a1.5 1.5 0 0 0-.332-.26L5.721 9.196a1.5 1.5 0 0 0-.499-.177c-.339-.057-.693 0-1.001.177l-2.6 1.502a1.5 1.5 0 0 0-.75 1.298c0-.392.154-.762.42-1.038z" /><path fill="#4894fe" d="M9.05 11.744q-.006-.039-.016-.078-.015-.058-.034-.115a1.4 1.4 0 0 0-.103-.246q-.022-.047-.049-.093-.021-.034-.044-.066a1.5 1.5 0 0 0-.15-.188h-.002l-3.681 2.126v4.905h.081c.091-.005.183-.013.272-.034l.067-.018q.173-.046.332-.135l2.6-1.502a1.5 1.5 0 0 0 .75-1.299v-3.003q-.002-.129-.024-.252Z" /><path fill="#58aafe" d="m4.973 13.084-3.682-2.126c-.266.276-.42.646-.42 1.039v3.002a1.5 1.5 0 0 0 .75 1.299l2.6 1.502.019.009c.081.045.167.075.253.103a1.5 1.5 0 0 0 .394.075q.043.002.087 0v-4.903Z" /><path fill="#36dff1" d="m13.102 4.086 3.615-2.126c.115.122.199.267.268.42-.018-.039-.028-.082-.049-.12l-.015-.026a2 2 0 0 0-.092-.14l-.008-.011a2 2 0 0 0-.105-.125h-.002a1.5 1.5 0 0 0-.326-.259L13.836.198a1.5 1.5 0 0 0-.49-.177c-.333-.058-.681 0-.983.177L9.811 1.699a1.5 1.5 0 0 0-.324.259l3.615 2.126z" /><path fill="#16bbda" d="M13.102 4.086v-.002L9.487 1.958a1.5 1.5 0 0 0-.412 1.039V6c0 .536.28 1.031.736 1.298l2.552 1.501c.088.052.182.084.277.115a1.5 1.5 0 0 0 .388.073h.073V4.085Z" /><path fill="#26cfe8" d="M16.985 2.38a1.5 1.5 0 0 0-.268-.42l-3.615 2.126v4.902q.046.002.092 0a1.4 1.4 0 0 0 .331-.055 1.4 1.4 0 0 0 .297-.123l.019-.009L16.393 7.3c.455-.268.736-.763.736-1.298V3.001a1.5 1.5 0 0 0-.144-.619Z" /><style>.msportalfx-svg-c01{fill:#fff}.msportalfx-svg-c02{fill:#e5e5e5}.msportalfx-svg-c03{fill:#a0a1a2}.msportalfx-svg-c04{fill:#7a7a7a}.msportalfx-svg-c05{fill:#3e3e3e}.msportalfx-svg-c06{fill:#1e1e1e}.msportalfx-svg-c07{fill:#0f0f0f}.msportalfx-svg-c08{fill:#ba141a}.msportalfx-svg-c09{fill:#dd5900}.msportalfx-svg-c10{fill:#ff8c00}.msportalfx-svg-c11{fill:#fcd116}.msportalfx-svg-c12{fill:#fee087}.msportalfx-svg-c13{fill:#b8d432}.msportalfx-svg-c14,.msportalfx-svg-c32{fill:#57a300}.msportalfx-svg-c15{fill:#59b4d9}.msportalfx-svg-c16{fill:#3999c6}.msportalfx-svg-c17{fill:#804998}.msportalfx-svg-c18{fill:#ec008c}.msportalfx-svg-c19{fill:#0072c6}.msportalfx-svg-c20{fill:#68217a}.msportalfx-svg-c21{fill:#00188f}.msportalfx-svg-c22{fill:#e81123}.fxs-mode-light .msportalfx-svg-c22{fill:#a4262c}.msportalfx-svg-c23{fill:#cae3f3}.msportalfx-svg-c24{fill:#59aed3}.msportalfx-svg-c25{fill:#4c3b12}.msportalfx-svg-c26{fill:#be9555}.msportalfx-svg-c27{fill:#4f4d52}.msportalfx-svg-c28{fill:#ef6f59}.msportalfx-svg-c29{fill:#f7cb64}.msportalfx-svg-c30{fill:#fdd8db}.msportalfx-svg-c31{fill:#f6ffec}.msportalfx-svg-c33{fill:#8a2da5}.msportalfx-svg-c34{fill:#e00b1c}.msportalfx-svg-c35{fill:#015cda}.msportalfx-svg-c36{fill:#5db300}.msportalfx-svg-c97{fill:#ffb900}.msportalfx-svg-c98{fill:#00a4ef}.msportalfx-svg-c99{fill:#f25022}.msportalfx-inverted-theme .msportalfx-svg-c05,.fxs-theme-dark .msportalfx-svg-c05{fill:#777}.msportalfx-inverted-theme .msportalfx-svg-c07,.fxs-theme-dark .msportalfx-svg-c07{fill:#f2f2f2}.msportalfx-svg-palette-white{fill:#fff}.msportalfx-svg-palette-blue{fill:#015cda}.msportalfx-svg-palette-black{fill:#1e1e1e}.msportalfx-svg-palette-green{fill:#57a300}.msportalfx-svg-palette-gray{fill:#a0a1a2}.msportalfx-svg-palette-inherit{fill:inherit}.msportalfx-svg-badge{position:absolute;left:0;bottom:0;min-height:10px;min-width:10px}.fxc-menu-icon&gt;.msportalfx-svg-badge{left:-2px;bottom:-2px;min-height:8px;min-width:8px}.msportalfx-svg-disabled{filter:grayscale(100%)}.msportalfx-svg-loading-square{animation:ProgressFlagAnimation 1.45s infinite ease-in-out;transform-origin:50%}.msportalfx-svg-loading-square:nth-child(1){animation-delay:0s}.msportalfx-svg-loading-square:nth-child(2){animation-delay:.2s}.msportalfx-svg-loading-square:nth-child(3){animation-delay:.4s}@keyframes ProgressFlagAnimation{0%{transform:scale(1);opacity:.3}36.1%{transform:scale(1.06);opacity:1}50%{transform:scale(1.06);opacity:1}86.1%{transform:scale(1);opacity:.3}}.msportalfx-svg-flip-horizontal&gt;svg,svg.msportalfx-svg-flip-horizontal{transform:scaleX(-1)}.msportalfx-svg-fabric-rotate360{animation:ImageRotation 1.3s cubic-bezier(.53,.21,.29,.67) infinite}@keyframes ImageRotation{0%{transform:rotate(-45deg)}100%{transform:rotate(315deg)}}.fxs-svg-number .msportalfx-font-bold{font-size:10px;fill:#0065ad}.fxs-svg-number .fxs-svg-circle{stroke-width:0%;fill:#0078d4}.fxs-svg-number .fxs-svg-text{fill:#fff;font-size:10px}.fxs-svg-number.msportalfx-svg-disabled{filter:grayscale(0%)}.fxs-svg-number.msportalfx-svg-disabled .fxs-svg-circle{fill:#fff;stroke-width:1px;stroke:#949494}.fxs-svg-number.msportalfx-svg-disabled .fxs-svg-text{fill:#949494}.fxs-theme-dark .fxs-svg-number .fxs-svg-text{fill:#0f0f0f}.fxs-theme-dark .fxs-svg-number .fxs-svg-circle{stroke-width:0%;fill:#0078d4}.fxs-theme-dark .fxs-svg-number.msportalfx-svg-disabled .fxs-svg-circle{fill:#0f0f0f;stroke-width:1px;stroke:#949494}.fxs-theme-dark .fxs-svg-number.msportalfx-svg-disabled .fxs-svg-text{fill:#949494}</style></svg>