<svg viewBox="0 0 18 18" class="msportalfx-svg-placeholder" role="presentation" focusable="false" xmlns:xlink="http://www.w3.org/1999/xlink" xmlns="http://www.w3.org/2000/svg"><desc>Create a Modeling and Simulation Workbench for deploying a secure, collaborative engineering design environment on Azure.</desc><g><title>Modeling and Simulation Workbench</title><defs><linearGradient id="definition-1" x1="9" y1="1.498" x2="9" y2="17.709" gradientUnits="userSpaceOnUse"><stop offset="0" stop-color="#6bb9f2" /><stop offset="1" stop-color="#1b93eb" /></linearGradient><linearGradient id="definition-2" x1="9" y1="13.77" x2="9" y2="2.92" gradientUnits="userSpaceOnUse"><stop offset="0" stop-color="#e6e6e6" /><stop offset="1" stop-color="#fff" /></linearGradient><linearGradient id="definition-3" x1="8.312" y1="7.64" x2="8.312" y2="11.257" gradientUnits="userSpaceOnUse"><stop offset=".225" stop-color="#32d4f5" /><stop offset=".473" stop-color="#31d1f3" /><stop offset=".633" stop-color="#2ec9eb" /><stop offset=".999" stop-color="#198ab3" /><stop offset="1" stop-color="#198ab3" /></linearGradient><linearGradient id="definition-4" x1="8.22" y1="5.701" x2="8.485" y2="8.985" gradientUnits="userSpaceOnUse"><stop offset=".225" stop-color="#32d4f5" /><stop offset=".473" stop-color="#31d1f3" /><stop offset=".633" stop-color="#2ec9eb" /><stop offset=".999" stop-color="#198ab3" /><stop offset="1" stop-color="#198ab3" /></linearGradient></defs><path d="M16.232 8.416c0 4.752-5.745 8.578-6.994 9.354a.449.449 0 0 1-.476 0c-1.249-.776-6.994-4.6-6.994-9.354V2.7a.454.454 0 0 1 .444-.453C6.68 2.123 5.651.162 9 .162s2.32 1.961 6.788 2.082a.454.454 0 0 1 .444.453Z" fill="#1b93eb" /><path d="M15.632 8.464c0 4.359-5.268 7.867-6.414 8.579a.413.413 0 0 1-.436 0c-1.146-.712-6.414-4.22-6.414-8.579V3.22a.417.417 0 0 1 .407-.42C6.872 2.693 5.929.9 9 .9s2.128 1.8 6.225 1.909a.417.417 0 0 1 .407.416Z" fill="url(#definition-1)" /><path d="m10.981 4.741-.729-.3a.223.223 0 0 1-.126-.131l-.448-1.241a.225.225 0 0 0-.211-.149h-.94a.225.225 0 0 0-.216.163L7.96 4.3a.224.224 0 0 1-.132.146l-.646.254A.224.224 0 0 1 7 4.7l-1.237-.59a.226.226 0 0 0-.255.044l-.664.658a.225.225 0 0 0-.046.255l.595 1.273a.227.227 0 0 1 .007.16l-.223.7a.228.228 0 0 1-.146.146l-1.232.4a.224.224 0 0 0-.157.214v.97a.226.226 0 0 0 .163.216l1.21.35a.226.226 0 0 1 .148.136l.231.61a.224.224 0 0 1-.007.174l-.555 1.2a.226.226 0 0 0 .043.252l.669.682a.226.226 0 0 0 .261.044l.032-.016L6.963 12a.223.223 0 0 1 .187-.008l.65.263a.222.222 0 0 1 .128.132l.447 1.238a.225.225 0 0 0 .212.148h.886a.224.224 0 0 0 .216-.162l.351-1.214a.228.228 0 0 1 .132-.146l.647-.261a.219.219 0 0 1 .179.005l1.178.551a.224.224 0 0 0 .255-.044l.625-.625a.226.226 0 0 0 .037-.269l-.012-.025-.481-1.19a.225.225 0 0 1 0-.169l.268-.662A.226.226 0 0 1 13 9.435l1.206-.446a.226.226 0 0 0 .147-.211v-.886a.226.226 0 0 0-.165-.217l-1.2-.333a.223.223 0 0 1-.153-.145l-.235-.712a.222.222 0 0 1 .01-.166l.556-1.2a.224.224 0 0 0-.045-.254l-.608-.608A.28.28 0 0 0 12.2 4.2Z" fill="url(#definition-2)" /><path d="M12.011 9.818A1.565 1.565 0 0 0 11 8.4a.817.817 0 1 0-.9-.007 1.449 1.449 0 0 0-1 1.425.26.26 0 0 0 .232.286h2.426a.26.26 0 0 0 .26-.259.162.162 0 0 0-.007-.027Z" fill="#198ab3" /><path d="M10.1 10.6a.387.387 0 0 0 .388-.386v-.046a2.211 2.211 0 0 0-2.173-2.21c-1.348 0-2.044.84-2.179 2.213a.389.389 0 0 0 .347.427h.039Z" fill="url(#definition-3)" /><path d="M8.336 8.251a1.213 1.213 0 0 1-.661-.2l.654 1.711.651-1.7a1.219 1.219 0 0 1-.644.189Z" opacity=".8" class="msportalfx-svg-c01" /><circle cx="8.327" cy="7.029" r="1.222" fill="url(#definition-4)" /></g><style>.msportalfx-svg-c01{fill:#fff}.msportalfx-svg-c02{fill:#e5e5e5}.msportalfx-svg-c03{fill:#a0a1a2}.msportalfx-svg-c04{fill:#7a7a7a}.msportalfx-svg-c05{fill:#3e3e3e}.msportalfx-svg-c06{fill:#1e1e1e}.msportalfx-svg-c07{fill:#0f0f0f}.msportalfx-svg-c08{fill:#ba141a}.msportalfx-svg-c09{fill:#dd5900}.msportalfx-svg-c10{fill:#ff8c00}.msportalfx-svg-c11{fill:#fcd116}.msportalfx-svg-c12{fill:#fee087}.msportalfx-svg-c13{fill:#b8d432}.msportalfx-svg-c14,.msportalfx-svg-c32{fill:#57a300}.msportalfx-svg-c15{fill:#59b4d9}.msportalfx-svg-c16{fill:#3999c6}.msportalfx-svg-c17{fill:#804998}.msportalfx-svg-c18{fill:#ec008c}.msportalfx-svg-c19{fill:#0072c6}.msportalfx-svg-c20{fill:#68217a}.msportalfx-svg-c21{fill:#00188f}.msportalfx-svg-c22{fill:#e81123}.fxs-mode-light .msportalfx-svg-c22{fill:#a4262c}.msportalfx-svg-c23{fill:#cae3f3}.msportalfx-svg-c24{fill:#59aed3}.msportalfx-svg-c25{fill:#4c3b12}.msportalfx-svg-c26{fill:#be9555}.msportalfx-svg-c27{fill:#4f4d52}.msportalfx-svg-c28{fill:#ef6f59}.msportalfx-svg-c29{fill:#f7cb64}.msportalfx-svg-c30{fill:#fdd8db}.msportalfx-svg-c31{fill:#f6ffec}.msportalfx-svg-c33{fill:#8a2da5}.msportalfx-svg-c34{fill:#e00b1c}.msportalfx-svg-c35{fill:#015cda}.msportalfx-svg-c36{fill:#5db300}.msportalfx-svg-c97{fill:#ffb900}.msportalfx-svg-c98{fill:#00a4ef}.msportalfx-svg-c99{fill:#f25022}.msportalfx-inverted-theme .msportalfx-svg-c05,.fxs-theme-dark .msportalfx-svg-c05{fill:#777}.msportalfx-inverted-theme .msportalfx-svg-c07,.fxs-theme-dark .msportalfx-svg-c07{fill:#f2f2f2}.msportalfx-svg-palette-white{fill:#fff}.msportalfx-svg-palette-blue{fill:#015cda}.msportalfx-svg-palette-black{fill:#1e1e1e}.msportalfx-svg-palette-green{fill:#57a300}.msportalfx-svg-palette-gray{fill:#a0a1a2}.msportalfx-svg-palette-inherit{fill:inherit}.msportalfx-svg-badge{position:absolute;left:0;bottom:0;min-height:10px;min-width:10px}.fxc-menu-icon&gt;.msportalfx-svg-badge{left:-2px;bottom:-2px;min-height:8px;min-width:8px}.msportalfx-svg-disabled{filter:grayscale(100%)}.msportalfx-svg-loading-square{animation:ProgressFlagAnimation 1.45s infinite ease-in-out;transform-origin:50%}.msportalfx-svg-loading-square:nth-child(1){animation-delay:0s}.msportalfx-svg-loading-square:nth-child(2){animation-delay:.2s}.msportalfx-svg-loading-square:nth-child(3){animation-delay:.4s}@keyframes ProgressFlagAnimation{0%{transform:scale(1);opacity:.3}36.1%{transform:scale(1.06);opacity:1}50%{transform:scale(1.06);opacity:1}86.1%{transform:scale(1);opacity:.3}}.msportalfx-svg-flip-horizontal&gt;svg,svg.msportalfx-svg-flip-horizontal{transform:scaleX(-1)}.msportalfx-svg-fabric-rotate360{animation:ImageRotation 1.3s cubic-bezier(.53,.21,.29,.67) infinite}@keyframes ImageRotation{0%{transform:rotate(-45deg)}100%{transform:rotate(315deg)}}.fxs-svg-number .msportalfx-font-bold{font-size:10px;fill:#0065ad}.fxs-svg-number .fxs-svg-circle{stroke-width:0%;fill:#0078d4}.fxs-svg-number .fxs-svg-text{fill:#fff;font-size:10px}.fxs-svg-number.msportalfx-svg-disabled{filter:grayscale(0%)}.fxs-svg-number.msportalfx-svg-disabled .fxs-svg-circle{fill:#fff;stroke-width:1px;stroke:#949494}.fxs-svg-number.msportalfx-svg-disabled .fxs-svg-text{fill:#949494}.fxs-theme-dark .fxs-svg-number .fxs-svg-text{fill:#0f0f0f}.fxs-theme-dark .fxs-svg-number .fxs-svg-circle{stroke-width:0%;fill:#0078d4}.fxs-theme-dark .fxs-svg-number.msportalfx-svg-disabled .fxs-svg-circle{fill:#0f0f0f;stroke-width:1px;stroke:#949494}.fxs-theme-dark .fxs-svg-number.msportalfx-svg-disabled .fxs-svg-text{fill:#949494}</style></svg>