<svg viewBox="0 0 18 18" xmlns='http://www.w3.org/2000/svg'><defs><linearGradient id="pNKdJF686__a" x1="8.741" x2="8.741" y1="-.017" y2="11.629" gradientUnits="userSpaceOnUse"><stop offset=".18" stop-color="#5ea0ef"/><stop offset="1" stop-color="#0078d4"/></linearGradient><linearGradient id="pNKdJF686__b" x1="6.97" x2="6.97" y1="11.629" y2="16.125" gradientUnits="userSpaceOnUse"><stop offset=".202" stop-color="#1f56a3"/><stop offset="1" stop-color="#1490df"/></linearGradient><linearGradient id="pNKdJF686__c" x1="13.657" x2="13.657" y1="9.249" y2="17.97" gradientUnits="userSpaceOnUse"><stop offset=".131" stop-color="#b796f9"/><stop offset="1" stop-color="#773adc"/></linearGradient></defs><path fill="url(#pNKdJF686__a)" d="M17.449.585v9.468a.28.28 0 0 1-.472.2 4.728 4.728 0 0 0-7.515 1.371H.618a.587.587 0 0 1-.586-.587V.586A.586.586 0 0 1 .618 0h16.246a.585.585 0 0 1 .585.585"/><path fill="url(#pNKdJF686__b)" d="M9.165 16.056H4.478a1.02 1.02 0 0 1 .86-.983c1.724-.206 1.724-1.446 1.724-3.444h2.4a4.73 4.73 0 0 0-.041 4.032.28.28 0 0 1-.256.395"/><rect width="2.697" height="2.697" x="7.025" y="4.814" fill="#9cebff" rx=".106"/><path fill="#773adc" d="M11.427 2.912H8.879a.1.1 0 0 0-.105.1v.463a.1.1 0 0 0 .105.1h1.874a.21.21 0 0 1 .212.211V5.7a.1.1 0 0 0 .1.1h.465a.1.1 0 0 0 .1-.1V3.123a.21.21 0 0 0-.211-.211Z"/><path fill="#fff" d="M10.533 6.249v1.678a.19.19 0 0 1-.193.192H6.511a.193.193 0 0 1-.193-.192V4.312a.193.193 0 0 1 .193-.193h1.92a.1.1 0 0 0 .1-.1v-.4a.1.1 0 0 0-.1-.1H5.9a.19.19 0 0 0-.193.191v4.831a.19.19 0 0 0 .193.192h5.056a.193.193 0 0 0 .193-.192V6.249a.1.1 0 0 0-.105-.1h-.4a.1.1 0 0 0-.106.1Z"/><rect width="8.621" height="8.621" x="9.347" y="9.379" fill="url(#pNKdJF686__c)" rx="4.311"/><path fill="#fff" d="M15.866 16.209h-4.417l.01-.026.9-2.054 1.278-2.918a.06.06 0 0 1 .063-.041c.082 0 .082 0 .112.074l1.474 3.562.57 1.379ZM15 15.9l-1.47-3.614-1.593 3.614Z"/><style>.msportalfx-svg-c01{fill:#fff}.msportalfx-svg-c02{fill:#e5e5e5}.msportalfx-svg-c03{fill:#a0a1a2}.msportalfx-svg-c04{fill:#7a7a7a}.msportalfx-svg-c05{fill:#3e3e3e}.msportalfx-svg-c06{fill:#1e1e1e}.msportalfx-svg-c07{fill:#0f0f0f}.msportalfx-svg-c08{fill:#ba141a}.msportalfx-svg-c09{fill:#dd5900}.msportalfx-svg-c10{fill:#ff8c00}.msportalfx-svg-c11{fill:#fcd116}.msportalfx-svg-c12{fill:#fee087}.msportalfx-svg-c13{fill:#b8d432}.msportalfx-svg-c14,.msportalfx-svg-c32{fill:#57a300}.msportalfx-svg-c15{fill:#59b4d9}.msportalfx-svg-c16{fill:#3999c6}.msportalfx-svg-c17{fill:#804998}.msportalfx-svg-c18{fill:#ec008c}.msportalfx-svg-c19{fill:#0072c6}.msportalfx-svg-c20{fill:#68217a}.msportalfx-svg-c21{fill:#00188f}.msportalfx-svg-c22{fill:#e81123}.fxs-mode-light .msportalfx-svg-c22{fill:#a4262c}.msportalfx-svg-c23{fill:#cae3f3}.msportalfx-svg-c24{fill:#59aed3}.msportalfx-svg-c25{fill:#4c3b12}.msportalfx-svg-c26{fill:#be9555}.msportalfx-svg-c27{fill:#4f4d52}.msportalfx-svg-c28{fill:#ef6f59}.msportalfx-svg-c29{fill:#f7cb64}.msportalfx-svg-c30{fill:#fdd8db}.msportalfx-svg-c31{fill:#f6ffec}.msportalfx-svg-c33{fill:#8a2da5}.msportalfx-svg-c34{fill:#e00b1c}.msportalfx-svg-c35{fill:#015cda}.msportalfx-svg-c36{fill:#5db300}.msportalfx-svg-c97{fill:#ffb900}.msportalfx-svg-c98{fill:#00a4ef}.msportalfx-svg-c99{fill:#f25022}.msportalfx-inverted-theme .msportalfx-svg-c05,.fxs-theme-dark .msportalfx-svg-c05{fill:#777}.msportalfx-inverted-theme .msportalfx-svg-c07,.fxs-theme-dark .msportalfx-svg-c07{fill:#f2f2f2}.msportalfx-svg-palette-white{fill:#fff}.msportalfx-svg-palette-blue{fill:#015cda}.msportalfx-svg-palette-black{fill:#1e1e1e}.msportalfx-svg-palette-green{fill:#57a300}.msportalfx-svg-palette-gray{fill:#a0a1a2}.msportalfx-svg-palette-inherit{fill:inherit}.msportalfx-svg-badge{position:absolute;left:0;bottom:0;min-height:10px;min-width:10px}.fxc-menu-icon>.msportalfx-svg-badge{left:-2px;bottom:-2px;min-height:8px;min-width:8px}.msportalfx-svg-disabled{filter:grayscale(100%)}.msportalfx-svg-loading-square{animation:ProgressFlagAnimation 1.45s infinite ease-in-out;transform-origin:50%}.msportalfx-svg-loading-square:nth-child(1){animation-delay:0s}.msportalfx-svg-loading-square:nth-child(2){animation-delay:.2s}.msportalfx-svg-loading-square:nth-child(3){animation-delay:.4s}@keyframes ProgressFlagAnimation{0%{transform:scale(1);opacity:.3}36.1%{transform:scale(1.06);opacity:1}50%{transform:scale(1.06);opacity:1}86.1%{transform:scale(1);opacity:.3}}.msportalfx-svg-flip-horizontal>svg,svg.msportalfx-svg-flip-horizontal{transform:scaleX(-1)}.msportalfx-svg-fabric-rotate360{animation:ImageRotation 1.3s cubic-bezier(.53,.21,.29,.67) infinite}@keyframes ImageRotation{0%{transform:rotate(-45deg)}100%{transform:rotate(315deg)}}.fxs-svg-number .msportalfx-font-bold{font-size:10px;fill:#0065ad}.fxs-svg-number .fxs-svg-circle{stroke-width:0%;fill:#0078d4}.fxs-svg-number .fxs-svg-text{fill:#fff;font-size:10px}.fxs-svg-number.msportalfx-svg-disabled{filter:grayscale(0%)}.fxs-svg-number.msportalfx-svg-disabled .fxs-svg-circle{fill:#fff;stroke-width:1px;stroke:#949494}.fxs-svg-number.msportalfx-svg-disabled .fxs-svg-text{fill:#949494}.fxs-theme-dark .fxs-svg-number .fxs-svg-text{fill:#0f0f0f}.fxs-theme-dark .fxs-svg-number .fxs-svg-circle{stroke-width:0%;fill:#0078d4}.fxs-theme-dark .fxs-svg-number.msportalfx-svg-disabled .fxs-svg-circle{fill:#0f0f0f;stroke-width:1px;stroke:#949494}.fxs-theme-dark .fxs-svg-number.msportalfx-svg-disabled .fxs-svg-text{fill:#949494}</style></svg>