<svg viewBox="0 0 18 18" class="msportalfx-svg-placeholder" xmlns="http://www.w3.org/2000/svg"><title>Azure compute gallery</title><desc>Azure compute galleries help you organize your custom managed images, share images with users, and replicate images to multiple regions.</desc><defs><linearGradient id="pmScG3XFn__a" x1="8.898" x2="8.898" y1="16.345" y2="1.887" gradientUnits="userSpaceOnUse"><stop offset=".001" stop-color="#773adc" /><stop offset="1" stop-color="#a67af4" /></linearGradient></defs><path fill="#773adc" d="M7.855 2.526h-.608a.43.43 0 0 1-.431-.426V.431A.43.43 0 0 1 7.247 0h.608a.43.43 0 0 1 .43.431V2.1a.43.43 0 0 1-.43.426m3.124-.426V.431A.43.43 0 0 0 10.548 0h-.607a.43.43 0 0 0-.431.431V2.1a.43.43 0 0 0 .431.431h.607a.43.43 0 0 0 .431-.431M8.285 17.612v-1.274a.39.39 0 0 0-.385-.388h-.7a.39.39 0 0 0-.388.388v1.274A.39.39 0 0 0 7.2 18h.7a.39.39 0 0 0 .385-.388m2.694 0v-1.274a.39.39 0 0 0-.388-.388H9.9a.39.39 0 0 0-.388.388v1.274A.39.39 0 0 0 9.9 18h.693a.39.39 0 0 0 .386-.388m4.8-9.114h1.777A.445.445 0 0 0 18 8.053V7.46a.445.445 0 0 0-.445-.445h-1.777a.445.445 0 0 0-.445.445v.593a.445.445 0 0 0 .445.447Zm0 2.719h1.777a.445.445 0 0 0 .444-.445v-.594a.444.444 0 0 0-.445-.444h-1.777a.444.444 0 0 0-.445.444v.594a.445.445 0 0 0 .445.445ZM.385 8.5h1.23A.385.385 0 0 0 2 8.113V7.4a.385.385 0 0 0-.385-.385H.385A.385.385 0 0 0 0 7.4v.713a.385.385 0 0 0 .385.387m0 2.719h1.23A.385.385 0 0 0 2 10.832v-.713a.385.385 0 0 0-.385-.385H.385a.385.385 0 0 0-.385.385v.713a.385.385 0 0 0 .385.385Z" /><rect width="14.327" height="14.458" x="1.734" y="1.887" fill="url(#pmScG3XFn__a)" rx=".88" /><path fill="#50e6ff" d="M12.097 7.198v3.604l-3.093 1.81V9z" /><path fill="#c3f1ff" d="m12.097 7.198-3.093 1.81-3.101-1.81 3.101-1.81z" /><path fill="#9cebff" d="M9.004 9.008v3.604l-3.101-1.81V7.198z" /><path fill="#c3f1ff" d="M5.903 10.802 9.004 9v3.612z" /><path fill="#9cebff" d="M12.097 10.802 9.004 9v3.612z" /><style>.msportalfx-svg-c01{fill:#fff}.msportalfx-svg-c02{fill:#e5e5e5}.msportalfx-svg-c03{fill:#a0a1a2}.msportalfx-svg-c04{fill:#7a7a7a}.msportalfx-svg-c05{fill:#3e3e3e}.msportalfx-svg-c06{fill:#1e1e1e}.msportalfx-svg-c07{fill:#0f0f0f}.msportalfx-svg-c08{fill:#ba141a}.msportalfx-svg-c09{fill:#dd5900}.msportalfx-svg-c10{fill:#ff8c00}.msportalfx-svg-c11{fill:#fcd116}.msportalfx-svg-c12{fill:#fee087}.msportalfx-svg-c13{fill:#b8d432}.msportalfx-svg-c14,.msportalfx-svg-c32{fill:#57a300}.msportalfx-svg-c15{fill:#59b4d9}.msportalfx-svg-c16{fill:#3999c6}.msportalfx-svg-c17{fill:#804998}.msportalfx-svg-c18{fill:#ec008c}.msportalfx-svg-c19{fill:#0072c6}.msportalfx-svg-c20{fill:#68217a}.msportalfx-svg-c21{fill:#00188f}.msportalfx-svg-c22{fill:#e81123}.fxs-mode-light .msportalfx-svg-c22{fill:#a4262c}.msportalfx-svg-c23{fill:#cae3f3}.msportalfx-svg-c24{fill:#59aed3}.msportalfx-svg-c25{fill:#4c3b12}.msportalfx-svg-c26{fill:#be9555}.msportalfx-svg-c27{fill:#4f4d52}.msportalfx-svg-c28{fill:#ef6f59}.msportalfx-svg-c29{fill:#f7cb64}.msportalfx-svg-c30{fill:#fdd8db}.msportalfx-svg-c31{fill:#f6ffec}.msportalfx-svg-c33{fill:#8a2da5}.msportalfx-svg-c34{fill:#e00b1c}.msportalfx-svg-c35{fill:#015cda}.msportalfx-svg-c36{fill:#5db300}.msportalfx-svg-c97{fill:#ffb900}.msportalfx-svg-c98{fill:#00a4ef}.msportalfx-svg-c99{fill:#f25022}.msportalfx-inverted-theme .msportalfx-svg-c05,.fxs-theme-dark .msportalfx-svg-c05{fill:#777}.msportalfx-inverted-theme .msportalfx-svg-c07,.fxs-theme-dark .msportalfx-svg-c07{fill:#f2f2f2}.msportalfx-svg-palette-white{fill:#fff}.msportalfx-svg-palette-blue{fill:#015cda}.msportalfx-svg-palette-black{fill:#1e1e1e}.msportalfx-svg-palette-green{fill:#57a300}.msportalfx-svg-palette-gray{fill:#a0a1a2}.msportalfx-svg-palette-inherit{fill:inherit}.msportalfx-svg-badge{position:absolute;left:0;bottom:0;min-height:10px;min-width:10px}.fxc-menu-icon&gt;.msportalfx-svg-badge{left:-2px;bottom:-2px;min-height:8px;min-width:8px}.msportalfx-svg-disabled{filter:grayscale(100%)}.msportalfx-svg-loading-square{animation:ProgressFlagAnimation 1.45s infinite ease-in-out;transform-origin:50%}.msportalfx-svg-loading-square:nth-child(1){animation-delay:0s}.msportalfx-svg-loading-square:nth-child(2){animation-delay:.2s}.msportalfx-svg-loading-square:nth-child(3){animation-delay:.4s}@keyframes ProgressFlagAnimation{0%{transform:scale(1);opacity:.3}36.1%{transform:scale(1.06);opacity:1}50%{transform:scale(1.06);opacity:1}86.1%{transform:scale(1);opacity:.3}}.msportalfx-svg-flip-horizontal&gt;svg,svg.msportalfx-svg-flip-horizontal{transform:scaleX(-1)}.msportalfx-svg-fabric-rotate360{animation:ImageRotation 1.3s cubic-bezier(.53,.21,.29,.67) infinite}@keyframes ImageRotation{0%{transform:rotate(-45deg)}100%{transform:rotate(315deg)}}.fxs-svg-number .msportalfx-font-bold{font-size:10px;fill:#0065ad}.fxs-svg-number .fxs-svg-circle{stroke-width:0%;fill:#0078d4}.fxs-svg-number .fxs-svg-text{fill:#fff;font-size:10px}.fxs-svg-number.msportalfx-svg-disabled{filter:grayscale(0%)}.fxs-svg-number.msportalfx-svg-disabled .fxs-svg-circle{fill:#fff;stroke-width:1px;stroke:#949494}.fxs-svg-number.msportalfx-svg-disabled .fxs-svg-text{fill:#949494}.fxs-theme-dark .fxs-svg-number .fxs-svg-text{fill:#0f0f0f}.fxs-theme-dark .fxs-svg-number .fxs-svg-circle{stroke-width:0%;fill:#0078d4}.fxs-theme-dark .fxs-svg-number.msportalfx-svg-disabled .fxs-svg-circle{fill:#0f0f0f;stroke-width:1px;stroke:#949494}.fxs-theme-dark .fxs-svg-number.msportalfx-svg-disabled .fxs-svg-text{fill:#949494}</style></svg>