<svg viewBox="0 0 18 18" class="msportalfx-svg-placeholder" xmlns="http://www.w3.org/2000/svg"><title>Azure Operator Service Manager</title><desc></desc><defs><linearGradient id="pBAiC4oI4__a" x1="5.776" x2="5.776" y1="17.93" y2="2.226" gradientUnits="userSpaceOnUse"><stop offset="0" stop-color="#7b7b7b" /><stop offset="1" stop-color="#fff" /></linearGradient></defs><path fill="#32bedd" d="M13.5 9c2.484 0 4.5 2.016 4.5 4.5S15.984 18 13.5 18H9v-4.5C9 11.016 11.016 9 13.5 9" /><path fill="url(#pBAiC4oI4__a)" d="M8.578 14.564H4.233L6.59 6.712h.28l1.782 5.937a4.9 4.9 0 0 1 .655-1.726L7.938 6.361 6.729 2.225 5.52 6.361 2.944 14.95a3 3 0 0 0-.088.289 6 6 0 0 1-.14.447 10 10 0 0 0-.167.517l-.149.517q-.07.246-.114.421a1.3 1.3 0 0 0-.044.228q0 .228.167.394a.54.54 0 0 0 .394.167.53.53 0 0 0 .342-.114.6.6 0 0 0 .193-.289l.552-1.84h4.687z" /><path fill="#0078d4" d="M2.401 8.036a5 5 0 0 0-.228-.307 3 3 0 0 1-.219-.307 5.5 5.5 0 0 1-.622-1.42 5.7 5.7 0 0 1-.21-1.534 6 6 0 0 1 .21-1.534q.201-.745.613-1.402.096-.166.21-.315l.228-.298a.5.5 0 0 0 .105-.167.6.6 0 0 0 .026-.193.54.54 0 0 0-.167-.394.54.54 0 0 0-.639-.106.7.7 0 0 0-.193.149 4.5 4.5 0 0 0-.648.92 8 8 0 0 0-.473 1.078A6.8 6.8 0 0 0 0 4.467q.009.57.105 1.139t.298 1.139c.202.569.295.739.482 1.078q.28.508.657.929a.55.55 0 0 0 .823.035.54.54 0 0 0 .132-.587.6.6 0 0 0-.096-.167Zm10.963-4.688a6.3 6.3 0 0 0-.289-1.139 7 7 0 0 0-.482-1.078 5 5 0 0 0-.648-.92.58.58 0 0 0-.438-.202.6.6 0 0 0-.394.166.5.5 0 0 0-.167.386q.01.114.035.193.027.079.096.167l.228.298q.114.148.21.315.42.666.622 1.411t.202 1.525c0 .78-.07 1.031-.21 1.534q-.21.753-.622 1.42-.105.176-.219.315a6 6 0 0 0-.228.298.5.5 0 0 0-.105.167.6.6 0 0 0-.026.193q0 .228.167.394c.167.166.242.167.394.167a.57.57 0 0 0 .438-.202q.394-.395.666-.92a9 9 0 0 0 .473-1.087q.201-.561.298-1.148c.097-.587.096-.768.096-1.13a8 8 0 0 0-.096-1.122ZM4.32 1.323q-.166-.167-.394-.167c-.228 0-.286.058-.403.175q-.315.306-.552.675-.237.367-.403.771a3.3 3.3 0 0 0-.245.833 4.7 4.7 0 0 0-.079.859q.009.666.21 1.35t.596 1.218a.6.6 0 0 0 .202.175.5.5 0 0 0 .254.061q.228 0 .394-.167c.166-.167.167-.242.167-.394a.6.6 0 0 0-.096-.324 5 5 0 0 1-.447-.92 3 3 0 0 1-.158-.999q0-.719.245-1.279.246-.56.719-1.078.087-.096.123-.184c.036-.088.035-.129.035-.21a.54.54 0 0 0-.167-.394Zm6.572 1.446a4.1 4.1 0 0 0-.955-1.437q-.087-.087-.184-.131c-.097-.044-.137-.044-.219-.044a.54.54 0 0 0-.394.167q-.166.166-.166.394c0 .228.053.283.158.394q.473.517.719 1.087.245.57.245 1.271 0 .771-.324 1.446a3 3 0 0 0-.114.193 2 2 0 0 1-.123.193.7.7 0 0 0-.14.412q.009.246.167.403c.158.157.237.158.394.158q.166-.009.289-.096a.8.8 0 0 0 .228-.228q.105-.14.184-.289t.131-.272a4.5 4.5 0 0 0 .429-1.919q0-.876-.324-1.7Zm-4.163-.548a2.243 2.243 0 1 0 0 4.485 2.243 2.243 0 0 0 0-4.485" /><g fill="#fff"><path d="M10.287 13.941a.193.193 0 0 0 .183-.206 3.072 3.072 0 0 1 5.173-2.429l-.073.069-.43.418a.036.036 0 0 0 .025.044h.009l1.312.071c.02 0 .036-.015.036-.035l-.038-1.297a.037.037 0 0 0-.035-.037h-.009l-.466.45-.031.029a3.475 3.475 0 0 0-5.862 2.736.196.196 0 0 0 .206.185Zm6.426-.882a.193.193 0 0 0-.183.206 3.072 3.072 0 0 1-5.173 2.429l.073-.069.43-.418a.036.036 0 0 0-.025-.044h-.009l-1.312-.071a.035.035 0 0 0-.036.035l.038 1.297c0 .02.015.036.035.037h.009l.466-.45.031-.029a3.475 3.475 0 0 0 5.862-2.736.196.196 0 0 0-.206-.185Z" /><path d="M15.511 13.717v-.458l-.064-.024-.492-.161-.129-.313.249-.531-.322-.322-.064.032-.458.232-.313-.129-.202-.555h-.458l-.024.064-.161.492-.313.129-.524-.25-.322.322.032.064.234.458-.129.313-.564.202v.458l.064.024.492.161.129.313-.25.532.322.322.064-.032.458-.233.313.129.202.555h.458l.024-.064.161-.492.313-.129.531.249.322-.322-.032-.064-.232-.458.129-.313.555-.202Zm-2.011.665a.883.883 0 1 1 .883-.883.883.883 0 0 1-.881.883z" /></g><style>.msportalfx-svg-c01{fill:#fff}.msportalfx-svg-c02{fill:#e5e5e5}.msportalfx-svg-c03{fill:#a0a1a2}.msportalfx-svg-c04{fill:#7a7a7a}.msportalfx-svg-c05{fill:#3e3e3e}.msportalfx-svg-c06{fill:#1e1e1e}.msportalfx-svg-c07{fill:#0f0f0f}.msportalfx-svg-c08{fill:#ba141a}.msportalfx-svg-c09{fill:#dd5900}.msportalfx-svg-c10{fill:#ff8c00}.msportalfx-svg-c11{fill:#fcd116}.msportalfx-svg-c12{fill:#fee087}.msportalfx-svg-c13{fill:#b8d432}.msportalfx-svg-c14,.msportalfx-svg-c32{fill:#57a300}.msportalfx-svg-c15{fill:#59b4d9}.msportalfx-svg-c16{fill:#3999c6}.msportalfx-svg-c17{fill:#804998}.msportalfx-svg-c18{fill:#ec008c}.msportalfx-svg-c19{fill:#0072c6}.msportalfx-svg-c20{fill:#68217a}.msportalfx-svg-c21{fill:#00188f}.msportalfx-svg-c22{fill:#e81123}.fxs-mode-light .msportalfx-svg-c22{fill:#a4262c}.msportalfx-svg-c23{fill:#cae3f3}.msportalfx-svg-c24{fill:#59aed3}.msportalfx-svg-c25{fill:#4c3b12}.msportalfx-svg-c26{fill:#be9555}.msportalfx-svg-c27{fill:#4f4d52}.msportalfx-svg-c28{fill:#ef6f59}.msportalfx-svg-c29{fill:#f7cb64}.msportalfx-svg-c30{fill:#fdd8db}.msportalfx-svg-c31{fill:#f6ffec}.msportalfx-svg-c33{fill:#8a2da5}.msportalfx-svg-c34{fill:#e00b1c}.msportalfx-svg-c35{fill:#015cda}.msportalfx-svg-c36{fill:#5db300}.msportalfx-svg-c97{fill:#ffb900}.msportalfx-svg-c98{fill:#00a4ef}.msportalfx-svg-c99{fill:#f25022}.msportalfx-inverted-theme .msportalfx-svg-c05,.fxs-theme-dark .msportalfx-svg-c05{fill:#777}.msportalfx-inverted-theme .msportalfx-svg-c07,.fxs-theme-dark .msportalfx-svg-c07{fill:#f2f2f2}.msportalfx-svg-palette-white{fill:#fff}.msportalfx-svg-palette-blue{fill:#015cda}.msportalfx-svg-palette-black{fill:#1e1e1e}.msportalfx-svg-palette-green{fill:#57a300}.msportalfx-svg-palette-gray{fill:#a0a1a2}.msportalfx-svg-palette-inherit{fill:inherit}.msportalfx-svg-badge{position:absolute;left:0;bottom:0;min-height:10px;min-width:10px}.fxc-menu-icon&gt;.msportalfx-svg-badge{left:-2px;bottom:-2px;min-height:8px;min-width:8px}.msportalfx-svg-disabled{filter:grayscale(100%)}.msportalfx-svg-loading-square{animation:ProgressFlagAnimation 1.45s infinite ease-in-out;transform-origin:50%}.msportalfx-svg-loading-square:nth-child(1){animation-delay:0s}.msportalfx-svg-loading-square:nth-child(2){animation-delay:.2s}.msportalfx-svg-loading-square:nth-child(3){animation-delay:.4s}@keyframes ProgressFlagAnimation{0%{transform:scale(1);opacity:.3}36.1%{transform:scale(1.06);opacity:1}50%{transform:scale(1.06);opacity:1}86.1%{transform:scale(1);opacity:.3}}.msportalfx-svg-flip-horizontal&gt;svg,svg.msportalfx-svg-flip-horizontal{transform:scaleX(-1)}.msportalfx-svg-fabric-rotate360{animation:ImageRotation 1.3s cubic-bezier(.53,.21,.29,.67) infinite}@keyframes ImageRotation{0%{transform:rotate(-45deg)}100%{transform:rotate(315deg)}}.fxs-svg-number .msportalfx-font-bold{font-size:10px;fill:#0065ad}.fxs-svg-number .fxs-svg-circle{stroke-width:0%;fill:#0078d4}.fxs-svg-number .fxs-svg-text{fill:#fff;font-size:10px}.fxs-svg-number.msportalfx-svg-disabled{filter:grayscale(0%)}.fxs-svg-number.msportalfx-svg-disabled .fxs-svg-circle{fill:#fff;stroke-width:1px;stroke:#949494}.fxs-svg-number.msportalfx-svg-disabled .fxs-svg-text{fill:#949494}.fxs-theme-dark .fxs-svg-number .fxs-svg-text{fill:#0f0f0f}.fxs-theme-dark .fxs-svg-number .fxs-svg-circle{stroke-width:0%;fill:#0078d4}.fxs-theme-dark .fxs-svg-number.msportalfx-svg-disabled .fxs-svg-circle{fill:#0f0f0f;stroke-width:1px;stroke:#949494}.fxs-theme-dark .fxs-svg-number.msportalfx-svg-disabled .fxs-svg-text{fill:#949494}</style></svg>