<svg viewBox="0 0 18 18" class="msportalfx-svg-placeholder" xmlns="http://www.w3.org/2000/svg"><title>Azure Network Function Manager – Network Function</title><desc></desc><defs><linearGradient id="p-Ovaom9H__a" x1="6.574" x2="6.574" y1="1.643" y2="13.015" gradientUnits="userSpaceOnUse"><stop offset="0" stop-color="#9d79eb" /><stop offset="1" stop-color="#7548d6" /></linearGradient><linearGradient id="p-Ovaom9H__b" x1="12.173" x2="12.151" y1="13.886" y2="17.014" gradientUnits="userSpaceOnUse"><stop offset="0" stop-color="#3cd4c2" /><stop offset="1" stop-color="#37c2b1" /></linearGradient><linearGradient id="p-Ovaom9H__c" x1="12.173" x2="12.151" y1="10.27" y2="13.399" gradientUnits="userSpaceOnUse"><stop offset="0" stop-color="#3cd4c2" /><stop offset="1" stop-color="#37c2b1" /></linearGradient></defs><path fill="url(#p-Ovaom9H__a)" d="M4.351 2.08a7.4 7.4 0 0 0-1.236 2.477H1.59A5.75 5.75 0 0 1 4.351 2.08M1.236 9.367h1.77a7.7 7.7 0 0 1-.3-2.021 10 10 0 0 1 .247-2.18h-1.66a5.66 5.66 0 0 0-.057 4.201m3.511 3.389A8.6 8.6 0 0 1 3.2 9.978H1.507a5.74 5.74 0 0 0 3.24 2.778m-.9-2.778a6.16 6.16 0 0 0 2.138 3.053q.083.007.166.008c0-.017-.01-.032-.01-.05V10.68a.8.8 0 0 1 .15-.441v-.261Zm-.529-2.632a7.2 7.2 0 0 0 .329 2.021H6.3v-4.2H3.574a9.3 9.3 0 0 0-.256 2.179m.425-2.789H6.3V1.643a6 6 0 0 0-.55.053 4.7 4.7 0 0 0-2.007 2.861m3.533-2.879a6 6 0 0 0-.371-.031v2.909h2.416a4.6 4.6 0 0 0-2.045-2.878m-.371 7.689h2.512a7.3 7.3 0 0 0 .33-2.021 9.3 9.3 0 0 0-.257-2.18H6.905Zm1.77-7.331A7.3 7.3 0 0 1 9.95 4.557h1.608a5.75 5.75 0 0 0-2.883-2.521m1.433 3.13a10 10 0 0 1 .247 2.178 7.7 7.7 0 0 1-.3 2.023h1.854a5.66 5.66 0 0 0-.057-4.2Z" /><rect width="11.177" height="3.056" x="6.573" y="13.922" fill="url(#p-Ovaom9H__b)" rx=".374" /><rect width=".835" height=".835" x="16.014" y="14.457" fill="#fff" rx=".187" /><rect width=".835" height=".835" x="16.014" y="15.608" fill="#fff" opacity=".6" rx=".187" /><path fill="#b796f9" d="M6.154 13.039c-.055 0-.111 0-.166-.008A6.16 6.16 0 0 1 3.85 9.978h2.444v.261a.79.79 0 0 1 .653-.362h5.4a6.16 6.16 0 0 0-.045-5.2l-.058-.122A6.33 6.33 0 0 0 7.43 1.087a1.3 1.3 0 0 0-.295-.036 6 6 0 0 0-1.206.003 1.7 1.7 0 0 0-.344.053A6.34 6.34 0 0 0 .91 4.557H.9v.013a6.3 6.3 0 0 0 4.884 9.044.2.2 0 0 0 .048.007 6 6 0 0 0 .713.048.8.8 0 0 1-.391-.63m5.758-3.672h-1.854a7.7 7.7 0 0 0 .3-2.023 10 10 0 0 0-.247-2.178h1.747a5.66 5.66 0 0 1 .054 4.201m-.354-4.81H9.95a7.3 7.3 0 0 0-1.275-2.521 5.75 5.75 0 0 1 2.883 2.521m-4.653-2.91q.186.01.371.031a4.6 4.6 0 0 1 2.045 2.878H6.905Zm0 3.519H9.49a9.3 9.3 0 0 1 .257 2.18 7.3 7.3 0 0 1-.33 2.021H6.905ZM6.3 9.367H3.647a7.2 7.2 0 0 1-.329-2.021 9.3 9.3 0 0 1 .256-2.18H6.3ZM5.746 1.7q.271-.04.55-.053v2.91H3.743A4.7 4.7 0 0 1 5.746 1.7m-1.4.384a7.4 7.4 0 0 0-1.231 2.473H1.59A5.75 5.75 0 0 1 4.351 2.08ZM1.293 5.166h1.663a10 10 0 0 0-.247 2.18 7.7 7.7 0 0 0 .3 2.021H1.236a5.66 5.66 0 0 1 .057-4.201m.214 4.812H3.2a8.6 8.6 0 0 0 1.551 2.778 5.74 5.74 0 0 1-3.244-2.778" /><rect width="11.177" height="3.056" x="6.573" y="10.307" fill="url(#p-Ovaom9H__c)" rx=".374" /><rect width=".835" height=".835" x="16.014" y="10.841" fill="#fff" rx=".187" /><rect width=".835" height=".835" x="16.014" y="11.993" fill="#fff" opacity=".6" rx=".187" /><style>.msportalfx-svg-c01{fill:#fff}.msportalfx-svg-c02{fill:#e5e5e5}.msportalfx-svg-c03{fill:#a0a1a2}.msportalfx-svg-c04{fill:#7a7a7a}.msportalfx-svg-c05{fill:#3e3e3e}.msportalfx-svg-c06{fill:#1e1e1e}.msportalfx-svg-c07{fill:#0f0f0f}.msportalfx-svg-c08{fill:#ba141a}.msportalfx-svg-c09{fill:#dd5900}.msportalfx-svg-c10{fill:#ff8c00}.msportalfx-svg-c11{fill:#fcd116}.msportalfx-svg-c12{fill:#fee087}.msportalfx-svg-c13{fill:#b8d432}.msportalfx-svg-c14,.msportalfx-svg-c32{fill:#57a300}.msportalfx-svg-c15{fill:#59b4d9}.msportalfx-svg-c16{fill:#3999c6}.msportalfx-svg-c17{fill:#804998}.msportalfx-svg-c18{fill:#ec008c}.msportalfx-svg-c19{fill:#0072c6}.msportalfx-svg-c20{fill:#68217a}.msportalfx-svg-c21{fill:#00188f}.msportalfx-svg-c22{fill:#e81123}.fxs-mode-light .msportalfx-svg-c22{fill:#a4262c}.msportalfx-svg-c23{fill:#cae3f3}.msportalfx-svg-c24{fill:#59aed3}.msportalfx-svg-c25{fill:#4c3b12}.msportalfx-svg-c26{fill:#be9555}.msportalfx-svg-c27{fill:#4f4d52}.msportalfx-svg-c28{fill:#ef6f59}.msportalfx-svg-c29{fill:#f7cb64}.msportalfx-svg-c30{fill:#fdd8db}.msportalfx-svg-c31{fill:#f6ffec}.msportalfx-svg-c33{fill:#8a2da5}.msportalfx-svg-c34{fill:#e00b1c}.msportalfx-svg-c35{fill:#015cda}.msportalfx-svg-c36{fill:#5db300}.msportalfx-svg-c97{fill:#ffb900}.msportalfx-svg-c98{fill:#00a4ef}.msportalfx-svg-c99{fill:#f25022}.msportalfx-inverted-theme .msportalfx-svg-c05,.fxs-theme-dark .msportalfx-svg-c05{fill:#777}.msportalfx-inverted-theme .msportalfx-svg-c07,.fxs-theme-dark .msportalfx-svg-c07{fill:#f2f2f2}.msportalfx-svg-palette-white{fill:#fff}.msportalfx-svg-palette-blue{fill:#015cda}.msportalfx-svg-palette-black{fill:#1e1e1e}.msportalfx-svg-palette-green{fill:#57a300}.msportalfx-svg-palette-gray{fill:#a0a1a2}.msportalfx-svg-palette-inherit{fill:inherit}.msportalfx-svg-badge{position:absolute;left:0;bottom:0;min-height:10px;min-width:10px}.fxc-menu-icon&gt;.msportalfx-svg-badge{left:-2px;bottom:-2px;min-height:8px;min-width:8px}.msportalfx-svg-disabled{filter:grayscale(100%)}.msportalfx-svg-loading-square{animation:ProgressFlagAnimation 1.45s infinite ease-in-out;transform-origin:50%}.msportalfx-svg-loading-square:nth-child(1){animation-delay:0s}.msportalfx-svg-loading-square:nth-child(2){animation-delay:.2s}.msportalfx-svg-loading-square:nth-child(3){animation-delay:.4s}@keyframes ProgressFlagAnimation{0%{transform:scale(1);opacity:.3}36.1%{transform:scale(1.06);opacity:1}50%{transform:scale(1.06);opacity:1}86.1%{transform:scale(1);opacity:.3}}.msportalfx-svg-flip-horizontal&gt;svg,svg.msportalfx-svg-flip-horizontal{transform:scaleX(-1)}.msportalfx-svg-fabric-rotate360{animation:ImageRotation 1.3s cubic-bezier(.53,.21,.29,.67) infinite}@keyframes ImageRotation{0%{transform:rotate(-45deg)}100%{transform:rotate(315deg)}}.fxs-svg-number .msportalfx-font-bold{font-size:10px;fill:#0065ad}.fxs-svg-number .fxs-svg-circle{stroke-width:0%;fill:#0078d4}.fxs-svg-number .fxs-svg-text{fill:#fff;font-size:10px}.fxs-svg-number.msportalfx-svg-disabled{filter:grayscale(0%)}.fxs-svg-number.msportalfx-svg-disabled .fxs-svg-circle{fill:#fff;stroke-width:1px;stroke:#949494}.fxs-svg-number.msportalfx-svg-disabled .fxs-svg-text{fill:#949494}.fxs-theme-dark .fxs-svg-number .fxs-svg-text{fill:#0f0f0f}.fxs-theme-dark .fxs-svg-number .fxs-svg-circle{stroke-width:0%;fill:#0078d4}.fxs-theme-dark .fxs-svg-number.msportalfx-svg-disabled .fxs-svg-circle{fill:#0f0f0f;stroke-width:1px;stroke:#949494}.fxs-theme-dark .fxs-svg-number.msportalfx-svg-disabled .fxs-svg-text{fill:#949494}</style></svg>