<svg fill="none" viewBox="0 0 34 34" class="msportalfx-svg-placeholder" xmlns="http://www.w3.org/2000/svg"><title>Site manager - Azure Arc</title><desc>Sites</desc><g clip-path="url(#pbVY4RdLb__a)"><path fill="transparent" d="M0 0h34v34H0z" /><path fill="#198AB3" d="M23.583 34H32.2c.44 0 .843-.367.843-.843V31.36l-.953.586h-8.508zm-13.166 0H1.8a.853.853 0 0 1-.843-.843V31.36l.953.586h8.471V34zm11.516-2.017h-9.865V34h9.865z" /><path fill="url(#pbVY4RdLb__b)" d="M13.204 27.069h7.555l1.137 4.914h-9.828zm-5.83-3.814h5.794l.587-1.87H9.5c-.183 0-.366.036-.55.073a.9.9 0 0 0-.33.147zm-5.428 8.728h8.471l1.54-4.914h-7.59l-3.155 4.034c-.183.22-.183.44-.073.587.147.183.44.293.807.293m2.897-5.501h7.298l.88-2.86H7.08zm18.703 5.501h8.508c.367 0 .624-.11.77-.257.11-.146.11-.366-.073-.586l-3.154-4.035h-7.554zm-10.195-5.501h7.298l-.66-2.86H14.01zm8.508 0h7.298l-2.237-2.86h-5.978zm-1.613-5.097.586 1.87h5.795l-1.284-1.65c-.037-.074-.146-.11-.33-.147a2.2 2.2 0 0 0-.513-.073zm-6.161 1.87h5.794l-.44-1.87h-4.914z" /><path fill="url(#pbVY4RdLb__c)" d="M17.018 0a7.62 7.62 0 0 0-5.28 2.384C10.38 3.85 9.61 5.83 9.684 7.848v.11c0 3.447 4.364 11.589 6.344 16.43.074.183.22.366.367.476.183.11.367.184.587.184s.403-.074.587-.184.293-.293.366-.476c2.017-4.915 6.381-13.093 6.381-16.43a7.82 7.82 0 0 0-2.017-5.5C20.906.99 19 .072 17.02 0m0 10.745c-.66 0-1.283-.183-1.797-.55a3.63 3.63 0 0 1-1.21-1.467c-.256-.587-.293-1.247-.183-1.907.11-.623.44-1.21.88-1.687a3.16 3.16 0 0 1 1.65-.88c.624-.11 1.284-.073 1.87.183.587.257 1.1.66 1.467 1.21s.55 1.174.55 1.834c0 .88-.33 1.687-.953 2.31-.587.624-1.43.954-2.274.954" /></g><defs><linearGradient id="pbVY4RdLb__b" x1="16.982" x2="16.982" y1="21.384" y2="31.983" gradientUnits="userSpaceOnUse"><stop stop-color="#9CEBFF" /><stop offset="1" stop-color="#33BEDD" /></linearGradient><linearGradient id="pbVY4RdLb__c" x1="16.995" x2="16.995" y1=".001" y2="25.038" gradientUnits="userSpaceOnUse"><stop stop-color="#B77AF4" /><stop offset=".621" stop-color="#8C4FE4" /><stop offset=".997" stop-color="#773ADC" /></linearGradient><clipPath id="pbVY4RdLb__a"><path fill="#fff" d="M0 0h34v34H0z" /></clipPath></defs><style>.msportalfx-svg-c01{fill:#fff}.msportalfx-svg-c02{fill:#e5e5e5}.msportalfx-svg-c03{fill:#a0a1a2}.msportalfx-svg-c04{fill:#7a7a7a}.msportalfx-svg-c05{fill:#3e3e3e}.msportalfx-svg-c06{fill:#1e1e1e}.msportalfx-svg-c07{fill:#0f0f0f}.msportalfx-svg-c08{fill:#ba141a}.msportalfx-svg-c09{fill:#dd5900}.msportalfx-svg-c10{fill:#ff8c00}.msportalfx-svg-c11{fill:#fcd116}.msportalfx-svg-c12{fill:#fee087}.msportalfx-svg-c13{fill:#b8d432}.msportalfx-svg-c14,.msportalfx-svg-c32{fill:#57a300}.msportalfx-svg-c15{fill:#59b4d9}.msportalfx-svg-c16{fill:#3999c6}.msportalfx-svg-c17{fill:#804998}.msportalfx-svg-c18{fill:#ec008c}.msportalfx-svg-c19{fill:#0072c6}.msportalfx-svg-c20{fill:#68217a}.msportalfx-svg-c21{fill:#00188f}.msportalfx-svg-c22{fill:#e81123}.fxs-mode-light .msportalfx-svg-c22{fill:#a4262c}.msportalfx-svg-c23{fill:#cae3f3}.msportalfx-svg-c24{fill:#59aed3}.msportalfx-svg-c25{fill:#4c3b12}.msportalfx-svg-c26{fill:#be9555}.msportalfx-svg-c27{fill:#4f4d52}.msportalfx-svg-c28{fill:#ef6f59}.msportalfx-svg-c29{fill:#f7cb64}.msportalfx-svg-c30{fill:#fdd8db}.msportalfx-svg-c31{fill:#f6ffec}.msportalfx-svg-c33{fill:#8a2da5}.msportalfx-svg-c34{fill:#e00b1c}.msportalfx-svg-c35{fill:#015cda}.msportalfx-svg-c36{fill:#5db300}.msportalfx-svg-c97{fill:#ffb900}.msportalfx-svg-c98{fill:#00a4ef}.msportalfx-svg-c99{fill:#f25022}.msportalfx-inverted-theme .msportalfx-svg-c05,.fxs-theme-dark .msportalfx-svg-c05{fill:#777}.msportalfx-inverted-theme .msportalfx-svg-c07,.fxs-theme-dark .msportalfx-svg-c07{fill:#f2f2f2}.msportalfx-svg-palette-white{fill:#fff}.msportalfx-svg-palette-blue{fill:#015cda}.msportalfx-svg-palette-black{fill:#1e1e1e}.msportalfx-svg-palette-green{fill:#57a300}.msportalfx-svg-palette-gray{fill:#a0a1a2}.msportalfx-svg-palette-inherit{fill:inherit}.msportalfx-svg-badge{position:absolute;left:0;bottom:0;min-height:10px;min-width:10px}.fxc-menu-icon&gt;.msportalfx-svg-badge{left:-2px;bottom:-2px;min-height:8px;min-width:8px}.msportalfx-svg-disabled{filter:grayscale(100%)}.msportalfx-svg-loading-square{animation:ProgressFlagAnimation 1.45s infinite ease-in-out;transform-origin:50%}.msportalfx-svg-loading-square:nth-child(1){animation-delay:0s}.msportalfx-svg-loading-square:nth-child(2){animation-delay:.2s}.msportalfx-svg-loading-square:nth-child(3){animation-delay:.4s}@keyframes ProgressFlagAnimation{0%{transform:scale(1);opacity:.3}36.1%{transform:scale(1.06);opacity:1}50%{transform:scale(1.06);opacity:1}86.1%{transform:scale(1);opacity:.3}}.msportalfx-svg-flip-horizontal&gt;svg,svg.msportalfx-svg-flip-horizontal{transform:scaleX(-1)}.msportalfx-svg-fabric-rotate360{animation:ImageRotation 1.3s cubic-bezier(.53,.21,.29,.67) infinite}@keyframes ImageRotation{0%{transform:rotate(-45deg)}100%{transform:rotate(315deg)}}.fxs-svg-number .msportalfx-font-bold{font-size:10px;fill:#0065ad}.fxs-svg-number .fxs-svg-circle{stroke-width:0%;fill:#0078d4}.fxs-svg-number .fxs-svg-text{fill:#fff;font-size:10px}.fxs-svg-number.msportalfx-svg-disabled{filter:grayscale(0%)}.fxs-svg-number.msportalfx-svg-disabled .fxs-svg-circle{fill:#fff;stroke-width:1px;stroke:#949494}.fxs-svg-number.msportalfx-svg-disabled .fxs-svg-text{fill:#949494}.fxs-theme-dark .fxs-svg-number .fxs-svg-text{fill:#0f0f0f}.fxs-theme-dark .fxs-svg-number .fxs-svg-circle{stroke-width:0%;fill:#0078d4}.fxs-theme-dark .fxs-svg-number.msportalfx-svg-disabled .fxs-svg-circle{fill:#0f0f0f;stroke-width:1px;stroke:#949494}.fxs-theme-dark .fxs-svg-number.msportalfx-svg-disabled .fxs-svg-text{fill:#949494}</style></svg>