<svg viewBox="0 0 18 18"><defs><linearGradient id="pNBStTWql__a" x1="11.176" x2="11.176" y1="7.698" y2="16.95" gradientTransform="matrix(1 0 0 -1 0 18)" gradientUnits="userSpaceOnUse"><stop offset="0" stop-color="#0078d4"/><stop offset=".149" stop-color="#1882db"/><stop offset=".373" stop-color="#378fe4"/><stop offset=".594" stop-color="#4c99ea"/><stop offset=".806" stop-color="#5a9eee"/><stop offset="1" stop-color="#5ea0ef"/></linearGradient></defs><path fill="url(#pNBStTWql__a)" d="M17.7 7.405a2.93 2.93 0 0 0-2.544-2.818 3.7 3.7 0 0 0-3.806-3.535 3.79 3.79 0 0 0-3.623 2.471A3.5 3.5 0 0 0 4.651 6.89a3.55 3.55 0 0 0 3.675 3.41 3 3 0 0 0 .324-.014h5.95a.6.6 0 0 0 .157-.024A2.966 2.966 0 0 0 17.7 7.405"/><path fill="#fff" d="m10.777 9.965.019.431.428.057a2.54 2.54 0 0 1 2.2 2.43 2.58 2.58 0 0 1-2.546 2.5h-.044l-.032.006-.035-.007h-6.6a3.2 3.2 0 0 1-1.238-.168 3.4 3.4 0 0 1-1.106-.643 3.3 3.3 0 0 1-.741-1.035 3.04 3.04 0 0 1 .559-3.21A3.15 3.15 0 0 1 3.6 9.36l.313-.037.109-.295a3.5 3.5 0 0 1 1.29-1.662 3.43 3.43 0 0 1 2-.6h.025a3.34 3.34 0 0 1 3.439 3.2Z"/><path fill="#50e6ff" d="m10.791 15.9-.085-.019H4.167a3.7 3.7 0 0 1-1.4-.194 3.9 3.9 0 0 1-1.274-.741 3.8 3.8 0 0 1-.867-1.2 3.56 3.56 0 0 1 .644-3.755 3.65 3.65 0 0 1 2.279-1.128v-.008a3.96 3.96 0 0 1 1.475-1.9 3.8 3.8 0 0 1 2.293-.689 3.85 3.85 0 0 1 3.954 3.677l.014.014a3.03 3.03 0 0 1 2.635 2.909 3.08 3.08 0 0 1-3.04 3.017ZM7.3 7.266A2.94 2.94 0 0 0 4.491 9.2l-.215.583-.617.072A2.65 2.65 0 0 0 2 10.67a2.55 2.55 0 0 0-.46 2.675 2.8 2.8 0 0 0 .623.863 2.8 2.8 0 0 0 .927.533 2.7 2.7 0 0 0 1.043.142h6.697a2.083 2.083 0 0 0 2.09-2.016 2.03 2.03 0 0 0-1.767-1.919l-.843-.111-.037-.852a2.84 2.84 0 0 0-2.92-2.719Z"/><path fill="#0078d4" d="M5.1 12.5v-.3l-.307-.1-.078-.21.15-.313v-.036l-.1-.1-.114-.121h-.039l-.3.151-.21-.054-.127-.337h-.3l-.1.307-.21.078-.349-.165-.216.217v.036l.15.3-.084.21-.366.127v.3h.042l.319.108.09.205-.168.349.217.217h.036l.3-.156.21.084.133.367h.3v-.042l.109-.325.2-.084.355.162.21-.21v-.042l-.132-.289.06-.211Zm-1.269.277a.427.427 0 1 1 .155-.822.44.44 0 0 1 .193.157.43.43 0 0 1 .072.238.42.42 0 0 1-.4.427Z"/><path fill="#0078d4" fill-rule="evenodd" d="M3.816 15.905a3.537 3.537 0 1 1 3.558-3.537H6.3a2.462 2.462 0 1 0-2.464 2.46h.784a.06.06 0 0 0 .056-.016.1.1 0 0 0 .016-.026.1.1 0 0 0 0-.03v-.872a.09.09 0 0 1 .052-.067.1.1 0 0 1 .083.018l1.5 1.5a.1.1 0 0 1 0 .049.1.1 0 0 1-.027.042l-1.5 1.5a.1.1 0 0 1-.042.018.1.1 0 0 1-.044-.007.1.1 0 0 1-.035-.029.1.1 0 0 1-.014-.043v-.886a.08.08 0 0 0-.022-.053.07.07 0 0 0-.054-.022z"/><style>.msportalfx-svg-c01{fill:#fff}.msportalfx-svg-c02{fill:#e5e5e5}.msportalfx-svg-c03{fill:#a0a1a2}.msportalfx-svg-c04{fill:#7a7a7a}.msportalfx-svg-c05{fill:#3e3e3e}.msportalfx-svg-c06{fill:#1e1e1e}.msportalfx-svg-c07{fill:#0f0f0f}.msportalfx-svg-c08{fill:#ba141a}.msportalfx-svg-c09{fill:#dd5900}.msportalfx-svg-c10{fill:#ff8c00}.msportalfx-svg-c11{fill:#fcd116}.msportalfx-svg-c12{fill:#fee087}.msportalfx-svg-c13{fill:#b8d432}.msportalfx-svg-c14,.msportalfx-svg-c32{fill:#57a300}.msportalfx-svg-c15{fill:#59b4d9}.msportalfx-svg-c16{fill:#3999c6}.msportalfx-svg-c17{fill:#804998}.msportalfx-svg-c18{fill:#ec008c}.msportalfx-svg-c19{fill:#0072c6}.msportalfx-svg-c20{fill:#68217a}.msportalfx-svg-c21{fill:#00188f}.msportalfx-svg-c22{fill:#e81123}.fxs-mode-light .msportalfx-svg-c22{fill:#a4262c}.msportalfx-svg-c23{fill:#cae3f3}.msportalfx-svg-c24{fill:#59aed3}.msportalfx-svg-c25{fill:#4c3b12}.msportalfx-svg-c26{fill:#be9555}.msportalfx-svg-c27{fill:#4f4d52}.msportalfx-svg-c28{fill:#ef6f59}.msportalfx-svg-c29{fill:#f7cb64}.msportalfx-svg-c30{fill:#fdd8db}.msportalfx-svg-c31{fill:#f6ffec}.msportalfx-svg-c33{fill:#8a2da5}.msportalfx-svg-c34{fill:#e00b1c}.msportalfx-svg-c35{fill:#015cda}.msportalfx-svg-c36{fill:#5db300}.msportalfx-svg-c97{fill:#ffb900}.msportalfx-svg-c98{fill:#00a4ef}.msportalfx-svg-c99{fill:#f25022}.msportalfx-inverted-theme .msportalfx-svg-c05,.fxs-theme-dark .msportalfx-svg-c05{fill:#777}.msportalfx-inverted-theme .msportalfx-svg-c07,.fxs-theme-dark .msportalfx-svg-c07{fill:#f2f2f2}.msportalfx-svg-palette-white{fill:#fff}.msportalfx-svg-palette-blue{fill:#015cda}.msportalfx-svg-palette-black{fill:#1e1e1e}.msportalfx-svg-palette-green{fill:#57a300}.msportalfx-svg-palette-gray{fill:#a0a1a2}.msportalfx-svg-palette-inherit{fill:inherit}.msportalfx-svg-badge{position:absolute;left:0;bottom:0;min-height:10px;min-width:10px}.fxc-menu-icon>.msportalfx-svg-badge{left:-2px;bottom:-2px;min-height:8px;min-width:8px}.msportalfx-svg-disabled{filter:grayscale(100%)}.msportalfx-svg-loading-square{animation:ProgressFlagAnimation 1.45s infinite ease-in-out;transform-origin:50%}.msportalfx-svg-loading-square:nth-child(1){animation-delay:0s}.msportalfx-svg-loading-square:nth-child(2){animation-delay:.2s}.msportalfx-svg-loading-square:nth-child(3){animation-delay:.4s}@keyframes ProgressFlagAnimation{0%{transform:scale(1);opacity:.3}36.1%{transform:scale(1.06);opacity:1}50%{transform:scale(1.06);opacity:1}86.1%{transform:scale(1);opacity:.3}}.msportalfx-svg-flip-horizontal>svg,svg.msportalfx-svg-flip-horizontal{transform:scaleX(-1)}.msportalfx-svg-fabric-rotate360{animation:ImageRotation 1.3s cubic-bezier(.53,.21,.29,.67) infinite}@keyframes ImageRotation{0%{transform:rotate(-45deg)}100%{transform:rotate(315deg)}}.fxs-svg-number .msportalfx-font-bold{font-size:10px;fill:#0065ad}.fxs-svg-number .fxs-svg-circle{stroke-width:0%;fill:#0078d4}.fxs-svg-number .fxs-svg-text{fill:#fff;font-size:10px}.fxs-svg-number.msportalfx-svg-disabled{filter:grayscale(0%)}.fxs-svg-number.msportalfx-svg-disabled .fxs-svg-circle{fill:#fff;stroke-width:1px;stroke:#949494}.fxs-svg-number.msportalfx-svg-disabled .fxs-svg-text{fill:#949494}.fxs-theme-dark .fxs-svg-number .fxs-svg-text{fill:#0f0f0f}.fxs-theme-dark .fxs-svg-number .fxs-svg-circle{stroke-width:0%;fill:#0078d4}.fxs-theme-dark .fxs-svg-number.msportalfx-svg-disabled .fxs-svg-circle{fill:#0f0f0f;stroke-width:1px;stroke:#949494}.fxs-theme-dark .fxs-svg-number.msportalfx-svg-disabled .fxs-svg-text{fill:#949494}</style></svg>