<svg viewBox="0 0 64 64" class="msportalfx-svg-placeholder" role="presentation" focusable="false" xmlns:xlink="http://www.w3.org/1999/xlink" xmlns="http://www.w3.org/2000/svg"><desc>Create a Confluent organization using Azure Marketplace with Pay as you Go or Commits</desc><g><title>Confluent organization</title><path d="M46.74 32.89c1.64-.09 3.28-.14 4.91-.26v-1.26c-1.64-.12-3.28-.17-4.91-.26l-4.91-.15c-2.88-.09-5.77-.11-8.65-.13-.01-2.89-.02-5.77-.1-8.66l-.14-4.91c-.08-1.64-.13-3.28-.25-4.91H31.3c-.12 1.64-.16 3.28-.25 4.91l-.14 4.91c-.04 1.35-.05 2.71-.07 4.06-.53-1.25-1.07-2.49-1.62-3.73l-2.01-4.49c-.7-1.48-1.38-2.98-2.11-4.45l-1.28.53c.52 1.56 1.1 3.09 1.65 4.63l1.75 4.59c.48 1.26.99 2.52 1.49 3.78-.97-.95-1.94-1.89-2.92-2.82l-3.57-3.38c-1.22-1.1-2.41-2.22-3.65-3.3l-.98.98c1.08 1.24 2.2 2.43 3.3 3.65l3.38 3.57c.93.98 1.88 1.95 2.82 2.92-1.26-.5-2.51-1.01-3.78-1.49l-4.59-1.75c-1.55-.55-3.08-1.13-4.63-1.65l-.53 1.28c1.47.73 2.96 1.41 4.44 2.11l4.49 2.01c1.24.55 2.48 1.09 3.73 1.62-1.35.01-2.71.03-4.06.07l-4.91.14c-1.64.08-3.28.13-4.91.25v1.39c1.64.12 3.28.16 4.91.25l4.91.14c2.89.08 5.77.09 8.66.1.02 2.88.04 5.77.13 8.65l.15 4.91c.09 1.64.14 3.28.26 4.91h1.26c.12-1.64.17-3.28.26-4.91l.15-4.91c.04-1.39.07-2.77.08-4.16.55 1.27 1.1 2.55 1.67 3.81l2.02 4.48c.71 1.48 1.38 2.97 2.12 4.44l1.16-.48c-.52-1.56-1.09-3.09-1.64-4.64l-1.74-4.6c-.49-1.3-1-2.59-1.51-3.88.99.97 1.99 1.93 3 2.88l3.58 3.37c1.22 1.1 2.42 2.22 3.66 3.29l.89-.89c-1.07-1.24-2.19-2.44-3.29-3.66l-3.37-3.58c-.95-1.01-1.91-2.01-2.88-3 1.29.51 2.58 1.02 3.88 1.51l4.6 1.74c1.55.55 3.08 1.12 4.64 1.64l.48-1.16c-1.47-.74-2.96-1.41-4.44-2.12l-4.48-2.02c-1.26-.57-2.54-1.12-3.81-1.67 1.39-.02 2.77-.04 4.16-.08l4.93-.16Z" fill="#142B52" /><path d="M32 2.67C15.83 2.67 2.67 15.83 2.67 32c0 16.17 13.16 29.33 29.33 29.33 16.17 0 29.33-13.16 29.33-29.33C61.33 15.83 48.17 2.67 32 2.67ZM32 64C14.36 64 0 49.65 0 32 0 14.36 14.35 0 32 0c17.64 0 32 14.35 32 32-.01 17.64-14.36 32-32 32Z" fill="#142B52" /></g><style>.msportalfx-svg-c01{fill:#fff}.msportalfx-svg-c02{fill:#e5e5e5}.msportalfx-svg-c03{fill:#a0a1a2}.msportalfx-svg-c04{fill:#7a7a7a}.msportalfx-svg-c05{fill:#3e3e3e}.msportalfx-svg-c06{fill:#1e1e1e}.msportalfx-svg-c07{fill:#0f0f0f}.msportalfx-svg-c08{fill:#ba141a}.msportalfx-svg-c09{fill:#dd5900}.msportalfx-svg-c10{fill:#ff8c00}.msportalfx-svg-c11{fill:#fcd116}.msportalfx-svg-c12{fill:#fee087}.msportalfx-svg-c13{fill:#b8d432}.msportalfx-svg-c14,.msportalfx-svg-c32{fill:#57a300}.msportalfx-svg-c15{fill:#59b4d9}.msportalfx-svg-c16{fill:#3999c6}.msportalfx-svg-c17{fill:#804998}.msportalfx-svg-c18{fill:#ec008c}.msportalfx-svg-c19{fill:#0072c6}.msportalfx-svg-c20{fill:#68217a}.msportalfx-svg-c21{fill:#00188f}.msportalfx-svg-c22{fill:#e81123}.fxs-mode-light .msportalfx-svg-c22{fill:#a4262c}.msportalfx-svg-c23{fill:#cae3f3}.msportalfx-svg-c24{fill:#59aed3}.msportalfx-svg-c25{fill:#4c3b12}.msportalfx-svg-c26{fill:#be9555}.msportalfx-svg-c27{fill:#4f4d52}.msportalfx-svg-c28{fill:#ef6f59}.msportalfx-svg-c29{fill:#f7cb64}.msportalfx-svg-c30{fill:#fdd8db}.msportalfx-svg-c31{fill:#f6ffec}.msportalfx-svg-c33{fill:#8a2da5}.msportalfx-svg-c34{fill:#e00b1c}.msportalfx-svg-c35{fill:#015cda}.msportalfx-svg-c36{fill:#5db300}.msportalfx-svg-c97{fill:#ffb900}.msportalfx-svg-c98{fill:#00a4ef}.msportalfx-svg-c99{fill:#f25022}.msportalfx-inverted-theme .msportalfx-svg-c05,.fxs-theme-dark .msportalfx-svg-c05{fill:#777}.msportalfx-inverted-theme .msportalfx-svg-c07,.fxs-theme-dark .msportalfx-svg-c07{fill:#f2f2f2}.msportalfx-svg-palette-white{fill:#fff}.msportalfx-svg-palette-blue{fill:#015cda}.msportalfx-svg-palette-black{fill:#1e1e1e}.msportalfx-svg-palette-green{fill:#57a300}.msportalfx-svg-palette-gray{fill:#a0a1a2}.msportalfx-svg-palette-inherit{fill:inherit}.msportalfx-svg-badge{position:absolute;left:0;bottom:0;min-height:10px;min-width:10px}.fxc-menu-icon&gt;.msportalfx-svg-badge{left:-2px;bottom:-2px;min-height:8px;min-width:8px}.msportalfx-svg-disabled{filter:grayscale(100%)}.msportalfx-svg-loading-square{animation:ProgressFlagAnimation 1.45s infinite ease-in-out;transform-origin:50%}.msportalfx-svg-loading-square:nth-child(1){animation-delay:0s}.msportalfx-svg-loading-square:nth-child(2){animation-delay:.2s}.msportalfx-svg-loading-square:nth-child(3){animation-delay:.4s}@keyframes ProgressFlagAnimation{0%{transform:scale(1);opacity:.3}36.1%{transform:scale(1.06);opacity:1}50%{transform:scale(1.06);opacity:1}86.1%{transform:scale(1);opacity:.3}}.msportalfx-svg-flip-horizontal&gt;svg,svg.msportalfx-svg-flip-horizontal{transform:scaleX(-1)}.msportalfx-svg-fabric-rotate360{animation:ImageRotation 1.3s cubic-bezier(.53,.21,.29,.67) infinite}@keyframes ImageRotation{0%{transform:rotate(-45deg)}100%{transform:rotate(315deg)}}.fxs-svg-number .msportalfx-font-bold{font-size:10px;fill:#0065ad}.fxs-svg-number .fxs-svg-circle{stroke-width:0%;fill:#0078d4}.fxs-svg-number .fxs-svg-text{fill:#fff;font-size:10px}.fxs-svg-number.msportalfx-svg-disabled{filter:grayscale(0%)}.fxs-svg-number.msportalfx-svg-disabled .fxs-svg-circle{fill:#fff;stroke-width:1px;stroke:#949494}.fxs-svg-number.msportalfx-svg-disabled .fxs-svg-text{fill:#949494}.fxs-theme-dark .fxs-svg-number .fxs-svg-text{fill:#0f0f0f}.fxs-theme-dark .fxs-svg-number .fxs-svg-circle{stroke-width:0%;fill:#0078d4}.fxs-theme-dark .fxs-svg-number.msportalfx-svg-disabled .fxs-svg-circle{fill:#0f0f0f;stroke-width:1px;stroke:#949494}.fxs-theme-dark .fxs-svg-number.msportalfx-svg-disabled .fxs-svg-text{fill:#949494}</style></svg>