<svg viewBox="0 0 18 18" class="msportalfx-svg-placeholder" xmlns="http://www.w3.org/2000/svg"><desc>Event Hubs Dedicated clusters are designed to meet the needs of most demanding mission-critical event streaming workloads.</desc><title>Event Hubs Cluster</title><g fill="#b3b3b3"><path d="M9.18 8.24h.65v1.81a.14.14 0 0 1-.14.14H9a.14.14 0 0 1-.14-.14V8.53a.29.29 0 0 1 .32-.29" /><path d="M9.18 8.24h.65v1.81a.14.14 0 0 1-.14.14H9a.14.14 0 0 1-.14-.14V8.53a.29.29 0 0 1 .32-.29" opacity=".5" /><path d="M16.56 8.24h.65a.29.29 0 0 1 .29.29v1.53a.14.14 0 0 1-.14.14h-.66a.14.14 0 0 1-.14-.14z" /><path d="M16.56 8.24h.65a.29.29 0 0 1 .29.29v1.53a.14.14 0 0 1-.14.14h-.66a.14.14 0 0 1-.14-.14z" opacity=".5" /><path d="M17.5 8.5v.63H8.9V8.5a.29.29 0 0 1 .29-.29h8a.29.29 0 0 1 .31.29" /></g><g fill="#b3b3b3"><path d="M9 14h.65a.14.14 0 0 1 .14.14v1.81h-.61a.29.29 0 0 1-.29-.29v-1.55A.14.14 0 0 1 9 14" /><path d="M9 14h.65a.14.14 0 0 1 .14.14v1.81h-.61a.29.29 0 0 1-.29-.29v-1.55A.14.14 0 0 1 9 14" opacity=".5" /><path d="M16.7 14h.65a.14.14 0 0 1 .14.14v1.53a.29.29 0 0 1-.29.29h-.65v-1.85a.14.14 0 0 1 .15-.11" /><path d="M16.7 14h.65a.14.14 0 0 1 .14.14v1.53a.29.29 0 0 1-.29.29h-.65v-1.85a.14.14 0 0 1 .15-.11" opacity=".5" /><path d="M8.9 15.67v-.63h8.61v.63a.29.29 0 0 1-.29.29h-8a.29.29 0 0 1-.32-.29" /></g><path fill="#76bc2d" d="M14.09 11.74a.13.13 0 0 1-.11.13H13a.12.12 0 0 1-.13-.12V11a.14.14 0 0 1 .11-.13h1a.12.12 0 0 1 .13.12Z" /><path fill="#5e9624" d="M15.88 12.5a.13.13 0 0 1-.11.13h-1a.12.12 0 0 1-.13-.12v-.74a.11.11 0 0 1 .11-.12h1a.11.11 0 0 1 .13.11Zm-1.79.76a.12.12 0 0 1-.11.13H13a.12.12 0 0 1-.13-.11v-.75a.12.12 0 0 1 .13-.13h1a.11.11 0 0 1 .13.11v.75Z" /><path fill="#86d633" d="M12.3 11a.11.11 0 0 1-.11.12h-1A.11.11 0 0 1 11 11v-.77a.11.11 0 0 1 .11-.12h1c.1 0 .15.05.15.12Z" /><path fill="#76bc2d" d="M12.3 12.5a.12.12 0 0 1-.11.13h-1a.12.12 0 0 1-.12-.12v-.76a.12.12 0 0 1 .11-.13h1c.1 0 .15.05.15.13Z" /><path fill="#5e9624" d="M12.3 14a.11.11 0 0 1-.11.13h-1A.12.12 0 0 1 11 14v-.78a.12.12 0 0 1 .11-.13h1a.13.13 0 0 1 .15.13Z" /><path fill="#949494" d="M13.31 5.8a.28.28 0 0 0-.31-.28H5a.28.28 0 0 0-.29.28v1.53a.15.15 0 0 0 .15.14h.64a.14.14 0 0 0 .14-.14v-.9h6.72v.9a.15.15 0 0 0 .15.14h.65a.15.15 0 0 0 .15-.14zm-7.67 5.52a.14.14 0 0 0-.14-.14h-.65a.15.15 0 0 0-.15.14v1.53a.25.25 0 0 0 .21.28h3.48v-.91H5.64Zm3.47-8.96a.29.29 0 0 0-.29-.29h-8a.29.29 0 0 0-.29.29v1.53A.14.14 0 0 0 .64 4h.66a.14.14 0 0 0 .14-.14V3h6.72v.91a.15.15 0 0 0 .15.09H9a.15.15 0 0 0 .15-.14v-1.5ZM1.44 7.88a.15.15 0 0 0-.14-.15H.64a.15.15 0 0 0-.14.15V9.4c0 .15.1.28.21.28h3.48v-.9H1.44Z" /><path fill="#76bc2d" d="M7.82 8.32a.11.11 0 0 1-.11.12h-1a.11.11 0 0 1-.13-.11v-.77a.11.11 0 0 1 .11-.13h1c.1 0 .15.05.15.13Zm0 .76C7.82 9 7.77 9 7.67 9h-1a.12.12 0 0 0-.11.13v.78a.12.12 0 0 0 .13.11h1a.12.12 0 0 0 .11-.13Zm0 1.52c0-.07-.05-.12-.15-.12h-1a.11.11 0 0 0-.11.12v.78a.11.11 0 0 0 .13.11h1a.11.11 0 0 0 .11-.13Zm-4.2-6.49A.13.13 0 0 0 3.47 4h-1a.12.12 0 0 0-.11.13v.78a.12.12 0 0 0 .11.09h1a.11.11 0 0 0 .11-.13Zm0 1.52c0-.07-.05-.12-.15-.12h-1a.11.11 0 0 0-.11.12v.77a.11.11 0 0 0 .12.11h1a.11.11 0 0 0 .11-.12Zm0 1.53c0-.08-.05-.13-.15-.13h-1a.12.12 0 0 0-.11.13v.76a.12.12 0 0 0 .12.12h1a.12.12 0 0 0 .11-.13Z" /><style>.msportalfx-svg-c01{fill:#fff}.msportalfx-svg-c02{fill:#e5e5e5}.msportalfx-svg-c03{fill:#a0a1a2}.msportalfx-svg-c04{fill:#7a7a7a}.msportalfx-svg-c05{fill:#3e3e3e}.msportalfx-svg-c06{fill:#1e1e1e}.msportalfx-svg-c07{fill:#0f0f0f}.msportalfx-svg-c08{fill:#ba141a}.msportalfx-svg-c09{fill:#dd5900}.msportalfx-svg-c10{fill:#ff8c00}.msportalfx-svg-c11{fill:#fcd116}.msportalfx-svg-c12{fill:#fee087}.msportalfx-svg-c13{fill:#b8d432}.msportalfx-svg-c14,.msportalfx-svg-c32{fill:#57a300}.msportalfx-svg-c15{fill:#59b4d9}.msportalfx-svg-c16{fill:#3999c6}.msportalfx-svg-c17{fill:#804998}.msportalfx-svg-c18{fill:#ec008c}.msportalfx-svg-c19{fill:#0072c6}.msportalfx-svg-c20{fill:#68217a}.msportalfx-svg-c21{fill:#00188f}.msportalfx-svg-c22{fill:#e81123}.fxs-mode-light .msportalfx-svg-c22{fill:#a4262c}.msportalfx-svg-c23{fill:#cae3f3}.msportalfx-svg-c24{fill:#59aed3}.msportalfx-svg-c25{fill:#4c3b12}.msportalfx-svg-c26{fill:#be9555}.msportalfx-svg-c27{fill:#4f4d52}.msportalfx-svg-c28{fill:#ef6f59}.msportalfx-svg-c29{fill:#f7cb64}.msportalfx-svg-c30{fill:#fdd8db}.msportalfx-svg-c31{fill:#f6ffec}.msportalfx-svg-c33{fill:#8a2da5}.msportalfx-svg-c34{fill:#e00b1c}.msportalfx-svg-c35{fill:#015cda}.msportalfx-svg-c36{fill:#5db300}.msportalfx-svg-c97{fill:#ffb900}.msportalfx-svg-c98{fill:#00a4ef}.msportalfx-svg-c99{fill:#f25022}.msportalfx-inverted-theme .msportalfx-svg-c05,.fxs-theme-dark .msportalfx-svg-c05{fill:#777}.msportalfx-inverted-theme .msportalfx-svg-c07,.fxs-theme-dark .msportalfx-svg-c07{fill:#f2f2f2}.msportalfx-svg-palette-white{fill:#fff}.msportalfx-svg-palette-blue{fill:#015cda}.msportalfx-svg-palette-black{fill:#1e1e1e}.msportalfx-svg-palette-green{fill:#57a300}.msportalfx-svg-palette-gray{fill:#a0a1a2}.msportalfx-svg-palette-inherit{fill:inherit}.msportalfx-svg-badge{position:absolute;left:0;bottom:0;min-height:10px;min-width:10px}.fxc-menu-icon&gt;.msportalfx-svg-badge{left:-2px;bottom:-2px;min-height:8px;min-width:8px}.msportalfx-svg-disabled{filter:grayscale(100%)}.msportalfx-svg-loading-square{animation:ProgressFlagAnimation 1.45s infinite ease-in-out;transform-origin:50%}.msportalfx-svg-loading-square:nth-child(1){animation-delay:0s}.msportalfx-svg-loading-square:nth-child(2){animation-delay:.2s}.msportalfx-svg-loading-square:nth-child(3){animation-delay:.4s}@keyframes ProgressFlagAnimation{0%{transform:scale(1);opacity:.3}36.1%{transform:scale(1.06);opacity:1}50%{transform:scale(1.06);opacity:1}86.1%{transform:scale(1);opacity:.3}}.msportalfx-svg-flip-horizontal&gt;svg,svg.msportalfx-svg-flip-horizontal{transform:scaleX(-1)}.msportalfx-svg-fabric-rotate360{animation:ImageRotation 1.3s cubic-bezier(.53,.21,.29,.67) infinite}@keyframes ImageRotation{0%{transform:rotate(-45deg)}100%{transform:rotate(315deg)}}.fxs-svg-number .msportalfx-font-bold{font-size:10px;fill:#0065ad}.fxs-svg-number .fxs-svg-circle{stroke-width:0%;fill:#0078d4}.fxs-svg-number .fxs-svg-text{fill:#fff;font-size:10px}.fxs-svg-number.msportalfx-svg-disabled{filter:grayscale(0%)}.fxs-svg-number.msportalfx-svg-disabled .fxs-svg-circle{fill:#fff;stroke-width:1px;stroke:#949494}.fxs-svg-number.msportalfx-svg-disabled .fxs-svg-text{fill:#949494}.fxs-theme-dark .fxs-svg-number .fxs-svg-text{fill:#0f0f0f}.fxs-theme-dark .fxs-svg-number .fxs-svg-circle{stroke-width:0%;fill:#0078d4}.fxs-theme-dark .fxs-svg-number.msportalfx-svg-disabled .fxs-svg-circle{fill:#0f0f0f;stroke-width:1px;stroke:#949494}.fxs-theme-dark .fxs-svg-number.msportalfx-svg-disabled .fxs-svg-text{fill:#949494}</style></svg>