<svg viewBox="0 0 18 18" class="msportalfx-svg-placeholder" xmlns="http://www.w3.org/2000/svg"><title>Database fleet manager</title><desc></desc><defs><linearGradient id="pdwwWxKrT__a" x1="1.757" x2="8.45" y1="10.59" y2="10.59" gradientUnits="userSpaceOnUse"><stop offset="0" stop-color="#005ba1" /><stop offset=".07" stop-color="#0060a9" /><stop offset=".36" stop-color="#0071c8" /><stop offset=".52" stop-color="#0078d4" /><stop offset=".64" stop-color="#0074cd" /><stop offset=".82" stop-color="#006abb" /><stop offset="1" stop-color="#005ba1" /></linearGradient><linearGradient id="pdwwWxKrT__b" x1="9.55" x2="16.243" gradientUnits="userSpaceOnUse"><stop offset="0" stop-color="#005ba1" /><stop offset=".07" stop-color="#0060a9" /><stop offset=".36" stop-color="#0071c8" /><stop offset=".52" stop-color="#0078d4" /><stop offset=".64" stop-color="#0074cd" /><stop offset=".82" stop-color="#006abb" /><stop offset="1" stop-color="#005ba1" /></linearGradient><linearGradient id="pdwwWxKrT__c" x1="-5.506" x2="1.186" y1="777.473" y2="777.473" gradientTransform="matrix(1 0 0 -1 11.16 791.516)" gradientUnits="userSpaceOnUse"><stop offset="0" stop-color="#005ba1" /><stop offset=".07" stop-color="#0060a9" /><stop offset=".36" stop-color="#0071c8" /><stop offset=".52" stop-color="#0078d4" /><stop offset=".64" stop-color="#0074cd" /><stop offset=".82" stop-color="#006abb" /><stop offset="1" stop-color="#005ba1" /></linearGradient><linearGradient id="pdwwWxKrT__d" x1="9" x2="9" y1=".125" y2="5.331" gradientUnits="userSpaceOnUse"><stop offset=".481" stop-color="#32d4f5" /><stop offset="1" stop-color="#32bedd" /></linearGradient></defs><path fill="#e8e8e8" d="M8.45 6.759c0 .673-1.498 1.211-3.346 1.211s-3.346-.522-3.346-1.211 1.498-1.211 3.346-1.211S8.45 6.07 8.45 6.759" /><path fill="#50e6ff" d="M7.672 6.659c0 .428-1.154.773-2.569.773s-2.569-.345-2.569-.773 1.154-.767 2.569-.767 2.569.345 2.569.767" /><path fill="#198ab3" d="M5.104 6.852a6 6 0 0 0-2.031.298 6 6 0 0 0 2.031.282c.69.02 1.377-.082 2.031-.303a6.2 6.2 0 0 0-2.031-.277" /><path fill="url(#pdwwWxKrT__a)" d="M5.209 10.211c0-1.024 1.592-1.545 3.241-1.64V6.758c0 .673-1.498 1.211-3.346 1.211s-3.346-.522-3.346-1.211v6.453c0 .663 1.472 1.201 3.299 1.211h.153z" /><path fill="#e8e8e8" d="M16.243 6.759c0 .673-1.498 1.211-3.346 1.211s-3.346-.522-3.346-1.211 1.498-1.211 3.346-1.211 3.346.522 3.346 1.211" /><path fill="#50e6ff" d="M15.465 6.659c0 .428-1.154.773-2.569.773s-2.569-.345-2.569-.773 1.154-.767 2.569-.767 2.569.345 2.569.767" /><path fill="#198ab3" d="M12.896 6.852a6 6 0 0 0-2.031.298 6 6 0 0 0 2.031.282c.69.02 1.377-.082 2.031-.303a6.2 6.2 0 0 0-2.031-.277" /><path fill="url(#pdwwWxKrT__b)" d="M12.896 7.97c-1.848 0-3.346-.522-3.346-1.211v1.813c1.649.094 3.241.616 3.241 1.64v4.21h.106c1.848 0 3.346-.522 3.346-1.211V6.758c0 .673-1.498 1.211-3.346 1.211Z" /><path fill="url(#pdwwWxKrT__c)" d="M9 11.422c-1.848 0-3.346-.522-3.346-1.211v6.453c0 .663 1.472 1.201 3.299 1.211H9c1.848 0 3.346-.522 3.346-1.211v-6.453c0 .673-1.498 1.211-3.346 1.211" /><path fill="#e8e8e8" d="M12.346 10.211c0 .673-1.498 1.211-3.346 1.211s-3.346-.522-3.346-1.211S7.152 9 9 9s3.346.522 3.346 1.211" /><path fill="#50e6ff" d="M11.569 10.112c0 .428-1.154.773-2.569.773s-2.569-.345-2.569-.773S7.585 9.345 9 9.345s2.569.345 2.569.767" /><path fill="#198ab3" d="M9 10.305a6 6 0 0 0-2.031.298A6 6 0 0 0 9 10.885c.69.02 1.377-.082 2.031-.303A6.2 6.2 0 0 0 9 10.305" /><path fill="url(#pdwwWxKrT__d)" d="M4.457 4.177v.948q.324-.022.647-.022c.691 0 1.401.074 2.018.228a1.994 1.994 0 1 1 3.758 0 8.5 8.5 0 0 1 2.017-.228q.324 0 .647.022V4.123l-.145-.055-1.111-.363-.291-.707.563-1.199-.727-.727-.145.073-1.034.525-.707-.291L9.491.125H8.455L8.4.27l-.363 1.111-.707.291-1.183-.565-.727.727.073.145.529 1.036-.291.707-1.274.456Z" /><style>.msportalfx-svg-c01{fill:#fff}.msportalfx-svg-c02{fill:#e5e5e5}.msportalfx-svg-c03{fill:#a0a1a2}.msportalfx-svg-c04{fill:#7a7a7a}.msportalfx-svg-c05{fill:#3e3e3e}.msportalfx-svg-c06{fill:#1e1e1e}.msportalfx-svg-c07{fill:#0f0f0f}.msportalfx-svg-c08{fill:#ba141a}.msportalfx-svg-c09{fill:#dd5900}.msportalfx-svg-c10{fill:#ff8c00}.msportalfx-svg-c11{fill:#fcd116}.msportalfx-svg-c12{fill:#fee087}.msportalfx-svg-c13{fill:#b8d432}.msportalfx-svg-c14,.msportalfx-svg-c32{fill:#57a300}.msportalfx-svg-c15{fill:#59b4d9}.msportalfx-svg-c16{fill:#3999c6}.msportalfx-svg-c17{fill:#804998}.msportalfx-svg-c18{fill:#ec008c}.msportalfx-svg-c19{fill:#0072c6}.msportalfx-svg-c20{fill:#68217a}.msportalfx-svg-c21{fill:#00188f}.msportalfx-svg-c22{fill:#e81123}.fxs-mode-light .msportalfx-svg-c22{fill:#a4262c}.msportalfx-svg-c23{fill:#cae3f3}.msportalfx-svg-c24{fill:#59aed3}.msportalfx-svg-c25{fill:#4c3b12}.msportalfx-svg-c26{fill:#be9555}.msportalfx-svg-c27{fill:#4f4d52}.msportalfx-svg-c28{fill:#ef6f59}.msportalfx-svg-c29{fill:#f7cb64}.msportalfx-svg-c30{fill:#fdd8db}.msportalfx-svg-c31{fill:#f6ffec}.msportalfx-svg-c33{fill:#8a2da5}.msportalfx-svg-c34{fill:#e00b1c}.msportalfx-svg-c35{fill:#015cda}.msportalfx-svg-c36{fill:#5db300}.msportalfx-svg-c97{fill:#ffb900}.msportalfx-svg-c98{fill:#00a4ef}.msportalfx-svg-c99{fill:#f25022}.msportalfx-inverted-theme .msportalfx-svg-c05,.fxs-theme-dark .msportalfx-svg-c05{fill:#777}.msportalfx-inverted-theme .msportalfx-svg-c07,.fxs-theme-dark .msportalfx-svg-c07{fill:#f2f2f2}.msportalfx-svg-palette-white{fill:#fff}.msportalfx-svg-palette-blue{fill:#015cda}.msportalfx-svg-palette-black{fill:#1e1e1e}.msportalfx-svg-palette-green{fill:#57a300}.msportalfx-svg-palette-gray{fill:#a0a1a2}.msportalfx-svg-palette-inherit{fill:inherit}.msportalfx-svg-badge{position:absolute;left:0;bottom:0;min-height:10px;min-width:10px}.fxc-menu-icon&gt;.msportalfx-svg-badge{left:-2px;bottom:-2px;min-height:8px;min-width:8px}.msportalfx-svg-disabled{filter:grayscale(100%)}.msportalfx-svg-loading-square{animation:ProgressFlagAnimation 1.45s infinite ease-in-out;transform-origin:50%}.msportalfx-svg-loading-square:nth-child(1){animation-delay:0s}.msportalfx-svg-loading-square:nth-child(2){animation-delay:.2s}.msportalfx-svg-loading-square:nth-child(3){animation-delay:.4s}@keyframes ProgressFlagAnimation{0%{transform:scale(1);opacity:.3}36.1%{transform:scale(1.06);opacity:1}50%{transform:scale(1.06);opacity:1}86.1%{transform:scale(1);opacity:.3}}.msportalfx-svg-flip-horizontal&gt;svg,svg.msportalfx-svg-flip-horizontal{transform:scaleX(-1)}.msportalfx-svg-fabric-rotate360{animation:ImageRotation 1.3s cubic-bezier(.53,.21,.29,.67) infinite}@keyframes ImageRotation{0%{transform:rotate(-45deg)}100%{transform:rotate(315deg)}}.fxs-svg-number .msportalfx-font-bold{font-size:10px;fill:#0065ad}.fxs-svg-number .fxs-svg-circle{stroke-width:0%;fill:#0078d4}.fxs-svg-number .fxs-svg-text{fill:#fff;font-size:10px}.fxs-svg-number.msportalfx-svg-disabled{filter:grayscale(0%)}.fxs-svg-number.msportalfx-svg-disabled .fxs-svg-circle{fill:#fff;stroke-width:1px;stroke:#949494}.fxs-svg-number.msportalfx-svg-disabled .fxs-svg-text{fill:#949494}.fxs-theme-dark .fxs-svg-number .fxs-svg-text{fill:#0f0f0f}.fxs-theme-dark .fxs-svg-number .fxs-svg-circle{stroke-width:0%;fill:#0078d4}.fxs-theme-dark .fxs-svg-number.msportalfx-svg-disabled .fxs-svg-circle{fill:#0f0f0f;stroke-width:1px;stroke:#949494}.fxs-theme-dark .fxs-svg-number.msportalfx-svg-disabled .fxs-svg-text{fill:#949494}</style></svg>