<svg fill="none" viewBox="0 0 43 27" class="msportalfx-svg-placeholder" xmlns="http://www.w3.org/2000/svg"><title>Database fleet manager</title><desc></desc><g clip-path="url(#pdwwWxKrT__a)"><path fill="url(#pdwwWxKrT__b)" d="M8.51 5.645c-3.52-.009-6.374-1.056-6.37-2.339l-.032 12.355C2.106 16.933 4.91 17.974 8.39 18h.088c3.521.009 6.378-1.024 6.38-2.306l.033-12.356c-.004 1.284-2.86 2.316-6.382 2.307" /><path fill="#E6E6E6" d="M14.891 3.338c0 1.284-2.86 2.316-6.382 2.307-3.52-.01-6.372-1.056-6.368-2.339S5.005.991 8.521 1c3.517.01 6.373 1.056 6.37 2.338" /><path fill="#50E6FF" d="M13.403 3.147c0 .816-2.192 1.471-4.89 1.464-2.7-.008-4.885-.674-4.883-1.489s2.192-1.471 4.89-1.46c2.698.01 4.886.673 4.883 1.489" /><path fill="#198AB3" d="M8.515 3.474a11.8 11.8 0 0 0-3.872.551c1.247.418 2.557.616 3.872.586a11.4 11.4 0 0 0 3.872-.567 11.7 11.7 0 0 0-3.872-.57" /><path fill="#F2F2F2" d="M4.226 13.49V8.615H5.95q2.596 0 2.596 2.376a2.4 2.4 0 0 1-.708 1.82 2.6 2.6 0 0 1-1.889.68zm1.099-3.98v3.09h.544a1.47 1.47 0 0 0 1.12-.43c.283-.32.429-.738.406-1.165a1.48 1.48 0 0 0-.406-1.096 1.54 1.54 0 0 0-1.134-.4zm4.035 3.98V8.615h1.774c.438-.027.875.078 1.254.3a.96.96 0 0 1 .438.843 1 1 0 0 1-.265.686c-.183.2-.42.344-.682.412v.013c.314.028.607.164.831.385a1.07 1.07 0 0 1 .311.778 1.3 1.3 0 0 1-.479 1.063c-.377.28-.84.419-1.309.392zm1.098-4.06v1.155h.482a.8.8 0 0 0 .536-.165.56.56 0 0 0 .195-.453q0-.539-.802-.538zm0 1.97v1.286h.592a.9.9 0 0 0 .597-.177.59.59 0 0 0 .216-.483.55.55 0 0 0-.212-.459.94.94 0 0 0-.594-.167z" /></g><g clip-path="url(#pdwwWxKrT__c)"><path fill="url(#pdwwWxKrT__d)" d="M21.51 4.645c-3.52-.009-6.373-1.056-6.369-2.339l-.032 12.355c-.003 1.272 2.802 2.313 6.281 2.339h.088c3.521.009 6.378-1.024 6.38-2.306l.033-12.356c-.004 1.284-2.86 2.316-6.382 2.307" /><path fill="#E6E6E6" d="M27.891 2.338c0 1.284-2.86 2.316-6.382 2.307-3.52-.01-6.372-1.056-6.368-2.339S18.006-.009 21.521 0c3.517.01 6.373 1.056 6.37 2.338" /><path fill="#50E6FF" d="M26.403 2.147c0 .816-2.191 1.471-4.89 1.464-2.7-.008-4.885-.674-4.884-1.489.002-.815 2.193-1.471 4.89-1.46 2.7.01 4.887.673 4.884 1.489" /><path fill="#198AB3" d="M21.515 2.474a11.8 11.8 0 0 0-3.872.551c1.247.418 2.557.616 3.872.586a11.4 11.4 0 0 0 3.872-.567 11.7 11.7 0 0 0-3.872-.57" /><path fill="#F2F2F2" d="M17.226 12.49V7.615h1.724q2.595 0 2.596 2.376a2.4 2.4 0 0 1-.708 1.82 2.6 2.6 0 0 1-1.889.68zm1.099-3.98v3.09h.544a1.47 1.47 0 0 0 1.12-.43c.283-.32.429-.738.406-1.165a1.48 1.48 0 0 0-.406-1.096 1.54 1.54 0 0 0-1.134-.4zm4.035 3.98V7.615h1.774c.439-.027.875.078 1.254.3a.96.96 0 0 1 .438.843 1 1 0 0 1-.265.686c-.183.2-.42.344-.682.412v.013c.313.028.607.164.831.385a1.07 1.07 0 0 1 .311.778 1.3 1.3 0 0 1-.479 1.063c-.377.28-.84.419-1.309.392zm1.098-4.06v1.155h.482a.8.8 0 0 0 .536-.165.56.56 0 0 0 .195-.453q0-.539-.802-.538zm0 1.97v1.286h.592a.9.9 0 0 0 .597-.177.59.59 0 0 0 .216-.483.55.55 0 0 0-.212-.459.94.94 0 0 0-.593-.167z" /></g><g clip-path="url(#pdwwWxKrT__e)"><path fill="url(#pdwwWxKrT__f)" d="M34.51 5.645c-3.52-.009-6.373-1.056-6.369-2.339l-.032 12.355c-.003 1.272 2.802 2.313 6.281 2.339h.088c3.521.009 6.378-1.024 6.38-2.306l.033-12.356c-.004 1.284-2.86 2.316-6.382 2.307" /><path fill="#E6E6E6" d="M40.891 3.338c0 1.284-2.86 2.316-6.382 2.307-3.52-.01-6.372-1.056-6.368-2.339S31.006.991 34.521 1c3.517.01 6.373 1.056 6.37 2.338" /><path fill="#50E6FF" d="M39.403 3.147c0 .816-2.191 1.471-4.89 1.464-2.7-.008-4.885-.674-4.883-1.489s2.192-1.471 4.89-1.46c2.698.01 4.886.673 4.883 1.489" /><path fill="#198AB3" d="M34.515 3.474a11.8 11.8 0 0 0-3.872.551c1.247.418 2.557.616 3.872.586a11.4 11.4 0 0 0 3.872-.567 11.7 11.7 0 0 0-3.872-.57" /><path fill="#F2F2F2" d="M30.226 13.49V8.615h1.724q2.596 0 2.596 2.376a2.4 2.4 0 0 1-.708 1.82 2.6 2.6 0 0 1-1.889.68zm1.099-3.98v3.09h.544a1.47 1.47 0 0 0 1.12-.43c.283-.32.429-.738.406-1.165a1.48 1.48 0 0 0-.406-1.096 1.54 1.54 0 0 0-1.133-.4zm4.035 3.98V8.615h1.774c.438-.027.875.078 1.254.3a.96.96 0 0 1 .438.843 1 1 0 0 1-.265.686c-.183.2-.42.344-.682.412v.013c.314.028.608.164.831.385a1.07 1.07 0 0 1 .311.778 1.3 1.3 0 0 1-.479 1.063c-.377.28-.84.419-1.309.392zm1.098-4.06v1.155h.482a.8.8 0 0 0 .536-.165.56.56 0 0 0 .195-.453q0-.539-.802-.538zm0 1.97v1.286h.592a.9.9 0 0 0 .597-.177.59.59 0 0 0 .216-.483.55.55 0 0 0-.212-.459.94.94 0 0 0-.594-.167z" /></g><g clip-path="url(#pdwwWxKrT__g)"><path fill="url(#pdwwWxKrT__h)" d="M14.51 9.645c-3.52-.009-6.373-1.056-6.369-2.339l-.032 12.355C8.106 20.933 10.91 21.974 14.39 22h.088c3.521.009 6.378-1.024 6.38-2.306l.033-12.356c-.004 1.284-2.86 2.316-6.382 2.307" /><path fill="#E6E6E6" d="M20.891 7.338c0 1.284-2.86 2.316-6.382 2.307-3.52-.01-6.372-1.056-6.368-2.339S11.005 4.991 14.521 5c3.517.01 6.373 1.056 6.37 2.338" /><path fill="#50E6FF" d="M19.403 7.147c0 .816-2.191 1.471-4.89 1.464-2.7-.008-4.885-.674-4.883-1.489s2.192-1.471 4.89-1.46c2.698.01 4.886.673 4.883 1.489" /><path fill="#198AB3" d="M14.515 7.474a11.8 11.8 0 0 0-3.872.551c1.247.418 2.557.616 3.872.586a11.4 11.4 0 0 0 3.872-.567 11.7 11.7 0 0 0-3.872-.57" /><path fill="#F2F2F2" d="M10.226 17.49v-4.875h1.724q2.595 0 2.596 2.376a2.4 2.4 0 0 1-.708 1.82 2.6 2.6 0 0 1-1.889.68zm1.099-3.98v3.09h.544a1.47 1.47 0 0 0 1.12-.43c.283-.32.429-.738.406-1.165a1.48 1.48 0 0 0-.406-1.096 1.53 1.53 0 0 0-1.134-.4zm4.035 3.98v-4.875h1.774c.439-.027.875.078 1.254.3a.96.96 0 0 1 .438.843 1 1 0 0 1-.265.686c-.183.2-.42.344-.682.412v.013c.313.028.607.164.831.385a1.07 1.07 0 0 1 .311.778 1.3 1.3 0 0 1-.479 1.063c-.377.28-.84.419-1.309.392zm1.098-4.06v1.155h.482a.8.8 0 0 0 .536-.165.56.56 0 0 0 .195-.453q0-.54-.802-.538zm0 1.97v1.286h.592a.9.9 0 0 0 .597-.177.59.59 0 0 0 .216-.483.55.55 0 0 0-.212-.459.94.94 0 0 0-.593-.167z" /></g><g clip-path="url(#pdwwWxKrT__i)"><path fill="url(#pdwwWxKrT__j)" d="M28.51 10.645c-3.52-.009-6.373-1.056-6.369-2.339l-.032 12.355c-.003 1.272 2.802 2.313 6.281 2.339h.088c3.521.009 6.378-1.024 6.38-2.306l.033-12.356c-.004 1.284-2.86 2.316-6.382 2.307" /><path fill="#E6E6E6" d="M34.891 8.338c0 1.284-2.86 2.316-6.382 2.307-3.52-.01-6.372-1.056-6.368-2.339S25.006 5.991 28.521 6c3.517.01 6.373 1.056 6.37 2.338" /><path fill="#50E6FF" d="M33.403 8.147c0 .816-2.191 1.471-4.89 1.464-2.7-.008-4.885-.674-4.884-1.489.002-.815 2.193-1.471 4.89-1.46 2.7.01 4.887.673 4.884 1.489" /><path fill="#198AB3" d="M28.515 8.474a11.8 11.8 0 0 0-3.872.551c1.247.418 2.557.616 3.872.586a11.4 11.4 0 0 0 3.872-.567 11.7 11.7 0 0 0-3.872-.57" /><path fill="#F2F2F2" d="M24.226 18.49v-4.875h1.724q2.595 0 2.596 2.376a2.4 2.4 0 0 1-.708 1.82 2.6 2.6 0 0 1-1.889.68zm1.099-3.98v3.09h.544a1.47 1.47 0 0 0 1.12-.43c.283-.32.429-.738.406-1.165a1.48 1.48 0 0 0-.406-1.096 1.53 1.53 0 0 0-1.134-.4zm4.035 3.98v-4.875h1.774c.439-.027.875.078 1.254.3a.96.96 0 0 1 .438.843 1 1 0 0 1-.265.686c-.183.2-.42.344-.682.412v.013c.314.028.607.164.831.385a1.07 1.07 0 0 1 .311.778 1.3 1.3 0 0 1-.479 1.063c-.377.28-.84.419-1.309.392zm1.098-4.06v1.155h.482a.8.8 0 0 0 .536-.165.56.56 0 0 0 .195-.453q0-.54-.802-.538zm0 1.97v1.286h.592a.9.9 0 0 0 .597-.177.59.59 0 0 0 .216-.483.55.55 0 0 0-.212-.459.94.94 0 0 0-.593-.167z" /></g><g clip-path="url(#pdwwWxKrT__k)"><path fill="url(#pdwwWxKrT__l)" d="M21.51 14.645c-3.52-.009-6.373-1.056-6.369-2.339l-.032 12.355c-.003 1.272 2.802 2.313 6.281 2.339h.088c3.521.009 6.378-1.024 6.38-2.306l.033-12.356c-.004 1.284-2.86 2.316-6.382 2.307" /><path fill="#E6E6E6" d="M27.891 12.338c0 1.284-2.86 2.316-6.382 2.307-3.52-.01-6.372-1.056-6.368-2.339s2.865-2.315 6.38-2.306c3.517.01 6.373 1.056 6.37 2.338" /><path fill="#50E6FF" d="M26.403 12.147c0 .816-2.191 1.471-4.89 1.464-2.7-.008-4.885-.674-4.884-1.489.002-.815 2.193-1.471 4.89-1.46 2.7.01 4.887.673 4.884 1.488" /><path fill="#198AB3" d="M21.515 12.474a11.8 11.8 0 0 0-3.872.551c1.247.418 2.557.616 3.872.586a11.4 11.4 0 0 0 3.872-.567 11.7 11.7 0 0 0-3.872-.57" /><path fill="#F2F2F2" d="M17.226 22.49v-4.875h1.724q2.595 0 2.596 2.376a2.4 2.4 0 0 1-.708 1.82 2.6 2.6 0 0 1-1.889.68zm1.099-3.98v3.09h.544a1.47 1.47 0 0 0 1.12-.43c.283-.32.429-.738.406-1.165a1.48 1.48 0 0 0-.406-1.096 1.53 1.53 0 0 0-1.134-.4zm4.035 3.98v-4.875h1.774c.439-.027.875.078 1.254.3a.96.96 0 0 1 .438.843 1 1 0 0 1-.265.686c-.183.2-.42.344-.682.412v.013c.313.028.607.164.831.385a1.07 1.07 0 0 1 .311.778 1.3 1.3 0 0 1-.479 1.063c-.377.28-.84.419-1.309.392zm1.098-4.06v1.155h.482a.8.8 0 0 0 .536-.165.56.56 0 0 0 .195-.453q0-.539-.802-.538zm0 1.97v1.286h.592a.9.9 0 0 0 .597-.177.59.59 0 0 0 .216-.483.55.55 0 0 0-.212-.459.94.94 0 0 0-.593-.167z" /></g><defs><linearGradient id="pdwwWxKrT__b" x1="2.122" x2="14.872" y1="10.644" y2="10.677" gradientUnits="userSpaceOnUse"><stop stop-color="#005BA1" /><stop offset=".068" stop-color="#0060A9" /><stop offset=".356" stop-color="#0071C8" /><stop offset=".82" stop-color="#006ABB" /><stop offset="1" stop-color="#005BA1" /></linearGradient><linearGradient id="pdwwWxKrT__d" x1="15.122" x2="27.872" y1="9.644" y2="9.677" gradientUnits="userSpaceOnUse"><stop stop-color="#005BA1" /><stop offset=".068" stop-color="#0060A9" /><stop offset=".356" stop-color="#0071C8" /><stop offset=".82" stop-color="#006ABB" /><stop offset="1" stop-color="#005BA1" /></linearGradient><linearGradient id="pdwwWxKrT__f" x1="28.122" x2="40.872" y1="10.644" y2="10.677" gradientUnits="userSpaceOnUse"><stop stop-color="#005BA1" /><stop offset=".068" stop-color="#0060A9" /><stop offset=".356" stop-color="#0071C8" /><stop offset=".82" stop-color="#006ABB" /><stop offset="1" stop-color="#005BA1" /></linearGradient><linearGradient id="pdwwWxKrT__h" x1="8.122" x2="20.872" y1="14.644" y2="14.677" gradientUnits="userSpaceOnUse"><stop stop-color="#005BA1" /><stop offset=".068" stop-color="#0060A9" /><stop offset=".356" stop-color="#0071C8" /><stop offset=".82" stop-color="#006ABB" /><stop offset="1" stop-color="#005BA1" /></linearGradient><linearGradient id="pdwwWxKrT__j" x1="22.122" x2="34.872" y1="15.644" y2="15.677" gradientUnits="userSpaceOnUse"><stop stop-color="#005BA1" /><stop offset=".068" stop-color="#0060A9" /><stop offset=".356" stop-color="#0071C8" /><stop offset=".82" stop-color="#006ABB" /><stop offset="1" stop-color="#005BA1" /></linearGradient><linearGradient id="pdwwWxKrT__l" x1="15.122" x2="27.872" y1="19.644" y2="19.677" gradientUnits="userSpaceOnUse"><stop stop-color="#005BA1" /><stop offset=".068" stop-color="#0060A9" /><stop offset=".356" stop-color="#0071C8" /><stop offset=".82" stop-color="#006ABB" /><stop offset="1" stop-color="#005BA1" /></linearGradient><clipPath id="pdwwWxKrT__a"><path fill="#fff" d="M0 1h17v17H0z" /></clipPath><clipPath id="pdwwWxKrT__c"><path fill="#fff" d="M13 0h17v17H13z" /></clipPath><clipPath id="pdwwWxKrT__e"><path fill="#fff" d="M26 1h17v17H26z" /></clipPath><clipPath id="pdwwWxKrT__g"><path fill="#fff" d="M6 5h17v17H6z" /></clipPath><clipPath id="pdwwWxKrT__i"><path fill="#fff" d="M20 6h17v17H20z" /></clipPath><clipPath id="pdwwWxKrT__k"><path fill="#fff" d="M13 10h17v17H13z" /></clipPath></defs><style>.msportalfx-svg-c01{fill:#fff}.msportalfx-svg-c02{fill:#e5e5e5}.msportalfx-svg-c03{fill:#a0a1a2}.msportalfx-svg-c04{fill:#7a7a7a}.msportalfx-svg-c05{fill:#3e3e3e}.msportalfx-svg-c06{fill:#1e1e1e}.msportalfx-svg-c07{fill:#0f0f0f}.msportalfx-svg-c08{fill:#ba141a}.msportalfx-svg-c09{fill:#dd5900}.msportalfx-svg-c10{fill:#ff8c00}.msportalfx-svg-c11{fill:#fcd116}.msportalfx-svg-c12{fill:#fee087}.msportalfx-svg-c13{fill:#b8d432}.msportalfx-svg-c14,.msportalfx-svg-c32{fill:#57a300}.msportalfx-svg-c15{fill:#59b4d9}.msportalfx-svg-c16{fill:#3999c6}.msportalfx-svg-c17{fill:#804998}.msportalfx-svg-c18{fill:#ec008c}.msportalfx-svg-c19{fill:#0072c6}.msportalfx-svg-c20{fill:#68217a}.msportalfx-svg-c21{fill:#00188f}.msportalfx-svg-c22{fill:#e81123}.fxs-mode-light .msportalfx-svg-c22{fill:#a4262c}.msportalfx-svg-c23{fill:#cae3f3}.msportalfx-svg-c24{fill:#59aed3}.msportalfx-svg-c25{fill:#4c3b12}.msportalfx-svg-c26{fill:#be9555}.msportalfx-svg-c27{fill:#4f4d52}.msportalfx-svg-c28{fill:#ef6f59}.msportalfx-svg-c29{fill:#f7cb64}.msportalfx-svg-c30{fill:#fdd8db}.msportalfx-svg-c31{fill:#f6ffec}.msportalfx-svg-c33{fill:#8a2da5}.msportalfx-svg-c34{fill:#e00b1c}.msportalfx-svg-c35{fill:#015cda}.msportalfx-svg-c36{fill:#5db300}.msportalfx-svg-c97{fill:#ffb900}.msportalfx-svg-c98{fill:#00a4ef}.msportalfx-svg-c99{fill:#f25022}.msportalfx-inverted-theme .msportalfx-svg-c05,.fxs-theme-dark .msportalfx-svg-c05{fill:#777}.msportalfx-inverted-theme .msportalfx-svg-c07,.fxs-theme-dark .msportalfx-svg-c07{fill:#f2f2f2}.msportalfx-svg-palette-white{fill:#fff}.msportalfx-svg-palette-blue{fill:#015cda}.msportalfx-svg-palette-black{fill:#1e1e1e}.msportalfx-svg-palette-green{fill:#57a300}.msportalfx-svg-palette-gray{fill:#a0a1a2}.msportalfx-svg-palette-inherit{fill:inherit}.msportalfx-svg-badge{position:absolute;left:0;bottom:0;min-height:10px;min-width:10px}.fxc-menu-icon&gt;.msportalfx-svg-badge{left:-2px;bottom:-2px;min-height:8px;min-width:8px}.msportalfx-svg-disabled{filter:grayscale(100%)}.msportalfx-svg-loading-square{animation:ProgressFlagAnimation 1.45s infinite ease-in-out;transform-origin:50%}.msportalfx-svg-loading-square:nth-child(1){animation-delay:0s}.msportalfx-svg-loading-square:nth-child(2){animation-delay:.2s}.msportalfx-svg-loading-square:nth-child(3){animation-delay:.4s}@keyframes ProgressFlagAnimation{0%{transform:scale(1);opacity:.3}36.1%{transform:scale(1.06);opacity:1}50%{transform:scale(1.06);opacity:1}86.1%{transform:scale(1);opacity:.3}}.msportalfx-svg-flip-horizontal&gt;svg,svg.msportalfx-svg-flip-horizontal{transform:scaleX(-1)}.msportalfx-svg-fabric-rotate360{animation:ImageRotation 1.3s cubic-bezier(.53,.21,.29,.67) infinite}@keyframes ImageRotation{0%{transform:rotate(-45deg)}100%{transform:rotate(315deg)}}.fxs-svg-number .msportalfx-font-bold{font-size:10px;fill:#0065ad}.fxs-svg-number .fxs-svg-circle{stroke-width:0%;fill:#0078d4}.fxs-svg-number .fxs-svg-text{fill:#fff;font-size:10px}.fxs-svg-number.msportalfx-svg-disabled{filter:grayscale(0%)}.fxs-svg-number.msportalfx-svg-disabled .fxs-svg-circle{fill:#fff;stroke-width:1px;stroke:#949494}.fxs-svg-number.msportalfx-svg-disabled .fxs-svg-text{fill:#949494}.fxs-theme-dark .fxs-svg-number .fxs-svg-text{fill:#0f0f0f}.fxs-theme-dark .fxs-svg-number .fxs-svg-circle{stroke-width:0%;fill:#0078d4}.fxs-theme-dark .fxs-svg-number.msportalfx-svg-disabled .fxs-svg-circle{fill:#0f0f0f;stroke-width:1px;stroke:#949494}.fxs-theme-dark .fxs-svg-number.msportalfx-svg-disabled .fxs-svg-text{fill:#949494}</style></svg>