<svg viewBox="0 0 18 18" class="msportalfx-svg-placeholder" xmlns="http://www.w3.org/2000/svg"><title>tier</title><desc></desc><defs><linearGradient id="p-sIr4bVn__a" x1="-5.941" x2="6.715" y1="777.835" y2="777.835" gradientTransform="matrix(1 0 0 -1 11.16 791.516)" gradientUnits="userSpaceOnUse"><stop offset="0" stop-color="#50e6ff" /><stop offset="1" stop-color="#006abb" /></linearGradient><linearGradient id="p-sIr4bVn__b" x1="-4.768" x2="5.561" y1="779.011" y2="779.011" gradientTransform="matrix(1 0 0 -1 11.16 791.516)" gradientUnits="userSpaceOnUse"><stop offset=".357" stop-color="#faa21d" /><stop offset=".796" stop-color="#f78d1e" /></linearGradient><linearGradient id="p-sIr4bVn__c" x1="-3.622" x2="4.415" y1="780.188" y2="780.188" gradientTransform="matrix(1 0 0 -1 11.16 791.516)" gradientUnits="userSpaceOnUse"><stop offset="0" stop-color="#86d633" /><stop offset=".999" stop-color="#76bc2d" /></linearGradient></defs><path fill="#50e6ff" d="m7.383 10.642 3.595-2.089.029-.016a1.2 1.2 0 0 1 .537-.128 1.2 1.2 0 0 1 .537.128l.028.015 3.078 1.777V.535a.433.433 0 0 0-.451-.409H.584a.444.444 0 0 0-.459.426v9.814a.433.433 0 0 0 .451.409h6.616a.7.7 0 0 1 .191-.132Z" /><path fill="#fff" d="M7.877 1.608c-.4 0-.725.326-.725.729 0 .168.066.316.161.439L6.136 4.871c-.029-.003-.054-.017-.083-.017a.7.7 0 0 0-.379.123l-.915-.932a.727.727 0 0 0-.671-.998.726.726 0 0 0-.725.729c0 .128.041.242.099.346l-.837 1.086c-.059-.016-.116-.036-.179-.036-.4 0-.725.326-.725.729s.324.729.725.729.725-.326.725-.729a.7.7 0 0 0-.093-.338l.846-1.091c.055.013.107.034.166.034a.7.7 0 0 0 .26-.053l1.002 1.022c-.006.037-.022.07-.022.108 0 .402.324.729.725.729s.725-.326.725-.729a.7.7 0 0 0-.147-.418L7.82 3.054c.021.002.039.012.06.012.4 0 .725-.326.725-.729s-.324-.729-.725-.729Zm.69 6.23a.13.13 0 0 0-.11-.064H1.608a.13.13 0 0 0-.11.064l.015.009a.13.13 0 0 0-.015.058v1.339c0 .073.059.131.132.131h6.806a.13.13 0 0 0 .132-.131V7.905a.1.1 0 0 0-.015-.058zm2.411.715.029-.016a1.17 1.17 0 0 1 .716-.113V1.756a.12.12 0 0 0-.122-.122h-1.024a.12.12 0 0 0-.122.122v7.1zm2.688.898v-4.56a.093.093 0 0 0-.093-.093h-1.08a.093.093 0 0 0-.093.093V8.72z" /><path fill="#155ea1" d="M17.874 14.188v-.506a.26.26 0 0 0-.175-.246l-5.749-3.319a.93.93 0 0 0-.846 0l-5.712 3.319a.26.26 0 0 0-.172.245h-.001v.529h.001c0 .108.067.208.175.245l5.749 3.319c.266.135.58.135.846 0l5.712-3.319a.26.26 0 0 0 .172-.224z" /><path fill="url(#p-sIr4bVn__a)" d="M17.699 13.436a.26.26 0 0 1 .003.49l-5.712 3.319a.93.93 0 0 1-.846 0l-5.749-3.319a.26.26 0 0 1-.003-.49l5.712-3.319a.93.93 0 0 1 .846 0z" /><path fill="#ef7100" d="M16.721 13.018v-.513a.21.21 0 0 0-.143-.2l-4.692-2.709a.76.76 0 0 0-.69 0l-4.661 2.709a.21.21 0 0 0-.131.132.2.2 0 0 0-.01.068v.526c0 .089.054.173.143.203l4.692 2.709c.217.11.473.11.69 0l4.661-2.709a.21.21 0 0 0 .141-.202z" /><path fill="url(#p-sIr4bVn__b)" d="M16.577 12.305a.211.211 0 0 1 .002.4l-4.661 2.709a.76.76 0 0 1-.69 0l-4.692-2.709a.211.211 0 0 1-.002-.4l4.661-2.709a.76.76 0 0 1 .69 0z" /><path fill="#5e9624" d="M15.575 11.843v-.515a.165.165 0 0 0-.111-.156l-3.651-2.107a.59.59 0 0 0-.537 0l-3.627 2.107a.17.17 0 0 0-.102.103.2.2 0 0 0-.006.075H7.54v.499a.164.164 0 0 0 .111.163l3.651 2.107a.59.59 0 0 0 .537 0l3.627-2.107a.17.17 0 0 0 .11-.156s0-.009 0-.013Z" /><path fill="url(#p-sIr4bVn__c)" d="M15.463 11.173a.164.164 0 0 1 .001.311l-3.627 2.107a.59.59 0 0 1-.537 0l-3.651-2.107a.164.164 0 0 1-.001-.311l3.627-2.107a.59.59 0 0 1 .537 0z" /><style>.msportalfx-svg-c01{fill:#fff}.msportalfx-svg-c02{fill:#e5e5e5}.msportalfx-svg-c03{fill:#a0a1a2}.msportalfx-svg-c04{fill:#7a7a7a}.msportalfx-svg-c05{fill:#3e3e3e}.msportalfx-svg-c06{fill:#1e1e1e}.msportalfx-svg-c07{fill:#0f0f0f}.msportalfx-svg-c08{fill:#ba141a}.msportalfx-svg-c09{fill:#dd5900}.msportalfx-svg-c10{fill:#ff8c00}.msportalfx-svg-c11{fill:#fcd116}.msportalfx-svg-c12{fill:#fee087}.msportalfx-svg-c13{fill:#b8d432}.msportalfx-svg-c14,.msportalfx-svg-c32{fill:#57a300}.msportalfx-svg-c15{fill:#59b4d9}.msportalfx-svg-c16{fill:#3999c6}.msportalfx-svg-c17{fill:#804998}.msportalfx-svg-c18{fill:#ec008c}.msportalfx-svg-c19{fill:#0072c6}.msportalfx-svg-c20{fill:#68217a}.msportalfx-svg-c21{fill:#00188f}.msportalfx-svg-c22{fill:#e81123}.fxs-mode-light .msportalfx-svg-c22{fill:#a4262c}.msportalfx-svg-c23{fill:#cae3f3}.msportalfx-svg-c24{fill:#59aed3}.msportalfx-svg-c25{fill:#4c3b12}.msportalfx-svg-c26{fill:#be9555}.msportalfx-svg-c27{fill:#4f4d52}.msportalfx-svg-c28{fill:#ef6f59}.msportalfx-svg-c29{fill:#f7cb64}.msportalfx-svg-c30{fill:#fdd8db}.msportalfx-svg-c31{fill:#f6ffec}.msportalfx-svg-c33{fill:#8a2da5}.msportalfx-svg-c34{fill:#e00b1c}.msportalfx-svg-c35{fill:#015cda}.msportalfx-svg-c36{fill:#5db300}.msportalfx-svg-c97{fill:#ffb900}.msportalfx-svg-c98{fill:#00a4ef}.msportalfx-svg-c99{fill:#f25022}.msportalfx-inverted-theme .msportalfx-svg-c05,.fxs-theme-dark .msportalfx-svg-c05{fill:#777}.msportalfx-inverted-theme .msportalfx-svg-c07,.fxs-theme-dark .msportalfx-svg-c07{fill:#f2f2f2}.msportalfx-svg-palette-white{fill:#fff}.msportalfx-svg-palette-blue{fill:#015cda}.msportalfx-svg-palette-black{fill:#1e1e1e}.msportalfx-svg-palette-green{fill:#57a300}.msportalfx-svg-palette-gray{fill:#a0a1a2}.msportalfx-svg-palette-inherit{fill:inherit}.msportalfx-svg-badge{position:absolute;left:0;bottom:0;min-height:10px;min-width:10px}.fxc-menu-icon&gt;.msportalfx-svg-badge{left:-2px;bottom:-2px;min-height:8px;min-width:8px}.msportalfx-svg-disabled{filter:grayscale(100%)}.msportalfx-svg-loading-square{animation:ProgressFlagAnimation 1.45s infinite ease-in-out;transform-origin:50%}.msportalfx-svg-loading-square:nth-child(1){animation-delay:0s}.msportalfx-svg-loading-square:nth-child(2){animation-delay:.2s}.msportalfx-svg-loading-square:nth-child(3){animation-delay:.4s}@keyframes ProgressFlagAnimation{0%{transform:scale(1);opacity:.3}36.1%{transform:scale(1.06);opacity:1}50%{transform:scale(1.06);opacity:1}86.1%{transform:scale(1);opacity:.3}}.msportalfx-svg-flip-horizontal&gt;svg,svg.msportalfx-svg-flip-horizontal{transform:scaleX(-1)}.msportalfx-svg-fabric-rotate360{animation:ImageRotation 1.3s cubic-bezier(.53,.21,.29,.67) infinite}@keyframes ImageRotation{0%{transform:rotate(-45deg)}100%{transform:rotate(315deg)}}.fxs-svg-number .msportalfx-font-bold{font-size:10px;fill:#0065ad}.fxs-svg-number .fxs-svg-circle{stroke-width:0%;fill:#0078d4}.fxs-svg-number .fxs-svg-text{fill:#fff;font-size:10px}.fxs-svg-number.msportalfx-svg-disabled{filter:grayscale(0%)}.fxs-svg-number.msportalfx-svg-disabled .fxs-svg-circle{fill:#fff;stroke-width:1px;stroke:#949494}.fxs-svg-number.msportalfx-svg-disabled .fxs-svg-text{fill:#949494}.fxs-theme-dark .fxs-svg-number .fxs-svg-text{fill:#0f0f0f}.fxs-theme-dark .fxs-svg-number .fxs-svg-circle{stroke-width:0%;fill:#0078d4}.fxs-theme-dark .fxs-svg-number.msportalfx-svg-disabled .fxs-svg-circle{fill:#0f0f0f;stroke-width:1px;stroke:#949494}.fxs-theme-dark .fxs-svg-number.msportalfx-svg-disabled .fxs-svg-text{fill:#949494}</style></svg>