<svg viewBox="0 0 18 18" class="msportalfx-svg-placeholder" xmlns="http://www.w3.org/2000/svg"><title>Central service instance for SAP solutions</title><desc>Central service instance is part of a Virtual Instance for SAP solutions. Try changing or clearing your filters. You can also Create a Virtual instance for SAP solutions that runs on Azure to take advantage of the best that Azure has to offer.</desc><defs><linearGradient id="p2QVq6L0m__a" x1="9" x2="9" y1="13.712" y2="4.288" gradientUnits="userSpaceOnUse"><stop offset="0" stop-color="#005ba1" /><stop offset="1" stop-color="#0078d4" /></linearGradient></defs><path fill="url(#p2QVq6L0m__a)" d="M.609 13.712h8.663a.6.6 0 0 0 .432-.181l8.119-8.206a.609.609 0 0 0-.433-1.037H.609A.61.61 0 0 0 0 4.9v8.2a.61.61 0 0 0 .609.612" /><path fill="#fff" d="M8.329 7.767v2.247l-1.941 1.129v-2.25z" opacity=".6" /><path fill="#fff" d="M8.329 7.767 6.388 8.896 4.443 7.764l1.945-1.129z" opacity=".9" /><path fill="#fff" d="M6.388 8.896v2.247l-1.945-1.129v-2.25z" opacity=".75" /><path fill="#0ff" d="m6.665 5.117.246.135.1.055a.132.132 0 0 1 0 .228l-.1.059-.3.178a3.232 3.232 0 0 1 2.353 5.166l-.011.022-.123.458a.131.131 0 0 0 .17.161l.365-.1a.1.1 0 0 0 .034-.023 3.888 3.888 0 0 0-2.734-6.339" opacity=".75" /><path fill="#0ff" d="m8.832 11.829-.11.029a.131.131 0 0 1-.161-.161l.03-.11.081-.3a3.223 3.223 0 0 1-4.346.205 3.3 3.3 0 0 1-.627-.694.1.1 0 0 0-.024-.021l-.319-.164a.131.131 0 0 0-.191.124l.023.459a.1.1 0 0 0 .012.036 4 4 0 0 0 .552.631 3.884 3.884 0 0 0 5.387-.112Z" opacity=".5" /><path fill="#0ff" d="M2.956 10.516 2.95 10.4a.132.132 0 0 1 .191-.124l.1.052.263.134A3.23 3.23 0 0 1 5.363 5.93a3.3 3.3 0 0 1 .87-.163.1.1 0 0 0 .03-.009l.358-.216a.131.131 0 0 0-.005-.227l-.356-.2a.06.06 0 0 0-.035-.008 3.8 3.8 0 0 0-.875.137 3.887 3.887 0 0 0-2.376 5.617Z" /><style>.msportalfx-svg-c01{fill:#fff}.msportalfx-svg-c02{fill:#e5e5e5}.msportalfx-svg-c03{fill:#a0a1a2}.msportalfx-svg-c04{fill:#7a7a7a}.msportalfx-svg-c05{fill:#3e3e3e}.msportalfx-svg-c06{fill:#1e1e1e}.msportalfx-svg-c07{fill:#0f0f0f}.msportalfx-svg-c08{fill:#ba141a}.msportalfx-svg-c09{fill:#dd5900}.msportalfx-svg-c10{fill:#ff8c00}.msportalfx-svg-c11{fill:#fcd116}.msportalfx-svg-c12{fill:#fee087}.msportalfx-svg-c13{fill:#b8d432}.msportalfx-svg-c14,.msportalfx-svg-c32{fill:#57a300}.msportalfx-svg-c15{fill:#59b4d9}.msportalfx-svg-c16{fill:#3999c6}.msportalfx-svg-c17{fill:#804998}.msportalfx-svg-c18{fill:#ec008c}.msportalfx-svg-c19{fill:#0072c6}.msportalfx-svg-c20{fill:#68217a}.msportalfx-svg-c21{fill:#00188f}.msportalfx-svg-c22{fill:#e81123}.fxs-mode-light .msportalfx-svg-c22{fill:#a4262c}.msportalfx-svg-c23{fill:#cae3f3}.msportalfx-svg-c24{fill:#59aed3}.msportalfx-svg-c25{fill:#4c3b12}.msportalfx-svg-c26{fill:#be9555}.msportalfx-svg-c27{fill:#4f4d52}.msportalfx-svg-c28{fill:#ef6f59}.msportalfx-svg-c29{fill:#f7cb64}.msportalfx-svg-c30{fill:#fdd8db}.msportalfx-svg-c31{fill:#f6ffec}.msportalfx-svg-c33{fill:#8a2da5}.msportalfx-svg-c34{fill:#e00b1c}.msportalfx-svg-c35{fill:#015cda}.msportalfx-svg-c36{fill:#5db300}.msportalfx-svg-c97{fill:#ffb900}.msportalfx-svg-c98{fill:#00a4ef}.msportalfx-svg-c99{fill:#f25022}.msportalfx-inverted-theme .msportalfx-svg-c05,.fxs-theme-dark .msportalfx-svg-c05{fill:#777}.msportalfx-inverted-theme .msportalfx-svg-c07,.fxs-theme-dark .msportalfx-svg-c07{fill:#f2f2f2}.msportalfx-svg-palette-white{fill:#fff}.msportalfx-svg-palette-blue{fill:#015cda}.msportalfx-svg-palette-black{fill:#1e1e1e}.msportalfx-svg-palette-green{fill:#57a300}.msportalfx-svg-palette-gray{fill:#a0a1a2}.msportalfx-svg-palette-inherit{fill:inherit}.msportalfx-svg-badge{position:absolute;left:0;bottom:0;min-height:10px;min-width:10px}.fxc-menu-icon&gt;.msportalfx-svg-badge{left:-2px;bottom:-2px;min-height:8px;min-width:8px}.msportalfx-svg-disabled{filter:grayscale(100%)}.msportalfx-svg-loading-square{animation:ProgressFlagAnimation 1.45s infinite ease-in-out;transform-origin:50%}.msportalfx-svg-loading-square:nth-child(1){animation-delay:0s}.msportalfx-svg-loading-square:nth-child(2){animation-delay:.2s}.msportalfx-svg-loading-square:nth-child(3){animation-delay:.4s}@keyframes ProgressFlagAnimation{0%{transform:scale(1);opacity:.3}36.1%{transform:scale(1.06);opacity:1}50%{transform:scale(1.06);opacity:1}86.1%{transform:scale(1);opacity:.3}}.msportalfx-svg-flip-horizontal&gt;svg,svg.msportalfx-svg-flip-horizontal{transform:scaleX(-1)}.msportalfx-svg-fabric-rotate360{animation:ImageRotation 1.3s cubic-bezier(.53,.21,.29,.67) infinite}@keyframes ImageRotation{0%{transform:rotate(-45deg)}100%{transform:rotate(315deg)}}.fxs-svg-number .msportalfx-font-bold{font-size:10px;fill:#0065ad}.fxs-svg-number .fxs-svg-circle{stroke-width:0%;fill:#0078d4}.fxs-svg-number .fxs-svg-text{fill:#fff;font-size:10px}.fxs-svg-number.msportalfx-svg-disabled{filter:grayscale(0%)}.fxs-svg-number.msportalfx-svg-disabled .fxs-svg-circle{fill:#fff;stroke-width:1px;stroke:#949494}.fxs-svg-number.msportalfx-svg-disabled .fxs-svg-text{fill:#949494}.fxs-theme-dark .fxs-svg-number .fxs-svg-text{fill:#0f0f0f}.fxs-theme-dark .fxs-svg-number .fxs-svg-circle{stroke-width:0%;fill:#0078d4}.fxs-theme-dark .fxs-svg-number.msportalfx-svg-disabled .fxs-svg-circle{fill:#0f0f0f;stroke-width:1px;stroke:#949494}.fxs-theme-dark .fxs-svg-number.msportalfx-svg-disabled .fxs-svg-text{fill:#949494}</style></svg>