<svg viewBox="0 0 18 18" class="msportalfx-svg-placeholder" xmlns="http://www.w3.org/2000/svg"><title>Azure Center for SAP solutions</title><desc>Azure Center for SAP solutions is an Azure native offering that makes SAP a top-level workload in Azure. It enables end-customers and service providers to seamlessly deploy or manage their SAP systems on Azure.</desc><path fill="#32bedd" d="M11.189 4.827v2.688l-2.323 1.35V6.174z" /><path fill="#9cebff" d="m11.189 4.827-2.323 1.35-2.325-1.353 2.325-1.35z" /><path fill="#50e6ff" d="M8.866 6.177v2.688l-2.325-1.35V4.824z" /><path fill="#32bedd" d="M8.42 9.603v2.687l-2.322 1.35v-2.691z" /><path fill="#9cebff" d="m8.42 9.603-2.322 1.35-2.325-1.354 2.325-1.35z" /><path fill="#50e6ff" d="M6.098 10.953v2.687l-2.325-1.35V9.599z" /><path fill="#32bedd" d="M14.045 9.611v2.687l-2.322 1.35v-2.691z" /><path fill="#9cebff" d="m14.045 9.611-2.322 1.35-2.326-1.354 2.326-1.35z" /><path fill="#50e6ff" d="M11.723 10.961v2.687l-2.326-1.35V9.607z" /><path fill="#005ba1" d="m9.607.519.536.3.217.12a.288.288 0 0 1 .01.5l-.213.128-.647.391a7.057 7.057 0 0 1 5.137 11.281.2.2 0 0 0-.023.047l-.268 1a.287.287 0 0 0 .352.352l.8-.214a.14.14 0 0 0 .075-.048A8.493 8.493 0 0 0 9.607.519" /><path fill="#0ff" d="m14.339 15.178-.241.064a.287.287 0 0 1-.351-.352l.064-.24.178-.663a7.06 7.06 0 0 1-10.86-1.069.14.14 0 0 0-.052-.047l-.7-.357a.288.288 0 0 0-.418.271l.051 1a.16.16 0 0 0 .027.077 8.6 8.6 0 0 0 1.206 1.379A8.48 8.48 0 0 0 15.009 15Z" /><path fill="#32bedd" d="m1.506 12.31-.013-.249a.287.287 0 0 1 .418-.27l.221.113.575.294A7.062 7.062 0 0 1 8.662 1.941a.14.14 0 0 0 .065-.02l.782-.472a.287.287 0 0 0-.01-.5L8.722.523a.15.15 0 0 0-.077-.018 8.493 8.493 0 0 0-7.1 12.565Z" /><style>.msportalfx-svg-c01{fill:#fff}.msportalfx-svg-c02{fill:#e5e5e5}.msportalfx-svg-c03{fill:#a0a1a2}.msportalfx-svg-c04{fill:#7a7a7a}.msportalfx-svg-c05{fill:#3e3e3e}.msportalfx-svg-c06{fill:#1e1e1e}.msportalfx-svg-c07{fill:#0f0f0f}.msportalfx-svg-c08{fill:#ba141a}.msportalfx-svg-c09{fill:#dd5900}.msportalfx-svg-c10{fill:#ff8c00}.msportalfx-svg-c11{fill:#fcd116}.msportalfx-svg-c12{fill:#fee087}.msportalfx-svg-c13{fill:#b8d432}.msportalfx-svg-c14,.msportalfx-svg-c32{fill:#57a300}.msportalfx-svg-c15{fill:#59b4d9}.msportalfx-svg-c16{fill:#3999c6}.msportalfx-svg-c17{fill:#804998}.msportalfx-svg-c18{fill:#ec008c}.msportalfx-svg-c19{fill:#0072c6}.msportalfx-svg-c20{fill:#68217a}.msportalfx-svg-c21{fill:#00188f}.msportalfx-svg-c22{fill:#e81123}.fxs-mode-light .msportalfx-svg-c22{fill:#a4262c}.msportalfx-svg-c23{fill:#cae3f3}.msportalfx-svg-c24{fill:#59aed3}.msportalfx-svg-c25{fill:#4c3b12}.msportalfx-svg-c26{fill:#be9555}.msportalfx-svg-c27{fill:#4f4d52}.msportalfx-svg-c28{fill:#ef6f59}.msportalfx-svg-c29{fill:#f7cb64}.msportalfx-svg-c30{fill:#fdd8db}.msportalfx-svg-c31{fill:#f6ffec}.msportalfx-svg-c33{fill:#8a2da5}.msportalfx-svg-c34{fill:#e00b1c}.msportalfx-svg-c35{fill:#015cda}.msportalfx-svg-c36{fill:#5db300}.msportalfx-svg-c97{fill:#ffb900}.msportalfx-svg-c98{fill:#00a4ef}.msportalfx-svg-c99{fill:#f25022}.msportalfx-inverted-theme .msportalfx-svg-c05,.fxs-theme-dark .msportalfx-svg-c05{fill:#777}.msportalfx-inverted-theme .msportalfx-svg-c07,.fxs-theme-dark .msportalfx-svg-c07{fill:#f2f2f2}.msportalfx-svg-palette-white{fill:#fff}.msportalfx-svg-palette-blue{fill:#015cda}.msportalfx-svg-palette-black{fill:#1e1e1e}.msportalfx-svg-palette-green{fill:#57a300}.msportalfx-svg-palette-gray{fill:#a0a1a2}.msportalfx-svg-palette-inherit{fill:inherit}.msportalfx-svg-badge{position:absolute;left:0;bottom:0;min-height:10px;min-width:10px}.fxc-menu-icon&gt;.msportalfx-svg-badge{left:-2px;bottom:-2px;min-height:8px;min-width:8px}.msportalfx-svg-disabled{filter:grayscale(100%)}.msportalfx-svg-loading-square{animation:ProgressFlagAnimation 1.45s infinite ease-in-out;transform-origin:50%}.msportalfx-svg-loading-square:nth-child(1){animation-delay:0s}.msportalfx-svg-loading-square:nth-child(2){animation-delay:.2s}.msportalfx-svg-loading-square:nth-child(3){animation-delay:.4s}@keyframes ProgressFlagAnimation{0%{transform:scale(1);opacity:.3}36.1%{transform:scale(1.06);opacity:1}50%{transform:scale(1.06);opacity:1}86.1%{transform:scale(1);opacity:.3}}.msportalfx-svg-flip-horizontal&gt;svg,svg.msportalfx-svg-flip-horizontal{transform:scaleX(-1)}.msportalfx-svg-fabric-rotate360{animation:ImageRotation 1.3s cubic-bezier(.53,.21,.29,.67) infinite}@keyframes ImageRotation{0%{transform:rotate(-45deg)}100%{transform:rotate(315deg)}}.fxs-svg-number .msportalfx-font-bold{font-size:10px;fill:#0065ad}.fxs-svg-number .fxs-svg-circle{stroke-width:0%;fill:#0078d4}.fxs-svg-number .fxs-svg-text{fill:#fff;font-size:10px}.fxs-svg-number.msportalfx-svg-disabled{filter:grayscale(0%)}.fxs-svg-number.msportalfx-svg-disabled .fxs-svg-circle{fill:#fff;stroke-width:1px;stroke:#949494}.fxs-svg-number.msportalfx-svg-disabled .fxs-svg-text{fill:#949494}.fxs-theme-dark .fxs-svg-number .fxs-svg-text{fill:#0f0f0f}.fxs-theme-dark .fxs-svg-number .fxs-svg-circle{stroke-width:0%;fill:#0078d4}.fxs-theme-dark .fxs-svg-number.msportalfx-svg-disabled .fxs-svg-circle{fill:#0f0f0f;stroke-width:1px;stroke:#949494}.fxs-theme-dark .fxs-svg-number.msportalfx-svg-disabled .fxs-svg-text{fill:#949494}</style></svg>