<svg viewBox="0 0 18 18" class="msportalfx-svg-placeholder" xmlns="http://www.w3.org/2000/svg"><title>Virtual network appliance</title><desc>A Virtual Network Appliance enables you to connect private workloads at scale, supporting large virtual networks with compute and private endpoints, while maintaining seamless private connectivity throughout. </desc><path fill="#62be55" d="M15.1 11.85s-.06.01-.08.03l-.94.94s-.12.05-.16 0l-2.87-2.87c-.1-.1-.26-.1-.36 0l-.8.8c-.1.1-.1.26 0 .36l2.87 2.87s.05.12 0 .16l-.06.06-.89.89s-.05.12 0 .16c.02.02.05.03.08.03h3.22c.06 0 .12-.06.11-.12v-3.21c0-.06-.05-.11-.11-.12Zm-4.47-3.67c.1.1.26.1.36 0l2.87-2.87s.12-.05.16 0l.06.06.89.89s.12.05.16 0c.02-.02.03-.05.03-.08V2.96c0-.06-.06-.12-.12-.11h-3.21c-.06 0-.11.05-.12.11 0 .03.01.06.03.08l.94.94s.05.12 0 .16L9.81 7.01c-.1.1-.1.26 0 .36l.8.8Zm-3.3 1.78c-.1-.1-.26-.1-.36 0L4.1 12.83s-.12.04-.16 0L3 11.89s-.05-.03-.08-.03c-.06 0-.11.05-.12.12v3.21c0 .06.05.12.11.12h3.22s.06-.01.08-.03c.04-.05.04-.12 0-.16l-.89-.89-.06-.06s-.05-.12 0-.16l2.87-2.87c.1-.1.1-.26 0-.36l-.8-.8ZM5.29 4.14s-.04-.12 0-.16l.94-.94s.03-.05.03-.08c0-.06-.05-.11-.12-.12H2.93c-.06 0-.12.05-.12.11v3.22s.01.06.03.08c.05.04.12.04.16 0l.89-.89.06-.06s.12-.05.16 0l2.87 2.87c.1.1.26.1.36 0l.8-.8c.1-.1.1-.26 0-.36L5.27 4.14Z" /><path fill="#0078d4" d="M12.57 12.82H5.43c-.14 0-.25-.13-.25-.29V5.48c0-.16.11-.29.25-.29h7.14c.14 0 .25.13.25.29v7.05c0 .16-.11.29-.25.29" /><path fill="#fff" d="M8 8.7c-.12 0-.23.07-.28.18-.1.26.14.5.39.4.08-.03.14-.09.17-.17A.305.305 0 0 0 8 8.7m.97 0h-.15c-.35.3-.06.7.26.58.08-.03.14-.09.17-.17a.305.305 0 0 0-.28-.41m-.76-.79s.03-.08 0-.11l-.17-.17a.08.08 0 0 0-.11 0L6.68 8.89s-.05.07-.04.11c0 .04.01.08.05.11l1.28 1.27s.08.03.11 0l.17-.17s.03-.08 0-.11L7.14 9l1.08-1.09Zm1.86 1.36c.06-.03.1-.07.13-.13.1-.22-.06-.44-.27-.44a.3.3 0 0 0-.3.3c0 .21.22.37.44.27m1.19-.39-1.25-1.26a.08.08 0 0 0-.11 0l-.17.17s-.03.08 0 .11l1.08 1.09-1.11 1.1s-.03.08 0 .11l.17.17c.03.03.08.03.11 0l1.28-1.28a.16.16 0 0 0 .05-.11.15.15 0 0 0-.04-.11Z" /><path fill="#0078d4" d="M12.84 16.99h-.46c-.12 0-.22.1-.22.22v.46c0 .12.1.22.22.22h.46c.12 0 .22-.1.22-.22v-.46c0-.12-.1-.22-.22-.22m-2.4 0h-.47c-.12 0-.22.1-.22.22v.46c0 .12.1.22.22.22h.47c.12 0 .22-.1.22-.21v-.46c0-.12-.1-.22-.22-.22Zm-2.41 0h-.47c-.12 0-.22.1-.22.22v.46c0 .12.1.22.22.22h.47c.12 0 .22-.1.22-.22v-.46c0-.12-.1-.22-.22-.22m7.23 0h-.47c-.12 0-.22.1-.22.22v.46c0 .12.1.22.22.22h.47c.12 0 .22-.1.22-.21v-.46c0-.12-.1-.22-.22-.22Zm-9.64 0h-.48c-.12 0-.22.1-.22.22v.46c0 .12.1.22.22.22h.48c.12 0 .21-.1.21-.21v-.46c0-.12-.1-.22-.22-.22Zm-2.41 0h-.47c-.12 0-.22.1-.22.22v.46c0 .12.1.22.22.22h.47c.12 0 .22-.1.22-.22v-.46c0-.12-.1-.22-.22-.22m-2.41 0H.34c-.12 0-.22.1-.22.22v.46c0 .12.1.22.22.22H.8c.12 0 .22-.1.22-.22v-.46c0-.12-.1-.22-.22-.22M14.79 1.02h.46c.12 0 .22-.1.22-.22V.34c0-.12-.1-.22-.22-.22h-.46c-.12 0-.22.1-.22.22V.8c0 .12.1.22.22.22M12.85.13h-.47c-.12 0-.22.1-.22.22v.46c0 .12.1.22.22.22h.47c.12 0 .22-.1.22-.21V.36c0-.12-.1-.22-.22-.22Zm-2.41 0h-.47c-.12 0-.22.1-.22.22v.46c0 .12.1.22.22.22h.47c.12 0 .22-.1.22-.22V.35c0-.12-.1-.22-.22-.22m6.76.89h.46c.12 0 .22-.1.22-.22V.34c0-.12-.1-.22-.22-.22h-.46c-.12 0-.22.1-.22.22V.8c0 .12.1.22.22.22M8.03.13h-.48c-.12 0-.22.1-.22.22v.46c0 .12.1.22.22.22h.48c.12 0 .21-.1.21-.21V.36c0-.12-.1-.22-.22-.22Zm-2.88.89h.47c.12 0 .22-.1.22-.22V.34c0-.12-.1-.22-.22-.22h-.47c-.12 0-.22.1-.22.22V.8c0 .12.1.22.22.22M3.22.13h-.48c-.12 0-.22.1-.22.22v.46c0 .12.1.22.22.22h.48c.12 0 .21-.1.21-.21V.36c0-.12-.1-.22-.22-.22ZM.8 12.17H.34c-.12 0-.22.1-.22.22v.46c0 .12.1.22.22.22H.8c.12 0 .22-.1.22-.22v-.46c0-.12-.1-.22-.22-.22m0-2.42H.34c-.12 0-.22.1-.22.22v.47c0 .12.1.22.21.22h.46c.12 0 .22-.1.22-.22v-.47c0-.12-.1-.22-.22-.22Zm0-2.41H.34c-.12 0-.22.1-.22.22v.47c0 .12.1.22.22.22H.8c.12 0 .22-.1.22-.22v-.47c0-.12-.1-.22-.22-.22m0 7.23H.34c-.12 0-.22.1-.22.22v.47c0 .12.1.21.21.22h.46c.12 0 .22-.1.22-.22v-.47c0-.12-.1-.22-.22-.22Zm0-9.64H.34c-.12 0-.22.1-.22.22v.47c0 .12.1.22.21.22h.46c.12 0 .22-.1.22-.22v-.48c0-.12-.1-.22-.22-.22Zm0-2.4H.34c-.12 0-.22.1-.22.22v.47c0 .12.1.22.22.22H.8c.12 0 .22-.1.22-.22v-.47c0-.12-.1-.22-.22-.22M.8.12H.34C.22.12.12.22.12.34V.8c0 .12.1.22.22.22H.8c.12 0 .22-.1.22-.22V.34C1.02.22.92.12.8.12m16.86 14.46h-.46c-.12 0-.22.1-.22.22v.46c0 .12.1.22.22.22h.46c.12 0 .22-.1.22-.22v-.46c0-.12-.1-.22-.22-.22m0-2.42h-.46c-.12 0-.22.1-.22.22v.47c0 .12.1.22.21.22h.46c.12 0 .22-.1.22-.22v-.47c0-.12-.1-.22-.22-.22Zm0-2.41h-.46c-.12 0-.22.1-.22.22v.47c0 .12.1.22.22.22h.46c.12 0 .22-.1.22-.22v-.47c0-.12-.1-.22-.22-.22m0-2.41h-.46c-.12 0-.22.1-.22.22v.47c0 .12.1.22.21.22h.46c.12 0 .22-.1.22-.22v-.48c0-.12-.1-.22-.22-.22Zm0-2.4h-.46c-.12 0-.22.1-.22.22v.47c0 .12.1.22.22.22h.46c.12 0 .22-.1.22-.22v-.47c0-.12-.1-.22-.22-.22m0-2.41h-.46c-.12 0-.22.1-.22.22v.47c0 .12.1.22.21.22h.46c.12 0 .22-.1.22-.22v-.48c0-.12-.1-.22-.22-.22Zm0 14.46h-.46c-.12 0-.22.1-.22.22v.46c0 .12.1.22.22.22h.46c.12 0 .22-.1.22-.22v-.46c0-.12-.1-.22-.22-.22" /><style>.msportalfx-svg-c01{fill:#fff}.msportalfx-svg-c02{fill:#e5e5e5}.msportalfx-svg-c03{fill:#a0a1a2}.msportalfx-svg-c04{fill:#7a7a7a}.msportalfx-svg-c05{fill:#3e3e3e}.msportalfx-svg-c06{fill:#1e1e1e}.msportalfx-svg-c07{fill:#0f0f0f}.msportalfx-svg-c08{fill:#ba141a}.msportalfx-svg-c09{fill:#dd5900}.msportalfx-svg-c10{fill:#ff8c00}.msportalfx-svg-c11{fill:#fcd116}.msportalfx-svg-c12{fill:#fee087}.msportalfx-svg-c13{fill:#b8d432}.msportalfx-svg-c14,.msportalfx-svg-c32{fill:#57a300}.msportalfx-svg-c15{fill:#59b4d9}.msportalfx-svg-c16{fill:#3999c6}.msportalfx-svg-c17{fill:#804998}.msportalfx-svg-c18{fill:#ec008c}.msportalfx-svg-c19{fill:#0072c6}.msportalfx-svg-c20{fill:#68217a}.msportalfx-svg-c21{fill:#00188f}.msportalfx-svg-c22{fill:#e81123}.fxs-mode-light .msportalfx-svg-c22{fill:#a4262c}.msportalfx-svg-c23{fill:#cae3f3}.msportalfx-svg-c24{fill:#59aed3}.msportalfx-svg-c25{fill:#4c3b12}.msportalfx-svg-c26{fill:#be9555}.msportalfx-svg-c27{fill:#4f4d52}.msportalfx-svg-c28{fill:#ef6f59}.msportalfx-svg-c29{fill:#f7cb64}.msportalfx-svg-c30{fill:#fdd8db}.msportalfx-svg-c31{fill:#f6ffec}.msportalfx-svg-c33{fill:#8a2da5}.msportalfx-svg-c34{fill:#e00b1c}.msportalfx-svg-c35{fill:#015cda}.msportalfx-svg-c36{fill:#5db300}.msportalfx-svg-c97{fill:#ffb900}.msportalfx-svg-c98{fill:#00a4ef}.msportalfx-svg-c99{fill:#f25022}.msportalfx-inverted-theme .msportalfx-svg-c05,.fxs-theme-dark .msportalfx-svg-c05{fill:#777}.msportalfx-inverted-theme .msportalfx-svg-c07,.fxs-theme-dark .msportalfx-svg-c07{fill:#f2f2f2}.msportalfx-svg-palette-white{fill:#fff}.msportalfx-svg-palette-blue{fill:#015cda}.msportalfx-svg-palette-black{fill:#1e1e1e}.msportalfx-svg-palette-green{fill:#57a300}.msportalfx-svg-palette-gray{fill:#a0a1a2}.msportalfx-svg-palette-inherit{fill:inherit}.msportalfx-svg-badge{position:absolute;left:0;bottom:0;min-height:10px;min-width:10px}.fxc-menu-icon&gt;.msportalfx-svg-badge{left:-2px;bottom:-2px;min-height:8px;min-width:8px}.msportalfx-svg-disabled{filter:grayscale(100%)}.msportalfx-svg-loading-square{animation:ProgressFlagAnimation 1.45s infinite ease-in-out;transform-origin:50%}.msportalfx-svg-loading-square:nth-child(1){animation-delay:0s}.msportalfx-svg-loading-square:nth-child(2){animation-delay:.2s}.msportalfx-svg-loading-square:nth-child(3){animation-delay:.4s}@keyframes ProgressFlagAnimation{0%{transform:scale(1);opacity:.3}36.1%{transform:scale(1.06);opacity:1}50%{transform:scale(1.06);opacity:1}86.1%{transform:scale(1);opacity:.3}}.msportalfx-svg-flip-horizontal&gt;svg,svg.msportalfx-svg-flip-horizontal{transform:scaleX(-1)}.msportalfx-svg-fabric-rotate360{animation:ImageRotation 1.3s cubic-bezier(.53,.21,.29,.67) infinite}@keyframes ImageRotation{0%{transform:rotate(-45deg)}100%{transform:rotate(315deg)}}.fxs-svg-number .msportalfx-font-bold{font-size:10px;fill:#0065ad}.fxs-svg-number .fxs-svg-circle{stroke-width:0%;fill:#0078d4}.fxs-svg-number .fxs-svg-text{fill:#fff;font-size:10px}.fxs-svg-number.msportalfx-svg-disabled{filter:grayscale(0%)}.fxs-svg-number.msportalfx-svg-disabled .fxs-svg-circle{fill:#fff;stroke-width:1px;stroke:#949494}.fxs-svg-number.msportalfx-svg-disabled .fxs-svg-text{fill:#949494}.fxs-theme-dark .fxs-svg-number .fxs-svg-text{fill:#0f0f0f}.fxs-theme-dark .fxs-svg-number .fxs-svg-circle{stroke-width:0%;fill:#0078d4}.fxs-theme-dark .fxs-svg-number.msportalfx-svg-disabled .fxs-svg-circle{fill:#0f0f0f;stroke-width:1px;stroke:#949494}.fxs-theme-dark .fxs-svg-number.msportalfx-svg-disabled .fxs-svg-text{fill:#949494}</style></svg>