<svg fill="none" viewBox="0 0 18 18" class="msportalfx-svg-placeholder" xmlns="http://www.w3.org/2000/svg"><title>Virtual network appliance</title><desc>A Virtual Network Appliance enables you to connect private workloads at scale, supporting large virtual networks with compute and private endpoints, while maintaining seamless private connectivity throughout. </desc><path fill="url(#pnCRqedza__a)" d="M.5 7.33h10.934v6.1a.365.365 0 0 1-.365.365H.867a.365.365 0 0 1-.365-.365v-6.1z" /><path fill="#0078D4" d="M.867 5h10.2a.365.365 0 0 1 .365.365V7.33H.502V5.365A.365.365 0 0 1 .867 5" /><path fill="url(#pnCRqedza__b)" d="M7.537 9.826a.487.487 0 1 1 0 .974.487.487 0 0 1 0-.974m-2.039.491a.487.487 0 1 0 .974 0 .487.487 0 0 0-.974 0m-1.553 0a.487.487 0 1 0 .974 0 .487.487 0 0 0-.974 0" /><path fill="#fff" d="m4.785 12.263-.278.279a.126.126 0 0 1-.178 0l-2.062-2.056a.25.25 0 0 1 0-.356l.278-.279 2.24 2.234a.126.126 0 0 1 0 .178M9.39 9.847l-2.24 2.234a.124.124 0 0 0 0 .178l.279.279a.12.12 0 0 0 .089.037.13.13 0 0 0 .089-.037l2.06-2.056a.25.25 0 0 0 0-.356z" /><path fill="#fff" d="m4.467 8.097.279.278a.126.126 0 0 1 0 .178l-2.2 2.208-.279-.279a.25.25 0 0 1 0-.356l2.02-2.029a.126.126 0 0 1 .18 0m5.2 2.379a.25.25 0 0 0 0-.356l-2.02-2.029a.126.126 0 0 0-.178 0l-.282.282a.126.126 0 0 0 0 .178l2.2 2.207.279-.279z" opacity=".8" /><path fill="#76BC2D" d="m17.581 9.539-2.06 2.06a.1.1 0 0 1-.12.035.1.1 0 0 1-.055-.113v-1.166a.107.107 0 0 0-.107-.097h-3.402l2.119 2.04a.09.09 0 0 0 .117 0l.592-.602a.08.08 0 0 1 .09-.02.08.08 0 0 1 .046.079v2.128a.117.117 0 0 1-.116.117h-2.09a.078.078 0 0 1-.083-.095.1.1 0 0 1 .025-.041l.603-.593a.09.09 0 0 0 0-.117l-1.74-1.827V7.605l1.778-1.769a.08.08 0 0 0 0-.107l-.602-.593A.078.078 0 0 1 12.634 5h2.129a.126.126 0 0 1 .116.127v2.07a.077.077 0 0 1-.095.083.1.1 0 0 1-.04-.025l-.594-.593a.09.09 0 0 0-.116 0l-2.168 2.05H15.2a.107.107 0 0 0 .107-.106V7.44a.097.097 0 0 1 .121-.117q.034.01.054.039l2.099 2.021a.1.1 0 0 1 .039.078.1.1 0 0 1-.039.078" /><defs><linearGradient id="pnCRqedza__a" x1="5.967" x2="5.967" y1="13.791" y2="7.33" gradientUnits="userSpaceOnUse"><stop stop-color="#0078D4" /><stop offset=".775" stop-color="#5EA0EF" /></linearGradient><linearGradient id="pnCRqedza__b" x1="5.984" x2="5.984" y1="9.829" y2="10.806" gradientUnits="userSpaceOnUse"><stop stop-color="#fff" /><stop offset="1" stop-color="#fff" stop-opacity=".6" /></linearGradient></defs><style>.msportalfx-svg-c01{fill:#fff}.msportalfx-svg-c02{fill:#e5e5e5}.msportalfx-svg-c03{fill:#a0a1a2}.msportalfx-svg-c04{fill:#7a7a7a}.msportalfx-svg-c05{fill:#3e3e3e}.msportalfx-svg-c06{fill:#1e1e1e}.msportalfx-svg-c07{fill:#0f0f0f}.msportalfx-svg-c08{fill:#ba141a}.msportalfx-svg-c09{fill:#dd5900}.msportalfx-svg-c10{fill:#ff8c00}.msportalfx-svg-c11{fill:#fcd116}.msportalfx-svg-c12{fill:#fee087}.msportalfx-svg-c13{fill:#b8d432}.msportalfx-svg-c14,.msportalfx-svg-c32{fill:#57a300}.msportalfx-svg-c15{fill:#59b4d9}.msportalfx-svg-c16{fill:#3999c6}.msportalfx-svg-c17{fill:#804998}.msportalfx-svg-c18{fill:#ec008c}.msportalfx-svg-c19{fill:#0072c6}.msportalfx-svg-c20{fill:#68217a}.msportalfx-svg-c21{fill:#00188f}.msportalfx-svg-c22{fill:#e81123}.fxs-mode-light .msportalfx-svg-c22{fill:#a4262c}.msportalfx-svg-c23{fill:#cae3f3}.msportalfx-svg-c24{fill:#59aed3}.msportalfx-svg-c25{fill:#4c3b12}.msportalfx-svg-c26{fill:#be9555}.msportalfx-svg-c27{fill:#4f4d52}.msportalfx-svg-c28{fill:#ef6f59}.msportalfx-svg-c29{fill:#f7cb64}.msportalfx-svg-c30{fill:#fdd8db}.msportalfx-svg-c31{fill:#f6ffec}.msportalfx-svg-c33{fill:#8a2da5}.msportalfx-svg-c34{fill:#e00b1c}.msportalfx-svg-c35{fill:#015cda}.msportalfx-svg-c36{fill:#5db300}.msportalfx-svg-c97{fill:#ffb900}.msportalfx-svg-c98{fill:#00a4ef}.msportalfx-svg-c99{fill:#f25022}.msportalfx-inverted-theme .msportalfx-svg-c05,.fxs-theme-dark .msportalfx-svg-c05{fill:#777}.msportalfx-inverted-theme .msportalfx-svg-c07,.fxs-theme-dark .msportalfx-svg-c07{fill:#f2f2f2}.msportalfx-svg-palette-white{fill:#fff}.msportalfx-svg-palette-blue{fill:#015cda}.msportalfx-svg-palette-black{fill:#1e1e1e}.msportalfx-svg-palette-green{fill:#57a300}.msportalfx-svg-palette-gray{fill:#a0a1a2}.msportalfx-svg-palette-inherit{fill:inherit}.msportalfx-svg-badge{position:absolute;left:0;bottom:0;min-height:10px;min-width:10px}.fxc-menu-icon&gt;.msportalfx-svg-badge{left:-2px;bottom:-2px;min-height:8px;min-width:8px}.msportalfx-svg-disabled{filter:grayscale(100%)}.msportalfx-svg-loading-square{animation:ProgressFlagAnimation 1.45s infinite ease-in-out;transform-origin:50%}.msportalfx-svg-loading-square:nth-child(1){animation-delay:0s}.msportalfx-svg-loading-square:nth-child(2){animation-delay:.2s}.msportalfx-svg-loading-square:nth-child(3){animation-delay:.4s}@keyframes ProgressFlagAnimation{0%{transform:scale(1);opacity:.3}36.1%{transform:scale(1.06);opacity:1}50%{transform:scale(1.06);opacity:1}86.1%{transform:scale(1);opacity:.3}}.msportalfx-svg-flip-horizontal&gt;svg,svg.msportalfx-svg-flip-horizontal{transform:scaleX(-1)}.msportalfx-svg-fabric-rotate360{animation:ImageRotation 1.3s cubic-bezier(.53,.21,.29,.67) infinite}@keyframes ImageRotation{0%{transform:rotate(-45deg)}100%{transform:rotate(315deg)}}.fxs-svg-number .msportalfx-font-bold{font-size:10px;fill:#0065ad}.fxs-svg-number .fxs-svg-circle{stroke-width:0%;fill:#0078d4}.fxs-svg-number .fxs-svg-text{fill:#fff;font-size:10px}.fxs-svg-number.msportalfx-svg-disabled{filter:grayscale(0%)}.fxs-svg-number.msportalfx-svg-disabled .fxs-svg-circle{fill:#fff;stroke-width:1px;stroke:#949494}.fxs-svg-number.msportalfx-svg-disabled .fxs-svg-text{fill:#949494}.fxs-theme-dark .fxs-svg-number .fxs-svg-text{fill:#0f0f0f}.fxs-theme-dark .fxs-svg-number .fxs-svg-circle{stroke-width:0%;fill:#0078d4}.fxs-theme-dark .fxs-svg-number.msportalfx-svg-disabled .fxs-svg-circle{fill:#0f0f0f;stroke-width:1px;stroke:#949494}.fxs-theme-dark .fxs-svg-number.msportalfx-svg-disabled .fxs-svg-text{fill:#949494}</style></svg>