<svg viewBox="0 0 18 18" class="msportalfx-svg-placeholder" xmlns="http://www.w3.org/2000/svg"><title>DNS private resolver</title><desc>Azure DNS private resolver bridges on-premises DNS namespaces with private DNS zones hosted on Azure DNS without the burden of deploying VM-based custom DNS servers. You can resolve DNS queries from on-premises networks and do conditional forwarding to on-premises DNS zones.</desc><defs><linearGradient id="plwG3bTgM__a" x1="9.049" x2="9.049" y1="1.196" y2="16.892" gradientUnits="userSpaceOnUse"><stop offset="0" stop-color="#0078d4" /><stop offset="1" stop-color="#005ba1" /></linearGradient></defs><path fill="url(#plwG3bTgM__a)" d="M16.444 8.968a7.39 7.39 0 0 1-7.39 7.39 8 8 0 0 1-.96-.06 7.2 7.2 0 0 1-2.82-.98l-.08-.59-.09-.7-.06-.43a.74.74 0 0 0-.23-.41.64.64 0 0 0-.83.05l-.21.21-.33.33a7.33 7.33 0 0 1-1.78-4.55 2 2 0 0 1-.01-.26 7.4 7.4 0 0 1 7.4-7.4A7.25 7.25 0 0 1 12.8 2.6l.08.6.1.69.07.51a.67.67 0 0 0 .17.36.65.65 0 0 0 .44.18.6.6 0 0 0 .44-.18l.57-.57a7.28 7.28 0 0 1 1.774 4.778" /><path fill="#5ea0ef" d="M14.514 4.7a1.5 1.5 0 0 0-.16-.19l-.25.25a.6.6 0 0 1-.44.18.65.65 0 0 1-.44-.18 8 8 0 0 1-1.15.32l-.11.02-.04-.11a8 8 0 0 0-.79-1.88l-.17-.29.32.12a6.3 6.3 0 0 1 1.7.95l-.1-.69a7 7 0 0 0-3.41-1.16c-.13 0-.28-.01-.42-.01s-.3.01-.42.01a7 7 0 0 0-.9.12 7 7 0 0 0-3.9 2.23c-.08.1-.17.2-.25.31a6.87 6.87 0 0 0-1.47 4.27 3 3 0 0 0 .02.44 6.83 6.83 0 0 0 1.45 3.83c.06.07.12.14.19.21l.21-.21a.64.64 0 0 1 .83-.05 10 10 0 0 1 1.22-.33l.11-.03.03.11a8.2 8.2 0 0 0 .79 1.88l.18.3-.33-.12a6.3 6.3 0 0 1-1.71-.97l.09.7a7 7 0 0 0 2.54 1.05c.07.01.15.03.22.04.22.03.45.06.68.07.12.01.26.02.42.02s.29-.01.42-.02a7 7 0 0 0 .9-.11 7 7 0 0 0 3.89-2.23c.08-.1.17-.21.26-.31a6.88 6.88 0 0 0 1.46-4.27 6.8 6.8 0 0 0-1.47-4.27m-6.58-2.04.03-.03L8 2.618a7 7 0 0 1 1.04-.08 7.5 7.5 0 0 1 1.06.08l.04.01.02.03a6.06 6.06 0 0 1 1.26 2.4l.04.13-.14.02a15 15 0 0 1-2.27.17 15 15 0 0 1-2.28-.17l-.13-.02.04-.13a5.9 5.9 0 0 1 1.254-2.4Zm-2.07 8.92h.02v.11c.03.18.07.36.11.54l.02.12-.12.02a11.5 11.5 0 0 0-1.79.55l-.09.04-.06-.07a6.44 6.44 0 0 1-1.29-3.19 6 6 0 0 1-.04-.73 6.46 6.46 0 0 1 1.33-3.92l.06-.08.09.04a10.7 10.7 0 0 0 1.79.55l.12.03-.02.12a14.8 14.8 0 0 0-.35 3.26 15 15 0 0 0 .22 2.608Zm.17-6.5a9 9 0 0 1-1.5-.44l-.18-.06.13-.14a6.5 6.5 0 0 1 2.33-1.5l.33-.12-.18.29a8.4 8.4 0 0 0-.79 1.88l-.03.11Zm.48 7.18-.03-.12a14.5 14.5 0 0 1-.33-3.17 14.6 14.6 0 0 1 .33-3.18l.03-.11.11.02a16 16 0 0 0 2.43.19 16 16 0 0 0 2.43-.19l.11-.02.02.11a14 14 0 0 1 .34 3.18 14 14 0 0 1-.34 3.17l-.02.12-.11-.02a15 15 0 0 0-2.43-.19 14.7 14.7 0 0 0-2.43.19Zm3.65 3.02-.02.03H10.1a6 6 0 0 1-1.05.09A6 6 0 0 1 8 15.308l-.04-.01-.03-.03a3.2 3.2 0 0 1-.46-.6 6.4 6.4 0 0 1-.66-1.39 3 3 0 0 1-.13-.4l-.04-.14.13-.02a15 15 0 0 1 2.28-.16 15 15 0 0 1 2.27.16l.14.02-.04.14a6 6 0 0 1-1.256 2.4Zm3.45-1.79a6.4 6.4 0 0 1-2.33 1.51l-.32.12.17-.3a7.7 7.7 0 0 0 .79-1.88l.04-.11.11.03a10 10 0 0 1 1.5.43l.17.07Zm.53-.6-.05.07-.09-.04a11 11 0 0 0-1.8-.55l-.12-.02.03-.12a15 15 0 0 0 .35-3.26 15 15 0 0 0-.35-3.26l-.03-.12.12-.03a11 11 0 0 0 1.8-.55l.08-.04.06.08a6.4 6.4 0 0 1 0 7.84" /><path fill="#003067" d="M9.841 11.072H8.26a.254.254 0 0 1-.245-.332c.041-.146.417-1.389.562-1.869a1.045 1.045 0 1 1 .948 0c.145.48.52 1.723.562 1.869a.255.255 0 0 1-.246.332" /><path fill="#50e6ff" d="M18 8.958a8.94 8.94 0 0 1-2.64 6.36.58.58 0 0 1-.4.17.56.56 0 0 1-.4-.17.567.567 0 0 1 0-.8 7.84 7.84 0 0 0 2.3-5.56 7.74 7.74 0 0 0-2.16-5.4l-.9.9a.2.2 0 0 1-.33-.11l-.42-3.04a.192.192 0 0 1 .22-.22l3.04.41a.2.2 0 0 1 .11.34l-.91.91A8.9 8.9 0 0 1 18 8.958m-13.39 4.7a.2.2 0 0 0-.33-.12l-.91.91A7.86 7.86 0 0 1 3.434 3.4a.56.56 0 0 0 0-.81.567.567 0 0 0-.8 0 9.02 9.02 0 0 0-.06 12.67l-.91.91a.192.192 0 0 0 .11.33l3.04.42a.2.2 0 0 0 .22-.23Z" /><style>.msportalfx-svg-c01{fill:#fff}.msportalfx-svg-c02{fill:#e5e5e5}.msportalfx-svg-c03{fill:#a0a1a2}.msportalfx-svg-c04{fill:#7a7a7a}.msportalfx-svg-c05{fill:#3e3e3e}.msportalfx-svg-c06{fill:#1e1e1e}.msportalfx-svg-c07{fill:#0f0f0f}.msportalfx-svg-c08{fill:#ba141a}.msportalfx-svg-c09{fill:#dd5900}.msportalfx-svg-c10{fill:#ff8c00}.msportalfx-svg-c11{fill:#fcd116}.msportalfx-svg-c12{fill:#fee087}.msportalfx-svg-c13{fill:#b8d432}.msportalfx-svg-c14,.msportalfx-svg-c32{fill:#57a300}.msportalfx-svg-c15{fill:#59b4d9}.msportalfx-svg-c16{fill:#3999c6}.msportalfx-svg-c17{fill:#804998}.msportalfx-svg-c18{fill:#ec008c}.msportalfx-svg-c19{fill:#0072c6}.msportalfx-svg-c20{fill:#68217a}.msportalfx-svg-c21{fill:#00188f}.msportalfx-svg-c22{fill:#e81123}.fxs-mode-light .msportalfx-svg-c22{fill:#a4262c}.msportalfx-svg-c23{fill:#cae3f3}.msportalfx-svg-c24{fill:#59aed3}.msportalfx-svg-c25{fill:#4c3b12}.msportalfx-svg-c26{fill:#be9555}.msportalfx-svg-c27{fill:#4f4d52}.msportalfx-svg-c28{fill:#ef6f59}.msportalfx-svg-c29{fill:#f7cb64}.msportalfx-svg-c30{fill:#fdd8db}.msportalfx-svg-c31{fill:#f6ffec}.msportalfx-svg-c33{fill:#8a2da5}.msportalfx-svg-c34{fill:#e00b1c}.msportalfx-svg-c35{fill:#015cda}.msportalfx-svg-c36{fill:#5db300}.msportalfx-svg-c97{fill:#ffb900}.msportalfx-svg-c98{fill:#00a4ef}.msportalfx-svg-c99{fill:#f25022}.msportalfx-inverted-theme .msportalfx-svg-c05,.fxs-theme-dark .msportalfx-svg-c05{fill:#777}.msportalfx-inverted-theme .msportalfx-svg-c07,.fxs-theme-dark .msportalfx-svg-c07{fill:#f2f2f2}.msportalfx-svg-palette-white{fill:#fff}.msportalfx-svg-palette-blue{fill:#015cda}.msportalfx-svg-palette-black{fill:#1e1e1e}.msportalfx-svg-palette-green{fill:#57a300}.msportalfx-svg-palette-gray{fill:#a0a1a2}.msportalfx-svg-palette-inherit{fill:inherit}.msportalfx-svg-badge{position:absolute;left:0;bottom:0;min-height:10px;min-width:10px}.fxc-menu-icon&gt;.msportalfx-svg-badge{left:-2px;bottom:-2px;min-height:8px;min-width:8px}.msportalfx-svg-disabled{filter:grayscale(100%)}.msportalfx-svg-loading-square{animation:ProgressFlagAnimation 1.45s infinite ease-in-out;transform-origin:50%}.msportalfx-svg-loading-square:nth-child(1){animation-delay:0s}.msportalfx-svg-loading-square:nth-child(2){animation-delay:.2s}.msportalfx-svg-loading-square:nth-child(3){animation-delay:.4s}@keyframes ProgressFlagAnimation{0%{transform:scale(1);opacity:.3}36.1%{transform:scale(1.06);opacity:1}50%{transform:scale(1.06);opacity:1}86.1%{transform:scale(1);opacity:.3}}.msportalfx-svg-flip-horizontal&gt;svg,svg.msportalfx-svg-flip-horizontal{transform:scaleX(-1)}.msportalfx-svg-fabric-rotate360{animation:ImageRotation 1.3s cubic-bezier(.53,.21,.29,.67) infinite}@keyframes ImageRotation{0%{transform:rotate(-45deg)}100%{transform:rotate(315deg)}}.fxs-svg-number .msportalfx-font-bold{font-size:10px;fill:#0065ad}.fxs-svg-number .fxs-svg-circle{stroke-width:0%;fill:#0078d4}.fxs-svg-number .fxs-svg-text{fill:#fff;font-size:10px}.fxs-svg-number.msportalfx-svg-disabled{filter:grayscale(0%)}.fxs-svg-number.msportalfx-svg-disabled .fxs-svg-circle{fill:#fff;stroke-width:1px;stroke:#949494}.fxs-svg-number.msportalfx-svg-disabled .fxs-svg-text{fill:#949494}.fxs-theme-dark .fxs-svg-number .fxs-svg-text{fill:#0f0f0f}.fxs-theme-dark .fxs-svg-number .fxs-svg-circle{stroke-width:0%;fill:#0078d4}.fxs-theme-dark .fxs-svg-number.msportalfx-svg-disabled .fxs-svg-circle{fill:#0f0f0f;stroke-width:1px;stroke:#949494}.fxs-theme-dark .fxs-svg-number.msportalfx-svg-disabled .fxs-svg-text{fill:#949494}</style></svg>