<svg viewBox="0 0 18 18" class="msportalfx-svg-placeholder" xmlns="http://www.w3.org/2000/svg"><title>Policy compliance</title><desc>Manage unstructured data at scale. Discover, browse, and deploy secure storage solutions that grow with your enterprise needs.</desc><defs><linearGradient id="pFpqW1DUA__a" x1="4.352" x2="13.503" y1="6.757" y2="6.762" gradientTransform="matrix(1 0 0 -1 0 20)" gradientUnits="userSpaceOnUse"><stop offset=".253" stop-color="#d8f7ff" /><stop offset="1" stop-color="#0094f0" /></linearGradient><linearGradient id="pFpqW1DUA__b" x1="4.352" x2="13.503" y1="6.755" y2="6.76" gradientTransform="matrix(1 0 0 -1 0 20)" gradientUnits="userSpaceOnUse"><stop offset=".253" stop-color="#d8f7ff" /><stop offset="1" stop-color="#0094f0" /></linearGradient><linearGradient id="pFpqW1DUA__c" x1="4.347" x2="13.498" y1="10.875" y2="10.865" gradientTransform="matrix(1 0 0 -1 0 20)" gradientUnits="userSpaceOnUse"><stop offset=".253" stop-color="#d8f7ff" /><stop offset="1" stop-color="#0094f0" /></linearGradient><linearGradient id="pFpqW1DUA__d" x1="4.347" x2="13.498" y1="10.881" y2="10.872" gradientTransform="matrix(1 0 0 -1 0 20)" gradientUnits="userSpaceOnUse"><stop offset=".253" stop-color="#d8f7ff" /><stop offset="1" stop-color="#0094f0" /></linearGradient><linearGradient id="pFpqW1DUA__e" x1="4.351" x2="13.501" y1="15.225" y2="15.286" gradientTransform="matrix(1 0 0 -1 0 20)" gradientUnits="userSpaceOnUse"><stop offset=".253" stop-color="#d8f7ff" /><stop offset="1" stop-color="#0094f0" /></linearGradient><linearGradient id="pFpqW1DUA__f" x1="4.351" x2="13.502" y1="15.196" y2="15.257" gradientTransform="matrix(1 0 0 -1 0 20)" gradientUnits="userSpaceOnUse"><stop offset=".253" stop-color="#d8f7ff" /><stop offset="1" stop-color="#0094f0" /></linearGradient></defs><path fill="#1072dd" fill-rule="evenodd" d="M0 3.213v11.574A3.215 3.215 0 0 0 3.213 18h11.574A3.21 3.21 0 0 0 18 14.787V3.213A3.216 3.216 0 0 0 14.787 0H3.213A3.216 3.216 0 0 0 0 3.213" /><path fill="#d0f1fd" d="M1.152 14.787V3.213a2.06 2.06 0 0 1 2.061-2.061h11.574a2.065 2.065 0 0 1 2.061 2.061v11.574a2.06 2.06 0 0 1-2.061 2.062H3.213a2.06 2.06 0 0 1-2.061-2.062" /><path fill="#1072dd" d="M3.669 5.123H14.33v7.754H3.669z" /><path fill="#0094f0" d="M2.7 12.586c0-.642.521-1.163 1.163-1.163h10.274c.642 0 1.163.521 1.163 1.163v1.551c0 .642-.521 1.163-1.163 1.163H3.863A1.163 1.163 0 0 1 2.7 14.137zm0-4.361c0-.642.521-1.163 1.163-1.163h10.274c.642 0 1.163.521 1.163 1.163v1.551c0 .642-.521 1.163-1.163 1.163H3.863A1.163 1.163 0 0 1 2.7 9.776zm0-4.362c0-.642.521-1.163 1.163-1.163h10.274c.642 0 1.163.521 1.163 1.163v1.551c0 .642-.521 1.163-1.163 1.163H3.863A1.163 1.163 0 0 1 2.7 5.414z" /><path fill="url(#pFpqW1DUA__a)" d="M7.304 13.24a.606.606 0 1 1-1.211 0 .606.606 0 0 1 1.211 0" /><path fill="url(#pFpqW1DUA__b)" d="M8.758 12.635a.606.606 0 1 0 0 1.212h4.362a.606.606 0 1 0 0-1.212z" /><path fill="url(#pFpqW1DUA__c)" d="M5.365 9.121a.606.606 0 1 1-1.211 0 .606.606 0 0 1 1.211 0" /><path fill="url(#pFpqW1DUA__d)" d="M8.758 8.515a.606.606 0 1 0 0 1.212h4.362a.606.606 0 1 0 0-1.212z" /><path fill="url(#pFpqW1DUA__e)" d="M7.304 4.76a.606.606 0 1 1-1.211 0 .606.606 0 0 1 1.211 0" /><path fill="url(#pFpqW1DUA__f)" d="M8.758 4.154a.606.606 0 1 0 0 1.212h4.362a.606.606 0 1 0 0-1.212z" /><path fill="#98f0b0" d="M5.365 13.24a.606.606 0 1 1-1.212 0 .606.606 0 0 1 1.212 0m1.939-4.119a.606.606 0 1 1-1.211 0 .606.606 0 0 1 1.211 0M5.365 4.76a.606.606 0 1 1-1.211 0 .606.606 0 0 1 1.211 0" /><style>.msportalfx-svg-c01{fill:#fff}.msportalfx-svg-c02{fill:#e5e5e5}.msportalfx-svg-c03{fill:#a0a1a2}.msportalfx-svg-c04{fill:#7a7a7a}.msportalfx-svg-c05{fill:#3e3e3e}.msportalfx-svg-c06{fill:#1e1e1e}.msportalfx-svg-c07{fill:#0f0f0f}.msportalfx-svg-c08{fill:#ba141a}.msportalfx-svg-c09{fill:#dd5900}.msportalfx-svg-c10{fill:#ff8c00}.msportalfx-svg-c11{fill:#fcd116}.msportalfx-svg-c12{fill:#fee087}.msportalfx-svg-c13{fill:#b8d432}.msportalfx-svg-c14,.msportalfx-svg-c32{fill:#57a300}.msportalfx-svg-c15{fill:#59b4d9}.msportalfx-svg-c16{fill:#3999c6}.msportalfx-svg-c17{fill:#804998}.msportalfx-svg-c18{fill:#ec008c}.msportalfx-svg-c19{fill:#0072c6}.msportalfx-svg-c20{fill:#68217a}.msportalfx-svg-c21{fill:#00188f}.msportalfx-svg-c22{fill:#e81123}.fxs-mode-light .msportalfx-svg-c22{fill:#a4262c}.msportalfx-svg-c23{fill:#cae3f3}.msportalfx-svg-c24{fill:#59aed3}.msportalfx-svg-c25{fill:#4c3b12}.msportalfx-svg-c26{fill:#be9555}.msportalfx-svg-c27{fill:#4f4d52}.msportalfx-svg-c28{fill:#ef6f59}.msportalfx-svg-c29{fill:#f7cb64}.msportalfx-svg-c30{fill:#fdd8db}.msportalfx-svg-c31{fill:#f6ffec}.msportalfx-svg-c33{fill:#8a2da5}.msportalfx-svg-c34{fill:#e00b1c}.msportalfx-svg-c35{fill:#015cda}.msportalfx-svg-c36{fill:#5db300}.msportalfx-svg-c97{fill:#ffb900}.msportalfx-svg-c98{fill:#00a4ef}.msportalfx-svg-c99{fill:#f25022}.msportalfx-inverted-theme .msportalfx-svg-c05,.fxs-theme-dark .msportalfx-svg-c05{fill:#777}.msportalfx-inverted-theme .msportalfx-svg-c07,.fxs-theme-dark .msportalfx-svg-c07{fill:#f2f2f2}.msportalfx-svg-palette-white{fill:#fff}.msportalfx-svg-palette-blue{fill:#015cda}.msportalfx-svg-palette-black{fill:#1e1e1e}.msportalfx-svg-palette-green{fill:#57a300}.msportalfx-svg-palette-gray{fill:#a0a1a2}.msportalfx-svg-palette-inherit{fill:inherit}.msportalfx-svg-badge{position:absolute;left:0;bottom:0;min-height:10px;min-width:10px}.fxc-menu-icon&gt;.msportalfx-svg-badge{left:-2px;bottom:-2px;min-height:8px;min-width:8px}.msportalfx-svg-disabled{filter:grayscale(100%)}.msportalfx-svg-loading-square{animation:ProgressFlagAnimation 1.45s infinite ease-in-out;transform-origin:50%}.msportalfx-svg-loading-square:nth-child(1){animation-delay:0s}.msportalfx-svg-loading-square:nth-child(2){animation-delay:.2s}.msportalfx-svg-loading-square:nth-child(3){animation-delay:.4s}@keyframes ProgressFlagAnimation{0%{transform:scale(1);opacity:.3}36.1%{transform:scale(1.06);opacity:1}50%{transform:scale(1.06);opacity:1}86.1%{transform:scale(1);opacity:.3}}.msportalfx-svg-flip-horizontal&gt;svg,svg.msportalfx-svg-flip-horizontal{transform:scaleX(-1)}.msportalfx-svg-fabric-rotate360{animation:ImageRotation 1.3s cubic-bezier(.53,.21,.29,.67) infinite}@keyframes ImageRotation{0%{transform:rotate(-45deg)}100%{transform:rotate(315deg)}}.fxs-svg-number .msportalfx-font-bold{font-size:10px;fill:#0065ad}.fxs-svg-number .fxs-svg-circle{stroke-width:0%;fill:#0078d4}.fxs-svg-number .fxs-svg-text{fill:#fff;font-size:10px}.fxs-svg-number.msportalfx-svg-disabled{filter:grayscale(0%)}.fxs-svg-number.msportalfx-svg-disabled .fxs-svg-circle{fill:#fff;stroke-width:1px;stroke:#949494}.fxs-svg-number.msportalfx-svg-disabled .fxs-svg-text{fill:#949494}.fxs-theme-dark .fxs-svg-number .fxs-svg-text{fill:#0f0f0f}.fxs-theme-dark .fxs-svg-number .fxs-svg-circle{stroke-width:0%;fill:#0078d4}.fxs-theme-dark .fxs-svg-number.msportalfx-svg-disabled .fxs-svg-circle{fill:#0f0f0f;stroke-width:1px;stroke:#949494}.fxs-theme-dark .fxs-svg-number.msportalfx-svg-disabled .fxs-svg-text{fill:#949494}</style></svg>