<svg viewBox="0 0 18 18" class="msportalfx-svg-placeholder" xmlns='http://www.w3.org/2000/svg'><defs><linearGradient id="p7NP_q_35__a" x1="8.957" x2="8.957" y1="3.171" y2="14.829" gradientUnits="userSpaceOnUse"><stop offset="0" stop-color="#50e6ff"/><stop offset=".5" stop-color="#32bedd"/></linearGradient></defs><path fill="url(#p7NP_q_35__a)" d="M10.604 9.561V8.452a1.9 1.9 0 0 1-.055-.555H7.332q.014.282-.055.555v1.109q.07.273.055.555h3.217a1.9 1.9 0 0 1 .055-.555m.277-2.719q.095.24.111.498l1.444.004a4 4 0 0 0-.388-.665l-.498-.555-.67-.443-.664-.335q.157.21.277.444l.222.498.166.555Zm0 5.491.665-.443.498-.555a4 4 0 0 0 .392-.665h-1.444a1.6 1.6 0 0 1-.111.498l-.166.554-.222.498q-.12.234-.277.446c.241-.066.467-.179.665-.332Zm3.147-4.552.575-.578a5.95 5.95 0 0 0-4.41-4.008v.727a5.25 5.25 0 0 1 3.835 3.859M5.061 9.007c-.004.376.052.751.166 1.109h1.552a2 2 0 0 0-.055-.555V8.452q.069-.273.055-.555H5.227c-.114.359-.17.733-.166 1.109Zm1.94-2.161.166-.555.222-.498q.12-.235.278-.448a1.9 1.9 0 0 0-.665.333l-.665.446-.498.555q-.226.314-.39.665h1.442a1.6 1.6 0 0 1 .111-.498Zm-.665 5.044.665.443c.198.154.424.267.665.332a3 3 0 0 1-.278-.443l-.222-.498L7 11.17a1.6 1.6 0 0 1-.111-.498l-1.442-.002q.164.35.39.665l.498.555Zm4.102-1.218H7.444q.027.202.111.388l.166.498q.077.264.222.498l.277.388.333.333.388.111.388-.111.332-.333.277-.388q.145-.234.222-.498l.166-.498a1.4 1.4 0 0 0 .111-.388Zm-6.56-.357-.567.57a5.95 5.95 0 0 0 4.497 3.945v-.72a5.25 5.25 0 0 1-3.93-3.795m6.314 3.765v.727a5.95 5.95 0 0 0 4.41-4.008l-.575-.578a5.25 5.25 0 0 1-3.835 3.859M7.808 3.891v-.72a5.95 5.95 0 0 0-4.497 3.945l.567.57a5.25 5.25 0 0 1 3.93-3.795m5.014 5.116a3.6 3.6 0 0 0-.167-1.109h-1.552q-.014.282.055.555v1.109a1.9 1.9 0 0 0-.055.555h1.552c.114-.359.17-.733.167-1.109ZM7.556 6.954a1.4 1.4 0 0 0-.111.388h2.994a1.4 1.4 0 0 0-.111-.388l-.166-.498a2 2 0 0 0-.222-.498l-.277-.388-.332-.332-.388-.111-.388.111-.333.332-.277.388a2 2 0 0 0-.222.498z"/><path fill="#0078d4" d="M6.88 2.321h1.24a.11.11 0 0 1 .11.11v2c0 .061.049.11.11.11h1.32a.11.11 0 0 0 .11-.11v-2a.11.11 0 0 1 .11-.11h1.24a.1.1 0 0 0 .121-.073.1.1 0 0 0-.041-.107L9.08.031a.12.12 0 0 0-.16 0L6.8 2.141a.1.1 0 0 0 .08.18m4.24 13.358H9.88a.11.11 0 0 1-.11-.11v-2a.11.11 0 0 0-.11-.11H8.34a.11.11 0 0 0-.11.11v2a.11.11 0 0 1-.11.11H6.88a.1.1 0 0 0-.08.18l2.12 2.11a.12.12 0 0 0 .16 0l2.12-2.11a.1.1 0 0 0-.08-.18"/><path fill="#86d633" d="M17.89 8.23h-2a.11.11 0 0 1-.11-.11V6.88a.1.1 0 0 0-.073-.121.1.1 0 0 0-.107.041l-2.11 2.12a.12.12 0 0 0 0 .16l2.11 2.12a.1.1 0 0 0 .18-.08V9.88a.11.11 0 0 1 .11-.11h2a.11.11 0 0 0 .11-.11V8.34a.11.11 0 0 0-.11-.11M2.4 6.8a.1.1 0 0 0-.18.08v1.24a.11.11 0 0 1-.11.11h-2a.11.11 0 0 0-.11.11v1.32c0 .061.049.11.11.11h2a.11.11 0 0 1 .11.11v1.24a.1.1 0 0 0 .18.08l2.11-2.12a.12.12 0 0 0 0-.16z"/><style>.msportalfx-svg-c01{fill:#fff}.msportalfx-svg-c02{fill:#e5e5e5}.msportalfx-svg-c03{fill:#a0a1a2}.msportalfx-svg-c04{fill:#7a7a7a}.msportalfx-svg-c05{fill:#3e3e3e}.msportalfx-svg-c06{fill:#1e1e1e}.msportalfx-svg-c07{fill:#0f0f0f}.msportalfx-svg-c08{fill:#ba141a}.msportalfx-svg-c09{fill:#dd5900}.msportalfx-svg-c10{fill:#ff8c00}.msportalfx-svg-c11{fill:#fcd116}.msportalfx-svg-c12{fill:#fee087}.msportalfx-svg-c13{fill:#b8d432}.msportalfx-svg-c14,.msportalfx-svg-c32{fill:#57a300}.msportalfx-svg-c15{fill:#59b4d9}.msportalfx-svg-c16{fill:#3999c6}.msportalfx-svg-c17{fill:#804998}.msportalfx-svg-c18{fill:#ec008c}.msportalfx-svg-c19{fill:#0072c6}.msportalfx-svg-c20{fill:#68217a}.msportalfx-svg-c21{fill:#00188f}.msportalfx-svg-c22{fill:#e81123}.fxs-mode-light .msportalfx-svg-c22{fill:#a4262c}.msportalfx-svg-c23{fill:#cae3f3}.msportalfx-svg-c24{fill:#59aed3}.msportalfx-svg-c25{fill:#4c3b12}.msportalfx-svg-c26{fill:#be9555}.msportalfx-svg-c27{fill:#4f4d52}.msportalfx-svg-c28{fill:#ef6f59}.msportalfx-svg-c29{fill:#f7cb64}.msportalfx-svg-c30{fill:#fdd8db}.msportalfx-svg-c31{fill:#f6ffec}.msportalfx-svg-c33{fill:#8a2da5}.msportalfx-svg-c34{fill:#e00b1c}.msportalfx-svg-c35{fill:#015cda}.msportalfx-svg-c36{fill:#5db300}.msportalfx-svg-c97{fill:#ffb900}.msportalfx-svg-c98{fill:#00a4ef}.msportalfx-svg-c99{fill:#f25022}.msportalfx-inverted-theme .msportalfx-svg-c05,.fxs-theme-dark .msportalfx-svg-c05{fill:#777}.msportalfx-inverted-theme .msportalfx-svg-c07,.fxs-theme-dark .msportalfx-svg-c07{fill:#f2f2f2}.msportalfx-svg-palette-white{fill:#fff}.msportalfx-svg-palette-blue{fill:#015cda}.msportalfx-svg-palette-black{fill:#1e1e1e}.msportalfx-svg-palette-green{fill:#57a300}.msportalfx-svg-palette-gray{fill:#a0a1a2}.msportalfx-svg-palette-inherit{fill:inherit}.msportalfx-svg-badge{position:absolute;left:0;bottom:0;min-height:10px;min-width:10px}.fxc-menu-icon>.msportalfx-svg-badge{left:-2px;bottom:-2px;min-height:8px;min-width:8px}.msportalfx-svg-disabled{filter:grayscale(100%)}.msportalfx-svg-loading-square{animation:ProgressFlagAnimation 1.45s infinite ease-in-out;transform-origin:50%}.msportalfx-svg-loading-square:nth-child(1){animation-delay:0s}.msportalfx-svg-loading-square:nth-child(2){animation-delay:.2s}.msportalfx-svg-loading-square:nth-child(3){animation-delay:.4s}@keyframes ProgressFlagAnimation{0%{transform:scale(1);opacity:.3}36.1%{transform:scale(1.06);opacity:1}50%{transform:scale(1.06);opacity:1}86.1%{transform:scale(1);opacity:.3}}.msportalfx-svg-flip-horizontal>svg,svg.msportalfx-svg-flip-horizontal{transform:scaleX(-1)}.msportalfx-svg-fabric-rotate360{animation:ImageRotation 1.3s cubic-bezier(.53,.21,.29,.67) infinite}@keyframes ImageRotation{0%{transform:rotate(-45deg)}100%{transform:rotate(315deg)}}.fxs-svg-number .msportalfx-font-bold{font-size:10px;fill:#0065ad}.fxs-svg-number .fxs-svg-circle{stroke-width:0%;fill:#0078d4}.fxs-svg-number .fxs-svg-text{fill:#fff;font-size:10px}.fxs-svg-number.msportalfx-svg-disabled{filter:grayscale(0%)}.fxs-svg-number.msportalfx-svg-disabled .fxs-svg-circle{fill:#fff;stroke-width:1px;stroke:#949494}.fxs-svg-number.msportalfx-svg-disabled .fxs-svg-text{fill:#949494}.fxs-theme-dark .fxs-svg-number .fxs-svg-text{fill:#0f0f0f}.fxs-theme-dark .fxs-svg-number .fxs-svg-circle{stroke-width:0%;fill:#0078d4}.fxs-theme-dark .fxs-svg-number.msportalfx-svg-disabled .fxs-svg-circle{fill:#0f0f0f;stroke-width:1px;stroke:#949494}.fxs-theme-dark .fxs-svg-number.msportalfx-svg-disabled .fxs-svg-text{fill:#949494}</style></svg>