<svg fill="none" viewBox="0 0 34 35" class="msportalfx-svg-placeholder" xmlns='http://www.w3.org/2000/svg'><path fill="#9CEBFF" d="M26.596 23.406a2.531 2.531 0 1 0 0-5.062 2.531 2.531 0 0 0 0 5.062"/><path fill="#50E6FF" d="M26.596 16.38a4.46 4.46 0 0 0-2.664.831L15.527 11.3 2.04 20.875l13.487 10.238 8.556-6.497a4.57 4.57 0 0 0 2.513.755 4.495 4.495 0 1 0 0-8.991m-11.07 12.278-10.18-7.67 10.18-7.29 7.14 5.062a4.4 4.4 0 0 0-.528 2.115c-.03.802.152 1.597.529 2.305zm11.07-5.195a2.551 2.551 0 1 1-.439-5.083 2.551 2.551 0 0 1 .439 5.083"/><path fill="url(#pUlitbI3T__a)" d="M15.527 15.492a3.192 3.192 0 1 0 0-6.385 3.192 3.192 0 0 0 0 6.385"/><path fill="url(#pUlitbI3T__b)" d="M4.458 24.067a3.192 3.192 0 1 0 0-6.384 3.192 3.192 0 0 0 0 6.384"/><path fill="url(#pUlitbI3T__c)" d="M15.527 33.266a3.192 3.192 0 1 0 0-6.384 3.192 3.192 0 0 0 0 6.384"/><path fill="url(#pUlitbI3T__d)" d="M26.596 1.155a6.33 6.33 0 0 0-6.14 6.611c0 2.89 3.665 9.653 5.327 13.695a.87.87 0 0 0 1.606 0c1.681-4.08 5.345-10.9 5.345-13.695a6.42 6.42 0 0 0-6.139-6.61Zm0 8.954a2.74 2.74 0 1 1 2.72-2.72 2.72 2.72 0 0 1-2.72 2.72"/><defs><linearGradient id="pUlitbI3T__a" x1="15.527" x2="15.527" y1="15.492" y2="9.107" gradientUnits="userSpaceOnUse"><stop stop-color="#773ADC"/><stop offset=".02" stop-color="#793CDD"/><stop offset=".26" stop-color="#9457E7"/><stop offset=".5" stop-color="#A86BEE"/><stop offset=".75" stop-color="#B376F3"/><stop offset="1" stop-color="#B77AF4"/></linearGradient><linearGradient id="pUlitbI3T__b" x1="16.333" x2="16.333" y1="98.318" y2="76.739" gradientUnits="userSpaceOnUse"><stop stop-color="#773ADC"/><stop offset=".02" stop-color="#793CDD"/><stop offset=".26" stop-color="#9457E7"/><stop offset=".5" stop-color="#A86BEE"/><stop offset=".75" stop-color="#B376F3"/><stop offset="1" stop-color="#B77AF4"/></linearGradient><linearGradient id="pUlitbI3T__c" x1="64.815" x2="64.815" y1="138.61" y2="117.03" gradientUnits="userSpaceOnUse"><stop stop-color="#773ADC"/><stop offset=".02" stop-color="#793CDD"/><stop offset=".26" stop-color="#9457E7"/><stop offset=".5" stop-color="#A86BEE"/><stop offset=".75" stop-color="#B376F3"/><stop offset="1" stop-color="#B77AF4"/></linearGradient><linearGradient id="pUlitbI3T__d" x1="26.596" x2="26.596" y1="1.155" y2="22.009" gradientUnits="userSpaceOnUse"><stop stop-color="#B77AF4"/><stop offset=".62" stop-color="#8C4FE4"/><stop offset="1" stop-color="#773ADC"/></linearGradient></defs><style>.msportalfx-svg-c01{fill:#fff}.msportalfx-svg-c02{fill:#e5e5e5}.msportalfx-svg-c03{fill:#a0a1a2}.msportalfx-svg-c04{fill:#7a7a7a}.msportalfx-svg-c05{fill:#3e3e3e}.msportalfx-svg-c06{fill:#1e1e1e}.msportalfx-svg-c07{fill:#0f0f0f}.msportalfx-svg-c08{fill:#ba141a}.msportalfx-svg-c09{fill:#dd5900}.msportalfx-svg-c10{fill:#ff8c00}.msportalfx-svg-c11{fill:#fcd116}.msportalfx-svg-c12{fill:#fee087}.msportalfx-svg-c13{fill:#b8d432}.msportalfx-svg-c14,.msportalfx-svg-c32{fill:#57a300}.msportalfx-svg-c15{fill:#59b4d9}.msportalfx-svg-c16{fill:#3999c6}.msportalfx-svg-c17{fill:#804998}.msportalfx-svg-c18{fill:#ec008c}.msportalfx-svg-c19{fill:#0072c6}.msportalfx-svg-c20{fill:#68217a}.msportalfx-svg-c21{fill:#00188f}.msportalfx-svg-c22{fill:#e81123}.fxs-mode-light .msportalfx-svg-c22{fill:#a4262c}.msportalfx-svg-c23{fill:#cae3f3}.msportalfx-svg-c24{fill:#59aed3}.msportalfx-svg-c25{fill:#4c3b12}.msportalfx-svg-c26{fill:#be9555}.msportalfx-svg-c27{fill:#4f4d52}.msportalfx-svg-c28{fill:#ef6f59}.msportalfx-svg-c29{fill:#f7cb64}.msportalfx-svg-c30{fill:#fdd8db}.msportalfx-svg-c31{fill:#f6ffec}.msportalfx-svg-c33{fill:#8a2da5}.msportalfx-svg-c34{fill:#e00b1c}.msportalfx-svg-c35{fill:#015cda}.msportalfx-svg-c36{fill:#5db300}.msportalfx-svg-c97{fill:#ffb900}.msportalfx-svg-c98{fill:#00a4ef}.msportalfx-svg-c99{fill:#f25022}.msportalfx-inverted-theme .msportalfx-svg-c05,.fxs-theme-dark .msportalfx-svg-c05{fill:#777}.msportalfx-inverted-theme .msportalfx-svg-c07,.fxs-theme-dark .msportalfx-svg-c07{fill:#f2f2f2}.msportalfx-svg-palette-white{fill:#fff}.msportalfx-svg-palette-blue{fill:#015cda}.msportalfx-svg-palette-black{fill:#1e1e1e}.msportalfx-svg-palette-green{fill:#57a300}.msportalfx-svg-palette-gray{fill:#a0a1a2}.msportalfx-svg-palette-inherit{fill:inherit}.msportalfx-svg-badge{position:absolute;left:0;bottom:0;min-height:10px;min-width:10px}.fxc-menu-icon>.msportalfx-svg-badge{left:-2px;bottom:-2px;min-height:8px;min-width:8px}.msportalfx-svg-disabled{filter:grayscale(100%)}.msportalfx-svg-loading-square{animation:ProgressFlagAnimation 1.45s infinite ease-in-out;transform-origin:50%}.msportalfx-svg-loading-square:nth-child(1){animation-delay:0s}.msportalfx-svg-loading-square:nth-child(2){animation-delay:.2s}.msportalfx-svg-loading-square:nth-child(3){animation-delay:.4s}@keyframes ProgressFlagAnimation{0%{transform:scale(1);opacity:.3}36.1%{transform:scale(1.06);opacity:1}50%{transform:scale(1.06);opacity:1}86.1%{transform:scale(1);opacity:.3}}.msportalfx-svg-flip-horizontal>svg,svg.msportalfx-svg-flip-horizontal{transform:scaleX(-1)}.msportalfx-svg-fabric-rotate360{animation:ImageRotation 1.3s cubic-bezier(.53,.21,.29,.67) infinite}@keyframes ImageRotation{0%{transform:rotate(-45deg)}100%{transform:rotate(315deg)}}.fxs-svg-number .msportalfx-font-bold{font-size:10px;fill:#0065ad}.fxs-svg-number .fxs-svg-circle{stroke-width:0%;fill:#0078d4}.fxs-svg-number .fxs-svg-text{fill:#fff;font-size:10px}.fxs-svg-number.msportalfx-svg-disabled{filter:grayscale(0%)}.fxs-svg-number.msportalfx-svg-disabled .fxs-svg-circle{fill:#fff;stroke-width:1px;stroke:#949494}.fxs-svg-number.msportalfx-svg-disabled .fxs-svg-text{fill:#949494}.fxs-theme-dark .fxs-svg-number .fxs-svg-text{fill:#0f0f0f}.fxs-theme-dark .fxs-svg-number .fxs-svg-circle{stroke-width:0%;fill:#0078d4}.fxs-theme-dark .fxs-svg-number.msportalfx-svg-disabled .fxs-svg-circle{fill:#0f0f0f;stroke-width:1px;stroke:#949494}.fxs-theme-dark .fxs-svg-number.msportalfx-svg-disabled .fxs-svg-text{fill:#949494}</style></svg>