<svg fill="none" viewBox="0 0 96 96" class="msportalfx-svg-placeholder" xmlns="http://www.w3.org/2000/svg"><title>Microsoft Entra ID risky workload identities</title><desc></desc><path fill="url(#psYnSSJtX__a)" d="M72.74.019q.361.018.718.054.121.013.244.03c.156.019.311.035.466.059.077.011.153.027.23.04q.245.039.487.086c.082.017.163.039.244.057q.205.044.408.093.173.045.344.094.178.048.354.1.181.058.361.12a14 14 0 0 1 .68.249q.119.045.237.094c.123.05.245.107.367.161q.137.06.272.122.145.07.289.143.18.09.356.183.14.076.277.155.134.075.267.152a15 15 0 0 1 1.195.792q.11.081.218.167a15 15 0 0 1 1.026.864 14 14 0 0 1 1.238 1.299 14 14 0 0 1 .602.766q.096.131.188.265.105.15.206.3a14 14 0 0 1 .368.586q.089.15.173.302a14 14 0 0 1 .612 1.22q.068.152.134.306.062.153.122.31a16 16 0 0 1 .356 1.019l.054.19q.07.242.133.487.29 1.157.385 2.38.047.561.049 1.136v44.262L79.252 44.37c-3.981-7.96-15.323-7.96-19.304 0l-20.39 40.774a11 11 0 0 0-.532 1.256H14.4c-.383 0-.762-.02-1.137-.05q-.16-.01-.32-.025-.068-.007-.134-.016a14 14 0 0 1-1.294-.2q-.135-.028-.27-.06-.18-.04-.36-.083c-.163-.04-.323-.087-.483-.133-.065-.019-.13-.034-.195-.054-.142-.043-.282-.093-.422-.14l-.248-.085a16 16 0 0 1-.35-.131q-.155-.06-.309-.122-.154-.066-.307-.134a13 13 0 0 1-1.219-.612 14 14 0 0 1-.62-.368q-.135-.084-.268-.173-.15-.101-.3-.206-.134-.093-.265-.188a14 14 0 0 1-.565-.436 14.4 14.4 0 0 1-2.39-2.465q-.071-.09-.14-.183-.125-.169-.242-.342-.106-.15-.207-.303l-.152-.239q-.098-.154-.192-.311-.11-.187-.213-.375-.048-.084-.094-.17a14 14 0 0 1-.183-.355q-.073-.144-.143-.289-.062-.135-.122-.272-.083-.183-.161-.367-.048-.118-.094-.237a14 14 0 0 1-.328-.921l-.04-.12q-.053-.175-.101-.354-.05-.171-.094-.344a14.4 14.4 0 0 1-.42-2.796L0 72V14.4C0 6.447 6.447 0 14.4 0H72z" /><path fill="red" d="M28.8 33.6a7.2 7.2 0 0 1 7.2 7.2v24a7.2 7.2 0 0 1-.258 1.88c-.02.071-.032.145-.054.215-.04.135-.092.265-.14.396-.032.086-.06.174-.094.258-.047.113-.103.221-.155.33-.048.103-.094.206-.147.305-.048.09-.102.174-.153.26-.064.11-.127.219-.197.324q-.095.14-.197.274c-.066.091-.13.184-.201.272q-.096.116-.197.227-.133.155-.277.303-.094.094-.192.185a7 7 0 0 1-.281.255 7 7 0 0 1-.267.214 7 7 0 0 1-.286.21 7 7 0 0 1-.86.511q-.154.081-.312.153-.17.075-.345.14-.148.06-.3.11a7 7 0 0 1-.351.106q-.159.045-.321.082c-.52.12-1.06.19-1.615.19h-7.2l-.37-.01a7.2 7.2 0 0 1-1.568-.262 7 7 0 0 1-.352-.105 8 8 0 0 1-.3-.11 7 7 0 0 1-.344-.141q-.158-.072-.312-.152a7 7 0 0 1-1.146-.722q-.136-.104-.267-.214a7 7 0 0 1-.282-.255q-.097-.091-.192-.185a8 8 0 0 1-.276-.303q-.102-.111-.197-.227c-.071-.088-.135-.18-.202-.272q-.1-.134-.197-.274c-.07-.105-.132-.214-.197-.323-.05-.087-.104-.172-.152-.26q-.078-.151-.148-.305c-.052-.11-.108-.218-.154-.33-.035-.085-.062-.173-.094-.259a7.2 7.2 0 0 1-.45-2.491v-24a7.2 7.2 0 0 1 7.2-7.2z" /><path fill="url(#psYnSSJtX__b)" d="M28.8 33.6a7.2 7.2 0 0 1 7.2 7.2v24a7.2 7.2 0 0 1-.258 1.88c-.02.071-.032.145-.054.215-.04.135-.092.265-.14.396-.032.086-.06.174-.094.258-.047.113-.103.221-.155.33-.048.103-.094.206-.147.305-.048.09-.102.174-.153.26-.064.11-.127.219-.197.324q-.095.14-.197.274c-.066.091-.13.184-.201.272q-.096.116-.197.227-.133.155-.277.303-.094.094-.192.185a7 7 0 0 1-.281.255 7 7 0 0 1-.267.214 7 7 0 0 1-.286.21 7 7 0 0 1-.86.511q-.154.081-.312.153-.17.075-.345.14-.148.06-.3.11a7 7 0 0 1-.351.106q-.159.045-.321.082c-.52.12-1.06.19-1.615.19h-7.2l-.37-.01a7.2 7.2 0 0 1-1.568-.262 7 7 0 0 1-.352-.105 8 8 0 0 1-.3-.11 7 7 0 0 1-.344-.141q-.158-.072-.312-.152a7 7 0 0 1-1.146-.722q-.136-.104-.267-.214a7 7 0 0 1-.282-.255q-.097-.091-.192-.185a8 8 0 0 1-.276-.303q-.102-.111-.197-.227c-.071-.088-.135-.18-.202-.272q-.1-.134-.197-.274c-.07-.105-.132-.214-.197-.323-.05-.087-.104-.172-.152-.26q-.078-.151-.148-.305c-.052-.11-.108-.218-.154-.33-.035-.085-.062-.173-.094-.259a7.2 7.2 0 0 1-.45-2.491v-24a7.2 7.2 0 0 1 7.2-7.2z" /><path fill="#9CEBFF" d="M56.372 51.523H46.2a3 3 0 0 1 0-6h13.172zm13.68-17.944a3 3 0 0 1 2.112 5.128 10.96 10.96 0 0 0-7.502.872H46.2a3 3 0 1 1 0-6z" /><path fill="url(#psYnSSJtX__c)" d="M72.74.019q.361.018.718.054.121.013.244.03c.156.019.311.035.466.059.077.011.153.027.23.04q.245.039.487.086c.082.017.163.039.244.057q.205.044.408.093.173.045.344.094.178.048.354.1.181.058.361.12a14 14 0 0 1 .68.249q.119.045.237.094c.123.05.245.107.367.161q.137.06.272.122.145.07.289.143.18.09.356.183.14.076.277.155.134.075.267.152a15 15 0 0 1 1.195.792q.11.081.218.167a15 15 0 0 1 1.026.864 14 14 0 0 1 1.238 1.299 14 14 0 0 1 .602.766q.096.131.188.265.105.15.206.3a14 14 0 0 1 .368.586q.089.15.173.302a14 14 0 0 1 .612 1.22q.068.152.134.306.062.153.122.31a16 16 0 0 1 .356 1.019l.054.19q.07.242.133.487.29 1.157.385 2.38c.01.139.023.278.03.419q.019.356.019.717v44.262l-6-11.998V26.4H6V72a8.4 8.4 0 0 0 8.4 8.4h27.53l-2.372 4.744a11 11 0 0 0-.532 1.256H14.4C6.696 86.4.404 80.35.019 72.74L0 72V14.4C0 6.447 6.447 0 14.4 0H72z" /><path fill="url(#psYnSSJtX__d)" fill-rule="evenodd" d="M49.194 96h40.79c4.46 0 7.36-4.704 5.362-8.7L74.951 46.517c-2.211-4.423-8.512-4.423-10.724 0L43.832 87.3c-1.998 3.996.902 8.7 5.362 8.7M69.6 57.6A2.4 2.4 0 0 1 72 60v14.4a2.4 2.4 0 1 1-4.8 0V60a2.4 2.4 0 0 1 2.4-2.4m3 26.4a3 3 0 1 1-6 0 3 3 0 0 1 6 0" clip-rule="evenodd" /><defs><linearGradient id="psYnSSJtX__a" x1="43.2" x2="43.2" y1="0" y2="86.4" gradientUnits="userSpaceOnUse"><stop stop-color="#0294E4" /><stop offset="1" stop-color="#0755A2" /></linearGradient><linearGradient id="psYnSSJtX__b" x1="25.199" x2="25.199" y1="71.99" y2="33.607" gradientUnits="userSpaceOnUse"><stop offset=".001" stop-color="#50E6FF" /><stop offset="1" stop-color="#9CEBFF" /></linearGradient><linearGradient id="psYnSSJtX__c" x1="43.194" x2="43.2" y1=".192" y2="82.821" gradientUnits="userSpaceOnUse"><stop stop-color="#1AAEFF" /><stop offset="1" stop-color="#066BCE" /></linearGradient><linearGradient id="psYnSSJtX__d" x1="69.589" x2="69.589" y1="43.2" y2="96" gradientUnits="userSpaceOnUse"><stop stop-color="#F80" /><stop offset="1" stop-color="#DB7500" /></linearGradient></defs><style>.msportalfx-svg-c01{fill:#fff}.msportalfx-svg-c02{fill:#e5e5e5}.msportalfx-svg-c03{fill:#a0a1a2}.msportalfx-svg-c04{fill:#7a7a7a}.msportalfx-svg-c05{fill:#3e3e3e}.msportalfx-svg-c06{fill:#1e1e1e}.msportalfx-svg-c07{fill:#0f0f0f}.msportalfx-svg-c08{fill:#ba141a}.msportalfx-svg-c09{fill:#dd5900}.msportalfx-svg-c10{fill:#ff8c00}.msportalfx-svg-c11{fill:#fcd116}.msportalfx-svg-c12{fill:#fee087}.msportalfx-svg-c13{fill:#b8d432}.msportalfx-svg-c14,.msportalfx-svg-c32{fill:#57a300}.msportalfx-svg-c15{fill:#59b4d9}.msportalfx-svg-c16{fill:#3999c6}.msportalfx-svg-c17{fill:#804998}.msportalfx-svg-c18{fill:#ec008c}.msportalfx-svg-c19{fill:#0072c6}.msportalfx-svg-c20{fill:#68217a}.msportalfx-svg-c21{fill:#00188f}.msportalfx-svg-c22{fill:#e81123}.fxs-mode-light .msportalfx-svg-c22{fill:#a4262c}.msportalfx-svg-c23{fill:#cae3f3}.msportalfx-svg-c24{fill:#59aed3}.msportalfx-svg-c25{fill:#4c3b12}.msportalfx-svg-c26{fill:#be9555}.msportalfx-svg-c27{fill:#4f4d52}.msportalfx-svg-c28{fill:#ef6f59}.msportalfx-svg-c29{fill:#f7cb64}.msportalfx-svg-c30{fill:#fdd8db}.msportalfx-svg-c31{fill:#f6ffec}.msportalfx-svg-c33{fill:#8a2da5}.msportalfx-svg-c34{fill:#e00b1c}.msportalfx-svg-c35{fill:#015cda}.msportalfx-svg-c36{fill:#5db300}.msportalfx-svg-c97{fill:#ffb900}.msportalfx-svg-c98{fill:#00a4ef}.msportalfx-svg-c99{fill:#f25022}.msportalfx-inverted-theme .msportalfx-svg-c05,.fxs-theme-dark .msportalfx-svg-c05{fill:#777}.msportalfx-inverted-theme .msportalfx-svg-c07,.fxs-theme-dark .msportalfx-svg-c07{fill:#f2f2f2}.msportalfx-svg-palette-white{fill:#fff}.msportalfx-svg-palette-blue{fill:#015cda}.msportalfx-svg-palette-black{fill:#1e1e1e}.msportalfx-svg-palette-green{fill:#57a300}.msportalfx-svg-palette-gray{fill:#a0a1a2}.msportalfx-svg-palette-inherit{fill:inherit}.msportalfx-svg-badge{position:absolute;left:0;bottom:0;min-height:10px;min-width:10px}.fxc-menu-icon&gt;.msportalfx-svg-badge{left:-2px;bottom:-2px;min-height:8px;min-width:8px}.msportalfx-svg-disabled{filter:grayscale(100%)}.msportalfx-svg-loading-square{animation:ProgressFlagAnimation 1.45s infinite ease-in-out;transform-origin:50%}.msportalfx-svg-loading-square:nth-child(1){animation-delay:0s}.msportalfx-svg-loading-square:nth-child(2){animation-delay:.2s}.msportalfx-svg-loading-square:nth-child(3){animation-delay:.4s}@keyframes ProgressFlagAnimation{0%{transform:scale(1);opacity:.3}36.1%{transform:scale(1.06);opacity:1}50%{transform:scale(1.06);opacity:1}86.1%{transform:scale(1);opacity:.3}}.msportalfx-svg-flip-horizontal&gt;svg,svg.msportalfx-svg-flip-horizontal{transform:scaleX(-1)}.msportalfx-svg-fabric-rotate360{animation:ImageRotation 1.3s cubic-bezier(.53,.21,.29,.67) infinite}@keyframes ImageRotation{0%{transform:rotate(-45deg)}100%{transform:rotate(315deg)}}.fxs-svg-number .msportalfx-font-bold{font-size:10px;fill:#0065ad}.fxs-svg-number .fxs-svg-circle{stroke-width:0%;fill:#0078d4}.fxs-svg-number .fxs-svg-text{fill:#fff;font-size:10px}.fxs-svg-number.msportalfx-svg-disabled{filter:grayscale(0%)}.fxs-svg-number.msportalfx-svg-disabled .fxs-svg-circle{fill:#fff;stroke-width:1px;stroke:#949494}.fxs-svg-number.msportalfx-svg-disabled .fxs-svg-text{fill:#949494}.fxs-theme-dark .fxs-svg-number .fxs-svg-text{fill:#0f0f0f}.fxs-theme-dark .fxs-svg-number .fxs-svg-circle{stroke-width:0%;fill:#0078d4}.fxs-theme-dark .fxs-svg-number.msportalfx-svg-disabled .fxs-svg-circle{fill:#0f0f0f;stroke-width:1px;stroke:#949494}.fxs-theme-dark .fxs-svg-number.msportalfx-svg-disabled .fxs-svg-text{fill:#949494}</style></svg>