<svg viewBox="0 0 96 96" class="msportalfx-svg-placeholder" xmlns='http://www.w3.org/2000/svg'><defs><clipPath id="pJ3yOjqtU__a"><path d="M0 0h96v96H0z"/></clipPath></defs><g clip-path="url(#pJ3yOjqtU__a)"><path fill="#7fba00" d="m48.081 42.948-16-15.158h12.738L66.377 48 45.145 68.21H32.079l16.007-15.158H2.865c-1.642 0-2.865-1.854-2.865-3.5v-4.179c0-1.642 1.223-2.43 2.865-2.43Z"/><path fill="#0072c6" d="M8.938 25.55a7.93 7.93 0 0 0 11.212-.167l.183-.181a32.06 32.06 0 0 1 45.336.481q.2.2.4.408A31.9 31.9 0 0 1 75 50.658a8.16 8.16 0 0 1 3.614 3.274l.019.031.018.031 8.114 14.092a48.02 48.02 0 0 0-9.721-54.08A48.63 48.63 0 0 0 42.907 0 48.1 48.1 0 0 0 8.771 14q-.084.082-.167.167a7.93 7.93 0 0 0 .167 11.212q.082.09.167.171M44 92.514a8.3 8.3 0 0 1 1.157-3.99l5.015-8.975a31.96 31.96 0 0 1-30.029-8.934l-.167-.167a7.93 7.93 0 0 0-11.212.167q-.084.082-.167.167a7.93 7.93 0 0 0 .167 11.212A48.63 48.63 0 0 0 42.907 96c.612 0 1.221-.016 1.831-.036a7.7 7.7 0 0 1-.738-3.45"/><path fill="#ff8c00" d="m95.375 90.521-10.094-17L75.187 55.99A3.76 3.76 0 0 0 72 54a3.76 3.76 0 0 0-3.187 1.992L58.719 72.46 48.625 90.523a3.726 3.726 0 0 0 3.188 5.844h40.374a3.726 3.726 0 0 0 3.188-5.846M72.531 66.615h2.657l-1.063 15.406h-4.25l-.531-15.406Zm-.53 23.372a3.187 3.187 0 0 1-3.187-3.187 3.187 3.187 0 0 1 3.187-3.187 3.187 3.187 0 0 1 3.187 3.187A3.187 3.187 0 0 1 72 89.987Z"/></g><style>.msportalfx-svg-c01{fill:#fff}.msportalfx-svg-c02{fill:#e5e5e5}.msportalfx-svg-c03{fill:#a0a1a2}.msportalfx-svg-c04{fill:#7a7a7a}.msportalfx-svg-c05{fill:#3e3e3e}.msportalfx-svg-c06{fill:#1e1e1e}.msportalfx-svg-c07{fill:#0f0f0f}.msportalfx-svg-c08{fill:#ba141a}.msportalfx-svg-c09{fill:#dd5900}.msportalfx-svg-c10{fill:#ff8c00}.msportalfx-svg-c11{fill:#fcd116}.msportalfx-svg-c12{fill:#fee087}.msportalfx-svg-c13{fill:#b8d432}.msportalfx-svg-c14,.msportalfx-svg-c32{fill:#57a300}.msportalfx-svg-c15{fill:#59b4d9}.msportalfx-svg-c16{fill:#3999c6}.msportalfx-svg-c17{fill:#804998}.msportalfx-svg-c18{fill:#ec008c}.msportalfx-svg-c19{fill:#0072c6}.msportalfx-svg-c20{fill:#68217a}.msportalfx-svg-c21{fill:#00188f}.msportalfx-svg-c22{fill:#e81123}.fxs-mode-light .msportalfx-svg-c22{fill:#a4262c}.msportalfx-svg-c23{fill:#cae3f3}.msportalfx-svg-c24{fill:#59aed3}.msportalfx-svg-c25{fill:#4c3b12}.msportalfx-svg-c26{fill:#be9555}.msportalfx-svg-c27{fill:#4f4d52}.msportalfx-svg-c28{fill:#ef6f59}.msportalfx-svg-c29{fill:#f7cb64}.msportalfx-svg-c30{fill:#fdd8db}.msportalfx-svg-c31{fill:#f6ffec}.msportalfx-svg-c33{fill:#8a2da5}.msportalfx-svg-c34{fill:#e00b1c}.msportalfx-svg-c35{fill:#015cda}.msportalfx-svg-c36{fill:#5db300}.msportalfx-svg-c97{fill:#ffb900}.msportalfx-svg-c98{fill:#00a4ef}.msportalfx-svg-c99{fill:#f25022}.msportalfx-inverted-theme .msportalfx-svg-c05,.fxs-theme-dark .msportalfx-svg-c05{fill:#777}.msportalfx-inverted-theme .msportalfx-svg-c07,.fxs-theme-dark .msportalfx-svg-c07{fill:#f2f2f2}.msportalfx-svg-palette-white{fill:#fff}.msportalfx-svg-palette-blue{fill:#015cda}.msportalfx-svg-palette-black{fill:#1e1e1e}.msportalfx-svg-palette-green{fill:#57a300}.msportalfx-svg-palette-gray{fill:#a0a1a2}.msportalfx-svg-palette-inherit{fill:inherit}.msportalfx-svg-badge{position:absolute;left:0;bottom:0;min-height:10px;min-width:10px}.fxc-menu-icon>.msportalfx-svg-badge{left:-2px;bottom:-2px;min-height:8px;min-width:8px}.msportalfx-svg-disabled{filter:grayscale(100%)}.msportalfx-svg-loading-square{animation:ProgressFlagAnimation 1.45s infinite ease-in-out;transform-origin:50%}.msportalfx-svg-loading-square:nth-child(1){animation-delay:0s}.msportalfx-svg-loading-square:nth-child(2){animation-delay:.2s}.msportalfx-svg-loading-square:nth-child(3){animation-delay:.4s}@keyframes ProgressFlagAnimation{0%{transform:scale(1);opacity:.3}36.1%{transform:scale(1.06);opacity:1}50%{transform:scale(1.06);opacity:1}86.1%{transform:scale(1);opacity:.3}}.msportalfx-svg-flip-horizontal>svg,svg.msportalfx-svg-flip-horizontal{transform:scaleX(-1)}.msportalfx-svg-fabric-rotate360{animation:ImageRotation 1.3s cubic-bezier(.53,.21,.29,.67) infinite}@keyframes ImageRotation{0%{transform:rotate(-45deg)}100%{transform:rotate(315deg)}}.fxs-svg-number .msportalfx-font-bold{font-size:10px;fill:#0065ad}.fxs-svg-number .fxs-svg-circle{stroke-width:0%;fill:#0078d4}.fxs-svg-number .fxs-svg-text{fill:#fff;font-size:10px}.fxs-svg-number.msportalfx-svg-disabled{filter:grayscale(0%)}.fxs-svg-number.msportalfx-svg-disabled .fxs-svg-circle{fill:#fff;stroke-width:1px;stroke:#949494}.fxs-svg-number.msportalfx-svg-disabled .fxs-svg-text{fill:#949494}.fxs-theme-dark .fxs-svg-number .fxs-svg-text{fill:#0f0f0f}.fxs-theme-dark .fxs-svg-number .fxs-svg-circle{stroke-width:0%;fill:#0078d4}.fxs-theme-dark .fxs-svg-number.msportalfx-svg-disabled .fxs-svg-circle{fill:#0f0f0f;stroke-width:1px;stroke:#949494}.fxs-theme-dark .fxs-svg-number.msportalfx-svg-disabled .fxs-svg-text{fill:#949494}</style></svg>