<svg fill="none" viewBox="0 0 106 113" class="msportalfx-svg-placeholder" xmlns='http://www.w3.org/2000/svg'><path fill="#0aaaf5" d="M66.5-.5h15q17.546 6.048 23 24a1204 1204 0 0 1-41-22z" opacity=".982"/><path fill="#1ca3f2" d="M63.5 1.5a1204 1204 0 0 0 41 22 67.2 67.2 0 0 1-1 15 82.4 82.4 0 0 0-11-5q.219-19.104-18.5-22-6.251.667-11.5 4a67 67 0 0 0-12-5q4.728-7.11 13-9" opacity=".973"/><path fill="#00adf6" d="M73.5 15.5q15.625 1.868 11.5 17-7.628 8.425-17.5 2.5-8.248-13.521 6-19.5" opacity=".963"/><path fill="#8357bd" d="M25.5 25.5q7.018-.25 14 .5 1.89 3.318 2 7.5l-1 7q-6.582-3.396-14-3 .395-6.15-1-12" opacity=".961"/><path fill="#4694ec" d="M50.5 10.5a67 67 0 0 1 12 5q-8.139 7.72-6 19a29.4 29.4 0 0 1-7-2q-2.427-2.724-6-4 .589-10.287 7-18" opacity=".983"/><path fill="#9447c4" d="M25.5 25.5q1.395 5.85 1 12-23.055 9.666-10 31 1.395 4.583 1 9a4.45 4.45 0 0 1-2 1.5q2.41 1.574 2 4.5-6.063-2.027-10-7 .26-20.111 0-41 6.727-8.868 18-10" opacity=".973"/><path fill="#7363b8" d="M43.5 28.5q3.573 1.276 6 4-.831 5.332-6 7z"/><path fill="#5972b1" d="M49.5 32.5a29.4 29.4 0 0 0 7 2v1a4.93 4.93 0 0 0-3 .5 66 66 0 0 1-6 7.5l-4-2v-2q5.169-1.668 6-7"/><path fill="#3f81a7" d="M56.5 35.5q2.802 1.144 5 3l-6 10q-4.055-2.52-8-5a66 66 0 0 0 6-7.5 4.93 4.93 0 0 1 3-.5"/><path fill="#1f959d" d="M61.5 38.5a212 212 0 0 1 17 10l-5 4q-2.9.915-5 3h-3a37.8 37.8 0 0 0-10-6v-1z" opacity=".965"/><path fill="#3e97ee" d="M92.5 33.5a82.4 82.4 0 0 1 11 5q-2.62 9.114-10 15a53.7 53.7 0 0 1-12-7q8.306-4.291 11-13" opacity=".999"/><path fill="#9d3fc8" d="M23.5 45.5q13.035-1.957 15 11-3.19 14.097-17 9.5-8.424-7.629-2.5-17.5 2.478-1.35 4.5-3" opacity=".973"/><path fill="#528be7" d="M78.5 48.5a53.6 53.6 0 0 1 12 7 92 92 0 0 0-11 7h-1q.59-6.825-5-10z"/><path fill="#627ce1" d="M73.5 52.5q5.59 3.175 5 10-1.185 1.352-3 2a177 177 0 0 0-4.5-8q-1.005-1.128-2.5-1 2.1-2.085 5-3" opacity=".999"/><path fill="#02a694" d="M90.5 55.5a41.6 41.6 0 0 1 8.5 6 106 106 0 0 1 6.5 12v16q-14.925 32.566-48 17.5-11.067-7.13-14-20 .39-1.892 2-3a44.7 44.7 0 0 0 9.5-5.5q3.59 23.15 26.5 19.5 19.028-10.1 7.5-28.5a90 90 0 0 0-9.5-7 92 92 0 0 1 11-7" opacity=".948"/><path fill="#726ddc" d="M65.5 55.5h3q1.495-.128 2.5 1a177 177 0 0 1 4.5 8q-3.945 2.48-8 5a88 88 0 0 0-6-11 303 303 0 0 0 4-3" opacity=".939"/><path fill="#3894d2" d="m43.5 41.5 4 2q3.945 2.48 8 5v27a810 810 0 0 1-2-11q-4.347-3.857-10-5z" opacity=".997"/><path fill="#9a42c7" d="M7.5 35.5q.26 20.889 0 41-5.92-5.344-8-13v-15q2.08-7.656 8-13" opacity=".978"/><path fill="#2c95c3" d="M43.5 59.5q5.653 1.143 10 5 1 5.72 2 11a53.6 53.6 0 0 1-12 7z" opacity=".962"/><path fill="#8c54d2" d="M61.5 58.5a88 88 0 0 1 6 11 61.4 61.4 0 0 1-12 6v-14q3.026-1.545 6-3" opacity=".985"/><path fill="#8c4fc1" d="M16.5 68.5q6.104 4.869 14 5-1.063 1.356-3 1v12q-5.424-.6-10-3 .41-2.926-2-4.5a4.45 4.45 0 0 0 2-1.5q.395-4.417-1-9" opacity=".925"/><path fill="#8456bd" d="M43.5 68.5v14q-7.254 4.315-16 4v-12q1.937.356 3-1a36.4 36.4 0 0 0 13-5" opacity=".943"/><path fill="#00a89b" d="M73.5 72.5q18.284.544 12.5 18-10.425 9.788-19-2-2.907-10.665 6.5-16" opacity=".936"/><style>.msportalfx-svg-c01{fill:#fff}.msportalfx-svg-c02{fill:#e5e5e5}.msportalfx-svg-c03{fill:#a0a1a2}.msportalfx-svg-c04{fill:#7a7a7a}.msportalfx-svg-c05{fill:#3e3e3e}.msportalfx-svg-c06{fill:#1e1e1e}.msportalfx-svg-c07{fill:#0f0f0f}.msportalfx-svg-c08{fill:#ba141a}.msportalfx-svg-c09{fill:#dd5900}.msportalfx-svg-c10{fill:#ff8c00}.msportalfx-svg-c11{fill:#fcd116}.msportalfx-svg-c12{fill:#fee087}.msportalfx-svg-c13{fill:#b8d432}.msportalfx-svg-c14,.msportalfx-svg-c32{fill:#57a300}.msportalfx-svg-c15{fill:#59b4d9}.msportalfx-svg-c16{fill:#3999c6}.msportalfx-svg-c17{fill:#804998}.msportalfx-svg-c18{fill:#ec008c}.msportalfx-svg-c19{fill:#0072c6}.msportalfx-svg-c20{fill:#68217a}.msportalfx-svg-c21{fill:#00188f}.msportalfx-svg-c22{fill:#e81123}.fxs-mode-light .msportalfx-svg-c22{fill:#a4262c}.msportalfx-svg-c23{fill:#cae3f3}.msportalfx-svg-c24{fill:#59aed3}.msportalfx-svg-c25{fill:#4c3b12}.msportalfx-svg-c26{fill:#be9555}.msportalfx-svg-c27{fill:#4f4d52}.msportalfx-svg-c28{fill:#ef6f59}.msportalfx-svg-c29{fill:#f7cb64}.msportalfx-svg-c30{fill:#fdd8db}.msportalfx-svg-c31{fill:#f6ffec}.msportalfx-svg-c33{fill:#8a2da5}.msportalfx-svg-c34{fill:#e00b1c}.msportalfx-svg-c35{fill:#015cda}.msportalfx-svg-c36{fill:#5db300}.msportalfx-svg-c97{fill:#ffb900}.msportalfx-svg-c98{fill:#00a4ef}.msportalfx-svg-c99{fill:#f25022}.msportalfx-inverted-theme .msportalfx-svg-c05,.fxs-theme-dark .msportalfx-svg-c05{fill:#777}.msportalfx-inverted-theme .msportalfx-svg-c07,.fxs-theme-dark .msportalfx-svg-c07{fill:#f2f2f2}.msportalfx-svg-palette-white{fill:#fff}.msportalfx-svg-palette-blue{fill:#015cda}.msportalfx-svg-palette-black{fill:#1e1e1e}.msportalfx-svg-palette-green{fill:#57a300}.msportalfx-svg-palette-gray{fill:#a0a1a2}.msportalfx-svg-palette-inherit{fill:inherit}.msportalfx-svg-badge{position:absolute;left:0;bottom:0;min-height:10px;min-width:10px}.fxc-menu-icon>.msportalfx-svg-badge{left:-2px;bottom:-2px;min-height:8px;min-width:8px}.msportalfx-svg-disabled{filter:grayscale(100%)}.msportalfx-svg-loading-square{animation:ProgressFlagAnimation 1.45s infinite ease-in-out;transform-origin:50%}.msportalfx-svg-loading-square:nth-child(1){animation-delay:0s}.msportalfx-svg-loading-square:nth-child(2){animation-delay:.2s}.msportalfx-svg-loading-square:nth-child(3){animation-delay:.4s}@keyframes ProgressFlagAnimation{0%{transform:scale(1);opacity:.3}36.1%{transform:scale(1.06);opacity:1}50%{transform:scale(1.06);opacity:1}86.1%{transform:scale(1);opacity:.3}}.msportalfx-svg-flip-horizontal>svg,svg.msportalfx-svg-flip-horizontal{transform:scaleX(-1)}.msportalfx-svg-fabric-rotate360{animation:ImageRotation 1.3s cubic-bezier(.53,.21,.29,.67) infinite}@keyframes ImageRotation{0%{transform:rotate(-45deg)}100%{transform:rotate(315deg)}}.fxs-svg-number .msportalfx-font-bold{font-size:10px;fill:#0065ad}.fxs-svg-number .fxs-svg-circle{stroke-width:0%;fill:#0078d4}.fxs-svg-number .fxs-svg-text{fill:#fff;font-size:10px}.fxs-svg-number.msportalfx-svg-disabled{filter:grayscale(0%)}.fxs-svg-number.msportalfx-svg-disabled .fxs-svg-circle{fill:#fff;stroke-width:1px;stroke:#949494}.fxs-svg-number.msportalfx-svg-disabled .fxs-svg-text{fill:#949494}.fxs-theme-dark .fxs-svg-number .fxs-svg-text{fill:#0f0f0f}.fxs-theme-dark .fxs-svg-number .fxs-svg-circle{stroke-width:0%;fill:#0078d4}.fxs-theme-dark .fxs-svg-number.msportalfx-svg-disabled .fxs-svg-circle{fill:#0f0f0f;stroke-width:1px;stroke:#949494}.fxs-theme-dark .fxs-svg-number.msportalfx-svg-disabled .fxs-svg-text{fill:#949494}</style></svg>