<svg fill="none" viewBox="0 0 18 18" class="msportalfx-svg-placeholder" xmlns='http://www.w3.org/2000/svg'><g clip-path="url(#pdiDmx6oZ__a)"><path fill="url(#pdiDmx6oZ__b)" d="M11.483 13.992c-.425-.595-.864-1.211-.957-2.064a4 4 0 0 1-.025-.495c.019-2.007 1.553-3.651 3.5-3.885V1a1 1 0 0 0-1-1H1a1 1 0 0 0-1 1v12a1 1 0 0 0 1 1h10.489z"/><path fill="url(#pdiDmx6oZ__c)" d="M11 11.439q-.002.218.022.434c.159 1.462 1.542 2.135 1.938 3.982a.286.286 0 0 0 .274.224h2.531a.294.294 0 0 0 .274-.224c.391-1.847 1.766-2.525 1.937-3.982A3.473 3.473 0 0 0 14.532 8h-.071A3.47 3.47 0 0 0 11 11.439"/><path fill="url(#pdiDmx6oZ__d)" d="M15.951 9.948a.823.823 0 0 0-.794.849v.457h-1.242v-.457a.83.83 0 0 0-.811-.849h-.02a.853.853 0 0 0 0 1.705h.374v3.539a.212.212 0 1 0 .424 0v-3.538h1.271v3.538a.212.212 0 0 0 .423 0v-3.538h.374a.82.82 0 0 0 .795-.849.82.82 0 0 0-.786-.855h-.009zm-2.493 1.303h-.325a.458.458 0 0 1-.113-.908c.25-.03.403.148.433.398a.3.3 0 0 1 0 .057l.004.454zm2.52 0h-.4v-.477a.404.404 0 1 1 .8-.099.5.5 0 0 1 0 .098.434.434 0 0 1-.379.477z"/><path fill="#BABABA" d="m15.228 17.934.476-.513v-1.372h-2.376v1.372l.476.513a.2.2 0 0 0 .111.066h1.174a.2.2 0 0 0 .139-.066"/><path fill="url(#pdiDmx6oZ__e)" d="m1.947 6.868.347-.346 2.731 2.739a.16.16 0 0 1 0 .222l-.347.346a.16.16 0 0 1-.222 0l-2.51-2.517a.315.315 0 0 1 0-.444z"/><path fill="#F2F2F2" d="m2.288 7.659-.346-.347a.315.315 0 0 1 0-.444l2.561-2.554a.16.16 0 0 1 .222 0l.346.347a.16.16 0 0 1 0 .222z"/><path fill="url(#pdiDmx6oZ__f)" d="m9.323 9.831-.347-.346a.157.157 0 0 1 0-.222l2.735-2.742.347.346a.313.313 0 0 1 0 .444L9.544 9.832a.157.157 0 0 1-.222 0z"/><path fill="#F2F2F2" d="m8.923 4.663.346-.347a.157.157 0 0 1 .222 0l2.561 2.554a.313.313 0 0 1 0 .444l-.346.347-2.781-2.774a.157.157 0 0 1-.005-.222zM7.795 3.348l-2.26 7.058a.11.11 0 0 0 .073.14l.554.178a.11.11 0 0 0 .141-.073l2.26-7.057a.11.11 0 0 0-.073-.14l-.554-.178a.11.11 0 0 0-.141.072"/></g><defs><linearGradient id="pdiDmx6oZ__b" x1="7" x2="7" y1="0" y2="14" gradientUnits="userSpaceOnUse"><stop offset=".225" stop-color="#5EA0EF"/><stop offset=".498" stop-color="#4093E6"/><stop offset="1" stop-color="#0078D4"/></linearGradient><linearGradient id="pdiDmx6oZ__d" x1="14.514" x2="14.553" y1="10.303" y2="15.221" gradientUnits="userSpaceOnUse"><stop stop-color="#F2F2F2"/><stop offset="1" stop-color="#fff" stop-opacity="0"/></linearGradient><linearGradient id="pdiDmx6oZ__e" x1="2.5" x2="4.5" y1="7" y2="9.5" gradientUnits="userSpaceOnUse"><stop stop-color="#5EA0EF"/><stop offset=".372" stop-color="#9FC6F5"/><stop offset=".8" stop-color="#E4EFFC"/><stop offset="1" stop-color="#fff"/></linearGradient><linearGradient id="pdiDmx6oZ__f" x1="9" x2="11.5" y1="9.5" y2="7" gradientUnits="userSpaceOnUse"><stop stop-color="#fff"/><stop offset=".2" stop-color="#E4EFFC"/><stop offset=".628" stop-color="#9FC6F5"/><stop offset="1" stop-color="#5EA0EF"/></linearGradient><radialGradient id="pdiDmx6oZ__c" cx="0" cy="0" r="1" gradientTransform="matrix(4.8922 0 0 4.902 14.586 12.04)" gradientUnits="userSpaceOnUse"><stop stop-color="#86D633"/><stop offset=".8" stop-color="#5E9624"/></radialGradient><clipPath id="pdiDmx6oZ__a"><path fill="#fff" d="M0 0h18v18H0z"/></clipPath></defs><style>.msportalfx-svg-c01{fill:#fff}.msportalfx-svg-c02{fill:#e5e5e5}.msportalfx-svg-c03{fill:#a0a1a2}.msportalfx-svg-c04{fill:#7a7a7a}.msportalfx-svg-c05{fill:#3e3e3e}.msportalfx-svg-c06{fill:#1e1e1e}.msportalfx-svg-c07{fill:#0f0f0f}.msportalfx-svg-c08{fill:#ba141a}.msportalfx-svg-c09{fill:#dd5900}.msportalfx-svg-c10{fill:#ff8c00}.msportalfx-svg-c11{fill:#fcd116}.msportalfx-svg-c12{fill:#fee087}.msportalfx-svg-c13{fill:#b8d432}.msportalfx-svg-c14,.msportalfx-svg-c32{fill:#57a300}.msportalfx-svg-c15{fill:#59b4d9}.msportalfx-svg-c16{fill:#3999c6}.msportalfx-svg-c17{fill:#804998}.msportalfx-svg-c18{fill:#ec008c}.msportalfx-svg-c19{fill:#0072c6}.msportalfx-svg-c20{fill:#68217a}.msportalfx-svg-c21{fill:#00188f}.msportalfx-svg-c22{fill:#e81123}.fxs-mode-light .msportalfx-svg-c22{fill:#a4262c}.msportalfx-svg-c23{fill:#cae3f3}.msportalfx-svg-c24{fill:#59aed3}.msportalfx-svg-c25{fill:#4c3b12}.msportalfx-svg-c26{fill:#be9555}.msportalfx-svg-c27{fill:#4f4d52}.msportalfx-svg-c28{fill:#ef6f59}.msportalfx-svg-c29{fill:#f7cb64}.msportalfx-svg-c30{fill:#fdd8db}.msportalfx-svg-c31{fill:#f6ffec}.msportalfx-svg-c33{fill:#8a2da5}.msportalfx-svg-c34{fill:#e00b1c}.msportalfx-svg-c35{fill:#015cda}.msportalfx-svg-c36{fill:#5db300}.msportalfx-svg-c97{fill:#ffb900}.msportalfx-svg-c98{fill:#00a4ef}.msportalfx-svg-c99{fill:#f25022}.msportalfx-inverted-theme .msportalfx-svg-c05,.fxs-theme-dark .msportalfx-svg-c05{fill:#777}.msportalfx-inverted-theme .msportalfx-svg-c07,.fxs-theme-dark .msportalfx-svg-c07{fill:#f2f2f2}.msportalfx-svg-palette-white{fill:#fff}.msportalfx-svg-palette-blue{fill:#015cda}.msportalfx-svg-palette-black{fill:#1e1e1e}.msportalfx-svg-palette-green{fill:#57a300}.msportalfx-svg-palette-gray{fill:#a0a1a2}.msportalfx-svg-palette-inherit{fill:inherit}.msportalfx-svg-badge{position:absolute;left:0;bottom:0;min-height:10px;min-width:10px}.fxc-menu-icon>.msportalfx-svg-badge{left:-2px;bottom:-2px;min-height:8px;min-width:8px}.msportalfx-svg-disabled{filter:grayscale(100%)}.msportalfx-svg-loading-square{animation:ProgressFlagAnimation 1.45s infinite ease-in-out;transform-origin:50%}.msportalfx-svg-loading-square:nth-child(1){animation-delay:0s}.msportalfx-svg-loading-square:nth-child(2){animation-delay:.2s}.msportalfx-svg-loading-square:nth-child(3){animation-delay:.4s}@keyframes ProgressFlagAnimation{0%{transform:scale(1);opacity:.3}36.1%{transform:scale(1.06);opacity:1}50%{transform:scale(1.06);opacity:1}86.1%{transform:scale(1);opacity:.3}}.msportalfx-svg-flip-horizontal>svg,svg.msportalfx-svg-flip-horizontal{transform:scaleX(-1)}.msportalfx-svg-fabric-rotate360{animation:ImageRotation 1.3s cubic-bezier(.53,.21,.29,.67) infinite}@keyframes ImageRotation{0%{transform:rotate(-45deg)}100%{transform:rotate(315deg)}}.fxs-svg-number .msportalfx-font-bold{font-size:10px;fill:#0065ad}.fxs-svg-number .fxs-svg-circle{stroke-width:0%;fill:#0078d4}.fxs-svg-number .fxs-svg-text{fill:#fff;font-size:10px}.fxs-svg-number.msportalfx-svg-disabled{filter:grayscale(0%)}.fxs-svg-number.msportalfx-svg-disabled .fxs-svg-circle{fill:#fff;stroke-width:1px;stroke:#949494}.fxs-svg-number.msportalfx-svg-disabled .fxs-svg-text{fill:#949494}.fxs-theme-dark .fxs-svg-number .fxs-svg-text{fill:#0f0f0f}.fxs-theme-dark .fxs-svg-number .fxs-svg-circle{stroke-width:0%;fill:#0078d4}.fxs-theme-dark .fxs-svg-number.msportalfx-svg-disabled .fxs-svg-circle{fill:#0f0f0f;stroke-width:1px;stroke:#949494}.fxs-theme-dark .fxs-svg-number.msportalfx-svg-disabled .fxs-svg-text{fill:#949494}</style></svg>