<svg fill="none" viewBox="0 0 15 15" class="msportalfx-svg-placeholder" xmlns="http://www.w3.org/2000/svg"><title>Scaling plan</title><desc>Before creating a scaling plan you must first ensure that Azure Virtual Desktop has the required permissions to read information about and manage the power state of the VMs in your subscription using an RBAC role. Click the &amp;#39;Learn More&amp;#39; link below to learn more.</desc><path fill="url(#pUsNmDY68__a)" d="M14.15 5.048V.98A.146.146 0 0 0 14 .833H9.935a.146.146 0 0 0-.103.25l1.12 1.121.075.074a.15.15 0 0 1 0 .208L6.12 7.39a.15.15 0 0 0 0 .207l1.264 1.264a.15.15 0 0 0 .208 0L12.5 3.957a.146.146 0 0 1 .208 0l.074.074L13.9 5.15a.146.146 0 0 0 .25-.103" /><path fill="#B3B3B3" d="M11.162 7.814v2.978a.34.34 0 0 1-.342.342H4.022a.34.34 0 0 1-.342-.342V4.375a.34.34 0 0 1 .342-.342h3.406a.19.19 0 0 0 .188-.187V3.13a.19.19 0 0 0-.188-.188h-4.5a.343.343 0 0 0-.341.343v8.597a.34.34 0 0 0 .341.341h8.981a.34.34 0 0 0 .343-.341V7.814a.187.187 0 0 0-.189-.187h-.714a.187.187 0 0 0-.187.187" /><path fill="#76BC2D" d="M13.94 13.308h-.86v.859h.86zm-1.734.859h-.873v-.859h.875zm-1.75 0h-.873v-.859h.874zm-1.75 0h-.873v-.859h.875zm-1.75 0h-.873v-.859h.874zm-1.75 0h-.873v-.859h.875zm-1.75 0h-.873v-.859h.875zm-1.748-.859H.85v.859h.858zm0-.875H.85v-.874h.858zm0-1.75H.85v-.875h.858zm0-1.75H.85V8.06h.858zm0-1.75H.85V6.31h.858zm0-1.75H.85v-.872h.858zm0-1.75H.85v-.872h.858zm0-2.605H.85v.859h.858zm5.249.859h-.874v-.859h.874zm-1.75 0h-.874v-.859h.875zm-1.75 0h-.874v-.859h.875zm10.481 10.496h-.855v-.874h.858zm0-1.75h-.855v-.875h.858zm0-1.75h-.855V8.06h.858z" /><defs><linearGradient id="pUsNmDY68__a" x1="8.148" x2="12.553" y1="-1.101" y2="10.857" gradientUnits="userSpaceOnUse"><stop stop-color="#6BB9F2" /><stop offset="1" stop-color="#1B93EB" /></linearGradient></defs><style>.msportalfx-svg-c01{fill:#fff}.msportalfx-svg-c02{fill:#e5e5e5}.msportalfx-svg-c03{fill:#a0a1a2}.msportalfx-svg-c04{fill:#7a7a7a}.msportalfx-svg-c05{fill:#3e3e3e}.msportalfx-svg-c06{fill:#1e1e1e}.msportalfx-svg-c07{fill:#0f0f0f}.msportalfx-svg-c08{fill:#ba141a}.msportalfx-svg-c09{fill:#dd5900}.msportalfx-svg-c10{fill:#ff8c00}.msportalfx-svg-c11{fill:#fcd116}.msportalfx-svg-c12{fill:#fee087}.msportalfx-svg-c13{fill:#b8d432}.msportalfx-svg-c14,.msportalfx-svg-c32{fill:#57a300}.msportalfx-svg-c15{fill:#59b4d9}.msportalfx-svg-c16{fill:#3999c6}.msportalfx-svg-c17{fill:#804998}.msportalfx-svg-c18{fill:#ec008c}.msportalfx-svg-c19{fill:#0072c6}.msportalfx-svg-c20{fill:#68217a}.msportalfx-svg-c21{fill:#00188f}.msportalfx-svg-c22{fill:#e81123}.fxs-mode-light .msportalfx-svg-c22{fill:#a4262c}.msportalfx-svg-c23{fill:#cae3f3}.msportalfx-svg-c24{fill:#59aed3}.msportalfx-svg-c25{fill:#4c3b12}.msportalfx-svg-c26{fill:#be9555}.msportalfx-svg-c27{fill:#4f4d52}.msportalfx-svg-c28{fill:#ef6f59}.msportalfx-svg-c29{fill:#f7cb64}.msportalfx-svg-c30{fill:#fdd8db}.msportalfx-svg-c31{fill:#f6ffec}.msportalfx-svg-c33{fill:#8a2da5}.msportalfx-svg-c34{fill:#e00b1c}.msportalfx-svg-c35{fill:#015cda}.msportalfx-svg-c36{fill:#5db300}.msportalfx-svg-c97{fill:#ffb900}.msportalfx-svg-c98{fill:#00a4ef}.msportalfx-svg-c99{fill:#f25022}.msportalfx-inverted-theme .msportalfx-svg-c05,.fxs-theme-dark .msportalfx-svg-c05{fill:#777}.msportalfx-inverted-theme .msportalfx-svg-c07,.fxs-theme-dark .msportalfx-svg-c07{fill:#f2f2f2}.msportalfx-svg-palette-white{fill:#fff}.msportalfx-svg-palette-blue{fill:#015cda}.msportalfx-svg-palette-black{fill:#1e1e1e}.msportalfx-svg-palette-green{fill:#57a300}.msportalfx-svg-palette-gray{fill:#a0a1a2}.msportalfx-svg-palette-inherit{fill:inherit}.msportalfx-svg-badge{position:absolute;left:0;bottom:0;min-height:10px;min-width:10px}.fxc-menu-icon&gt;.msportalfx-svg-badge{left:-2px;bottom:-2px;min-height:8px;min-width:8px}.msportalfx-svg-disabled{filter:grayscale(100%)}.msportalfx-svg-loading-square{animation:ProgressFlagAnimation 1.45s infinite ease-in-out;transform-origin:50%}.msportalfx-svg-loading-square:nth-child(1){animation-delay:0s}.msportalfx-svg-loading-square:nth-child(2){animation-delay:.2s}.msportalfx-svg-loading-square:nth-child(3){animation-delay:.4s}@keyframes ProgressFlagAnimation{0%{transform:scale(1);opacity:.3}36.1%{transform:scale(1.06);opacity:1}50%{transform:scale(1.06);opacity:1}86.1%{transform:scale(1);opacity:.3}}.msportalfx-svg-flip-horizontal&gt;svg,svg.msportalfx-svg-flip-horizontal{transform:scaleX(-1)}.msportalfx-svg-fabric-rotate360{animation:ImageRotation 1.3s cubic-bezier(.53,.21,.29,.67) infinite}@keyframes ImageRotation{0%{transform:rotate(-45deg)}100%{transform:rotate(315deg)}}.fxs-svg-number .msportalfx-font-bold{font-size:10px;fill:#0065ad}.fxs-svg-number .fxs-svg-circle{stroke-width:0%;fill:#0078d4}.fxs-svg-number .fxs-svg-text{fill:#fff;font-size:10px}.fxs-svg-number.msportalfx-svg-disabled{filter:grayscale(0%)}.fxs-svg-number.msportalfx-svg-disabled .fxs-svg-circle{fill:#fff;stroke-width:1px;stroke:#949494}.fxs-svg-number.msportalfx-svg-disabled .fxs-svg-text{fill:#949494}.fxs-theme-dark .fxs-svg-number .fxs-svg-text{fill:#0f0f0f}.fxs-theme-dark .fxs-svg-number .fxs-svg-circle{stroke-width:0%;fill:#0078d4}.fxs-theme-dark .fxs-svg-number.msportalfx-svg-disabled .fxs-svg-circle{fill:#0f0f0f;stroke-width:1px;stroke:#949494}.fxs-theme-dark .fxs-svg-number.msportalfx-svg-disabled .fxs-svg-text{fill:#949494}</style></svg>