<svg fill="none" viewBox="0 0 40 40" class="msportalfx-svg-placeholder" xmlns='http://www.w3.org/2000/svg'><path fill="#773ADC" d="M19.956 1.667c.3 0 .595.077.855.229l14.447 8.295c.53.305.862.876.862 1.489v16.624c0 .612-.329 1.18-.858 1.487L20.86 38.107a1.7 1.7 0 0 1-.858.229c-.3 0-.598-.08-.858-.23L4.742 29.792a1.72 1.72 0 0 1-.858-1.487v-16.63c0-.612.33-1.18.858-1.487l14.356-8.291a1.7 1.7 0 0 1 .858-.23m0-1.667c-.585 0-1.167.151-1.692.453L3.907 8.743a3.38 3.38 0 0 0-1.691 2.928v16.631c0 1.21.644 2.325 1.69 2.93l14.403 8.315a3.38 3.38 0 0 0 3.382 0l14.402-8.316a3.38 3.38 0 0 0 1.691-2.929V11.678a3.39 3.39 0 0 0-1.697-2.934L21.64.45A3.4 3.4 0 0 0 19.956 0"/><path fill="url(#p68pL5bfu__a)" d="M10.771 22.356a2.983 2.983 0 1 0 .001 5.965 2.983 2.983 0 0 0 0-5.966m17.851 0a2.983 2.983 0 1 0 .001 5.965 2.983 2.983 0 0 0 0-5.966m-8.92-15.851a2.983 2.983 0 1 0 .001 5.966 2.983 2.983 0 0 0 0-5.966"/><path fill="url(#p68pL5bfu__b)" d="M14.449 20.678a5.97 5.97 0 0 1 2.144 3.45.434.434 0 0 0 .436.339h5.353c.031 0 .06-.011.091-.02.016-.005.031-.005.047-.011a.5.5 0 0 0 .091-.054c.011-.009.025-.013.036-.022a.5.5 0 0 0 .075-.084c.007-.01.016-.016.022-.027a.4.4 0 0 0 .058-.14 5.97 5.97 0 0 1 2.16-3.467.433.433 0 0 0 .114-.58l-1.614-2.838-.01.007-1.152-2.007a.44.44 0 0 0-.549-.177 6.2 6.2 0 0 1-2.015.37 5.7 5.7 0 0 1-2.08-.37.45.45 0 0 0-.55.209l-2.773 4.837a.45.45 0 0 0 .114.58zm.613-7.516a5.9 5.9 0 0 1-1.322-3.677h-3.16a.44.44 0 0 0-.387.226l-4.095 7.047a.45.45 0 0 0 0 .45l1.5 2.58c.12.21.378.292.595.194a5.8 5.8 0 0 1 2.58-.595q.324-.024.645 0a.5.5 0 0 0 .45-.227l1.274-2.178 1.92-3.322a.43.43 0 0 0 0-.498m18.316 3.905a.5.5 0 0 0-.06-.23l-4-7.126a.44.44 0 0 0-.387-.226h-3.224a5.92 5.92 0 0 1-1.258 3.66.44.44 0 0 0 0 .5l1.442 2.488.485.838 1.273 2.21q.034.06.084.106a.45.45 0 0 0 .376.129h.613c.34 0 .678.042 1.014.1.506.1.995.262 1.486.497.2.127.467.07.596-.129l1.273-2.193.338-.595q-.027-.017-.053-.03zm-8.091 13.17a5.94 5.94 0 0 1-2.258-2.901.45.45 0 0 0-.436-.291h-5.789a.45.45 0 0 0-.435.29 5.87 5.87 0 0 1-2.242 2.887.466.466 0 0 0-.145.614l1.274 2.193a.47.47 0 0 0 .386.227h8.145a.46.46 0 0 0 .386-.227l1.258-2.178a.453.453 0 0 0-.144-.613"/><defs><radialGradient id="p68pL5bfu__a" cx="0" cy="0" r="1" gradientTransform="translate(20.05 19.967)scale(16.0917)" gradientUnits="userSpaceOnUse"><stop offset=".389" stop-color="#A67AF4"/><stop offset="1" stop-color="#773ADC"/></radialGradient><radialGradient id="p68pL5bfu__b" cx="0" cy="0" r="1" gradientTransform="translate(19.885 20.039)scale(12.8225)" gradientUnits="userSpaceOnUse"><stop stop-color="#5EA0EF"/><stop offset="1" stop-color="#0078D4"/></radialGradient></defs><style>.msportalfx-svg-c01{fill:#fff}.msportalfx-svg-c02{fill:#e5e5e5}.msportalfx-svg-c03{fill:#a0a1a2}.msportalfx-svg-c04{fill:#7a7a7a}.msportalfx-svg-c05{fill:#3e3e3e}.msportalfx-svg-c06{fill:#1e1e1e}.msportalfx-svg-c07{fill:#0f0f0f}.msportalfx-svg-c08{fill:#ba141a}.msportalfx-svg-c09{fill:#dd5900}.msportalfx-svg-c10{fill:#ff8c00}.msportalfx-svg-c11{fill:#fcd116}.msportalfx-svg-c12{fill:#fee087}.msportalfx-svg-c13{fill:#b8d432}.msportalfx-svg-c14,.msportalfx-svg-c32{fill:#57a300}.msportalfx-svg-c15{fill:#59b4d9}.msportalfx-svg-c16{fill:#3999c6}.msportalfx-svg-c17{fill:#804998}.msportalfx-svg-c18{fill:#ec008c}.msportalfx-svg-c19{fill:#0072c6}.msportalfx-svg-c20{fill:#68217a}.msportalfx-svg-c21{fill:#00188f}.msportalfx-svg-c22{fill:#e81123}.fxs-mode-light .msportalfx-svg-c22{fill:#a4262c}.msportalfx-svg-c23{fill:#cae3f3}.msportalfx-svg-c24{fill:#59aed3}.msportalfx-svg-c25{fill:#4c3b12}.msportalfx-svg-c26{fill:#be9555}.msportalfx-svg-c27{fill:#4f4d52}.msportalfx-svg-c28{fill:#ef6f59}.msportalfx-svg-c29{fill:#f7cb64}.msportalfx-svg-c30{fill:#fdd8db}.msportalfx-svg-c31{fill:#f6ffec}.msportalfx-svg-c33{fill:#8a2da5}.msportalfx-svg-c34{fill:#e00b1c}.msportalfx-svg-c35{fill:#015cda}.msportalfx-svg-c36{fill:#5db300}.msportalfx-svg-c97{fill:#ffb900}.msportalfx-svg-c98{fill:#00a4ef}.msportalfx-svg-c99{fill:#f25022}.msportalfx-inverted-theme .msportalfx-svg-c05,.fxs-theme-dark .msportalfx-svg-c05{fill:#777}.msportalfx-inverted-theme .msportalfx-svg-c07,.fxs-theme-dark .msportalfx-svg-c07{fill:#f2f2f2}.msportalfx-svg-palette-white{fill:#fff}.msportalfx-svg-palette-blue{fill:#015cda}.msportalfx-svg-palette-black{fill:#1e1e1e}.msportalfx-svg-palette-green{fill:#57a300}.msportalfx-svg-palette-gray{fill:#a0a1a2}.msportalfx-svg-palette-inherit{fill:inherit}.msportalfx-svg-badge{position:absolute;left:0;bottom:0;min-height:10px;min-width:10px}.fxc-menu-icon>.msportalfx-svg-badge{left:-2px;bottom:-2px;min-height:8px;min-width:8px}.msportalfx-svg-disabled{filter:grayscale(100%)}.msportalfx-svg-loading-square{animation:ProgressFlagAnimation 1.45s infinite ease-in-out;transform-origin:50%}.msportalfx-svg-loading-square:nth-child(1){animation-delay:0s}.msportalfx-svg-loading-square:nth-child(2){animation-delay:.2s}.msportalfx-svg-loading-square:nth-child(3){animation-delay:.4s}@keyframes ProgressFlagAnimation{0%{transform:scale(1);opacity:.3}36.1%{transform:scale(1.06);opacity:1}50%{transform:scale(1.06);opacity:1}86.1%{transform:scale(1);opacity:.3}}.msportalfx-svg-flip-horizontal>svg,svg.msportalfx-svg-flip-horizontal{transform:scaleX(-1)}.msportalfx-svg-fabric-rotate360{animation:ImageRotation 1.3s cubic-bezier(.53,.21,.29,.67) infinite}@keyframes ImageRotation{0%{transform:rotate(-45deg)}100%{transform:rotate(315deg)}}.fxs-svg-number .msportalfx-font-bold{font-size:10px;fill:#0065ad}.fxs-svg-number .fxs-svg-circle{stroke-width:0%;fill:#0078d4}.fxs-svg-number .fxs-svg-text{fill:#fff;font-size:10px}.fxs-svg-number.msportalfx-svg-disabled{filter:grayscale(0%)}.fxs-svg-number.msportalfx-svg-disabled .fxs-svg-circle{fill:#fff;stroke-width:1px;stroke:#949494}.fxs-svg-number.msportalfx-svg-disabled .fxs-svg-text{fill:#949494}.fxs-theme-dark .fxs-svg-number .fxs-svg-text{fill:#0f0f0f}.fxs-theme-dark .fxs-svg-number .fxs-svg-circle{stroke-width:0%;fill:#0078d4}.fxs-theme-dark .fxs-svg-number.msportalfx-svg-disabled .fxs-svg-circle{fill:#0f0f0f;stroke-width:1px;stroke:#949494}.fxs-theme-dark .fxs-svg-number.msportalfx-svg-disabled .fxs-svg-text{fill:#949494}</style></svg>