<svg fill="none" viewBox="0 0 40 40" class="msportalfx-svg-placeholder" xmlns="http://www.w3.org/2000/svg"><title>Azure HDInsight on AKS cluster pool</title><desc>Create an Azure HDInsight on AKS cluster pool to organize your HDInsight on AKS clusters. You can have multiple clusters in the same cluster pool.</desc><g clip-path="url(#pobtz8mst__a)"><path fill="#773ADC" d="M19.913 8.096c.196 0 .39.05.558.148l9.427 5.414c.346.2.562.57.562.97v10.85c0 .398-.213.77-.56.969l-9.398 5.426a1.12 1.12 0 0 1-1.12-.002l-9.398-5.426c-.344-.2-.56-.572-.56-.97v-10.85c0-.398.214-.772.56-.97l9.37-5.408c.168-.098.364-.15.56-.15m0-1.086a2.2 2.2 0 0 0-1.105.296L9.44 12.716a2.21 2.21 0 0 0-1.104 1.91v10.852a2.2 2.2 0 0 0 1.104 1.91l9.398 5.428a2.2 2.2 0 0 0 1.104.295c.382 0 .762-.098 1.105-.295l9.397-5.427a2.21 2.21 0 0 0 1.105-1.911v-10.85a2.2 2.2 0 0 0-1.109-1.912l-9.427-5.414a2.2 2.2 0 0 0-1.1-.29" /><path fill="#A67AF4" d="M13.92 21.596a1.946 1.946 0 1 0-.001 3.892 1.946 1.946 0 0 0 .001-3.892m5.829-10.345a1.946 1.946 0 1 0-.001 3.892 1.946 1.946 0 0 0 0-3.892m5.818 10.345a1.946 1.946 0 1 0-.001 3.892 1.946 1.946 0 0 0 0-3.892" /><path fill="#0078D4" d="M16.32 20.502a3.9 3.9 0 0 1 1.4 2.251.284.284 0 0 0 .284.22h3.494q.03-.001.06-.013.015-.001.03-.007c.023-.009.04-.022.06-.033l.023-.013c.02-.016.033-.036.049-.056l.016-.018a.3.3 0 0 0 .037-.09 3.9 3.9 0 0 1 1.41-2.263.283.283 0 0 0 .073-.378l-1.054-1.85q-.002 0-.006.004l-.752-1.31a.285.285 0 0 0-.357-.115 4.1 4.1 0 0 1-1.316.242 3.7 3.7 0 0 1-1.358-.242.29.29 0 0 0-.357.138l-1.81 3.158a.29.29 0 0 0 .074.377zm.4-4.904a3.83 3.83 0 0 1-.862-2.4h-2.062a.29.29 0 0 0-.254.146l-2.673 4.598a.29.29 0 0 0 0 .296l.978 1.684a.305.305 0 0 0 .389.127 3.8 3.8 0 0 1 1.684-.389q.21-.016.42 0a.33.33 0 0 0 .296-.147l.83-1.42 1.252-2.166a.28.28 0 0 0 0-.327zm11.951 2.549a.3.3 0 0 0-.04-.15l-2.609-4.65a.28.28 0 0 0-.253-.147h-2.105c0 .867-.286 1.707-.82 2.389a.28.28 0 0 0 0 .326l.943 1.625.315.547.831 1.442a.4.4 0 0 0 .056.071.3.3 0 0 0 .244.084h.4c.223 0 .443.027.66.065.331.064.65.171.971.324a.285.285 0 0 0 .39-.084l.83-1.431.22-.39zm-5.28 8.595a3.87 3.87 0 0 1-1.473-1.893.29.29 0 0 0-.285-.189h-3.777a.3.3 0 0 0-.285.189 3.85 3.85 0 0 1-1.462 1.884.305.305 0 0 0-.096.4l.831 1.431a.3.3 0 0 0 .254.147h5.313a.3.3 0 0 0 .253-.147l.82-1.42a.294.294 0 0 0-.095-.4z" /><path fill="#949494" d="M0 34.638c0 .138.073.264.191.333l2.713 1.574 4.612 2.666a.374.374 0 0 0 .513-.133l1.555-2.702a.39.39 0 0 0-.14-.525L4.05 32.74a.37.37 0 0 1-.191-.331V7.604c0-.137.07-.264.19-.33l5.396-3.132a.39.39 0 0 0 .14-.522L8.034.92a.38.38 0 0 0-.518-.144L2.998 3.4.19 5.029A.39.39 0 0 0 0 5.36z" /><path fill="#A3A3A3" d="M9.587 3.62 8.036.92a.38.38 0 0 0-.387-.187.36.36 0 0 0-.191.047L2.942 3.4.136 5.029A.4.4 0 0 0 0 5.162l.044.027A.36.36 0 0 0 0 5.36l3.864 2.244a.37.37 0 0 1 .192-.33l5.39-3.132a.39.39 0 0 0 .14-.522m.001 32.762-1.556 2.7a.38.38 0 0 1-.387.187.36.36 0 0 1-.19-.047L2.937 36.6.136 34.973A.4.4 0 0 1 0 34.838l.044-.025A.4.4 0 0 1 0 34.64l3.864-2.242c0 .138.072.264.192.33l5.39 3.13c.183.109.243.34.14.524" /><path fill="#949494" d="M40 5.362a.39.39 0 0 0-.191-.333l-2.713-1.573L32.48.78a.374.374 0 0 0-.513.133L30.41 3.616a.39.39 0 0 0 .14.524l5.391 3.129a.37.37 0 0 1 .191.331v24.796a.38.38 0 0 1-.19.33l-5.392 3.132a.39.39 0 0 0-.14.522l1.556 2.7a.38.38 0 0 0 .517.144l4.518-2.622 2.807-1.629a.38.38 0 0 0 .193-.333z" /><path fill="#A3A3A3" d="m30.409 36.38 1.555 2.7a.38.38 0 0 0 .387.187.36.36 0 0 0 .191-.047l4.516-2.62 2.806-1.629a.4.4 0 0 0 .136-.133l-.044-.027a.4.4 0 0 0 .044-.17l-3.864-2.245a.37.37 0 0 1-.192.33l-5.39 3.132a.387.387 0 0 0-.145.522m0-32.762 1.555-2.7a.38.38 0 0 1 .387-.187.36.36 0 0 1 .191.047L37.058 3.4l2.806 1.627q.085.051.136.135l-.044.025A.4.4 0 0 1 40 5.36l-3.869 2.242a.38.38 0 0 0-.191-.33l-5.391-3.13a.39.39 0 0 1-.14-.524" /></g><defs><clipPath id="pobtz8mst__a"><path fill="#fff" d="M0 0h40v40H0z" /></clipPath></defs><style>.msportalfx-svg-c01{fill:#fff}.msportalfx-svg-c02{fill:#e5e5e5}.msportalfx-svg-c03{fill:#a0a1a2}.msportalfx-svg-c04{fill:#7a7a7a}.msportalfx-svg-c05{fill:#3e3e3e}.msportalfx-svg-c06{fill:#1e1e1e}.msportalfx-svg-c07{fill:#0f0f0f}.msportalfx-svg-c08{fill:#ba141a}.msportalfx-svg-c09{fill:#dd5900}.msportalfx-svg-c10{fill:#ff8c00}.msportalfx-svg-c11{fill:#fcd116}.msportalfx-svg-c12{fill:#fee087}.msportalfx-svg-c13{fill:#b8d432}.msportalfx-svg-c14,.msportalfx-svg-c32{fill:#57a300}.msportalfx-svg-c15{fill:#59b4d9}.msportalfx-svg-c16{fill:#3999c6}.msportalfx-svg-c17{fill:#804998}.msportalfx-svg-c18{fill:#ec008c}.msportalfx-svg-c19{fill:#0072c6}.msportalfx-svg-c20{fill:#68217a}.msportalfx-svg-c21{fill:#00188f}.msportalfx-svg-c22{fill:#e81123}.fxs-mode-light .msportalfx-svg-c22{fill:#a4262c}.msportalfx-svg-c23{fill:#cae3f3}.msportalfx-svg-c24{fill:#59aed3}.msportalfx-svg-c25{fill:#4c3b12}.msportalfx-svg-c26{fill:#be9555}.msportalfx-svg-c27{fill:#4f4d52}.msportalfx-svg-c28{fill:#ef6f59}.msportalfx-svg-c29{fill:#f7cb64}.msportalfx-svg-c30{fill:#fdd8db}.msportalfx-svg-c31{fill:#f6ffec}.msportalfx-svg-c33{fill:#8a2da5}.msportalfx-svg-c34{fill:#e00b1c}.msportalfx-svg-c35{fill:#015cda}.msportalfx-svg-c36{fill:#5db300}.msportalfx-svg-c97{fill:#ffb900}.msportalfx-svg-c98{fill:#00a4ef}.msportalfx-svg-c99{fill:#f25022}.msportalfx-inverted-theme .msportalfx-svg-c05,.fxs-theme-dark .msportalfx-svg-c05{fill:#777}.msportalfx-inverted-theme .msportalfx-svg-c07,.fxs-theme-dark .msportalfx-svg-c07{fill:#f2f2f2}.msportalfx-svg-palette-white{fill:#fff}.msportalfx-svg-palette-blue{fill:#015cda}.msportalfx-svg-palette-black{fill:#1e1e1e}.msportalfx-svg-palette-green{fill:#57a300}.msportalfx-svg-palette-gray{fill:#a0a1a2}.msportalfx-svg-palette-inherit{fill:inherit}.msportalfx-svg-badge{position:absolute;left:0;bottom:0;min-height:10px;min-width:10px}.fxc-menu-icon&gt;.msportalfx-svg-badge{left:-2px;bottom:-2px;min-height:8px;min-width:8px}.msportalfx-svg-disabled{filter:grayscale(100%)}.msportalfx-svg-loading-square{animation:ProgressFlagAnimation 1.45s infinite ease-in-out;transform-origin:50%}.msportalfx-svg-loading-square:nth-child(1){animation-delay:0s}.msportalfx-svg-loading-square:nth-child(2){animation-delay:.2s}.msportalfx-svg-loading-square:nth-child(3){animation-delay:.4s}@keyframes ProgressFlagAnimation{0%{transform:scale(1);opacity:.3}36.1%{transform:scale(1.06);opacity:1}50%{transform:scale(1.06);opacity:1}86.1%{transform:scale(1);opacity:.3}}.msportalfx-svg-flip-horizontal&gt;svg,svg.msportalfx-svg-flip-horizontal{transform:scaleX(-1)}.msportalfx-svg-fabric-rotate360{animation:ImageRotation 1.3s cubic-bezier(.53,.21,.29,.67) infinite}@keyframes ImageRotation{0%{transform:rotate(-45deg)}100%{transform:rotate(315deg)}}.fxs-svg-number .msportalfx-font-bold{font-size:10px;fill:#0065ad}.fxs-svg-number .fxs-svg-circle{stroke-width:0%;fill:#0078d4}.fxs-svg-number .fxs-svg-text{fill:#fff;font-size:10px}.fxs-svg-number.msportalfx-svg-disabled{filter:grayscale(0%)}.fxs-svg-number.msportalfx-svg-disabled .fxs-svg-circle{fill:#fff;stroke-width:1px;stroke:#949494}.fxs-svg-number.msportalfx-svg-disabled .fxs-svg-text{fill:#949494}.fxs-theme-dark .fxs-svg-number .fxs-svg-text{fill:#0f0f0f}.fxs-theme-dark .fxs-svg-number .fxs-svg-circle{stroke-width:0%;fill:#0078d4}.fxs-theme-dark .fxs-svg-number.msportalfx-svg-disabled .fxs-svg-circle{fill:#0f0f0f;stroke-width:1px;stroke:#949494}.fxs-theme-dark .fxs-svg-number.msportalfx-svg-disabled .fxs-svg-text{fill:#949494}</style></svg>