<svg viewBox="0 0 403.053 97.267" class="msportalfx-svg-placeholder" xmlns="http://www.w3.org/2000/svg"><title>Azure Native Napster Companion API - An Azure Native ISV Service Cloud Service</title><desc>Build and deploy human-like AI agents with video, voice, and text across every channel - starting at 1&amp;#162;/min.</desc><path d="M242.246 70.45c-5.37 0-9.417-4.047-9.417-9.416 0-5.41 4.048-9.49 9.417-9.49 5.497 0 9.642 4.08 9.642 9.49 0 5.369-4.145 9.415-9.642 9.415m2.044-28.993c-5.441 0-10.228 2.544-12.194 6.478l-.498.996-.777-6.717h-10.123v55.055h10.77v-24.39l.628 1.255c1.966 3.937 6.753 6.48 12.194 6.48 10.47 0 18.367-8.416 18.367-19.579 0-11.161-7.897-19.578-18.367-19.578m38.082 39.157c8.01 0 16.095-3.479 16.095-11.252 0-5.462-3.713-9.297-11.35-11.723h-.003c-1.58-.515-2.93-.943-4.078-1.308-5.02-1.59-6.37-2.018-6.37-3.548 0-1.66 2.184-2.525 4.342-2.525 1.724 0 4.612.647 4.924 3.027h10.857c-.36-6.982-6.946-11.828-16.157-11.828-9.619 0-14.81 5.836-14.81 11.326 0 5.59 3.7 9.217 11.643 11.416q1.353.377 2.492.69c5.79 1.59 7.742 2.127 7.742 4.245 0 1.978-2.747 2.68-5.102 2.68-3.919 0-6.656-1.416-7.096-3.634h-10.805c.379 7.908 6.797 12.434 17.676 12.434m105.534-29.07c1.182 0 2.55.357 3.448.745l1.422-9.445c-1.028-.871-2.551-1.387-4.112-1.387-2.646 0-5.263 1.44-7.778 4.278l-.472.534-.591-4.055h-10.13v37.644h10.765V64.744c0-8.513 2.646-13.2 7.448-13.2m-61.353-9.33h-9.006V30.856h-10.77v11.356h-6.357V52.3h6.356v27.556h10.77V52.3h9.007zm11.94 14.836.028-.355c.255-3.336 3.641-5.757 8.05-5.757 4.988 0 7.827 2.895 8.05 5.755l.029.357zm26.9 4.514c0-11.65-7.915-20.108-18.822-20.108s-18.82 8.139-18.82 19.35c0 11.477 8.2 19.807 19.502 19.807 10.267 0 16.266-7.134 17.394-12.4l-9.36-1c-1.773 2.492-4.661 3.917-7.96 3.917-6.129 0-8.569-3.403-8.806-6.588l-.028-.355h26.9zM193.19 70.45c-5.498 0-9.644-4.046-9.644-9.415 0-5.41 4.146-9.49 9.644-9.49 5.367 0 9.415 4.08 9.415 9.49 0 5.369-4.048 9.415-9.415 9.415m11.423-28.236-.776 6.715-.497-.994c-1.968-3.934-6.724-6.478-12.12-6.478-10.514 0-18.442 8.417-18.442 19.578 0 11.163 7.928 19.58 18.442 19.58 5.395 0 10.152-2.544 12.12-6.481l.497-.994.776 6.718h10.124V42.213zm192.57 32.955h-1.035v-1.96h1.035c.399 0 1.064.128 1.064.987 0 .878-.744.973-1.064.973m2.293-.973c0-1.346-.9-2.214-2.293-2.214h-2.277v6.402h1.242v-1.986h.735l1.177 1.941.028.045h1.463l-1.399-2.155c.831-.313 1.324-1.064 1.324-2.033" /><path d="M397.011 80.066a4.795 4.795 0 0 1-4.791-4.791 4.797 4.797 0 0 1 4.791-4.793 4.8 4.8 0 0 1 4.794 4.793 4.797 4.797 0 0 1-4.794 4.791m0-10.812c-3.312 0-6.003 2.7-6.003 6.02 0 3.318 2.691 6.019 6.003 6.019 3.33 0 6.036-2.7 6.036-6.018 0-3.32-2.706-6.02-6.036-6.02M168.325 79.856v-53.09h-10.768v35.296L132.15 26.767h-10.93v53.09h10.769V44.563l25.407 35.294zM81.622 55.39c0 16.806-13.674 30.478-30.48 30.478s-30.48-13.672-30.48-30.478V28.9l.411.101c5.39 1.328 10.398 7.181 11.56 8.615 1.335-1.4 7.565-7.244 18.51-7.244 10.943 0 17.172 5.843 18.508 7.244 1.162-1.434 6.17-7.287 11.56-8.615l.411-.101zM29.02 19.728c5.844-5.865 13.908-9.228 22.122-9.228s16.279 3.363 22.121 9.228l.31.311-.384.212a41 41 0 0 0-4.582 2.945l-.163.122-.182-.091c-3.859-1.94-9.96-4.252-17.12-4.252s-13.261 2.313-17.12 4.252l-.182.091-.164-.122a41 41 0 0 0-4.582-2.945l-.385-.212zm58.3-3.417c-.909 0-1.853.055-2.808.164l-.185.022-.114-.148C76.368 6.113 64.005.003 51.143.003c-12.864 0-25.228 6.11-33.072 16.346l-.114.148-.186-.022c-.955-.109-1.9-.164-2.807-.164H9.266V26.75l-.19.09C3.563 29.457.002 35.067.002 41.136c0 6.072 3.565 11.685 9.083 14.3l.188.09.002.206c.186 22.902 18.968 41.536 41.868 41.536S92.824 78.634 93.01 55.732l.002-.207.188-.088c5.52-2.616 9.085-8.23 9.085-14.301 0-6.069-3.562-11.679-9.076-14.296l-.19-.09V16.311z" /><style>.msportalfx-svg-c01{fill:#fff}.msportalfx-svg-c02{fill:#e5e5e5}.msportalfx-svg-c03{fill:#a0a1a2}.msportalfx-svg-c04{fill:#7a7a7a}.msportalfx-svg-c05{fill:#3e3e3e}.msportalfx-svg-c06{fill:#1e1e1e}.msportalfx-svg-c07{fill:#0f0f0f}.msportalfx-svg-c08{fill:#ba141a}.msportalfx-svg-c09{fill:#dd5900}.msportalfx-svg-c10{fill:#ff8c00}.msportalfx-svg-c11{fill:#fcd116}.msportalfx-svg-c12{fill:#fee087}.msportalfx-svg-c13{fill:#b8d432}.msportalfx-svg-c14,.msportalfx-svg-c32{fill:#57a300}.msportalfx-svg-c15{fill:#59b4d9}.msportalfx-svg-c16{fill:#3999c6}.msportalfx-svg-c17{fill:#804998}.msportalfx-svg-c18{fill:#ec008c}.msportalfx-svg-c19{fill:#0072c6}.msportalfx-svg-c20{fill:#68217a}.msportalfx-svg-c21{fill:#00188f}.msportalfx-svg-c22{fill:#e81123}.fxs-mode-light .msportalfx-svg-c22{fill:#a4262c}.msportalfx-svg-c23{fill:#cae3f3}.msportalfx-svg-c24{fill:#59aed3}.msportalfx-svg-c25{fill:#4c3b12}.msportalfx-svg-c26{fill:#be9555}.msportalfx-svg-c27{fill:#4f4d52}.msportalfx-svg-c28{fill:#ef6f59}.msportalfx-svg-c29{fill:#f7cb64}.msportalfx-svg-c30{fill:#fdd8db}.msportalfx-svg-c31{fill:#f6ffec}.msportalfx-svg-c33{fill:#8a2da5}.msportalfx-svg-c34{fill:#e00b1c}.msportalfx-svg-c35{fill:#015cda}.msportalfx-svg-c36{fill:#5db300}.msportalfx-svg-c97{fill:#ffb900}.msportalfx-svg-c98{fill:#00a4ef}.msportalfx-svg-c99{fill:#f25022}.msportalfx-inverted-theme .msportalfx-svg-c05,.fxs-theme-dark .msportalfx-svg-c05{fill:#777}.msportalfx-inverted-theme .msportalfx-svg-c07,.fxs-theme-dark .msportalfx-svg-c07{fill:#f2f2f2}.msportalfx-svg-palette-white{fill:#fff}.msportalfx-svg-palette-blue{fill:#015cda}.msportalfx-svg-palette-black{fill:#1e1e1e}.msportalfx-svg-palette-green{fill:#57a300}.msportalfx-svg-palette-gray{fill:#a0a1a2}.msportalfx-svg-palette-inherit{fill:inherit}.msportalfx-svg-badge{position:absolute;left:0;bottom:0;min-height:10px;min-width:10px}.fxc-menu-icon&gt;.msportalfx-svg-badge{left:-2px;bottom:-2px;min-height:8px;min-width:8px}.msportalfx-svg-disabled{filter:grayscale(100%)}.msportalfx-svg-loading-square{animation:ProgressFlagAnimation 1.45s infinite ease-in-out;transform-origin:50%}.msportalfx-svg-loading-square:nth-child(1){animation-delay:0s}.msportalfx-svg-loading-square:nth-child(2){animation-delay:.2s}.msportalfx-svg-loading-square:nth-child(3){animation-delay:.4s}@keyframes ProgressFlagAnimation{0%{transform:scale(1);opacity:.3}36.1%{transform:scale(1.06);opacity:1}50%{transform:scale(1.06);opacity:1}86.1%{transform:scale(1);opacity:.3}}.msportalfx-svg-flip-horizontal&gt;svg,svg.msportalfx-svg-flip-horizontal{transform:scaleX(-1)}.msportalfx-svg-fabric-rotate360{animation:ImageRotation 1.3s cubic-bezier(.53,.21,.29,.67) infinite}@keyframes ImageRotation{0%{transform:rotate(-45deg)}100%{transform:rotate(315deg)}}.fxs-svg-number .msportalfx-font-bold{font-size:10px;fill:#0065ad}.fxs-svg-number .fxs-svg-circle{stroke-width:0%;fill:#0078d4}.fxs-svg-number .fxs-svg-text{fill:#fff;font-size:10px}.fxs-svg-number.msportalfx-svg-disabled{filter:grayscale(0%)}.fxs-svg-number.msportalfx-svg-disabled .fxs-svg-circle{fill:#fff;stroke-width:1px;stroke:#949494}.fxs-svg-number.msportalfx-svg-disabled .fxs-svg-text{fill:#949494}.fxs-theme-dark .fxs-svg-number .fxs-svg-text{fill:#0f0f0f}.fxs-theme-dark .fxs-svg-number .fxs-svg-circle{stroke-width:0%;fill:#0078d4}.fxs-theme-dark .fxs-svg-number.msportalfx-svg-disabled .fxs-svg-circle{fill:#0f0f0f;stroke-width:1px;stroke:#949494}.fxs-theme-dark .fxs-svg-number.msportalfx-svg-disabled .fxs-svg-text{fill:#949494}</style></svg>