<svg fill="none" viewBox="0 0 34 34" class="msportalfx-svg-placeholder" xmlns='http://www.w3.org/2000/svg'><g clip-path="url(#pcsD4FCXZ__a)"><path fill="url(#pcsD4FCXZ__b)" fill-rule="evenodd" d="m29.628 16.998-6.315-10.94H10.68l-6.315 10.94L10.68 27.94h12.633zm-15.464 4.907a5.667 5.667 0 0 0 5.666-9.815 5.667 5.667 0 0 0-5.666 9.815" clip-rule="evenodd"/><path fill="#32BEDD" d="m15.033 6.06-2.185 3.785-4.37.013 2.189-3.79zM6.544 13.2l2.185 3.785-2.174 3.79-2.189-3.79z"/><path fill="#9CEBFF" d="m15.031 6.06-4.368.011L8.489 2.28l4.37-.013zM6.544 13.2l-2.176 3.789-4.37-.014 2.174-3.792z"/><path fill="#50E6FF" d="M10.663 6.07 8.476 9.859l-2.174-3.79L8.49 2.28zM4.37 16.989l2.187 3.787-4.37-.011L0 16.977z"/><path fill="#76BC2D" d="M25.502 9.826h-4.37l-2.197-3.778h4.378zm1.948 10.965-2.185-3.785 2.174-3.791 2.189 3.79z"/><path fill="#86D633" d="m25.502 9.826-2.195-3.778 2.195-3.777 2.196 3.777L25.5 9.826zm1.947 10.965 2.175-3.789 4.37.013-2.173 3.793-4.372-.015z"/><path fill="#B4EC36" d="M23.309 6.048h-4.372l2.196-3.777h4.372l-2.194 3.777zm6.315 10.954-2.187-3.787 4.37.013 2.187 3.787z"/><path fill="#0078D4" d="M8.504 24.146h4.37l2.197 3.778h-4.378zm10.459 3.785 2.185-3.785 4.37-.014-2.188 3.791z"/><path fill="#5EA0EF" d="m8.506 24.146 2.195 3.778-2.197 3.78-2.196-3.78zm10.457 3.785 4.368-.011 2.174 3.79-4.37.014z"/><path fill="#83B9F9" d="M10.699 27.925h4.372l-2.197 3.78H8.503zm12.634-.005 2.187-3.788 2.174 3.791-2.187 3.788z"/></g><defs><linearGradient id="pcsD4FCXZ__b" x1="16.995" x2="16.995" y1="6.862" y2="31.333" gradientUnits="userSpaceOnUse"><stop stop-color="#005BA1"/><stop offset="1" stop-color="#003067"/></linearGradient><clipPath id="pcsD4FCXZ__a"><path fill="#fff" d="M0 0h34v34H0z"/></clipPath></defs><style>.msportalfx-svg-c01{fill:#fff}.msportalfx-svg-c02{fill:#e5e5e5}.msportalfx-svg-c03{fill:#a0a1a2}.msportalfx-svg-c04{fill:#7a7a7a}.msportalfx-svg-c05{fill:#3e3e3e}.msportalfx-svg-c06{fill:#1e1e1e}.msportalfx-svg-c07{fill:#0f0f0f}.msportalfx-svg-c08{fill:#ba141a}.msportalfx-svg-c09{fill:#dd5900}.msportalfx-svg-c10{fill:#ff8c00}.msportalfx-svg-c11{fill:#fcd116}.msportalfx-svg-c12{fill:#fee087}.msportalfx-svg-c13{fill:#b8d432}.msportalfx-svg-c14,.msportalfx-svg-c32{fill:#57a300}.msportalfx-svg-c15{fill:#59b4d9}.msportalfx-svg-c16{fill:#3999c6}.msportalfx-svg-c17{fill:#804998}.msportalfx-svg-c18{fill:#ec008c}.msportalfx-svg-c19{fill:#0072c6}.msportalfx-svg-c20{fill:#68217a}.msportalfx-svg-c21{fill:#00188f}.msportalfx-svg-c22{fill:#e81123}.fxs-mode-light .msportalfx-svg-c22{fill:#a4262c}.msportalfx-svg-c23{fill:#cae3f3}.msportalfx-svg-c24{fill:#59aed3}.msportalfx-svg-c25{fill:#4c3b12}.msportalfx-svg-c26{fill:#be9555}.msportalfx-svg-c27{fill:#4f4d52}.msportalfx-svg-c28{fill:#ef6f59}.msportalfx-svg-c29{fill:#f7cb64}.msportalfx-svg-c30{fill:#fdd8db}.msportalfx-svg-c31{fill:#f6ffec}.msportalfx-svg-c33{fill:#8a2da5}.msportalfx-svg-c34{fill:#e00b1c}.msportalfx-svg-c35{fill:#015cda}.msportalfx-svg-c36{fill:#5db300}.msportalfx-svg-c97{fill:#ffb900}.msportalfx-svg-c98{fill:#00a4ef}.msportalfx-svg-c99{fill:#f25022}.msportalfx-inverted-theme .msportalfx-svg-c05,.fxs-theme-dark .msportalfx-svg-c05{fill:#777}.msportalfx-inverted-theme .msportalfx-svg-c07,.fxs-theme-dark .msportalfx-svg-c07{fill:#f2f2f2}.msportalfx-svg-palette-white{fill:#fff}.msportalfx-svg-palette-blue{fill:#015cda}.msportalfx-svg-palette-black{fill:#1e1e1e}.msportalfx-svg-palette-green{fill:#57a300}.msportalfx-svg-palette-gray{fill:#a0a1a2}.msportalfx-svg-palette-inherit{fill:inherit}.msportalfx-svg-badge{position:absolute;left:0;bottom:0;min-height:10px;min-width:10px}.fxc-menu-icon>.msportalfx-svg-badge{left:-2px;bottom:-2px;min-height:8px;min-width:8px}.msportalfx-svg-disabled{filter:grayscale(100%)}.msportalfx-svg-loading-square{animation:ProgressFlagAnimation 1.45s infinite ease-in-out;transform-origin:50%}.msportalfx-svg-loading-square:nth-child(1){animation-delay:0s}.msportalfx-svg-loading-square:nth-child(2){animation-delay:.2s}.msportalfx-svg-loading-square:nth-child(3){animation-delay:.4s}@keyframes ProgressFlagAnimation{0%{transform:scale(1);opacity:.3}36.1%{transform:scale(1.06);opacity:1}50%{transform:scale(1.06);opacity:1}86.1%{transform:scale(1);opacity:.3}}.msportalfx-svg-flip-horizontal>svg,svg.msportalfx-svg-flip-horizontal{transform:scaleX(-1)}.msportalfx-svg-fabric-rotate360{animation:ImageRotation 1.3s cubic-bezier(.53,.21,.29,.67) infinite}@keyframes ImageRotation{0%{transform:rotate(-45deg)}100%{transform:rotate(315deg)}}.fxs-svg-number .msportalfx-font-bold{font-size:10px;fill:#0065ad}.fxs-svg-number .fxs-svg-circle{stroke-width:0%;fill:#0078d4}.fxs-svg-number .fxs-svg-text{fill:#fff;font-size:10px}.fxs-svg-number.msportalfx-svg-disabled{filter:grayscale(0%)}.fxs-svg-number.msportalfx-svg-disabled .fxs-svg-circle{fill:#fff;stroke-width:1px;stroke:#949494}.fxs-svg-number.msportalfx-svg-disabled .fxs-svg-text{fill:#949494}.fxs-theme-dark .fxs-svg-number .fxs-svg-text{fill:#0f0f0f}.fxs-theme-dark .fxs-svg-number .fxs-svg-circle{stroke-width:0%;fill:#0078d4}.fxs-theme-dark .fxs-svg-number.msportalfx-svg-disabled .fxs-svg-circle{fill:#0f0f0f;stroke-width:1px;stroke:#949494}.fxs-theme-dark .fxs-svg-number.msportalfx-svg-disabled .fxs-svg-text{fill:#949494}</style></svg>