<svg viewBox="0 0 18 18" class="msportalfx-svg-placeholder"><defs><linearGradient id="pAYBcr8TU__a" x1="8.916" x2="9.023" y1="-.064" y2="13.92" gradientTransform="matrix(1 0 0 -1 0 20)" gradientUnits="userSpaceOnUse"><stop offset="0" stop-color="#005ba1"/><stop offset="1" stop-color="#003067"/></linearGradient><linearGradient id="pAYBcr8TU__b" x1="13.313" x2="13.313" y1="-.5" y2="18.667" gradientTransform="matrix(1 0 0 -1 0 20)" gradientUnits="userSpaceOnUse"><stop offset="0" stop-color="#83b9f9"/><stop offset=".524" stop-color="#5ea0ef"/><stop offset="1" stop-color="#0078d4"/></linearGradient><linearGradient id="pAYBcr8TU__c" x1="12.864" x2="12.864" y1="-.5" y2="18.667" gradientTransform="matrix(1 0 0 -1 0 20)" gradientUnits="userSpaceOnUse"><stop offset="0" stop-color="#83b9f9"/><stop offset=".524" stop-color="#5ea0ef"/><stop offset="1" stop-color="#0078d4"/></linearGradient><linearGradient id="pAYBcr8TU__d" x1="9" x2="9" y1="2.375" y2="18.187" gradientTransform="matrix(1 0 0 -1 0 20)" gradientUnits="userSpaceOnUse"><stop offset="0" stop-color="#0078d4"/><stop offset="1" stop-color="#005ba1"/></linearGradient><linearGradient id="pAYBcr8TU__e" x1="9" x2="9" y1="2.375" y2="18.187" gradientTransform="matrix(1 0 0 -1 0 20)" gradientUnits="userSpaceOnUse"><stop offset="0" stop-color="#0078d4"/><stop offset="1" stop-color="#005ba1"/></linearGradient><linearGradient id="pAYBcr8TU__f" x1="10.67" x2="10.67" y1="9.105" y2="5.897" gradientTransform="matrix(1 0 0 -1 0 20)" gradientUnits="userSpaceOnUse"><stop offset="0" stop-color="#86d633"/><stop offset=".999" stop-color="#76bc2d"/></linearGradient><linearGradient id="pAYBcr8TU__g" x1="7.286" x2="7.286" y1="15.571" y2="12.363" gradientTransform="matrix(1 0 0 -1 0 20)" gradientUnits="userSpaceOnUse"><stop offset="0" stop-color="#86d633"/><stop offset=".999" stop-color="#76bc2d"/></linearGradient></defs><path fill="url(#pAYBcr8TU__a)" d="M17.625 9A8.625 8.625 0 0 0 1.273 5.164l3.843-.011a2.285 2.285 0 0 1 4.402-.012l2.838-.008a.6.6 0 0 1 .004 1.198l-2.832.008a2.285 2.285 0 0 1-4.415.012l-4.327.012A8.6 8.6 0 0 0 .376 9a8.625 8.625 0 0 0 16.353 3.833h-3.858a2.251 2.251 0 0 1-4.334 0H5.643a.599.599 0 1 1 0-1.198h2.888a2.25 2.25 0 0 1 4.346 0h4.339c.266-.831.41-1.716.41-2.635Z"/><path fill="url(#pAYBcr8TU__b)" d="M9 .375A8.627 8.627 0 0 1 17.625 9c0 .903-.142 1.791-.413 2.635h-4.336a2.25 2.25 0 0 0-3.877-.882V7.304c.248-.27.432-.599.528-.965l2.832-.008a.598.598 0 1 0-.004-1.198l-2.838.008a2.3 2.3 0 0 0-.518-.929V.375Z"/><path fill="url(#pAYBcr8TU__c)" d="M9 13.695v3.93a8.63 8.63 0 0 0 7.727-4.792h-3.856A2.251 2.251 0 0 1 9 13.694Z"/><path fill="url(#pAYBcr8TU__d)" d="M5.047 12.17V6.351h.066a2.285 2.285 0 0 0 4.415-.013l2.832-.008a.6.6 0 0 0 .593-.53v5.834h-.077a2.25 2.25 0 0 0-4.346 0H5.642a.6.6 0 0 0-.596.535Z"/><path fill="url(#pAYBcr8TU__e)" d="M5.047 12.299v1.373a3.953 3.953 0 0 0 7.906 0v-.839h-.083a2.251 2.251 0 0 1-4.334 0H5.642a.6.6 0 0 1-.596-.535Z"/><path fill="#5ea0ef" d="M12.956 5.766h4.042a8.627 8.627 0 0 0-15.725-.602l3.843-.011a2.285 2.285 0 0 1 4.402-.012l2.838-.008a.6.6 0 0 1 .601.597z"/><path fill="#abcffa" d="M9 4.212V.375c3.62 0 6.719 2.23 7.998 5.391h-4.042v-.035a.6.6 0 0 0-.601-.597l-2.838.008a2.3 2.3 0 0 0-.518-.929Z"/><path fill="#83b9f9" d="M9 .375a3.953 3.953 0 0 0-3.953 3.953v.825h.069a2.285 2.285 0 0 1 4.402-.012l2.838-.008a.6.6 0 0 1 .597.53V4.328A3.953 3.953 0 0 0 9 .375"/><circle cx="10.67" cy="12.224" r="1.434" fill="url(#pAYBcr8TU__f)"/><circle cx="7.286" cy="5.758" r="1.434" fill="url(#pAYBcr8TU__g)"/><style>.msportalfx-svg-c01{fill:#fff}.msportalfx-svg-c02{fill:#e5e5e5}.msportalfx-svg-c03{fill:#a0a1a2}.msportalfx-svg-c04{fill:#7a7a7a}.msportalfx-svg-c05{fill:#3e3e3e}.msportalfx-svg-c06{fill:#1e1e1e}.msportalfx-svg-c07{fill:#0f0f0f}.msportalfx-svg-c08{fill:#ba141a}.msportalfx-svg-c09{fill:#dd5900}.msportalfx-svg-c10{fill:#ff8c00}.msportalfx-svg-c11{fill:#fcd116}.msportalfx-svg-c12{fill:#fee087}.msportalfx-svg-c13{fill:#b8d432}.msportalfx-svg-c14,.msportalfx-svg-c32{fill:#57a300}.msportalfx-svg-c15{fill:#59b4d9}.msportalfx-svg-c16{fill:#3999c6}.msportalfx-svg-c17{fill:#804998}.msportalfx-svg-c18{fill:#ec008c}.msportalfx-svg-c19{fill:#0072c6}.msportalfx-svg-c20{fill:#68217a}.msportalfx-svg-c21{fill:#00188f}.msportalfx-svg-c22{fill:#e81123}.fxs-mode-light .msportalfx-svg-c22{fill:#a4262c}.msportalfx-svg-c23{fill:#cae3f3}.msportalfx-svg-c24{fill:#59aed3}.msportalfx-svg-c25{fill:#4c3b12}.msportalfx-svg-c26{fill:#be9555}.msportalfx-svg-c27{fill:#4f4d52}.msportalfx-svg-c28{fill:#ef6f59}.msportalfx-svg-c29{fill:#f7cb64}.msportalfx-svg-c30{fill:#fdd8db}.msportalfx-svg-c31{fill:#f6ffec}.msportalfx-svg-c33{fill:#8a2da5}.msportalfx-svg-c34{fill:#e00b1c}.msportalfx-svg-c35{fill:#015cda}.msportalfx-svg-c36{fill:#5db300}.msportalfx-svg-c97{fill:#ffb900}.msportalfx-svg-c98{fill:#00a4ef}.msportalfx-svg-c99{fill:#f25022}.msportalfx-inverted-theme .msportalfx-svg-c05,.fxs-theme-dark .msportalfx-svg-c05{fill:#777}.msportalfx-inverted-theme .msportalfx-svg-c07,.fxs-theme-dark .msportalfx-svg-c07{fill:#f2f2f2}.msportalfx-svg-palette-white{fill:#fff}.msportalfx-svg-palette-blue{fill:#015cda}.msportalfx-svg-palette-black{fill:#1e1e1e}.msportalfx-svg-palette-green{fill:#57a300}.msportalfx-svg-palette-gray{fill:#a0a1a2}.msportalfx-svg-palette-inherit{fill:inherit}.msportalfx-svg-badge{position:absolute;left:0;bottom:0;min-height:10px;min-width:10px}.fxc-menu-icon>.msportalfx-svg-badge{left:-2px;bottom:-2px;min-height:8px;min-width:8px}.msportalfx-svg-disabled{filter:grayscale(100%)}.msportalfx-svg-loading-square{animation:ProgressFlagAnimation 1.45s infinite ease-in-out;transform-origin:50%}.msportalfx-svg-loading-square:nth-child(1){animation-delay:0s}.msportalfx-svg-loading-square:nth-child(2){animation-delay:.2s}.msportalfx-svg-loading-square:nth-child(3){animation-delay:.4s}@keyframes ProgressFlagAnimation{0%{transform:scale(1);opacity:.3}36.1%{transform:scale(1.06);opacity:1}50%{transform:scale(1.06);opacity:1}86.1%{transform:scale(1);opacity:.3}}.msportalfx-svg-flip-horizontal>svg,svg.msportalfx-svg-flip-horizontal{transform:scaleX(-1)}.msportalfx-svg-fabric-rotate360{animation:ImageRotation 1.3s cubic-bezier(.53,.21,.29,.67) infinite}@keyframes ImageRotation{0%{transform:rotate(-45deg)}100%{transform:rotate(315deg)}}.fxs-svg-number .msportalfx-font-bold{font-size:10px;fill:#0065ad}.fxs-svg-number .fxs-svg-circle{stroke-width:0%;fill:#0078d4}.fxs-svg-number .fxs-svg-text{fill:#fff;font-size:10px}.fxs-svg-number.msportalfx-svg-disabled{filter:grayscale(0%)}.fxs-svg-number.msportalfx-svg-disabled .fxs-svg-circle{fill:#fff;stroke-width:1px;stroke:#949494}.fxs-svg-number.msportalfx-svg-disabled .fxs-svg-text{fill:#949494}.fxs-theme-dark .fxs-svg-number .fxs-svg-text{fill:#0f0f0f}.fxs-theme-dark .fxs-svg-number .fxs-svg-circle{stroke-width:0%;fill:#0078d4}.fxs-theme-dark .fxs-svg-number.msportalfx-svg-disabled .fxs-svg-circle{fill:#0f0f0f;stroke-width:1px;stroke:#949494}.fxs-theme-dark .fxs-svg-number.msportalfx-svg-disabled .fxs-svg-text{fill:#949494}</style></svg>