<svg fill="none" viewBox="0 0 16 16" class="msportalfx-svg-placeholder" xmlns="http://www.w3.org/2000/svg"><title>Transparency log</title><desc>Microsoft&amp;#39;s commitment to transparency includes providing information about occasions when Microsoft engineers had access to resources in your Azure tenant, usually in response to Support requests. Global Administrators can receive a monthly email listing instances in the previous 90 days when Microsoft engineers utilized temporary Just-in-time authorization to access these resources.</desc><g clip-path="url(#paSlEsR6B__a)"><path fill="url(#paSlEsR6B__b)" d="M7.5 9.226h3.764v3.763H7.5zM3.111 4.208h3.762V.444H3.632a.523.523 0 0 0-.523.523zm.523 8.781h3.239V9.226H3.11v3.24a.52.52 0 0 0 .521.523zM3.11 8.6h3.762V4.836H3.11zm8.782 4.39h3.241a.52.52 0 0 0 .523-.522V9.226h-3.765zM7.5 8.6h3.764V4.836H7.5zm4.392 0h3.763V4.836h-3.763zm0-8.155v3.764h3.763V.968a.523.523 0 0 0-.523-.524zM7.5 4.208h3.764V.444H7.5z" /><path fill="#198AB3" d="m3.196 11.924-2.7 2.7a.516.516 0 0 0 0 .73l.051.05a.516.516 0 0 0 .73 0l2.7-2.699a.516.516 0 0 0 0-.73l-.05-.05a.516.516 0 0 0-.731 0" /><path fill="#50E6FF" d="M5.297 13.736a3.328 3.328 0 1 0 0-6.656 3.328 3.328 0 0 0 0 6.656" /><path fill="#fff" d="M5.29 12.962a2.613 2.613 0 1 0 0-5.227 2.613 2.613 0 0 0 0 5.227" /></g><defs><linearGradient id="paSlEsR6B__b" x1="9.556" x2="9.556" y1=".706" y2="13.25" gradientUnits="userSpaceOnUse"><stop stop-color="#5EA0EF" /><stop offset=".178" stop-color="#589EED" /><stop offset=".406" stop-color="#4897E9" /><stop offset=".662" stop-color="#2E8CE1" /><stop offset=".936" stop-color="#0A7CD7" /><stop offset="1" stop-color="#0078D4" /></linearGradient><clipPath id="paSlEsR6B__a"><path fill="#fff" d="M0 0h16v16H0z" /></clipPath></defs><style>.msportalfx-svg-c01{fill:#fff}.msportalfx-svg-c02{fill:#e5e5e5}.msportalfx-svg-c03{fill:#a0a1a2}.msportalfx-svg-c04{fill:#7a7a7a}.msportalfx-svg-c05{fill:#3e3e3e}.msportalfx-svg-c06{fill:#1e1e1e}.msportalfx-svg-c07{fill:#0f0f0f}.msportalfx-svg-c08{fill:#ba141a}.msportalfx-svg-c09{fill:#dd5900}.msportalfx-svg-c10{fill:#ff8c00}.msportalfx-svg-c11{fill:#fcd116}.msportalfx-svg-c12{fill:#fee087}.msportalfx-svg-c13{fill:#b8d432}.msportalfx-svg-c14,.msportalfx-svg-c32{fill:#57a300}.msportalfx-svg-c15{fill:#59b4d9}.msportalfx-svg-c16{fill:#3999c6}.msportalfx-svg-c17{fill:#804998}.msportalfx-svg-c18{fill:#ec008c}.msportalfx-svg-c19{fill:#0072c6}.msportalfx-svg-c20{fill:#68217a}.msportalfx-svg-c21{fill:#00188f}.msportalfx-svg-c22{fill:#e81123}.fxs-mode-light .msportalfx-svg-c22{fill:#a4262c}.msportalfx-svg-c23{fill:#cae3f3}.msportalfx-svg-c24{fill:#59aed3}.msportalfx-svg-c25{fill:#4c3b12}.msportalfx-svg-c26{fill:#be9555}.msportalfx-svg-c27{fill:#4f4d52}.msportalfx-svg-c28{fill:#ef6f59}.msportalfx-svg-c29{fill:#f7cb64}.msportalfx-svg-c30{fill:#fdd8db}.msportalfx-svg-c31{fill:#f6ffec}.msportalfx-svg-c33{fill:#8a2da5}.msportalfx-svg-c34{fill:#e00b1c}.msportalfx-svg-c35{fill:#015cda}.msportalfx-svg-c36{fill:#5db300}.msportalfx-svg-c97{fill:#ffb900}.msportalfx-svg-c98{fill:#00a4ef}.msportalfx-svg-c99{fill:#f25022}.msportalfx-inverted-theme .msportalfx-svg-c05,.fxs-theme-dark .msportalfx-svg-c05{fill:#777}.msportalfx-inverted-theme .msportalfx-svg-c07,.fxs-theme-dark .msportalfx-svg-c07{fill:#f2f2f2}.msportalfx-svg-palette-white{fill:#fff}.msportalfx-svg-palette-blue{fill:#015cda}.msportalfx-svg-palette-black{fill:#1e1e1e}.msportalfx-svg-palette-green{fill:#57a300}.msportalfx-svg-palette-gray{fill:#a0a1a2}.msportalfx-svg-palette-inherit{fill:inherit}.msportalfx-svg-badge{position:absolute;left:0;bottom:0;min-height:10px;min-width:10px}.fxc-menu-icon&gt;.msportalfx-svg-badge{left:-2px;bottom:-2px;min-height:8px;min-width:8px}.msportalfx-svg-disabled{filter:grayscale(100%)}.msportalfx-svg-loading-square{animation:ProgressFlagAnimation 1.45s infinite ease-in-out;transform-origin:50%}.msportalfx-svg-loading-square:nth-child(1){animation-delay:0s}.msportalfx-svg-loading-square:nth-child(2){animation-delay:.2s}.msportalfx-svg-loading-square:nth-child(3){animation-delay:.4s}@keyframes ProgressFlagAnimation{0%{transform:scale(1);opacity:.3}36.1%{transform:scale(1.06);opacity:1}50%{transform:scale(1.06);opacity:1}86.1%{transform:scale(1);opacity:.3}}.msportalfx-svg-flip-horizontal&gt;svg,svg.msportalfx-svg-flip-horizontal{transform:scaleX(-1)}.msportalfx-svg-fabric-rotate360{animation:ImageRotation 1.3s cubic-bezier(.53,.21,.29,.67) infinite}@keyframes ImageRotation{0%{transform:rotate(-45deg)}100%{transform:rotate(315deg)}}.fxs-svg-number .msportalfx-font-bold{font-size:10px;fill:#0065ad}.fxs-svg-number .fxs-svg-circle{stroke-width:0%;fill:#0078d4}.fxs-svg-number .fxs-svg-text{fill:#fff;font-size:10px}.fxs-svg-number.msportalfx-svg-disabled{filter:grayscale(0%)}.fxs-svg-number.msportalfx-svg-disabled .fxs-svg-circle{fill:#fff;stroke-width:1px;stroke:#949494}.fxs-svg-number.msportalfx-svg-disabled .fxs-svg-text{fill:#949494}.fxs-theme-dark .fxs-svg-number .fxs-svg-text{fill:#0f0f0f}.fxs-theme-dark .fxs-svg-number .fxs-svg-circle{stroke-width:0%;fill:#0078d4}.fxs-theme-dark .fxs-svg-number.msportalfx-svg-disabled .fxs-svg-circle{fill:#0f0f0f;stroke-width:1px;stroke:#949494}.fxs-theme-dark .fxs-svg-number.msportalfx-svg-disabled .fxs-svg-text{fill:#949494}</style></svg>