<svg fill="none" viewBox="0 0 96 96" class="msportalfx-svg-placeholder" xmlns="http://www.w3.org/2000/svg"><title>Task Hub</title><desc></desc><path fill="#50E6FF" d="m25.422 56.855-2.612 2.62a1.19 1.19 0 0 1-1.684.002L1.72 40.126a2.376 2.376 0 0 1-.005-3.36l2.625-2.633 21.092 21.032a1.19 1.19 0 0 1 .003 1.684z" /><path fill="#1490DF" d="m22.404 17.625 2.63 2.622a1.19 1.19 0 0 1 .002 1.683L4.316 42.71l-2.633-2.625a2.376 2.376 0 0 1-.005-3.36l19.05-19.104a1.19 1.19 0 0 1 1.676.004" /><path fill="url(#p791QFn4E__a)" d="M38.433 42.568h-16a.86.86 0 0 1-.89-.807q0-.176.08-.335L40.804 3.473a.92.92 0 0 1 .83-.472h18.923a.86.86 0 0 1 .891.806.74.74 0 0 1-.156.446L38.767 33.946h21.968a.86.86 0 0 1 .891.807.8.8 0 0 1-.231.544L24.89 73.273c-.343.205-2.782 2.229-1.587-.843z" /><path fill="#1490DF" d="m77.352 34.152 2.622 2.63a2.376 2.376 0 0 1-.004 3.36l-2.721 2.712-7.364-1.237 7.477-7.456z" /><path fill="#1490DF" d="m79.993 40.075-2.63 2.622-20.72-20.78a1.19 1.19 0 0 1 .002-1.683l2.63-2.622a1.19 1.19 0 0 1 1.682.002l19.05 19.104a2.376 2.376 0 0 1-.005 3.36z" /><path fill="url(#p791QFn4E__b)" d="M74.173 58.41c-11.401 0-20.433-2.961-20.433-6.564v34.992c0 3.602 9.081 6.514 20.334 6.564h.296c11.4 0 20.63-2.962 20.63-6.564V51.846c-.197 3.603-9.427 6.564-20.827 6.564" /><path fill="#E8E8E8" d="M95 51.846c0 3.603-9.427 6.564-20.827 6.564S53.74 55.45 53.74 51.846c0-3.602 9.23-6.564 20.63-6.564S95 48.194 95 51.846" /><path fill="#50E6FF" d="M90.015 51.451c0 2.32-7.107 4.196-15.842 4.196-8.736 0-15.794-2.024-15.794-4.196s7.058-4.195 15.794-4.195c8.735 0 15.842 1.876 15.842 4.195" /><path fill="#32BEDD" d="M74.173 52.29c-4.234-.102-8.46.43-12.536 1.58a42 42 0 0 0 12.536 1.63 42 42 0 0 0 12.536-1.629 42.4 42.4 0 0 0-12.536-1.58" /><path fill="#50E6FF" fill-rule="evenodd" d="m77.364 42.698-4.269-4.281-4.736 4.723a62 62 0 0 1 6.012-.285q1.414 0 2.777.059z" clip-rule="evenodd" /><defs><linearGradient id="p791QFn4E__a" x1="41.402" x2="41.402" y1="73.581" y2="2.44" gradientUnits="userSpaceOnUse"><stop stop-color="#FEA11B" /><stop offset=".284" stop-color="#FEA51A" /><stop offset=".547" stop-color="#FEB018" /><stop offset=".8" stop-color="#FFC314" /><stop offset="1" stop-color="#FFD70F" /></linearGradient><linearGradient id="p791QFn4E__b" x1="53.543" x2="94.803" y1="72.624" y2="72.624" gradientUnits="userSpaceOnUse"><stop stop-color="#005BA1" /><stop offset=".07" stop-color="#0060A9" /><stop offset=".36" stop-color="#0071C8" /><stop offset=".52" stop-color="#0078D4" /><stop offset=".64" stop-color="#0074CD" /><stop offset=".82" stop-color="#006ABB" /><stop offset="1" stop-color="#005BA1" /></linearGradient></defs><style>.msportalfx-svg-c01{fill:#fff}.msportalfx-svg-c02{fill:#e5e5e5}.msportalfx-svg-c03{fill:#a0a1a2}.msportalfx-svg-c04{fill:#7a7a7a}.msportalfx-svg-c05{fill:#3e3e3e}.msportalfx-svg-c06{fill:#1e1e1e}.msportalfx-svg-c07{fill:#0f0f0f}.msportalfx-svg-c08{fill:#ba141a}.msportalfx-svg-c09{fill:#dd5900}.msportalfx-svg-c10{fill:#ff8c00}.msportalfx-svg-c11{fill:#fcd116}.msportalfx-svg-c12{fill:#fee087}.msportalfx-svg-c13{fill:#b8d432}.msportalfx-svg-c14,.msportalfx-svg-c32{fill:#57a300}.msportalfx-svg-c15{fill:#59b4d9}.msportalfx-svg-c16{fill:#3999c6}.msportalfx-svg-c17{fill:#804998}.msportalfx-svg-c18{fill:#ec008c}.msportalfx-svg-c19{fill:#0072c6}.msportalfx-svg-c20{fill:#68217a}.msportalfx-svg-c21{fill:#00188f}.msportalfx-svg-c22{fill:#e81123}.fxs-mode-light .msportalfx-svg-c22{fill:#a4262c}.msportalfx-svg-c23{fill:#cae3f3}.msportalfx-svg-c24{fill:#59aed3}.msportalfx-svg-c25{fill:#4c3b12}.msportalfx-svg-c26{fill:#be9555}.msportalfx-svg-c27{fill:#4f4d52}.msportalfx-svg-c28{fill:#ef6f59}.msportalfx-svg-c29{fill:#f7cb64}.msportalfx-svg-c30{fill:#fdd8db}.msportalfx-svg-c31{fill:#f6ffec}.msportalfx-svg-c33{fill:#8a2da5}.msportalfx-svg-c34{fill:#e00b1c}.msportalfx-svg-c35{fill:#015cda}.msportalfx-svg-c36{fill:#5db300}.msportalfx-svg-c97{fill:#ffb900}.msportalfx-svg-c98{fill:#00a4ef}.msportalfx-svg-c99{fill:#f25022}.msportalfx-inverted-theme .msportalfx-svg-c05,.fxs-theme-dark .msportalfx-svg-c05{fill:#777}.msportalfx-inverted-theme .msportalfx-svg-c07,.fxs-theme-dark .msportalfx-svg-c07{fill:#f2f2f2}.msportalfx-svg-palette-white{fill:#fff}.msportalfx-svg-palette-blue{fill:#015cda}.msportalfx-svg-palette-black{fill:#1e1e1e}.msportalfx-svg-palette-green{fill:#57a300}.msportalfx-svg-palette-gray{fill:#a0a1a2}.msportalfx-svg-palette-inherit{fill:inherit}.msportalfx-svg-badge{position:absolute;left:0;bottom:0;min-height:10px;min-width:10px}.fxc-menu-icon&gt;.msportalfx-svg-badge{left:-2px;bottom:-2px;min-height:8px;min-width:8px}.msportalfx-svg-disabled{filter:grayscale(100%)}.msportalfx-svg-loading-square{animation:ProgressFlagAnimation 1.45s infinite ease-in-out;transform-origin:50%}.msportalfx-svg-loading-square:nth-child(1){animation-delay:0s}.msportalfx-svg-loading-square:nth-child(2){animation-delay:.2s}.msportalfx-svg-loading-square:nth-child(3){animation-delay:.4s}@keyframes ProgressFlagAnimation{0%{transform:scale(1);opacity:.3}36.1%{transform:scale(1.06);opacity:1}50%{transform:scale(1.06);opacity:1}86.1%{transform:scale(1);opacity:.3}}.msportalfx-svg-flip-horizontal&gt;svg,svg.msportalfx-svg-flip-horizontal{transform:scaleX(-1)}.msportalfx-svg-fabric-rotate360{animation:ImageRotation 1.3s cubic-bezier(.53,.21,.29,.67) infinite}@keyframes ImageRotation{0%{transform:rotate(-45deg)}100%{transform:rotate(315deg)}}.fxs-svg-number .msportalfx-font-bold{font-size:10px;fill:#0065ad}.fxs-svg-number .fxs-svg-circle{stroke-width:0%;fill:#0078d4}.fxs-svg-number .fxs-svg-text{fill:#fff;font-size:10px}.fxs-svg-number.msportalfx-svg-disabled{filter:grayscale(0%)}.fxs-svg-number.msportalfx-svg-disabled .fxs-svg-circle{fill:#fff;stroke-width:1px;stroke:#949494}.fxs-svg-number.msportalfx-svg-disabled .fxs-svg-text{fill:#949494}.fxs-theme-dark .fxs-svg-number .fxs-svg-text{fill:#0f0f0f}.fxs-theme-dark .fxs-svg-number .fxs-svg-circle{stroke-width:0%;fill:#0078d4}.fxs-theme-dark .fxs-svg-number.msportalfx-svg-disabled .fxs-svg-circle{fill:#0f0f0f;stroke-width:1px;stroke:#949494}.fxs-theme-dark .fxs-svg-number.msportalfx-svg-disabled .fxs-svg-text{fill:#949494}</style></svg>