<svg viewBox="0 0 18 18" class="msportalfx-svg-placeholder" xmlns="http://www.w3.org/2000/svg"><title>DNS Domain List</title><desc>Azure DNS Domain List along with DNS Security policy allows you to monitor outgoing dns requests from a virtual network.</desc><defs><linearGradient id="psvy2nSCe__a" x1="9.231" x2="9.231" y1="18.05" y2=".05" gradientUnits="userSpaceOnUse"><stop offset="0" stop-color="#0078d4" /><stop offset="1" stop-color="#5ea0ef" /></linearGradient></defs><path fill="#5ea0ef" d="M10.3.179H2.591A.61.61 0 0 0 1.98.79v16.52a.61.61 0 0 0 .611.611h13.28a.61.61 0 0 0 .612-.611V6.379a.61.61 0 0 0-.612-.611h-4.408a.6.6 0 0 1-.6-.6V.79A.6.6 0 0 0 10.3.179" /><path fill="url(#psvy2nSCe__a)" d="M9.972.951V5.1A1.523 1.523 0 0 0 11.5 6.626h4.173v10.523H2.8V.951h7.182M10.3.05H2.5a.61.61 0 0 0-.622.6v16.789a.61.61 0 0 0 .611.611h13.479a.61.61 0 0 0 .622-.6V6.336a.61.61 0 0 0-.611-.611H11.5a.61.61 0 0 1-.612-.612V.662A.61.61 0 0 0 10.3.05" /><path fill="#0078d4" d="M16.354 5.832 10.669.179v4.58a1.07 1.07 0 0 0 1.073 1.073Z" /><path fill="#50e6ff" d="M4.715 10.591V9.175a.7.7 0 0 1-.2.075l-.236.064v-.44a2.4 2.4 0 0 0 .332-.128 1.4 1.4 0 0 0 .33-.146h.343v2Z" /><path fill="#c3f1ff" d="M13.792 9.968H7.106a.375.375 0 1 1 0-.75h6.686a.375.375 0 0 1 0 .75" /><path fill="#50e6ff" d="M4.3 15.2v-.161a1 1 0 0 1 0-.279 2 2 0 0 1 .118-.236 2 2 0 0 1 .3-.279 1 1 0 0 0 .226-.182.1.1 0 0 1 .075-.1.15.15 0 0 0 0-.118c0-.139-.075-.2-.236-.2a.72.72 0 0 0-.462.183v-.483a1.2 1.2 0 0 1 .3-.118 1.4 1.4 0 0 1 .3 0 .75.75 0 0 1 .494.161.55.55 0 0 1 .185.412.8.8 0 0 1-.1.365 1.2 1.2 0 0 1-.343.3l-.214.129a.2.2 0 0 0-.065.107h.783v.451Z" /><path fill="#c3f1ff" d="M13.792 14.582H7.106a.375.375 0 0 1 0-.75h6.686a.375.375 0 1 1 0 .75" /><style>.msportalfx-svg-c01{fill:#fff}.msportalfx-svg-c02{fill:#e5e5e5}.msportalfx-svg-c03{fill:#a0a1a2}.msportalfx-svg-c04{fill:#7a7a7a}.msportalfx-svg-c05{fill:#3e3e3e}.msportalfx-svg-c06{fill:#1e1e1e}.msportalfx-svg-c07{fill:#0f0f0f}.msportalfx-svg-c08{fill:#ba141a}.msportalfx-svg-c09{fill:#dd5900}.msportalfx-svg-c10{fill:#ff8c00}.msportalfx-svg-c11{fill:#fcd116}.msportalfx-svg-c12{fill:#fee087}.msportalfx-svg-c13{fill:#b8d432}.msportalfx-svg-c14,.msportalfx-svg-c32{fill:#57a300}.msportalfx-svg-c15{fill:#59b4d9}.msportalfx-svg-c16{fill:#3999c6}.msportalfx-svg-c17{fill:#804998}.msportalfx-svg-c18{fill:#ec008c}.msportalfx-svg-c19{fill:#0072c6}.msportalfx-svg-c20{fill:#68217a}.msportalfx-svg-c21{fill:#00188f}.msportalfx-svg-c22{fill:#e81123}.fxs-mode-light .msportalfx-svg-c22{fill:#a4262c}.msportalfx-svg-c23{fill:#cae3f3}.msportalfx-svg-c24{fill:#59aed3}.msportalfx-svg-c25{fill:#4c3b12}.msportalfx-svg-c26{fill:#be9555}.msportalfx-svg-c27{fill:#4f4d52}.msportalfx-svg-c28{fill:#ef6f59}.msportalfx-svg-c29{fill:#f7cb64}.msportalfx-svg-c30{fill:#fdd8db}.msportalfx-svg-c31{fill:#f6ffec}.msportalfx-svg-c33{fill:#8a2da5}.msportalfx-svg-c34{fill:#e00b1c}.msportalfx-svg-c35{fill:#015cda}.msportalfx-svg-c36{fill:#5db300}.msportalfx-svg-c97{fill:#ffb900}.msportalfx-svg-c98{fill:#00a4ef}.msportalfx-svg-c99{fill:#f25022}.msportalfx-inverted-theme .msportalfx-svg-c05,.fxs-theme-dark .msportalfx-svg-c05{fill:#777}.msportalfx-inverted-theme .msportalfx-svg-c07,.fxs-theme-dark .msportalfx-svg-c07{fill:#f2f2f2}.msportalfx-svg-palette-white{fill:#fff}.msportalfx-svg-palette-blue{fill:#015cda}.msportalfx-svg-palette-black{fill:#1e1e1e}.msportalfx-svg-palette-green{fill:#57a300}.msportalfx-svg-palette-gray{fill:#a0a1a2}.msportalfx-svg-palette-inherit{fill:inherit}.msportalfx-svg-badge{position:absolute;left:0;bottom:0;min-height:10px;min-width:10px}.fxc-menu-icon&gt;.msportalfx-svg-badge{left:-2px;bottom:-2px;min-height:8px;min-width:8px}.msportalfx-svg-disabled{filter:grayscale(100%)}.msportalfx-svg-loading-square{animation:ProgressFlagAnimation 1.45s infinite ease-in-out;transform-origin:50%}.msportalfx-svg-loading-square:nth-child(1){animation-delay:0s}.msportalfx-svg-loading-square:nth-child(2){animation-delay:.2s}.msportalfx-svg-loading-square:nth-child(3){animation-delay:.4s}@keyframes ProgressFlagAnimation{0%{transform:scale(1);opacity:.3}36.1%{transform:scale(1.06);opacity:1}50%{transform:scale(1.06);opacity:1}86.1%{transform:scale(1);opacity:.3}}.msportalfx-svg-flip-horizontal&gt;svg,svg.msportalfx-svg-flip-horizontal{transform:scaleX(-1)}.msportalfx-svg-fabric-rotate360{animation:ImageRotation 1.3s cubic-bezier(.53,.21,.29,.67) infinite}@keyframes ImageRotation{0%{transform:rotate(-45deg)}100%{transform:rotate(315deg)}}.fxs-svg-number .msportalfx-font-bold{font-size:10px;fill:#0065ad}.fxs-svg-number .fxs-svg-circle{stroke-width:0%;fill:#0078d4}.fxs-svg-number .fxs-svg-text{fill:#fff;font-size:10px}.fxs-svg-number.msportalfx-svg-disabled{filter:grayscale(0%)}.fxs-svg-number.msportalfx-svg-disabled .fxs-svg-circle{fill:#fff;stroke-width:1px;stroke:#949494}.fxs-svg-number.msportalfx-svg-disabled .fxs-svg-text{fill:#949494}.fxs-theme-dark .fxs-svg-number .fxs-svg-text{fill:#0f0f0f}.fxs-theme-dark .fxs-svg-number .fxs-svg-circle{stroke-width:0%;fill:#0078d4}.fxs-theme-dark .fxs-svg-number.msportalfx-svg-disabled .fxs-svg-circle{fill:#0f0f0f;stroke-width:1px;stroke:#949494}.fxs-theme-dark .fxs-svg-number.msportalfx-svg-disabled .fxs-svg-text{fill:#949494}</style></svg>