<svg viewBox="0 0 18 18" class="msportalfx-svg-placeholder" role="presentation" focusable="false" xmlns:xlink="http://www.w3.org/1999/xlink" xmlns="http://www.w3.org/2000/svg"><desc>Azure Local Network Interfaces</desc><g><title>Azure Local VM Network Interface</title><defs><linearGradient id="definition-1" x1="143.007" y1="-302.227" x2="143.007" y2="-312.815" gradientTransform="translate(-134 314.016)" gradientUnits="userSpaceOnUse"><stop offset=".001" stop-color="#773adc" /><stop offset="1" stop-color="#a67af4" /></linearGradient></defs><path d="M17.972 13.854c-.169.735-1.087 1.46-2.747 2.024a22.668 22.668 0 0 1-12.725.018C.97 15.352.145 14.664.015 13.959c-.022-.124 0-2.064 0-2.064L18 11.728s-.008 2.031-.028 2.126Z" fill="#5ea0ef" /><ellipse cx="9" cy="11.789" rx="9" ry="3.112" transform="rotate(-.575 9.009 11.803)" fill="#50e6ff" /><path d="M13.867 2.197h.893a.24.24 0 0 1 .24.24v2.471a.24.24 0 0 1-.24.24h-.893V2.197Zm0 4.298v4.617h.893a.24.24 0 0 0 .24-.24V6.735a.24.24 0 0 0-.24-.24h-.893Z" fill="#a3a3a3" /><rect x="4.151" y="1.201" width="9.713" height="10.588" rx=".487" ry=".487" fill="url(#definition-1)" /><path d="M4.137 8.789H3.24A.241.241 0 0 1 3 8.578V4.441a.24.24 0 0 1 .24-.24h.897v4.588Z" fill="#949494" /><path d="m6.231 4.195-.007 4.473h1.087v.494H5.99a.242.242 0 0 1-.235-.248V3.953a.24.24 0 0 1 .073-.177.189.189 0 0 1 .164-.071h3.972v.489H6.231Zm3.573 4.424V6.444h.785a.238.238 0 0 0 .217-.247V4.374h-.467v1.589H9.55a.233.233 0 0 0-.221.241v2.703a.21.21 0 0 0 .067.165.233.233 0 0 0 .177.086h1.455V8.62H9.805Z" fill="#b796f9" /><path d="M8.023 7.779V10a.187.187 0 0 1-.187.187h-.507A.188.188 0 0 1 7.141 10V7.779c0-.104.084-.188.188-.188h.507c.103 0 .187.084.187.187Zm.874-4.788v1.821c0 .103.084.187.187.187h2.886a.187.187 0 0 0 .187-.187V2.991a.187.187 0 0 0-.187-.187H9.084a.188.188 0 0 0-.188.187Z" fill="#552f99" /><circle cx="11.466" cy="8.889" r=".611" class="msportalfx-svg-c01" /></g><style>.msportalfx-svg-c01{fill:#fff}.msportalfx-svg-c02{fill:#e5e5e5}.msportalfx-svg-c03{fill:#a0a1a2}.msportalfx-svg-c04{fill:#7a7a7a}.msportalfx-svg-c05{fill:#3e3e3e}.msportalfx-svg-c06{fill:#1e1e1e}.msportalfx-svg-c07{fill:#0f0f0f}.msportalfx-svg-c08{fill:#ba141a}.msportalfx-svg-c09{fill:#dd5900}.msportalfx-svg-c10{fill:#ff8c00}.msportalfx-svg-c11{fill:#fcd116}.msportalfx-svg-c12{fill:#fee087}.msportalfx-svg-c13{fill:#b8d432}.msportalfx-svg-c14,.msportalfx-svg-c32{fill:#57a300}.msportalfx-svg-c15{fill:#59b4d9}.msportalfx-svg-c16{fill:#3999c6}.msportalfx-svg-c17{fill:#804998}.msportalfx-svg-c18{fill:#ec008c}.msportalfx-svg-c19{fill:#0072c6}.msportalfx-svg-c20{fill:#68217a}.msportalfx-svg-c21{fill:#00188f}.msportalfx-svg-c22{fill:#e81123}.fxs-mode-light .msportalfx-svg-c22{fill:#a4262c}.msportalfx-svg-c23{fill:#cae3f3}.msportalfx-svg-c24{fill:#59aed3}.msportalfx-svg-c25{fill:#4c3b12}.msportalfx-svg-c26{fill:#be9555}.msportalfx-svg-c27{fill:#4f4d52}.msportalfx-svg-c28{fill:#ef6f59}.msportalfx-svg-c29{fill:#f7cb64}.msportalfx-svg-c30{fill:#fdd8db}.msportalfx-svg-c31{fill:#f6ffec}.msportalfx-svg-c33{fill:#8a2da5}.msportalfx-svg-c34{fill:#e00b1c}.msportalfx-svg-c35{fill:#015cda}.msportalfx-svg-c36{fill:#5db300}.msportalfx-svg-c97{fill:#ffb900}.msportalfx-svg-c98{fill:#00a4ef}.msportalfx-svg-c99{fill:#f25022}.msportalfx-inverted-theme .msportalfx-svg-c05,.fxs-theme-dark .msportalfx-svg-c05{fill:#777}.msportalfx-inverted-theme .msportalfx-svg-c07,.fxs-theme-dark .msportalfx-svg-c07{fill:#f2f2f2}.msportalfx-svg-palette-white{fill:#fff}.msportalfx-svg-palette-blue{fill:#015cda}.msportalfx-svg-palette-black{fill:#1e1e1e}.msportalfx-svg-palette-green{fill:#57a300}.msportalfx-svg-palette-gray{fill:#a0a1a2}.msportalfx-svg-palette-inherit{fill:inherit}.msportalfx-svg-badge{position:absolute;left:0;bottom:0;min-height:10px;min-width:10px}.fxc-menu-icon&gt;.msportalfx-svg-badge{left:-2px;bottom:-2px;min-height:8px;min-width:8px}.msportalfx-svg-disabled{filter:grayscale(100%)}.msportalfx-svg-loading-square{animation:ProgressFlagAnimation 1.45s infinite ease-in-out;transform-origin:50%}.msportalfx-svg-loading-square:nth-child(1){animation-delay:0s}.msportalfx-svg-loading-square:nth-child(2){animation-delay:.2s}.msportalfx-svg-loading-square:nth-child(3){animation-delay:.4s}@keyframes ProgressFlagAnimation{0%{transform:scale(1);opacity:.3}36.1%{transform:scale(1.06);opacity:1}50%{transform:scale(1.06);opacity:1}86.1%{transform:scale(1);opacity:.3}}.msportalfx-svg-flip-horizontal&gt;svg,svg.msportalfx-svg-flip-horizontal{transform:scaleX(-1)}.msportalfx-svg-fabric-rotate360{animation:ImageRotation 1.3s cubic-bezier(.53,.21,.29,.67) infinite}@keyframes ImageRotation{0%{transform:rotate(-45deg)}100%{transform:rotate(315deg)}}.fxs-svg-number .msportalfx-font-bold{font-size:10px;fill:#0065ad}.fxs-svg-number .fxs-svg-circle{stroke-width:0%;fill:#0078d4}.fxs-svg-number .fxs-svg-text{fill:#fff;font-size:10px}.fxs-svg-number.msportalfx-svg-disabled{filter:grayscale(0%)}.fxs-svg-number.msportalfx-svg-disabled .fxs-svg-circle{fill:#fff;stroke-width:1px;stroke:#949494}.fxs-svg-number.msportalfx-svg-disabled .fxs-svg-text{fill:#949494}.fxs-theme-dark .fxs-svg-number .fxs-svg-text{fill:#0f0f0f}.fxs-theme-dark .fxs-svg-number .fxs-svg-circle{stroke-width:0%;fill:#0078d4}.fxs-theme-dark .fxs-svg-number.msportalfx-svg-disabled .fxs-svg-circle{fill:#0f0f0f;stroke-width:1px;stroke:#949494}.fxs-theme-dark .fxs-svg-number.msportalfx-svg-disabled .fxs-svg-text{fill:#949494}</style></svg>