<svg viewBox="0 0 18 18" class="msportalfx-svg-placeholder" xmlns="http://www.w3.org/2000/svg"><title>Azure Local Logical network</title><desc>Azure Local Logical Networks</desc><defs><linearGradient id="pA2wRjy0C__a" x1="65.014" x2="64.98" y1="631.888" y2="636.845" gradientTransform="matrix(1 0 0 -1 -56 645.516)" gradientUnits="userSpaceOnUse"><stop offset=".001" stop-color="#773adc" /><stop offset="1" stop-color="#a67af4" /></linearGradient><linearGradient id="pA2wRjy0C__b" x1="65" x2="65" y1="642.42" y2="632.82" gradientTransform="matrix(1 0 0 -1 -56 645.516)" gradientUnits="userSpaceOnUse"><stop offset="0" stop-color="#b796f9" /><stop offset=".179" stop-color="#b08df6" /><stop offset=".466" stop-color="#a075ee" /><stop offset=".825" stop-color="#854fe2" /><stop offset="1" stop-color="#773adc" /></linearGradient></defs><path fill="#5ea0ef" d="M17.425 15.11c-.159.69-1.02 1.371-2.58 1.901a21.3 21.3 0 0 1-11.949.017C1.46 16.517.685 15.871.563 15.209c-.021-.116 0-1.938 0-1.938l16.889-.157s-.008 1.908-.027 1.996" /><path fill="#50e6ff" d="M9.667 10.314v.171c.384.228.626.644.629 1.101 0 .715-.582 1.297-1.297 1.297s-1.297-.582-1.297-1.302a1.29 1.29 0 0 1 .632-1.093v-.162c-4.369.157-7.801 1.452-7.785 2.991.016 1.614 3.813 2.884 8.481 2.837s8.438-1.393 8.422-3.007c-.015-1.533-3.441-2.754-7.784-2.833Z" /><path fill="#773adc" d="M12.22 1.741A4.015 4.015 0 0 0 6.593.987L6.588.99l-.041.032A4.023 4.023 0 0 0 8.36 8.169V5.255a1.266 1.266 0 0 1 .862-2.341 1.264 1.264 0 0 1 .414 2.342v2.918a4 4 0 0 0 1.831-.794 4.026 4.026 0 0 0 .751-5.639Z" /><path fill="#b796f9" d="m12.697 2.483-.034-.077A4.08 4.08 0 0 0 9.561.167a1 1 0 0 0-.19-.023 4 4 0 0 0-.776.002 1 1 0 0 0-.221.034 4.08 4.08 0 0 0-3.012 2.225h-.006v.008a4.06 4.06 0 0 0 3.005 5.811v-.583a4 4 0 0 1-1.106-1.74h1.106v-.394H7.125a4.7 4.7 0 0 1-.213-1.304c0-.473.056-.945.165-1.405h1.755v.109a1.2 1.2 0 0 1 .391.009v-.118h1.665q.165.693.164 1.406a4.7 4.7 0 0 1-.213 1.303h-1.2v.394h1.069a3.95 3.95 0 0 1-1.069 1.704v.622a4.08 4.08 0 0 0 3.442-4.024c0-.594-.131-1.182-.384-1.719Zm-1.412.314h1.126c.358.865.371 1.834.036 2.708h-1.194c.121-.424.185-.862.191-1.303a6.4 6.4 0 0 0-.16-1.406ZM6.712 5.505h-1.14a3.65 3.65 0 0 1 .037-2.708h1.07a6.3 6.3 0 0 0-.158 1.406c.006.441.07.879.191 1.303Zm1.121 2.184a3.7 3.7 0 0 1-2.086-1.79h1.088c.218.654.556 1.261.998 1.79M6.782 2.406h-.981A3.7 3.7 0 0 1 7.578.807a4.7 4.7 0 0 0-.796 1.599m2.048 0H7.187A3.03 3.03 0 0 1 8.477.56q.175-.025.354-.035v1.88Zm.393 0V.529q.12.007.239.019a2.96 2.96 0 0 1 1.317 1.858zm1.14-1.624a3.7 3.7 0 0 1 1.856 1.624h-1.037a4.7 4.7 0 0 0-.819-1.627zm.768 5.12h1.142a3.7 3.7 0 0 1-2.167 1.817 5.5 5.5 0 0 0 1.026-1.82z" /><path fill="url(#pA2wRjy0C__a)" d="M15.22 10.302v2.574a.415.415 0 0 1-.415.415H3.195a.415.415 0 0 1-.415-.415v-2.574c0-.229.186-.415.415-.415h5.167v.561a.1.1 0 0 1-.046.077 1.261 1.261 0 0 0 .685 2.331 1.264 1.264 0 0 0 .685-2.331.1.1 0 0 1-.046-.082v-.56h5.166c.229 0 .415.186.415.415v.003Z" /><rect width=".93" height=".931" x="13.285" y="10.481" fill="#fff" rx=".208" ry=".208" /><rect width=".93" height=".931" x="13.285" y="11.765" fill="#fff" opacity=".6" rx=".208" ry=".208" /><path fill="url(#pA2wRjy0C__b)" d="M9.852 11.585a.854.854 0 0 1-1.708 0 .84.84 0 0 1 .509-.765.2.2 0 0 0 .123-.18V5.118a.2.2 0 0 0-.123-.181.846.846 0 0 1 .176-1.608 1 1 0 0 1 .169-.017h.006q.11 0 .217.028a.85.85 0 0 1 .632.829.84.84 0 0 1-.509.768.2.2 0 0 0-.122.18v5.519c.001.079.049.15.122.18a.85.85 0 0 1 .507.768Z" /><style>.msportalfx-svg-c01{fill:#fff}.msportalfx-svg-c02{fill:#e5e5e5}.msportalfx-svg-c03{fill:#a0a1a2}.msportalfx-svg-c04{fill:#7a7a7a}.msportalfx-svg-c05{fill:#3e3e3e}.msportalfx-svg-c06{fill:#1e1e1e}.msportalfx-svg-c07{fill:#0f0f0f}.msportalfx-svg-c08{fill:#ba141a}.msportalfx-svg-c09{fill:#dd5900}.msportalfx-svg-c10{fill:#ff8c00}.msportalfx-svg-c11{fill:#fcd116}.msportalfx-svg-c12{fill:#fee087}.msportalfx-svg-c13{fill:#b8d432}.msportalfx-svg-c14,.msportalfx-svg-c32{fill:#57a300}.msportalfx-svg-c15{fill:#59b4d9}.msportalfx-svg-c16{fill:#3999c6}.msportalfx-svg-c17{fill:#804998}.msportalfx-svg-c18{fill:#ec008c}.msportalfx-svg-c19{fill:#0072c6}.msportalfx-svg-c20{fill:#68217a}.msportalfx-svg-c21{fill:#00188f}.msportalfx-svg-c22{fill:#e81123}.fxs-mode-light .msportalfx-svg-c22{fill:#a4262c}.msportalfx-svg-c23{fill:#cae3f3}.msportalfx-svg-c24{fill:#59aed3}.msportalfx-svg-c25{fill:#4c3b12}.msportalfx-svg-c26{fill:#be9555}.msportalfx-svg-c27{fill:#4f4d52}.msportalfx-svg-c28{fill:#ef6f59}.msportalfx-svg-c29{fill:#f7cb64}.msportalfx-svg-c30{fill:#fdd8db}.msportalfx-svg-c31{fill:#f6ffec}.msportalfx-svg-c33{fill:#8a2da5}.msportalfx-svg-c34{fill:#e00b1c}.msportalfx-svg-c35{fill:#015cda}.msportalfx-svg-c36{fill:#5db300}.msportalfx-svg-c97{fill:#ffb900}.msportalfx-svg-c98{fill:#00a4ef}.msportalfx-svg-c99{fill:#f25022}.msportalfx-inverted-theme .msportalfx-svg-c05,.fxs-theme-dark .msportalfx-svg-c05{fill:#777}.msportalfx-inverted-theme .msportalfx-svg-c07,.fxs-theme-dark .msportalfx-svg-c07{fill:#f2f2f2}.msportalfx-svg-palette-white{fill:#fff}.msportalfx-svg-palette-blue{fill:#015cda}.msportalfx-svg-palette-black{fill:#1e1e1e}.msportalfx-svg-palette-green{fill:#57a300}.msportalfx-svg-palette-gray{fill:#a0a1a2}.msportalfx-svg-palette-inherit{fill:inherit}.msportalfx-svg-badge{position:absolute;left:0;bottom:0;min-height:10px;min-width:10px}.fxc-menu-icon&gt;.msportalfx-svg-badge{left:-2px;bottom:-2px;min-height:8px;min-width:8px}.msportalfx-svg-disabled{filter:grayscale(100%)}.msportalfx-svg-loading-square{animation:ProgressFlagAnimation 1.45s infinite ease-in-out;transform-origin:50%}.msportalfx-svg-loading-square:nth-child(1){animation-delay:0s}.msportalfx-svg-loading-square:nth-child(2){animation-delay:.2s}.msportalfx-svg-loading-square:nth-child(3){animation-delay:.4s}@keyframes ProgressFlagAnimation{0%{transform:scale(1);opacity:.3}36.1%{transform:scale(1.06);opacity:1}50%{transform:scale(1.06);opacity:1}86.1%{transform:scale(1);opacity:.3}}.msportalfx-svg-flip-horizontal&gt;svg,svg.msportalfx-svg-flip-horizontal{transform:scaleX(-1)}.msportalfx-svg-fabric-rotate360{animation:ImageRotation 1.3s cubic-bezier(.53,.21,.29,.67) infinite}@keyframes ImageRotation{0%{transform:rotate(-45deg)}100%{transform:rotate(315deg)}}.fxs-svg-number .msportalfx-font-bold{font-size:10px;fill:#0065ad}.fxs-svg-number .fxs-svg-circle{stroke-width:0%;fill:#0078d4}.fxs-svg-number .fxs-svg-text{fill:#fff;font-size:10px}.fxs-svg-number.msportalfx-svg-disabled{filter:grayscale(0%)}.fxs-svg-number.msportalfx-svg-disabled .fxs-svg-circle{fill:#fff;stroke-width:1px;stroke:#949494}.fxs-svg-number.msportalfx-svg-disabled .fxs-svg-text{fill:#949494}.fxs-theme-dark .fxs-svg-number .fxs-svg-text{fill:#0f0f0f}.fxs-theme-dark .fxs-svg-number .fxs-svg-circle{stroke-width:0%;fill:#0078d4}.fxs-theme-dark .fxs-svg-number.msportalfx-svg-disabled .fxs-svg-circle{fill:#0f0f0f;stroke-width:1px;stroke:#949494}.fxs-theme-dark .fxs-svg-number.msportalfx-svg-disabled .fxs-svg-text{fill:#949494}</style></svg>