<svg fill="none" viewBox="0 0 128 128" class="msportalfx-svg-placeholder" xmlns="http://www.w3.org/2000/svg"><title>Azure Local Virtual Machine - Azure Arc</title><desc></desc><path fill="#5EA0EF" d="M127.582 107.09c-1.198 5.219-7.7 10.37-19.47 14.374a160.3 160.3 0 0 1-90.179.127C7.093 117.729 1.246 112.838.33 107.835c-.156-.88 0-14.657 0-14.657l127.453-1.186s-.06 14.427-.201 15.098" /><path fill="#50E6FF" d="M64.221 114.984c35.224-.354 63.68-10.535 63.558-22.739-.123-12.204-28.776-21.81-64-21.455C28.555 71.144.099 81.324.22 93.528c.123 12.204 28.776 21.81 64 21.456" /><path fill="url(#pX6qn8kqc__a)" d="M109.561 0H18.264A3.267 3.267 0 0 0 15 3.27v58.816a3.267 3.267 0 0 0 3.264 3.27h91.297a3.267 3.267 0 0 0 3.264-3.27V3.271A3.267 3.267 0 0 0 109.561 0" /><path fill="url(#pX6qn8kqc__b)" d="M83.534 85.129c-9.677-1.53-10.053-8.5-10.053-19.772H54.319c0 11.272-.326 18.242-10.002 19.772a5.43 5.43 0 0 0-3.46 1.789 5.45 5.45 0 0 0-1.375 3.651h48.912a5.45 5.45 0 0 0-1.384-3.659 5.43 5.43 0 0 0-3.476-1.781" /><g fill="#fff" opacity=".8"><path d="m80.225 23.228-16.306 9.55-16.306-9.556 16.306-9.55z" /><path d="M47.613 23.221v19.017l16.28-9.473z" opacity=".8" /><path d="m47.6 42.238 16.306 9.55V32.77l-.019-.013z" /><path d="m63.919 32.752 16.306 9.486v-19.01z" opacity=".6" /><path d="m63.919 51.794 16.306-9.556-16.306-9.486z" opacity=".8" /></g><defs><linearGradient id="pX6qn8kqc__a" x1="63.913" x2="63.913" y1="65.357" y2="0" gradientUnits="userSpaceOnUse"><stop stop-color="#552F99" /><stop offset="1" stop-color="#773ADC" /></linearGradient><linearGradient id="pX6qn8kqc__b" x1="63.913" x2="63.913" y1="90.569" y2="65.357" gradientUnits="userSpaceOnUse"><stop offset=".15" stop-color="#CBCBCA" /><stop offset="1" stop-color="#707171" /></linearGradient></defs><style>.msportalfx-svg-c01{fill:#fff}.msportalfx-svg-c02{fill:#e5e5e5}.msportalfx-svg-c03{fill:#a0a1a2}.msportalfx-svg-c04{fill:#7a7a7a}.msportalfx-svg-c05{fill:#3e3e3e}.msportalfx-svg-c06{fill:#1e1e1e}.msportalfx-svg-c07{fill:#0f0f0f}.msportalfx-svg-c08{fill:#ba141a}.msportalfx-svg-c09{fill:#dd5900}.msportalfx-svg-c10{fill:#ff8c00}.msportalfx-svg-c11{fill:#fcd116}.msportalfx-svg-c12{fill:#fee087}.msportalfx-svg-c13{fill:#b8d432}.msportalfx-svg-c14,.msportalfx-svg-c32{fill:#57a300}.msportalfx-svg-c15{fill:#59b4d9}.msportalfx-svg-c16{fill:#3999c6}.msportalfx-svg-c17{fill:#804998}.msportalfx-svg-c18{fill:#ec008c}.msportalfx-svg-c19{fill:#0072c6}.msportalfx-svg-c20{fill:#68217a}.msportalfx-svg-c21{fill:#00188f}.msportalfx-svg-c22{fill:#e81123}.fxs-mode-light .msportalfx-svg-c22{fill:#a4262c}.msportalfx-svg-c23{fill:#cae3f3}.msportalfx-svg-c24{fill:#59aed3}.msportalfx-svg-c25{fill:#4c3b12}.msportalfx-svg-c26{fill:#be9555}.msportalfx-svg-c27{fill:#4f4d52}.msportalfx-svg-c28{fill:#ef6f59}.msportalfx-svg-c29{fill:#f7cb64}.msportalfx-svg-c30{fill:#fdd8db}.msportalfx-svg-c31{fill:#f6ffec}.msportalfx-svg-c33{fill:#8a2da5}.msportalfx-svg-c34{fill:#e00b1c}.msportalfx-svg-c35{fill:#015cda}.msportalfx-svg-c36{fill:#5db300}.msportalfx-svg-c97{fill:#ffb900}.msportalfx-svg-c98{fill:#00a4ef}.msportalfx-svg-c99{fill:#f25022}.msportalfx-inverted-theme .msportalfx-svg-c05,.fxs-theme-dark .msportalfx-svg-c05{fill:#777}.msportalfx-inverted-theme .msportalfx-svg-c07,.fxs-theme-dark .msportalfx-svg-c07{fill:#f2f2f2}.msportalfx-svg-palette-white{fill:#fff}.msportalfx-svg-palette-blue{fill:#015cda}.msportalfx-svg-palette-black{fill:#1e1e1e}.msportalfx-svg-palette-green{fill:#57a300}.msportalfx-svg-palette-gray{fill:#a0a1a2}.msportalfx-svg-palette-inherit{fill:inherit}.msportalfx-svg-badge{position:absolute;left:0;bottom:0;min-height:10px;min-width:10px}.fxc-menu-icon&gt;.msportalfx-svg-badge{left:-2px;bottom:-2px;min-height:8px;min-width:8px}.msportalfx-svg-disabled{filter:grayscale(100%)}.msportalfx-svg-loading-square{animation:ProgressFlagAnimation 1.45s infinite ease-in-out;transform-origin:50%}.msportalfx-svg-loading-square:nth-child(1){animation-delay:0s}.msportalfx-svg-loading-square:nth-child(2){animation-delay:.2s}.msportalfx-svg-loading-square:nth-child(3){animation-delay:.4s}@keyframes ProgressFlagAnimation{0%{transform:scale(1);opacity:.3}36.1%{transform:scale(1.06);opacity:1}50%{transform:scale(1.06);opacity:1}86.1%{transform:scale(1);opacity:.3}}.msportalfx-svg-flip-horizontal&gt;svg,svg.msportalfx-svg-flip-horizontal{transform:scaleX(-1)}.msportalfx-svg-fabric-rotate360{animation:ImageRotation 1.3s cubic-bezier(.53,.21,.29,.67) infinite}@keyframes ImageRotation{0%{transform:rotate(-45deg)}100%{transform:rotate(315deg)}}.fxs-svg-number .msportalfx-font-bold{font-size:10px;fill:#0065ad}.fxs-svg-number .fxs-svg-circle{stroke-width:0%;fill:#0078d4}.fxs-svg-number .fxs-svg-text{fill:#fff;font-size:10px}.fxs-svg-number.msportalfx-svg-disabled{filter:grayscale(0%)}.fxs-svg-number.msportalfx-svg-disabled .fxs-svg-circle{fill:#fff;stroke-width:1px;stroke:#949494}.fxs-svg-number.msportalfx-svg-disabled .fxs-svg-text{fill:#949494}.fxs-theme-dark .fxs-svg-number .fxs-svg-text{fill:#0f0f0f}.fxs-theme-dark .fxs-svg-number .fxs-svg-circle{stroke-width:0%;fill:#0078d4}.fxs-theme-dark .fxs-svg-number.msportalfx-svg-disabled .fxs-svg-circle{fill:#0f0f0f;stroke-width:1px;stroke:#949494}.fxs-theme-dark .fxs-svg-number.msportalfx-svg-disabled .fxs-svg-text{fill:#949494}</style></svg>