<svg viewBox="0 0 18 18" class="msportalfx-svg-placeholder" xmlns="http://www.w3.org/2000/svg"><title>Azure Local - disconnected operations</title><desc>Create a virtual appliance to run Azure Local disconnected operations</desc><defs><linearGradient id="pNkft_1eF__a" x1="6.67" x2="6.67" y1="12.95" y2="4.29" gradientUnits="userSpaceOnUse"><stop offset="0" stop-color="#2764e7" /><stop offset=".71" stop-color="#0fafff" /></linearGradient><linearGradient id="pNkft_1eF__b" x1="10.67" x2="10.67" y1="13.57" y2="7.37" gradientUnits="userSpaceOnUse"><stop offset="0" stop-color="#2764e7" /><stop offset=".67" stop-color="#0fafff" /></linearGradient><linearGradient id="pNkft_1eF__c" x1="9" x2="9" y1="17.25" y2=".75" gradientUnits="userSpaceOnUse"><stop offset="0" stop-color="#aab3bd" /><stop offset="1" stop-color="#d8e1e8" /></linearGradient></defs><path fill="none" d="M0 0h18v18H0z" /><path fill="url(#pNkft_1eF__a)" d="M8.33 3.52c-1.87 0-3.42 1.36-3.71 3.15a2.825 2.825 0 0 0-2.56 2.81c0 1.27.84 2.35 2 2.7l7.22-7.22a3.76 3.76 0 0 0-2.95-1.44" opacity=".5" /><path fill="url(#pNkft_1eF__b)" d="M13.38 7.12c-.11-.64-.37-1.22-.76-1.71L5.4 12.63c.26.08.53.12.82.12h6.89c1.56 0 2.82-1.26 2.82-2.82 0-1.47-1.12-2.68-2.56-2.81Z" /><path fill="url(#pNkft_1eF__c)" d="M14.79 5.47a.315.315 0 0 0-.41.19c-.06.17.02.35.19.41 1.62.6 2.67 2.11 2.67 3.86a4.11 4.11 0 0 1-4.11 4.11H6.25c-.81-.02-1.31-.15-1.57-.25L17.19 1.26c.12-.12.12-.31 0-.42s-.31-.12-.42 0l-3.49 3.49-.48-.57a5.67 5.67 0 0 0-4.47-2.17c-2.32 0-4.37 1.36-5.25 3.49C1.28 5.8.12 7.52.12 9.48c0 1.65.83 3.16 2.22 4.03.05.03.11.05.17.05.11 0 .21-.05.27-.15.09-.15.05-.35-.1-.45A4.08 4.08 0 0 1 .76 9.48c0-1.74 1.05-3.25 2.66-3.86l.14-.05.05-.14a5.01 5.01 0 0 1 4.71-3.21c1.55 0 3 .7 3.97 1.94l.52.62L.88 16.74a.29.29 0 0 0 0 .42.29.29 0 0 0 .42 0l2.87-2.87c.21.11.82.36 2.05.4h6.89c2.62 0 4.76-2.14 4.76-4.76 0-2.02-1.21-3.77-3.09-4.46Z" /><style>.msportalfx-svg-c01{fill:#fff}.msportalfx-svg-c02{fill:#e5e5e5}.msportalfx-svg-c03{fill:#a0a1a2}.msportalfx-svg-c04{fill:#7a7a7a}.msportalfx-svg-c05{fill:#3e3e3e}.msportalfx-svg-c06{fill:#1e1e1e}.msportalfx-svg-c07{fill:#0f0f0f}.msportalfx-svg-c08{fill:#ba141a}.msportalfx-svg-c09{fill:#dd5900}.msportalfx-svg-c10{fill:#ff8c00}.msportalfx-svg-c11{fill:#fcd116}.msportalfx-svg-c12{fill:#fee087}.msportalfx-svg-c13{fill:#b8d432}.msportalfx-svg-c14,.msportalfx-svg-c32{fill:#57a300}.msportalfx-svg-c15{fill:#59b4d9}.msportalfx-svg-c16{fill:#3999c6}.msportalfx-svg-c17{fill:#804998}.msportalfx-svg-c18{fill:#ec008c}.msportalfx-svg-c19{fill:#0072c6}.msportalfx-svg-c20{fill:#68217a}.msportalfx-svg-c21{fill:#00188f}.msportalfx-svg-c22{fill:#e81123}.fxs-mode-light .msportalfx-svg-c22{fill:#a4262c}.msportalfx-svg-c23{fill:#cae3f3}.msportalfx-svg-c24{fill:#59aed3}.msportalfx-svg-c25{fill:#4c3b12}.msportalfx-svg-c26{fill:#be9555}.msportalfx-svg-c27{fill:#4f4d52}.msportalfx-svg-c28{fill:#ef6f59}.msportalfx-svg-c29{fill:#f7cb64}.msportalfx-svg-c30{fill:#fdd8db}.msportalfx-svg-c31{fill:#f6ffec}.msportalfx-svg-c33{fill:#8a2da5}.msportalfx-svg-c34{fill:#e00b1c}.msportalfx-svg-c35{fill:#015cda}.msportalfx-svg-c36{fill:#5db300}.msportalfx-svg-c97{fill:#ffb900}.msportalfx-svg-c98{fill:#00a4ef}.msportalfx-svg-c99{fill:#f25022}.msportalfx-inverted-theme .msportalfx-svg-c05,.fxs-theme-dark .msportalfx-svg-c05{fill:#777}.msportalfx-inverted-theme .msportalfx-svg-c07,.fxs-theme-dark .msportalfx-svg-c07{fill:#f2f2f2}.msportalfx-svg-palette-white{fill:#fff}.msportalfx-svg-palette-blue{fill:#015cda}.msportalfx-svg-palette-black{fill:#1e1e1e}.msportalfx-svg-palette-green{fill:#57a300}.msportalfx-svg-palette-gray{fill:#a0a1a2}.msportalfx-svg-palette-inherit{fill:inherit}.msportalfx-svg-badge{position:absolute;left:0;bottom:0;min-height:10px;min-width:10px}.fxc-menu-icon&gt;.msportalfx-svg-badge{left:-2px;bottom:-2px;min-height:8px;min-width:8px}.msportalfx-svg-disabled{filter:grayscale(100%)}.msportalfx-svg-loading-square{animation:ProgressFlagAnimation 1.45s infinite ease-in-out;transform-origin:50%}.msportalfx-svg-loading-square:nth-child(1){animation-delay:0s}.msportalfx-svg-loading-square:nth-child(2){animation-delay:.2s}.msportalfx-svg-loading-square:nth-child(3){animation-delay:.4s}@keyframes ProgressFlagAnimation{0%{transform:scale(1);opacity:.3}36.1%{transform:scale(1.06);opacity:1}50%{transform:scale(1.06);opacity:1}86.1%{transform:scale(1);opacity:.3}}.msportalfx-svg-flip-horizontal&gt;svg,svg.msportalfx-svg-flip-horizontal{transform:scaleX(-1)}.msportalfx-svg-fabric-rotate360{animation:ImageRotation 1.3s cubic-bezier(.53,.21,.29,.67) infinite}@keyframes ImageRotation{0%{transform:rotate(-45deg)}100%{transform:rotate(315deg)}}.fxs-svg-number .msportalfx-font-bold{font-size:10px;fill:#0065ad}.fxs-svg-number .fxs-svg-circle{stroke-width:0%;fill:#0078d4}.fxs-svg-number .fxs-svg-text{fill:#fff;font-size:10px}.fxs-svg-number.msportalfx-svg-disabled{filter:grayscale(0%)}.fxs-svg-number.msportalfx-svg-disabled .fxs-svg-circle{fill:#fff;stroke-width:1px;stroke:#949494}.fxs-svg-number.msportalfx-svg-disabled .fxs-svg-text{fill:#949494}.fxs-theme-dark .fxs-svg-number .fxs-svg-text{fill:#0f0f0f}.fxs-theme-dark .fxs-svg-number .fxs-svg-circle{stroke-width:0%;fill:#0078d4}.fxs-theme-dark .fxs-svg-number.msportalfx-svg-disabled .fxs-svg-circle{fill:#0f0f0f;stroke-width:1px;stroke:#949494}.fxs-theme-dark .fxs-svg-number.msportalfx-svg-disabled .fxs-svg-text{fill:#949494}</style></svg>