<svg viewBox="0 0 18 18" class="msportalfx-svg-placeholder" xmlns="http://www.w3.org/2000/svg"><title>Edge Action</title><desc>Azure Edge Actions is security and performance focused service, that enables customers to run short-lived and simple business logic code at the edge of Microsoft network, closer to users, apps and devices with the least possible latencies in a industry leading secure environment.</desc><defs><linearGradient id="pp7MsEjJx__a" x1="-661.798" x2="-663.559" y1="1161.046" y2="1162.548" gradientTransform="rotate(-165.064 -399.375 543.527)" gradientUnits="userSpaceOnUse"><stop offset="0" stop-color="#ef7100" /><stop offset=".999" stop-color="#d15900" /></linearGradient><linearGradient id="pp7MsEjJx__b" x1="-903.02" x2="-904.17" y1="309.825" y2="310.806" gradientTransform="rotate(59.936 -180.505 949.466)" gradientUnits="userSpaceOnUse"><stop offset="0" stop-color="#ef7100" /><stop offset=".999" stop-color="#d15900" /></linearGradient><linearGradient id="pp7MsEjJx__c" x1="-188.087" x2="-189.386" y1="763.136" y2="764.243" gradientTransform="rotate(-75.064 -582.07 264.823)" gradientUnits="userSpaceOnUse"><stop offset="0" stop-color="#ef7100" /><stop offset=".999" stop-color="#d15900" /></linearGradient><linearGradient id="pp7MsEjJx__d" x1="-2.028" x2="-2.028" y1="776.223" y2="788.578" gradientTransform="matrix(1 0 0 -1 11.16 791.516)" gradientUnits="userSpaceOnUse"><stop offset="0" stop-color="#0078d4" /><stop offset=".82" stop-color="#5ea0ef" /></linearGradient><linearGradient id="pp7MsEjJx__e" x1="-904.985" x2="-900.003" y1="309.842" y2="314.824" gradientTransform="rotate(59.936 -180.505 949.466)" gradientUnits="userSpaceOnUse"><stop offset="0" stop-color="#ffb045" /><stop offset=".999" stop-color="#f27a0d" /></linearGradient><linearGradient id="pp7MsEjJx__f" x1="-190.264" x2="-185.282" y1="763.24" y2="768.222" gradientTransform="rotate(-75.064 -582.07 264.823)" gradientUnits="userSpaceOnUse"><stop offset="0" stop-color="#ffb045" /><stop offset=".999" stop-color="#f27a0d" /></linearGradient><linearGradient id="pp7MsEjJx__g" x1="-665.181" x2="-660.199" y1="1160.668" y2="1165.65" gradientTransform="rotate(-165.064 -399.375 543.527)" gradientUnits="userSpaceOnUse"><stop offset="0" stop-color="#ffb045" /><stop offset=".999" stop-color="#f27a0d" /></linearGradient></defs><path fill="url(#pp7MsEjJx__a)" d="M12.792 11.801s3.901 3.871 3.481 4.251-4.507-3.002-4.507-3.002" /><path fill="url(#pp7MsEjJx__b)" d="M9.731 4.769s.211-2.828.777-2.799.835 2.673.835 2.673" /><path fill="url(#pp7MsEjJx__c)" d="M2.71 12.721S.561 14.899.181 14.479s1.279-2.785 1.279-2.785" /><path fill="url(#pp7MsEjJx__d)" d="M17.839 11.415a3.87 3.87 0 0 0-3.396-3.705 4.933 4.933 0 0 0-5.079-4.769A5.06 5.06 0 0 0 4.527 6.24a4.67 4.67 0 0 0-4.102 4.488 4.74 4.74 0 0 0 4.905 4.557h8.368a.8.8 0 0 0 .213 0 3.957 3.957 0 0 0 3.928-3.87" /><path fill="#f2f2f2" d="M6.761 8.783h4.705v6.509H6.761z" /><path fill="url(#pp7MsEjJx__e)" d="m9.149 7.799 2.002-2.006h-.549v.001l-.394.003c-.028-.267-.213-3.855.314-3.828q.015.001.03.005a.7.7 0 0 0-.221-.046c-.301-.017-.393-.006-.393-.006l-1.45.002a.484.484 0 0 0-.483.484l.012 3.389h-.874z" /><path fill="url(#pp7MsEjJx__f)" d="m5.263 11.318-2.834.003.389.388.281.277c-.17.209-2.575 2.877-2.929 2.485q-.01-.012-.018-.025c.024.056.061.12.124.189.201.225.273.282.273.282l1.026 1.024a.484.484 0 0 0 .683 0l2.388-2.405.619.617-.004-2.834Z" /><path fill="url(#pp7MsEjJx__g)" d="m13.112 10.97.003 2.834.388-.389.277-.281c.209.17 2.877 2.575 2.485 2.929l-.025.018a.7.7 0 0 0 .189-.124c.225-.201.282-.273.282-.273l1.024-1.026a.484.484 0 0 0 0-.683l-2.405-2.388.617-.619-2.834.004Z" /><style>.msportalfx-svg-c01{fill:#fff}.msportalfx-svg-c02{fill:#e5e5e5}.msportalfx-svg-c03{fill:#a0a1a2}.msportalfx-svg-c04{fill:#7a7a7a}.msportalfx-svg-c05{fill:#3e3e3e}.msportalfx-svg-c06{fill:#1e1e1e}.msportalfx-svg-c07{fill:#0f0f0f}.msportalfx-svg-c08{fill:#ba141a}.msportalfx-svg-c09{fill:#dd5900}.msportalfx-svg-c10{fill:#ff8c00}.msportalfx-svg-c11{fill:#fcd116}.msportalfx-svg-c12{fill:#fee087}.msportalfx-svg-c13{fill:#b8d432}.msportalfx-svg-c14,.msportalfx-svg-c32{fill:#57a300}.msportalfx-svg-c15{fill:#59b4d9}.msportalfx-svg-c16{fill:#3999c6}.msportalfx-svg-c17{fill:#804998}.msportalfx-svg-c18{fill:#ec008c}.msportalfx-svg-c19{fill:#0072c6}.msportalfx-svg-c20{fill:#68217a}.msportalfx-svg-c21{fill:#00188f}.msportalfx-svg-c22{fill:#e81123}.fxs-mode-light .msportalfx-svg-c22{fill:#a4262c}.msportalfx-svg-c23{fill:#cae3f3}.msportalfx-svg-c24{fill:#59aed3}.msportalfx-svg-c25{fill:#4c3b12}.msportalfx-svg-c26{fill:#be9555}.msportalfx-svg-c27{fill:#4f4d52}.msportalfx-svg-c28{fill:#ef6f59}.msportalfx-svg-c29{fill:#f7cb64}.msportalfx-svg-c30{fill:#fdd8db}.msportalfx-svg-c31{fill:#f6ffec}.msportalfx-svg-c33{fill:#8a2da5}.msportalfx-svg-c34{fill:#e00b1c}.msportalfx-svg-c35{fill:#015cda}.msportalfx-svg-c36{fill:#5db300}.msportalfx-svg-c97{fill:#ffb900}.msportalfx-svg-c98{fill:#00a4ef}.msportalfx-svg-c99{fill:#f25022}.msportalfx-inverted-theme .msportalfx-svg-c05,.fxs-theme-dark .msportalfx-svg-c05{fill:#777}.msportalfx-inverted-theme .msportalfx-svg-c07,.fxs-theme-dark .msportalfx-svg-c07{fill:#f2f2f2}.msportalfx-svg-palette-white{fill:#fff}.msportalfx-svg-palette-blue{fill:#015cda}.msportalfx-svg-palette-black{fill:#1e1e1e}.msportalfx-svg-palette-green{fill:#57a300}.msportalfx-svg-palette-gray{fill:#a0a1a2}.msportalfx-svg-palette-inherit{fill:inherit}.msportalfx-svg-badge{position:absolute;left:0;bottom:0;min-height:10px;min-width:10px}.fxc-menu-icon&gt;.msportalfx-svg-badge{left:-2px;bottom:-2px;min-height:8px;min-width:8px}.msportalfx-svg-disabled{filter:grayscale(100%)}.msportalfx-svg-loading-square{animation:ProgressFlagAnimation 1.45s infinite ease-in-out;transform-origin:50%}.msportalfx-svg-loading-square:nth-child(1){animation-delay:0s}.msportalfx-svg-loading-square:nth-child(2){animation-delay:.2s}.msportalfx-svg-loading-square:nth-child(3){animation-delay:.4s}@keyframes ProgressFlagAnimation{0%{transform:scale(1);opacity:.3}36.1%{transform:scale(1.06);opacity:1}50%{transform:scale(1.06);opacity:1}86.1%{transform:scale(1);opacity:.3}}.msportalfx-svg-flip-horizontal&gt;svg,svg.msportalfx-svg-flip-horizontal{transform:scaleX(-1)}.msportalfx-svg-fabric-rotate360{animation:ImageRotation 1.3s cubic-bezier(.53,.21,.29,.67) infinite}@keyframes ImageRotation{0%{transform:rotate(-45deg)}100%{transform:rotate(315deg)}}.fxs-svg-number .msportalfx-font-bold{font-size:10px;fill:#0065ad}.fxs-svg-number .fxs-svg-circle{stroke-width:0%;fill:#0078d4}.fxs-svg-number .fxs-svg-text{fill:#fff;font-size:10px}.fxs-svg-number.msportalfx-svg-disabled{filter:grayscale(0%)}.fxs-svg-number.msportalfx-svg-disabled .fxs-svg-circle{fill:#fff;stroke-width:1px;stroke:#949494}.fxs-svg-number.msportalfx-svg-disabled .fxs-svg-text{fill:#949494}.fxs-theme-dark .fxs-svg-number .fxs-svg-text{fill:#0f0f0f}.fxs-theme-dark .fxs-svg-number .fxs-svg-circle{stroke-width:0%;fill:#0078d4}.fxs-theme-dark .fxs-svg-number.msportalfx-svg-disabled .fxs-svg-circle{fill:#0f0f0f;stroke-width:1px;stroke:#949494}.fxs-theme-dark .fxs-svg-number.msportalfx-svg-disabled .fxs-svg-text{fill:#949494}</style></svg>