<svg fill="none" viewBox="0 0 18 18" class="msportalfx-svg-placeholder"><path fill="url(#pKf4lYIu-__a)" d="M14.114 6.871a3.16 3.16 0 0 0-2.75-3.047A3.996 3.996 0 0 0 7.247.002a4.1 4.1 0 0 0-3.92 2.665A3.784 3.784 0 0 0 0 6.307a3.84 3.84 0 0 0 3.974 3.69l.35-.013h6.439a.6.6 0 0 0 .17-.026 3.21 3.21 0 0 0 3.18-3.086z"/><path fill="url(#pKf4lYIu-__b)" d="M17.432 5.959H5.429A.43.43 0 0 0 5 6.387v7.716c0 .237.192.43.429.43h12.003a.43.43 0 0 0 .428-.43V6.387a.43.43 0 0 0-.428-.428"/><path fill="url(#pKf4lYIu-__c)" d="M14.01 17.126c-1.272-.2-1.322-1.115-1.322-2.594h-2.523c0 1.479-.042 2.393-1.314 2.593a.715.715 0 0 0-.636.715h6.43a.714.714 0 0 0-.636-.715"/><path fill="url(#pKf4lYIu-__d)" d="m8.056 9.912.231-.231 1.824 1.829a.105.105 0 0 1 0 .148l-.232.23a.105.105 0 0 1-.148 0l-1.676-1.68a.21.21 0 0 1 0-.297"/><path fill="#F2F2F2" d="m8.284 10.44-.231-.232a.21.21 0 0 1 0-.296l1.71-1.706a.105.105 0 0 1 .149 0l.23.232a.105.105 0 0 1 0 .148z"/><path fill="url(#pKf4lYIu-__e)" d="m12.981 11.89-.232-.23a.104.104 0 0 1 0-.149l1.826-1.831.232.231a.21.21 0 0 1 0 .297L13.13 11.89a.105.105 0 0 1-.149 0"/><path fill="#F2F2F2" d="m12.714 8.44.231-.232a.105.105 0 0 1 .148 0l1.71 1.705a.21.21 0 0 1 .001.296l-.231.232-1.857-1.852a.105.105 0 0 1-.002-.15m-.289-.807-.37-.119a.075.075 0 0 0-.094.049l-1.508 4.712a.074.074 0 0 0 .048.094l.37.119c.04.012.082-.01.094-.049l1.509-4.712a.075.075 0 0 0-.049-.094"/><defs><linearGradient id="pKf4lYIu-__a" x1="7.106" x2="7.106" y1="10.035" y2=".002" gradientUnits="userSpaceOnUse"><stop stop-color="#198AB3"/><stop offset=".11" stop-color="#22A5CB"/><stop offset=".23" stop-color="#29BADE"/><stop offset=".37" stop-color="#2EC9EB"/><stop offset=".53" stop-color="#31D1F3"/><stop offset=".78" stop-color="#32D4F5"/></linearGradient><linearGradient id="pKf4lYIu-__b" x1="11.43" x2="11.43" y1="14.532" y2="5.959" gradientUnits="userSpaceOnUse"><stop stop-color="#0078D4"/><stop offset=".82" stop-color="#5EA0EF"/></linearGradient><linearGradient id="pKf4lYIu-__c" x1="11.43" x2="11.43" y1="17.84" y2="14.532" gradientUnits="userSpaceOnUse"><stop offset=".15" stop-color="#CCC"/><stop offset="1" stop-color="#707070"/></linearGradient><linearGradient id="pKf4lYIu-__d" x1="7.994" x2="10.144" y1="10.801" y2="10.801" gradientUnits="userSpaceOnUse"><stop stop-color="#5EA0EF"/><stop offset=".372" stop-color="#9FC6F5"/><stop offset=".8" stop-color="#E4EFFC"/><stop offset="1" stop-color="#fff"/></linearGradient><linearGradient id="pKf4lYIu-__e" x1="12.718" x2="14.868" y1="10.801" y2="10.801" gradientUnits="userSpaceOnUse"><stop stop-color="#fff"/><stop offset=".2" stop-color="#E4EFFC"/><stop offset=".628" stop-color="#9FC6F5"/><stop offset="1" stop-color="#5EA0EF"/></linearGradient></defs><style>.msportalfx-svg-c01{fill:#fff}.msportalfx-svg-c02{fill:#e5e5e5}.msportalfx-svg-c03{fill:#a0a1a2}.msportalfx-svg-c04{fill:#7a7a7a}.msportalfx-svg-c05{fill:#3e3e3e}.msportalfx-svg-c06{fill:#1e1e1e}.msportalfx-svg-c07{fill:#0f0f0f}.msportalfx-svg-c08{fill:#ba141a}.msportalfx-svg-c09{fill:#dd5900}.msportalfx-svg-c10{fill:#ff8c00}.msportalfx-svg-c11{fill:#fcd116}.msportalfx-svg-c12{fill:#fee087}.msportalfx-svg-c13{fill:#b8d432}.msportalfx-svg-c14,.msportalfx-svg-c32{fill:#57a300}.msportalfx-svg-c15{fill:#59b4d9}.msportalfx-svg-c16{fill:#3999c6}.msportalfx-svg-c17{fill:#804998}.msportalfx-svg-c18{fill:#ec008c}.msportalfx-svg-c19{fill:#0072c6}.msportalfx-svg-c20{fill:#68217a}.msportalfx-svg-c21{fill:#00188f}.msportalfx-svg-c22{fill:#e81123}.fxs-mode-light .msportalfx-svg-c22{fill:#a4262c}.msportalfx-svg-c23{fill:#cae3f3}.msportalfx-svg-c24{fill:#59aed3}.msportalfx-svg-c25{fill:#4c3b12}.msportalfx-svg-c26{fill:#be9555}.msportalfx-svg-c27{fill:#4f4d52}.msportalfx-svg-c28{fill:#ef6f59}.msportalfx-svg-c29{fill:#f7cb64}.msportalfx-svg-c30{fill:#fdd8db}.msportalfx-svg-c31{fill:#f6ffec}.msportalfx-svg-c33{fill:#8a2da5}.msportalfx-svg-c34{fill:#e00b1c}.msportalfx-svg-c35{fill:#015cda}.msportalfx-svg-c36{fill:#5db300}.msportalfx-svg-c97{fill:#ffb900}.msportalfx-svg-c98{fill:#00a4ef}.msportalfx-svg-c99{fill:#f25022}.msportalfx-inverted-theme .msportalfx-svg-c05,.fxs-theme-dark .msportalfx-svg-c05{fill:#777}.msportalfx-inverted-theme .msportalfx-svg-c07,.fxs-theme-dark .msportalfx-svg-c07{fill:#f2f2f2}.msportalfx-svg-palette-white{fill:#fff}.msportalfx-svg-palette-blue{fill:#015cda}.msportalfx-svg-palette-black{fill:#1e1e1e}.msportalfx-svg-palette-green{fill:#57a300}.msportalfx-svg-palette-gray{fill:#a0a1a2}.msportalfx-svg-palette-inherit{fill:inherit}.msportalfx-svg-badge{position:absolute;left:0;bottom:0;min-height:10px;min-width:10px}.fxc-menu-icon>.msportalfx-svg-badge{left:-2px;bottom:-2px;min-height:8px;min-width:8px}.msportalfx-svg-disabled{filter:grayscale(100%)}.msportalfx-svg-loading-square{animation:ProgressFlagAnimation 1.45s infinite ease-in-out;transform-origin:50%}.msportalfx-svg-loading-square:nth-child(1){animation-delay:0s}.msportalfx-svg-loading-square:nth-child(2){animation-delay:.2s}.msportalfx-svg-loading-square:nth-child(3){animation-delay:.4s}@keyframes ProgressFlagAnimation{0%{transform:scale(1);opacity:.3}36.1%{transform:scale(1.06);opacity:1}50%{transform:scale(1.06);opacity:1}86.1%{transform:scale(1);opacity:.3}}.msportalfx-svg-flip-horizontal>svg,svg.msportalfx-svg-flip-horizontal{transform:scaleX(-1)}.msportalfx-svg-fabric-rotate360{animation:ImageRotation 1.3s cubic-bezier(.53,.21,.29,.67) infinite}@keyframes ImageRotation{0%{transform:rotate(-45deg)}100%{transform:rotate(315deg)}}.fxs-svg-number .msportalfx-font-bold{font-size:10px;fill:#0065ad}.fxs-svg-number .fxs-svg-circle{stroke-width:0%;fill:#0078d4}.fxs-svg-number .fxs-svg-text{fill:#fff;font-size:10px}.fxs-svg-number.msportalfx-svg-disabled{filter:grayscale(0%)}.fxs-svg-number.msportalfx-svg-disabled .fxs-svg-circle{fill:#fff;stroke-width:1px;stroke:#949494}.fxs-svg-number.msportalfx-svg-disabled .fxs-svg-text{fill:#949494}.fxs-theme-dark .fxs-svg-number .fxs-svg-text{fill:#0f0f0f}.fxs-theme-dark .fxs-svg-number .fxs-svg-circle{stroke-width:0%;fill:#0078d4}.fxs-theme-dark .fxs-svg-number.msportalfx-svg-disabled .fxs-svg-circle{fill:#0f0f0f;stroke-width:1px;stroke:#949494}.fxs-theme-dark .fxs-svg-number.msportalfx-svg-disabled .fxs-svg-text{fill:#949494}</style></svg>