<svg fill="none" viewBox="0 0 34 34" class="msportalfx-svg-placeholder" xmlns="http://www.w3.org/2000/svg"><title>Backup</title><desc></desc><g clip-path="url(#pErvTZhFF__a)"><path fill="url(#pErvTZhFF__b)" d="M34 14.923a5.84 5.84 0 0 0-5.062-5.667 7.35 7.35 0 0 0-7.556-7.027 7.56 7.56 0 0 0-7.215 4.968 6.95 6.95 0 0 0-6.12 6.706 7.064 7.064 0 0 0 7.31 6.875h12.788A5.91 5.91 0 0 0 34 14.923" /><path fill="#fff" d="m27.181 9.86-3.456-3.362c-.378-.378-.7-.246-.7.34v1.51a.416.416 0 0 1-.434.416c-2.229 0-8.443.586-8.67 9.086a.434.434 0 0 0 .435.434h2.21a.434.434 0 0 0 .434-.472 5.212 5.212 0 0 1 5.667-6.29.434.434 0 0 1 .434.434v1.398c0 .7.227.812.7.34l3.38-3.117a.435.435 0 0 0 0-.717" /><path fill="url(#pErvTZhFF__c)" d="M26.671 25.802a5.99 5.99 0 0 0-5.194-5.76 7.556 7.556 0 0 0-7.783-7.235 7.74 7.74 0 0 0-7.404 5.062A7.14 7.14 0 0 0 0 24.745a7.253 7.253 0 0 0 7.556 6.97h12.806q.16.03.321 0a6.064 6.064 0 0 0 5.988-5.913" /></g><defs><linearGradient id="pErvTZhFF__b" x1="21.023" x2="21.023" y1="20.684" y2="2.286" gradientUnits="userSpaceOnUse"><stop stop-color="#0078D4" /><stop offset=".16" stop-color="#1380DA" /><stop offset=".53" stop-color="#3C91E5" /><stop offset=".82" stop-color="#559CEC" /><stop offset="1" stop-color="#5EA0EF" /></linearGradient><linearGradient id="pErvTZhFF__c" x1="13.336" x2="13.336" y1="31.715" y2="12.807" gradientUnits="userSpaceOnUse"><stop stop-color="#198AB3" /><stop offset=".13" stop-color="#21A0C7" /><stop offset=".31" stop-color="#28B7DB" /><stop offset=".5" stop-color="#2EC7EA" /><stop offset=".72" stop-color="#31D1F2" /><stop offset="1" stop-color="#32D4F5" /></linearGradient><clipPath id="pErvTZhFF__a"><path fill="#fff" d="M0 0h34v34H0z" /></clipPath></defs><style>.msportalfx-svg-c01{fill:#fff}.msportalfx-svg-c02{fill:#e5e5e5}.msportalfx-svg-c03{fill:#a0a1a2}.msportalfx-svg-c04{fill:#7a7a7a}.msportalfx-svg-c05{fill:#3e3e3e}.msportalfx-svg-c06{fill:#1e1e1e}.msportalfx-svg-c07{fill:#0f0f0f}.msportalfx-svg-c08{fill:#ba141a}.msportalfx-svg-c09{fill:#dd5900}.msportalfx-svg-c10{fill:#ff8c00}.msportalfx-svg-c11{fill:#fcd116}.msportalfx-svg-c12{fill:#fee087}.msportalfx-svg-c13{fill:#b8d432}.msportalfx-svg-c14,.msportalfx-svg-c32{fill:#57a300}.msportalfx-svg-c15{fill:#59b4d9}.msportalfx-svg-c16{fill:#3999c6}.msportalfx-svg-c17{fill:#804998}.msportalfx-svg-c18{fill:#ec008c}.msportalfx-svg-c19{fill:#0072c6}.msportalfx-svg-c20{fill:#68217a}.msportalfx-svg-c21{fill:#00188f}.msportalfx-svg-c22{fill:#e81123}.fxs-mode-light .msportalfx-svg-c22{fill:#a4262c}.msportalfx-svg-c23{fill:#cae3f3}.msportalfx-svg-c24{fill:#59aed3}.msportalfx-svg-c25{fill:#4c3b12}.msportalfx-svg-c26{fill:#be9555}.msportalfx-svg-c27{fill:#4f4d52}.msportalfx-svg-c28{fill:#ef6f59}.msportalfx-svg-c29{fill:#f7cb64}.msportalfx-svg-c30{fill:#fdd8db}.msportalfx-svg-c31{fill:#f6ffec}.msportalfx-svg-c33{fill:#8a2da5}.msportalfx-svg-c34{fill:#e00b1c}.msportalfx-svg-c35{fill:#015cda}.msportalfx-svg-c36{fill:#5db300}.msportalfx-svg-c97{fill:#ffb900}.msportalfx-svg-c98{fill:#00a4ef}.msportalfx-svg-c99{fill:#f25022}.msportalfx-inverted-theme .msportalfx-svg-c05,.fxs-theme-dark .msportalfx-svg-c05{fill:#777}.msportalfx-inverted-theme .msportalfx-svg-c07,.fxs-theme-dark .msportalfx-svg-c07{fill:#f2f2f2}.msportalfx-svg-palette-white{fill:#fff}.msportalfx-svg-palette-blue{fill:#015cda}.msportalfx-svg-palette-black{fill:#1e1e1e}.msportalfx-svg-palette-green{fill:#57a300}.msportalfx-svg-palette-gray{fill:#a0a1a2}.msportalfx-svg-palette-inherit{fill:inherit}.msportalfx-svg-badge{position:absolute;left:0;bottom:0;min-height:10px;min-width:10px}.fxc-menu-icon&gt;.msportalfx-svg-badge{left:-2px;bottom:-2px;min-height:8px;min-width:8px}.msportalfx-svg-disabled{filter:grayscale(100%)}.msportalfx-svg-loading-square{animation:ProgressFlagAnimation 1.45s infinite ease-in-out;transform-origin:50%}.msportalfx-svg-loading-square:nth-child(1){animation-delay:0s}.msportalfx-svg-loading-square:nth-child(2){animation-delay:.2s}.msportalfx-svg-loading-square:nth-child(3){animation-delay:.4s}@keyframes ProgressFlagAnimation{0%{transform:scale(1);opacity:.3}36.1%{transform:scale(1.06);opacity:1}50%{transform:scale(1.06);opacity:1}86.1%{transform:scale(1);opacity:.3}}.msportalfx-svg-flip-horizontal&gt;svg,svg.msportalfx-svg-flip-horizontal{transform:scaleX(-1)}.msportalfx-svg-fabric-rotate360{animation:ImageRotation 1.3s cubic-bezier(.53,.21,.29,.67) infinite}@keyframes ImageRotation{0%{transform:rotate(-45deg)}100%{transform:rotate(315deg)}}.fxs-svg-number .msportalfx-font-bold{font-size:10px;fill:#0065ad}.fxs-svg-number .fxs-svg-circle{stroke-width:0%;fill:#0078d4}.fxs-svg-number .fxs-svg-text{fill:#fff;font-size:10px}.fxs-svg-number.msportalfx-svg-disabled{filter:grayscale(0%)}.fxs-svg-number.msportalfx-svg-disabled .fxs-svg-circle{fill:#fff;stroke-width:1px;stroke:#949494}.fxs-svg-number.msportalfx-svg-disabled .fxs-svg-text{fill:#949494}.fxs-theme-dark .fxs-svg-number .fxs-svg-text{fill:#0f0f0f}.fxs-theme-dark .fxs-svg-number .fxs-svg-circle{stroke-width:0%;fill:#0078d4}.fxs-theme-dark .fxs-svg-number.msportalfx-svg-disabled .fxs-svg-circle{fill:#0f0f0f;stroke-width:1px;stroke:#949494}.fxs-theme-dark .fxs-svg-number.msportalfx-svg-disabled .fxs-svg-text{fill:#949494}</style></svg>