<svg fill="none" viewBox="0 0 17 15" class="msportalfx-svg-placeholder" xmlns="http://www.w3.org/2000/svg"><title>Scale backup policy</title><desc></desc><g clip-path="url(#psLHEg7zY__a)"><path fill="url(#psLHEg7zY__b)" d="M15 6.583a2.575 2.575 0 0 0-2.233-2.5 3.24 3.24 0 0 0-3.334-3.1A3.33 3.33 0 0 0 6.25 3.175a3.07 3.07 0 0 0-2.7 2.958 3.116 3.116 0 0 0 3.225 3.034h5.642A2.61 2.61 0 0 0 15 6.583" /><path fill="#fff" d="m11.992 4.35-1.525-1.484c-.167-.166-.309-.108-.309.15v.667a.184.184 0 0 1-.191.183c-.984 0-3.725.259-3.825 4.009a.19.19 0 0 0 .191.191h.975a.19.19 0 0 0 .192-.208A2.3 2.3 0 0 1 10 5.083a.19.19 0 0 1 .192.192v.616q-.002.463.308.15l1.492-1.375a.192.192 0 0 0 0-.316" /><path fill="url(#psLHEg7zY__c)" d="M11.767 11.383a2.64 2.64 0 0 0-2.292-2.541A3.333 3.333 0 0 0 6.042 5.65a3.42 3.42 0 0 0-3.267 2.233A3.15 3.15 0 0 0 0 10.917a3.2 3.2 0 0 0 3.333 3.075h5.65a.4.4 0 0 0 .142 0 2.675 2.675 0 0 0 2.642-2.609" /></g><g clip-path="url(#psLHEg7zY__d)"><path fill="url(#psLHEg7zY__e)" d="M12.947 13.818a3.778 3.778 0 1 0 0-7.556 3.778 3.778 0 0 0 0 7.556" /><path fill="#fff" d="M12.964 13.329a3.289 3.289 0 1 0 0-6.578 3.289 3.289 0 0 0 0 6.578" /><path fill="#7A7A7A" d="m14.887 7.978-.4.399.13.129.398-.4zm.869 1.969h-.565v.182h.565zM14.59 11.54l-.129.13.4.399.128-.13zm-1.537.718h-.182v.564h.182zM11.018 7.96l-.129.128.4.4.128-.13zm.298 3.595-.399.399.13.128.398-.399zm-.618-1.608h-.565v.182h.565zm2.311-2.689h-.045a.23.23 0 0 0-.23.23v2.436c0 .128.103.232.23.232h.045a.23.23 0 0 0 .231-.232V7.49a.23.23 0 0 0-.231-.231" /><path fill="#7A7A7A" d="m14.29 11.403.03-.032a.23.23 0 0 0 0-.326l-.955-.956a.23.23 0 0 0-.327 0l-.031.032a.23.23 0 0 0 0 .326l.955.956c.09.09.237.09.327 0" /><path fill="url(#psLHEg7zY__f)" d="M12.965 10.57a.533.533 0 1 0 0-1.068.533.533 0 0 0 0 1.067" /></g><defs><radialGradient id="psLHEg7zY__e" cx="0" cy="0" r="1" gradientTransform="translate(12.966 10.002)scale(3.76)" gradientUnits="userSpaceOnUse"><stop offset=".18" stop-color="#5EA0EF" /><stop offset=".56" stop-color="#5C9FEE" /><stop offset=".69" stop-color="#559CED" /><stop offset=".78" stop-color="#4A97E9" /><stop offset=".86" stop-color="#3990E4" /><stop offset=".93" stop-color="#2387DE" /><stop offset=".99" stop-color="#087BD6" /><stop offset="1" stop-color="#0078D4" /></radialGradient><radialGradient id="psLHEg7zY__f" cx="0" cy="0" r="1" gradientTransform="translate(12.973 10.022)scale(.5264)" gradientUnits="userSpaceOnUse"><stop stop-color="#7F7F7F" /><stop offset="1" stop-color="#5E5E5E" /></radialGradient><linearGradient id="psLHEg7zY__b" x1="9.275" x2="9.275" y1="9.125" y2="1.008" gradientUnits="userSpaceOnUse"><stop stop-color="#0078D4" /><stop offset=".16" stop-color="#1380DA" /><stop offset=".53" stop-color="#3C91E5" /><stop offset=".82" stop-color="#559CEC" /><stop offset="1" stop-color="#5EA0EF" /></linearGradient><linearGradient id="psLHEg7zY__c" x1="5.883" x2="5.883" y1="13.992" y2="5.65" gradientUnits="userSpaceOnUse"><stop stop-color="#198AB3" /><stop offset=".13" stop-color="#21A0C7" /><stop offset=".31" stop-color="#28B7DB" /><stop offset=".5" stop-color="#2EC7EA" /><stop offset=".72" stop-color="#31D1F2" /><stop offset="1" stop-color="#32D4F5" /></linearGradient><clipPath id="psLHEg7zY__a"><path fill="#fff" d="M0 0h15v15H0z" /></clipPath><clipPath id="psLHEg7zY__d"><path fill="#fff" d="M9 6h8v8H9z" /></clipPath></defs><style>.msportalfx-svg-c01{fill:#fff}.msportalfx-svg-c02{fill:#e5e5e5}.msportalfx-svg-c03{fill:#a0a1a2}.msportalfx-svg-c04{fill:#7a7a7a}.msportalfx-svg-c05{fill:#3e3e3e}.msportalfx-svg-c06{fill:#1e1e1e}.msportalfx-svg-c07{fill:#0f0f0f}.msportalfx-svg-c08{fill:#ba141a}.msportalfx-svg-c09{fill:#dd5900}.msportalfx-svg-c10{fill:#ff8c00}.msportalfx-svg-c11{fill:#fcd116}.msportalfx-svg-c12{fill:#fee087}.msportalfx-svg-c13{fill:#b8d432}.msportalfx-svg-c14,.msportalfx-svg-c32{fill:#57a300}.msportalfx-svg-c15{fill:#59b4d9}.msportalfx-svg-c16{fill:#3999c6}.msportalfx-svg-c17{fill:#804998}.msportalfx-svg-c18{fill:#ec008c}.msportalfx-svg-c19{fill:#0072c6}.msportalfx-svg-c20{fill:#68217a}.msportalfx-svg-c21{fill:#00188f}.msportalfx-svg-c22{fill:#e81123}.fxs-mode-light .msportalfx-svg-c22{fill:#a4262c}.msportalfx-svg-c23{fill:#cae3f3}.msportalfx-svg-c24{fill:#59aed3}.msportalfx-svg-c25{fill:#4c3b12}.msportalfx-svg-c26{fill:#be9555}.msportalfx-svg-c27{fill:#4f4d52}.msportalfx-svg-c28{fill:#ef6f59}.msportalfx-svg-c29{fill:#f7cb64}.msportalfx-svg-c30{fill:#fdd8db}.msportalfx-svg-c31{fill:#f6ffec}.msportalfx-svg-c33{fill:#8a2da5}.msportalfx-svg-c34{fill:#e00b1c}.msportalfx-svg-c35{fill:#015cda}.msportalfx-svg-c36{fill:#5db300}.msportalfx-svg-c97{fill:#ffb900}.msportalfx-svg-c98{fill:#00a4ef}.msportalfx-svg-c99{fill:#f25022}.msportalfx-inverted-theme .msportalfx-svg-c05,.fxs-theme-dark .msportalfx-svg-c05{fill:#777}.msportalfx-inverted-theme .msportalfx-svg-c07,.fxs-theme-dark .msportalfx-svg-c07{fill:#f2f2f2}.msportalfx-svg-palette-white{fill:#fff}.msportalfx-svg-palette-blue{fill:#015cda}.msportalfx-svg-palette-black{fill:#1e1e1e}.msportalfx-svg-palette-green{fill:#57a300}.msportalfx-svg-palette-gray{fill:#a0a1a2}.msportalfx-svg-palette-inherit{fill:inherit}.msportalfx-svg-badge{position:absolute;left:0;bottom:0;min-height:10px;min-width:10px}.fxc-menu-icon&gt;.msportalfx-svg-badge{left:-2px;bottom:-2px;min-height:8px;min-width:8px}.msportalfx-svg-disabled{filter:grayscale(100%)}.msportalfx-svg-loading-square{animation:ProgressFlagAnimation 1.45s infinite ease-in-out;transform-origin:50%}.msportalfx-svg-loading-square:nth-child(1){animation-delay:0s}.msportalfx-svg-loading-square:nth-child(2){animation-delay:.2s}.msportalfx-svg-loading-square:nth-child(3){animation-delay:.4s}@keyframes ProgressFlagAnimation{0%{transform:scale(1);opacity:.3}36.1%{transform:scale(1.06);opacity:1}50%{transform:scale(1.06);opacity:1}86.1%{transform:scale(1);opacity:.3}}.msportalfx-svg-flip-horizontal&gt;svg,svg.msportalfx-svg-flip-horizontal{transform:scaleX(-1)}.msportalfx-svg-fabric-rotate360{animation:ImageRotation 1.3s cubic-bezier(.53,.21,.29,.67) infinite}@keyframes ImageRotation{0%{transform:rotate(-45deg)}100%{transform:rotate(315deg)}}.fxs-svg-number .msportalfx-font-bold{font-size:10px;fill:#0065ad}.fxs-svg-number .fxs-svg-circle{stroke-width:0%;fill:#0078d4}.fxs-svg-number .fxs-svg-text{fill:#fff;font-size:10px}.fxs-svg-number.msportalfx-svg-disabled{filter:grayscale(0%)}.fxs-svg-number.msportalfx-svg-disabled .fxs-svg-circle{fill:#fff;stroke-width:1px;stroke:#949494}.fxs-svg-number.msportalfx-svg-disabled .fxs-svg-text{fill:#949494}.fxs-theme-dark .fxs-svg-number .fxs-svg-text{fill:#0f0f0f}.fxs-theme-dark .fxs-svg-number .fxs-svg-circle{stroke-width:0%;fill:#0078d4}.fxs-theme-dark .fxs-svg-number.msportalfx-svg-disabled .fxs-svg-circle{fill:#0f0f0f;stroke-width:1px;stroke:#949494}.fxs-theme-dark .fxs-svg-number.msportalfx-svg-disabled .fxs-svg-text{fill:#949494}</style></svg>