<svg xml:space="preserve" viewBox="0 0 50 50" class="msportalfx-svg-placeholder" xmlns="http://www.w3.org/2000/svg"><title>Scale snapshot</title><desc></desc><path fill="#FFF" d="M23.222 8.098a16.93 16.93 0 0 0-11.432 6.209 16.93 16.93 0 0 0-3.693 12.475 16.93 16.93 0 0 0 6.211 11.428 16.92 16.92 0 0 0 12.471 3.694 16.94 16.94 0 0 0 11.433-6.211 16.94 16.94 0 0 0 3.691-12.474c-.498-4.712-2.89-8.741-6.328-11.523-2.893-2.342-6.581-3.695-10.533-3.695q-.9.002-1.82.097" /><path fill="#3999C6" d="M44.887 22.906c-.582-5.55-3.417-10.306-7.418-13.542a19 19 0 0 0-2.48-1.68l-1.57 3.022c.664.394 1.309.819 1.908 1.306 3.357 2.716 5.693 6.65 6.178 11.25a16.54 16.54 0 0 1-3.603 12.181 16.54 16.54 0 0 1-11.164 6.065 16.5 16.5 0 0 1-8.595-1.409l-1.569 3.019a19.9 19.9 0 0 0 10.521 1.771 19.93 19.93 0 0 0 13.451-7.306 19.93 19.93 0 0 0 4.341-14.677" /><path fill="#A0A1A2" d="M14.561 37.9a16.54 16.54 0 0 1-6.065-11.159 16.54 16.54 0 0 1 3.606-12.182 16.52 16.52 0 0 1 11.161-6.062c3.69-.387 7.213.459 10.155 2.208l1.57-3.021a19.87 19.87 0 0 0-12.084-2.57 19.95 19.95 0 0 0-13.449 7.303l-.005.007a19.95 19.95 0 0 0-4.338 14.67 19.95 19.95 0 0 0 7.308 13.452 20 20 0 0 0 4.155 2.57l1.569-3.019a16.6 16.6 0 0 1-3.583-2.197" /><path fill="#59B4D9" d="M14.561 37.9a16.54 16.54 0 0 1-6.065-11.159 16.54 16.54 0 0 1 3.606-12.182 16.52 16.52 0 0 1 11.161-6.062c3.69-.387 7.213.459 10.155 2.208l1.57-3.021a19.87 19.87 0 0 0-12.084-2.57 19.95 19.95 0 0 0-13.449 7.303l-.005.007a19.95 19.95 0 0 0-4.338 14.67 19.95 19.95 0 0 0 7.308 13.452 20 20 0 0 0 4.155 2.57l1.569-3.019a16.6 16.6 0 0 1-3.583-2.197" /><path fill="#7A7A7A" d="m33.398 30.245-7.681-2.731a1.599 1.599 0 1 1 1.072-3.014l7.681 2.731a1.599 1.599 0 1 1-1.072 3.014" /><path fill="#7A7A7A" d="M23.586 25.55V12.071c0-.699.411-1.374 1.077-1.586a1.605 1.605 0 0 1 2.123 1.517v13.614a1.605 1.605 0 0 1-2.121 1.518c-.667-.21-1.079-.885-1.079-1.584" /><circle cx="24.841" cy="25.617" r="2.337" fill="#1E1E1E" /><path fill="#7A7A7A" d="m14.523 15.17.65-.65 2.011 2.012-.649.649zm9.863-4.661h.8v3.2h-.8zm8.322 6.114 2.012-2.011.649.649-2.012 2.012zm3.678 8.286h3.2v.8h-3.2zm-3.808 8.314.65-.65 2.01 2.013-.648.649z" /><path fill="#7A7A7A" d="m32.578 33.223.65-.65 2.01 2.013-.648.649zm-8.192 2.886h.8v3.2h-.8zM14.523 15.17l.65-.65 2.011 2.012-.649.649zm.14 19.5 2.012-2.013.649.65-2.012 2.011z" /><path fill="#7A7A7A" d="m14.663 34.67 2.012-2.013.649.65-2.012 2.011zm-3.877-9.761h3.2v.8h-3.2zM10 3H0v10h3V6h7zM0 37v10h10v-3H3v-7zm40 10h10V37h-3v7h-7zm10-34V3H40v3h7v7z" /><style>.msportalfx-svg-c01{fill:#fff}.msportalfx-svg-c02{fill:#e5e5e5}.msportalfx-svg-c03{fill:#a0a1a2}.msportalfx-svg-c04{fill:#7a7a7a}.msportalfx-svg-c05{fill:#3e3e3e}.msportalfx-svg-c06{fill:#1e1e1e}.msportalfx-svg-c07{fill:#0f0f0f}.msportalfx-svg-c08{fill:#ba141a}.msportalfx-svg-c09{fill:#dd5900}.msportalfx-svg-c10{fill:#ff8c00}.msportalfx-svg-c11{fill:#fcd116}.msportalfx-svg-c12{fill:#fee087}.msportalfx-svg-c13{fill:#b8d432}.msportalfx-svg-c14,.msportalfx-svg-c32{fill:#57a300}.msportalfx-svg-c15{fill:#59b4d9}.msportalfx-svg-c16{fill:#3999c6}.msportalfx-svg-c17{fill:#804998}.msportalfx-svg-c18{fill:#ec008c}.msportalfx-svg-c19{fill:#0072c6}.msportalfx-svg-c20{fill:#68217a}.msportalfx-svg-c21{fill:#00188f}.msportalfx-svg-c22{fill:#e81123}.fxs-mode-light .msportalfx-svg-c22{fill:#a4262c}.msportalfx-svg-c23{fill:#cae3f3}.msportalfx-svg-c24{fill:#59aed3}.msportalfx-svg-c25{fill:#4c3b12}.msportalfx-svg-c26{fill:#be9555}.msportalfx-svg-c27{fill:#4f4d52}.msportalfx-svg-c28{fill:#ef6f59}.msportalfx-svg-c29{fill:#f7cb64}.msportalfx-svg-c30{fill:#fdd8db}.msportalfx-svg-c31{fill:#f6ffec}.msportalfx-svg-c33{fill:#8a2da5}.msportalfx-svg-c34{fill:#e00b1c}.msportalfx-svg-c35{fill:#015cda}.msportalfx-svg-c36{fill:#5db300}.msportalfx-svg-c97{fill:#ffb900}.msportalfx-svg-c98{fill:#00a4ef}.msportalfx-svg-c99{fill:#f25022}.msportalfx-inverted-theme .msportalfx-svg-c05,.fxs-theme-dark .msportalfx-svg-c05{fill:#777}.msportalfx-inverted-theme .msportalfx-svg-c07,.fxs-theme-dark .msportalfx-svg-c07{fill:#f2f2f2}.msportalfx-svg-palette-white{fill:#fff}.msportalfx-svg-palette-blue{fill:#015cda}.msportalfx-svg-palette-black{fill:#1e1e1e}.msportalfx-svg-palette-green{fill:#57a300}.msportalfx-svg-palette-gray{fill:#a0a1a2}.msportalfx-svg-palette-inherit{fill:inherit}.msportalfx-svg-badge{position:absolute;left:0;bottom:0;min-height:10px;min-width:10px}.fxc-menu-icon&gt;.msportalfx-svg-badge{left:-2px;bottom:-2px;min-height:8px;min-width:8px}.msportalfx-svg-disabled{filter:grayscale(100%)}.msportalfx-svg-loading-square{animation:ProgressFlagAnimation 1.45s infinite ease-in-out;transform-origin:50%}.msportalfx-svg-loading-square:nth-child(1){animation-delay:0s}.msportalfx-svg-loading-square:nth-child(2){animation-delay:.2s}.msportalfx-svg-loading-square:nth-child(3){animation-delay:.4s}@keyframes ProgressFlagAnimation{0%{transform:scale(1);opacity:.3}36.1%{transform:scale(1.06);opacity:1}50%{transform:scale(1.06);opacity:1}86.1%{transform:scale(1);opacity:.3}}.msportalfx-svg-flip-horizontal&gt;svg,svg.msportalfx-svg-flip-horizontal{transform:scaleX(-1)}.msportalfx-svg-fabric-rotate360{animation:ImageRotation 1.3s cubic-bezier(.53,.21,.29,.67) infinite}@keyframes ImageRotation{0%{transform:rotate(-45deg)}100%{transform:rotate(315deg)}}.fxs-svg-number .msportalfx-font-bold{font-size:10px;fill:#0065ad}.fxs-svg-number .fxs-svg-circle{stroke-width:0%;fill:#0078d4}.fxs-svg-number .fxs-svg-text{fill:#fff;font-size:10px}.fxs-svg-number.msportalfx-svg-disabled{filter:grayscale(0%)}.fxs-svg-number.msportalfx-svg-disabled .fxs-svg-circle{fill:#fff;stroke-width:1px;stroke:#949494}.fxs-svg-number.msportalfx-svg-disabled .fxs-svg-text{fill:#949494}.fxs-theme-dark .fxs-svg-number .fxs-svg-text{fill:#0f0f0f}.fxs-theme-dark .fxs-svg-number .fxs-svg-circle{stroke-width:0%;fill:#0078d4}.fxs-theme-dark .fxs-svg-number.msportalfx-svg-disabled .fxs-svg-circle{fill:#0f0f0f;stroke-width:1px;stroke:#949494}.fxs-theme-dark .fxs-svg-number.msportalfx-svg-disabled .fxs-svg-text{fill:#949494}</style></svg>