<svg fill="none" viewBox="0 0 248 248" class="msportalfx-svg-placeholder" xmlns="http://www.w3.org/2000/svg"><title>Email Communication Services Domain</title><desc>Communication Email Services simplifies the integration of email capabilities to your applications, supporting transactional bookkeeping, simple surveys, and marketing emails.</desc><g clip-path="url(#pqK5HAZks__a)"><path fill="url(#pqK5HAZks__b)" d="m205.359 69.59-102.162 67.567L.69 69.467q.132-.258.344-.455h203.98c.111.234.276.344.345.578" /><path fill="url(#pqK5HAZks__c)" d="M205.013 69.013H1.033a5.3 5.3 0 0 1 1.723-1.833L99.53 1.377a6.39 6.39 0 0 1 7.219 0l96.541 65.858a5.2 5.2 0 0 1 1.722 1.778" /><path fill="#A67AF4" d="m103.196 137.158-.11.124L2.508 203.594l-.11-.124v-.11A6.36 6.36 0 0 1 0 198.551V72.443a6.4 6.4 0 0 1 .688-2.976z" /><path fill="#773ADC" d="M206.157 72.443v45.591a1.955 1.955 0 0 1-2.48 1.86 67.4 67.4 0 0 0-17.911-2.398 68.15 68.15 0 0 0-59.451 34.941l-23.119-15.28 102.162-67.51c.528.836.805 1.807.799 2.796" /><path fill="#552F99" d="M117.704 185.545a68 68 0 0 0 2.163 17.098 1.93 1.93 0 0 1-.32 1.689 1.92 1.92 0 0 1-1.54.764l-111.6-.138a5.78 5.78 0 0 1-3.885-1.378l-.124-.11v-.11l100.577-66.134.111.111 23.215 15.155a67.5 67.5 0 0 0-8.597 33.053" /><path fill="url(#pqK5HAZks__d)" d="M185.753 247.793c34.378 0 62.248-27.869 62.248-62.248s-27.87-62.248-62.248-62.248-62.248 27.869-62.248 62.248 27.869 62.248 62.248 62.248" /><path fill="#C3F1FF" d="M207.55 132.941a55 55 0 0 0-5.374-1.915l-.482-.138-1.474-.413c-.468-.138-.964-.248-1.378-.358a60 60 0 0 0-4.354-.854l-1.928-.262-2.591-.248h-4.312a57.1 57.1 0 0 0-22.747 4.822l-1.144.51a58.6 58.6 0 0 0-9.947 5.924l-.262.055-.703.524a56.81 56.81 0 0 0-22.044 43.841v.441a52.57 52.57 0 0 0 8.267 30.531 54.4 54.4 0 0 0 35.147 25.434l1.185.276.606.124c.427.096.868.179 1.295.248s1.171.22 1.763.303l1.791.248c.607 0 1.213.138 1.819.179l1.474.124h1.213a54.72 54.72 0 0 0 43.124-16.961A53.9 53.9 0 0 0 242.683 186a57 57 0 0 0-9.47-31.891 57 57 0 0 0-25.663-21.168m16.326 15.032a54.2 54.2 0 0 1-15.679 5.966 66.1 66.1 0 0 0-9.493-20.295 53.7 53.7 0 0 1 25.172 14.329m-16.533 64.962v.069a132 132 0 0 0-5.649-1.02 112.4 112.4 0 0 0-39.459 1.02 126.5 126.5 0 0 1 1.625-55.456 112.6 112.6 0 0 0 42.147.18 130.7 130.7 0 0 1 1.377 55.111zm-31.468-79.911a53.4 53.4 0 0 1 17.911-.331 56 56 0 0 1 11.339 21.907 112.3 112.3 0 0 1-40.369-.11 56.2 56.2 0 0 1 6.324-14.55 60 60 0 0 1 4.946-6.888zm-19.496 7.867a53.9 53.9 0 0 1 14.467-6.765 66.9 66.9 0 0 0-9.369 19.661 43.2 43.2 0 0 1-14.067-5.704 59 59 0 0 1 8.942-7.247zm-11.89 79.209a53.57 53.57 0 0 1 .813-69.606 46 46 0 0 0 15.376 6.393 131.4 131.4 0 0 0-1.764 56.944 43.8 43.8 0 0 0-14.453 6.213zm2.149 2.466a40.8 40.8 0 0 1 13.213-5.635 52.4 52.4 0 0 0 9.989 20.143 53.73 53.73 0 0 1-23.229-14.563zm28.989 15.789-.303-.331a43.9 43.9 0 0 1-12.4-21.92 110.4 110.4 0 0 1 43.51 0 45.6 45.6 0 0 1-12.4 22.623 49.8 49.8 0 0 1-18.407-.372m26.536-1.529c-.882.289-1.764.565-2.659.799a53 53 0 0 0 10.181-20.667 50.7 50.7 0 0 1 14.632 6.09 53.7 53.7 0 0 1-22.154 13.819zm24.373-16.258a53.8 53.8 0 0 0-14.798-6.462l-1.281-.344v-.193h.096a131.6 131.6 0 0 0-1.377-56.599 57.2 57.2 0 0 0 16.919-6.682 53.735 53.735 0 0 1 .441 70.321z" /></g><defs><linearGradient id="pqK5HAZks__b" x1="103.017" x2="103.017" y1="69.012" y2="137.157" gradientUnits="userSpaceOnUse"><stop offset=".16" stop-color="#50E6FF" /><stop offset="1" stop-color="#32BEDD" /></linearGradient><linearGradient id="pqK5HAZks__c" x1="103.017" x2="103.017" y1="1.102" y2="68.461" gradientUnits="userSpaceOnUse"><stop offset=".234" stop-color="#50E6FF" /><stop offset="1" stop-color="#32BEDD" /></linearGradient><linearGradient id="pqK5HAZks__d" x1="185.753" x2="185.753" y1="120.941" y2="250.838" gradientUnits="userSpaceOnUse"><stop offset=".234" stop-color="#50E6FF" /><stop offset="1" stop-color="#32BEDD" /></linearGradient><clipPath id="pqK5HAZks__a"><path fill="#fff" d="M0 0h248v248H0z" /></clipPath></defs><style>.msportalfx-svg-c01{fill:#fff}.msportalfx-svg-c02{fill:#e5e5e5}.msportalfx-svg-c03{fill:#a0a1a2}.msportalfx-svg-c04{fill:#7a7a7a}.msportalfx-svg-c05{fill:#3e3e3e}.msportalfx-svg-c06{fill:#1e1e1e}.msportalfx-svg-c07{fill:#0f0f0f}.msportalfx-svg-c08{fill:#ba141a}.msportalfx-svg-c09{fill:#dd5900}.msportalfx-svg-c10{fill:#ff8c00}.msportalfx-svg-c11{fill:#fcd116}.msportalfx-svg-c12{fill:#fee087}.msportalfx-svg-c13{fill:#b8d432}.msportalfx-svg-c14,.msportalfx-svg-c32{fill:#57a300}.msportalfx-svg-c15{fill:#59b4d9}.msportalfx-svg-c16{fill:#3999c6}.msportalfx-svg-c17{fill:#804998}.msportalfx-svg-c18{fill:#ec008c}.msportalfx-svg-c19{fill:#0072c6}.msportalfx-svg-c20{fill:#68217a}.msportalfx-svg-c21{fill:#00188f}.msportalfx-svg-c22{fill:#e81123}.fxs-mode-light .msportalfx-svg-c22{fill:#a4262c}.msportalfx-svg-c23{fill:#cae3f3}.msportalfx-svg-c24{fill:#59aed3}.msportalfx-svg-c25{fill:#4c3b12}.msportalfx-svg-c26{fill:#be9555}.msportalfx-svg-c27{fill:#4f4d52}.msportalfx-svg-c28{fill:#ef6f59}.msportalfx-svg-c29{fill:#f7cb64}.msportalfx-svg-c30{fill:#fdd8db}.msportalfx-svg-c31{fill:#f6ffec}.msportalfx-svg-c33{fill:#8a2da5}.msportalfx-svg-c34{fill:#e00b1c}.msportalfx-svg-c35{fill:#015cda}.msportalfx-svg-c36{fill:#5db300}.msportalfx-svg-c97{fill:#ffb900}.msportalfx-svg-c98{fill:#00a4ef}.msportalfx-svg-c99{fill:#f25022}.msportalfx-inverted-theme .msportalfx-svg-c05,.fxs-theme-dark .msportalfx-svg-c05{fill:#777}.msportalfx-inverted-theme .msportalfx-svg-c07,.fxs-theme-dark .msportalfx-svg-c07{fill:#f2f2f2}.msportalfx-svg-palette-white{fill:#fff}.msportalfx-svg-palette-blue{fill:#015cda}.msportalfx-svg-palette-black{fill:#1e1e1e}.msportalfx-svg-palette-green{fill:#57a300}.msportalfx-svg-palette-gray{fill:#a0a1a2}.msportalfx-svg-palette-inherit{fill:inherit}.msportalfx-svg-badge{position:absolute;left:0;bottom:0;min-height:10px;min-width:10px}.fxc-menu-icon&gt;.msportalfx-svg-badge{left:-2px;bottom:-2px;min-height:8px;min-width:8px}.msportalfx-svg-disabled{filter:grayscale(100%)}.msportalfx-svg-loading-square{animation:ProgressFlagAnimation 1.45s infinite ease-in-out;transform-origin:50%}.msportalfx-svg-loading-square:nth-child(1){animation-delay:0s}.msportalfx-svg-loading-square:nth-child(2){animation-delay:.2s}.msportalfx-svg-loading-square:nth-child(3){animation-delay:.4s}@keyframes ProgressFlagAnimation{0%{transform:scale(1);opacity:.3}36.1%{transform:scale(1.06);opacity:1}50%{transform:scale(1.06);opacity:1}86.1%{transform:scale(1);opacity:.3}}.msportalfx-svg-flip-horizontal&gt;svg,svg.msportalfx-svg-flip-horizontal{transform:scaleX(-1)}.msportalfx-svg-fabric-rotate360{animation:ImageRotation 1.3s cubic-bezier(.53,.21,.29,.67) infinite}@keyframes ImageRotation{0%{transform:rotate(-45deg)}100%{transform:rotate(315deg)}}.fxs-svg-number .msportalfx-font-bold{font-size:10px;fill:#0065ad}.fxs-svg-number .fxs-svg-circle{stroke-width:0%;fill:#0078d4}.fxs-svg-number .fxs-svg-text{fill:#fff;font-size:10px}.fxs-svg-number.msportalfx-svg-disabled{filter:grayscale(0%)}.fxs-svg-number.msportalfx-svg-disabled .fxs-svg-circle{fill:#fff;stroke-width:1px;stroke:#949494}.fxs-svg-number.msportalfx-svg-disabled .fxs-svg-text{fill:#949494}.fxs-theme-dark .fxs-svg-number .fxs-svg-text{fill:#0f0f0f}.fxs-theme-dark .fxs-svg-number .fxs-svg-circle{stroke-width:0%;fill:#0078d4}.fxs-theme-dark .fxs-svg-number.msportalfx-svg-disabled .fxs-svg-circle{fill:#0f0f0f;stroke-width:1px;stroke:#949494}.fxs-theme-dark .fxs-svg-number.msportalfx-svg-disabled .fxs-svg-text{fill:#949494}</style></svg>