<svg fill="none" viewBox="0 0 20 20" class="msportalfx-svg-placeholder" xmlns="http://www.w3.org/2000/svg"><title>Edge Machine</title><desc>Edge Machines</desc><g clip-path="url(#p8pyeuCnK__a)"><g clip-path="url(#p8pyeuCnK__b)"><path fill="url(#p8pyeuCnK__c)" d="M15.074 16.966a.62.62 0 0 1-.211.433.66.66 0 0 1-.463.162H4.062a.66.66 0 0 1-.463-.162.62.62 0 0 1-.212-.433V.595A.62.62 0 0 1 3.599.16.66.66 0 0 1 4.062 0H14.4c.17-.008.337.05.463.161a.62.62 0 0 1 .212.434z" /><path fill="#552F99" d="M13.46 7.512a1.3 1.3 0 0 0-.345-.939 1.35 1.35 0 0 0-.924-.427H6.375a1.35 1.35 0 0 0-.924.427 1.3 1.3 0 0 0-.346.939c-.016.345.108.683.346.938.238.256.57.41.924.428h5.816c.354-.018.686-.172.924-.428.238-.255.362-.593.346-.938M13.46 3.45a1.3 1.3 0 0 0-.345-.938 1.35 1.35 0 0 0-.924-.428H6.375a1.35 1.35 0 0 0-.924.428 1.3 1.3 0 0 0-.346.938c-.016.346.108.683.346.939s.57.41.924.427h5.816c.354-.018.686-.171.924-.427s.362-.593.346-.939" /><path fill="#50E6FF" d="M11.826 4.366c.519 0 .939-.41.939-.916a.93.93 0 0 0-.939-.916.93.93 0 0 0-.939.916c0 .506.42.916.939.916m0 4.057c.519 0 .939-.41.939-.916a.93.93 0 0 0-.939-.916.93.93 0 0 0-.939.916c0 .506.42.916.939.916" /></g><path fill="url(#p8pyeuCnK__d)" stroke="#fff" stroke-linejoin="round" d="M20.234 17.562a.5.5 0 0 1-.255.435l-4.33 2.439a.5.5 0 0 1-.49 0l-4.337-2.438a.5.5 0 0 1-.255-.437V12.7q0-.08.025-.157l.006-.017a.5.5 0 0 1 .23-.278l4.33-2.438.06-.029a.5.5 0 0 1 .431.029l4.33 2.438a.5.5 0 0 1 .255.436z" /><path fill="#7D4FCA" d="m11.079 12.691 4.32 2.424v4.878l-4.326-2.433v-4.852z" /><path fill="#fff" d="M13.268 15.572a.03.03 0 0 0-.03-.003l-.94.52c-.029.015-.01.079.03.1l.5.233.03.017a.1.1 0 0 1 .043.074l-.004 1.102a.26.26 0 0 0 .12.206l.373.217c.069.039.124.009.124-.067l.004-1.107c0-.027.02-.038.044-.025l.03.018.583.348c.039.021.058-.02.031-.066l-.907-1.535a.1.1 0 0 0-.03-.032" opacity=".9" /><path fill="#fff" d="m12.64 13.568 4.222-2.503 1.324.745-4.222 2.504v.793a.06.06 0 0 1-.04.056.06.06 0 0 1-.067-.018l-.56-.65a.06.06 0 0 0-.063-.02l-.52.109a.06.06 0 0 1-.068-.032l-.006-.026z" opacity=".5" /></g><defs><linearGradient id="p8pyeuCnK__c" x1="9.23" x2="9.23" y1="0" y2="17.561" gradientUnits="userSpaceOnUse"><stop stop-color="#A67AF4" /><stop offset=".999" stop-color="#773ADC" /></linearGradient><linearGradient id="p8pyeuCnK__d" x1="15.4" x2="15.4" y1="20" y2="10.244" gradientUnits="userSpaceOnUse"><stop stop-color="#552F99" /><stop offset="1" stop-color="#773ADC" /></linearGradient><clipPath id="p8pyeuCnK__a"><path fill="#fff" d="M0 0h20v20H0z" /></clipPath><clipPath id="p8pyeuCnK__b"><path fill="#fff" d="M0 0h18v17.561H0z" /></clipPath></defs><style>.msportalfx-svg-c01{fill:#fff}.msportalfx-svg-c02{fill:#e5e5e5}.msportalfx-svg-c03{fill:#a0a1a2}.msportalfx-svg-c04{fill:#7a7a7a}.msportalfx-svg-c05{fill:#3e3e3e}.msportalfx-svg-c06{fill:#1e1e1e}.msportalfx-svg-c07{fill:#0f0f0f}.msportalfx-svg-c08{fill:#ba141a}.msportalfx-svg-c09{fill:#dd5900}.msportalfx-svg-c10{fill:#ff8c00}.msportalfx-svg-c11{fill:#fcd116}.msportalfx-svg-c12{fill:#fee087}.msportalfx-svg-c13{fill:#b8d432}.msportalfx-svg-c14,.msportalfx-svg-c32{fill:#57a300}.msportalfx-svg-c15{fill:#59b4d9}.msportalfx-svg-c16{fill:#3999c6}.msportalfx-svg-c17{fill:#804998}.msportalfx-svg-c18{fill:#ec008c}.msportalfx-svg-c19{fill:#0072c6}.msportalfx-svg-c20{fill:#68217a}.msportalfx-svg-c21{fill:#00188f}.msportalfx-svg-c22{fill:#e81123}.fxs-mode-light .msportalfx-svg-c22{fill:#a4262c}.msportalfx-svg-c23{fill:#cae3f3}.msportalfx-svg-c24{fill:#59aed3}.msportalfx-svg-c25{fill:#4c3b12}.msportalfx-svg-c26{fill:#be9555}.msportalfx-svg-c27{fill:#4f4d52}.msportalfx-svg-c28{fill:#ef6f59}.msportalfx-svg-c29{fill:#f7cb64}.msportalfx-svg-c30{fill:#fdd8db}.msportalfx-svg-c31{fill:#f6ffec}.msportalfx-svg-c33{fill:#8a2da5}.msportalfx-svg-c34{fill:#e00b1c}.msportalfx-svg-c35{fill:#015cda}.msportalfx-svg-c36{fill:#5db300}.msportalfx-svg-c97{fill:#ffb900}.msportalfx-svg-c98{fill:#00a4ef}.msportalfx-svg-c99{fill:#f25022}.msportalfx-inverted-theme .msportalfx-svg-c05,.fxs-theme-dark .msportalfx-svg-c05{fill:#777}.msportalfx-inverted-theme .msportalfx-svg-c07,.fxs-theme-dark .msportalfx-svg-c07{fill:#f2f2f2}.msportalfx-svg-palette-white{fill:#fff}.msportalfx-svg-palette-blue{fill:#015cda}.msportalfx-svg-palette-black{fill:#1e1e1e}.msportalfx-svg-palette-green{fill:#57a300}.msportalfx-svg-palette-gray{fill:#a0a1a2}.msportalfx-svg-palette-inherit{fill:inherit}.msportalfx-svg-badge{position:absolute;left:0;bottom:0;min-height:10px;min-width:10px}.fxc-menu-icon&gt;.msportalfx-svg-badge{left:-2px;bottom:-2px;min-height:8px;min-width:8px}.msportalfx-svg-disabled{filter:grayscale(100%)}.msportalfx-svg-loading-square{animation:ProgressFlagAnimation 1.45s infinite ease-in-out;transform-origin:50%}.msportalfx-svg-loading-square:nth-child(1){animation-delay:0s}.msportalfx-svg-loading-square:nth-child(2){animation-delay:.2s}.msportalfx-svg-loading-square:nth-child(3){animation-delay:.4s}@keyframes ProgressFlagAnimation{0%{transform:scale(1);opacity:.3}36.1%{transform:scale(1.06);opacity:1}50%{transform:scale(1.06);opacity:1}86.1%{transform:scale(1);opacity:.3}}.msportalfx-svg-flip-horizontal&gt;svg,svg.msportalfx-svg-flip-horizontal{transform:scaleX(-1)}.msportalfx-svg-fabric-rotate360{animation:ImageRotation 1.3s cubic-bezier(.53,.21,.29,.67) infinite}@keyframes ImageRotation{0%{transform:rotate(-45deg)}100%{transform:rotate(315deg)}}.fxs-svg-number .msportalfx-font-bold{font-size:10px;fill:#0065ad}.fxs-svg-number .fxs-svg-circle{stroke-width:0%;fill:#0078d4}.fxs-svg-number .fxs-svg-text{fill:#fff;font-size:10px}.fxs-svg-number.msportalfx-svg-disabled{filter:grayscale(0%)}.fxs-svg-number.msportalfx-svg-disabled .fxs-svg-circle{fill:#fff;stroke-width:1px;stroke:#949494}.fxs-svg-number.msportalfx-svg-disabled .fxs-svg-text{fill:#949494}.fxs-theme-dark .fxs-svg-number .fxs-svg-text{fill:#0f0f0f}.fxs-theme-dark .fxs-svg-number .fxs-svg-circle{stroke-width:0%;fill:#0078d4}.fxs-theme-dark .fxs-svg-number.msportalfx-svg-disabled .fxs-svg-circle{fill:#0f0f0f;stroke-width:1px;stroke:#949494}.fxs-theme-dark .fxs-svg-number.msportalfx-svg-disabled .fxs-svg-text{fill:#949494}</style></svg>