<svg viewBox="0 0 18 18"><defs><linearGradient id="pPcCHGkF2__a" x1="6.328" x2="6.328" y1="777.235" y2="790.163" gradientTransform="matrix(1 0 0 -1 0 791.516)" gradientUnits="userSpaceOnUse"><stop offset=".261" stop-color="#76bc2d"/><stop offset=".683" stop-color="#81ce31"/><stop offset="1" stop-color="#86d633"/></linearGradient><linearGradient id="pPcCHGkF2__b" x1="9" x2="9" y1="9.887" y2="16.647" gradientUnits="userSpaceOnUse"><stop offset="0" stop-color="#5ea0ef"/><stop offset="1" stop-color="#0078d4"/></linearGradient></defs><path fill="url(#pPcCHGkF2__a)" d="M11.718 7.39c0 3.475-4.279 6.274-5.209 6.841a.34.34 0 0 1-.355 0C5.22 13.664.938 10.865.938 7.39V3.207c0-.183.149-.332.332-.332 3.33-.088 2.564-1.522 5.058-1.522s1.728 1.435 5.058 1.523c.183 0 .332.149.332.332z"/><path fill="url(#pPcCHGkF2__b)" d="M17.565 9.887h-6.072q-.594 1.158-1.729 2.312a16.6 16.6 0 0 1-3.035 2.395.77.77 0 0 1-.796 0c-.69-.419-3.477-2.223-4.763-4.707H.435a.435.435 0 0 0-.435.435v5.891c0 .24.195.435.435.435h17.13c.24 0 .435-.195.435-.435v-5.891a.435.435 0 0 0-.435-.435"/><path fill="#c3f1ff" d="M16.104 11.209h.78a.15.15 0 0 1 .15.15v.78a.15.15 0 0 1-.15.15h-.78a.15.15 0 0 1-.15-.15v-.782a.15.15 0 0 1 .15-.148m-2.16 0h.78a.15.15 0 0 1 .15.15v.78a.15.15 0 0 1-.15.15h-.78a.15.15 0 0 1-.15-.15v-.782a.15.15 0 0 1 .15-.148m-2.16 0h.78a.15.15 0 0 1 .15.15v.78a.15.15 0 0 1-.15.15h-.78a.15.15 0 0 1-.15-.15v-.782a.15.15 0 0 1 .15-.148"/><path fill="#fff" d="M8.343 5.455a2.015 2.015 0 1 0-2.499 1.953v2.324a.08.08 0 0 1-.081.081h-.807a.08.08 0 0 0-.081.081v.807a.08.08 0 0 0 .081.081h.807a.08.08 0 0 1 .081.081v.614a.08.08 0 0 0 .081.081h.807a.08.08 0 0 0 .081-.081v-4.07a2.015 2.015 0 0 0 1.531-1.952ZM6.466 6.502a1.056 1.056 0 1 1-.275-2.095 1.056 1.056 0 0 1 .275 2.095"/><style>.msportalfx-svg-c01{fill:#fff}.msportalfx-svg-c02{fill:#e5e5e5}.msportalfx-svg-c03{fill:#a0a1a2}.msportalfx-svg-c04{fill:#7a7a7a}.msportalfx-svg-c05{fill:#3e3e3e}.msportalfx-svg-c06{fill:#1e1e1e}.msportalfx-svg-c07{fill:#0f0f0f}.msportalfx-svg-c08{fill:#ba141a}.msportalfx-svg-c09{fill:#dd5900}.msportalfx-svg-c10{fill:#ff8c00}.msportalfx-svg-c11{fill:#fcd116}.msportalfx-svg-c12{fill:#fee087}.msportalfx-svg-c13{fill:#b8d432}.msportalfx-svg-c14,.msportalfx-svg-c32{fill:#57a300}.msportalfx-svg-c15{fill:#59b4d9}.msportalfx-svg-c16{fill:#3999c6}.msportalfx-svg-c17{fill:#804998}.msportalfx-svg-c18{fill:#ec008c}.msportalfx-svg-c19{fill:#0072c6}.msportalfx-svg-c20{fill:#68217a}.msportalfx-svg-c21{fill:#00188f}.msportalfx-svg-c22{fill:#e81123}.fxs-mode-light .msportalfx-svg-c22{fill:#a4262c}.msportalfx-svg-c23{fill:#cae3f3}.msportalfx-svg-c24{fill:#59aed3}.msportalfx-svg-c25{fill:#4c3b12}.msportalfx-svg-c26{fill:#be9555}.msportalfx-svg-c27{fill:#4f4d52}.msportalfx-svg-c28{fill:#ef6f59}.msportalfx-svg-c29{fill:#f7cb64}.msportalfx-svg-c30{fill:#fdd8db}.msportalfx-svg-c31{fill:#f6ffec}.msportalfx-svg-c33{fill:#8a2da5}.msportalfx-svg-c34{fill:#e00b1c}.msportalfx-svg-c35{fill:#015cda}.msportalfx-svg-c36{fill:#5db300}.msportalfx-svg-c97{fill:#ffb900}.msportalfx-svg-c98{fill:#00a4ef}.msportalfx-svg-c99{fill:#f25022}.msportalfx-inverted-theme .msportalfx-svg-c05,.fxs-theme-dark .msportalfx-svg-c05{fill:#777}.msportalfx-inverted-theme .msportalfx-svg-c07,.fxs-theme-dark .msportalfx-svg-c07{fill:#f2f2f2}.msportalfx-svg-palette-white{fill:#fff}.msportalfx-svg-palette-blue{fill:#015cda}.msportalfx-svg-palette-black{fill:#1e1e1e}.msportalfx-svg-palette-green{fill:#57a300}.msportalfx-svg-palette-gray{fill:#a0a1a2}.msportalfx-svg-palette-inherit{fill:inherit}.msportalfx-svg-badge{position:absolute;left:0;bottom:0;min-height:10px;min-width:10px}.fxc-menu-icon>.msportalfx-svg-badge{left:-2px;bottom:-2px;min-height:8px;min-width:8px}.msportalfx-svg-disabled{filter:grayscale(100%)}.msportalfx-svg-loading-square{animation:ProgressFlagAnimation 1.45s infinite ease-in-out;transform-origin:50%}.msportalfx-svg-loading-square:nth-child(1){animation-delay:0s}.msportalfx-svg-loading-square:nth-child(2){animation-delay:.2s}.msportalfx-svg-loading-square:nth-child(3){animation-delay:.4s}@keyframes ProgressFlagAnimation{0%{transform:scale(1);opacity:.3}36.1%{transform:scale(1.06);opacity:1}50%{transform:scale(1.06);opacity:1}86.1%{transform:scale(1);opacity:.3}}.msportalfx-svg-flip-horizontal>svg,svg.msportalfx-svg-flip-horizontal{transform:scaleX(-1)}.msportalfx-svg-fabric-rotate360{animation:ImageRotation 1.3s cubic-bezier(.53,.21,.29,.67) infinite}@keyframes ImageRotation{0%{transform:rotate(-45deg)}100%{transform:rotate(315deg)}}.fxs-svg-number .msportalfx-font-bold{font-size:10px;fill:#0065ad}.fxs-svg-number .fxs-svg-circle{stroke-width:0%;fill:#0078d4}.fxs-svg-number .fxs-svg-text{fill:#fff;font-size:10px}.fxs-svg-number.msportalfx-svg-disabled{filter:grayscale(0%)}.fxs-svg-number.msportalfx-svg-disabled .fxs-svg-circle{fill:#fff;stroke-width:1px;stroke:#949494}.fxs-svg-number.msportalfx-svg-disabled .fxs-svg-text{fill:#949494}.fxs-theme-dark .fxs-svg-number .fxs-svg-text{fill:#0f0f0f}.fxs-theme-dark .fxs-svg-number .fxs-svg-circle{stroke-width:0%;fill:#0078d4}.fxs-theme-dark .fxs-svg-number.msportalfx-svg-disabled .fxs-svg-circle{fill:#0f0f0f;stroke-width:1px;stroke:#949494}.fxs-theme-dark .fxs-svg-number.msportalfx-svg-disabled .fxs-svg-text{fill:#949494}</style></svg>