<svg viewBox="0 0 18 18" class="msportalfx-svg-placeholder" xmlns="http://www.w3.org/2000/svg"><title>Hybrid connectivity</title><desc></desc><defs><linearGradient id="p76pC0TQI__a" x1="11.079" x2="2.392" y1="17.397" y2="4.224" gradientTransform="matrix(1 0 0 -1 0 20)" gradientUnits="userSpaceOnUse"><stop offset="0" stop-color="#0fafff" /><stop offset="1" stop-color="#2764e7" /></linearGradient><linearGradient id="p76pC0TQI__b" x1="11.079" x2="2.392" y1="17.397" y2="4.224" gradientTransform="matrix(1 0 0 -1 0 20)" gradientUnits="userSpaceOnUse"><stop offset="0" stop-color="#0094f0" /><stop offset="1" stop-color="#2052cb" /></linearGradient><linearGradient id="p76pC0TQI__c" x1="7.926" x2="6.275" y1=".897" y2="12.951" gradientUnits="userSpaceOnUse"><stop offset="0" stop-color="#d8f7ff" /><stop offset="1" stop-color="#8cd0ff" /></linearGradient><linearGradient id="p76pC0TQI__d" x1="11.615" x2="11.615" y1="8.885" y2="-.136" gradientTransform="matrix(1 0 0 -1 0 20)" gradientUnits="userSpaceOnUse"><stop offset="0" stop-color="#d8f7ff" /><stop offset="1" stop-color="#83b9f9" /></linearGradient></defs><path fill="url(#p76pC0TQI__a)" d="M1.604.125C.787.125.125.787.125 1.604v14.792c0 .817.662 1.479 1.479 1.479h10.513c.817 0 1.479-.662 1.479-1.479v-8.77c0-.817-.662-1.479-1.479-1.479h-1.532V1.604c0-.817-.662-1.479-1.479-1.479z" /><path fill="url(#p76pC0TQI__b)" fill-rule="evenodd" d="M9.109 16.851h3.008a.455.455 0 0 0 .455-.455v-8.77a.455.455 0 0 0-.455-.455h-1.532a1.024 1.024 0 0 1-1.024-1.024V1.604a.455.455 0 0 0-.455-.455H1.604a.455.455 0 0 0-.455.455v14.792c0 .251.204.455.455.455zm.007 1.024h3c.817 0 1.479-.662 1.479-1.479v-8.77c0-.817-.662-1.479-1.479-1.479h-1.532V1.604c0-.817-.662-1.479-1.479-1.479H1.604C.787.125.125.787.125 1.604v14.792c0 .817.662 1.479 1.479 1.479z" /><path fill="#fff" d="M4.246 14.336a.74.74 0 0 1 .74-.74h3.592a.74.74 0 0 1 .74.74v3.539H4.247z" /><path fill="url(#p76pC0TQI__c)" d="M3.612 2.344a1.109 1.109 0 1 0 0 2.218 1.109 1.109 0 0 0 0-2.218m3.486 0a1.109 1.109 0 1 0 0 2.218 1.109 1.109 0 0 0 0-2.218m0 3.486a1.109 1.109 0 1 0 0 2.218 1.109 1.109 0 0 0 0-2.218m0 3.487a1.109 1.109 0 1 0 0 2.218 1.109 1.109 0 0 0 0-2.218m3.487 0a1.109 1.109 0 1 0 0 2.218 1.109 1.109 0 0 0 0-2.218M3.612 5.83a1.109 1.109 0 1 0 0 2.218 1.109 1.109 0 0 0 0-2.218m0 3.487a1.109 1.109 0 1 0 0 2.218 1.109 1.109 0 0 0 0-2.218" /><path fill="url(#p76pC0TQI__d)" d="M7.732 17.87a2.536 2.536 0 0 1 .083-5.066 3.805 3.805 0 0 1 7.442.001l.082-.001a2.536 2.536 0 0 1 0 5.072H7.732v-.005Z" /><style>.msportalfx-svg-c01{fill:#fff}.msportalfx-svg-c02{fill:#e5e5e5}.msportalfx-svg-c03{fill:#a0a1a2}.msportalfx-svg-c04{fill:#7a7a7a}.msportalfx-svg-c05{fill:#3e3e3e}.msportalfx-svg-c06{fill:#1e1e1e}.msportalfx-svg-c07{fill:#0f0f0f}.msportalfx-svg-c08{fill:#ba141a}.msportalfx-svg-c09{fill:#dd5900}.msportalfx-svg-c10{fill:#ff8c00}.msportalfx-svg-c11{fill:#fcd116}.msportalfx-svg-c12{fill:#fee087}.msportalfx-svg-c13{fill:#b8d432}.msportalfx-svg-c14,.msportalfx-svg-c32{fill:#57a300}.msportalfx-svg-c15{fill:#59b4d9}.msportalfx-svg-c16{fill:#3999c6}.msportalfx-svg-c17{fill:#804998}.msportalfx-svg-c18{fill:#ec008c}.msportalfx-svg-c19{fill:#0072c6}.msportalfx-svg-c20{fill:#68217a}.msportalfx-svg-c21{fill:#00188f}.msportalfx-svg-c22{fill:#e81123}.fxs-mode-light .msportalfx-svg-c22{fill:#a4262c}.msportalfx-svg-c23{fill:#cae3f3}.msportalfx-svg-c24{fill:#59aed3}.msportalfx-svg-c25{fill:#4c3b12}.msportalfx-svg-c26{fill:#be9555}.msportalfx-svg-c27{fill:#4f4d52}.msportalfx-svg-c28{fill:#ef6f59}.msportalfx-svg-c29{fill:#f7cb64}.msportalfx-svg-c30{fill:#fdd8db}.msportalfx-svg-c31{fill:#f6ffec}.msportalfx-svg-c33{fill:#8a2da5}.msportalfx-svg-c34{fill:#e00b1c}.msportalfx-svg-c35{fill:#015cda}.msportalfx-svg-c36{fill:#5db300}.msportalfx-svg-c97{fill:#ffb900}.msportalfx-svg-c98{fill:#00a4ef}.msportalfx-svg-c99{fill:#f25022}.msportalfx-inverted-theme .msportalfx-svg-c05,.fxs-theme-dark .msportalfx-svg-c05{fill:#777}.msportalfx-inverted-theme .msportalfx-svg-c07,.fxs-theme-dark .msportalfx-svg-c07{fill:#f2f2f2}.msportalfx-svg-palette-white{fill:#fff}.msportalfx-svg-palette-blue{fill:#015cda}.msportalfx-svg-palette-black{fill:#1e1e1e}.msportalfx-svg-palette-green{fill:#57a300}.msportalfx-svg-palette-gray{fill:#a0a1a2}.msportalfx-svg-palette-inherit{fill:inherit}.msportalfx-svg-badge{position:absolute;left:0;bottom:0;min-height:10px;min-width:10px}.fxc-menu-icon&gt;.msportalfx-svg-badge{left:-2px;bottom:-2px;min-height:8px;min-width:8px}.msportalfx-svg-disabled{filter:grayscale(100%)}.msportalfx-svg-loading-square{animation:ProgressFlagAnimation 1.45s infinite ease-in-out;transform-origin:50%}.msportalfx-svg-loading-square:nth-child(1){animation-delay:0s}.msportalfx-svg-loading-square:nth-child(2){animation-delay:.2s}.msportalfx-svg-loading-square:nth-child(3){animation-delay:.4s}@keyframes ProgressFlagAnimation{0%{transform:scale(1);opacity:.3}36.1%{transform:scale(1.06);opacity:1}50%{transform:scale(1.06);opacity:1}86.1%{transform:scale(1);opacity:.3}}.msportalfx-svg-flip-horizontal&gt;svg,svg.msportalfx-svg-flip-horizontal{transform:scaleX(-1)}.msportalfx-svg-fabric-rotate360{animation:ImageRotation 1.3s cubic-bezier(.53,.21,.29,.67) infinite}@keyframes ImageRotation{0%{transform:rotate(-45deg)}100%{transform:rotate(315deg)}}.fxs-svg-number .msportalfx-font-bold{font-size:10px;fill:#0065ad}.fxs-svg-number .fxs-svg-circle{stroke-width:0%;fill:#0078d4}.fxs-svg-number .fxs-svg-text{fill:#fff;font-size:10px}.fxs-svg-number.msportalfx-svg-disabled{filter:grayscale(0%)}.fxs-svg-number.msportalfx-svg-disabled .fxs-svg-circle{fill:#fff;stroke-width:1px;stroke:#949494}.fxs-svg-number.msportalfx-svg-disabled .fxs-svg-text{fill:#949494}.fxs-theme-dark .fxs-svg-number .fxs-svg-text{fill:#0f0f0f}.fxs-theme-dark .fxs-svg-number .fxs-svg-circle{stroke-width:0%;fill:#0078d4}.fxs-theme-dark .fxs-svg-number.msportalfx-svg-disabled .fxs-svg-circle{fill:#0f0f0f;stroke-width:1px;stroke:#949494}.fxs-theme-dark .fxs-svg-number.msportalfx-svg-disabled .fxs-svg-text{fill:#949494}</style></svg>