<svg viewBox="0 0 18 18" class="msportalfx-svg-placeholder" xmlns="http://www.w3.org/2000/svg"><title>Network Security</title><desc></desc><defs><linearGradient id="p8uvxS1Lp__a" x1="12.051" x2="4.134" y1="1061.477" y2="1076.083" gradientTransform="translate(0 -1060)" gradientUnits="userSpaceOnUse"><stop offset="0" stop-color="#0fafff" /><stop offset="1" stop-color="#2764e7" /></linearGradient><linearGradient id="p8uvxS1Lp__b" x1="12.051" x2="4.134" y1="1061.477" y2="1076.083" gradientTransform="translate(0 -1060)" gradientUnits="userSpaceOnUse"><stop offset="0" stop-color="#0094f0" /><stop offset="1" stop-color="#2052cb" /></linearGradient><linearGradient id="p8uvxS1Lp__c" x1="9" x2="9" y1="5.653" y2="16.215" gradientTransform="matrix(1 0 0 -1 0 20)" gradientUnits="userSpaceOnUse"><stop offset="0" stop-color="#6ab2ff" /><stop offset="1" stop-color="#d8f7ff" /></linearGradient></defs><path fill="url(#p8uvxS1Lp__a)" d="M9 17.873a1.75 1.75 0 0 1-.712-.151l-1.411-.627a13.3 13.3 0 0 1-3.856-2.603A7.3 7.3 0 0 1 .809 9.271v-5.98c0-.411.334-.745.745-.745h.943A7.44 7.44 0 0 0 6.285 1.51L8.307.315c.268-.158.64-.228.894-.174.349.071.441.13.932.435l1.582.934a7.45 7.45 0 0 0 3.789 1.036h.943c.41 0 .744.334.744.745v5.981c0 1.957-.806 3.86-2.212 5.221a13.3 13.3 0 0 1-3.856 2.603l-1.411.627q-.342.15-.712.151Z" /><path fill="url(#p8uvxS1Lp__b)" d="M9 17.873a1.75 1.75 0 0 1-.712-.151l-1.411-.627a13.3 13.3 0 0 1-3.856-2.603A7.3 7.3 0 0 1 .809 9.271v-5.98c0-.411.334-.745.745-.745h.943A7.44 7.44 0 0 0 6.285 1.51L8.307.315c.268-.158.64-.228.894-.174.349.071.441.13.932.435l1.582.934a7.45 7.45 0 0 0 3.789 1.036h.943c.41 0 .744.334.744.745v5.981c0 1.957-.806 3.86-2.212 5.221a13.3 13.3 0 0 1-3.856 2.603l-1.411.627q-.342.15-.712.151ZM1.833 3.57v5.702c0 1.681.693 3.316 1.901 4.485a12.3 12.3 0 0 0 3.56 2.402l1.41.627a.74.74 0 0 0 .594 0l1.41-.627a12.3 12.3 0 0 0 3.56-2.402 6.28 6.28 0 0 0 1.9-4.485V3.57h-.662a8.47 8.47 0 0 1-4.31-1.178L9.175 1.198h-.001a.34.34 0 0 0-.343 0L6.808 2.393a8.5 8.5 0 0 1-4.309 1.178z" /><path fill="url(#p8uvxS1Lp__c)" d="M9.592 11.219V7.225h6.575V6.042h-2.138V3.424a8.4 8.4 0 0 1-1.183-.301v2.919h-7.69V3.123q-.58.193-1.183.301v2.618h-2.14v1.183h6.576v3.994H2.152q.205.62.532 1.183h1.288v1.566q.564.518 1.183.96v-2.526h7.69v2.526q.62-.442 1.183-.96v-1.567h1.288q.327-.564.532-1.183z" /><style>.msportalfx-svg-c01{fill:#fff}.msportalfx-svg-c02{fill:#e5e5e5}.msportalfx-svg-c03{fill:#a0a1a2}.msportalfx-svg-c04{fill:#7a7a7a}.msportalfx-svg-c05{fill:#3e3e3e}.msportalfx-svg-c06{fill:#1e1e1e}.msportalfx-svg-c07{fill:#0f0f0f}.msportalfx-svg-c08{fill:#ba141a}.msportalfx-svg-c09{fill:#dd5900}.msportalfx-svg-c10{fill:#ff8c00}.msportalfx-svg-c11{fill:#fcd116}.msportalfx-svg-c12{fill:#fee087}.msportalfx-svg-c13{fill:#b8d432}.msportalfx-svg-c14,.msportalfx-svg-c32{fill:#57a300}.msportalfx-svg-c15{fill:#59b4d9}.msportalfx-svg-c16{fill:#3999c6}.msportalfx-svg-c17{fill:#804998}.msportalfx-svg-c18{fill:#ec008c}.msportalfx-svg-c19{fill:#0072c6}.msportalfx-svg-c20{fill:#68217a}.msportalfx-svg-c21{fill:#00188f}.msportalfx-svg-c22{fill:#e81123}.fxs-mode-light .msportalfx-svg-c22{fill:#a4262c}.msportalfx-svg-c23{fill:#cae3f3}.msportalfx-svg-c24{fill:#59aed3}.msportalfx-svg-c25{fill:#4c3b12}.msportalfx-svg-c26{fill:#be9555}.msportalfx-svg-c27{fill:#4f4d52}.msportalfx-svg-c28{fill:#ef6f59}.msportalfx-svg-c29{fill:#f7cb64}.msportalfx-svg-c30{fill:#fdd8db}.msportalfx-svg-c31{fill:#f6ffec}.msportalfx-svg-c33{fill:#8a2da5}.msportalfx-svg-c34{fill:#e00b1c}.msportalfx-svg-c35{fill:#015cda}.msportalfx-svg-c36{fill:#5db300}.msportalfx-svg-c97{fill:#ffb900}.msportalfx-svg-c98{fill:#00a4ef}.msportalfx-svg-c99{fill:#f25022}.msportalfx-inverted-theme .msportalfx-svg-c05,.fxs-theme-dark .msportalfx-svg-c05{fill:#777}.msportalfx-inverted-theme .msportalfx-svg-c07,.fxs-theme-dark .msportalfx-svg-c07{fill:#f2f2f2}.msportalfx-svg-palette-white{fill:#fff}.msportalfx-svg-palette-blue{fill:#015cda}.msportalfx-svg-palette-black{fill:#1e1e1e}.msportalfx-svg-palette-green{fill:#57a300}.msportalfx-svg-palette-gray{fill:#a0a1a2}.msportalfx-svg-palette-inherit{fill:inherit}.msportalfx-svg-badge{position:absolute;left:0;bottom:0;min-height:10px;min-width:10px}.fxc-menu-icon&gt;.msportalfx-svg-badge{left:-2px;bottom:-2px;min-height:8px;min-width:8px}.msportalfx-svg-disabled{filter:grayscale(100%)}.msportalfx-svg-loading-square{animation:ProgressFlagAnimation 1.45s infinite ease-in-out;transform-origin:50%}.msportalfx-svg-loading-square:nth-child(1){animation-delay:0s}.msportalfx-svg-loading-square:nth-child(2){animation-delay:.2s}.msportalfx-svg-loading-square:nth-child(3){animation-delay:.4s}@keyframes ProgressFlagAnimation{0%{transform:scale(1);opacity:.3}36.1%{transform:scale(1.06);opacity:1}50%{transform:scale(1.06);opacity:1}86.1%{transform:scale(1);opacity:.3}}.msportalfx-svg-flip-horizontal&gt;svg,svg.msportalfx-svg-flip-horizontal{transform:scaleX(-1)}.msportalfx-svg-fabric-rotate360{animation:ImageRotation 1.3s cubic-bezier(.53,.21,.29,.67) infinite}@keyframes ImageRotation{0%{transform:rotate(-45deg)}100%{transform:rotate(315deg)}}.fxs-svg-number .msportalfx-font-bold{font-size:10px;fill:#0065ad}.fxs-svg-number .fxs-svg-circle{stroke-width:0%;fill:#0078d4}.fxs-svg-number .fxs-svg-text{fill:#fff;font-size:10px}.fxs-svg-number.msportalfx-svg-disabled{filter:grayscale(0%)}.fxs-svg-number.msportalfx-svg-disabled .fxs-svg-circle{fill:#fff;stroke-width:1px;stroke:#949494}.fxs-svg-number.msportalfx-svg-disabled .fxs-svg-text{fill:#949494}.fxs-theme-dark .fxs-svg-number .fxs-svg-text{fill:#0f0f0f}.fxs-theme-dark .fxs-svg-number .fxs-svg-circle{stroke-width:0%;fill:#0078d4}.fxs-theme-dark .fxs-svg-number.msportalfx-svg-disabled .fxs-svg-circle{fill:#0f0f0f;stroke-width:1px;stroke:#949494}.fxs-theme-dark .fxs-svg-number.msportalfx-svg-disabled .fxs-svg-text{fill:#949494}</style></svg>