<svg viewBox="0 0 18 18" class="msportalfx-svg-placeholder" xmlns='http://www.w3.org/2000/svg'><defs><linearGradient id="prJtJxQUO__a" x1="9.05" x2="9.05" y1="3.517" y2="14.558" gradientUnits="userSpaceOnUse"><stop offset="0" stop-color="#5ea0ef"/><stop offset="1" stop-color="#0078d4"/></linearGradient></defs><path fill="#83b9f9" d="M5.539 5.111 3.148 1.553l.7-.471L6.239 4.64Zm.779 8.512-.681-.5-2.48 3.383.681.5ZM3.969 8.615l-2.675-.062-.019.847 2.675.062Zm11.136-7.052-.687-.491-2.545 3.558.686.491Zm0 14.944-2.546-3.473-.68.5 2.545 3.473ZM16.984 9.4l-.019-.844-2.706.062.02.844Z"/><path fill="url(#prJtJxQUO__a)" d="M13.46 5.709A5.53 5.53 0 0 0 5.724 4.63l-.056.043a5.523 5.523 0 0 0 6.77 8.729 5.545 5.545 0 0 0 1.022-7.693M4.255 8.683a4.8 4.8 0 0 1 .533-1.874h1.338a9 9 0 0 0-.257 1.874Zm2.612-1.874H8.7v1.874H6.579a8.2 8.2 0 0 1 .288-1.874m2.54 0h1.832a8.2 8.2 0 0 1 .288 1.874h-2.12ZM8.7 9.392v1.874H6.867a8.2 8.2 0 0 1-.288-1.874Zm.709 0h2.12a8.2 8.2 0 0 1-.288 1.874H9.407Zm2.83 0h1.608a4.9 4.9 0 0 1-.53 1.874H11.98a9 9 0 0 0 .257-1.874Zm0-.709a9 9 0 0 0-.257-1.874h1.338a4.8 4.8 0 0 1 .529 1.874Zm.626-2.583h-1.1a5.4 5.4 0 0 0-.778-1.469A4.8 4.8 0 0 1 12.865 6.1M11 6.1H9.407V4.3A2.88 2.88 0 0 1 11 6.1M8.7 4.3v1.8H7.109A2.88 2.88 0 0 1 8.7 4.3m-2.6.936.051-.036a4.8 4.8 0 0 1 .972-.568A5.4 5.4 0 0 0 6.342 6.1h-1.1a4.8 4.8 0 0 1 .858-.867ZM4.254 9.392h1.615a9 9 0 0 0 .257 1.874H4.787a4.8 4.8 0 0 1-.533-1.874m1 2.6-.009-.012h1.1a5.4 5.4 0 0 0 .78 1.471 4.8 4.8 0 0 1-1.876-1.464Zm1.86-.012H8.7v1.8a2.88 2.88 0 0 1-1.591-1.805Zm2.3 1.8v-1.8H11a2.88 2.88 0 0 1-1.593 1.798Zm2.6-.937a4.8 4.8 0 0 1-1.021.607 5.4 5.4 0 0 0 .781-1.473h1.1a4.8 4.8 0 0 1-.874.864Z"/><path fill="#a67af4" d="M17.991 9.037A1.294 1.294 0 1 1 16.7 7.743a1.294 1.294 0 0 1 1.291 1.294M1.284 7.743a1.294 1.294 0 1 0 1.294 1.294 1.294 1.294 0 0 0-1.294-1.294M3.5 15.389a1.294 1.294 0 1 0 1.293 1.294A1.294 1.294 0 0 0 3.5 15.389m11.07 0a1.294 1.294 0 1 0 1.294 1.294 1.294 1.294 0 0 0-1.296-1.294ZM3.5.024a1.294 1.294 0 1 0 1.291 1.293A1.293 1.293 0 0 0 3.5.024m11.165 0a1.294 1.294 0 1 0 1.294 1.293A1.294 1.294 0 0 0 14.663.024Z"/><style>.msportalfx-svg-c01{fill:#fff}.msportalfx-svg-c02{fill:#e5e5e5}.msportalfx-svg-c03{fill:#a0a1a2}.msportalfx-svg-c04{fill:#7a7a7a}.msportalfx-svg-c05{fill:#3e3e3e}.msportalfx-svg-c06{fill:#1e1e1e}.msportalfx-svg-c07{fill:#0f0f0f}.msportalfx-svg-c08{fill:#ba141a}.msportalfx-svg-c09{fill:#dd5900}.msportalfx-svg-c10{fill:#ff8c00}.msportalfx-svg-c11{fill:#fcd116}.msportalfx-svg-c12{fill:#fee087}.msportalfx-svg-c13{fill:#b8d432}.msportalfx-svg-c14,.msportalfx-svg-c32{fill:#57a300}.msportalfx-svg-c15{fill:#59b4d9}.msportalfx-svg-c16{fill:#3999c6}.msportalfx-svg-c17{fill:#804998}.msportalfx-svg-c18{fill:#ec008c}.msportalfx-svg-c19{fill:#0072c6}.msportalfx-svg-c20{fill:#68217a}.msportalfx-svg-c21{fill:#00188f}.msportalfx-svg-c22{fill:#e81123}.fxs-mode-light .msportalfx-svg-c22{fill:#a4262c}.msportalfx-svg-c23{fill:#cae3f3}.msportalfx-svg-c24{fill:#59aed3}.msportalfx-svg-c25{fill:#4c3b12}.msportalfx-svg-c26{fill:#be9555}.msportalfx-svg-c27{fill:#4f4d52}.msportalfx-svg-c28{fill:#ef6f59}.msportalfx-svg-c29{fill:#f7cb64}.msportalfx-svg-c30{fill:#fdd8db}.msportalfx-svg-c31{fill:#f6ffec}.msportalfx-svg-c33{fill:#8a2da5}.msportalfx-svg-c34{fill:#e00b1c}.msportalfx-svg-c35{fill:#015cda}.msportalfx-svg-c36{fill:#5db300}.msportalfx-svg-c97{fill:#ffb900}.msportalfx-svg-c98{fill:#00a4ef}.msportalfx-svg-c99{fill:#f25022}.msportalfx-inverted-theme .msportalfx-svg-c05,.fxs-theme-dark .msportalfx-svg-c05{fill:#777}.msportalfx-inverted-theme .msportalfx-svg-c07,.fxs-theme-dark .msportalfx-svg-c07{fill:#f2f2f2}.msportalfx-svg-palette-white{fill:#fff}.msportalfx-svg-palette-blue{fill:#015cda}.msportalfx-svg-palette-black{fill:#1e1e1e}.msportalfx-svg-palette-green{fill:#57a300}.msportalfx-svg-palette-gray{fill:#a0a1a2}.msportalfx-svg-palette-inherit{fill:inherit}.msportalfx-svg-badge{position:absolute;left:0;bottom:0;min-height:10px;min-width:10px}.fxc-menu-icon>.msportalfx-svg-badge{left:-2px;bottom:-2px;min-height:8px;min-width:8px}.msportalfx-svg-disabled{filter:grayscale(100%)}.msportalfx-svg-loading-square{animation:ProgressFlagAnimation 1.45s infinite ease-in-out;transform-origin:50%}.msportalfx-svg-loading-square:nth-child(1){animation-delay:0s}.msportalfx-svg-loading-square:nth-child(2){animation-delay:.2s}.msportalfx-svg-loading-square:nth-child(3){animation-delay:.4s}@keyframes ProgressFlagAnimation{0%{transform:scale(1);opacity:.3}36.1%{transform:scale(1.06);opacity:1}50%{transform:scale(1.06);opacity:1}86.1%{transform:scale(1);opacity:.3}}.msportalfx-svg-flip-horizontal>svg,svg.msportalfx-svg-flip-horizontal{transform:scaleX(-1)}.msportalfx-svg-fabric-rotate360{animation:ImageRotation 1.3s cubic-bezier(.53,.21,.29,.67) infinite}@keyframes ImageRotation{0%{transform:rotate(-45deg)}100%{transform:rotate(315deg)}}.fxs-svg-number .msportalfx-font-bold{font-size:10px;fill:#0065ad}.fxs-svg-number .fxs-svg-circle{stroke-width:0%;fill:#0078d4}.fxs-svg-number .fxs-svg-text{fill:#fff;font-size:10px}.fxs-svg-number.msportalfx-svg-disabled{filter:grayscale(0%)}.fxs-svg-number.msportalfx-svg-disabled .fxs-svg-circle{fill:#fff;stroke-width:1px;stroke:#949494}.fxs-svg-number.msportalfx-svg-disabled .fxs-svg-text{fill:#949494}.fxs-theme-dark .fxs-svg-number .fxs-svg-text{fill:#0f0f0f}.fxs-theme-dark .fxs-svg-number .fxs-svg-circle{stroke-width:0%;fill:#0078d4}.fxs-theme-dark .fxs-svg-number.msportalfx-svg-disabled .fxs-svg-circle{fill:#0f0f0f;stroke-width:1px;stroke:#949494}.fxs-theme-dark .fxs-svg-number.msportalfx-svg-disabled .fxs-svg-text{fill:#949494}</style></svg>