<svg fill="none" viewBox="0 0 48 48" class="msportalfx-svg-placeholder" xmlns="http://www.w3.org/2000/svg"><title>Fabric Capacity</title><desc>Microsoft Fabric delivers an end-to-end analytics platform that goes from the data lake to the business user.</desc><path fill="url(#p6oWrmFer__a)" fill-rule="evenodd" d="m5.64 31.6-.586 2.144c-.218.685-.524 1.693-.689 2.59a5.63 5.63 0 0 0 4.638 7.588c.792.114 1.688.108 2.692-.04l4.613-.636a2.92 2.92 0 0 0 2.421-2.127l3.175-11.662L5.64 31.599Z" clip-rule="evenodd" /><path fill="url(#p6oWrmFer__b)" d="M10.14 32.152c-4.863.753-5.861 4.422-5.861 4.422l4.657-17.11 24.332-3.291-3.318 12.052a1.71 1.71 0 0 1-1.388 1.243l-.136.023-18.423 2.684z" /><path fill="url(#p6oWrmFer__c)" fill-opacity=".8" d="M10.14 32.152c-4.863.753-5.861 4.422-5.861 4.422l4.657-17.11 24.332-3.291-3.318 12.052a1.71 1.71 0 0 1-1.388 1.243l-.136.023-18.423 2.684z" /><path fill="url(#p6oWrmFer__d)" d="m12.899 21.235 26.938-3.98a1.6 1.6 0 0 0 1.323-1.17l2.78-10.06a1.595 1.595 0 0 0-1.74-2.012L16.498 7.81a7.19 7.19 0 0 0-5.777 5.193L7.013 26.438c.744-2.717 1.202-4.355 5.886-5.203" /><path fill="url(#p6oWrmFer__e)" d="m12.899 21.235 26.938-3.98a1.6 1.6 0 0 0 1.323-1.17l2.78-10.06a1.595 1.595 0 0 0-1.74-2.012L16.498 7.81a7.19 7.19 0 0 0-5.777 5.193L7.013 26.438c.744-2.717 1.202-4.355 5.886-5.203" /><path fill="url(#p6oWrmFer__f)" fill-opacity=".4" d="m12.899 21.235 26.938-3.98a1.6 1.6 0 0 0 1.323-1.17l2.78-10.06a1.595 1.595 0 0 0-1.74-2.012L16.498 7.81a7.19 7.19 0 0 0-5.777 5.193L7.013 26.438c.744-2.717 1.202-4.355 5.886-5.203" /><path fill="url(#p6oWrmFer__g)" d="M12.899 21.236c-3.901.706-4.87 1.962-5.514 3.931l-3.106 11.41s.992-3.633 5.796-4.41l18.352-2.673.136-.022a1.71 1.71 0 0 0 1.388-1.244l2.73-9.915z" /><path fill="url(#p6oWrmFer__h)" fill-opacity=".2" d="M12.899 21.236c-3.901.706-4.87 1.962-5.514 3.931l-3.106 11.41s.992-3.633 5.796-4.41l18.352-2.673.136-.022a1.71 1.71 0 0 0 1.388-1.244l2.73-9.915z" /><path fill="url(#p6oWrmFer__i)" fill-rule="evenodd" d="M10.075 32.167c-4.06.657-5.393 3.346-5.71 4.165a5.63 5.63 0 0 0 4.638 7.59c.792.114 1.688.108 2.692-.04l4.613-.636a2.92 2.92 0 0 0 2.421-2.128l2.894-10.632z" clip-rule="evenodd" /><defs><linearGradient id="p6oWrmFer__a" x1="12.953" x2="12.953" y1="44.001" y2="29.457" gradientUnits="userSpaceOnUse"><stop offset=".056" stop-color="#2AAC94" /><stop offset=".155" stop-color="#239C87" /><stop offset=".372" stop-color="#177E71" /><stop offset=".588" stop-color="#0E6961" /><stop offset=".799" stop-color="#095D57" /><stop offset="1" stop-color="#085954" /></linearGradient><linearGradient id="p6oWrmFer__b" x1="31.331" x2="17.286" y1="33.448" y2="18.173" gradientUnits="userSpaceOnUse"><stop offset=".042" stop-color="#ABE88E" /><stop offset=".549" stop-color="#2AAA92" /><stop offset=".906" stop-color="#117865" /></linearGradient><linearGradient id="p6oWrmFer__c" x1="-3.182" x2="10.183" y1="32.705" y2="28.147" gradientUnits="userSpaceOnUse"><stop stop-color="#6AD6F9" /><stop offset="1" stop-color="#6AD6F9" stop-opacity="0" /></linearGradient><linearGradient id="p6oWrmFer__d" x1="7.013" x2="42.589" y1="15.219" y2="15.219" gradientUnits="userSpaceOnUse"><stop offset=".043" stop-color="#25FFD4" /><stop offset=".874" stop-color="#55DDB9" /></linearGradient><linearGradient id="p6oWrmFer__e" x1="7.013" x2="39.06" y1="10.247" y2="25.128" gradientUnits="userSpaceOnUse"><stop stop-color="#6AD6F9" /><stop offset=".23" stop-color="#60E9D0" /><stop offset=".651" stop-color="#6DE9BB" /><stop offset=".994" stop-color="#ABE88E" /></linearGradient><linearGradient id="p6oWrmFer__f" x1="9.978" x2="27.404" y1="13.031" y2="16.885" gradientUnits="userSpaceOnUse"><stop stop-color="#fff" stop-opacity="0" /><stop offset=".459" stop-color="#fff" /><stop offset="1" stop-color="#fff" stop-opacity="0" /></linearGradient><linearGradient id="p6oWrmFer__g" x1="15.756" x2="16.168" y1="27.959" y2="15.739" gradientUnits="userSpaceOnUse"><stop offset=".205" stop-color="#063D3B" stop-opacity="0" /><stop offset=".586" stop-color="#063D3B" stop-opacity=".237" /><stop offset=".872" stop-color="#063D3B" stop-opacity=".75" /></linearGradient><linearGradient id="p6oWrmFer__h" x1="2.81" x2="17.701" y1="26.744" y2="29.545" gradientUnits="userSpaceOnUse"><stop stop-color="#fff" stop-opacity="0" /><stop offset=".459" stop-color="#fff" /><stop offset="1" stop-color="#fff" stop-opacity="0" /></linearGradient><linearGradient id="p6oWrmFer__i" x1="13.567" x2="10.662" y1="39.971" y2="25.764" gradientUnits="userSpaceOnUse"><stop offset=".064" stop-color="#063D3B" stop-opacity="0" /><stop offset=".17" stop-color="#063D3B" stop-opacity=".135" /><stop offset=".562" stop-color="#063D3B" stop-opacity=".599" /><stop offset=".85" stop-color="#063D3B" stop-opacity=".9" /><stop offset="1" stop-color="#063D3B" /></linearGradient></defs><style>.msportalfx-svg-c01{fill:#fff}.msportalfx-svg-c02{fill:#e5e5e5}.msportalfx-svg-c03{fill:#a0a1a2}.msportalfx-svg-c04{fill:#7a7a7a}.msportalfx-svg-c05{fill:#3e3e3e}.msportalfx-svg-c06{fill:#1e1e1e}.msportalfx-svg-c07{fill:#0f0f0f}.msportalfx-svg-c08{fill:#ba141a}.msportalfx-svg-c09{fill:#dd5900}.msportalfx-svg-c10{fill:#ff8c00}.msportalfx-svg-c11{fill:#fcd116}.msportalfx-svg-c12{fill:#fee087}.msportalfx-svg-c13{fill:#b8d432}.msportalfx-svg-c14,.msportalfx-svg-c32{fill:#57a300}.msportalfx-svg-c15{fill:#59b4d9}.msportalfx-svg-c16{fill:#3999c6}.msportalfx-svg-c17{fill:#804998}.msportalfx-svg-c18{fill:#ec008c}.msportalfx-svg-c19{fill:#0072c6}.msportalfx-svg-c20{fill:#68217a}.msportalfx-svg-c21{fill:#00188f}.msportalfx-svg-c22{fill:#e81123}.fxs-mode-light .msportalfx-svg-c22{fill:#a4262c}.msportalfx-svg-c23{fill:#cae3f3}.msportalfx-svg-c24{fill:#59aed3}.msportalfx-svg-c25{fill:#4c3b12}.msportalfx-svg-c26{fill:#be9555}.msportalfx-svg-c27{fill:#4f4d52}.msportalfx-svg-c28{fill:#ef6f59}.msportalfx-svg-c29{fill:#f7cb64}.msportalfx-svg-c30{fill:#fdd8db}.msportalfx-svg-c31{fill:#f6ffec}.msportalfx-svg-c33{fill:#8a2da5}.msportalfx-svg-c34{fill:#e00b1c}.msportalfx-svg-c35{fill:#015cda}.msportalfx-svg-c36{fill:#5db300}.msportalfx-svg-c97{fill:#ffb900}.msportalfx-svg-c98{fill:#00a4ef}.msportalfx-svg-c99{fill:#f25022}.msportalfx-inverted-theme .msportalfx-svg-c05,.fxs-theme-dark .msportalfx-svg-c05{fill:#777}.msportalfx-inverted-theme .msportalfx-svg-c07,.fxs-theme-dark .msportalfx-svg-c07{fill:#f2f2f2}.msportalfx-svg-palette-white{fill:#fff}.msportalfx-svg-palette-blue{fill:#015cda}.msportalfx-svg-palette-black{fill:#1e1e1e}.msportalfx-svg-palette-green{fill:#57a300}.msportalfx-svg-palette-gray{fill:#a0a1a2}.msportalfx-svg-palette-inherit{fill:inherit}.msportalfx-svg-badge{position:absolute;left:0;bottom:0;min-height:10px;min-width:10px}.fxc-menu-icon&gt;.msportalfx-svg-badge{left:-2px;bottom:-2px;min-height:8px;min-width:8px}.msportalfx-svg-disabled{filter:grayscale(100%)}.msportalfx-svg-loading-square{animation:ProgressFlagAnimation 1.45s infinite ease-in-out;transform-origin:50%}.msportalfx-svg-loading-square:nth-child(1){animation-delay:0s}.msportalfx-svg-loading-square:nth-child(2){animation-delay:.2s}.msportalfx-svg-loading-square:nth-child(3){animation-delay:.4s}@keyframes ProgressFlagAnimation{0%{transform:scale(1);opacity:.3}36.1%{transform:scale(1.06);opacity:1}50%{transform:scale(1.06);opacity:1}86.1%{transform:scale(1);opacity:.3}}.msportalfx-svg-flip-horizontal&gt;svg,svg.msportalfx-svg-flip-horizontal{transform:scaleX(-1)}.msportalfx-svg-fabric-rotate360{animation:ImageRotation 1.3s cubic-bezier(.53,.21,.29,.67) infinite}@keyframes ImageRotation{0%{transform:rotate(-45deg)}100%{transform:rotate(315deg)}}.fxs-svg-number .msportalfx-font-bold{font-size:10px;fill:#0065ad}.fxs-svg-number .fxs-svg-circle{stroke-width:0%;fill:#0078d4}.fxs-svg-number .fxs-svg-text{fill:#fff;font-size:10px}.fxs-svg-number.msportalfx-svg-disabled{filter:grayscale(0%)}.fxs-svg-number.msportalfx-svg-disabled .fxs-svg-circle{fill:#fff;stroke-width:1px;stroke:#949494}.fxs-svg-number.msportalfx-svg-disabled .fxs-svg-text{fill:#949494}.fxs-theme-dark .fxs-svg-number .fxs-svg-text{fill:#0f0f0f}.fxs-theme-dark .fxs-svg-number .fxs-svg-circle{stroke-width:0%;fill:#0078d4}.fxs-theme-dark .fxs-svg-number.msportalfx-svg-disabled .fxs-svg-circle{fill:#0f0f0f;stroke-width:1px;stroke:#949494}.fxs-theme-dark .fxs-svg-number.msportalfx-svg-disabled .fxs-svg-text{fill:#949494}</style></svg>