<svg fill="none" viewBox="0 0 18 18" class="msportalfx-svg-placeholder" xmlns="http://www.w3.org/2000/svg"><title>Redis Enterprise cluster</title><desc></desc><g clip-path="url(#pm6AVT1y1__a)"><path fill="url(#pm6AVT1y1__b)" fill-rule="evenodd" d="M9 .5a.5.5 0 0 1 .5.5v1h2V1a.5.5 0 1 1 1 0v1H14a2 2 0 0 1 2 2v1.5h1a.5.5 0 1 1 0 1h-1v2h1a.5.5 0 1 1 0 1h-1v2h1a.5.5 0 1 1 0 1h-1V14a2 2 0 0 1-2 2h-1.5v1a.5.5 0 1 1-1 0v-1h-2v1a.5.5 0 1 1-1 0v-1h-2v1a.5.5 0 1 1-1 0v-1H4a2 2 0 0 1-2-2v-1.5H1a.5.5 0 0 1 0-1h1v-2H1a.5.5 0 0 1 0-1h1v-2H1a.5.5 0 0 1 0-1h1V4a2 2 0 0 1 2-2h1.5V1a.5.5 0 1 1 1 0v1h2V1A.5.5 0 0 1 9 .5M8.984 3H4a1 1 0 0 0-1 1v10a1 1 0 0 0 1 1h10a1 1 0 0 0 1-1V4a1 1 0 0 0-1-1z" clip-rule="evenodd" /><rect width="10" height="10" x="4" y="4" fill="url(#pm6AVT1y1__c)" rx=".5" /><path fill="#fff" d="M12.124 9.31c-.484.567-1.007 1.215-2.053 1.215-.934 0-1.282-.766-1.307-1.387.205.402.605.727 1.23.712 1.2-.036 2.023-1.043 2.023-1.96 0-1.098-.88-1.89-2.41-1.89-1.095 0-2.451.387-3.342.999-.01.63.368 1.448.504 1.358.772-.516 1.384-.848 1.979-1.015-.88.911-2.99 3.026-3.248 3.399.029.341.484 1.259.707 1.259.068 0 .126-.036.194-.099a28 28 0 0 0 1.615-1.833c.065.841.51 1.869 1.755 1.869 1.113 0 2.217-.747 2.721-2.429.058-.207-.213-.369-.368-.198m-1.269-1.358c0 .53-.561.792-1.075.792a1.4 1.4 0 0 1-.651-.154c.306-.432.61-.874.936-1.347.575.09.79.387.79.709" /></g><defs><linearGradient id="pm6AVT1y1__b" x1=".5" x2="17.5" y1="17.253" y2=".5" gradientUnits="userSpaceOnUse"><stop stop-color="#757575" /><stop offset=".915" stop-color="#B0B0B0" /></linearGradient><linearGradient id="pm6AVT1y1__c" x1="13.277" x2="4.536" y1="4.616" y2="13.393" gradientUnits="userSpaceOnUse"><stop stop-color="#0078D4" /><stop offset="1" stop-color="#005BA1" /></linearGradient><clipPath id="pm6AVT1y1__a"><path fill="#fff" d="M0 0h18v18H0z" /></clipPath></defs><style>.msportalfx-svg-c01{fill:#fff}.msportalfx-svg-c02{fill:#e5e5e5}.msportalfx-svg-c03{fill:#a0a1a2}.msportalfx-svg-c04{fill:#7a7a7a}.msportalfx-svg-c05{fill:#3e3e3e}.msportalfx-svg-c06{fill:#1e1e1e}.msportalfx-svg-c07{fill:#0f0f0f}.msportalfx-svg-c08{fill:#ba141a}.msportalfx-svg-c09{fill:#dd5900}.msportalfx-svg-c10{fill:#ff8c00}.msportalfx-svg-c11{fill:#fcd116}.msportalfx-svg-c12{fill:#fee087}.msportalfx-svg-c13{fill:#b8d432}.msportalfx-svg-c14,.msportalfx-svg-c32{fill:#57a300}.msportalfx-svg-c15{fill:#59b4d9}.msportalfx-svg-c16{fill:#3999c6}.msportalfx-svg-c17{fill:#804998}.msportalfx-svg-c18{fill:#ec008c}.msportalfx-svg-c19{fill:#0072c6}.msportalfx-svg-c20{fill:#68217a}.msportalfx-svg-c21{fill:#00188f}.msportalfx-svg-c22{fill:#e81123}.fxs-mode-light .msportalfx-svg-c22{fill:#a4262c}.msportalfx-svg-c23{fill:#cae3f3}.msportalfx-svg-c24{fill:#59aed3}.msportalfx-svg-c25{fill:#4c3b12}.msportalfx-svg-c26{fill:#be9555}.msportalfx-svg-c27{fill:#4f4d52}.msportalfx-svg-c28{fill:#ef6f59}.msportalfx-svg-c29{fill:#f7cb64}.msportalfx-svg-c30{fill:#fdd8db}.msportalfx-svg-c31{fill:#f6ffec}.msportalfx-svg-c33{fill:#8a2da5}.msportalfx-svg-c34{fill:#e00b1c}.msportalfx-svg-c35{fill:#015cda}.msportalfx-svg-c36{fill:#5db300}.msportalfx-svg-c97{fill:#ffb900}.msportalfx-svg-c98{fill:#00a4ef}.msportalfx-svg-c99{fill:#f25022}.msportalfx-inverted-theme .msportalfx-svg-c05,.fxs-theme-dark .msportalfx-svg-c05{fill:#777}.msportalfx-inverted-theme .msportalfx-svg-c07,.fxs-theme-dark .msportalfx-svg-c07{fill:#f2f2f2}.msportalfx-svg-palette-white{fill:#fff}.msportalfx-svg-palette-blue{fill:#015cda}.msportalfx-svg-palette-black{fill:#1e1e1e}.msportalfx-svg-palette-green{fill:#57a300}.msportalfx-svg-palette-gray{fill:#a0a1a2}.msportalfx-svg-palette-inherit{fill:inherit}.msportalfx-svg-badge{position:absolute;left:0;bottom:0;min-height:10px;min-width:10px}.fxc-menu-icon&gt;.msportalfx-svg-badge{left:-2px;bottom:-2px;min-height:8px;min-width:8px}.msportalfx-svg-disabled{filter:grayscale(100%)}.msportalfx-svg-loading-square{animation:ProgressFlagAnimation 1.45s infinite ease-in-out;transform-origin:50%}.msportalfx-svg-loading-square:nth-child(1){animation-delay:0s}.msportalfx-svg-loading-square:nth-child(2){animation-delay:.2s}.msportalfx-svg-loading-square:nth-child(3){animation-delay:.4s}@keyframes ProgressFlagAnimation{0%{transform:scale(1);opacity:.3}36.1%{transform:scale(1.06);opacity:1}50%{transform:scale(1.06);opacity:1}86.1%{transform:scale(1);opacity:.3}}.msportalfx-svg-flip-horizontal&gt;svg,svg.msportalfx-svg-flip-horizontal{transform:scaleX(-1)}.msportalfx-svg-fabric-rotate360{animation:ImageRotation 1.3s cubic-bezier(.53,.21,.29,.67) infinite}@keyframes ImageRotation{0%{transform:rotate(-45deg)}100%{transform:rotate(315deg)}}.fxs-svg-number .msportalfx-font-bold{font-size:10px;fill:#0065ad}.fxs-svg-number .fxs-svg-circle{stroke-width:0%;fill:#0078d4}.fxs-svg-number .fxs-svg-text{fill:#fff;font-size:10px}.fxs-svg-number.msportalfx-svg-disabled{filter:grayscale(0%)}.fxs-svg-number.msportalfx-svg-disabled .fxs-svg-circle{fill:#fff;stroke-width:1px;stroke:#949494}.fxs-svg-number.msportalfx-svg-disabled .fxs-svg-text{fill:#949494}.fxs-theme-dark .fxs-svg-number .fxs-svg-text{fill:#0f0f0f}.fxs-theme-dark .fxs-svg-number .fxs-svg-circle{stroke-width:0%;fill:#0078d4}.fxs-theme-dark .fxs-svg-number.msportalfx-svg-disabled .fxs-svg-circle{fill:#0f0f0f;stroke-width:1px;stroke:#949494}.fxs-theme-dark .fxs-svg-number.msportalfx-svg-disabled .fxs-svg-text{fill:#949494}</style></svg>