<svg viewBox="0 0 18 18" class="msportalfx-svg-placeholder" xmlns="http://www.w3.org/2000/svg"><title>Edge Site</title><desc></desc><defs><linearGradient id="pdEbBu3np__a" x1="307.11" x2="307.11" y1="385.121" y2="392.353" gradientTransform="matrix(1 0 0 -1 -298 403.516)" gradientUnits="userSpaceOnUse"><stop offset="0" stop-color="#0078d4" /><stop offset="1" stop-color="#5ea0ef" /></linearGradient><linearGradient id="pdEbBu3np__b" x1="307" x2="307" y1="396.228" y2="402.196" gradientUnits="userSpaceOnUse"><stop offset="0" stop-color="#0078d4" /><stop offset="1" stop-color="#5ea0ef" /></linearGradient><linearGradient id="pdEbBu3np__c" x1="307.037" x2="307.037" y1="399.799" y2="397.522" gradientTransform="matrix(1 0 0 -1 -298 403.516)" gradientUnits="userSpaceOnUse"><stop offset="0" stop-color="#50e6ff" /><stop offset="1" stop-color="#32bedd" /></linearGradient><linearGradient id="pdEbBu3np__d" x1="307.111" x2="307.111" y1="390.049" y2="388.225" gradientUnits="userSpaceOnUse"><stop offset="0" stop-color="#50e6ff" /><stop offset="1" stop-color="#32bedd" /></linearGradient></defs><path fill="url(#pdEbBu3np__a)" d="M14.224 15.228a2.324 2.324 0 0 1-2.306 2.241.4.4 0 0 1-.124.018H7.133a3 3 0 0 1-.254.011A2.78 2.78 0 0 1 4 14.828a2.74 2.74 0 0 1 2.411-2.644 2.98 2.98 0 0 1 1.839-1.777v3.41a1.18 1.18 0 0 0-.329.821 1.2 1.2 0 1 0 2.066-.819v-3.5a2.9 2.9 0 0 1 2.25 2.7 2.3 2.3 0 0 1 1.987 2.209" /><path fill="#a3a3a3" d="M9.61 13.979a.824.824 0 0 0-1 0V6.066l1 .006Z" /><path fill="#00e9ff" d="m6.46 9.283-.6.6a.285.285 0 0 1-.319 0L1.781 6.19l.968-.976L6.46 8.906a.283.283 0 0 1 0 .377m5.026-.394a.1.1 0 0 0-.032.033.24.24 0 0 0 .031.34l.6.62a.284.284 0 0 0 .378 0l3.76-3.7-.971-.973Z" /><path fill="url(#pdEbBu3np__b)" d="m6.422 1.51-3.673 3.7-.968.976L1.587 6l-.027-.028-.37-.362-.006-.01a.5.5 0 0 1-.15-.378.5.5 0 0 1 .16-.389L5.485.572a.283.283 0 0 1 .377 0l.567.567.023.028a.243.243 0 0 1-.027.341Zm10.389 3.338-.45-.451-.131-.137L12.555.572a.284.284 0 0 0-.378 0l-.6.567a.284.284 0 0 0 0 .378l3.673 3.7.968.975.362-.354.228-.226.01-.007a.5.5 0 0 0 .146-.329.3.3 0 0 0 0-.088.5.5 0 0 0-.153-.347Z" /><path fill="url(#pdEbBu3np__c)" d="M12.307 4.148a1.031 1.031 0 1 1-1.031 1.031 1.03 1.03 0 0 1 1.031-1.031M4.735 5.179a1.031 1.031 0 1 0 1.031-1.031 1.03 1.03 0 0 0-1.031 1.031m3.347 0a1.032 1.032 0 1 0 1.033-1.031 1.03 1.03 0 0 0-1.033 1.031" /><path fill="url(#pdEbBu3np__d)" d="M9.938 14.638a.824.824 0 1 1-.325-.661.83.83 0 0 1 .325.661" /><style>.msportalfx-svg-c01{fill:#fff}.msportalfx-svg-c02{fill:#e5e5e5}.msportalfx-svg-c03{fill:#a0a1a2}.msportalfx-svg-c04{fill:#7a7a7a}.msportalfx-svg-c05{fill:#3e3e3e}.msportalfx-svg-c06{fill:#1e1e1e}.msportalfx-svg-c07{fill:#0f0f0f}.msportalfx-svg-c08{fill:#ba141a}.msportalfx-svg-c09{fill:#dd5900}.msportalfx-svg-c10{fill:#ff8c00}.msportalfx-svg-c11{fill:#fcd116}.msportalfx-svg-c12{fill:#fee087}.msportalfx-svg-c13{fill:#b8d432}.msportalfx-svg-c14,.msportalfx-svg-c32{fill:#57a300}.msportalfx-svg-c15{fill:#59b4d9}.msportalfx-svg-c16{fill:#3999c6}.msportalfx-svg-c17{fill:#804998}.msportalfx-svg-c18{fill:#ec008c}.msportalfx-svg-c19{fill:#0072c6}.msportalfx-svg-c20{fill:#68217a}.msportalfx-svg-c21{fill:#00188f}.msportalfx-svg-c22{fill:#e81123}.fxs-mode-light .msportalfx-svg-c22{fill:#a4262c}.msportalfx-svg-c23{fill:#cae3f3}.msportalfx-svg-c24{fill:#59aed3}.msportalfx-svg-c25{fill:#4c3b12}.msportalfx-svg-c26{fill:#be9555}.msportalfx-svg-c27{fill:#4f4d52}.msportalfx-svg-c28{fill:#ef6f59}.msportalfx-svg-c29{fill:#f7cb64}.msportalfx-svg-c30{fill:#fdd8db}.msportalfx-svg-c31{fill:#f6ffec}.msportalfx-svg-c33{fill:#8a2da5}.msportalfx-svg-c34{fill:#e00b1c}.msportalfx-svg-c35{fill:#015cda}.msportalfx-svg-c36{fill:#5db300}.msportalfx-svg-c97{fill:#ffb900}.msportalfx-svg-c98{fill:#00a4ef}.msportalfx-svg-c99{fill:#f25022}.msportalfx-inverted-theme .msportalfx-svg-c05,.fxs-theme-dark .msportalfx-svg-c05{fill:#777}.msportalfx-inverted-theme .msportalfx-svg-c07,.fxs-theme-dark .msportalfx-svg-c07{fill:#f2f2f2}.msportalfx-svg-palette-white{fill:#fff}.msportalfx-svg-palette-blue{fill:#015cda}.msportalfx-svg-palette-black{fill:#1e1e1e}.msportalfx-svg-palette-green{fill:#57a300}.msportalfx-svg-palette-gray{fill:#a0a1a2}.msportalfx-svg-palette-inherit{fill:inherit}.msportalfx-svg-badge{position:absolute;left:0;bottom:0;min-height:10px;min-width:10px}.fxc-menu-icon&gt;.msportalfx-svg-badge{left:-2px;bottom:-2px;min-height:8px;min-width:8px}.msportalfx-svg-disabled{filter:grayscale(100%)}.msportalfx-svg-loading-square{animation:ProgressFlagAnimation 1.45s infinite ease-in-out;transform-origin:50%}.msportalfx-svg-loading-square:nth-child(1){animation-delay:0s}.msportalfx-svg-loading-square:nth-child(2){animation-delay:.2s}.msportalfx-svg-loading-square:nth-child(3){animation-delay:.4s}@keyframes ProgressFlagAnimation{0%{transform:scale(1);opacity:.3}36.1%{transform:scale(1.06);opacity:1}50%{transform:scale(1.06);opacity:1}86.1%{transform:scale(1);opacity:.3}}.msportalfx-svg-flip-horizontal&gt;svg,svg.msportalfx-svg-flip-horizontal{transform:scaleX(-1)}.msportalfx-svg-fabric-rotate360{animation:ImageRotation 1.3s cubic-bezier(.53,.21,.29,.67) infinite}@keyframes ImageRotation{0%{transform:rotate(-45deg)}100%{transform:rotate(315deg)}}.fxs-svg-number .msportalfx-font-bold{font-size:10px;fill:#0065ad}.fxs-svg-number .fxs-svg-circle{stroke-width:0%;fill:#0078d4}.fxs-svg-number .fxs-svg-text{fill:#fff;font-size:10px}.fxs-svg-number.msportalfx-svg-disabled{filter:grayscale(0%)}.fxs-svg-number.msportalfx-svg-disabled .fxs-svg-circle{fill:#fff;stroke-width:1px;stroke:#949494}.fxs-svg-number.msportalfx-svg-disabled .fxs-svg-text{fill:#949494}.fxs-theme-dark .fxs-svg-number .fxs-svg-text{fill:#0f0f0f}.fxs-theme-dark .fxs-svg-number .fxs-svg-circle{stroke-width:0%;fill:#0078d4}.fxs-theme-dark .fxs-svg-number.msportalfx-svg-disabled .fxs-svg-circle{fill:#0f0f0f;stroke-width:1px;stroke:#949494}.fxs-theme-dark .fxs-svg-number.msportalfx-svg-disabled .fxs-svg-text{fill:#949494}</style></svg>