<svg viewBox="0 0 47 47" class="msportalfx-svg-placeholder" role="presentation" focusable="false" xmlns:xlink="http://www.w3.org/1999/xlink" xmlns="http://www.w3.org/2000/svg"><desc></desc><g><title>GeoCatalog</title><path opacity=".5" fill="#2F8C04" d="M0 0h47v47H0z" /><path d="M33.917 21.25c0-5.477-4.44-9.916-9.917-9.916-5.477 0-9.916 4.44-9.916 9.916a9.877 9.877 0 0 0 2.418 6.49 9.974 9.974 0 0 0 1.844 1.658A9.871 9.871 0 0 0 24 31.167a9.87 9.87 0 0 0 5.74-1.83 9.967 9.967 0 0 0 1.821-1.67 9.877 9.877 0 0 0 2.356-6.417Zm-8.2 6.267c-.777 1.65-1.504 1.9-1.717 1.9-.212 0-.94-.25-1.716-1.9-.358-.76-.66-1.7-.871-2.767h5.174c-.21 1.068-.512 2.006-.87 2.767Zm-4.633-6.267c0-.603.027-1.188.079-1.75h5.675a19.148 19.148 0 0 1 0 3.5h-5.675a19.15 19.15 0 0 1-.08-1.75Zm5.915 7.599c.608-1.085 1.084-2.492 1.369-4.099h3.013a8.196 8.196 0 0 1-4.382 4.099ZM28.594 23a20.979 20.979 0 0 0 0-3.5h3.385a8.196 8.196 0 0 1 0 3.5h-3.385Zm-12.573 0a8.203 8.203 0 0 1 0-3.5h3.385a20.975 20.975 0 0 0 0 3.5H16.02Zm3.611 1.75c.286 1.607.761 3.014 1.37 4.099a8.196 8.196 0 0 1-4.383-4.099h3.014Zm6.955-7h-5.174c.211-1.067.513-2.006.87-2.767.777-1.65 1.505-1.9 1.717-1.9.213 0 .94.25 1.717 1.9.358.761.66 1.7.87 2.767Zm4.794 0h-3.013c-.285-1.606-.761-3.014-1.369-4.098a8.196 8.196 0 0 1 4.382 4.098Zm-11.748 0h-3.014a8.196 8.196 0 0 1 4.382-4.098c-.608 1.084-1.083 2.492-1.369 4.098Zm-4.966 9.917h.295c.453.636.971 1.223 1.545 1.75h-1.175l-.972 3.5h19.28l-.972-3.5h-1.175a11.133 11.133 0 0 0 1.545-1.75h.296c.392 0 .737.262.842.64l1.459 5.25a.875.875 0 0 1-.843 1.11H13.208a.875.875 0 0 1-.843-1.11l1.459-5.25a.875.875 0 0 1 .843-.64Z" class="msportalfx-svg-c01" /></g><style>.msportalfx-svg-c01{fill:#fff}.msportalfx-svg-c02{fill:#e5e5e5}.msportalfx-svg-c03{fill:#a0a1a2}.msportalfx-svg-c04{fill:#7a7a7a}.msportalfx-svg-c05{fill:#3e3e3e}.msportalfx-svg-c06{fill:#1e1e1e}.msportalfx-svg-c07{fill:#0f0f0f}.msportalfx-svg-c08{fill:#ba141a}.msportalfx-svg-c09{fill:#dd5900}.msportalfx-svg-c10{fill:#ff8c00}.msportalfx-svg-c11{fill:#fcd116}.msportalfx-svg-c12{fill:#fee087}.msportalfx-svg-c13{fill:#b8d432}.msportalfx-svg-c14,.msportalfx-svg-c32{fill:#57a300}.msportalfx-svg-c15{fill:#59b4d9}.msportalfx-svg-c16{fill:#3999c6}.msportalfx-svg-c17{fill:#804998}.msportalfx-svg-c18{fill:#ec008c}.msportalfx-svg-c19{fill:#0072c6}.msportalfx-svg-c20{fill:#68217a}.msportalfx-svg-c21{fill:#00188f}.msportalfx-svg-c22{fill:#e81123}.fxs-mode-light .msportalfx-svg-c22{fill:#a4262c}.msportalfx-svg-c23{fill:#cae3f3}.msportalfx-svg-c24{fill:#59aed3}.msportalfx-svg-c25{fill:#4c3b12}.msportalfx-svg-c26{fill:#be9555}.msportalfx-svg-c27{fill:#4f4d52}.msportalfx-svg-c28{fill:#ef6f59}.msportalfx-svg-c29{fill:#f7cb64}.msportalfx-svg-c30{fill:#fdd8db}.msportalfx-svg-c31{fill:#f6ffec}.msportalfx-svg-c33{fill:#8a2da5}.msportalfx-svg-c34{fill:#e00b1c}.msportalfx-svg-c35{fill:#015cda}.msportalfx-svg-c36{fill:#5db300}.msportalfx-svg-c97{fill:#ffb900}.msportalfx-svg-c98{fill:#00a4ef}.msportalfx-svg-c99{fill:#f25022}.msportalfx-inverted-theme .msportalfx-svg-c05,.fxs-theme-dark .msportalfx-svg-c05{fill:#777}.msportalfx-inverted-theme .msportalfx-svg-c07,.fxs-theme-dark .msportalfx-svg-c07{fill:#f2f2f2}.msportalfx-svg-palette-white{fill:#fff}.msportalfx-svg-palette-blue{fill:#015cda}.msportalfx-svg-palette-black{fill:#1e1e1e}.msportalfx-svg-palette-green{fill:#57a300}.msportalfx-svg-palette-gray{fill:#a0a1a2}.msportalfx-svg-palette-inherit{fill:inherit}.msportalfx-svg-badge{position:absolute;left:0;bottom:0;min-height:10px;min-width:10px}.fxc-menu-icon&gt;.msportalfx-svg-badge{left:-2px;bottom:-2px;min-height:8px;min-width:8px}.msportalfx-svg-disabled{filter:grayscale(100%)}.msportalfx-svg-loading-square{animation:ProgressFlagAnimation 1.45s infinite ease-in-out;transform-origin:50%}.msportalfx-svg-loading-square:nth-child(1){animation-delay:0s}.msportalfx-svg-loading-square:nth-child(2){animation-delay:.2s}.msportalfx-svg-loading-square:nth-child(3){animation-delay:.4s}@keyframes ProgressFlagAnimation{0%{transform:scale(1);opacity:.3}36.1%{transform:scale(1.06);opacity:1}50%{transform:scale(1.06);opacity:1}86.1%{transform:scale(1);opacity:.3}}.msportalfx-svg-flip-horizontal&gt;svg,svg.msportalfx-svg-flip-horizontal{transform:scaleX(-1)}.msportalfx-svg-fabric-rotate360{animation:ImageRotation 1.3s cubic-bezier(.53,.21,.29,.67) infinite}@keyframes ImageRotation{0%{transform:rotate(-45deg)}100%{transform:rotate(315deg)}}.fxs-svg-number .msportalfx-font-bold{font-size:10px;fill:#0065ad}.fxs-svg-number .fxs-svg-circle{stroke-width:0%;fill:#0078d4}.fxs-svg-number .fxs-svg-text{fill:#fff;font-size:10px}.fxs-svg-number.msportalfx-svg-disabled{filter:grayscale(0%)}.fxs-svg-number.msportalfx-svg-disabled .fxs-svg-circle{fill:#fff;stroke-width:1px;stroke:#949494}.fxs-svg-number.msportalfx-svg-disabled .fxs-svg-text{fill:#949494}.fxs-theme-dark .fxs-svg-number .fxs-svg-text{fill:#0f0f0f}.fxs-theme-dark .fxs-svg-number .fxs-svg-circle{stroke-width:0%;fill:#0078d4}.fxs-theme-dark .fxs-svg-number.msportalfx-svg-disabled .fxs-svg-circle{fill:#0f0f0f;stroke-width:1px;stroke:#949494}.fxs-theme-dark .fxs-svg-number.msportalfx-svg-disabled .fxs-svg-text{fill:#949494}</style></svg>