<svg fill="none" viewBox="0 0 18 18" class="msportalfx-svg-placeholder" xmlns="http://www.w3.org/2000/svg"><title>Local Rulestack for Cloud NGFW by Palo Alto Networks</title><desc></desc><path fill="url(#pu_Qf5Hga__a)" d="M14.018 8.237c0 4.336-5.326 7.815-6.493 8.517a.41.41 0 0 1-.433 0C5.925 16.052.599 12.573.599 8.237v-5.16a.423.423 0 0 1 .413-.496c4.15-.073 3.2-1.848 6.296-1.848s2.148 1.775 6.297 1.848a.423.423 0 0 1 .413.413z" /><path fill="#00569B" fill-rule="evenodd" d="M14.617 6.968v1.161H0V6.968zm0-2.903v1.16H0v-1.16zM10.57 1.16c.688.442 1.6.853 3.602.903a.45.45 0 0 1 .4.259H.043a.45.45 0 0 1 .4-.259c2.003-.05 2.914-.46 3.602-.903zm3.372 9.871a7.6 7.6 0 0 0 .435-1.161H.238c.11.397.258.784.434 1.161zm-1.054 1.742H1.723c.3.407.626.795.963 1.161h9.238c.338-.366.664-.754.965-1.16m-2.818 2.903H4.537c.56.463 1.092.854 1.537 1.162h2.463c.444-.308.974-.7 1.534-1.162" clip-rule="evenodd" /><path fill="#00569B" fill-rule="evenodd" d="M7.546 17.487c1.27-.775 7.07-4.573 7.07-9.29V2.518a.454.454 0 0 0-.443-.454c-2.403-.06-3.235-.64-3.994-1.17C9.509.428 8.895 0 7.309 0s-2.201.428-2.87.895c-.76.53-1.592 1.11-3.995 1.17A.454.454 0 0 0 0 2.519v5.677c0 4.728 5.801 8.527 7.071 9.29a.44.44 0 0 0 .475 0m-.02-.733c1.166-.702 6.492-4.181 6.492-8.517V2.994a.424.424 0 0 0-.413-.413c-2.213-.039-2.976-.562-3.675-1.042-.612-.42-1.176-.806-2.622-.806s-2.009.387-2.62.806c-.7.48-1.463 1.003-3.676 1.042a.423.423 0 0 0-.413.495v5.161c0 4.336 5.326 7.815 6.493 8.517a.41.41 0 0 0 .433 0" clip-rule="evenodd" /><circle cx="13.219" cy="13.219" r="4.781" fill="#F04E23" /><path fill="#fff" fill-rule="evenodd" d="m12.101 10.43-2.867 2.794 1.144 1.114 2.867-2.794zm3.431 1.114-1.144-1.114-1.143 1.114.57.554-2.868 2.795 1.144 1.114 1.142-1.114-.568-.554zm-2.298 3.35L16.1 12.1l1.143 1.114-2.867 2.794z" clip-rule="evenodd" /><defs><linearGradient id="pu_Qf5Hga__a" x1="7.308" x2="7.308" y1="16.816" y2=".733" gradientUnits="userSpaceOnUse"><stop stop-color="#0078D4" /><stop offset=".06" stop-color="#0A7CD7" /><stop offset=".34" stop-color="#2E8CE1" /><stop offset=".59" stop-color="#4897E9" /><stop offset=".82" stop-color="#589EED" /><stop offset="1" stop-color="#5EA0EF" /></linearGradient></defs><style>.msportalfx-svg-c01{fill:#fff}.msportalfx-svg-c02{fill:#e5e5e5}.msportalfx-svg-c03{fill:#a0a1a2}.msportalfx-svg-c04{fill:#7a7a7a}.msportalfx-svg-c05{fill:#3e3e3e}.msportalfx-svg-c06{fill:#1e1e1e}.msportalfx-svg-c07{fill:#0f0f0f}.msportalfx-svg-c08{fill:#ba141a}.msportalfx-svg-c09{fill:#dd5900}.msportalfx-svg-c10{fill:#ff8c00}.msportalfx-svg-c11{fill:#fcd116}.msportalfx-svg-c12{fill:#fee087}.msportalfx-svg-c13{fill:#b8d432}.msportalfx-svg-c14,.msportalfx-svg-c32{fill:#57a300}.msportalfx-svg-c15{fill:#59b4d9}.msportalfx-svg-c16{fill:#3999c6}.msportalfx-svg-c17{fill:#804998}.msportalfx-svg-c18{fill:#ec008c}.msportalfx-svg-c19{fill:#0072c6}.msportalfx-svg-c20{fill:#68217a}.msportalfx-svg-c21{fill:#00188f}.msportalfx-svg-c22{fill:#e81123}.fxs-mode-light .msportalfx-svg-c22{fill:#a4262c}.msportalfx-svg-c23{fill:#cae3f3}.msportalfx-svg-c24{fill:#59aed3}.msportalfx-svg-c25{fill:#4c3b12}.msportalfx-svg-c26{fill:#be9555}.msportalfx-svg-c27{fill:#4f4d52}.msportalfx-svg-c28{fill:#ef6f59}.msportalfx-svg-c29{fill:#f7cb64}.msportalfx-svg-c30{fill:#fdd8db}.msportalfx-svg-c31{fill:#f6ffec}.msportalfx-svg-c33{fill:#8a2da5}.msportalfx-svg-c34{fill:#e00b1c}.msportalfx-svg-c35{fill:#015cda}.msportalfx-svg-c36{fill:#5db300}.msportalfx-svg-c97{fill:#ffb900}.msportalfx-svg-c98{fill:#00a4ef}.msportalfx-svg-c99{fill:#f25022}.msportalfx-inverted-theme .msportalfx-svg-c05,.fxs-theme-dark .msportalfx-svg-c05{fill:#777}.msportalfx-inverted-theme .msportalfx-svg-c07,.fxs-theme-dark .msportalfx-svg-c07{fill:#f2f2f2}.msportalfx-svg-palette-white{fill:#fff}.msportalfx-svg-palette-blue{fill:#015cda}.msportalfx-svg-palette-black{fill:#1e1e1e}.msportalfx-svg-palette-green{fill:#57a300}.msportalfx-svg-palette-gray{fill:#a0a1a2}.msportalfx-svg-palette-inherit{fill:inherit}.msportalfx-svg-badge{position:absolute;left:0;bottom:0;min-height:10px;min-width:10px}.fxc-menu-icon&gt;.msportalfx-svg-badge{left:-2px;bottom:-2px;min-height:8px;min-width:8px}.msportalfx-svg-disabled{filter:grayscale(100%)}.msportalfx-svg-loading-square{animation:ProgressFlagAnimation 1.45s infinite ease-in-out;transform-origin:50%}.msportalfx-svg-loading-square:nth-child(1){animation-delay:0s}.msportalfx-svg-loading-square:nth-child(2){animation-delay:.2s}.msportalfx-svg-loading-square:nth-child(3){animation-delay:.4s}@keyframes ProgressFlagAnimation{0%{transform:scale(1);opacity:.3}36.1%{transform:scale(1.06);opacity:1}50%{transform:scale(1.06);opacity:1}86.1%{transform:scale(1);opacity:.3}}.msportalfx-svg-flip-horizontal&gt;svg,svg.msportalfx-svg-flip-horizontal{transform:scaleX(-1)}.msportalfx-svg-fabric-rotate360{animation:ImageRotation 1.3s cubic-bezier(.53,.21,.29,.67) infinite}@keyframes ImageRotation{0%{transform:rotate(-45deg)}100%{transform:rotate(315deg)}}.fxs-svg-number .msportalfx-font-bold{font-size:10px;fill:#0065ad}.fxs-svg-number .fxs-svg-circle{stroke-width:0%;fill:#0078d4}.fxs-svg-number .fxs-svg-text{fill:#fff;font-size:10px}.fxs-svg-number.msportalfx-svg-disabled{filter:grayscale(0%)}.fxs-svg-number.msportalfx-svg-disabled .fxs-svg-circle{fill:#fff;stroke-width:1px;stroke:#949494}.fxs-svg-number.msportalfx-svg-disabled .fxs-svg-text{fill:#949494}.fxs-theme-dark .fxs-svg-number .fxs-svg-text{fill:#0f0f0f}.fxs-theme-dark .fxs-svg-number .fxs-svg-circle{stroke-width:0%;fill:#0078d4}.fxs-theme-dark .fxs-svg-number.msportalfx-svg-disabled .fxs-svg-circle{fill:#0f0f0f;stroke-width:1px;stroke:#949494}.fxs-theme-dark .fxs-svg-number.msportalfx-svg-disabled .fxs-svg-text{fill:#949494}</style></svg>