<svg viewBox="0 0 256 221.702" class="msportalfx-svg-placeholder" xmlns="http://www.w3.org/2000/svg"><desc>Create and manage applications to access rich M365 data in bulk into your Azure subscription with granular control for consent.</desc><title>Microsoft Graph Data Connect</title><path fill="#41a4ed" d="M68.451 7.384H188.32L87.05 44.735zm180.107 103.873-49.302.006L188.32 7.384z" /><path fill="#2b7cd2" d="M87.05 44.735 188.32 7.384l10.936 103.879z" /><path fill="#0358a6" d="m87.05 44.735 2.81 130.3 109.213-63.78z" /><path fill="#103f90" d="m8.477 111.255 78.573-66.52 2.827 130.3zm81.401 63.779 109.378-63.771-10.9 103.878z" /><path fill="#163870" d="m8.477 111.255 81.4 63.78-21.426 40.107z" /><path fill="#112d56" d="m68.451 215.142 21.426-40.107 98.479 40.106z" /><path fill="#0078d3" d="M8.477 111.255 68.451 7.384 87.05 44.735zm179.879 103.886 60.09-103.886h-49.19z" /><path fill="#2770c0" d="M199.255 111.259v.004h.001z" /><path fill="#036dc0" d="M248.446 111.255h-49.19l-.001.004v.004l-10.899 103.878z" /><path fill="#fff" d="M253.652 106.784 194.348 4.067 192 0H64l-2.348 4.067L2.348 106.784 0 110.851l2.348 4.067 59.3 102.718L64 221.7h128l2.348-4.066 59.3-102.718 2.352-4.065Zm-8.591 1.388-40 .006a10 10 0 0 0-3.546-4.331L192.363 16.9ZM98.286 166.517a9.9 9.9 0 0 0-4.55-2.524L91.391 57.322a9.94 9.94 0 0 0 4.82-3.468L187 107.662a9.86 9.86 0 0 0-.545 7.447Zm93.245-63.38-93.32-55.308a10 10 0 0 0-.4-2.733l87.877-32.4 9.416 89.453a9.9 9.9 0 0 0-3.573.988M94.1 39.852a9.88 9.88 0 0 0-5.825-1.9c-.16 0-.317.016-.475.024L72.972 8.134h107.162Zm-12.69 15.21a9.9 9.9 0 0 0 3.774 2.268l2.356 107.124a10 10 0 0 0-2.484 1.491l-69.9-54.767ZM89.589 183.4a9.83 9.83 0 0 0 8.644-2.61l80.5 32.779H73.473Zm96.145 26.322-84.59-34.444a9.3 9.3 0 0 0 .006-3.252l89-51.891a9.9 9.9 0 0 0 4.795 1.8ZM67.272 10.6l14.71 29.6a9.8 9.8 0 0 0-3.51 9.221l-65.788 55.728ZM13.278 117.582l68.449 53.632a9.84 9.84 0 0 0 2.41 9.23l-16.612 31.1Zm179.236 86.964 8.833-84.189a9.94 9.94 0 0 0 4.21-5.976l39.017-.007Z" /><style>.msportalfx-svg-c01{fill:#fff}.msportalfx-svg-c02{fill:#e5e5e5}.msportalfx-svg-c03{fill:#a0a1a2}.msportalfx-svg-c04{fill:#7a7a7a}.msportalfx-svg-c05{fill:#3e3e3e}.msportalfx-svg-c06{fill:#1e1e1e}.msportalfx-svg-c07{fill:#0f0f0f}.msportalfx-svg-c08{fill:#ba141a}.msportalfx-svg-c09{fill:#dd5900}.msportalfx-svg-c10{fill:#ff8c00}.msportalfx-svg-c11{fill:#fcd116}.msportalfx-svg-c12{fill:#fee087}.msportalfx-svg-c13{fill:#b8d432}.msportalfx-svg-c14,.msportalfx-svg-c32{fill:#57a300}.msportalfx-svg-c15{fill:#59b4d9}.msportalfx-svg-c16{fill:#3999c6}.msportalfx-svg-c17{fill:#804998}.msportalfx-svg-c18{fill:#ec008c}.msportalfx-svg-c19{fill:#0072c6}.msportalfx-svg-c20{fill:#68217a}.msportalfx-svg-c21{fill:#00188f}.msportalfx-svg-c22{fill:#e81123}.fxs-mode-light .msportalfx-svg-c22{fill:#a4262c}.msportalfx-svg-c23{fill:#cae3f3}.msportalfx-svg-c24{fill:#59aed3}.msportalfx-svg-c25{fill:#4c3b12}.msportalfx-svg-c26{fill:#be9555}.msportalfx-svg-c27{fill:#4f4d52}.msportalfx-svg-c28{fill:#ef6f59}.msportalfx-svg-c29{fill:#f7cb64}.msportalfx-svg-c30{fill:#fdd8db}.msportalfx-svg-c31{fill:#f6ffec}.msportalfx-svg-c33{fill:#8a2da5}.msportalfx-svg-c34{fill:#e00b1c}.msportalfx-svg-c35{fill:#015cda}.msportalfx-svg-c36{fill:#5db300}.msportalfx-svg-c97{fill:#ffb900}.msportalfx-svg-c98{fill:#00a4ef}.msportalfx-svg-c99{fill:#f25022}.msportalfx-inverted-theme .msportalfx-svg-c05,.fxs-theme-dark .msportalfx-svg-c05{fill:#777}.msportalfx-inverted-theme .msportalfx-svg-c07,.fxs-theme-dark .msportalfx-svg-c07{fill:#f2f2f2}.msportalfx-svg-palette-white{fill:#fff}.msportalfx-svg-palette-blue{fill:#015cda}.msportalfx-svg-palette-black{fill:#1e1e1e}.msportalfx-svg-palette-green{fill:#57a300}.msportalfx-svg-palette-gray{fill:#a0a1a2}.msportalfx-svg-palette-inherit{fill:inherit}.msportalfx-svg-badge{position:absolute;left:0;bottom:0;min-height:10px;min-width:10px}.fxc-menu-icon&gt;.msportalfx-svg-badge{left:-2px;bottom:-2px;min-height:8px;min-width:8px}.msportalfx-svg-disabled{filter:grayscale(100%)}.msportalfx-svg-loading-square{animation:ProgressFlagAnimation 1.45s infinite ease-in-out;transform-origin:50%}.msportalfx-svg-loading-square:nth-child(1){animation-delay:0s}.msportalfx-svg-loading-square:nth-child(2){animation-delay:.2s}.msportalfx-svg-loading-square:nth-child(3){animation-delay:.4s}@keyframes ProgressFlagAnimation{0%{transform:scale(1);opacity:.3}36.1%{transform:scale(1.06);opacity:1}50%{transform:scale(1.06);opacity:1}86.1%{transform:scale(1);opacity:.3}}.msportalfx-svg-flip-horizontal&gt;svg,svg.msportalfx-svg-flip-horizontal{transform:scaleX(-1)}.msportalfx-svg-fabric-rotate360{animation:ImageRotation 1.3s cubic-bezier(.53,.21,.29,.67) infinite}@keyframes ImageRotation{0%{transform:rotate(-45deg)}100%{transform:rotate(315deg)}}.fxs-svg-number .msportalfx-font-bold{font-size:10px;fill:#0065ad}.fxs-svg-number .fxs-svg-circle{stroke-width:0%;fill:#0078d4}.fxs-svg-number .fxs-svg-text{fill:#fff;font-size:10px}.fxs-svg-number.msportalfx-svg-disabled{filter:grayscale(0%)}.fxs-svg-number.msportalfx-svg-disabled .fxs-svg-circle{fill:#fff;stroke-width:1px;stroke:#949494}.fxs-svg-number.msportalfx-svg-disabled .fxs-svg-text{fill:#949494}.fxs-theme-dark .fxs-svg-number .fxs-svg-text{fill:#0f0f0f}.fxs-theme-dark .fxs-svg-number .fxs-svg-circle{stroke-width:0%;fill:#0078d4}.fxs-theme-dark .fxs-svg-number.msportalfx-svg-disabled .fxs-svg-circle{fill:#0f0f0f;stroke-width:1px;stroke:#949494}.fxs-theme-dark .fxs-svg-number.msportalfx-svg-disabled .fxs-svg-text{fill:#949494}</style></svg>