<svg fill="none" viewBox="0 0 40 40" class="msportalfx-svg-placeholder" xmlns="http://www.w3.org/2000/svg"><title>Engage Center Connector</title><desc>Interact with your Engage Center workspace and associated resources directly from the Azure Portal</desc><defs><linearGradient id="piS_tVX24__a" x1="-331.504" x2="-331.504" y1="-542.15" y2="-531.443" gradientTransform="translate(338 549.516)" gradientUnits="userSpaceOnUse"><stop offset=".22" stop-color="#32d4f5" /><stop offset="1" stop-color="#198ab3" /></linearGradient><linearGradient id="piS_tVX24__b" x1="-331.771" x2="-330.986" y1="-547.916" y2="-538.15" gradientTransform="translate(338 549.516)" gradientUnits="userSpaceOnUse"><stop offset=".22" stop-color="#32d4f5" /><stop offset="1" stop-color="#198ab3" /></linearGradient></defs><g transform="scale(2)"><path fill="#0078d4" d="M16.716 13.78c.424.006.771-.296.776-.718v-.01a.3.3 0 0 0-.019-.126c-.3-2.425-1.688-4.403-4.327-4.403s-4.065 1.706-4.338 4.403a.787.787 0 0 0 .699.854h7.21z" /><path fill="#fff" d="M13.155 9.135a2.36 2.36 0 0 1-1.319-.388l1.31 3.414 1.291-3.384a2.46 2.46 0 0 1-1.281.358z" opacity=".8" /><circle cx="13.155" cy="6.701" r="2.435" fill="#0078d4" /><path fill="url(#piS_tVX24__a)" d="M11.834 16.144c.638 0 1.154-.476 1.154-1.113a1 1 0 0 0 0-.135c-.457-3.627-2.523-6.575-6.462-6.575S.433 10.823.006 14.866a1.164 1.164 0 0 0 1.038 1.27z" /><path fill="#fff" d="M6.576 9.182A3.6 3.6 0 0 1 4.635 8.6l1.941 5.09 1.941-5.052a3.7 3.7 0 0 1-1.941.543Z" opacity=".8" /><circle cx="6.546" cy="5.547" r="3.637" fill="url(#piS_tVX24__b)" /><path fill="#0078d4" d="M13.155 3.362a3.343 3.343 0 0 1 3.339 3.339c0 .805-.286 1.544-.762 2.121a4.2 4.2 0 0 1 1.08 1.051 4.82 4.82 0 0 0 1.187-3.172 4.85 4.85 0 0 0-4.845-4.845 4.83 4.83 0 0 0-3.296 1.298c.317.438.549.941.673 1.484a3.33 3.33 0 0 1 2.623-1.277Z" /></g><style>.msportalfx-svg-c01{fill:#fff}.msportalfx-svg-c02{fill:#e5e5e5}.msportalfx-svg-c03{fill:#a0a1a2}.msportalfx-svg-c04{fill:#7a7a7a}.msportalfx-svg-c05{fill:#3e3e3e}.msportalfx-svg-c06{fill:#1e1e1e}.msportalfx-svg-c07{fill:#0f0f0f}.msportalfx-svg-c08{fill:#ba141a}.msportalfx-svg-c09{fill:#dd5900}.msportalfx-svg-c10{fill:#ff8c00}.msportalfx-svg-c11{fill:#fcd116}.msportalfx-svg-c12{fill:#fee087}.msportalfx-svg-c13{fill:#b8d432}.msportalfx-svg-c14,.msportalfx-svg-c32{fill:#57a300}.msportalfx-svg-c15{fill:#59b4d9}.msportalfx-svg-c16{fill:#3999c6}.msportalfx-svg-c17{fill:#804998}.msportalfx-svg-c18{fill:#ec008c}.msportalfx-svg-c19{fill:#0072c6}.msportalfx-svg-c20{fill:#68217a}.msportalfx-svg-c21{fill:#00188f}.msportalfx-svg-c22{fill:#e81123}.fxs-mode-light .msportalfx-svg-c22{fill:#a4262c}.msportalfx-svg-c23{fill:#cae3f3}.msportalfx-svg-c24{fill:#59aed3}.msportalfx-svg-c25{fill:#4c3b12}.msportalfx-svg-c26{fill:#be9555}.msportalfx-svg-c27{fill:#4f4d52}.msportalfx-svg-c28{fill:#ef6f59}.msportalfx-svg-c29{fill:#f7cb64}.msportalfx-svg-c30{fill:#fdd8db}.msportalfx-svg-c31{fill:#f6ffec}.msportalfx-svg-c33{fill:#8a2da5}.msportalfx-svg-c34{fill:#e00b1c}.msportalfx-svg-c35{fill:#015cda}.msportalfx-svg-c36{fill:#5db300}.msportalfx-svg-c97{fill:#ffb900}.msportalfx-svg-c98{fill:#00a4ef}.msportalfx-svg-c99{fill:#f25022}.msportalfx-inverted-theme .msportalfx-svg-c05,.fxs-theme-dark .msportalfx-svg-c05{fill:#777}.msportalfx-inverted-theme .msportalfx-svg-c07,.fxs-theme-dark .msportalfx-svg-c07{fill:#f2f2f2}.msportalfx-svg-palette-white{fill:#fff}.msportalfx-svg-palette-blue{fill:#015cda}.msportalfx-svg-palette-black{fill:#1e1e1e}.msportalfx-svg-palette-green{fill:#57a300}.msportalfx-svg-palette-gray{fill:#a0a1a2}.msportalfx-svg-palette-inherit{fill:inherit}.msportalfx-svg-badge{position:absolute;left:0;bottom:0;min-height:10px;min-width:10px}.fxc-menu-icon&gt;.msportalfx-svg-badge{left:-2px;bottom:-2px;min-height:8px;min-width:8px}.msportalfx-svg-disabled{filter:grayscale(100%)}.msportalfx-svg-loading-square{animation:ProgressFlagAnimation 1.45s infinite ease-in-out;transform-origin:50%}.msportalfx-svg-loading-square:nth-child(1){animation-delay:0s}.msportalfx-svg-loading-square:nth-child(2){animation-delay:.2s}.msportalfx-svg-loading-square:nth-child(3){animation-delay:.4s}@keyframes ProgressFlagAnimation{0%{transform:scale(1);opacity:.3}36.1%{transform:scale(1.06);opacity:1}50%{transform:scale(1.06);opacity:1}86.1%{transform:scale(1);opacity:.3}}.msportalfx-svg-flip-horizontal&gt;svg,svg.msportalfx-svg-flip-horizontal{transform:scaleX(-1)}.msportalfx-svg-fabric-rotate360{animation:ImageRotation 1.3s cubic-bezier(.53,.21,.29,.67) infinite}@keyframes ImageRotation{0%{transform:rotate(-45deg)}100%{transform:rotate(315deg)}}.fxs-svg-number .msportalfx-font-bold{font-size:10px;fill:#0065ad}.fxs-svg-number .fxs-svg-circle{stroke-width:0%;fill:#0078d4}.fxs-svg-number .fxs-svg-text{fill:#fff;font-size:10px}.fxs-svg-number.msportalfx-svg-disabled{filter:grayscale(0%)}.fxs-svg-number.msportalfx-svg-disabled .fxs-svg-circle{fill:#fff;stroke-width:1px;stroke:#949494}.fxs-svg-number.msportalfx-svg-disabled .fxs-svg-text{fill:#949494}.fxs-theme-dark .fxs-svg-number .fxs-svg-text{fill:#0f0f0f}.fxs-theme-dark .fxs-svg-number .fxs-svg-circle{stroke-width:0%;fill:#0078d4}.fxs-theme-dark .fxs-svg-number.msportalfx-svg-disabled .fxs-svg-circle{fill:#0f0f0f;stroke-width:1px;stroke:#949494}.fxs-theme-dark .fxs-svg-number.msportalfx-svg-disabled .fxs-svg-text{fill:#949494}</style></svg>