<svg fill="none" viewBox="0 0 40 40" class="msportalfx-svg-placeholder" xmlns="http://www.w3.org/2000/svg"><title>Private Engage Center Connector</title><desc>Interact with your private/test Services Hub workspace and associated resources directly from the Azure Portal</desc><path fill="#919191" d="m24.314 17.118 3.022.005a3.09 3.09 0 0 1 3.365-2.421 3.1 3.1 0 0 1 2.742 3.417 3.093 3.093 0 0 1-3.417 2.742 3.1 3.1 0 0 1-2.685-2.413l-3.027-.005v7.401l3.113 3.12a5.4 5.4 0 0 1 3.292-1.125c1.65 0 3.187.738 4.22 2.024l.068.094A16.9 16.9 0 0 0 40 17.954C40 8.605 32.392 1 23.038 1c-5.655 0-10.67 2.782-13.752 7.048h15.028zm2.17 12.776-3.015-3.017H8.625c2.996 4.818 8.334 8.034 14.416 8.034.847 0 1.675-.065 2.488-.183a5.43 5.43 0 0 1 .955-4.834" /><path fill="#fff" d="M18.092 16.482h-4.327v-4.167h-2.353v10.442h2.353v-4.251h4.326v4.253h2.361V12.315h-2.36zM6.816 22.903q.359-.04.719-.117c.502-.113 1.738-.348 2.407-1.674.204-.405.332-.883.332-1.466q0-.634-.188-1.111a2.6 2.6 0 0 0-.546-.85 4 4 0 0 0-.855-.667 9 9 0 0 0-1.127-.557q-.459-.188-.823-.368a4 4 0 0 1-.513-.296c-.034-.023-.076-.047-.107-.07q-.254-.185-.392-.392a.84.84 0 0 1-.139-.47q0-.24.123-.435a1.1 1.1 0 0 1 .35-.332q.215-.129.518-.204l.037-.01c.22-.053.46-.076.73-.076a4.7 4.7 0 0 1 1.267.18q.33.092.638.23.31.138.573.322v-2.178c-.487-.225-1.69-.4-2.61-.4h-.028c-2.5.01-3.527 1.31-3.744 1.7q-.329.587-.327 1.4 0 1.043.601 1.778t1.825 1.245c.194.078.38.16.557.235q.175.075.337.15.414.188.72.391.3.204.478.445.175.24.175.546 0 .227-.11.419a1 1 0 0 1-.332.334c-.149.094-.324.17-.554.223a6 6 0 0 1-.46.08c-2.696.393-5.462-1-6.348-1.388v2.15c.86.216 3.867 1.584 6.816 1.233m23.354-3.359q.097.011.196.01a1.773 1.773 0 1 0-.196-.01M4.75 31.418a1.773 1.773 0 1 0 .196.01c-.068-.004-.13-.01-.196-.01" /><path fill="#2F2F2F" d="M34.939 29.863a5.39 5.39 0 0 0-4.22-2.024c-1.187 0-2.35.4-3.292 1.124l-3.113-3.119v-7.4l3.027.004a3.104 3.104 0 0 0 3.025 2.432 3.093 3.093 0 0 0 3.077-2.761 3.1 3.1 0 0 0-3.082-3.435 3.09 3.09 0 0 0-3.025 2.439l-3.022-.005V8.046H0V19.52c.886.387 3.652 1.78 6.34 1.391q.23-.03.46-.081c.23-.052.405-.128.554-.222a1 1 0 0 0 .332-.335.9.9 0 0 0-.065-.965 1.9 1.9 0 0 0-.479-.444 5 5 0 0 0-.718-.392q-.165-.075-.338-.15a20 20 0 0 0-.557-.234q-1.223-.51-1.824-1.245t-.602-1.778q0-.815.327-1.401c.217-.39 1.247-1.689 3.744-1.7h.029c.92 0 2.12.176 2.609.4v2.178a4 4 0 0 0-.573-.321 4.5 4.5 0 0 0-.638-.23 6 6 0 0 0-.65-.136 4 4 0 0 0-.615-.045q-.4.001-.73.076l-.036.01c-.201.05-.377.118-.518.205a1.1 1.1 0 0 0-.35.332.77.77 0 0 0-.123.434q0 .263.139.47.137.209.392.392c.031.024.073.048.107.071.149.1.316.199.512.295.244.12.518.24.824.369q.626.262 1.127.557.498.294.855.667.357.371.546.85.189.476.188 1.11c0 .583-.128 1.062-.332 1.467-.669 1.326-1.906 1.563-2.408 1.673a8 8 0 0 1-.719.118c-2.943.348-5.95-1.02-6.81-1.237v5.206h4.092l-.006 3.291a3.09 3.09 0 0 0-2.413 2.685 3.1 3.1 0 0 0 3.083 3.435 3.093 3.093 0 0 0 3.077-2.76 3.1 3.1 0 0 0-2.421-3.365l.005-3.29h18.055l3.014 3.02a5.43 5.43 0 0 0-.957 4.832 5.38 5.38 0 0 0 5.195 3.921c1.224 0 2.424-.42 3.38-1.19a5.406 5.406 0 0 0 .903-7.502c-.024-.027-.042-.06-.068-.09M28.6 17.588a1.774 1.774 0 1 1 3.526.39 1.774 1.774 0 0 1-3.526-.39M6.515 33.387a1.773 1.773 0 1 1-3.526-.389 1.773 1.773 0 0 1 3.526.389m13.937-10.628h-2.36v-4.253h-4.327v4.248h-2.353V12.315h2.353v4.165h4.326v-4.165h2.361zm12.824 13.666a4.08 4.08 0 0 1-5.736-.63 4.075 4.075 0 0 1-.11-4.955c.21-.285.452-.549.74-.779.065-.052.136-.102.204-.149a4.07 4.07 0 0 1 2.345-.747 4.079 4.079 0 0 1 2.557 7.26" /><path fill="#fff" d="M33.906 30.692a4.073 4.073 0 0 0-5.532-.78c-.068.05-.139.097-.204.15-.288.23-.533.493-.74.778a4.075 4.075 0 0 0 3.297 6.482 4.079 4.079 0 0 0 3.18-6.63" /><style>.msportalfx-svg-c01{fill:#fff}.msportalfx-svg-c02{fill:#e5e5e5}.msportalfx-svg-c03{fill:#a0a1a2}.msportalfx-svg-c04{fill:#7a7a7a}.msportalfx-svg-c05{fill:#3e3e3e}.msportalfx-svg-c06{fill:#1e1e1e}.msportalfx-svg-c07{fill:#0f0f0f}.msportalfx-svg-c08{fill:#ba141a}.msportalfx-svg-c09{fill:#dd5900}.msportalfx-svg-c10{fill:#ff8c00}.msportalfx-svg-c11{fill:#fcd116}.msportalfx-svg-c12{fill:#fee087}.msportalfx-svg-c13{fill:#b8d432}.msportalfx-svg-c14,.msportalfx-svg-c32{fill:#57a300}.msportalfx-svg-c15{fill:#59b4d9}.msportalfx-svg-c16{fill:#3999c6}.msportalfx-svg-c17{fill:#804998}.msportalfx-svg-c18{fill:#ec008c}.msportalfx-svg-c19{fill:#0072c6}.msportalfx-svg-c20{fill:#68217a}.msportalfx-svg-c21{fill:#00188f}.msportalfx-svg-c22{fill:#e81123}.fxs-mode-light .msportalfx-svg-c22{fill:#a4262c}.msportalfx-svg-c23{fill:#cae3f3}.msportalfx-svg-c24{fill:#59aed3}.msportalfx-svg-c25{fill:#4c3b12}.msportalfx-svg-c26{fill:#be9555}.msportalfx-svg-c27{fill:#4f4d52}.msportalfx-svg-c28{fill:#ef6f59}.msportalfx-svg-c29{fill:#f7cb64}.msportalfx-svg-c30{fill:#fdd8db}.msportalfx-svg-c31{fill:#f6ffec}.msportalfx-svg-c33{fill:#8a2da5}.msportalfx-svg-c34{fill:#e00b1c}.msportalfx-svg-c35{fill:#015cda}.msportalfx-svg-c36{fill:#5db300}.msportalfx-svg-c97{fill:#ffb900}.msportalfx-svg-c98{fill:#00a4ef}.msportalfx-svg-c99{fill:#f25022}.msportalfx-inverted-theme .msportalfx-svg-c05,.fxs-theme-dark .msportalfx-svg-c05{fill:#777}.msportalfx-inverted-theme .msportalfx-svg-c07,.fxs-theme-dark .msportalfx-svg-c07{fill:#f2f2f2}.msportalfx-svg-palette-white{fill:#fff}.msportalfx-svg-palette-blue{fill:#015cda}.msportalfx-svg-palette-black{fill:#1e1e1e}.msportalfx-svg-palette-green{fill:#57a300}.msportalfx-svg-palette-gray{fill:#a0a1a2}.msportalfx-svg-palette-inherit{fill:inherit}.msportalfx-svg-badge{position:absolute;left:0;bottom:0;min-height:10px;min-width:10px}.fxc-menu-icon&gt;.msportalfx-svg-badge{left:-2px;bottom:-2px;min-height:8px;min-width:8px}.msportalfx-svg-disabled{filter:grayscale(100%)}.msportalfx-svg-loading-square{animation:ProgressFlagAnimation 1.45s infinite ease-in-out;transform-origin:50%}.msportalfx-svg-loading-square:nth-child(1){animation-delay:0s}.msportalfx-svg-loading-square:nth-child(2){animation-delay:.2s}.msportalfx-svg-loading-square:nth-child(3){animation-delay:.4s}@keyframes ProgressFlagAnimation{0%{transform:scale(1);opacity:.3}36.1%{transform:scale(1.06);opacity:1}50%{transform:scale(1.06);opacity:1}86.1%{transform:scale(1);opacity:.3}}.msportalfx-svg-flip-horizontal&gt;svg,svg.msportalfx-svg-flip-horizontal{transform:scaleX(-1)}.msportalfx-svg-fabric-rotate360{animation:ImageRotation 1.3s cubic-bezier(.53,.21,.29,.67) infinite}@keyframes ImageRotation{0%{transform:rotate(-45deg)}100%{transform:rotate(315deg)}}.fxs-svg-number .msportalfx-font-bold{font-size:10px;fill:#0065ad}.fxs-svg-number .fxs-svg-circle{stroke-width:0%;fill:#0078d4}.fxs-svg-number .fxs-svg-text{fill:#fff;font-size:10px}.fxs-svg-number.msportalfx-svg-disabled{filter:grayscale(0%)}.fxs-svg-number.msportalfx-svg-disabled .fxs-svg-circle{fill:#fff;stroke-width:1px;stroke:#949494}.fxs-svg-number.msportalfx-svg-disabled .fxs-svg-text{fill:#949494}.fxs-theme-dark .fxs-svg-number .fxs-svg-text{fill:#0f0f0f}.fxs-theme-dark .fxs-svg-number .fxs-svg-circle{stroke-width:0%;fill:#0078d4}.fxs-theme-dark .fxs-svg-number.msportalfx-svg-disabled .fxs-svg-circle{fill:#0f0f0f;stroke-width:1px;stroke:#949494}.fxs-theme-dark .fxs-svg-number.msportalfx-svg-disabled .fxs-svg-text{fill:#949494}</style></svg>