<svg viewBox="0 0 64 64" class="msportalfx-svg-placeholder" xmlns="http://www.w3.org/2000/svg"><title>Analysis</title><desc>Analysis of one or more samples</desc><g fill="none" stroke-width="4"><path stroke="#dd5900" d="M45.86 24c-2.77-4.78-7.94-8-13.86-8-2.91 0-5.65.78-8 2.14" /><path stroke="#fcd116" d="M43.31 43.31C46.21 40.41 48 36.41 48 32c0-2.91-.78-5.65-2.14-8" /><path stroke="#7fba00" d="M34.78 47.76c3.3-.58 6.26-2.17 8.53-4.45" /><path stroke="#0072c6" d="M24 18.14c-4.78 2.77-8 7.94-8 13.86 0 8.84 7.16 16 16 16 .95 0 1.88-.08 2.78-.24" /></g><g fill="none" stroke-width="4" opacity=".85"><path stroke="#7fba00" d="M35.82 53.67c4.54-.8 8.61-2.99 11.74-6.11" /><path stroke="#59d3ca" d="M24.44 52.67C26.8 53.53 29.35 54 32 54c1.3 0 2.58-.11 3.82-.33" /><path stroke="#0072c6" d="M10 32c0 9.49 6.01 17.58 14.44 20.67" /><path stroke="#00188f" d="M16.44 16.44A21.93 21.93 0 0 0 10 32" /><path stroke="#68217a" d="M20.99 12.95c-1.67.97-3.2 2.14-4.55 3.5" /><path stroke="#ba141a" d="M30.08 10.08c-3.29.28-6.37 1.29-9.09 2.86" /><path stroke="#dd5900" d="M46.14 15.15A21.92 21.92 0 0 0 32 10c-.65 0-1.29.03-1.92.08" /><path stroke="#ff8c00" d="M51.06 21a22.1 22.1 0 0 0-4.91-5.85" /><path stroke="#fcd116" d="M53.67 35.82c.22-1.24.33-2.52.33-3.82 0-4.01-1.07-7.77-2.94-11" /><path stroke="#fee087" d="M50.02 44.62c1.81-2.58 3.08-5.57 3.65-8.8" /><path stroke="#b8d432" d="M47.56 47.56c.9-.9 1.73-1.89 2.47-2.94" /></g><g fill="none" stroke-width="4" opacity=".7"><path stroke="#59d3ca" d="M22.37 58.3c3 1.1 6.24 1.7 9.63 1.7q2.49 0 4.86-.42" /><path stroke="#59b4d9" d="M9.06 48.06c3.26 4.65 7.89 8.26 13.31 10.24" /><path stroke="#3999c6" d="M5.68 41.58c.84 2.32 1.99 4.5 3.38 6.48" /><path stroke="#0072c6" d="M4 32c0 3.36.59 6.59 1.68 9.58" /><path stroke="#00188f" d="M6.62 20.16A27.9 27.9 0 0 0 4 32" /><path stroke="#804998" d="M12.2 12.2a28.2 28.2 0 0 0-5.58 7.96" /><path stroke="#68217a" d="M18 7.75a28.6 28.6 0 0 0-5.8 4.45" /><path stroke="#ba141a" d="M29.56 4.1c-4.19.36-8.11 1.64-11.56 3.64" /><path stroke="#e81123" d="M39.25 4.95A28 28 0 0 0 32 4c-.82 0-1.64.04-2.44.1" /><path stroke="#dd5900" d="M50 10.55a27.95 27.95 0 0 0-10.75-5.6" /><path stroke="#ff8c00" d="M56.25 18a28.2 28.2 0 0 0-6.26-7.45" /><path stroke="#ff981d" d="M58.32 22.42c-.56-1.54-1.25-3.02-2.07-4.42" /><path stroke="#f9b919" d="M60 32c0-3.36-.59-6.59-1.68-9.58" /><path stroke="#fcd116" d="M59.58 36.86Q60 34.49 60 32" /><path stroke="#fee087" d="M58.32 41.58c.55-1.52.98-3.09 1.26-4.72" /><path stroke="#e2e240" d="M54.98 48c1.38-1.97 2.5-4.13 3.34-6.42" /><path stroke="#b8d432" d="M51.8 51.8c1.17-1.17 2.23-2.44 3.18-3.8" /><path stroke="#7fba00" d="M36.86 59.58c5.78-1.01 10.96-3.8 14.94-7.78" /></g><style>.msportalfx-svg-c01{fill:#fff}.msportalfx-svg-c02{fill:#e5e5e5}.msportalfx-svg-c03{fill:#a0a1a2}.msportalfx-svg-c04{fill:#7a7a7a}.msportalfx-svg-c05{fill:#3e3e3e}.msportalfx-svg-c06{fill:#1e1e1e}.msportalfx-svg-c07{fill:#0f0f0f}.msportalfx-svg-c08{fill:#ba141a}.msportalfx-svg-c09{fill:#dd5900}.msportalfx-svg-c10{fill:#ff8c00}.msportalfx-svg-c11{fill:#fcd116}.msportalfx-svg-c12{fill:#fee087}.msportalfx-svg-c13{fill:#b8d432}.msportalfx-svg-c14,.msportalfx-svg-c32{fill:#57a300}.msportalfx-svg-c15{fill:#59b4d9}.msportalfx-svg-c16{fill:#3999c6}.msportalfx-svg-c17{fill:#804998}.msportalfx-svg-c18{fill:#ec008c}.msportalfx-svg-c19{fill:#0072c6}.msportalfx-svg-c20{fill:#68217a}.msportalfx-svg-c21{fill:#00188f}.msportalfx-svg-c22{fill:#e81123}.fxs-mode-light .msportalfx-svg-c22{fill:#a4262c}.msportalfx-svg-c23{fill:#cae3f3}.msportalfx-svg-c24{fill:#59aed3}.msportalfx-svg-c25{fill:#4c3b12}.msportalfx-svg-c26{fill:#be9555}.msportalfx-svg-c27{fill:#4f4d52}.msportalfx-svg-c28{fill:#ef6f59}.msportalfx-svg-c29{fill:#f7cb64}.msportalfx-svg-c30{fill:#fdd8db}.msportalfx-svg-c31{fill:#f6ffec}.msportalfx-svg-c33{fill:#8a2da5}.msportalfx-svg-c34{fill:#e00b1c}.msportalfx-svg-c35{fill:#015cda}.msportalfx-svg-c36{fill:#5db300}.msportalfx-svg-c97{fill:#ffb900}.msportalfx-svg-c98{fill:#00a4ef}.msportalfx-svg-c99{fill:#f25022}.msportalfx-inverted-theme .msportalfx-svg-c05,.fxs-theme-dark .msportalfx-svg-c05{fill:#777}.msportalfx-inverted-theme .msportalfx-svg-c07,.fxs-theme-dark .msportalfx-svg-c07{fill:#f2f2f2}.msportalfx-svg-palette-white{fill:#fff}.msportalfx-svg-palette-blue{fill:#015cda}.msportalfx-svg-palette-black{fill:#1e1e1e}.msportalfx-svg-palette-green{fill:#57a300}.msportalfx-svg-palette-gray{fill:#a0a1a2}.msportalfx-svg-palette-inherit{fill:inherit}.msportalfx-svg-badge{position:absolute;left:0;bottom:0;min-height:10px;min-width:10px}.fxc-menu-icon&gt;.msportalfx-svg-badge{left:-2px;bottom:-2px;min-height:8px;min-width:8px}.msportalfx-svg-disabled{filter:grayscale(100%)}.msportalfx-svg-loading-square{animation:ProgressFlagAnimation 1.45s infinite ease-in-out;transform-origin:50%}.msportalfx-svg-loading-square:nth-child(1){animation-delay:0s}.msportalfx-svg-loading-square:nth-child(2){animation-delay:.2s}.msportalfx-svg-loading-square:nth-child(3){animation-delay:.4s}@keyframes ProgressFlagAnimation{0%{transform:scale(1);opacity:.3}36.1%{transform:scale(1.06);opacity:1}50%{transform:scale(1.06);opacity:1}86.1%{transform:scale(1);opacity:.3}}.msportalfx-svg-flip-horizontal&gt;svg,svg.msportalfx-svg-flip-horizontal{transform:scaleX(-1)}.msportalfx-svg-fabric-rotate360{animation:ImageRotation 1.3s cubic-bezier(.53,.21,.29,.67) infinite}@keyframes ImageRotation{0%{transform:rotate(-45deg)}100%{transform:rotate(315deg)}}.fxs-svg-number .msportalfx-font-bold{font-size:10px;fill:#0065ad}.fxs-svg-number .fxs-svg-circle{stroke-width:0%;fill:#0078d4}.fxs-svg-number .fxs-svg-text{fill:#fff;font-size:10px}.fxs-svg-number.msportalfx-svg-disabled{filter:grayscale(0%)}.fxs-svg-number.msportalfx-svg-disabled .fxs-svg-circle{fill:#fff;stroke-width:1px;stroke:#949494}.fxs-svg-number.msportalfx-svg-disabled .fxs-svg-text{fill:#949494}.fxs-theme-dark .fxs-svg-number .fxs-svg-text{fill:#0f0f0f}.fxs-theme-dark .fxs-svg-number .fxs-svg-circle{stroke-width:0%;fill:#0078d4}.fxs-theme-dark .fxs-svg-number.msportalfx-svg-disabled .fxs-svg-circle{fill:#0f0f0f;stroke-width:1px;stroke:#949494}.fxs-theme-dark .fxs-svg-number.msportalfx-svg-disabled .fxs-svg-text{fill:#949494}</style></svg>