<svg viewBox="0 0 64 64" class="msportalfx-svg-placeholder" xmlns="http://www.w3.org/2000/svg"><title>Library</title><desc>A collection of genomic samples and analyses</desc><defs><linearGradient id="pQI7x3BhC__a" x1="0" x2="0" y1="0" y2="1"><stop offset="0" stop-color="#59d3ca" /><stop offset="1" stop-color="#0072c6" /></linearGradient></defs><path fill="url(#pQI7x3BhC__a)" d="M58 47.5c-2.04 0-3.83 1.12-4.77 2.78l-9.25-2.13L55.33 36.8c.79.44 1.71.7 2.68.7 3.03 0 5.5-2.47 5.5-5.5s-2.47-5.5-5.5-5.5-5.5 2.47-5.5 5.5c0 .97.26 1.88.7 2.68l-6.55 6.55-1.84-5.51c1.6-.96 2.68-2.71 2.68-4.71 0-3.03-2.47-5.5-5.5-5.5s-5.5 2.47-5.5 5.5 2.42 5.45 5.42 5.5l2.37 7.1-10.78 10.78V28.63l9.82-9.82c.79.44 1.71.7 2.68.7 3.03 0 5.5-2.47 5.5-5.5s-2.47-5.5-5.5-5.5-5.5 2.47-5.5 5.5c0 .97.26 1.88.7 2.68l-7.7 7.7V11.3c2.3-.66 4-2.77 4-5.29 0-3.03-2.47-5.5-5.5-5.5s-5.5 2.47-5.5 5.5c0 2.51 1.7 4.63 4 5.29v13.09l-7.7-7.7c.44-.79.7-1.71.7-2.68 0-3.03-2.47-5.5-5.5-5.5s-5.5 2.47-5.5 5.5 2.47 5.5 5.5 5.5c.97 0 1.88-.26 2.68-.7l9.82 9.82v25.76L19.73 43.61l2.37-7.1c2.99-.04 5.42-2.49 5.42-5.5s-2.47-5.5-5.5-5.5-5.5 2.47-5.5 5.5c0 2 1.08 3.75 2.68 4.71l-1.84 5.51-6.55-6.55c.44-.79.7-1.71.7-2.68 0-3.03-2.47-5.5-5.5-5.5S.51 28.97.51 32s2.47 5.5 5.5 5.5c.97 0 1.88-.26 2.68-.7l11.35 11.35-9.25 2.13a5.5 5.5 0 0 0-4.77-2.78c-3.03 0-5.5 2.47-5.5 5.5s2.47 5.5 5.5 5.5 5.39-2.36 5.49-5.3l11.04-2.55 7.97 7.97V64h3v-5.38l7.97-7.97 11.04 2.55c.1 2.94 2.52 5.3 5.49 5.3s5.5-2.47 5.5-5.5-2.47-5.5-5.5-5.5ZM39.5 31a2.5 2.5 0 0 1 5 0 2.5 2.5 0 0 1-5 0M46 11.5a2.5 2.5 0 0 1 0 5 2.5 2.5 0 0 1 0-5m-28 5a2.5 2.5 0 0 1 0-5 2.5 2.5 0 0 1 0 5m4 12a2.5 2.5 0 0 1 0 5 2.5 2.5 0 0 1 0-5m-16 27a2.5 2.5 0 0 1 0-5 2.5 2.5 0 0 1 0 5m0-21a2.5 2.5 0 0 1 0-5 2.5 2.5 0 0 1 0 5M29.5 6a2.5 2.5 0 0 1 5 0 2.5 2.5 0 0 1-5 0M58 29.5a2.5 2.5 0 0 1 0 5 2.5 2.5 0 0 1 0-5m0 26a2.5 2.5 0 0 1 0-5 2.5 2.5 0 0 1 0 5" /><style>.msportalfx-svg-c01{fill:#fff}.msportalfx-svg-c02{fill:#e5e5e5}.msportalfx-svg-c03{fill:#a0a1a2}.msportalfx-svg-c04{fill:#7a7a7a}.msportalfx-svg-c05{fill:#3e3e3e}.msportalfx-svg-c06{fill:#1e1e1e}.msportalfx-svg-c07{fill:#0f0f0f}.msportalfx-svg-c08{fill:#ba141a}.msportalfx-svg-c09{fill:#dd5900}.msportalfx-svg-c10{fill:#ff8c00}.msportalfx-svg-c11{fill:#fcd116}.msportalfx-svg-c12{fill:#fee087}.msportalfx-svg-c13{fill:#b8d432}.msportalfx-svg-c14,.msportalfx-svg-c32{fill:#57a300}.msportalfx-svg-c15{fill:#59b4d9}.msportalfx-svg-c16{fill:#3999c6}.msportalfx-svg-c17{fill:#804998}.msportalfx-svg-c18{fill:#ec008c}.msportalfx-svg-c19{fill:#0072c6}.msportalfx-svg-c20{fill:#68217a}.msportalfx-svg-c21{fill:#00188f}.msportalfx-svg-c22{fill:#e81123}.fxs-mode-light .msportalfx-svg-c22{fill:#a4262c}.msportalfx-svg-c23{fill:#cae3f3}.msportalfx-svg-c24{fill:#59aed3}.msportalfx-svg-c25{fill:#4c3b12}.msportalfx-svg-c26{fill:#be9555}.msportalfx-svg-c27{fill:#4f4d52}.msportalfx-svg-c28{fill:#ef6f59}.msportalfx-svg-c29{fill:#f7cb64}.msportalfx-svg-c30{fill:#fdd8db}.msportalfx-svg-c31{fill:#f6ffec}.msportalfx-svg-c33{fill:#8a2da5}.msportalfx-svg-c34{fill:#e00b1c}.msportalfx-svg-c35{fill:#015cda}.msportalfx-svg-c36{fill:#5db300}.msportalfx-svg-c97{fill:#ffb900}.msportalfx-svg-c98{fill:#00a4ef}.msportalfx-svg-c99{fill:#f25022}.msportalfx-inverted-theme .msportalfx-svg-c05,.fxs-theme-dark .msportalfx-svg-c05{fill:#777}.msportalfx-inverted-theme .msportalfx-svg-c07,.fxs-theme-dark .msportalfx-svg-c07{fill:#f2f2f2}.msportalfx-svg-palette-white{fill:#fff}.msportalfx-svg-palette-blue{fill:#015cda}.msportalfx-svg-palette-black{fill:#1e1e1e}.msportalfx-svg-palette-green{fill:#57a300}.msportalfx-svg-palette-gray{fill:#a0a1a2}.msportalfx-svg-palette-inherit{fill:inherit}.msportalfx-svg-badge{position:absolute;left:0;bottom:0;min-height:10px;min-width:10px}.fxc-menu-icon&gt;.msportalfx-svg-badge{left:-2px;bottom:-2px;min-height:8px;min-width:8px}.msportalfx-svg-disabled{filter:grayscale(100%)}.msportalfx-svg-loading-square{animation:ProgressFlagAnimation 1.45s infinite ease-in-out;transform-origin:50%}.msportalfx-svg-loading-square:nth-child(1){animation-delay:0s}.msportalfx-svg-loading-square:nth-child(2){animation-delay:.2s}.msportalfx-svg-loading-square:nth-child(3){animation-delay:.4s}@keyframes ProgressFlagAnimation{0%{transform:scale(1);opacity:.3}36.1%{transform:scale(1.06);opacity:1}50%{transform:scale(1.06);opacity:1}86.1%{transform:scale(1);opacity:.3}}.msportalfx-svg-flip-horizontal&gt;svg,svg.msportalfx-svg-flip-horizontal{transform:scaleX(-1)}.msportalfx-svg-fabric-rotate360{animation:ImageRotation 1.3s cubic-bezier(.53,.21,.29,.67) infinite}@keyframes ImageRotation{0%{transform:rotate(-45deg)}100%{transform:rotate(315deg)}}.fxs-svg-number .msportalfx-font-bold{font-size:10px;fill:#0065ad}.fxs-svg-number .fxs-svg-circle{stroke-width:0%;fill:#0078d4}.fxs-svg-number .fxs-svg-text{fill:#fff;font-size:10px}.fxs-svg-number.msportalfx-svg-disabled{filter:grayscale(0%)}.fxs-svg-number.msportalfx-svg-disabled .fxs-svg-circle{fill:#fff;stroke-width:1px;stroke:#949494}.fxs-svg-number.msportalfx-svg-disabled .fxs-svg-text{fill:#949494}.fxs-theme-dark .fxs-svg-number .fxs-svg-text{fill:#0f0f0f}.fxs-theme-dark .fxs-svg-number .fxs-svg-circle{stroke-width:0%;fill:#0078d4}.fxs-theme-dark .fxs-svg-number.msportalfx-svg-disabled .fxs-svg-circle{fill:#0f0f0f;stroke-width:1px;stroke:#949494}.fxs-theme-dark .fxs-svg-number.msportalfx-svg-disabled .fxs-svg-text{fill:#949494}</style></svg>