<svg viewBox="0 0 18 18" class="msportalfx-svg-placeholder" xmlns="http://www.w3.org/2000/svg"><title>Built-in template spec</title><desc></desc><defs><linearGradient id="pu3ZtD5yh__a" x1="-40" x2="-40" y1="74.181" y2="59.819" gradientTransform="translate(49 -58)" gradientUnits="userSpaceOnUse"><stop offset="0" stop-color="#198ab3" /><stop offset=".619" stop-color="#31d0f1" /><stop offset="1" stop-color="#32d4f5" /></linearGradient></defs><path fill="#32bedd" d="M6.216.5H2.845a1.026 1.026 0 0 0-1.026 1.026V4.9h2.052V2.552h2.345Zm8.939 0h-3.37v2.052h2.344V4.9h2.052V1.526A1.026 1.026 0 0 0 15.155.5m-1.026 12.6v2.345h-2.344V17.5h3.37a1.026 1.026 0 0 0 1.026-1.026V13.1ZM3.871 15.448V13.1H1.819v3.371A1.026 1.026 0 0 0 2.845 17.5h3.371v-2.052Z" /><path fill="url(#pu3ZtD5yh__a)" d="M3.724 16.181h10.552a.59.59 0 0 0 .586-.586V2.4a.59.59 0 0 0-.586-.586H3.724a.59.59 0 0 0-.586.586v13.2a.59.59 0 0 0 .586.581" /><path fill="#fff" d="M4.6 15.009h8.8a.294.294 0 0 0 .293-.293V3.285a.294.294 0 0 0-.293-.294H4.6a.294.294 0 0 0-.293.294v11.431a.294.294 0 0 0 .293.293" /><path fill="#5e9624" d="M6.655 13.25h4.69a.294.294 0 0 0 .293-.293v-1.319a.294.294 0 0 0-.293-.293h-4.69a.294.294 0 0 0-.293.293v1.319a.294.294 0 0 0 .293.293" /><path fill="#76bc2d" d="M6.655 9.953h4.69a.294.294 0 0 0 .293-.293V8.341a.294.294 0 0 0-.293-.294h-4.69a.294.294 0 0 0-.293.294V9.66a.294.294 0 0 0 .293.293" /><path fill="#86d633" d="M6.655 6.655h4.69a.294.294 0 0 0 .293-.293V5.043a.294.294 0 0 0-.293-.293h-4.69a.294.294 0 0 0-.293.293v1.319a.294.294 0 0 0 .293.293" /><style>.msportalfx-svg-c01{fill:#fff}.msportalfx-svg-c02{fill:#e5e5e5}.msportalfx-svg-c03{fill:#a0a1a2}.msportalfx-svg-c04{fill:#7a7a7a}.msportalfx-svg-c05{fill:#3e3e3e}.msportalfx-svg-c06{fill:#1e1e1e}.msportalfx-svg-c07{fill:#0f0f0f}.msportalfx-svg-c08{fill:#ba141a}.msportalfx-svg-c09{fill:#dd5900}.msportalfx-svg-c10{fill:#ff8c00}.msportalfx-svg-c11{fill:#fcd116}.msportalfx-svg-c12{fill:#fee087}.msportalfx-svg-c13{fill:#b8d432}.msportalfx-svg-c14,.msportalfx-svg-c32{fill:#57a300}.msportalfx-svg-c15{fill:#59b4d9}.msportalfx-svg-c16{fill:#3999c6}.msportalfx-svg-c17{fill:#804998}.msportalfx-svg-c18{fill:#ec008c}.msportalfx-svg-c19{fill:#0072c6}.msportalfx-svg-c20{fill:#68217a}.msportalfx-svg-c21{fill:#00188f}.msportalfx-svg-c22{fill:#e81123}.fxs-mode-light .msportalfx-svg-c22{fill:#a4262c}.msportalfx-svg-c23{fill:#cae3f3}.msportalfx-svg-c24{fill:#59aed3}.msportalfx-svg-c25{fill:#4c3b12}.msportalfx-svg-c26{fill:#be9555}.msportalfx-svg-c27{fill:#4f4d52}.msportalfx-svg-c28{fill:#ef6f59}.msportalfx-svg-c29{fill:#f7cb64}.msportalfx-svg-c30{fill:#fdd8db}.msportalfx-svg-c31{fill:#f6ffec}.msportalfx-svg-c33{fill:#8a2da5}.msportalfx-svg-c34{fill:#e00b1c}.msportalfx-svg-c35{fill:#015cda}.msportalfx-svg-c36{fill:#5db300}.msportalfx-svg-c97{fill:#ffb900}.msportalfx-svg-c98{fill:#00a4ef}.msportalfx-svg-c99{fill:#f25022}.msportalfx-inverted-theme .msportalfx-svg-c05,.fxs-theme-dark .msportalfx-svg-c05{fill:#777}.msportalfx-inverted-theme .msportalfx-svg-c07,.fxs-theme-dark .msportalfx-svg-c07{fill:#f2f2f2}.msportalfx-svg-palette-white{fill:#fff}.msportalfx-svg-palette-blue{fill:#015cda}.msportalfx-svg-palette-black{fill:#1e1e1e}.msportalfx-svg-palette-green{fill:#57a300}.msportalfx-svg-palette-gray{fill:#a0a1a2}.msportalfx-svg-palette-inherit{fill:inherit}.msportalfx-svg-badge{position:absolute;left:0;bottom:0;min-height:10px;min-width:10px}.fxc-menu-icon&gt;.msportalfx-svg-badge{left:-2px;bottom:-2px;min-height:8px;min-width:8px}.msportalfx-svg-disabled{filter:grayscale(100%)}.msportalfx-svg-loading-square{animation:ProgressFlagAnimation 1.45s infinite ease-in-out;transform-origin:50%}.msportalfx-svg-loading-square:nth-child(1){animation-delay:0s}.msportalfx-svg-loading-square:nth-child(2){animation-delay:.2s}.msportalfx-svg-loading-square:nth-child(3){animation-delay:.4s}@keyframes ProgressFlagAnimation{0%{transform:scale(1);opacity:.3}36.1%{transform:scale(1.06);opacity:1}50%{transform:scale(1.06);opacity:1}86.1%{transform:scale(1);opacity:.3}}.msportalfx-svg-flip-horizontal&gt;svg,svg.msportalfx-svg-flip-horizontal{transform:scaleX(-1)}.msportalfx-svg-fabric-rotate360{animation:ImageRotation 1.3s cubic-bezier(.53,.21,.29,.67) infinite}@keyframes ImageRotation{0%{transform:rotate(-45deg)}100%{transform:rotate(315deg)}}.fxs-svg-number .msportalfx-font-bold{font-size:10px;fill:#0065ad}.fxs-svg-number .fxs-svg-circle{stroke-width:0%;fill:#0078d4}.fxs-svg-number .fxs-svg-text{fill:#fff;font-size:10px}.fxs-svg-number.msportalfx-svg-disabled{filter:grayscale(0%)}.fxs-svg-number.msportalfx-svg-disabled .fxs-svg-circle{fill:#fff;stroke-width:1px;stroke:#949494}.fxs-svg-number.msportalfx-svg-disabled .fxs-svg-text{fill:#949494}.fxs-theme-dark .fxs-svg-number .fxs-svg-text{fill:#0f0f0f}.fxs-theme-dark .fxs-svg-number .fxs-svg-circle{stroke-width:0%;fill:#0078d4}.fxs-theme-dark .fxs-svg-number.msportalfx-svg-disabled .fxs-svg-circle{fill:#0f0f0f;stroke-width:1px;stroke:#949494}.fxs-theme-dark .fxs-svg-number.msportalfx-svg-disabled .fxs-svg-text{fill:#949494}</style></svg>