<svg viewBox="0 0 18 18" class="msportalfx-svg-placeholder" xmlns="http://www.w3.org/2000/svg"><desc>Share data simply and safely from multiple sources with other organizations. Easily control what you share, who receives your data, and the terms of use. Data Share provides full visibility into your data sharing relationships with a user-friendly interface. Share data in just a few clicks, or build your own application using REST APIs.</desc><defs><linearGradient id="p644N8OOt__a" x1=".5" x2="11.43" y1="9.99" y2="9.99" gradientUnits="userSpaceOnUse"><stop offset="0" stop-color="#005ba1" /><stop offset=".07" stop-color="#0060a9" /><stop offset=".36" stop-color="#0071c8" /><stop offset=".52" stop-color="#0078d4" /><stop offset=".64" stop-color="#0074cd" /><stop offset=".82" stop-color="#006abb" /><stop offset="1" stop-color="#005ba1" /></linearGradient></defs><title>Data Share</title><path fill="#949494" d="m16 4.79-.73-.36-2.21 4.54h-1.89v.8h1.91l2.19 4.5.73-.36-2.22-4.56z" /><path fill="#fff" d="M15.63 6.14a1.45 1.45 0 0 1-.81-.24 1.47 1.47 0 0 1-.68-1 1.53 1.53 0 0 1 1.49-1.87 1.5 1.5 0 0 1 .82.24 1.54 1.54 0 0 1 .67 1 1.53 1.53 0 0 1-1.49 1.86Z" /><path fill="#32bedd" d="M15.63 3.42a1.2 1.2 0 0 1 .64.19 1.17 1.17 0 0 1 .52.74 1.2 1.2 0 0 1-.15.9 1.21 1.21 0 0 1-1 .55 1.2 1.2 0 0 1-.64-.18 1.2 1.2 0 0 1-.53-.75 1.2 1.2 0 0 1 1.16-1.45m0-.68a1.87 1.87 0 1 0 1 .29 1.85 1.85 0 0 0-1-.29" /><path fill="#fff" d="M15.63 15.62a1.45 1.45 0 0 1-.81-.24 1.51 1.51 0 0 1-.48-2.1 1.52 1.52 0 0 1 2.11-.48 1.53 1.53 0 0 1-.82 2.82" /><path fill="#32bedd" d="M15.63 12.9a1.2 1.2 0 0 1 .64.19 1.17 1.17 0 0 1 .52.74 1.2 1.2 0 0 1-.15.9 1.21 1.21 0 0 1-1 .55 1.2 1.2 0 0 1-.64-.18 1.2 1.2 0 0 1-.53-.75 1.2 1.2 0 0 1 1.16-1.45m0-.68a1.87 1.87 0 1 0 1 .29 1.85 1.85 0 0 0-1-.29" /><path fill="url(#p644N8OOt__a)" d="M6 5.72C3 5.72.5 4.83.5 3.74v10.52c0 1.09 2.41 2 5.39 2H6c3 0 5.47-.88 5.47-2V3.74C11.43 4.83 9 5.72 6 5.72" /><path fill="#e8e8e8" d="M11.43 3.74c0 1.09-2.45 2-5.47 2S.5 4.83.5 3.74 3 1.76 6 1.76s5.47.88 5.47 2" /><path fill="#50e6ff" d="M10.15 3.58c0 .69-1.87 1.25-4.19 1.25s-4.19-.56-4.19-1.25S3.65 2.32 6 2.32s4.19.56 4.19 1.26" /><path fill="#198ab3" d="M6 3.87a10.1 10.1 0 0 0-3.31.47A9.7 9.7 0 0 0 6 4.83a9.8 9.8 0 0 0 3.32-.49A10.1 10.1 0 0 0 6 3.87" /><style>.msportalfx-svg-c01{fill:#fff}.msportalfx-svg-c02{fill:#e5e5e5}.msportalfx-svg-c03{fill:#a0a1a2}.msportalfx-svg-c04{fill:#7a7a7a}.msportalfx-svg-c05{fill:#3e3e3e}.msportalfx-svg-c06{fill:#1e1e1e}.msportalfx-svg-c07{fill:#0f0f0f}.msportalfx-svg-c08{fill:#ba141a}.msportalfx-svg-c09{fill:#dd5900}.msportalfx-svg-c10{fill:#ff8c00}.msportalfx-svg-c11{fill:#fcd116}.msportalfx-svg-c12{fill:#fee087}.msportalfx-svg-c13{fill:#b8d432}.msportalfx-svg-c14,.msportalfx-svg-c32{fill:#57a300}.msportalfx-svg-c15{fill:#59b4d9}.msportalfx-svg-c16{fill:#3999c6}.msportalfx-svg-c17{fill:#804998}.msportalfx-svg-c18{fill:#ec008c}.msportalfx-svg-c19{fill:#0072c6}.msportalfx-svg-c20{fill:#68217a}.msportalfx-svg-c21{fill:#00188f}.msportalfx-svg-c22{fill:#e81123}.fxs-mode-light .msportalfx-svg-c22{fill:#a4262c}.msportalfx-svg-c23{fill:#cae3f3}.msportalfx-svg-c24{fill:#59aed3}.msportalfx-svg-c25{fill:#4c3b12}.msportalfx-svg-c26{fill:#be9555}.msportalfx-svg-c27{fill:#4f4d52}.msportalfx-svg-c28{fill:#ef6f59}.msportalfx-svg-c29{fill:#f7cb64}.msportalfx-svg-c30{fill:#fdd8db}.msportalfx-svg-c31{fill:#f6ffec}.msportalfx-svg-c33{fill:#8a2da5}.msportalfx-svg-c34{fill:#e00b1c}.msportalfx-svg-c35{fill:#015cda}.msportalfx-svg-c36{fill:#5db300}.msportalfx-svg-c97{fill:#ffb900}.msportalfx-svg-c98{fill:#00a4ef}.msportalfx-svg-c99{fill:#f25022}.msportalfx-inverted-theme .msportalfx-svg-c05,.fxs-theme-dark .msportalfx-svg-c05{fill:#777}.msportalfx-inverted-theme .msportalfx-svg-c07,.fxs-theme-dark .msportalfx-svg-c07{fill:#f2f2f2}.msportalfx-svg-palette-white{fill:#fff}.msportalfx-svg-palette-blue{fill:#015cda}.msportalfx-svg-palette-black{fill:#1e1e1e}.msportalfx-svg-palette-green{fill:#57a300}.msportalfx-svg-palette-gray{fill:#a0a1a2}.msportalfx-svg-palette-inherit{fill:inherit}.msportalfx-svg-badge{position:absolute;left:0;bottom:0;min-height:10px;min-width:10px}.fxc-menu-icon&gt;.msportalfx-svg-badge{left:-2px;bottom:-2px;min-height:8px;min-width:8px}.msportalfx-svg-disabled{filter:grayscale(100%)}.msportalfx-svg-loading-square{animation:ProgressFlagAnimation 1.45s infinite ease-in-out;transform-origin:50%}.msportalfx-svg-loading-square:nth-child(1){animation-delay:0s}.msportalfx-svg-loading-square:nth-child(2){animation-delay:.2s}.msportalfx-svg-loading-square:nth-child(3){animation-delay:.4s}@keyframes ProgressFlagAnimation{0%{transform:scale(1);opacity:.3}36.1%{transform:scale(1.06);opacity:1}50%{transform:scale(1.06);opacity:1}86.1%{transform:scale(1);opacity:.3}}.msportalfx-svg-flip-horizontal&gt;svg,svg.msportalfx-svg-flip-horizontal{transform:scaleX(-1)}.msportalfx-svg-fabric-rotate360{animation:ImageRotation 1.3s cubic-bezier(.53,.21,.29,.67) infinite}@keyframes ImageRotation{0%{transform:rotate(-45deg)}100%{transform:rotate(315deg)}}.fxs-svg-number .msportalfx-font-bold{font-size:10px;fill:#0065ad}.fxs-svg-number .fxs-svg-circle{stroke-width:0%;fill:#0078d4}.fxs-svg-number .fxs-svg-text{fill:#fff;font-size:10px}.fxs-svg-number.msportalfx-svg-disabled{filter:grayscale(0%)}.fxs-svg-number.msportalfx-svg-disabled .fxs-svg-circle{fill:#fff;stroke-width:1px;stroke:#949494}.fxs-svg-number.msportalfx-svg-disabled .fxs-svg-text{fill:#949494}.fxs-theme-dark .fxs-svg-number .fxs-svg-text{fill:#0f0f0f}.fxs-theme-dark .fxs-svg-number .fxs-svg-circle{stroke-width:0%;fill:#0078d4}.fxs-theme-dark .fxs-svg-number.msportalfx-svg-disabled .fxs-svg-circle{fill:#0f0f0f;stroke-width:1px;stroke:#949494}.fxs-theme-dark .fxs-svg-number.msportalfx-svg-disabled .fxs-svg-text{fill:#949494}</style></svg>