<svg viewBox="0 0 18 18" class="msportalfx-svg-placeholder" xmlns="http://www.w3.org/2000/svg"><title>Discount</title><desc></desc><defs><linearGradient id="pLCTEgPqm__a" x1="8.161" x2="9.388" y1="1.014" y2="16.267" gradientUnits="userSpaceOnUse"><stop offset=".224" stop-color="#5ea0ef" /><stop offset="1" stop-color="#0078d4" /></linearGradient><linearGradient id="pLCTEgPqm__b" x1="14.758" x2="14.758" y1="1.444" y2="12.84" gradientUnits="userSpaceOnUse"><stop offset="0" stop-color="#76bc2d" /><stop offset="1" stop-color="#b4ec36" /></linearGradient></defs><path fill="#0078d4" d="M.125 3.439c0-1.068.866-1.934 1.934-1.934a8.9 8.9 0 0 1 3.038.555c.366.352-1.104.832-1.104 1.379z" /><path fill="url(#pLCTEgPqm__a)" d="M15.271 13.053c-.148.148-.31.229-.519.229s-.405-.081-.553-.229l-2.835-2.836a.596.596 0 0 1 .424-1.011h1.447V3.282c0-.981-.796-1.777-1.777-1.777H2.059c1.068 0 1.934.866 1.934 1.934l-.213 11.17q0 .138.019.275c.14.951.972 1.681 1.933 1.672a1.935 1.935 0 0 0 1.916-1.948l7.624.005z" /><path fill="#fff" d="M7.167 3.241a.307.307 0 1 1-.308-.307s.001 0 .001 0c.169 0 .307.137.307.307m0 5.343a.307.307 0 1 1-.308-.306h.002c.169 0 .306.137.306.306m-1.624-.86v-.866a1.67 1.67 0 0 0 1.07.395q.147.003.292-.029a.7.7 0 0 0 .206-.083.35.35 0 0 0 .123-.124.3.3 0 0 0 .041-.156.34.34 0 0 0-.065-.203.7.7 0 0 0-.177-.165 2 2 0 0 0-.267-.146 16 16 0 0 0-.333-.146 1.7 1.7 0 0 1-.679-.463 1 1 0 0 1-.223-.657 1.05 1.05 0 0 1 .122-.522 1 1 0 0 1 .332-.359 1.5 1.5 0 0 1 .487-.207q.287-.067.584-.066.27-.003.537.036.222.034.432.112v.808a1.3 1.3 0 0 0-.213-.119 1.8 1.8 0 0 0-.708-.151q-.137 0-.271.028a.7.7 0 0 0-.206.08.4.4 0 0 0-.13.123.32.32 0 0 0 .005.336q.06.086.146.146.109.078.23.136.135.065.306.137.216.09.419.207.175.102.318.247a1 1 0 0 1 .203.316c.109.314.09.658-.053.958a1 1 0 0 1-.335.357c-.15.095-.317.162-.491.197a2.8 2.8 0 0 1-.592.06q-.306 0-.608-.054a2 2 0 0 1-.502-.163" /><path fill="#fff" d="M11.381 12.09H5.336a.37.37 0 0 1-.013-.739h6.057a.369.369 0 0 1 0 .739Z" opacity=".6" /><path fill="#fff" d="M12.929 13.624H5.337a.37.37 0 0 1-.013-.739h7.604a.37.37 0 0 1 .013.739z" opacity=".4" /><path fill="#fff" d="M11.365 10.219a.6.6 0 0 1-.168-.402H5.325a.37.37 0 0 0-.363.376.37.37 0 0 0 .376.363h6.365l-.336-.337Z" opacity=".8" /><path fill="#5ea0ef" d="M15.941 16.542a1.934 1.934 0 0 0 1.934-1.934H7.648c0 1.068-.941 1.934-1.784 1.934z" /><path fill="url(#pLCTEgPqm__b)" d="M17.834 9.696a.15.15 0 0 0-.115-.048h-1.742a.15.15 0 0 1-.151-.151V7.844h-2.143v1.658a.15.15 0 0 1-.151.151h-1.741a.15.15 0 0 0-.107.255l2.832 2.832a.337.337 0 0 0 .477 0l2.832-2.832a.15.15 0 0 0 .008-.212Zm-4.086-4.954h2.013c.036 0 .065-.016.065-.034v-.617c0-.018-.028-.034-.065-.034h-2.013c-.036 0-.065.016-.065.034v.617c0 .018.03.034.065.034m0 1.307h2.013c.036 0 .065-.015.065-.034v-.616c0-.021-.028-.035-.065-.035h-2.013c-.036 0-.065.016-.065.035v.616c0 .019.03.034.065.034m0-2.614h2.013c.036 0 .065-.016.065-.034v-.617c0-.018-.028-.034-.065-.034h-2.013c-.036 0-.065.016-.065.034v.617c0 .018.03.034.065.034m0-1.306h2.013c.036 0 .065-.015.065-.034v-.616c0-.021-.028-.035-.065-.035h-2.013c-.036 0-.065.016-.065.035v.616c0 .019.03.034.065.034m0 5.226h2.013c.036 0 .065-.016.065-.035v-.616c0-.019-.028-.034-.065-.034h-2.013c-.036 0-.065.015-.065.034v.616c0 .019.03.035.065.035" /><style>.msportalfx-svg-c01{fill:#fff}.msportalfx-svg-c02{fill:#e5e5e5}.msportalfx-svg-c03{fill:#a0a1a2}.msportalfx-svg-c04{fill:#7a7a7a}.msportalfx-svg-c05{fill:#3e3e3e}.msportalfx-svg-c06{fill:#1e1e1e}.msportalfx-svg-c07{fill:#0f0f0f}.msportalfx-svg-c08{fill:#ba141a}.msportalfx-svg-c09{fill:#dd5900}.msportalfx-svg-c10{fill:#ff8c00}.msportalfx-svg-c11{fill:#fcd116}.msportalfx-svg-c12{fill:#fee087}.msportalfx-svg-c13{fill:#b8d432}.msportalfx-svg-c14,.msportalfx-svg-c32{fill:#57a300}.msportalfx-svg-c15{fill:#59b4d9}.msportalfx-svg-c16{fill:#3999c6}.msportalfx-svg-c17{fill:#804998}.msportalfx-svg-c18{fill:#ec008c}.msportalfx-svg-c19{fill:#0072c6}.msportalfx-svg-c20{fill:#68217a}.msportalfx-svg-c21{fill:#00188f}.msportalfx-svg-c22{fill:#e81123}.fxs-mode-light .msportalfx-svg-c22{fill:#a4262c}.msportalfx-svg-c23{fill:#cae3f3}.msportalfx-svg-c24{fill:#59aed3}.msportalfx-svg-c25{fill:#4c3b12}.msportalfx-svg-c26{fill:#be9555}.msportalfx-svg-c27{fill:#4f4d52}.msportalfx-svg-c28{fill:#ef6f59}.msportalfx-svg-c29{fill:#f7cb64}.msportalfx-svg-c30{fill:#fdd8db}.msportalfx-svg-c31{fill:#f6ffec}.msportalfx-svg-c33{fill:#8a2da5}.msportalfx-svg-c34{fill:#e00b1c}.msportalfx-svg-c35{fill:#015cda}.msportalfx-svg-c36{fill:#5db300}.msportalfx-svg-c97{fill:#ffb900}.msportalfx-svg-c98{fill:#00a4ef}.msportalfx-svg-c99{fill:#f25022}.msportalfx-inverted-theme .msportalfx-svg-c05,.fxs-theme-dark .msportalfx-svg-c05{fill:#777}.msportalfx-inverted-theme .msportalfx-svg-c07,.fxs-theme-dark .msportalfx-svg-c07{fill:#f2f2f2}.msportalfx-svg-palette-white{fill:#fff}.msportalfx-svg-palette-blue{fill:#015cda}.msportalfx-svg-palette-black{fill:#1e1e1e}.msportalfx-svg-palette-green{fill:#57a300}.msportalfx-svg-palette-gray{fill:#a0a1a2}.msportalfx-svg-palette-inherit{fill:inherit}.msportalfx-svg-badge{position:absolute;left:0;bottom:0;min-height:10px;min-width:10px}.fxc-menu-icon&gt;.msportalfx-svg-badge{left:-2px;bottom:-2px;min-height:8px;min-width:8px}.msportalfx-svg-disabled{filter:grayscale(100%)}.msportalfx-svg-loading-square{animation:ProgressFlagAnimation 1.45s infinite ease-in-out;transform-origin:50%}.msportalfx-svg-loading-square:nth-child(1){animation-delay:0s}.msportalfx-svg-loading-square:nth-child(2){animation-delay:.2s}.msportalfx-svg-loading-square:nth-child(3){animation-delay:.4s}@keyframes ProgressFlagAnimation{0%{transform:scale(1);opacity:.3}36.1%{transform:scale(1.06);opacity:1}50%{transform:scale(1.06);opacity:1}86.1%{transform:scale(1);opacity:.3}}.msportalfx-svg-flip-horizontal&gt;svg,svg.msportalfx-svg-flip-horizontal{transform:scaleX(-1)}.msportalfx-svg-fabric-rotate360{animation:ImageRotation 1.3s cubic-bezier(.53,.21,.29,.67) infinite}@keyframes ImageRotation{0%{transform:rotate(-45deg)}100%{transform:rotate(315deg)}}.fxs-svg-number .msportalfx-font-bold{font-size:10px;fill:#0065ad}.fxs-svg-number .fxs-svg-circle{stroke-width:0%;fill:#0078d4}.fxs-svg-number .fxs-svg-text{fill:#fff;font-size:10px}.fxs-svg-number.msportalfx-svg-disabled{filter:grayscale(0%)}.fxs-svg-number.msportalfx-svg-disabled .fxs-svg-circle{fill:#fff;stroke-width:1px;stroke:#949494}.fxs-svg-number.msportalfx-svg-disabled .fxs-svg-text{fill:#949494}.fxs-theme-dark .fxs-svg-number .fxs-svg-text{fill:#0f0f0f}.fxs-theme-dark .fxs-svg-number .fxs-svg-circle{stroke-width:0%;fill:#0078d4}.fxs-theme-dark .fxs-svg-number.msportalfx-svg-disabled .fxs-svg-circle{fill:#0f0f0f;stroke-width:1px;stroke:#949494}.fxs-theme-dark .fxs-svg-number.msportalfx-svg-disabled .fxs-svg-text{fill:#949494}</style></svg>