<svg viewBox="0 0 18 18" class="msportalfx-svg-placeholder" role="presentation" focusable="false" xmlns:xlink="http://www.w3.org/1999/xlink" xmlns="http://www.w3.org/2000/svg"><desc></desc><g><title>Microsoft Azure Consumption Commitment</title><defs><linearGradient id="definition-1" x1="13.189" y1="10.24" x2="13.8" y2="17.842" gradientUnits="userSpaceOnUse"><stop offset=".224" stop-color="#5ea0ef" /><stop offset="1" stop-color="#0078d4" /></linearGradient></defs><path d="M10.483 11.909H8.564v-.447c0-.778.633-1.411 1.411-1.411h4.869A7.589 7.589 0 1 0 .081 7.587a7.587 7.587 0 0 0 10.349 7.066l.052-2.743Z" fill="#b0b0b0" /><path d="M10.483 11.909H8.564v-.447c0-.778.633-1.411 1.411-1.411h3.62A6.444 6.444 0 1 0 1.206 7.56a6.444 6.444 0 0 0 9.249 5.803l.028-1.454Z" class="msportalfx-svg-c01" /><path d="m10.643 10.864.259-.26.801.803-.258.258zm.058-6.626.259.259.802-.802-.259-.259-.802.802Zm1.412 3.161v.366h1.134v-.366h-1.134Zm-4.668 5.793h.366v-1.134h-.366v1.134ZM4.507 4.203l-.802-.802-.259.259.802.802.259-.259Zm-1.009 7.241.259.259.802-.802-.259-.259-.802.802ZM1.929 7.765h1.134v-.366H1.929v.366Z" class="msportalfx-svg-c04" /><path d="M7.686 1.116a6.48 6.48 0 0 1 5.986 8.936h1.173A7.577 7.577 0 0 0 7.677 0a.545.545 0 0 0-.545.544v.009c0 .307.246.557.553.562Zm2.767 12.335A6.48 6.48 0 0 1 2.902 3.213l.455.66 1.267-2.82-3.053.357.669.893a7.578 7.578 0 0 0 8.189 12.336l.023-1.188Z" fill="#0078d4" /><path d="M10.374 9.63 8.455 7.711a.462.462 0 0 0-.312-.133.45.45 0 0 0 .06-.215V2.481a.464.464 0 0 0-.464-.464H7.65a.464.464 0 0 0-.464.464v4.882c0 .256.208.464.464.464h.051a.459.459 0 0 0 .035.603l1.72 1.72c.16-.064.335-.1.518-.1h.526a.466.466 0 0 0-.126-.422Z" class="msportalfx-svg-c04" /><circle cx="7.65" cy="7.587" r="1.071" fill="#666" /><path d="M9.01 11.462c0-.532.432-.964.964-.964a4.447 4.447 0 0 1 1.514.276c.182.175-.55.415-.55.687H9.01Z" fill="#0078d4" /><path d="M16.559 11.975c0-.815-.661-1.476-1.476-1.476H9.975c.532 0 .964.432.964.964l-.106 5.567a.978.978 0 0 0 .973.971.964.964 0 0 0 .955-.971l3.8.002v-5.057Z" fill="url(#definition-1)" /><path d="M12.52 11.364a.152.152 0 0 1-.153.153.152.152 0 0 1-.153-.153.153.153 0 1 1 .306 0Zm0 2.663a.154.154 0 0 1-.307.001c0-.085.068-.153.153-.154.084 0 .152.068.153.153Zm-.809-.429v-.432a.833.833 0 0 0 .533.197.652.652 0 0 0 .146-.015.352.352 0 0 0 .103-.041.173.173 0 0 0 .061-.062.165.165 0 0 0 .02-.078.173.173 0 0 0-.032-.101.361.361 0 0 0-.088-.082.953.953 0 0 0-.133-.073l-.166-.073a.848.848 0 0 1-.338-.231.5.5 0 0 1-.111-.327.524.524 0 0 1 .061-.26.517.517 0 0 1 .166-.179.737.737 0 0 1 .243-.103c.095-.023.193-.034.291-.033.09 0 .179.005.268.018.074.011.146.03.215.056v.403a.61.61 0 0 0-.106-.059.938.938 0 0 0-.353-.076.613.613 0 0 0-.135.014.35.35 0 0 0-.103.04.2.2 0 0 0-.065.061.157.157 0 0 0 .002.167c.02.028.044.053.073.073a.773.773 0 0 0 .115.068c.045.022.096.045.152.068.072.03.142.064.209.103a.754.754 0 0 1 .158.123.47.47 0 0 1 .101.158.634.634 0 0 1-.026.478.5.5 0 0 1-.167.178.724.724 0 0 1-.245.098c-.097.02-.196.03-.295.03-.102 0-.203-.009-.303-.027a.915.915 0 0 1-.25-.081Zm2.909 2.176h-3.013a.184.184 0 0 1-.187-.181.184.184 0 0 1 .181-.187h3.019a.184.184 0 0 1 .181.187.185.185 0 0 1-.181.181Zm.771.765h-3.784a.184.184 0 0 1-.187-.181.184.184 0 0 1 .181-.187h3.79c.102-.002.185.079.187.181s-.079.185-.181.187h-.006Zm-.02-1.714a.184.184 0 0 0-.184-.184h-3.595a.185.185 0 0 0 .016.368h3.58a.184.184 0 0 0 .184-.184Z" class="msportalfx-svg-c01" /><path d="M16.955 17.993a.965.965 0 0 0 .964-.964H12.76c0 .532-.469.964-.889.964h5.084Z" fill="#5ea0ef" /></g><style>.msportalfx-svg-c01{fill:#fff}.msportalfx-svg-c02{fill:#e5e5e5}.msportalfx-svg-c03{fill:#a0a1a2}.msportalfx-svg-c04{fill:#7a7a7a}.msportalfx-svg-c05{fill:#3e3e3e}.msportalfx-svg-c06{fill:#1e1e1e}.msportalfx-svg-c07{fill:#0f0f0f}.msportalfx-svg-c08{fill:#ba141a}.msportalfx-svg-c09{fill:#dd5900}.msportalfx-svg-c10{fill:#ff8c00}.msportalfx-svg-c11{fill:#fcd116}.msportalfx-svg-c12{fill:#fee087}.msportalfx-svg-c13{fill:#b8d432}.msportalfx-svg-c14,.msportalfx-svg-c32{fill:#57a300}.msportalfx-svg-c15{fill:#59b4d9}.msportalfx-svg-c16{fill:#3999c6}.msportalfx-svg-c17{fill:#804998}.msportalfx-svg-c18{fill:#ec008c}.msportalfx-svg-c19{fill:#0072c6}.msportalfx-svg-c20{fill:#68217a}.msportalfx-svg-c21{fill:#00188f}.msportalfx-svg-c22{fill:#e81123}.fxs-mode-light .msportalfx-svg-c22{fill:#a4262c}.msportalfx-svg-c23{fill:#cae3f3}.msportalfx-svg-c24{fill:#59aed3}.msportalfx-svg-c25{fill:#4c3b12}.msportalfx-svg-c26{fill:#be9555}.msportalfx-svg-c27{fill:#4f4d52}.msportalfx-svg-c28{fill:#ef6f59}.msportalfx-svg-c29{fill:#f7cb64}.msportalfx-svg-c30{fill:#fdd8db}.msportalfx-svg-c31{fill:#f6ffec}.msportalfx-svg-c33{fill:#8a2da5}.msportalfx-svg-c34{fill:#e00b1c}.msportalfx-svg-c35{fill:#015cda}.msportalfx-svg-c36{fill:#5db300}.msportalfx-svg-c97{fill:#ffb900}.msportalfx-svg-c98{fill:#00a4ef}.msportalfx-svg-c99{fill:#f25022}.msportalfx-inverted-theme .msportalfx-svg-c05,.fxs-theme-dark .msportalfx-svg-c05{fill:#777}.msportalfx-inverted-theme .msportalfx-svg-c07,.fxs-theme-dark .msportalfx-svg-c07{fill:#f2f2f2}.msportalfx-svg-palette-white{fill:#fff}.msportalfx-svg-palette-blue{fill:#015cda}.msportalfx-svg-palette-black{fill:#1e1e1e}.msportalfx-svg-palette-green{fill:#57a300}.msportalfx-svg-palette-gray{fill:#a0a1a2}.msportalfx-svg-palette-inherit{fill:inherit}.msportalfx-svg-badge{position:absolute;left:0;bottom:0;min-height:10px;min-width:10px}.fxc-menu-icon&gt;.msportalfx-svg-badge{left:-2px;bottom:-2px;min-height:8px;min-width:8px}.msportalfx-svg-disabled{filter:grayscale(100%)}.msportalfx-svg-loading-square{animation:ProgressFlagAnimation 1.45s infinite ease-in-out;transform-origin:50%}.msportalfx-svg-loading-square:nth-child(1){animation-delay:0s}.msportalfx-svg-loading-square:nth-child(2){animation-delay:.2s}.msportalfx-svg-loading-square:nth-child(3){animation-delay:.4s}@keyframes ProgressFlagAnimation{0%{transform:scale(1);opacity:.3}36.1%{transform:scale(1.06);opacity:1}50%{transform:scale(1.06);opacity:1}86.1%{transform:scale(1);opacity:.3}}.msportalfx-svg-flip-horizontal&gt;svg,svg.msportalfx-svg-flip-horizontal{transform:scaleX(-1)}.msportalfx-svg-fabric-rotate360{animation:ImageRotation 1.3s cubic-bezier(.53,.21,.29,.67) infinite}@keyframes ImageRotation{0%{transform:rotate(-45deg)}100%{transform:rotate(315deg)}}.fxs-svg-number .msportalfx-font-bold{font-size:10px;fill:#0065ad}.fxs-svg-number .fxs-svg-circle{stroke-width:0%;fill:#0078d4}.fxs-svg-number .fxs-svg-text{fill:#fff;font-size:10px}.fxs-svg-number.msportalfx-svg-disabled{filter:grayscale(0%)}.fxs-svg-number.msportalfx-svg-disabled .fxs-svg-circle{fill:#fff;stroke-width:1px;stroke:#949494}.fxs-svg-number.msportalfx-svg-disabled .fxs-svg-text{fill:#949494}.fxs-theme-dark .fxs-svg-number .fxs-svg-text{fill:#0f0f0f}.fxs-theme-dark .fxs-svg-number .fxs-svg-circle{stroke-width:0%;fill:#0078d4}.fxs-theme-dark .fxs-svg-number.msportalfx-svg-disabled .fxs-svg-circle{fill:#0f0f0f;stroke-width:1px;stroke:#949494}.fxs-theme-dark .fxs-svg-number.msportalfx-svg-disabled .fxs-svg-text{fill:#949494}</style></svg>