<svg fill="none" viewBox="0 0 40 40" class="msportalfx-svg-placeholder" xmlns="http://www.w3.org/2000/svg"><title>Health decision support</title><desc>Health decision support</desc><path fill="#0071C6" d="M0 0h40v40H0z" /><path fill="#fff" d="M18.762 32.852a4 4 0 0 1-1.45.484 3.7 3.7 0 0 1-1.434-.104 5 5 0 0 1-1.36-.607 6 6 0 0 1-1.218-1.037q-.433-.48-.89-1.06a9 9 0 0 1-.828-1.246 5.6 5.6 0 0 1-.543-1.353 3.5 3.5 0 0 1-.062-1.406q.02-.108.046-.188a5 5 0 0 1 .07-.197 5 5 0 0 1-.758-.529 9 9 0 0 1-.69-.652 7.7 7.7 0 0 1-.913-1.269 7 7 0 0 1-.67-1.548 4.2 4.2 0 0 1-.162-1.61 2.66 2.66 0 0 1 .593-1.433 4.7 4.7 0 0 1-.59-1.771 6 6 0 0 1 .065-1.836 5.7 5.7 0 0 1 .63-1.721 7 7 0 0 1 1.074-1.45 2.75 2.75 0 0 1 1.16-.714 2.56 2.56 0 0 1 1.36-.017 3 3 0 0 1 .085-1.427 2.94 2.94 0 0 1 .736-1.183q.627-.626 1.43-1.055a5.5 5.5 0 0 1 1.667-.575 4.9 4.9 0 0 1 1.737.016 4.2 4.2 0 0 1 1.66.72 2.23 2.23 0 0 1 1.381-.541 4.1 4.1 0 0 1 1.52.252q.761.275 1.435.764a7.5 7.5 0 0 1 1.166 1.035q.322.357.593.748.27.392.454.834.683-.253 1.394-.07.711.182 1.377.626t1.26.993q.596.55 1.029 1.047.552.612.922 1.314.37.705.507 1.46a4.52 4.52 0 0 1-.508 3.031q.558.873.812 1.89a6.6 6.6 0 0 1 .192 2.026 6.4 6.4 0 0 1-.436 1.956 4.85 4.85 0 0 1-1.094 1.666 3.6 3.6 0 0 1-.928.678q-.51.26-1.08.4a4.1 4.1 0 0 1-1.153.115 11 11 0 0 1-1.16-.11q.08.6.055 1.215-.024.615-.186 1.206a6.4 6.4 0 0 1-.417 1.115q-.255.523-.698.949a4.7 4.7 0 0 1-1.63 1.074 5.2 5.2 0 0 1-1.878.358 5.9 5.9 0 0 1-3.674-1.263m6.658-5.442-8.658-9.587-1.21 1.209q.16.36.199.732a3 3 0 0 1-.018.75 2 2 0 0 1-.231.698 3 3 0 0 1-.437.598 2.2 2.2 0 0 1-1.65.648 2.4 2.4 0 0 1-.892-.218 2.1 2.1 0 0 1-.758-.565 2.5 2.5 0 0 1-.498-.826 2.62 2.62 0 0 1 .022-1.864q.177-.465.516-.785.27-.27.59-.429t.673-.208.705.011.693.255l1.21-1.21-2.242-2.481a3.6 3.6 0 0 0-.57-.503 2.6 2.6 0 0 0-.71-.364 1.7 1.7 0 0 0-.738-.085q-.36.04-.657.336a4.8 4.8 0 0 0-.821 1.125 4.4 4.4 0 0 0-.472 1.366q-.12.711.018 1.413t.664 1.286q.222.244.217.588a.8.8 0 0 1-.23.57 1 1 0 0 1-.208.155q-.112.059-.226.153a.66.66 0 0 0-.166.256q-.045.134-.072.323a2.3 2.3 0 0 0 .05.808q.099.42.291.836.194.416.447.788.255.372.5.645.381.422.757.692.375.268.915.426.12.041.214.09a.7.7 0 0 1 .187.153l.879-.879q.487-.487 1.126-.714a3.6 3.6 0 0 1 1.318-.21q.68.02 1.303.307.625.288 1.117.816l.407.45a2 2 0 0 1 .69-.189 2.6 2.6 0 0 1 .714.039q.36.069.667.262.307.194.58.477.33.366.497.826a2.62 2.62 0 0 1-.022 1.864q-.177.463-.516.785a2.2 2.2 0 0 1-1.65.648 2.4 2.4 0 0 1-.891-.218 2.1 2.1 0 0 1-.76-.565 2.55 2.55 0 0 1-.637-1.348 2.7 2.7 0 0 1-.008-.743 2.3 2.3 0 0 1 .223-.724l-.365-.404a1.96 1.96 0 0 0-1.36-.644q-.36-.015-.74.115-.38.129-.65.417l-1.949 1.949a1 1 0 0 1-.225.171q.116.367.318.738.203.37.464.734a17 17 0 0 0 1.06 1.32q.501.555 1.107.914.606.36 1.363.318.155-.012.345-.04a2.2 2.2 0 0 0 .733-.251q.165-.093.295-.205a.7.7 0 0 1 .553-.213q.326.014.547.258.212.235.502.427.291.194.615.333.325.14.66.254.334.113.634.152.867.135 1.66-.086a3.23 3.23 0 0 0 1.429-.856q.313-.314.508-.758.195-.445.277-.958a4.6 4.6 0 0 0 .055-1.002 5 5 0 0 0-.202-1.158.7.7 0 0 0-.075-.194m4.583-12.524a28 28 0 0 0-.544-.584 8.4 8.4 0 0 0-1.32-1.113 4 4 0 0 0-.692-.381 1.5 1.5 0 0 0-.669-.118q-.31.024-.605.301a.7.7 0 0 1-.553.213.75.75 0 0 1-.547-.258.9.9 0 0 1-.21-.434 3.4 3.4 0 0 0-.359-.965 5.6 5.6 0 0 0-.617-.85 5.6 5.6 0 0 0-1.303-1.058 3.5 3.5 0 0 0-.779-.348 2.4 2.4 0 0 0-.773-.104 2 2 0 0 0-.293.06.8.8 0 0 0-.268.162 1 1 0 0 0-.157.21 1.3 1.3 0 0 1-.158.23.7.7 0 0 1-.423.209.73.73 0 0 1-.677-.254q-.518-.574-1.169-.763a3.3 3.3 0 0 0-1.349-.1q-.697.09-1.329.434-.63.346-1.11.806a1.2 1.2 0 0 0-.351.674q-.056.378.042.762.1.384.31.764t.448.643l9.847 10.904.835-.835q.287-.287.429-.662.141-.374.146-.754a2.4 2.4 0 0 0-.128-.784 1.8 1.8 0 0 0-.413-.696l-1.995-2.209a2 2 0 0 1-.69.19q-.353.03-.714-.039a1.9 1.9 0 0 1-.667-.262 3 3 0 0 1-.58-.477 2.5 2.5 0 0 1-.497-.826 2.62 2.62 0 0 1 .022-1.864q.177-.463.516-.785.339-.339.771-.502.432-.165.879-.146t.892.218.758.565a2.55 2.55 0 0 1 .638 1.348q.056.373.008.743a2.3 2.3 0 0 1-.223.724l2.037 2.256q.493.544.726 1.224a3.98 3.98 0 0 1-.067 2.768q-.265.66-.762 1.173l-.835.835 1.053 1.166a.7.7 0 0 0 .18.089q.153.06.196.071.402.153.875.199.472.046.963-.015.49-.062.914-.235t.762-.494q.627-.625.877-1.449a4.7 4.7 0 0 0 .175-1.75 5 5 0 0 0-.113-.656 10 10 0 0 0-.197-.714 3.4 3.4 0 0 0-.294-.673 4 4 0 0 0-.38-.55.83.83 0 0 1-.217-.588q.005-.343.23-.57.114-.113.21-.28.096-.17.16-.375a7 7 0 0 0 .107-.394q.046-.188.064-.368.087-.766-.232-1.431a5.4 5.4 0 0 0-.811-1.228m-16.011 4.562a.75.75 0 0 0-.548-.258.7.7 0 0 0-.552.213.8.8 0 0 0-.23.57q-.005.344.216.588.221.245.547.258a.7.7 0 0 0 .553-.213q.227-.225.23-.57a.83.83 0 0 0-.216-.588m8.854-4.275a.75.75 0 0 0-.548-.257.7.7 0 0 0-.552.213.8.8 0 0 0-.23.57q-.004.344.216.588.221.245.547.258a.7.7 0 0 0 .553-.213q.227-.226.23-.57a.83.83 0 0 0-.216-.589M20.51 26.667a.75.75 0 0 0-.547-.258.7.7 0 0 0-.553.213.8.8 0 0 0-.23.57q-.004.345.216.588.221.245.548.258a.7.7 0 0 0 .552-.213q.227-.225.23-.57a.83.83 0 0 0-.216-.588" /><style>.msportalfx-svg-c01{fill:#fff}.msportalfx-svg-c02{fill:#e5e5e5}.msportalfx-svg-c03{fill:#a0a1a2}.msportalfx-svg-c04{fill:#7a7a7a}.msportalfx-svg-c05{fill:#3e3e3e}.msportalfx-svg-c06{fill:#1e1e1e}.msportalfx-svg-c07{fill:#0f0f0f}.msportalfx-svg-c08{fill:#ba141a}.msportalfx-svg-c09{fill:#dd5900}.msportalfx-svg-c10{fill:#ff8c00}.msportalfx-svg-c11{fill:#fcd116}.msportalfx-svg-c12{fill:#fee087}.msportalfx-svg-c13{fill:#b8d432}.msportalfx-svg-c14,.msportalfx-svg-c32{fill:#57a300}.msportalfx-svg-c15{fill:#59b4d9}.msportalfx-svg-c16{fill:#3999c6}.msportalfx-svg-c17{fill:#804998}.msportalfx-svg-c18{fill:#ec008c}.msportalfx-svg-c19{fill:#0072c6}.msportalfx-svg-c20{fill:#68217a}.msportalfx-svg-c21{fill:#00188f}.msportalfx-svg-c22{fill:#e81123}.fxs-mode-light .msportalfx-svg-c22{fill:#a4262c}.msportalfx-svg-c23{fill:#cae3f3}.msportalfx-svg-c24{fill:#59aed3}.msportalfx-svg-c25{fill:#4c3b12}.msportalfx-svg-c26{fill:#be9555}.msportalfx-svg-c27{fill:#4f4d52}.msportalfx-svg-c28{fill:#ef6f59}.msportalfx-svg-c29{fill:#f7cb64}.msportalfx-svg-c30{fill:#fdd8db}.msportalfx-svg-c31{fill:#f6ffec}.msportalfx-svg-c33{fill:#8a2da5}.msportalfx-svg-c34{fill:#e00b1c}.msportalfx-svg-c35{fill:#015cda}.msportalfx-svg-c36{fill:#5db300}.msportalfx-svg-c97{fill:#ffb900}.msportalfx-svg-c98{fill:#00a4ef}.msportalfx-svg-c99{fill:#f25022}.msportalfx-inverted-theme .msportalfx-svg-c05,.fxs-theme-dark .msportalfx-svg-c05{fill:#777}.msportalfx-inverted-theme .msportalfx-svg-c07,.fxs-theme-dark .msportalfx-svg-c07{fill:#f2f2f2}.msportalfx-svg-palette-white{fill:#fff}.msportalfx-svg-palette-blue{fill:#015cda}.msportalfx-svg-palette-black{fill:#1e1e1e}.msportalfx-svg-palette-green{fill:#57a300}.msportalfx-svg-palette-gray{fill:#a0a1a2}.msportalfx-svg-palette-inherit{fill:inherit}.msportalfx-svg-badge{position:absolute;left:0;bottom:0;min-height:10px;min-width:10px}.fxc-menu-icon&gt;.msportalfx-svg-badge{left:-2px;bottom:-2px;min-height:8px;min-width:8px}.msportalfx-svg-disabled{filter:grayscale(100%)}.msportalfx-svg-loading-square{animation:ProgressFlagAnimation 1.45s infinite ease-in-out;transform-origin:50%}.msportalfx-svg-loading-square:nth-child(1){animation-delay:0s}.msportalfx-svg-loading-square:nth-child(2){animation-delay:.2s}.msportalfx-svg-loading-square:nth-child(3){animation-delay:.4s}@keyframes ProgressFlagAnimation{0%{transform:scale(1);opacity:.3}36.1%{transform:scale(1.06);opacity:1}50%{transform:scale(1.06);opacity:1}86.1%{transform:scale(1);opacity:.3}}.msportalfx-svg-flip-horizontal&gt;svg,svg.msportalfx-svg-flip-horizontal{transform:scaleX(-1)}.msportalfx-svg-fabric-rotate360{animation:ImageRotation 1.3s cubic-bezier(.53,.21,.29,.67) infinite}@keyframes ImageRotation{0%{transform:rotate(-45deg)}100%{transform:rotate(315deg)}}.fxs-svg-number .msportalfx-font-bold{font-size:10px;fill:#0065ad}.fxs-svg-number .fxs-svg-circle{stroke-width:0%;fill:#0078d4}.fxs-svg-number .fxs-svg-text{fill:#fff;font-size:10px}.fxs-svg-number.msportalfx-svg-disabled{filter:grayscale(0%)}.fxs-svg-number.msportalfx-svg-disabled .fxs-svg-circle{fill:#fff;stroke-width:1px;stroke:#949494}.fxs-svg-number.msportalfx-svg-disabled .fxs-svg-text{fill:#949494}.fxs-theme-dark .fxs-svg-number .fxs-svg-text{fill:#0f0f0f}.fxs-theme-dark .fxs-svg-number .fxs-svg-circle{stroke-width:0%;fill:#0078d4}.fxs-theme-dark .fxs-svg-number.msportalfx-svg-disabled .fxs-svg-circle{fill:#0f0f0f;stroke-width:1px;stroke:#949494}.fxs-theme-dark .fxs-svg-number.msportalfx-svg-disabled .fxs-svg-text{fill:#949494}</style></svg>