<svg viewBox="0 0 18 18" class="msportalfx-svg-placeholder" xmlns="http://www.w3.org/2000/svg"><title>QnA maker</title><desc>Distill information into easy-to-navigate questions and answers.</desc><defs><linearGradient id="piBTtM6Ws__a" x1="-1256.65" x2="-1256.65" y1="18.862" y2="2.992" gradientTransform="matrix(-1 0 0 1 -1244.522 0)" gradientUnits="userSpaceOnUse"><stop offset="0" stop-color="#32bedd" /><stop offset="1" stop-color="#50e6ff" /></linearGradient><linearGradient id="piBTtM6Ws__b" x1="5.872" x2="5.872" y1="-.862" y2="15.008" gradientUnits="userSpaceOnUse"><stop offset="0" stop-color="#5ea0ef" /><stop offset="1" stop-color="#0078d4" /></linearGradient></defs><path fill="url(#piBTtM6Ws__a)" d="M7.106 7.019H17.15a.66.66 0 0 1 .659.658v7.981a.66.66 0 0 1-.659.658h-4.11a.1.1 0 0 0-.067.023l-2.108 1.615a.219.219 0 0 1-.353-.174v-1.354a.11.11 0 0 0-.109-.11h-3.3a.66.66 0 0 1-.658-.658V7.677a.66.66 0 0 1 .661-.658" /><path fill="url(#piBTtM6Ws__b)" d="M11.552.659v7.98a.66.66 0 0 1-.658.658H7.6a.11.11 0 0 0-.109.11v1.355a.22.22 0 0 1-.353.174L5.027 9.32a.1.1 0 0 0-.067-.02H.85a.66.66 0 0 1-.659-.658V.659A.66.66 0 0 1 .85 0h10.044a.66.66 0 0 1 .658.659" /><path fill="#fff" d="M5.165 6.052a2 2 0 0 1-.065-.281 2 2 0 0 1-.031-.342 1.1 1.1 0 0 1 .106-.478 2 2 0 0 1 .264-.4 4 4 0 0 1 .341-.359q.185-.173.342-.337a2 2 0 0 0 .264-.346.8.8 0 0 0 .106-.4.7.7 0 0 0-.078-.339.7.7 0 0 0-.214-.239 1 1 0 0 0-.311-.145 1.4 1.4 0 0 0-.374-.047 1.74 1.74 0 0 0-1.228.574v-1A2.87 2.87 0 0 1 5.753 1.5a2.3 2.3 0 0 1 .661.091 1.7 1.7 0 0 1 .545.268 1.3 1.3 0 0 1 .367.441 1.34 1.34 0 0 1 .134.613 1.5 1.5 0 0 1-.112.593 2.2 2.2 0 0 1-.283.477 2.7 2.7 0 0 1-.365.387 7 7 0 0 0-.367.337 2 2 0 0 0-.283.35.75.75 0 0 0-.113.4 1.1 1.1 0 0 0 .048.337 2 2 0 0 0 .095.256Zm.493 1.828a.64.64 0 0 1-.437-.169.53.53 0 0 1-.182-.406.52.52 0 0 1 .182-.405.63.63 0 0 1 .869 0 .52.52 0 0 1 .181.406.53.53 0 0 1-.181.406.63.63 0 0 1-.432.168" /><style>.msportalfx-svg-c01{fill:#fff}.msportalfx-svg-c02{fill:#e5e5e5}.msportalfx-svg-c03{fill:#a0a1a2}.msportalfx-svg-c04{fill:#7a7a7a}.msportalfx-svg-c05{fill:#3e3e3e}.msportalfx-svg-c06{fill:#1e1e1e}.msportalfx-svg-c07{fill:#0f0f0f}.msportalfx-svg-c08{fill:#ba141a}.msportalfx-svg-c09{fill:#dd5900}.msportalfx-svg-c10{fill:#ff8c00}.msportalfx-svg-c11{fill:#fcd116}.msportalfx-svg-c12{fill:#fee087}.msportalfx-svg-c13{fill:#b8d432}.msportalfx-svg-c14,.msportalfx-svg-c32{fill:#57a300}.msportalfx-svg-c15{fill:#59b4d9}.msportalfx-svg-c16{fill:#3999c6}.msportalfx-svg-c17{fill:#804998}.msportalfx-svg-c18{fill:#ec008c}.msportalfx-svg-c19{fill:#0072c6}.msportalfx-svg-c20{fill:#68217a}.msportalfx-svg-c21{fill:#00188f}.msportalfx-svg-c22{fill:#e81123}.fxs-mode-light .msportalfx-svg-c22{fill:#a4262c}.msportalfx-svg-c23{fill:#cae3f3}.msportalfx-svg-c24{fill:#59aed3}.msportalfx-svg-c25{fill:#4c3b12}.msportalfx-svg-c26{fill:#be9555}.msportalfx-svg-c27{fill:#4f4d52}.msportalfx-svg-c28{fill:#ef6f59}.msportalfx-svg-c29{fill:#f7cb64}.msportalfx-svg-c30{fill:#fdd8db}.msportalfx-svg-c31{fill:#f6ffec}.msportalfx-svg-c33{fill:#8a2da5}.msportalfx-svg-c34{fill:#e00b1c}.msportalfx-svg-c35{fill:#015cda}.msportalfx-svg-c36{fill:#5db300}.msportalfx-svg-c97{fill:#ffb900}.msportalfx-svg-c98{fill:#00a4ef}.msportalfx-svg-c99{fill:#f25022}.msportalfx-inverted-theme .msportalfx-svg-c05,.fxs-theme-dark .msportalfx-svg-c05{fill:#777}.msportalfx-inverted-theme .msportalfx-svg-c07,.fxs-theme-dark .msportalfx-svg-c07{fill:#f2f2f2}.msportalfx-svg-palette-white{fill:#fff}.msportalfx-svg-palette-blue{fill:#015cda}.msportalfx-svg-palette-black{fill:#1e1e1e}.msportalfx-svg-palette-green{fill:#57a300}.msportalfx-svg-palette-gray{fill:#a0a1a2}.msportalfx-svg-palette-inherit{fill:inherit}.msportalfx-svg-badge{position:absolute;left:0;bottom:0;min-height:10px;min-width:10px}.fxc-menu-icon&gt;.msportalfx-svg-badge{left:-2px;bottom:-2px;min-height:8px;min-width:8px}.msportalfx-svg-disabled{filter:grayscale(100%)}.msportalfx-svg-loading-square{animation:ProgressFlagAnimation 1.45s infinite ease-in-out;transform-origin:50%}.msportalfx-svg-loading-square:nth-child(1){animation-delay:0s}.msportalfx-svg-loading-square:nth-child(2){animation-delay:.2s}.msportalfx-svg-loading-square:nth-child(3){animation-delay:.4s}@keyframes ProgressFlagAnimation{0%{transform:scale(1);opacity:.3}36.1%{transform:scale(1.06);opacity:1}50%{transform:scale(1.06);opacity:1}86.1%{transform:scale(1);opacity:.3}}.msportalfx-svg-flip-horizontal&gt;svg,svg.msportalfx-svg-flip-horizontal{transform:scaleX(-1)}.msportalfx-svg-fabric-rotate360{animation:ImageRotation 1.3s cubic-bezier(.53,.21,.29,.67) infinite}@keyframes ImageRotation{0%{transform:rotate(-45deg)}100%{transform:rotate(315deg)}}.fxs-svg-number .msportalfx-font-bold{font-size:10px;fill:#0065ad}.fxs-svg-number .fxs-svg-circle{stroke-width:0%;fill:#0078d4}.fxs-svg-number .fxs-svg-text{fill:#fff;font-size:10px}.fxs-svg-number.msportalfx-svg-disabled{filter:grayscale(0%)}.fxs-svg-number.msportalfx-svg-disabled .fxs-svg-circle{fill:#fff;stroke-width:1px;stroke:#949494}.fxs-svg-number.msportalfx-svg-disabled .fxs-svg-text{fill:#949494}.fxs-theme-dark .fxs-svg-number .fxs-svg-text{fill:#0f0f0f}.fxs-theme-dark .fxs-svg-number .fxs-svg-circle{stroke-width:0%;fill:#0078d4}.fxs-theme-dark .fxs-svg-number.msportalfx-svg-disabled .fxs-svg-circle{fill:#0f0f0f;stroke-width:1px;stroke:#949494}.fxs-theme-dark .fxs-svg-number.msportalfx-svg-disabled .fxs-svg-text{fill:#949494}</style></svg>