<svg viewBox="0 0 18 18" class="msportalfx-svg-placeholder" xmlns="http://www.w3.org/2000/svg"><title>Translator</title><desc>Translate more than 100 languages and dialects.</desc><defs><linearGradient id="p9ZKWDAWN__a" x1="9" x2="9" y2="18" gradientUnits="userSpaceOnUse"><stop offset="0" stop-color="#5ea0ef" /><stop offset="1" stop-color="#0078d4" /></linearGradient><linearGradient id="p9ZKWDAWN__b" x1="-998.057" x2="-1002.698" y1="-213.109" y2="-204.987" gradientTransform="rotate(90 -601.132 405.86)" gradientUnits="userSpaceOnUse"><stop offset="0" stop-color="#fff" /><stop offset="1" stop-color="#fff" stop-opacity=".3" /></linearGradient><linearGradient id="p9ZKWDAWN__c" x1="-122.365" x2="-127.006" y1="1106.487" y2="1114.61" gradientTransform="rotate(-90 -609.25 496.774)" gradientUnits="userSpaceOnUse"><stop offset="0" stop-color="#fff" /><stop offset="1" stop-color="#fff" stop-opacity=".3" /></linearGradient></defs><rect width="18" height="18" fill="url(#p9ZKWDAWN__a)" rx=".6" /><path fill="#fff" d="M13.281 9.822a3.55 3.55 0 0 0-1.946.537v.94a2.82 2.82 0 0 1 1.868-.7q1.181 0 1.18 1.459l-1.717.241q-1.89.262-1.89 1.868a1.57 1.57 0 0 0 .484 1.2 1.88 1.88 0 0 0 1.339.453 1.92 1.92 0 0 0 1.762-1.029h.022v.895h.917v-3.728q0-2.136-2.019-2.136m1.1 3.534a1.7 1.7 0 0 1-.445 1.211 1.47 1.47 0 0 1-1.126.478 1.16 1.16 0 0 1-.8-.265.87.87 0 0 1-.3-.685.91.91 0 0 1 .324-.8 2.25 2.25 0 0 1 .966-.319l1.381-.19Z" /><path fill="url(#p9ZKWDAWN__b)" d="m13.782 8.891 1.537-1.58c.167-.166.106-.311-.16-.311h-.683a.2.2 0 0 1-.2-.2c.022-1.019-.264-3.848-4.129-3.944a.2.2 0 0 0-.2.2v1a.2.2 0 0 0 .216.2A2.373 2.373 0 0 1 13.026 6.8a.2.2 0 0 1-.2.2H12.2c-.322 0-.376.1-.161.311l1.425 1.58a.2.2 0 0 0 .318 0" /><path fill="url(#p9ZKWDAWN__c)" d="m4.52 9.932-1.538 1.58c-.167.167-.106.311.161.311h.682a.2.2 0 0 1 .2.2c-.025 1.019.26 3.848 4.125 3.944a.2.2 0 0 0 .2-.2v-1a.2.2 0 0 0-.215-.2 2.373 2.373 0 0 1-2.863-2.551.2.2 0 0 1 .2-.2h.632c.321 0 .375-.1.16-.311L4.841 9.932a.2.2 0 0 0-.321 0" /><path fill="#fff" d="M6.63 4.4a2.62 2.62 0 0 1 1.416.746 2 2 0 0 1-.014 2.9 3.04 3.04 0 0 1-1.914.742l-.285-.643a2.73 2.73 0 0 0 1.6-.462 1.3 1.3 0 0 0 .565-1.077 1.42 1.42 0 0 0-.438-1.023 2.05 2.05 0 0 0-1.093-.573 6.5 6.5 0 0 1-1.138 2.3 2.2 2.2 0 0 0 .262.457l-.536.372a2 2 0 0 1-.218-.333 2.3 2.3 0 0 1-1.444.635 1.14 1.14 0 0 1-.821-.317 1.25 1.25 0 0 1-.329-.937 2.4 2.4 0 0 1 .534-1.457 3.3 3.3 0 0 1 1.366-1.061q.024-.8.052-1.119-.834.032-1.317.032l-.107-.619q.519.019 1.471-.016a12 12 0 0 1 .21-1.364l.619.091L4.9 2.9a24 24 0 0 0 2.59-.31l.131.6a27 27 0 0 1-2.777.322 7 7 0 0 0-.059.928 4 4 0 0 1 .936-.123q.122-.002.242.008a2.4 2.4 0 0 0 .115-.512l.634.091a4 4 0 0 1-.082.496M4.552 7.172a7 7 0 0 1-.381-1.821 2.5 2.5 0 0 0-.913.8 1.76 1.76 0 0 0-.337 1 .7.7 0 0 0 .143.508.43.43 0 0 0 .294.13 1.6 1.6 0 0 0 .523-.138 1.95 1.95 0 0 0 .671-.479m1.241-2.21a3.7 3.7 0 0 0-.976.147 5.7 5.7 0 0 0 .23 1.464 6 6 0 0 0 .746-1.611" />​<style>.msportalfx-svg-c01{fill:#fff}.msportalfx-svg-c02{fill:#e5e5e5}.msportalfx-svg-c03{fill:#a0a1a2}.msportalfx-svg-c04{fill:#7a7a7a}.msportalfx-svg-c05{fill:#3e3e3e}.msportalfx-svg-c06{fill:#1e1e1e}.msportalfx-svg-c07{fill:#0f0f0f}.msportalfx-svg-c08{fill:#ba141a}.msportalfx-svg-c09{fill:#dd5900}.msportalfx-svg-c10{fill:#ff8c00}.msportalfx-svg-c11{fill:#fcd116}.msportalfx-svg-c12{fill:#fee087}.msportalfx-svg-c13{fill:#b8d432}.msportalfx-svg-c14,.msportalfx-svg-c32{fill:#57a300}.msportalfx-svg-c15{fill:#59b4d9}.msportalfx-svg-c16{fill:#3999c6}.msportalfx-svg-c17{fill:#804998}.msportalfx-svg-c18{fill:#ec008c}.msportalfx-svg-c19{fill:#0072c6}.msportalfx-svg-c20{fill:#68217a}.msportalfx-svg-c21{fill:#00188f}.msportalfx-svg-c22{fill:#e81123}.fxs-mode-light .msportalfx-svg-c22{fill:#a4262c}.msportalfx-svg-c23{fill:#cae3f3}.msportalfx-svg-c24{fill:#59aed3}.msportalfx-svg-c25{fill:#4c3b12}.msportalfx-svg-c26{fill:#be9555}.msportalfx-svg-c27{fill:#4f4d52}.msportalfx-svg-c28{fill:#ef6f59}.msportalfx-svg-c29{fill:#f7cb64}.msportalfx-svg-c30{fill:#fdd8db}.msportalfx-svg-c31{fill:#f6ffec}.msportalfx-svg-c33{fill:#8a2da5}.msportalfx-svg-c34{fill:#e00b1c}.msportalfx-svg-c35{fill:#015cda}.msportalfx-svg-c36{fill:#5db300}.msportalfx-svg-c97{fill:#ffb900}.msportalfx-svg-c98{fill:#00a4ef}.msportalfx-svg-c99{fill:#f25022}.msportalfx-inverted-theme .msportalfx-svg-c05,.fxs-theme-dark .msportalfx-svg-c05{fill:#777}.msportalfx-inverted-theme .msportalfx-svg-c07,.fxs-theme-dark .msportalfx-svg-c07{fill:#f2f2f2}.msportalfx-svg-palette-white{fill:#fff}.msportalfx-svg-palette-blue{fill:#015cda}.msportalfx-svg-palette-black{fill:#1e1e1e}.msportalfx-svg-palette-green{fill:#57a300}.msportalfx-svg-palette-gray{fill:#a0a1a2}.msportalfx-svg-palette-inherit{fill:inherit}.msportalfx-svg-badge{position:absolute;left:0;bottom:0;min-height:10px;min-width:10px}.fxc-menu-icon&gt;.msportalfx-svg-badge{left:-2px;bottom:-2px;min-height:8px;min-width:8px}.msportalfx-svg-disabled{filter:grayscale(100%)}.msportalfx-svg-loading-square{animation:ProgressFlagAnimation 1.45s infinite ease-in-out;transform-origin:50%}.msportalfx-svg-loading-square:nth-child(1){animation-delay:0s}.msportalfx-svg-loading-square:nth-child(2){animation-delay:.2s}.msportalfx-svg-loading-square:nth-child(3){animation-delay:.4s}@keyframes ProgressFlagAnimation{0%{transform:scale(1);opacity:.3}36.1%{transform:scale(1.06);opacity:1}50%{transform:scale(1.06);opacity:1}86.1%{transform:scale(1);opacity:.3}}.msportalfx-svg-flip-horizontal&gt;svg,svg.msportalfx-svg-flip-horizontal{transform:scaleX(-1)}.msportalfx-svg-fabric-rotate360{animation:ImageRotation 1.3s cubic-bezier(.53,.21,.29,.67) infinite}@keyframes ImageRotation{0%{transform:rotate(-45deg)}100%{transform:rotate(315deg)}}.fxs-svg-number .msportalfx-font-bold{font-size:10px;fill:#0065ad}.fxs-svg-number .fxs-svg-circle{stroke-width:0%;fill:#0078d4}.fxs-svg-number .fxs-svg-text{fill:#fff;font-size:10px}.fxs-svg-number.msportalfx-svg-disabled{filter:grayscale(0%)}.fxs-svg-number.msportalfx-svg-disabled .fxs-svg-circle{fill:#fff;stroke-width:1px;stroke:#949494}.fxs-svg-number.msportalfx-svg-disabled .fxs-svg-text{fill:#949494}.fxs-theme-dark .fxs-svg-number .fxs-svg-text{fill:#0f0f0f}.fxs-theme-dark .fxs-svg-number .fxs-svg-circle{stroke-width:0%;fill:#0078d4}.fxs-theme-dark .fxs-svg-number.msportalfx-svg-disabled .fxs-svg-circle{fill:#0f0f0f;stroke-width:1px;stroke:#949494}.fxs-theme-dark .fxs-svg-number.msportalfx-svg-disabled .fxs-svg-text{fill:#949494}</style></svg>