<svg viewBox="0 0 18 18" class="msportalfx-svg-placeholder" xmlns="http://www.w3.org/2000/svg"><title>Storage Discovery workspace</title><desc>Collect data from storage accounts to analyze usage, visualize data, and gain insights across your storage estate in one dashboard.</desc><defs><linearGradient id="p9XyAJD6f__a" x1="9.246" x2="4.95" y1="23.048" y2="-1.922" gradientUnits="userSpaceOnUse"><stop offset="0" stop-color="#2764e7" /><stop offset="1" stop-color="#0fafff" /></linearGradient><linearGradient id="p9XyAJD6f__b" x1="1.817" x2="10.978" y1="6.28" y2="6.28" gradientUnits="userSpaceOnUse"><stop offset=".253" stop-color="#d8f7ff" /><stop offset="1" stop-color="#d8f7ff" stop-opacity="0" /></linearGradient><linearGradient id="p9XyAJD6f__c" x1="7.714" x2="2.711" y1="13.159" y2="18.162" gradientTransform="rotate(45 5.955 14.918)" gradientUnits="userSpaceOnUse"><stop offset="0" stop-color="#32bedd" /><stop offset=".023" stop-color="#36c4e2" /><stop offset=".107" stop-color="#44d7f2" /><stop offset=".194" stop-color="#4de2fb" /><stop offset=".288" stop-color="#50e6ff" /></linearGradient><linearGradient id="p9XyAJD6f__d" x1="11.847" x2="11.847" y1="16.113" y2=".3" gradientUnits="userSpaceOnUse"><stop offset="0" stop-color="#32bedd" /><stop offset=".252" stop-color="#3ccce8" /><stop offset=".693" stop-color="#4adff9" /><stop offset="1" stop-color="#50e6ff" /></linearGradient></defs><path fill="#d9d9d9" d="M1.153 2.492H11.57v7.576H1.153z" /><path fill="#2575b7" d="M1.153 2.492H11.57v7.576H1.153z" /><path fill="#d9d9d9" d="M.206 9.784c0-.628.509-1.136 1.136-1.136H11.38c.628 0 1.136.509 1.136 1.136v1.515c0 .628-.509 1.136-1.136 1.136H1.342a1.136 1.136 0 0 1-1.136-1.136zm0-4.261c0-.628.509-1.136 1.136-1.136H11.38c.628 0 1.136.509 1.136 1.136v1.515c0 .628-.509 1.136-1.136 1.136H1.342A1.136 1.136 0 0 1 .206 7.038zm0-4.262C.206.634.715.125 1.342.125H11.38c.628 0 1.136.509 1.136 1.136v1.515c0 .628-.509 1.136-1.136 1.136H1.342A1.135 1.135 0 0 1 .206 2.777V1.262Z" /><path fill="url(#p9XyAJD6f__a)" d="M11.38 8.648H1.342c-.628 0-1.136.509-1.136 1.136v1.515c0 .628.509 1.136 1.136 1.136H11.38c.628 0 1.136-.509 1.136-1.136V9.784c0-.628-.509-1.136-1.136-1.136m0-4.262H1.342c-.628 0-1.136.509-1.136 1.136v1.515c0 .628.509 1.136 1.136 1.136H11.38c.628 0 1.136-.509 1.136-1.136V5.522c0-.628-.509-1.136-1.136-1.136m0-4.261H1.342C.715.125.206.634.206 1.261v1.515c0 .628.509 1.136 1.136 1.136H11.38c.628 0 1.136-.509 1.136-1.136V1.261c0-.628-.509-1.136-1.136-1.136" /><path fill="url(#p9XyAJD6f__b)" d="M4.112 9.831a.592.592 0 1 0 0 1.184.592.592 0 0 0 0-1.184m-1.894 0a.592.592 0 1 0 0 1.184.592.592 0 0 0 0-1.184m8.168 0H6.125a.592.592 0 1 0 0 1.184h4.261a.592.592 0 1 0 0-1.184m0-4.024H6.125a.592.592 0 1 0 0 1.184h4.261a.592.592 0 1 0 0-1.184m-8.168 0a.592.592 0 1 0 0 1.184.592.592 0 0 0 0-1.184m1.894 0a.592.592 0 1 0 0 1.184.592.592 0 0 0 0-1.184m2.013-3.078h4.261a.592.592 0 1 0 0-1.184H6.125a.592.592 0 1 0 0 1.184M4.112 1.545a.592.592 0 1 0 0 1.184.592.592 0 0 0 0-1.184m-1.894 0a.592.592 0 1 0 0 1.184.592.592 0 0 0 0-1.184" /><path fill="#98f0b0" d="M2.218 9.831a.592.592 0 1 0 0 1.184.592.592 0 0 0 0-1.184m1.894-4.024a.592.592 0 1 0 0 1.184.592.592 0 0 0 0-1.184M2.218 1.545a.592.592 0 1 0 0 1.184.592.592 0 0 0 0-1.184" /><rect width="7.469" height="1.974" x="2.22" y="13.932" fill="url(#p9XyAJD6f__c)" rx=".923" ry=".923" transform="rotate(-45 5.954 14.919)" /><circle cx="11.835" cy="8.57" r="4.671" fill="#fff" opacity=".5" /><path fill="#c3f1ff" d="M7.309 9.725s1.278-6.398 7.253-4.947a4.58 4.58 0 0 0-5.511.042 4.56 4.56 0 0 0-1.742 4.905" /><path fill="url(#p9XyAJD6f__d)" d="M11.847 2.729a5.947 5.947 0 1 0 0 11.894 5.947 5.947 0 0 0 0-11.894m-.012 10.512a4.67 4.67 0 1 1 0-9.341 4.67 4.67 0 0 1 0 9.341" /><style>.msportalfx-svg-c01{fill:#fff}.msportalfx-svg-c02{fill:#e5e5e5}.msportalfx-svg-c03{fill:#a0a1a2}.msportalfx-svg-c04{fill:#7a7a7a}.msportalfx-svg-c05{fill:#3e3e3e}.msportalfx-svg-c06{fill:#1e1e1e}.msportalfx-svg-c07{fill:#0f0f0f}.msportalfx-svg-c08{fill:#ba141a}.msportalfx-svg-c09{fill:#dd5900}.msportalfx-svg-c10{fill:#ff8c00}.msportalfx-svg-c11{fill:#fcd116}.msportalfx-svg-c12{fill:#fee087}.msportalfx-svg-c13{fill:#b8d432}.msportalfx-svg-c14,.msportalfx-svg-c32{fill:#57a300}.msportalfx-svg-c15{fill:#59b4d9}.msportalfx-svg-c16{fill:#3999c6}.msportalfx-svg-c17{fill:#804998}.msportalfx-svg-c18{fill:#ec008c}.msportalfx-svg-c19{fill:#0072c6}.msportalfx-svg-c20{fill:#68217a}.msportalfx-svg-c21{fill:#00188f}.msportalfx-svg-c22{fill:#e81123}.fxs-mode-light .msportalfx-svg-c22{fill:#a4262c}.msportalfx-svg-c23{fill:#cae3f3}.msportalfx-svg-c24{fill:#59aed3}.msportalfx-svg-c25{fill:#4c3b12}.msportalfx-svg-c26{fill:#be9555}.msportalfx-svg-c27{fill:#4f4d52}.msportalfx-svg-c28{fill:#ef6f59}.msportalfx-svg-c29{fill:#f7cb64}.msportalfx-svg-c30{fill:#fdd8db}.msportalfx-svg-c31{fill:#f6ffec}.msportalfx-svg-c33{fill:#8a2da5}.msportalfx-svg-c34{fill:#e00b1c}.msportalfx-svg-c35{fill:#015cda}.msportalfx-svg-c36{fill:#5db300}.msportalfx-svg-c97{fill:#ffb900}.msportalfx-svg-c98{fill:#00a4ef}.msportalfx-svg-c99{fill:#f25022}.msportalfx-inverted-theme .msportalfx-svg-c05,.fxs-theme-dark .msportalfx-svg-c05{fill:#777}.msportalfx-inverted-theme .msportalfx-svg-c07,.fxs-theme-dark .msportalfx-svg-c07{fill:#f2f2f2}.msportalfx-svg-palette-white{fill:#fff}.msportalfx-svg-palette-blue{fill:#015cda}.msportalfx-svg-palette-black{fill:#1e1e1e}.msportalfx-svg-palette-green{fill:#57a300}.msportalfx-svg-palette-gray{fill:#a0a1a2}.msportalfx-svg-palette-inherit{fill:inherit}.msportalfx-svg-badge{position:absolute;left:0;bottom:0;min-height:10px;min-width:10px}.fxc-menu-icon&gt;.msportalfx-svg-badge{left:-2px;bottom:-2px;min-height:8px;min-width:8px}.msportalfx-svg-disabled{filter:grayscale(100%)}.msportalfx-svg-loading-square{animation:ProgressFlagAnimation 1.45s infinite ease-in-out;transform-origin:50%}.msportalfx-svg-loading-square:nth-child(1){animation-delay:0s}.msportalfx-svg-loading-square:nth-child(2){animation-delay:.2s}.msportalfx-svg-loading-square:nth-child(3){animation-delay:.4s}@keyframes ProgressFlagAnimation{0%{transform:scale(1);opacity:.3}36.1%{transform:scale(1.06);opacity:1}50%{transform:scale(1.06);opacity:1}86.1%{transform:scale(1);opacity:.3}}.msportalfx-svg-flip-horizontal&gt;svg,svg.msportalfx-svg-flip-horizontal{transform:scaleX(-1)}.msportalfx-svg-fabric-rotate360{animation:ImageRotation 1.3s cubic-bezier(.53,.21,.29,.67) infinite}@keyframes ImageRotation{0%{transform:rotate(-45deg)}100%{transform:rotate(315deg)}}.fxs-svg-number .msportalfx-font-bold{font-size:10px;fill:#0065ad}.fxs-svg-number .fxs-svg-circle{stroke-width:0%;fill:#0078d4}.fxs-svg-number .fxs-svg-text{fill:#fff;font-size:10px}.fxs-svg-number.msportalfx-svg-disabled{filter:grayscale(0%)}.fxs-svg-number.msportalfx-svg-disabled .fxs-svg-circle{fill:#fff;stroke-width:1px;stroke:#949494}.fxs-svg-number.msportalfx-svg-disabled .fxs-svg-text{fill:#949494}.fxs-theme-dark .fxs-svg-number .fxs-svg-text{fill:#0f0f0f}.fxs-theme-dark .fxs-svg-number .fxs-svg-circle{stroke-width:0%;fill:#0078d4}.fxs-theme-dark .fxs-svg-number.msportalfx-svg-disabled .fxs-svg-circle{fill:#0f0f0f;stroke-width:1px;stroke:#949494}.fxs-theme-dark .fxs-svg-number.msportalfx-svg-disabled .fxs-svg-text{fill:#949494}</style></svg>