<svg viewBox="0 0 250 250" class="msportalfx-svg-placeholder" xmlns="http://www.w3.org/2000/svg"><title>Elastic Cloud Resource</title><desc>Create an Elastic resource using Azure Marketplace to help you manage an Elasticsearch cluster and other Elastic products like Kibana or APM Instances, in one place.</desc><path fill="#FFF" d="M255.96 134.393c0-21.521-13.373-40.117-33.223-47.43a75 75 0 0 0 1.253-13.791c0-39.909-32.386-72.295-72.295-72.295-23.193 0-44.923 11.074-58.505 30.088-6.686-5.224-14.835-7.94-23.402-7.94-21.104 0-38.446 17.133-38.446 38.446 0 4.597.836 9.194 2.298 13.373C13.582 81.739 0 100.962 0 122.274c0 21.522 13.373 40.327 33.431 47.64q-1.253 6.582-1.253 13.79c0 39.7 32.386 72.087 72.086 72.087 23.402 0 44.924-11.283 58.505-30.088 6.686 5.223 15.044 8.149 23.611 8.149 21.104 0 38.446-17.134 38.446-38.446 0-4.597-.836-9.194-2.298-13.373 19.64-7.104 33.431-26.327 33.431-47.64" /><path fill="#F4BD19" d="m100.085 110.364 57.043 26.119 57.669-50.565a64.3 64.3 0 0 0 1.253-12.746c0-35.52-28.834-64.355-64.355-64.355-21.313 0-41.162 10.447-53.072 27.998l-9.612 49.73z" /><path fill="#3CBEB1" d="M40.953 170.75c-.835 4.179-1.253 8.567-1.253 12.955 0 35.52 29.043 64.564 64.564 64.564 21.522 0 41.372-10.656 53.49-28.208l9.403-49.729-12.746-24.238-57.251-26.118z" /><path fill="#E9478C" d="m40.536 71.918 39.073 9.194 8.775-44.506c-5.432-4.179-11.91-6.268-18.805-6.268-16.925 0-30.924 13.79-30.924 30.924 0 3.552.627 7.313 1.88 10.656" /><path fill="#2C458F" d="M37.192 81.32c-17.551 5.642-29.67 22.567-29.67 40.954 0 17.97 11.074 34.059 27.79 40.327l54.953-49.73-10.03-21.52z" /><path fill="#95C63D" d="M167.784 219.852c5.432 4.18 11.91 6.478 18.596 6.478 16.925 0 30.924-13.79 30.924-30.924q0-5.642-1.88-10.657l-39.073-9.193z" /><path fill="#176655" d="m175.724 165.317 43.043 10.03c17.551-5.85 29.67-22.566 29.67-40.954 0-17.97-11.074-33.849-27.79-40.326l-56.415 49.311z" /><style>.msportalfx-svg-c01{fill:#fff}.msportalfx-svg-c02{fill:#e5e5e5}.msportalfx-svg-c03{fill:#a0a1a2}.msportalfx-svg-c04{fill:#7a7a7a}.msportalfx-svg-c05{fill:#3e3e3e}.msportalfx-svg-c06{fill:#1e1e1e}.msportalfx-svg-c07{fill:#0f0f0f}.msportalfx-svg-c08{fill:#ba141a}.msportalfx-svg-c09{fill:#dd5900}.msportalfx-svg-c10{fill:#ff8c00}.msportalfx-svg-c11{fill:#fcd116}.msportalfx-svg-c12{fill:#fee087}.msportalfx-svg-c13{fill:#b8d432}.msportalfx-svg-c14,.msportalfx-svg-c32{fill:#57a300}.msportalfx-svg-c15{fill:#59b4d9}.msportalfx-svg-c16{fill:#3999c6}.msportalfx-svg-c17{fill:#804998}.msportalfx-svg-c18{fill:#ec008c}.msportalfx-svg-c19{fill:#0072c6}.msportalfx-svg-c20{fill:#68217a}.msportalfx-svg-c21{fill:#00188f}.msportalfx-svg-c22{fill:#e81123}.fxs-mode-light .msportalfx-svg-c22{fill:#a4262c}.msportalfx-svg-c23{fill:#cae3f3}.msportalfx-svg-c24{fill:#59aed3}.msportalfx-svg-c25{fill:#4c3b12}.msportalfx-svg-c26{fill:#be9555}.msportalfx-svg-c27{fill:#4f4d52}.msportalfx-svg-c28{fill:#ef6f59}.msportalfx-svg-c29{fill:#f7cb64}.msportalfx-svg-c30{fill:#fdd8db}.msportalfx-svg-c31{fill:#f6ffec}.msportalfx-svg-c33{fill:#8a2da5}.msportalfx-svg-c34{fill:#e00b1c}.msportalfx-svg-c35{fill:#015cda}.msportalfx-svg-c36{fill:#5db300}.msportalfx-svg-c97{fill:#ffb900}.msportalfx-svg-c98{fill:#00a4ef}.msportalfx-svg-c99{fill:#f25022}.msportalfx-inverted-theme .msportalfx-svg-c05,.fxs-theme-dark .msportalfx-svg-c05{fill:#777}.msportalfx-inverted-theme .msportalfx-svg-c07,.fxs-theme-dark .msportalfx-svg-c07{fill:#f2f2f2}.msportalfx-svg-palette-white{fill:#fff}.msportalfx-svg-palette-blue{fill:#015cda}.msportalfx-svg-palette-black{fill:#1e1e1e}.msportalfx-svg-palette-green{fill:#57a300}.msportalfx-svg-palette-gray{fill:#a0a1a2}.msportalfx-svg-palette-inherit{fill:inherit}.msportalfx-svg-badge{position:absolute;left:0;bottom:0;min-height:10px;min-width:10px}.fxc-menu-icon&gt;.msportalfx-svg-badge{left:-2px;bottom:-2px;min-height:8px;min-width:8px}.msportalfx-svg-disabled{filter:grayscale(100%)}.msportalfx-svg-loading-square{animation:ProgressFlagAnimation 1.45s infinite ease-in-out;transform-origin:50%}.msportalfx-svg-loading-square:nth-child(1){animation-delay:0s}.msportalfx-svg-loading-square:nth-child(2){animation-delay:.2s}.msportalfx-svg-loading-square:nth-child(3){animation-delay:.4s}@keyframes ProgressFlagAnimation{0%{transform:scale(1);opacity:.3}36.1%{transform:scale(1.06);opacity:1}50%{transform:scale(1.06);opacity:1}86.1%{transform:scale(1);opacity:.3}}.msportalfx-svg-flip-horizontal&gt;svg,svg.msportalfx-svg-flip-horizontal{transform:scaleX(-1)}.msportalfx-svg-fabric-rotate360{animation:ImageRotation 1.3s cubic-bezier(.53,.21,.29,.67) infinite}@keyframes ImageRotation{0%{transform:rotate(-45deg)}100%{transform:rotate(315deg)}}.fxs-svg-number .msportalfx-font-bold{font-size:10px;fill:#0065ad}.fxs-svg-number .fxs-svg-circle{stroke-width:0%;fill:#0078d4}.fxs-svg-number .fxs-svg-text{fill:#fff;font-size:10px}.fxs-svg-number.msportalfx-svg-disabled{filter:grayscale(0%)}.fxs-svg-number.msportalfx-svg-disabled .fxs-svg-circle{fill:#fff;stroke-width:1px;stroke:#949494}.fxs-svg-number.msportalfx-svg-disabled .fxs-svg-text{fill:#949494}.fxs-theme-dark .fxs-svg-number .fxs-svg-text{fill:#0f0f0f}.fxs-theme-dark .fxs-svg-number .fxs-svg-circle{stroke-width:0%;fill:#0078d4}.fxs-theme-dark .fxs-svg-number.msportalfx-svg-disabled .fxs-svg-circle{fill:#0f0f0f;stroke-width:1px;stroke:#949494}.fxs-theme-dark .fxs-svg-number.msportalfx-svg-disabled .fxs-svg-text{fill:#949494}</style></svg>