<svg fill="none" viewBox="0 0 28 28" class="msportalfx-svg-placeholder" xmlns="http://www.w3.org/2000/svg"><title>Azure Lab Services</title><desc>Easily set up and provide on-demand access to preconfigured virtual machines. Simply define your needs and the service will roll the lab out to your audience. Users access all their lab VMs from a single place.</desc><path fill="url(#pW8I48N1Y__a)" d="M27.222 14.125a5.94 5.94 0 0 0-5.164-5.71 7.48 7.48 0 0 0-7.7-7.17 7.78 7.78 0 0 0-7.39 4.977 7.06 7.06 0 0 0-6.221 6.83 7.187 7.187 0 0 0 7.45 6.906q.328.023.654 0h12.056a1 1 0 0 0 .31 0 6.005 6.005 0 0 0 6.005-5.833" /><path fill="url(#pW8I48N1Y__b)" d="M23.038 26.755H8.042c-.482 0-.762-.762-.498-1.166l5.165-7.53a.53.53 0 0 0 .109-.341V12.74a.31.31 0 0 0-.296-.296h-.28a.59.59 0 0 1-.591-.59v-.265a.59.59 0 0 1 .591-.591h6.58a.59.59 0 0 1 .591.59v.265a.59.59 0 0 1-.59.591h-.28a.296.296 0 0 0-.296.296v4.993a.56.56 0 0 0 .108.342l5.165 7.514c.264.389-.016 1.166-.482 1.166" /><path fill="#fff" d="m9.769 24.733 3.92-5.724c.183-.232.291-.514.31-.809v-2.302a.45.45 0 0 1 .452-.451h2.24a.45.45 0 0 1 .451.45v2.459c0 .194.06.384.171.544l4.014 5.833a.36.36 0 0 1-.28.545h-10.89a.342.342 0 0 1-.388-.545" /><defs><linearGradient id="pW8I48N1Y__a" x1="14" x2="14" y1="25.496" y2="-3.018" gradientUnits="userSpaceOnUse"><stop stop-color="#0078D4" /><stop offset=".16" stop-color="#1380DA" /><stop offset=".53" stop-color="#3C91E5" /><stop offset=".82" stop-color="#559CEC" /><stop offset="1" stop-color="#5EA0EF" /></linearGradient><linearGradient id="pW8I48N1Y__b" x1="15.369" x2="15.54" y1="11.06" y2="26.864" gradientUnits="userSpaceOnUse"><stop stop-color="#32D4F5" /><stop offset=".32" stop-color="#31D1F3" /><stop offset=".53" stop-color="#2EC9EB" /><stop offset=".7" stop-color="#29BADE" /><stop offset=".86" stop-color="#22A5CB" /><stop offset="1" stop-color="#198AB3" /></linearGradient></defs><style>.msportalfx-svg-c01{fill:#fff}.msportalfx-svg-c02{fill:#e5e5e5}.msportalfx-svg-c03{fill:#a0a1a2}.msportalfx-svg-c04{fill:#7a7a7a}.msportalfx-svg-c05{fill:#3e3e3e}.msportalfx-svg-c06{fill:#1e1e1e}.msportalfx-svg-c07{fill:#0f0f0f}.msportalfx-svg-c08{fill:#ba141a}.msportalfx-svg-c09{fill:#dd5900}.msportalfx-svg-c10{fill:#ff8c00}.msportalfx-svg-c11{fill:#fcd116}.msportalfx-svg-c12{fill:#fee087}.msportalfx-svg-c13{fill:#b8d432}.msportalfx-svg-c14,.msportalfx-svg-c32{fill:#57a300}.msportalfx-svg-c15{fill:#59b4d9}.msportalfx-svg-c16{fill:#3999c6}.msportalfx-svg-c17{fill:#804998}.msportalfx-svg-c18{fill:#ec008c}.msportalfx-svg-c19{fill:#0072c6}.msportalfx-svg-c20{fill:#68217a}.msportalfx-svg-c21{fill:#00188f}.msportalfx-svg-c22{fill:#e81123}.fxs-mode-light .msportalfx-svg-c22{fill:#a4262c}.msportalfx-svg-c23{fill:#cae3f3}.msportalfx-svg-c24{fill:#59aed3}.msportalfx-svg-c25{fill:#4c3b12}.msportalfx-svg-c26{fill:#be9555}.msportalfx-svg-c27{fill:#4f4d52}.msportalfx-svg-c28{fill:#ef6f59}.msportalfx-svg-c29{fill:#f7cb64}.msportalfx-svg-c30{fill:#fdd8db}.msportalfx-svg-c31{fill:#f6ffec}.msportalfx-svg-c33{fill:#8a2da5}.msportalfx-svg-c34{fill:#e00b1c}.msportalfx-svg-c35{fill:#015cda}.msportalfx-svg-c36{fill:#5db300}.msportalfx-svg-c97{fill:#ffb900}.msportalfx-svg-c98{fill:#00a4ef}.msportalfx-svg-c99{fill:#f25022}.msportalfx-inverted-theme .msportalfx-svg-c05,.fxs-theme-dark .msportalfx-svg-c05{fill:#777}.msportalfx-inverted-theme .msportalfx-svg-c07,.fxs-theme-dark .msportalfx-svg-c07{fill:#f2f2f2}.msportalfx-svg-palette-white{fill:#fff}.msportalfx-svg-palette-blue{fill:#015cda}.msportalfx-svg-palette-black{fill:#1e1e1e}.msportalfx-svg-palette-green{fill:#57a300}.msportalfx-svg-palette-gray{fill:#a0a1a2}.msportalfx-svg-palette-inherit{fill:inherit}.msportalfx-svg-badge{position:absolute;left:0;bottom:0;min-height:10px;min-width:10px}.fxc-menu-icon&gt;.msportalfx-svg-badge{left:-2px;bottom:-2px;min-height:8px;min-width:8px}.msportalfx-svg-disabled{filter:grayscale(100%)}.msportalfx-svg-loading-square{animation:ProgressFlagAnimation 1.45s infinite ease-in-out;transform-origin:50%}.msportalfx-svg-loading-square:nth-child(1){animation-delay:0s}.msportalfx-svg-loading-square:nth-child(2){animation-delay:.2s}.msportalfx-svg-loading-square:nth-child(3){animation-delay:.4s}@keyframes ProgressFlagAnimation{0%{transform:scale(1);opacity:.3}36.1%{transform:scale(1.06);opacity:1}50%{transform:scale(1.06);opacity:1}86.1%{transform:scale(1);opacity:.3}}.msportalfx-svg-flip-horizontal&gt;svg,svg.msportalfx-svg-flip-horizontal{transform:scaleX(-1)}.msportalfx-svg-fabric-rotate360{animation:ImageRotation 1.3s cubic-bezier(.53,.21,.29,.67) infinite}@keyframes ImageRotation{0%{transform:rotate(-45deg)}100%{transform:rotate(315deg)}}.fxs-svg-number .msportalfx-font-bold{font-size:10px;fill:#0065ad}.fxs-svg-number .fxs-svg-circle{stroke-width:0%;fill:#0078d4}.fxs-svg-number .fxs-svg-text{fill:#fff;font-size:10px}.fxs-svg-number.msportalfx-svg-disabled{filter:grayscale(0%)}.fxs-svg-number.msportalfx-svg-disabled .fxs-svg-circle{fill:#fff;stroke-width:1px;stroke:#949494}.fxs-svg-number.msportalfx-svg-disabled .fxs-svg-text{fill:#949494}.fxs-theme-dark .fxs-svg-number .fxs-svg-text{fill:#0f0f0f}.fxs-theme-dark .fxs-svg-number .fxs-svg-circle{stroke-width:0%;fill:#0078d4}.fxs-theme-dark .fxs-svg-number.msportalfx-svg-disabled .fxs-svg-circle{fill:#0f0f0f;stroke-width:1px;stroke:#949494}.fxs-theme-dark .fxs-svg-number.msportalfx-svg-disabled .fxs-svg-text{fill:#949494}</style></svg>