<svg viewBox="0 0 95.02 126" class="msportalfx-svg-placeholder" xmlns="http://www.w3.org/2000/svg"><title>Azure DocumentDB (with MongoDB compatibility)</title><desc></desc><defs><linearGradient id="piMnzE1Fl__a" x1="1186" x2="1281.02" y1="-1067.36" y2="-1067.36" gradientTransform="matrix(1 0 0 -1 -1186 -995.77)" gradientUnits="userSpaceOnUse"><stop offset="0" stop-color="#005da1" /><stop offset=".07" stop-color="#0562aa" /><stop offset=".36" stop-color="#2772b9" /><stop offset=".52" stop-color="#3077bb" /><stop offset=".64" stop-color="#2c74b9" /><stop offset=".82" stop-color="#186cb5" /><stop offset="1" stop-color="#005da1" /></linearGradient></defs><path fill="url(#piMnzE1Fl__a)" d="M47.51 34.39C21.28 34.39 0 26.98 0 17.19v91.61c0 9.41 20.89 17.05 46.84 17.19h.67c26.23 0 47.51-7.41 47.51-17.19V17.19c0 9.56-21.28 17.19-47.51 17.19Z" /><path fill="#e2e2e2" d="M95.02 17.19c0 9.56-21.28 17.19-47.51 17.19S0 26.98 0 17.19 21.28 0 47.51 0s47.51 7.41 47.51 17.19" /><path fill="#8ec8e7" d="M83.98 15.79c0 6.08-16.4 10.97-36.47 10.97s-36.47-4.9-36.47-10.97 16.4-10.9 36.47-10.9 36.47 4.89 36.47 10.89" /><path fill="#1e89b2" d="M76.35 22.46a88 88 0 0 0-28.83-3.93 85.5 85.5 0 0 0-28.46 4.11c6.7 2.51 16.97 4.11 28.46 4.11 5.83 0 11.34-.41 16.23-1.15 4.27-.72 8.48-1.76 12.6-3.15Z" /><path fill="#f3f3f3" d="M37.29 101.53c-4.05 0-6.99-.74-8.82-2.23-1.84-1.48-2.76-4.13-2.76-7.93v-6.68c0-3.41-1.41-5.12-4.23-5.12v-5.12c2.82 0 4.23-1.77 4.23-5.32v-6.21c0-3.82.91-6.51 2.73-8.06s4.77-2.32 8.85-2.32v5.21c-2.97 0-4.45 1.61-4.45 4.84v5.93c0 4.45-1.43 7.27-4.29 8.43v.11q4.29 1.725 4.29 8.55v5.71c0 1.82.35 3.11 1.04 3.87.7.76 1.83 1.14 3.41 1.14v5.21Zm36.25-21.96c-2.84 0-4.26 1.74-4.26 5.21v6.43c0 3.92-.9 6.62-2.71 8.1s-4.75 2.23-8.81 2.23v-5.21c1.56 0 2.69-.38 3.4-1.13s1.06-2.03 1.06-3.83v-5.93c0-4.44 1.42-7.21 4.26-8.32v-.11c-2.84-1.17-4.26-4.07-4.26-8.71v-5.71c0-3.23-1.48-4.84-4.45-4.84v-5.21c4.05 0 6.98.78 8.8 2.32q2.73 2.325 2.73 7.95v6.37c0 3.51 1.42 5.26 4.26 5.26v5.12Z" /><style>.msportalfx-svg-c01{fill:#fff}.msportalfx-svg-c02{fill:#e5e5e5}.msportalfx-svg-c03{fill:#a0a1a2}.msportalfx-svg-c04{fill:#7a7a7a}.msportalfx-svg-c05{fill:#3e3e3e}.msportalfx-svg-c06{fill:#1e1e1e}.msportalfx-svg-c07{fill:#0f0f0f}.msportalfx-svg-c08{fill:#ba141a}.msportalfx-svg-c09{fill:#dd5900}.msportalfx-svg-c10{fill:#ff8c00}.msportalfx-svg-c11{fill:#fcd116}.msportalfx-svg-c12{fill:#fee087}.msportalfx-svg-c13{fill:#b8d432}.msportalfx-svg-c14,.msportalfx-svg-c32{fill:#57a300}.msportalfx-svg-c15{fill:#59b4d9}.msportalfx-svg-c16{fill:#3999c6}.msportalfx-svg-c17{fill:#804998}.msportalfx-svg-c18{fill:#ec008c}.msportalfx-svg-c19{fill:#0072c6}.msportalfx-svg-c20{fill:#68217a}.msportalfx-svg-c21{fill:#00188f}.msportalfx-svg-c22{fill:#e81123}.fxs-mode-light .msportalfx-svg-c22{fill:#a4262c}.msportalfx-svg-c23{fill:#cae3f3}.msportalfx-svg-c24{fill:#59aed3}.msportalfx-svg-c25{fill:#4c3b12}.msportalfx-svg-c26{fill:#be9555}.msportalfx-svg-c27{fill:#4f4d52}.msportalfx-svg-c28{fill:#ef6f59}.msportalfx-svg-c29{fill:#f7cb64}.msportalfx-svg-c30{fill:#fdd8db}.msportalfx-svg-c31{fill:#f6ffec}.msportalfx-svg-c33{fill:#8a2da5}.msportalfx-svg-c34{fill:#e00b1c}.msportalfx-svg-c35{fill:#015cda}.msportalfx-svg-c36{fill:#5db300}.msportalfx-svg-c97{fill:#ffb900}.msportalfx-svg-c98{fill:#00a4ef}.msportalfx-svg-c99{fill:#f25022}.msportalfx-inverted-theme .msportalfx-svg-c05,.fxs-theme-dark .msportalfx-svg-c05{fill:#777}.msportalfx-inverted-theme .msportalfx-svg-c07,.fxs-theme-dark .msportalfx-svg-c07{fill:#f2f2f2}.msportalfx-svg-palette-white{fill:#fff}.msportalfx-svg-palette-blue{fill:#015cda}.msportalfx-svg-palette-black{fill:#1e1e1e}.msportalfx-svg-palette-green{fill:#57a300}.msportalfx-svg-palette-gray{fill:#a0a1a2}.msportalfx-svg-palette-inherit{fill:inherit}.msportalfx-svg-badge{position:absolute;left:0;bottom:0;min-height:10px;min-width:10px}.fxc-menu-icon&gt;.msportalfx-svg-badge{left:-2px;bottom:-2px;min-height:8px;min-width:8px}.msportalfx-svg-disabled{filter:grayscale(100%)}.msportalfx-svg-loading-square{animation:ProgressFlagAnimation 1.45s infinite ease-in-out;transform-origin:50%}.msportalfx-svg-loading-square:nth-child(1){animation-delay:0s}.msportalfx-svg-loading-square:nth-child(2){animation-delay:.2s}.msportalfx-svg-loading-square:nth-child(3){animation-delay:.4s}@keyframes ProgressFlagAnimation{0%{transform:scale(1);opacity:.3}36.1%{transform:scale(1.06);opacity:1}50%{transform:scale(1.06);opacity:1}86.1%{transform:scale(1);opacity:.3}}.msportalfx-svg-flip-horizontal&gt;svg,svg.msportalfx-svg-flip-horizontal{transform:scaleX(-1)}.msportalfx-svg-fabric-rotate360{animation:ImageRotation 1.3s cubic-bezier(.53,.21,.29,.67) infinite}@keyframes ImageRotation{0%{transform:rotate(-45deg)}100%{transform:rotate(315deg)}}.fxs-svg-number .msportalfx-font-bold{font-size:10px;fill:#0065ad}.fxs-svg-number .fxs-svg-circle{stroke-width:0%;fill:#0078d4}.fxs-svg-number .fxs-svg-text{fill:#fff;font-size:10px}.fxs-svg-number.msportalfx-svg-disabled{filter:grayscale(0%)}.fxs-svg-number.msportalfx-svg-disabled .fxs-svg-circle{fill:#fff;stroke-width:1px;stroke:#949494}.fxs-svg-number.msportalfx-svg-disabled .fxs-svg-text{fill:#949494}.fxs-theme-dark .fxs-svg-number .fxs-svg-text{fill:#0f0f0f}.fxs-theme-dark .fxs-svg-number .fxs-svg-circle{stroke-width:0%;fill:#0078d4}.fxs-theme-dark .fxs-svg-number.msportalfx-svg-disabled .fxs-svg-circle{fill:#0f0f0f;stroke-width:1px;stroke:#949494}.fxs-theme-dark .fxs-svg-number.msportalfx-svg-disabled .fxs-svg-text{fill:#949494}</style></svg>