<svg xml:space="preserve" viewBox="0 0 23 12" class="msportalfx-svg-placeholder" xmlns="http://www.w3.org/2000/svg"><title>Pipeline</title><desc></desc><path fill="#0072C6" d="M15.097 6.347c0-3.122.916-5.653 2.048-5.653h3.347c-1.131 0-1.121 11.306 0 11.306h-3.347c-1.121 0-2.029-2.49-2.045-5.576h-.003z" /><path fill="#59B4D9" d="M17.842 6.418h.002v-.064c0-2.545-.736-4.606-1.653-4.671H4.967v9.325h11.289c.877-.155 1.574-2.135 1.586-4.59" /><path fill="#FFF" d="M16.191 1.682H4.967v2.342h12.645c-.287-1.363-.811-2.299-1.421-2.342" opacity=".2" /><path fill="#3E3E3E" d="M1.461 1.211c.807 0 1.461 2.277 1.461 5.087s-.654 5.087-1.461 5.087S0 9.107 0 6.298c0-2.81.654-5.087 1.461-5.087" /><path fill="#7A7A7A" d="M2.354 2.277c-.247-.666-.557-1.066-.893-1.066C.654 1.211 0 3.488 0 6.298s.654 5.087 1.461 5.087c.336 0 .645-.4.892-1.066-.345-.93-.568-2.383-.568-4.021.001-1.638.223-3.091.569-4.021" /><path fill="#3999C6" d="M22.325 6.347c0-3.122-.916-5.653-2.048-5.653H16.93c1.131 0 2.048 2.531 2.048 5.653v.077h-.003C18.96 9.51 18.052 12 16.931 12h3.347c1.121 0 2.029-2.49 2.045-5.576h.003v-.07z" /><path fill="#FFF" d="M20.277.694H16.93c1.023 0 1.863 2.077 2.016 4.782h3.347C22.14 2.77 21.3.694 20.277.694" opacity=".2" /><path fill="#3999C6" d="M7.134 6.347c0-3.122-.916-5.653-2.048-5.653H1.739c1.131 0 2.048 2.531 2.048 5.653v.077h-.003C3.769 9.51 2.86 12 1.74 12h3.347c1.121 0 2.029-2.49 2.045-5.576h.003v-.07z" /><path fill="#FFF" d="M5.086.694H1.739c1.023 0 1.863 2.077 2.016 4.782h3.347C6.949 2.77 6.109.694 5.086.694" opacity=".2" /><style>.msportalfx-svg-c01{fill:#fff}.msportalfx-svg-c02{fill:#e5e5e5}.msportalfx-svg-c03{fill:#a0a1a2}.msportalfx-svg-c04{fill:#7a7a7a}.msportalfx-svg-c05{fill:#3e3e3e}.msportalfx-svg-c06{fill:#1e1e1e}.msportalfx-svg-c07{fill:#0f0f0f}.msportalfx-svg-c08{fill:#ba141a}.msportalfx-svg-c09{fill:#dd5900}.msportalfx-svg-c10{fill:#ff8c00}.msportalfx-svg-c11{fill:#fcd116}.msportalfx-svg-c12{fill:#fee087}.msportalfx-svg-c13{fill:#b8d432}.msportalfx-svg-c14,.msportalfx-svg-c32{fill:#57a300}.msportalfx-svg-c15{fill:#59b4d9}.msportalfx-svg-c16{fill:#3999c6}.msportalfx-svg-c17{fill:#804998}.msportalfx-svg-c18{fill:#ec008c}.msportalfx-svg-c19{fill:#0072c6}.msportalfx-svg-c20{fill:#68217a}.msportalfx-svg-c21{fill:#00188f}.msportalfx-svg-c22{fill:#e81123}.fxs-mode-light .msportalfx-svg-c22{fill:#a4262c}.msportalfx-svg-c23{fill:#cae3f3}.msportalfx-svg-c24{fill:#59aed3}.msportalfx-svg-c25{fill:#4c3b12}.msportalfx-svg-c26{fill:#be9555}.msportalfx-svg-c27{fill:#4f4d52}.msportalfx-svg-c28{fill:#ef6f59}.msportalfx-svg-c29{fill:#f7cb64}.msportalfx-svg-c30{fill:#fdd8db}.msportalfx-svg-c31{fill:#f6ffec}.msportalfx-svg-c33{fill:#8a2da5}.msportalfx-svg-c34{fill:#e00b1c}.msportalfx-svg-c35{fill:#015cda}.msportalfx-svg-c36{fill:#5db300}.msportalfx-svg-c97{fill:#ffb900}.msportalfx-svg-c98{fill:#00a4ef}.msportalfx-svg-c99{fill:#f25022}.msportalfx-inverted-theme .msportalfx-svg-c05,.fxs-theme-dark .msportalfx-svg-c05{fill:#777}.msportalfx-inverted-theme .msportalfx-svg-c07,.fxs-theme-dark .msportalfx-svg-c07{fill:#f2f2f2}.msportalfx-svg-palette-white{fill:#fff}.msportalfx-svg-palette-blue{fill:#015cda}.msportalfx-svg-palette-black{fill:#1e1e1e}.msportalfx-svg-palette-green{fill:#57a300}.msportalfx-svg-palette-gray{fill:#a0a1a2}.msportalfx-svg-palette-inherit{fill:inherit}.msportalfx-svg-badge{position:absolute;left:0;bottom:0;min-height:10px;min-width:10px}.fxc-menu-icon&gt;.msportalfx-svg-badge{left:-2px;bottom:-2px;min-height:8px;min-width:8px}.msportalfx-svg-disabled{filter:grayscale(100%)}.msportalfx-svg-loading-square{animation:ProgressFlagAnimation 1.45s infinite ease-in-out;transform-origin:50%}.msportalfx-svg-loading-square:nth-child(1){animation-delay:0s}.msportalfx-svg-loading-square:nth-child(2){animation-delay:.2s}.msportalfx-svg-loading-square:nth-child(3){animation-delay:.4s}@keyframes ProgressFlagAnimation{0%{transform:scale(1);opacity:.3}36.1%{transform:scale(1.06);opacity:1}50%{transform:scale(1.06);opacity:1}86.1%{transform:scale(1);opacity:.3}}.msportalfx-svg-flip-horizontal&gt;svg,svg.msportalfx-svg-flip-horizontal{transform:scaleX(-1)}.msportalfx-svg-fabric-rotate360{animation:ImageRotation 1.3s cubic-bezier(.53,.21,.29,.67) infinite}@keyframes ImageRotation{0%{transform:rotate(-45deg)}100%{transform:rotate(315deg)}}.fxs-svg-number .msportalfx-font-bold{font-size:10px;fill:#0065ad}.fxs-svg-number .fxs-svg-circle{stroke-width:0%;fill:#0078d4}.fxs-svg-number .fxs-svg-text{fill:#fff;font-size:10px}.fxs-svg-number.msportalfx-svg-disabled{filter:grayscale(0%)}.fxs-svg-number.msportalfx-svg-disabled .fxs-svg-circle{fill:#fff;stroke-width:1px;stroke:#949494}.fxs-svg-number.msportalfx-svg-disabled .fxs-svg-text{fill:#949494}.fxs-theme-dark .fxs-svg-number .fxs-svg-text{fill:#0f0f0f}.fxs-theme-dark .fxs-svg-number .fxs-svg-circle{stroke-width:0%;fill:#0078d4}.fxs-theme-dark .fxs-svg-number.msportalfx-svg-disabled .fxs-svg-circle{fill:#0f0f0f;stroke-width:1px;stroke:#949494}.fxs-theme-dark .fxs-svg-number.msportalfx-svg-disabled .fxs-svg-text{fill:#949494}</style></svg>