<svg fill="none" viewBox="0 0 16 16" class="msportalfx-svg-placeholder" xmlns="http://www.w3.org/2000/svg"><title>IoT Asset</title><desc>An ADR asset is a physical or logical entity that represents a device, machine, system, or process. When you create an asset, it will appear here and can be managed from this table.</desc><path fill="#0F6CBD" d="m11.46 6.282.947-.078a.39.39 0 0 1 .423.36.395.395 0 0 1-.36.425l-1.109.091a.4.4 0 0 1-.287-.092L9.876 5.97a.43.43 0 0 1-.126-.393l.364-1.474-1.013-.86a.393.393 0 0 1 .51-.601l1.013.86 1.396-.595a.42.42 0 0 1 .409.061l1.197 1.018a.4.4 0 0 1 .137.269l.088 1.109a.395.395 0 0 1-.36.424.39.39 0 0 1-.424-.36l-.075-.947-.889-.755-1.214.519-.317 1.282z" /><path fill="url(#p8t4WaE6J__a)" d="m10.457 10.025-.009-.01c-.417-.37-1.88-1.503-2.444-1.503l-2.259 1.847.88 1.235c-.01.056-.01.111-.01.167v2.918c0 .26.204.464.463.464h3.703a.46.46 0 0 0 .463-.464v-2.918c0-.678-.287-1.309-.787-1.736" /><path fill="url(#p8t4WaE6J__b)" d="m9.273 3.824-2.6 2.76a.46.46 0 0 1-.59.068L4.7 5.742a.935.935 0 0 0-1.187.147.463.463 0 0 1-.672-.639L6.903.924l.001-.001a.463.463 0 0 1 .654-.018c.476.45-.314.754-.22 1.42a.93.93 0 0 0 1.047.79l.486-.07a.465.465 0 0 1 .402.779" /><path fill="url(#p8t4WaE6J__c)" d="M11.727 14H6.273C5.019 14 4 14.748 4 15.667c0 .184.203.333.455.333h9.09c.252 0 .455-.15.455-.333 0-.92-1.02-1.667-2.273-1.667" /><path fill="url(#p8t4WaE6J__d)" d="M10.484 10.047c-.536-.258-.903-.368-1.467-.368-1.148 0-2.22.874-2.33 2.218L2.636 8.254c-.904-.86-.81-2.232.065-2.936a1.86 1.86 0 0 1 2.405.048z" /><path fill="url(#p8t4WaE6J__e)" d="M8.398 4.482 7.28 3.49A1.997 1.997 0 0 1 7.117.674 1.993 1.993 0 0 1 9.933.503l1.117.992a.5.5 0 0 1 .041.704l-1.99 2.24a.5.5 0 0 1-.703.043" /><defs><linearGradient id="p8t4WaE6J__a" x1="9" x2="9.003" y1="9.5" y2="24" gradientUnits="userSpaceOnUse"><stop stop-color="#0F6CBD" /><stop offset=".235" stop-color="#0F6CBD" /><stop offset=".53" stop-color="#277FCC" /><stop offset=".8" stop-color="#0F6CBD" /><stop offset="1" stop-color="#0F6CBD" /></linearGradient><linearGradient id="p8t4WaE6J__b" x1="7.838" x2="3.862" y1="2.14" y2="5.974" gradientUnits="userSpaceOnUse"><stop stop-color="#0F6CBD" /><stop offset=".25" stop-color="#0F6CBD" /><stop offset=".49" stop-color="#277FCC" /><stop offset=".725" stop-color="#0F6CBD" /><stop offset="1" stop-color="#0F6CBD" /></linearGradient><linearGradient id="p8t4WaE6J__c" x1="9" x2="9" y1="14" y2="16.391" gradientUnits="userSpaceOnUse"><stop stop-color="#0F6CBD" /><stop offset="1" stop-color="#50E6FF" /></linearGradient><linearGradient id="p8t4WaE6J__d" x1="6.276" x2="6.276" y1="4.23" y2="11.897" gradientUnits="userSpaceOnUse"><stop stop-color="#50E6FF" /><stop offset="1" stop-color="#0F6CBD" /></linearGradient><linearGradient id="p8t4WaE6J__e" x1="8.915" x2="8.915" y1="-.767" y2="4.608" gradientUnits="userSpaceOnUse"><stop stop-color="#50E6FF" /><stop offset="1" stop-color="#0F6CBD" /></linearGradient></defs><style>.msportalfx-svg-c01{fill:#fff}.msportalfx-svg-c02{fill:#e5e5e5}.msportalfx-svg-c03{fill:#a0a1a2}.msportalfx-svg-c04{fill:#7a7a7a}.msportalfx-svg-c05{fill:#3e3e3e}.msportalfx-svg-c06{fill:#1e1e1e}.msportalfx-svg-c07{fill:#0f0f0f}.msportalfx-svg-c08{fill:#ba141a}.msportalfx-svg-c09{fill:#dd5900}.msportalfx-svg-c10{fill:#ff8c00}.msportalfx-svg-c11{fill:#fcd116}.msportalfx-svg-c12{fill:#fee087}.msportalfx-svg-c13{fill:#b8d432}.msportalfx-svg-c14,.msportalfx-svg-c32{fill:#57a300}.msportalfx-svg-c15{fill:#59b4d9}.msportalfx-svg-c16{fill:#3999c6}.msportalfx-svg-c17{fill:#804998}.msportalfx-svg-c18{fill:#ec008c}.msportalfx-svg-c19{fill:#0072c6}.msportalfx-svg-c20{fill:#68217a}.msportalfx-svg-c21{fill:#00188f}.msportalfx-svg-c22{fill:#e81123}.fxs-mode-light .msportalfx-svg-c22{fill:#a4262c}.msportalfx-svg-c23{fill:#cae3f3}.msportalfx-svg-c24{fill:#59aed3}.msportalfx-svg-c25{fill:#4c3b12}.msportalfx-svg-c26{fill:#be9555}.msportalfx-svg-c27{fill:#4f4d52}.msportalfx-svg-c28{fill:#ef6f59}.msportalfx-svg-c29{fill:#f7cb64}.msportalfx-svg-c30{fill:#fdd8db}.msportalfx-svg-c31{fill:#f6ffec}.msportalfx-svg-c33{fill:#8a2da5}.msportalfx-svg-c34{fill:#e00b1c}.msportalfx-svg-c35{fill:#015cda}.msportalfx-svg-c36{fill:#5db300}.msportalfx-svg-c97{fill:#ffb900}.msportalfx-svg-c98{fill:#00a4ef}.msportalfx-svg-c99{fill:#f25022}.msportalfx-inverted-theme .msportalfx-svg-c05,.fxs-theme-dark .msportalfx-svg-c05{fill:#777}.msportalfx-inverted-theme .msportalfx-svg-c07,.fxs-theme-dark .msportalfx-svg-c07{fill:#f2f2f2}.msportalfx-svg-palette-white{fill:#fff}.msportalfx-svg-palette-blue{fill:#015cda}.msportalfx-svg-palette-black{fill:#1e1e1e}.msportalfx-svg-palette-green{fill:#57a300}.msportalfx-svg-palette-gray{fill:#a0a1a2}.msportalfx-svg-palette-inherit{fill:inherit}.msportalfx-svg-badge{position:absolute;left:0;bottom:0;min-height:10px;min-width:10px}.fxc-menu-icon&gt;.msportalfx-svg-badge{left:-2px;bottom:-2px;min-height:8px;min-width:8px}.msportalfx-svg-disabled{filter:grayscale(100%)}.msportalfx-svg-loading-square{animation:ProgressFlagAnimation 1.45s infinite ease-in-out;transform-origin:50%}.msportalfx-svg-loading-square:nth-child(1){animation-delay:0s}.msportalfx-svg-loading-square:nth-child(2){animation-delay:.2s}.msportalfx-svg-loading-square:nth-child(3){animation-delay:.4s}@keyframes ProgressFlagAnimation{0%{transform:scale(1);opacity:.3}36.1%{transform:scale(1.06);opacity:1}50%{transform:scale(1.06);opacity:1}86.1%{transform:scale(1);opacity:.3}}.msportalfx-svg-flip-horizontal&gt;svg,svg.msportalfx-svg-flip-horizontal{transform:scaleX(-1)}.msportalfx-svg-fabric-rotate360{animation:ImageRotation 1.3s cubic-bezier(.53,.21,.29,.67) infinite}@keyframes ImageRotation{0%{transform:rotate(-45deg)}100%{transform:rotate(315deg)}}.fxs-svg-number .msportalfx-font-bold{font-size:10px;fill:#0065ad}.fxs-svg-number .fxs-svg-circle{stroke-width:0%;fill:#0078d4}.fxs-svg-number .fxs-svg-text{fill:#fff;font-size:10px}.fxs-svg-number.msportalfx-svg-disabled{filter:grayscale(0%)}.fxs-svg-number.msportalfx-svg-disabled .fxs-svg-circle{fill:#fff;stroke-width:1px;stroke:#949494}.fxs-svg-number.msportalfx-svg-disabled .fxs-svg-text{fill:#949494}.fxs-theme-dark .fxs-svg-number .fxs-svg-text{fill:#0f0f0f}.fxs-theme-dark .fxs-svg-number .fxs-svg-circle{stroke-width:0%;fill:#0078d4}.fxs-theme-dark .fxs-svg-number.msportalfx-svg-disabled .fxs-svg-circle{fill:#0f0f0f;stroke-width:1px;stroke:#949494}.fxs-theme-dark .fxs-svg-number.msportalfx-svg-disabled .fxs-svg-text{fill:#949494}</style></svg>