<svg fill="none" viewBox="0 0 20 20" class="msportalfx-svg-placeholder" xmlns="http://www.w3.org/2000/svg"><title>ADR Credential Resource</title><desc>A Credential Resource.</desc><path fill="#2165AF" d="M3 2.941A.94.94 0 0 1 3.941 2h9.565a.94.94 0 0 1 .681.291l1.644 1.722c.167.175.26.408.26.65v12.396a.94.94 0 0 1-.941.94H3.94A.94.94 0 0 1 3 17.06z" /><path fill="url(#pQyBVFV93__a)" d="M3.935 3.818c0-.452.366-.818.818-.818h8.177a.82.82 0 0 1 .598.259l1.407 1.505c.142.151.22.351.22.559V16.18a.82.82 0 0 1-.817.819H4.752a.82.82 0 0 1-.818-.819z" /><path fill="#fff" d="M12.754 12.024a.297.297 0 1 0-.428.411l.214-.205zm.261.7-.214.206.198.207.214-.19zm-.475-.494-.214.205.475.495.214-.205.214-.206-.475-.495zm.475.495.198.221 1.108-.99-.197-.221-.198-.221-1.109.99zm-.261 2.07a.297.297 0 1 0-.428.412L12.54 15zm.261.7-.214.206.198.207.214-.19zm-.475-.494-.214.206.475.494.214-.205.214-.206-.475-.495zm.475.495.198.221 1.108-.99-.197-.22-.198-.222-1.109.99z" /><rect width="5.146" height=".792" x="5.066" y="14.554" fill="#fff" stroke="#fff" stroke-width=".198" rx=".297" /><rect width="6.136" height=".792" x="5.117" y="12.032" fill="#fff" stroke="#fff" stroke-width=".198" rx=".297" /><path fill="#005294" d="M10.639 7.405a1.6 1.6 0 0 1-1.08.427 1.6 1.6 0 0 1-1.081-.427l-.135 2.767a.22.22 0 0 0 .03.128q.035.06.096.088a.21.21 0 0 0 .24-.051l.833-.872.84.879a.205.205 0 0 0 .236.051.2.2 0 0 0 .097-.084.22.22 0 0 0 .033-.126z" /><path fill="#005294" d="M9.545 8.007a2.005 2.005 0 1 0 0-4.01 2.005 2.005 0 0 0 0 4.01" /><path fill="#9CEBFF" d="M9.545 7.478a1.476 1.476 0 1 0 0-2.953 1.476 1.476 0 0 0 0 2.953" /><defs><linearGradient id="pQyBVFV93__a" x1="9.545" x2="9.545" y1="1.286" y2="20.459" gradientUnits="userSpaceOnUse"><stop offset=".1" stop-color="#69A2EF" /><stop offset="1" stop-color="#5AD4F5" /></linearGradient></defs><style>.msportalfx-svg-c01{fill:#fff}.msportalfx-svg-c02{fill:#e5e5e5}.msportalfx-svg-c03{fill:#a0a1a2}.msportalfx-svg-c04{fill:#7a7a7a}.msportalfx-svg-c05{fill:#3e3e3e}.msportalfx-svg-c06{fill:#1e1e1e}.msportalfx-svg-c07{fill:#0f0f0f}.msportalfx-svg-c08{fill:#ba141a}.msportalfx-svg-c09{fill:#dd5900}.msportalfx-svg-c10{fill:#ff8c00}.msportalfx-svg-c11{fill:#fcd116}.msportalfx-svg-c12{fill:#fee087}.msportalfx-svg-c13{fill:#b8d432}.msportalfx-svg-c14,.msportalfx-svg-c32{fill:#57a300}.msportalfx-svg-c15{fill:#59b4d9}.msportalfx-svg-c16{fill:#3999c6}.msportalfx-svg-c17{fill:#804998}.msportalfx-svg-c18{fill:#ec008c}.msportalfx-svg-c19{fill:#0072c6}.msportalfx-svg-c20{fill:#68217a}.msportalfx-svg-c21{fill:#00188f}.msportalfx-svg-c22{fill:#e81123}.fxs-mode-light .msportalfx-svg-c22{fill:#a4262c}.msportalfx-svg-c23{fill:#cae3f3}.msportalfx-svg-c24{fill:#59aed3}.msportalfx-svg-c25{fill:#4c3b12}.msportalfx-svg-c26{fill:#be9555}.msportalfx-svg-c27{fill:#4f4d52}.msportalfx-svg-c28{fill:#ef6f59}.msportalfx-svg-c29{fill:#f7cb64}.msportalfx-svg-c30{fill:#fdd8db}.msportalfx-svg-c31{fill:#f6ffec}.msportalfx-svg-c33{fill:#8a2da5}.msportalfx-svg-c34{fill:#e00b1c}.msportalfx-svg-c35{fill:#015cda}.msportalfx-svg-c36{fill:#5db300}.msportalfx-svg-c97{fill:#ffb900}.msportalfx-svg-c98{fill:#00a4ef}.msportalfx-svg-c99{fill:#f25022}.msportalfx-inverted-theme .msportalfx-svg-c05,.fxs-theme-dark .msportalfx-svg-c05{fill:#777}.msportalfx-inverted-theme .msportalfx-svg-c07,.fxs-theme-dark .msportalfx-svg-c07{fill:#f2f2f2}.msportalfx-svg-palette-white{fill:#fff}.msportalfx-svg-palette-blue{fill:#015cda}.msportalfx-svg-palette-black{fill:#1e1e1e}.msportalfx-svg-palette-green{fill:#57a300}.msportalfx-svg-palette-gray{fill:#a0a1a2}.msportalfx-svg-palette-inherit{fill:inherit}.msportalfx-svg-badge{position:absolute;left:0;bottom:0;min-height:10px;min-width:10px}.fxc-menu-icon&gt;.msportalfx-svg-badge{left:-2px;bottom:-2px;min-height:8px;min-width:8px}.msportalfx-svg-disabled{filter:grayscale(100%)}.msportalfx-svg-loading-square{animation:ProgressFlagAnimation 1.45s infinite ease-in-out;transform-origin:50%}.msportalfx-svg-loading-square:nth-child(1){animation-delay:0s}.msportalfx-svg-loading-square:nth-child(2){animation-delay:.2s}.msportalfx-svg-loading-square:nth-child(3){animation-delay:.4s}@keyframes ProgressFlagAnimation{0%{transform:scale(1);opacity:.3}36.1%{transform:scale(1.06);opacity:1}50%{transform:scale(1.06);opacity:1}86.1%{transform:scale(1);opacity:.3}}.msportalfx-svg-flip-horizontal&gt;svg,svg.msportalfx-svg-flip-horizontal{transform:scaleX(-1)}.msportalfx-svg-fabric-rotate360{animation:ImageRotation 1.3s cubic-bezier(.53,.21,.29,.67) infinite}@keyframes ImageRotation{0%{transform:rotate(-45deg)}100%{transform:rotate(315deg)}}.fxs-svg-number .msportalfx-font-bold{font-size:10px;fill:#0065ad}.fxs-svg-number .fxs-svg-circle{stroke-width:0%;fill:#0078d4}.fxs-svg-number .fxs-svg-text{fill:#fff;font-size:10px}.fxs-svg-number.msportalfx-svg-disabled{filter:grayscale(0%)}.fxs-svg-number.msportalfx-svg-disabled .fxs-svg-circle{fill:#fff;stroke-width:1px;stroke:#949494}.fxs-svg-number.msportalfx-svg-disabled .fxs-svg-text{fill:#949494}.fxs-theme-dark .fxs-svg-number .fxs-svg-text{fill:#0f0f0f}.fxs-theme-dark .fxs-svg-number .fxs-svg-circle{stroke-width:0%;fill:#0078d4}.fxs-theme-dark .fxs-svg-number.msportalfx-svg-disabled .fxs-svg-circle{fill:#0f0f0f;stroke-width:1px;stroke:#949494}.fxs-theme-dark .fxs-svg-number.msportalfx-svg-disabled .fxs-svg-text{fill:#949494}</style></svg>