<svg fill="none" viewBox="0 0 16 16" class="msportalfx-svg-placeholder" xmlns="http://www.w3.org/2000/svg"><title>ADR Namespace</title><desc>An ADR Namespace is a logical container that groups together assets and devices. It allows customers to manage these resources as a single unit within their Azure subscription and provides a managed identity that can be used to access other Azure resources.</desc><path fill="#2CC6EB" d="M9.04 1.5H6.96a.21.21 0 0 0-.21.21v2.08c0 .116.094.21.21.21h2.08a.21.21 0 0 0 .21-.21V1.71a.21.21 0 0 0-.21-.21m3.75 0h-2.08a.21.21 0 0 0-.21.21v2.08c0 .116.094.21.21.21h2.08a.21.21 0 0 0 .21-.21V1.71a.21.21 0 0 0-.21-.21m-7.5 0H3.21a.21.21 0 0 0-.21.21v2.08c0 .116.094.21.21.21h2.08a.21.21 0 0 0 .21-.21V1.71a.21.21 0 0 0-.21-.21" /><path fill="url(#pMJ0K5MHA__a)" d="M2.667 16H0V0h2.667v.255a.67.67 0 0 1-.369.596l-.596.298a.67.67 0 0 0-.369.596v12.51c0 .252.143.483.369.596l.596.298a.67.67 0 0 1 .369.596z" /><path fill="url(#pMJ0K5MHA__b)" d="M13.333 0H16v16h-2.667v-.255c0-.252.143-.483.369-.596l.596-.298a.67.67 0 0 0 .369-.596V1.745a.67.67 0 0 0-.369-.596l-.596-.298a.67.67 0 0 1-.369-.596z" /><path fill="#2165AF" d="M6.562 11.002h.002L9.3 9.03a.4.4 0 0 0 .146-.446.42.42 0 0 0-.388-.284l-.445-.016c-.463-.016-.829-.392-.816-.839.016-.586.766-.727.41-1.186a.43.43 0 0 0-.587-.086c.086-.062-4.194 3.035-4.279 3.098a.397.397 0 0 0-.082.566.43.43 0 0 0 .586.085.87.87 0 0 1 1.08.056l1.097.994a.44.44 0 0 0 .274.11.43.43 0 0 0 .265-.079" /><path fill="#2165AF" d="M13.138 6.609a.333.333 0 0 1-.218.478l-.309.074a.26.26 0 0 1-.29-.132.26.26 0 0 0-.229-.14h-.346a.33.33 0 0 0-.296.18l-.288.555a.33.33 0 0 0 0 .307l.288.556c.058.11.172.18.296.18h.346a.26.26 0 0 0 .23-.14.26.26 0 0 1 .29-.133l.307.074c.21.05.317.285.218.477l-.223.43a.33.33 0 0 1-.296.18h-1.441a.33.33 0 0 1-.296-.18l-.294-.565a.33.33 0 0 0-.233-.174l-1.879-.361a.33.33 0 0 1-.27-.328V7.61c0-.16.114-.297.27-.328l1.879-.361c.1-.02.186-.083.233-.174l.294-.566a.33.33 0 0 1 .296-.18h1.442c.124 0 .238.07.295.18z" /><path fill="url(#pMJ0K5MHA__c)" d="M5.598 9.334a1.73 1.73 0 0 0-2.164-.239c-.85.54-1.052 1.725-.31 2.545l3.345 3.499a2.12 2.12 0 0 1 2.291-1.735c.51.047 1.017.818 1.017-.071 0-.89-4.177-3.997-4.177-3.997z" /><path fill="#2165AF" d="M8 12c-1.333 0-2.667 0-2.667 1.332v2.335c0 .184.15.333.334.333h3.777c.184 0 .333-.15.333-.333v-2.335C9.777 12.513 9.333 12 8 12" /><path fill="url(#pMJ0K5MHA__d)" d="M9.617 9.487H8.262c-.994 0-1.804-.782-1.804-1.744C6.458 6.793 7.25 6 8.264 6h1.354c.25.001.45.196.45.436v2.615c0 .24-.202.436-.451.436" /><defs><linearGradient id="pMJ0K5MHA__a" x1="1.536" x2="1.536" y1="-.269" y2="17.663" gradientUnits="userSpaceOnUse"><stop stop-color="#1F5FA4" /><stop offset=".9" stop-color="#2A79D3" /></linearGradient><linearGradient id="pMJ0K5MHA__b" x1="14.464" x2="14.464" y1="16.269" y2="-1.663" gradientUnits="userSpaceOnUse"><stop stop-color="#1F5FA4" /><stop offset=".9" stop-color="#2A79D3" /></linearGradient><linearGradient id="pMJ0K5MHA__c" x1="6.375" x2="3.777" y1="4.133" y2="21.361" gradientUnits="userSpaceOnUse"><stop offset=".1" stop-color="#5EA0EF" /><stop offset="1" stop-color="#2A79D3" /></linearGradient><linearGradient id="pMJ0K5MHA__d" x1="6.375" x2="3.777" y1="4.8" y2="22.027" gradientUnits="userSpaceOnUse"><stop offset=".1" stop-color="#5EA0EF" /><stop offset="1" stop-color="#2A79D3" /></linearGradient></defs><style>.msportalfx-svg-c01{fill:#fff}.msportalfx-svg-c02{fill:#e5e5e5}.msportalfx-svg-c03{fill:#a0a1a2}.msportalfx-svg-c04{fill:#7a7a7a}.msportalfx-svg-c05{fill:#3e3e3e}.msportalfx-svg-c06{fill:#1e1e1e}.msportalfx-svg-c07{fill:#0f0f0f}.msportalfx-svg-c08{fill:#ba141a}.msportalfx-svg-c09{fill:#dd5900}.msportalfx-svg-c10{fill:#ff8c00}.msportalfx-svg-c11{fill:#fcd116}.msportalfx-svg-c12{fill:#fee087}.msportalfx-svg-c13{fill:#b8d432}.msportalfx-svg-c14,.msportalfx-svg-c32{fill:#57a300}.msportalfx-svg-c15{fill:#59b4d9}.msportalfx-svg-c16{fill:#3999c6}.msportalfx-svg-c17{fill:#804998}.msportalfx-svg-c18{fill:#ec008c}.msportalfx-svg-c19{fill:#0072c6}.msportalfx-svg-c20{fill:#68217a}.msportalfx-svg-c21{fill:#00188f}.msportalfx-svg-c22{fill:#e81123}.fxs-mode-light .msportalfx-svg-c22{fill:#a4262c}.msportalfx-svg-c23{fill:#cae3f3}.msportalfx-svg-c24{fill:#59aed3}.msportalfx-svg-c25{fill:#4c3b12}.msportalfx-svg-c26{fill:#be9555}.msportalfx-svg-c27{fill:#4f4d52}.msportalfx-svg-c28{fill:#ef6f59}.msportalfx-svg-c29{fill:#f7cb64}.msportalfx-svg-c30{fill:#fdd8db}.msportalfx-svg-c31{fill:#f6ffec}.msportalfx-svg-c33{fill:#8a2da5}.msportalfx-svg-c34{fill:#e00b1c}.msportalfx-svg-c35{fill:#015cda}.msportalfx-svg-c36{fill:#5db300}.msportalfx-svg-c97{fill:#ffb900}.msportalfx-svg-c98{fill:#00a4ef}.msportalfx-svg-c99{fill:#f25022}.msportalfx-inverted-theme .msportalfx-svg-c05,.fxs-theme-dark .msportalfx-svg-c05{fill:#777}.msportalfx-inverted-theme .msportalfx-svg-c07,.fxs-theme-dark .msportalfx-svg-c07{fill:#f2f2f2}.msportalfx-svg-palette-white{fill:#fff}.msportalfx-svg-palette-blue{fill:#015cda}.msportalfx-svg-palette-black{fill:#1e1e1e}.msportalfx-svg-palette-green{fill:#57a300}.msportalfx-svg-palette-gray{fill:#a0a1a2}.msportalfx-svg-palette-inherit{fill:inherit}.msportalfx-svg-badge{position:absolute;left:0;bottom:0;min-height:10px;min-width:10px}.fxc-menu-icon&gt;.msportalfx-svg-badge{left:-2px;bottom:-2px;min-height:8px;min-width:8px}.msportalfx-svg-disabled{filter:grayscale(100%)}.msportalfx-svg-loading-square{animation:ProgressFlagAnimation 1.45s infinite ease-in-out;transform-origin:50%}.msportalfx-svg-loading-square:nth-child(1){animation-delay:0s}.msportalfx-svg-loading-square:nth-child(2){animation-delay:.2s}.msportalfx-svg-loading-square:nth-child(3){animation-delay:.4s}@keyframes ProgressFlagAnimation{0%{transform:scale(1);opacity:.3}36.1%{transform:scale(1.06);opacity:1}50%{transform:scale(1.06);opacity:1}86.1%{transform:scale(1);opacity:.3}}.msportalfx-svg-flip-horizontal&gt;svg,svg.msportalfx-svg-flip-horizontal{transform:scaleX(-1)}.msportalfx-svg-fabric-rotate360{animation:ImageRotation 1.3s cubic-bezier(.53,.21,.29,.67) infinite}@keyframes ImageRotation{0%{transform:rotate(-45deg)}100%{transform:rotate(315deg)}}.fxs-svg-number .msportalfx-font-bold{font-size:10px;fill:#0065ad}.fxs-svg-number .fxs-svg-circle{stroke-width:0%;fill:#0078d4}.fxs-svg-number .fxs-svg-text{fill:#fff;font-size:10px}.fxs-svg-number.msportalfx-svg-disabled{filter:grayscale(0%)}.fxs-svg-number.msportalfx-svg-disabled .fxs-svg-circle{fill:#fff;stroke-width:1px;stroke:#949494}.fxs-svg-number.msportalfx-svg-disabled .fxs-svg-text{fill:#949494}.fxs-theme-dark .fxs-svg-number .fxs-svg-text{fill:#0f0f0f}.fxs-theme-dark .fxs-svg-number .fxs-svg-circle{stroke-width:0%;fill:#0078d4}.fxs-theme-dark .fxs-svg-number.msportalfx-svg-disabled .fxs-svg-circle{fill:#0f0f0f;stroke-width:1px;stroke:#949494}.fxs-theme-dark .fxs-svg-number.msportalfx-svg-disabled .fxs-svg-text{fill:#949494}</style></svg>