<svg fill="none" viewBox="0 0 18 18" class="msportalfx-svg-placeholder" xmlns="http://www.w3.org/2000/svg"><title>ADR Device</title><desc>A namespace device represents a device within a namespace.</desc><g clip-path="url(#p0SGp0E7L__a)"><g clip-path="url(#p0SGp0E7L__b)"><path fill="url(#p0SGp0E7L__c)" d="M0 4.333C0 4.15.15 4 .333 4h2c.184 0 .334.15.334.333v2c0 .184-.15.334-.334.334h-2A.333.333 0 0 1 0 6.333z" /><path fill="url(#p0SGp0E7L__d)" d="M13.333 4.333c0-.184.15-.333.334-.333h2c.184 0 .333.15.333.333v2c0 .184-.15.334-.333.334h-2a.333.333 0 0 1-.334-.334z" /><path fill="url(#p0SGp0E7L__e)" d="M4 .333C4 .15 4.15 0 4.333 0h2c.184 0 .334.15.334.333v2c0 .184-.15.334-.334.334h-2A.333.333 0 0 1 4 2.333z" /><path fill="url(#p0SGp0E7L__f)" d="M4 13.666c0-.184.15-.333.333-.333h2c.184 0 .334.15.334.333v2c0 .184-.15.334-.334.334h-2A.333.333 0 0 1 4 15.666z" /><path fill="url(#p0SGp0E7L__g)" d="M9.333.333c0-.184.15-.333.334-.333h2c.184 0 .333.15.333.333v2c0 .184-.15.334-.333.334h-2a.333.333 0 0 1-.334-.334z" /><path fill="url(#p0SGp0E7L__h)" d="M9.333 13.666c0-.184.15-.333.334-.333h2c.184 0 .333.15.333.333v2c0 .184-.15.334-.333.334h-2a.333.333 0 0 1-.334-.334z" /><path fill="url(#p0SGp0E7L__i)" d="M0 9.666c0-.184.15-.333.333-.333h2c.184 0 .334.15.334.333v2c0 .184-.15.334-.334.334h-2A.333.333 0 0 1 0 11.666z" /><path fill="url(#p0SGp0E7L__j)" d="M13.333 9.666c0-.184.15-.333.334-.333h2c.184 0 .333.15.333.333v2c0 .184-.15.334-.333.334h-2a.333.333 0 0 1-.334-.334z" /><path fill="url(#p0SGp0E7L__k)" d="M13.012 2.286H2.988a.7.7 0 0 0-.702.696v10.037a.7.7 0 0 0 .702.696h10.024a.7.7 0 0 0 .702-.696V2.982a.7.7 0 0 0-.702-.696" /><path stroke="#fff" stroke-width=".75" d="M8 11.2V6.765C8 6.343 8.343 6 8.767 6H11" /><path stroke="#fff" stroke-width=".75" d="M5 5v2.424c0 .318.258.575.575.575h1.466c.53 0 .96.43.959.96v2.04" /><circle cx="8" cy="11" r=".616" fill="#fff" stroke="#fff" stroke-width=".767" /><circle cx="5" cy="5" r=".616" fill="#fff" stroke="#fff" stroke-width=".767" /><circle cx="11" cy="6" r=".616" fill="#fff" stroke="#fff" stroke-width=".767" /></g></g><defs><linearGradient id="p0SGp0E7L__c" x1="1.536" x2="1.536" y1="3.955" y2="6.944" gradientUnits="userSpaceOnUse"><stop stop-color="#1F5FA4" /><stop offset=".9" stop-color="#2A79D3" /></linearGradient><linearGradient id="p0SGp0E7L__d" x1="14.87" x2="14.87" y1="3.955" y2="6.944" gradientUnits="userSpaceOnUse"><stop stop-color="#1F5FA4" /><stop offset=".9" stop-color="#2A79D3" /></linearGradient><linearGradient id="p0SGp0E7L__e" x1="5.536" x2="5.536" y1="-.045" y2="2.944" gradientUnits="userSpaceOnUse"><stop stop-color="#1F5FA4" /><stop offset=".9" stop-color="#2A79D3" /></linearGradient><linearGradient id="p0SGp0E7L__f" x1="5.536" x2="5.536" y1="13.288" y2="16.277" gradientUnits="userSpaceOnUse"><stop stop-color="#1F5FA4" /><stop offset=".9" stop-color="#2A79D3" /></linearGradient><linearGradient id="p0SGp0E7L__g" x1="10.87" x2="10.87" y1="-.045" y2="2.944" gradientUnits="userSpaceOnUse"><stop stop-color="#1F5FA4" /><stop offset=".9" stop-color="#2A79D3" /></linearGradient><linearGradient id="p0SGp0E7L__h" x1="10.87" x2="10.87" y1="13.288" y2="16.277" gradientUnits="userSpaceOnUse"><stop stop-color="#1F5FA4" /><stop offset=".9" stop-color="#2A79D3" /></linearGradient><linearGradient id="p0SGp0E7L__i" x1="1.536" x2="1.536" y1="9.288" y2="12.277" gradientUnits="userSpaceOnUse"><stop stop-color="#1F5FA4" /><stop offset=".9" stop-color="#2A79D3" /></linearGradient><linearGradient id="p0SGp0E7L__j" x1="14.87" x2="14.87" y1="9.288" y2="12.277" gradientUnits="userSpaceOnUse"><stop stop-color="#1F5FA4" /><stop offset=".9" stop-color="#2A79D3" /></linearGradient><linearGradient id="p0SGp0E7L__k" x1="8" x2="8" y1=".887" y2="16.539" gradientUnits="userSpaceOnUse"><stop offset=".1" stop-color="#69A2EF" /><stop offset="1" stop-color="#5AD4F5" /></linearGradient><clipPath id="p0SGp0E7L__a"><path fill="#fff" d="M0 0h18v18H0z" /></clipPath><clipPath id="p0SGp0E7L__b"><path fill="#fff" d="M0 0h16v16H0z" /></clipPath></defs><style>.msportalfx-svg-c01{fill:#fff}.msportalfx-svg-c02{fill:#e5e5e5}.msportalfx-svg-c03{fill:#a0a1a2}.msportalfx-svg-c04{fill:#7a7a7a}.msportalfx-svg-c05{fill:#3e3e3e}.msportalfx-svg-c06{fill:#1e1e1e}.msportalfx-svg-c07{fill:#0f0f0f}.msportalfx-svg-c08{fill:#ba141a}.msportalfx-svg-c09{fill:#dd5900}.msportalfx-svg-c10{fill:#ff8c00}.msportalfx-svg-c11{fill:#fcd116}.msportalfx-svg-c12{fill:#fee087}.msportalfx-svg-c13{fill:#b8d432}.msportalfx-svg-c14,.msportalfx-svg-c32{fill:#57a300}.msportalfx-svg-c15{fill:#59b4d9}.msportalfx-svg-c16{fill:#3999c6}.msportalfx-svg-c17{fill:#804998}.msportalfx-svg-c18{fill:#ec008c}.msportalfx-svg-c19{fill:#0072c6}.msportalfx-svg-c20{fill:#68217a}.msportalfx-svg-c21{fill:#00188f}.msportalfx-svg-c22{fill:#e81123}.fxs-mode-light .msportalfx-svg-c22{fill:#a4262c}.msportalfx-svg-c23{fill:#cae3f3}.msportalfx-svg-c24{fill:#59aed3}.msportalfx-svg-c25{fill:#4c3b12}.msportalfx-svg-c26{fill:#be9555}.msportalfx-svg-c27{fill:#4f4d52}.msportalfx-svg-c28{fill:#ef6f59}.msportalfx-svg-c29{fill:#f7cb64}.msportalfx-svg-c30{fill:#fdd8db}.msportalfx-svg-c31{fill:#f6ffec}.msportalfx-svg-c33{fill:#8a2da5}.msportalfx-svg-c34{fill:#e00b1c}.msportalfx-svg-c35{fill:#015cda}.msportalfx-svg-c36{fill:#5db300}.msportalfx-svg-c97{fill:#ffb900}.msportalfx-svg-c98{fill:#00a4ef}.msportalfx-svg-c99{fill:#f25022}.msportalfx-inverted-theme .msportalfx-svg-c05,.fxs-theme-dark .msportalfx-svg-c05{fill:#777}.msportalfx-inverted-theme .msportalfx-svg-c07,.fxs-theme-dark .msportalfx-svg-c07{fill:#f2f2f2}.msportalfx-svg-palette-white{fill:#fff}.msportalfx-svg-palette-blue{fill:#015cda}.msportalfx-svg-palette-black{fill:#1e1e1e}.msportalfx-svg-palette-green{fill:#57a300}.msportalfx-svg-palette-gray{fill:#a0a1a2}.msportalfx-svg-palette-inherit{fill:inherit}.msportalfx-svg-badge{position:absolute;left:0;bottom:0;min-height:10px;min-width:10px}.fxc-menu-icon&gt;.msportalfx-svg-badge{left:-2px;bottom:-2px;min-height:8px;min-width:8px}.msportalfx-svg-disabled{filter:grayscale(100%)}.msportalfx-svg-loading-square{animation:ProgressFlagAnimation 1.45s infinite ease-in-out;transform-origin:50%}.msportalfx-svg-loading-square:nth-child(1){animation-delay:0s}.msportalfx-svg-loading-square:nth-child(2){animation-delay:.2s}.msportalfx-svg-loading-square:nth-child(3){animation-delay:.4s}@keyframes ProgressFlagAnimation{0%{transform:scale(1);opacity:.3}36.1%{transform:scale(1.06);opacity:1}50%{transform:scale(1.06);opacity:1}86.1%{transform:scale(1);opacity:.3}}.msportalfx-svg-flip-horizontal&gt;svg,svg.msportalfx-svg-flip-horizontal{transform:scaleX(-1)}.msportalfx-svg-fabric-rotate360{animation:ImageRotation 1.3s cubic-bezier(.53,.21,.29,.67) infinite}@keyframes ImageRotation{0%{transform:rotate(-45deg)}100%{transform:rotate(315deg)}}.fxs-svg-number .msportalfx-font-bold{font-size:10px;fill:#0065ad}.fxs-svg-number .fxs-svg-circle{stroke-width:0%;fill:#0078d4}.fxs-svg-number .fxs-svg-text{fill:#fff;font-size:10px}.fxs-svg-number.msportalfx-svg-disabled{filter:grayscale(0%)}.fxs-svg-number.msportalfx-svg-disabled .fxs-svg-circle{fill:#fff;stroke-width:1px;stroke:#949494}.fxs-svg-number.msportalfx-svg-disabled .fxs-svg-text{fill:#949494}.fxs-theme-dark .fxs-svg-number .fxs-svg-text{fill:#0f0f0f}.fxs-theme-dark .fxs-svg-number .fxs-svg-circle{stroke-width:0%;fill:#0078d4}.fxs-theme-dark .fxs-svg-number.msportalfx-svg-disabled .fxs-svg-circle{fill:#0f0f0f;stroke-width:1px;stroke:#949494}.fxs-theme-dark .fxs-svg-number.msportalfx-svg-disabled .fxs-svg-text{fill:#949494}</style></svg>