<svg fill="none" viewBox="0 0 20 20" class="msportalfx-svg-placeholder" xmlns="http://www.w3.org/2000/svg"><title>IoT Credential Policy</title><desc>A Credential Policy.</desc><path fill="url(#pQyBVFV93__a)" d="M17.318 3H2.385c-.295 0-.534.261-.534.583v11.211c0 .322.24.582.534.582h14.933c.295 0 .533-.26.533-.582V3.583c0-.322-.238-.583-.533-.583" /><path fill="url(#pQyBVFV93__b)" d="M16.652 4.087h-13.6c-.148 0-.267.13-.267.29v9.61c0 .161.12.292.267.292h13.6c.147 0 .266-.13.266-.291v-9.61c0-.161-.12-.291-.266-.291" /><path fill="#fff" d="M13.836 6.25a.304.304 0 1 0-.44.42l.22-.21zm.222.67-.22.21.204.212.218-.195zm-.442-.46-.22.21.443.46.219-.21.22-.21-.443-.46zm.442.46.202.227 1.03-.92L15.089 6l-.202-.227-1.03.92zm-.222 1.906a.304.304 0 1 0-.44.421l.22-.21zm.222.67-.22.211.204.212.218-.196zm-.442-.46-.22.211.443.46.219-.21.22-.211-.443-.46zm.442.46.202.227 1.03-.92-.202-.227-.202-.226-1.03.92zm-.222 1.72a.304.304 0 1 0-.44.42l.22-.21zm.222.67-.22.21.204.212.218-.195zm-.442-.46-.22.21.443.46.219-.21.22-.21-.443-.46zm.442.46.202.227 1.03-.92-.202-.227-.202-.227-1.03.92z" /><path fill="#fff" stroke="#fff" stroke-width=".184" d="M5.052 8.63h6.284a.364.364 0 0 1 0 .728H5.052a.364.364 0 0 1 0-.728Zm2.838 2.53h3.445a.364.364 0 0 1 0 .728H7.89a.364.364 0 0 1 0-.729ZM5.052 6.096h6.284a.364.364 0 0 1 0 .728H5.052a.364.364 0 0 1 0-.728Z" /><path fill="#005294" d="M5.737 15.11a1.92 1.92 0 0 1-1.303.515 1.92 1.92 0 0 1-1.304-.514l-.162 3.337a.27.27 0 0 0 .036.155.26.26 0 0 0 .116.105.25.25 0 0 0 .289-.06l1.005-1.052 1.014 1.059a.25.25 0 0 0 .285.062.26.26 0 0 0 .116-.101.27.27 0 0 0 .04-.152z" /><path fill="#005294" d="M4.418 15.836a2.418 2.418 0 1 0 0-4.836 2.418 2.418 0 0 0 0 4.836" /><path fill="#9CEBFF" d="M4.418 15.199a1.78 1.78 0 1 0 0-3.562 1.78 1.78 0 0 0 0 3.562" /><defs><linearGradient id="pQyBVFV93__a" x1="11.069" x2="11.069" y1="2.792" y2="16.663" gradientUnits="userSpaceOnUse"><stop stop-color="#1F5FA4" /><stop offset=".9" stop-color="#2A79D3" /></linearGradient><linearGradient id="pQyBVFV93__b" x1="9.851" x2="9.851" y1="2.839" y2="16.798" gradientUnits="userSpaceOnUse"><stop offset=".1" stop-color="#69A2EF" /><stop offset="1" stop-color="#5AD4F5" /></linearGradient></defs><style>.msportalfx-svg-c01{fill:#fff}.msportalfx-svg-c02{fill:#e5e5e5}.msportalfx-svg-c03{fill:#a0a1a2}.msportalfx-svg-c04{fill:#7a7a7a}.msportalfx-svg-c05{fill:#3e3e3e}.msportalfx-svg-c06{fill:#1e1e1e}.msportalfx-svg-c07{fill:#0f0f0f}.msportalfx-svg-c08{fill:#ba141a}.msportalfx-svg-c09{fill:#dd5900}.msportalfx-svg-c10{fill:#ff8c00}.msportalfx-svg-c11{fill:#fcd116}.msportalfx-svg-c12{fill:#fee087}.msportalfx-svg-c13{fill:#b8d432}.msportalfx-svg-c14,.msportalfx-svg-c32{fill:#57a300}.msportalfx-svg-c15{fill:#59b4d9}.msportalfx-svg-c16{fill:#3999c6}.msportalfx-svg-c17{fill:#804998}.msportalfx-svg-c18{fill:#ec008c}.msportalfx-svg-c19{fill:#0072c6}.msportalfx-svg-c20{fill:#68217a}.msportalfx-svg-c21{fill:#00188f}.msportalfx-svg-c22{fill:#e81123}.fxs-mode-light .msportalfx-svg-c22{fill:#a4262c}.msportalfx-svg-c23{fill:#cae3f3}.msportalfx-svg-c24{fill:#59aed3}.msportalfx-svg-c25{fill:#4c3b12}.msportalfx-svg-c26{fill:#be9555}.msportalfx-svg-c27{fill:#4f4d52}.msportalfx-svg-c28{fill:#ef6f59}.msportalfx-svg-c29{fill:#f7cb64}.msportalfx-svg-c30{fill:#fdd8db}.msportalfx-svg-c31{fill:#f6ffec}.msportalfx-svg-c33{fill:#8a2da5}.msportalfx-svg-c34{fill:#e00b1c}.msportalfx-svg-c35{fill:#015cda}.msportalfx-svg-c36{fill:#5db300}.msportalfx-svg-c97{fill:#ffb900}.msportalfx-svg-c98{fill:#00a4ef}.msportalfx-svg-c99{fill:#f25022}.msportalfx-inverted-theme .msportalfx-svg-c05,.fxs-theme-dark .msportalfx-svg-c05{fill:#777}.msportalfx-inverted-theme .msportalfx-svg-c07,.fxs-theme-dark .msportalfx-svg-c07{fill:#f2f2f2}.msportalfx-svg-palette-white{fill:#fff}.msportalfx-svg-palette-blue{fill:#015cda}.msportalfx-svg-palette-black{fill:#1e1e1e}.msportalfx-svg-palette-green{fill:#57a300}.msportalfx-svg-palette-gray{fill:#a0a1a2}.msportalfx-svg-palette-inherit{fill:inherit}.msportalfx-svg-badge{position:absolute;left:0;bottom:0;min-height:10px;min-width:10px}.fxc-menu-icon&gt;.msportalfx-svg-badge{left:-2px;bottom:-2px;min-height:8px;min-width:8px}.msportalfx-svg-disabled{filter:grayscale(100%)}.msportalfx-svg-loading-square{animation:ProgressFlagAnimation 1.45s infinite ease-in-out;transform-origin:50%}.msportalfx-svg-loading-square:nth-child(1){animation-delay:0s}.msportalfx-svg-loading-square:nth-child(2){animation-delay:.2s}.msportalfx-svg-loading-square:nth-child(3){animation-delay:.4s}@keyframes ProgressFlagAnimation{0%{transform:scale(1);opacity:.3}36.1%{transform:scale(1.06);opacity:1}50%{transform:scale(1.06);opacity:1}86.1%{transform:scale(1);opacity:.3}}.msportalfx-svg-flip-horizontal&gt;svg,svg.msportalfx-svg-flip-horizontal{transform:scaleX(-1)}.msportalfx-svg-fabric-rotate360{animation:ImageRotation 1.3s cubic-bezier(.53,.21,.29,.67) infinite}@keyframes ImageRotation{0%{transform:rotate(-45deg)}100%{transform:rotate(315deg)}}.fxs-svg-number .msportalfx-font-bold{font-size:10px;fill:#0065ad}.fxs-svg-number .fxs-svg-circle{stroke-width:0%;fill:#0078d4}.fxs-svg-number .fxs-svg-text{fill:#fff;font-size:10px}.fxs-svg-number.msportalfx-svg-disabled{filter:grayscale(0%)}.fxs-svg-number.msportalfx-svg-disabled .fxs-svg-circle{fill:#fff;stroke-width:1px;stroke:#949494}.fxs-svg-number.msportalfx-svg-disabled .fxs-svg-text{fill:#949494}.fxs-theme-dark .fxs-svg-number .fxs-svg-text{fill:#0f0f0f}.fxs-theme-dark .fxs-svg-number .fxs-svg-circle{stroke-width:0%;fill:#0078d4}.fxs-theme-dark .fxs-svg-number.msportalfx-svg-disabled .fxs-svg-circle{fill:#0f0f0f;stroke-width:1px;stroke:#949494}.fxs-theme-dark .fxs-svg-number.msportalfx-svg-disabled .fxs-svg-text{fill:#949494}</style></svg>