<svg fill="none" viewBox="0 0 16 16" class="msportalfx-svg-placeholder" xmlns="http://www.w3.org/2000/svg"><title>ADR Schema Registry</title><desc>An ADR Schema Registry is a synchronized schema store that operates both at the edge and in the cloud. It stores and serves schemas of messages generated by assets or provided by users.</desc><rect width="2.667" height="2.667" fill="url(#psadI7Scx__a)" rx=".333" /><rect width="2.667" height="2.667" y="4" fill="url(#psadI7Scx__b)" rx=".333" /><rect width="2.667" height="2.667" y="8" fill="url(#psadI7Scx__c)" rx=".333" /><rect width="2.667" height="2.667" y="12" fill="url(#psadI7Scx__d)" rx=".333" /><path fill="#2165AF" d="M4 .863C4 .386 4.386 0 4.863 0h8.768a.86.86 0 0 1 .624.267l1.506 1.578a.86.86 0 0 1 .239.596v11.363a.863.863 0 0 1-.863.863H4.863A.863.863 0 0 1 4 13.804z" /><path fill="url(#psadI7Scx__e)" d="M4.857 1.667a.75.75 0 0 1 .75-.75h7.496a.75.75 0 0 1 .548.237l1.29 1.38a.75.75 0 0 1 .202.512V13a.75.75 0 0 1-.75.75H5.607a.75.75 0 0 1-.75-.75z" /><path fill="#fff" stroke="#fff" stroke-width=".25" d="M13.333 7.66q-.596.039-.596.801v1.136q0 1.155-1.363 1.17v-.593q.335-.007.473-.184.143-.178.143-.586V8.33q0-.781.758-.95v-.012q-.758-.18-.758-.959V5.324q0-.72-.616-.735v-.597q1.363.015 1.363 1.186v1.104q0 .777.596.817zM8.64 10.767q-1.37-.015-1.37-1.17V8.46q0-.762-.6-.8v-.562q.6-.039.6-.817V5.178q0-1.17 1.37-1.186v.597q-.61.015-.611.735v1.085q0 .778-.766.959v.012q.766.169.766.95v1.074q0 .412.134.586.14.178.478.184z" /><defs><linearGradient id="psadI7Scx__a" x1="1.536" x2="1.536" y1="-.045" y2="2.944" gradientUnits="userSpaceOnUse"><stop stop-color="#1F5FA4" /><stop offset=".9" stop-color="#2A79D3" /></linearGradient><linearGradient id="psadI7Scx__b" x1="1.536" x2="1.536" y1="3.955" y2="6.944" gradientUnits="userSpaceOnUse"><stop stop-color="#1F5FA4" /><stop offset=".9" stop-color="#2A79D3" /></linearGradient><linearGradient id="psadI7Scx__c" x1="1.536" x2="1.536" y1="7.955" y2="10.944" gradientUnits="userSpaceOnUse"><stop stop-color="#1F5FA4" /><stop offset=".9" stop-color="#2A79D3" /></linearGradient><linearGradient id="psadI7Scx__d" x1="1.536" x2="1.536" y1="11.955" y2="14.944" gradientUnits="userSpaceOnUse"><stop stop-color="#1F5FA4" /><stop offset=".9" stop-color="#2A79D3" /></linearGradient><linearGradient id="psadI7Scx__e" x1="10" x2="10" y1="-.654" y2="16.922" gradientUnits="userSpaceOnUse"><stop offset=".1" stop-color="#69A2EF" /><stop offset="1" stop-color="#5AD4F5" /></linearGradient></defs><style>.msportalfx-svg-c01{fill:#fff}.msportalfx-svg-c02{fill:#e5e5e5}.msportalfx-svg-c03{fill:#a0a1a2}.msportalfx-svg-c04{fill:#7a7a7a}.msportalfx-svg-c05{fill:#3e3e3e}.msportalfx-svg-c06{fill:#1e1e1e}.msportalfx-svg-c07{fill:#0f0f0f}.msportalfx-svg-c08{fill:#ba141a}.msportalfx-svg-c09{fill:#dd5900}.msportalfx-svg-c10{fill:#ff8c00}.msportalfx-svg-c11{fill:#fcd116}.msportalfx-svg-c12{fill:#fee087}.msportalfx-svg-c13{fill:#b8d432}.msportalfx-svg-c14,.msportalfx-svg-c32{fill:#57a300}.msportalfx-svg-c15{fill:#59b4d9}.msportalfx-svg-c16{fill:#3999c6}.msportalfx-svg-c17{fill:#804998}.msportalfx-svg-c18{fill:#ec008c}.msportalfx-svg-c19{fill:#0072c6}.msportalfx-svg-c20{fill:#68217a}.msportalfx-svg-c21{fill:#00188f}.msportalfx-svg-c22{fill:#e81123}.fxs-mode-light .msportalfx-svg-c22{fill:#a4262c}.msportalfx-svg-c23{fill:#cae3f3}.msportalfx-svg-c24{fill:#59aed3}.msportalfx-svg-c25{fill:#4c3b12}.msportalfx-svg-c26{fill:#be9555}.msportalfx-svg-c27{fill:#4f4d52}.msportalfx-svg-c28{fill:#ef6f59}.msportalfx-svg-c29{fill:#f7cb64}.msportalfx-svg-c30{fill:#fdd8db}.msportalfx-svg-c31{fill:#f6ffec}.msportalfx-svg-c33{fill:#8a2da5}.msportalfx-svg-c34{fill:#e00b1c}.msportalfx-svg-c35{fill:#015cda}.msportalfx-svg-c36{fill:#5db300}.msportalfx-svg-c97{fill:#ffb900}.msportalfx-svg-c98{fill:#00a4ef}.msportalfx-svg-c99{fill:#f25022}.msportalfx-inverted-theme .msportalfx-svg-c05,.fxs-theme-dark .msportalfx-svg-c05{fill:#777}.msportalfx-inverted-theme .msportalfx-svg-c07,.fxs-theme-dark .msportalfx-svg-c07{fill:#f2f2f2}.msportalfx-svg-palette-white{fill:#fff}.msportalfx-svg-palette-blue{fill:#015cda}.msportalfx-svg-palette-black{fill:#1e1e1e}.msportalfx-svg-palette-green{fill:#57a300}.msportalfx-svg-palette-gray{fill:#a0a1a2}.msportalfx-svg-palette-inherit{fill:inherit}.msportalfx-svg-badge{position:absolute;left:0;bottom:0;min-height:10px;min-width:10px}.fxc-menu-icon&gt;.msportalfx-svg-badge{left:-2px;bottom:-2px;min-height:8px;min-width:8px}.msportalfx-svg-disabled{filter:grayscale(100%)}.msportalfx-svg-loading-square{animation:ProgressFlagAnimation 1.45s infinite ease-in-out;transform-origin:50%}.msportalfx-svg-loading-square:nth-child(1){animation-delay:0s}.msportalfx-svg-loading-square:nth-child(2){animation-delay:.2s}.msportalfx-svg-loading-square:nth-child(3){animation-delay:.4s}@keyframes ProgressFlagAnimation{0%{transform:scale(1);opacity:.3}36.1%{transform:scale(1.06);opacity:1}50%{transform:scale(1.06);opacity:1}86.1%{transform:scale(1);opacity:.3}}.msportalfx-svg-flip-horizontal&gt;svg,svg.msportalfx-svg-flip-horizontal{transform:scaleX(-1)}.msportalfx-svg-fabric-rotate360{animation:ImageRotation 1.3s cubic-bezier(.53,.21,.29,.67) infinite}@keyframes ImageRotation{0%{transform:rotate(-45deg)}100%{transform:rotate(315deg)}}.fxs-svg-number .msportalfx-font-bold{font-size:10px;fill:#0065ad}.fxs-svg-number .fxs-svg-circle{stroke-width:0%;fill:#0078d4}.fxs-svg-number .fxs-svg-text{fill:#fff;font-size:10px}.fxs-svg-number.msportalfx-svg-disabled{filter:grayscale(0%)}.fxs-svg-number.msportalfx-svg-disabled .fxs-svg-circle{fill:#fff;stroke-width:1px;stroke:#949494}.fxs-svg-number.msportalfx-svg-disabled .fxs-svg-text{fill:#949494}.fxs-theme-dark .fxs-svg-number .fxs-svg-text{fill:#0f0f0f}.fxs-theme-dark .fxs-svg-number .fxs-svg-circle{stroke-width:0%;fill:#0078d4}.fxs-theme-dark .fxs-svg-number.msportalfx-svg-disabled .fxs-svg-circle{fill:#0f0f0f;stroke-width:1px;stroke:#949494}.fxs-theme-dark .fxs-svg-number.msportalfx-svg-disabled .fxs-svg-text{fill:#949494}</style></svg>