<svg viewBox="0 0 16 16" class="msportalfx-svg-placeholder" xmlns="http://www.w3.org/2000/svg"><title>IoT Schema Registry</title><desc>A schema registry is a centralized repository for managing schemas. When you create a schema registry, it will appear here and can be managed from this table.</desc><defs><linearGradient id="psadI7Scx__a" x1="7.83" x2="8.06" y1="-1803.38" y2="-1828.01" gradientTransform="matrix(1 0 0 -1 0 -1813)" gradientUnits="userSpaceOnUse"><stop offset="0" stop-color="#dcf" /><stop offset="1" stop-color="#5f29cc" /></linearGradient></defs><path fill="#5f29cc" d="M15.62 2.91H8.64c-.07 0-.15-.02-.21-.06L6.44 1.52a.37.37 0 0 0-.21-.06H.38c-.1 0-.2.04-.27.11S0 1.74 0 1.84v12.32s0 .1.03.14.05.09.08.12.08.06.12.08c.05.02.09.03.14.03h15.25s.1 0 .14-.03a.36.36 0 0 0 .2-.2.3.3 0 0 0 .03-.14V3.29c0-.1-.04-.19-.11-.26a.38.38 0 0 0-.26-.11Z" /><path fill="#fff" d="M4.94 2.18H1.61c-.08 0-.15.07-.15.15v.42c0 .08.07.15.15.15h3.33c.08 0 .15-.07.15-.15v-.42c0-.08-.07-.15-.15-.15" /><path fill="url(#psadI7Scx__a)" d="M15.62 2.9H7.96c-.1 0-.2.04-.27.11L6.46 4.24c-.07.07-.17.11-.27.11H.38s-.1 0-.14.03a.36.36 0 0 0-.2.2c-.02.05-.03.09-.03.14v9.41c0 .1.04.2.11.27s.17.11.27.11h15.25c.1 0 .2-.04.27-.11s.11-.17.11-.27V3.27c0-.1-.04-.2-.11-.27s-.17-.11-.27-.11Z" /><path fill="#fff" d="M11.48 7.63v3.06h-.44V7.63s0-.04-.03-.06c-.02-.02-.04-.02-.06-.02H8.03v3.14h-.44V7.55H4.67s-.04 0-.06.02-.02.04-.02.06v3.06h-.44V7.63c0-.14.06-.27.15-.37.1-.1.23-.15.37-.15h6.27a.514.514 0 0 1 .52.52Z" /><path fill="#50e6ff" d="M6.31 8.42h3.02c.16 0 .29-.13.29-.29V6.24a.29.29 0 0 0-.29-.29H6.31a.29.29 0 0 0-.29.29v1.89c0 .16.13.29.29.29m.73 1.34h1.55q.12 0 .21.09c.05.05.09.13.09.21v1.27q0 .12-.09.21c-.05.05-.13.09-.21.09H7.04q-.12 0-.21-.09c-.09-.09-.09-.13-.09-.21v-1.27q0-.12.09-.21c.05-.05.13-.09.21-.09m-3.73.3v1.27q0 .12.09.21c.05.05.13.09.21.09h1.55s.08 0 .11-.02c.04-.01.07-.04.09-.06q.045-.045.06-.09c.01-.04.02-.07.02-.11v-1.27s0-.08-.02-.11a.2.2 0 0 0-.06-.09.24.24 0 0 0-.09-.06c-.04-.01-.07-.02-.11-.02H3.61q-.12 0-.21.09c-.05.05-.09.13-.09.21Zm6.88 0v1.27q0 .12.09.21c.05.05.13.09.21.09h1.55q.12 0 .21-.09c.05-.05.09-.13.09-.21v-1.27q0-.12-.09-.21c-.09-.09-.13-.09-.21-.09h-1.55q-.12 0-.21.09c-.05.05-.09.13-.09.21" /><style>.msportalfx-svg-c01{fill:#fff}.msportalfx-svg-c02{fill:#e5e5e5}.msportalfx-svg-c03{fill:#a0a1a2}.msportalfx-svg-c04{fill:#7a7a7a}.msportalfx-svg-c05{fill:#3e3e3e}.msportalfx-svg-c06{fill:#1e1e1e}.msportalfx-svg-c07{fill:#0f0f0f}.msportalfx-svg-c08{fill:#ba141a}.msportalfx-svg-c09{fill:#dd5900}.msportalfx-svg-c10{fill:#ff8c00}.msportalfx-svg-c11{fill:#fcd116}.msportalfx-svg-c12{fill:#fee087}.msportalfx-svg-c13{fill:#b8d432}.msportalfx-svg-c14,.msportalfx-svg-c32{fill:#57a300}.msportalfx-svg-c15{fill:#59b4d9}.msportalfx-svg-c16{fill:#3999c6}.msportalfx-svg-c17{fill:#804998}.msportalfx-svg-c18{fill:#ec008c}.msportalfx-svg-c19{fill:#0072c6}.msportalfx-svg-c20{fill:#68217a}.msportalfx-svg-c21{fill:#00188f}.msportalfx-svg-c22{fill:#e81123}.fxs-mode-light .msportalfx-svg-c22{fill:#a4262c}.msportalfx-svg-c23{fill:#cae3f3}.msportalfx-svg-c24{fill:#59aed3}.msportalfx-svg-c25{fill:#4c3b12}.msportalfx-svg-c26{fill:#be9555}.msportalfx-svg-c27{fill:#4f4d52}.msportalfx-svg-c28{fill:#ef6f59}.msportalfx-svg-c29{fill:#f7cb64}.msportalfx-svg-c30{fill:#fdd8db}.msportalfx-svg-c31{fill:#f6ffec}.msportalfx-svg-c33{fill:#8a2da5}.msportalfx-svg-c34{fill:#e00b1c}.msportalfx-svg-c35{fill:#015cda}.msportalfx-svg-c36{fill:#5db300}.msportalfx-svg-c97{fill:#ffb900}.msportalfx-svg-c98{fill:#00a4ef}.msportalfx-svg-c99{fill:#f25022}.msportalfx-inverted-theme .msportalfx-svg-c05,.fxs-theme-dark .msportalfx-svg-c05{fill:#777}.msportalfx-inverted-theme .msportalfx-svg-c07,.fxs-theme-dark .msportalfx-svg-c07{fill:#f2f2f2}.msportalfx-svg-palette-white{fill:#fff}.msportalfx-svg-palette-blue{fill:#015cda}.msportalfx-svg-palette-black{fill:#1e1e1e}.msportalfx-svg-palette-green{fill:#57a300}.msportalfx-svg-palette-gray{fill:#a0a1a2}.msportalfx-svg-palette-inherit{fill:inherit}.msportalfx-svg-badge{position:absolute;left:0;bottom:0;min-height:10px;min-width:10px}.fxc-menu-icon&gt;.msportalfx-svg-badge{left:-2px;bottom:-2px;min-height:8px;min-width:8px}.msportalfx-svg-disabled{filter:grayscale(100%)}.msportalfx-svg-loading-square{animation:ProgressFlagAnimation 1.45s infinite ease-in-out;transform-origin:50%}.msportalfx-svg-loading-square:nth-child(1){animation-delay:0s}.msportalfx-svg-loading-square:nth-child(2){animation-delay:.2s}.msportalfx-svg-loading-square:nth-child(3){animation-delay:.4s}@keyframes ProgressFlagAnimation{0%{transform:scale(1);opacity:.3}36.1%{transform:scale(1.06);opacity:1}50%{transform:scale(1.06);opacity:1}86.1%{transform:scale(1);opacity:.3}}.msportalfx-svg-flip-horizontal&gt;svg,svg.msportalfx-svg-flip-horizontal{transform:scaleX(-1)}.msportalfx-svg-fabric-rotate360{animation:ImageRotation 1.3s cubic-bezier(.53,.21,.29,.67) infinite}@keyframes ImageRotation{0%{transform:rotate(-45deg)}100%{transform:rotate(315deg)}}.fxs-svg-number .msportalfx-font-bold{font-size:10px;fill:#0065ad}.fxs-svg-number .fxs-svg-circle{stroke-width:0%;fill:#0078d4}.fxs-svg-number .fxs-svg-text{fill:#fff;font-size:10px}.fxs-svg-number.msportalfx-svg-disabled{filter:grayscale(0%)}.fxs-svg-number.msportalfx-svg-disabled .fxs-svg-circle{fill:#fff;stroke-width:1px;stroke:#949494}.fxs-svg-number.msportalfx-svg-disabled .fxs-svg-text{fill:#949494}.fxs-theme-dark .fxs-svg-number .fxs-svg-text{fill:#0f0f0f}.fxs-theme-dark .fxs-svg-number .fxs-svg-circle{stroke-width:0%;fill:#0078d4}.fxs-theme-dark .fxs-svg-number.msportalfx-svg-disabled .fxs-svg-circle{fill:#0f0f0f;stroke-width:1px;stroke:#949494}.fxs-theme-dark .fxs-svg-number.msportalfx-svg-disabled .fxs-svg-text{fill:#949494}</style></svg>