<svg fill="none" viewBox="0 0 16 16" class="msportalfx-svg-placeholder" xmlns="http://www.w3.org/2000/svg"><title>SLI</title><desc></desc><g clip-path="url(#pC90-aubS__a)"><path fill="#999" d="M14.457 4.058H3.547v9.625H4.75V6.242l4.761 4.761h3.873V9.802H10.01L5.468 5.259h8.989z" /><path fill="#F78D1E" d="M6.541 8.268a3.62 3.62 0 1 0 0-7.24 3.62 3.62 0 0 0 0 7.24" /><path fill="#D15900" d="M10.085 2.246a3.76 3.76 0 0 0-2.942-1.155 3.607 3.607 0 0 1-.416 7.158 4.23 4.23 0 0 0 2.75-.678 3.71 3.71 0 0 0 .608-5.325" /><path fill="url(#pC90-aubS__b)" d="M4.207 15.075a1.577 1.577 0 1 0 0-3.154 1.577 1.577 0 0 0 0 3.154" /><path fill="url(#pC90-aubS__c)" d="M14.423 11.847a1.577 1.577 0 1 0 0-3.154 1.577 1.577 0 0 0 0 3.154" /><path fill="url(#pC90-aubS__d)" d="M14.423 6.223a1.577 1.577 0 1 0 0-3.154 1.577 1.577 0 0 0 0 3.154" /><path fill="#fff" d="M3.723 7.847a3.2 3.2 0 1 0 0-6.398 3.2 3.2 0 0 0 0 6.398" /><path fill="url(#pC90-aubS__e)" d="M3.723 8.371a3.723 3.723 0 1 1 0-7.445 3.723 3.723 0 0 1 0 7.445m0-6.4a2.676 2.676 0 1 0 .001 5.353 2.676 2.676 0 0 0-.001-5.353" /><path fill="#D15900" d="M7.318 2.192a3.73 3.73 0 0 0-2.805-1.177 3.71 3.71 0 0 1-.432 7.32 4.26 4.26 0 0 0 2.616-.698 3.794 3.794 0 0 0 .621-5.445" /><path fill="#76BC2D" d="m5.437 3.772-.074-.464a.16.16 0 0 0-.135-.132l-.451-.065a.16.16 0 0 0-.135.045l-.918.92-.914-.913a.16.16 0 0 0-.143-.044l-.445.098a.16.16 0 0 0-.122.124l-.09.427a.16.16 0 0 0 .044.146L3.22 5.078v1.244a.16.16 0 0 0 .061.126l.369.29a.16.16 0 0 0 .197 0l.375-.291a.16.16 0 0 0 .063-.126V5.019L5.393 3.91a.16.16 0 0 0 .044-.139" /></g><defs><linearGradient id="pC90-aubS__b" x1="4.207" x2="4.207" y1="11.921" y2="15.075" gradientUnits="userSpaceOnUse"><stop stop-color="#FAA21D" /><stop offset="1" stop-color="#EF7100" /></linearGradient><linearGradient id="pC90-aubS__c" x1="14.423" x2="14.423" y1="8.756" y2="11.909" gradientUnits="userSpaceOnUse"><stop stop-color="#FAA21D" /><stop offset="1" stop-color="#EF7100" /></linearGradient><linearGradient id="pC90-aubS__d" x1="14.423" x2="14.423" y1="3.155" y2="6.308" gradientUnits="userSpaceOnUse"><stop stop-color="#FAA21D" /><stop offset="1" stop-color="#EF7100" /></linearGradient><linearGradient id="pC90-aubS__e" x1="3.723" x2="3.723" y1="-.711" y2="9.241" gradientUnits="userSpaceOnUse"><stop stop-color="#FFB34D" /><stop offset="1" stop-color="#EF7100" /></linearGradient><clipPath id="pC90-aubS__a"><path fill="#fff" d="M0 0h16v16H0z" /></clipPath></defs><style>.msportalfx-svg-c01{fill:#fff}.msportalfx-svg-c02{fill:#e5e5e5}.msportalfx-svg-c03{fill:#a0a1a2}.msportalfx-svg-c04{fill:#7a7a7a}.msportalfx-svg-c05{fill:#3e3e3e}.msportalfx-svg-c06{fill:#1e1e1e}.msportalfx-svg-c07{fill:#0f0f0f}.msportalfx-svg-c08{fill:#ba141a}.msportalfx-svg-c09{fill:#dd5900}.msportalfx-svg-c10{fill:#ff8c00}.msportalfx-svg-c11{fill:#fcd116}.msportalfx-svg-c12{fill:#fee087}.msportalfx-svg-c13{fill:#b8d432}.msportalfx-svg-c14,.msportalfx-svg-c32{fill:#57a300}.msportalfx-svg-c15{fill:#59b4d9}.msportalfx-svg-c16{fill:#3999c6}.msportalfx-svg-c17{fill:#804998}.msportalfx-svg-c18{fill:#ec008c}.msportalfx-svg-c19{fill:#0072c6}.msportalfx-svg-c20{fill:#68217a}.msportalfx-svg-c21{fill:#00188f}.msportalfx-svg-c22{fill:#e81123}.fxs-mode-light .msportalfx-svg-c22{fill:#a4262c}.msportalfx-svg-c23{fill:#cae3f3}.msportalfx-svg-c24{fill:#59aed3}.msportalfx-svg-c25{fill:#4c3b12}.msportalfx-svg-c26{fill:#be9555}.msportalfx-svg-c27{fill:#4f4d52}.msportalfx-svg-c28{fill:#ef6f59}.msportalfx-svg-c29{fill:#f7cb64}.msportalfx-svg-c30{fill:#fdd8db}.msportalfx-svg-c31{fill:#f6ffec}.msportalfx-svg-c33{fill:#8a2da5}.msportalfx-svg-c34{fill:#e00b1c}.msportalfx-svg-c35{fill:#015cda}.msportalfx-svg-c36{fill:#5db300}.msportalfx-svg-c97{fill:#ffb900}.msportalfx-svg-c98{fill:#00a4ef}.msportalfx-svg-c99{fill:#f25022}.msportalfx-inverted-theme .msportalfx-svg-c05,.fxs-theme-dark .msportalfx-svg-c05{fill:#777}.msportalfx-inverted-theme .msportalfx-svg-c07,.fxs-theme-dark .msportalfx-svg-c07{fill:#f2f2f2}.msportalfx-svg-palette-white{fill:#fff}.msportalfx-svg-palette-blue{fill:#015cda}.msportalfx-svg-palette-black{fill:#1e1e1e}.msportalfx-svg-palette-green{fill:#57a300}.msportalfx-svg-palette-gray{fill:#a0a1a2}.msportalfx-svg-palette-inherit{fill:inherit}.msportalfx-svg-badge{position:absolute;left:0;bottom:0;min-height:10px;min-width:10px}.fxc-menu-icon&gt;.msportalfx-svg-badge{left:-2px;bottom:-2px;min-height:8px;min-width:8px}.msportalfx-svg-disabled{filter:grayscale(100%)}.msportalfx-svg-loading-square{animation:ProgressFlagAnimation 1.45s infinite ease-in-out;transform-origin:50%}.msportalfx-svg-loading-square:nth-child(1){animation-delay:0s}.msportalfx-svg-loading-square:nth-child(2){animation-delay:.2s}.msportalfx-svg-loading-square:nth-child(3){animation-delay:.4s}@keyframes ProgressFlagAnimation{0%{transform:scale(1);opacity:.3}36.1%{transform:scale(1.06);opacity:1}50%{transform:scale(1.06);opacity:1}86.1%{transform:scale(1);opacity:.3}}.msportalfx-svg-flip-horizontal&gt;svg,svg.msportalfx-svg-flip-horizontal{transform:scaleX(-1)}.msportalfx-svg-fabric-rotate360{animation:ImageRotation 1.3s cubic-bezier(.53,.21,.29,.67) infinite}@keyframes ImageRotation{0%{transform:rotate(-45deg)}100%{transform:rotate(315deg)}}.fxs-svg-number .msportalfx-font-bold{font-size:10px;fill:#0065ad}.fxs-svg-number .fxs-svg-circle{stroke-width:0%;fill:#0078d4}.fxs-svg-number .fxs-svg-text{fill:#fff;font-size:10px}.fxs-svg-number.msportalfx-svg-disabled{filter:grayscale(0%)}.fxs-svg-number.msportalfx-svg-disabled .fxs-svg-circle{fill:#fff;stroke-width:1px;stroke:#949494}.fxs-svg-number.msportalfx-svg-disabled .fxs-svg-text{fill:#949494}.fxs-theme-dark .fxs-svg-number .fxs-svg-text{fill:#0f0f0f}.fxs-theme-dark .fxs-svg-number .fxs-svg-circle{stroke-width:0%;fill:#0078d4}.fxs-theme-dark .fxs-svg-number.msportalfx-svg-disabled .fxs-svg-circle{fill:#0f0f0f;stroke-width:1px;stroke:#949494}.fxs-theme-dark .fxs-svg-number.msportalfx-svg-disabled .fxs-svg-text{fill:#949494}</style></svg>