<svg viewBox="0 0 318 319" class="msportalfx-svg-placeholder" xmlns="http://www.w3.org/2000/svg"><title>Microsoft Web IQ resource</title><desc>Microsoft Web IQ resources provide web intelligence for AI applications.</desc><path fill="#195B9A" d="M104 127h110c.661 6.612 1.158 12.936 1.168 19.54l.012 2.655q.013 4.215.007 8.43l.002 2.895c-.019 36.97-.019 36.97-3.189 46.48H106c-6.357-12.713-3.193-34.823-3.187-48.875l-.003-2.768c0-2.658.01-5.316.022-7.974l.004-2.372c.05-6.096.607-11.88 1.164-18.011" /><path fill="#0A6CBC" d="M168.063 1.438c19.996 11.53 29.223 39.534 35.115 60.483 1.523 5.706 2.89 11.444 4.197 17.204l.76 3.338 1.312 6.045c.812 5.126 1.122 10.32 1.553 15.492H107c2.981-32.79 12.116-74.979 37.23-98.562 7.043-5.721 15.247-7.704 23.833-4" /><path fill="#254E80" d="M237 127h78c2.986 10.45 3.275 20.306 3.313 31.125l.008 2.28c.015 16.34-2.127 31.012-7.321 46.595h-75c0-5.768.002-11.104.494-16.774.533-6.96.635-13.865.604-20.843l-.003-3.293c-.006-3.989-.02-7.977-.032-11.965z" /><path fill="#086FC2" d="M3 127h78c-.062 27.125-.062 27.125-.09 35.598l-.008 6.785-.015 3.447c0 6.91.3 13.726.898 20.61.273 4.512.215 9.04.215 13.56H7c-5.147-16.728-7.278-31.007-7.312-48.312l-.011-2.203C-.383 133.767-.383 133.767 3 127" /><path fill="#235085" d="M110 230h99c-5.846 26.892-5.846 26.892-8.75 35.25l-1.018 2.977c-6.085 17.321-14.307 38.55-31.044 48.21-5.318 2.377-10.696 2.545-16.286.973C135.65 310.4 127.277 290.366 121 275c-3.825-10.282-6.857-20.842-9.437-31.5l-.498-2.047C110.15 237.42 110 234.243 110 230" /><path fill="#1263AB" d="M204 6c25.276 6.064 47.048 20.736 66 38l2.262 2.043C287.873 60.895 300.397 80.93 308 101v3q-14.25.034-28.502.052-6.616.007-13.234.023-6.38.016-12.76.02-2.44.003-4.879.01-3.405.01-6.81.009l-3.923.006C235 104 235 104 234 103a88 88 0 0 1-.762-4.469l-.442-2.88c-.16-1.04-.32-2.08-.483-3.151-4.603-28.482-11.86-56.274-26.547-81.312C204 8 204 8 204 6" /><path fill="#0176D1" d="M114 6c-1.508 4.081-3.486 7.716-5.625 11.5-12.558 23.069-18.214 48.804-22.784 74.44-.78 4.038-1.7 8.046-2.591 12.06H10c4.222-21.11 19.74-40.504 34-56l2.04-2.254C60.562 30.45 91.747 6 114 6" /><path fill="#1262A9" d="M17 230h69l6 27c1.534 5.314 3.07 10.48 4.875 15.688l.637 1.876c3.616 10.641 7.78 20.706 13.637 30.323 1.005 1.673 1.934 3.39 2.851 5.113l-1 2c-40.302-13.63-74.48-39.276-94.75-77.281C17 232 17 232 17 230" /><path fill="#2D446D" d="M232 230h69c-2.255 6.765-2.255 6.765-4.066 9.7l-1.208 1.958-1.288 2.03-1.346 2.13c-3.928 6.117-8.294 11.72-13.092 17.182l-2.14 2.508C259.254 286.856 233.503 304.455 206 312h-2c1.508-4.081 3.486-7.716 5.625-11.5 11.956-21.963 17.266-46.23 22.375-70.5" /><style>.msportalfx-svg-c01{fill:#fff}.msportalfx-svg-c02{fill:#e5e5e5}.msportalfx-svg-c03{fill:#a0a1a2}.msportalfx-svg-c04{fill:#7a7a7a}.msportalfx-svg-c05{fill:var(--fxs-svg-c05-fill,#3e3e3e)}.msportalfx-svg-c06{fill:#1e1e1e}.msportalfx-svg-c07{fill:var(--fxs-svg-c07-fill,#0f0f0f)}.msportalfx-svg-c08{fill:#ba141a}.msportalfx-svg-c09{fill:#dd5900}.msportalfx-svg-c10{fill:#ff8c00}.msportalfx-svg-c11{fill:#fcd116}.msportalfx-svg-c12{fill:#fee087}.msportalfx-svg-c13{fill:#b8d432}.msportalfx-svg-c14,.msportalfx-svg-c32{fill:#57a300}.msportalfx-svg-c15{fill:#59b4d9}.msportalfx-svg-c16{fill:#3999c6}.msportalfx-svg-c17{fill:#804998}.msportalfx-svg-c18{fill:#ec008c}.msportalfx-svg-c19{fill:#0072c6}.msportalfx-svg-c20{fill:#68217a}.msportalfx-svg-c21{fill:#00188f}.msportalfx-svg-c22{fill:var(--fxs-svg-c22-fill,#e81123)}.fxs-mode-light{--fxs-svg-c22-fill:#a4262c}.msportalfx-svg-c23{fill:#cae3f3}.msportalfx-svg-c24{fill:#59aed3}.msportalfx-svg-c25{fill:#4c3b12}.msportalfx-svg-c26{fill:#be9555}.msportalfx-svg-c27{fill:#4f4d52}.msportalfx-svg-c28{fill:#ef6f59}.msportalfx-svg-c29{fill:#f7cb64}.msportalfx-svg-c30{fill:#fdd8db}.msportalfx-svg-c31{fill:#f6ffec}.msportalfx-svg-c33{fill:#8a2da5}.msportalfx-svg-c34{fill:#e00b1c}.msportalfx-svg-c35{fill:#015cda}.msportalfx-svg-c36{fill:#5db300}.msportalfx-svg-c97{fill:#ffb900}.msportalfx-svg-c98{fill:#00a4ef}.msportalfx-svg-c99{fill:#f25022}.msportalfx-inverted-theme,.fxs-theme-dark{--fxs-svg-c05-fill:#777;--fxs-svg-c07-fill:#f2f2f2}.msportalfx-svg-palette-white{fill:#fff}.msportalfx-svg-palette-blue{fill:#015cda}.msportalfx-svg-palette-black{fill:#1e1e1e}.msportalfx-svg-palette-green{fill:#57a300}.msportalfx-svg-palette-gray{fill:#a0a1a2}.msportalfx-svg-palette-inherit{fill:inherit}.msportalfx-svg-badge{position:absolute;left:0;bottom:0;min-height:10px;min-width:10px}.fxc-menu-icon&gt;.msportalfx-svg-badge{left:-2px;bottom:-2px;min-height:8px;min-width:8px}.msportalfx-svg-disabled{filter:grayscale(100%)}.msportalfx-svg-loading-square{animation:ProgressFlagAnimation 1.45s infinite ease-in-out;transform-origin:50%}.msportalfx-svg-loading-square:nth-child(1){animation-delay:0s}.msportalfx-svg-loading-square:nth-child(2){animation-delay:.2s}.msportalfx-svg-loading-square:nth-child(3){animation-delay:.4s}@keyframes ProgressFlagAnimation{0%{transform:scale(1);opacity:.3}36.1%{transform:scale(1.06);opacity:1}50%{transform:scale(1.06);opacity:1}86.1%{transform:scale(1);opacity:.3}}.msportalfx-svg-flip-horizontal&gt;svg,svg.msportalfx-svg-flip-horizontal{transform:scaleX(-1)}.msportalfx-svg-fabric-rotate360{animation:ImageRotation 1.3s cubic-bezier(.53,.21,.29,.67) infinite}@keyframes ImageRotation{0%{transform:rotate(-45deg)}100%{transform:rotate(315deg)}}.msportalfx-ascend.msportalfx-svg-c07{opacity:var(--fxs-svg-sortarrow-ascend-opacity,1);fill:var(--fxs-svg-sortarrow-ascend-fill,var(--fxs-svg-c07-fill,#0f0f0f))}.msportalfx-descend.msportalfx-svg-c07{opacity:var(--fxs-svg-sortarrow-descend-opacity,1);fill:var(--fxs-svg-sortarrow-descend-fill,var(--fxs-svg-c07-fill,#0f0f0f))}.fxs-svg-number .msportalfx-font-bold{font-size:10px;fill:#0065ad}.fxs-svg-number .fxs-svg-circle{fill:var(--fxs-svg-num-circle-fill,#0078d4);stroke:var(--fxs-svg-num-circle-stroke,none);stroke-width:var(--fxs-svg-num-circle-stroke-width,0%)}.fxs-svg-number .fxs-svg-text{fill:var(--fxs-svg-num-text-fill,#fff);font-size:10px}.fxs-svg-number.msportalfx-svg-disabled{filter:grayscale(0%);--fxs-svg-num-circle-fill:var(--fxs-svg-num-disabled-circle-fill,#fff);--fxs-svg-num-circle-stroke:#949494;--fxs-svg-num-circle-stroke-width:1px;--fxs-svg-num-text-fill:#949494}.fxs-theme-dark{--fxs-svg-num-text-fill:#0f0f0f;--fxs-svg-num-disabled-circle-fill:#0f0f0f}</style></svg>