<svg fill="none" viewBox="0 0 34 34" class="msportalfx-svg-placeholder" xmlns="http://www.w3.org/2000/svg"><title>Extended Security Updates - Windows Server 2012/R2</title><desc>Create and attach an Extended Security Updates (ESUs) license to eligible Arc-enabled machines to continue receiving critical security updates automatically.</desc><path fill="#0078D4" d="M28.57 15.4c0 8.878-10.718 16.008-13.05 17.455a.84.84 0 0 1-.889 0c-2.33-1.447-13.05-8.587-13.05-17.455V4.722a.85.85 0 0 1 .83-.844C10.747 3.658 8.828 0 15.074 0s4.33 3.659 12.667 3.885a.85.85 0 0 1 .828.845z" /><path fill="url(#p0pYjOU3W__a)" d="M27.451 15.489c0 8.133-9.822 14.68-11.968 16.008a.77.77 0 0 1-.814 0C12.531 30.17 2.701 23.624 2.701 15.488V5.706a.776.776 0 0 1 .756-.774c7.65-.21 5.89-3.565 11.618-3.565 5.73 0 3.967 3.357 11.617 3.565a.777.777 0 0 1 .756.774z" /><path fill="#76BC2D" d="M22.565 34c5.442 0 9.854-4.412 9.854-9.855 0-5.442-4.412-9.854-9.854-9.854-5.443 0-9.855 4.412-9.855 9.854 0 5.443 4.412 9.855 9.855 9.855" /><path fill="#fff" d="M15.527 23.22a.346.346 0 0 1-.478-.122l-.418-.703a.35.35 0 0 1 .123-.478l3.308-1.962a.346.346 0 0 1 .477.122l1.963 3.308a.346.346 0 0 1-.123.478l-.702.417a.35.35 0 0 1-.478-.123l-.582-.982a4.5 4.5 0 0 0-.09 1.657 4.1 4.1 0 0 0 .545 1.57c.203.35.458.669.756.944a4.35 4.35 0 0 0 3.017 1.156.344.344 0 0 1 .34.315l.158 1.7a6.2 6.2 0 0 1-1.785-.096 6.6 6.6 0 0 1-1.67-.578 6.29 6.29 0 0 1-3.215-7.299zm8.039-3.21c.394.079.775.212 1.133.396.357.183.687.413.982.684a4.13 4.13 0 0 1 1.307 2.504 4.5 4.5 0 0 1-.09 1.657l-.582-.982a.35.35 0 0 0-.478-.123l-.703.417a.35.35 0 0 0-.122.478l1.962 3.31a.35.35 0 0 0 .478.12l3.308-1.962a.35.35 0 0 0 .122-.478l-.417-.703a.35.35 0 0 0-.478-.12l-1.145.678a6.29 6.29 0 0 0-1.77-6.288 6.4 6.4 0 0 0-1.444-1.007 6.5 6.5 0 0 0-1.67-.578 6.2 6.2 0 0 0-1.426-.12.343.343 0 0 0-.325.379l.124 1.34a.343.343 0 0 0 .342.318q.452-.005.892.093z" /><defs><linearGradient id="p0pYjOU3W__a" x1="15.075" x2="15.075" y1="31.614" y2="1.367" gradientUnits="userSpaceOnUse"><stop stop-color="#0078D4" /><stop offset="1" stop-color="#5EA0EF" /></linearGradient></defs><style>.msportalfx-svg-c01{fill:#fff}.msportalfx-svg-c02{fill:#e5e5e5}.msportalfx-svg-c03{fill:#a0a1a2}.msportalfx-svg-c04{fill:#7a7a7a}.msportalfx-svg-c05{fill:#3e3e3e}.msportalfx-svg-c06{fill:#1e1e1e}.msportalfx-svg-c07{fill:#0f0f0f}.msportalfx-svg-c08{fill:#ba141a}.msportalfx-svg-c09{fill:#dd5900}.msportalfx-svg-c10{fill:#ff8c00}.msportalfx-svg-c11{fill:#fcd116}.msportalfx-svg-c12{fill:#fee087}.msportalfx-svg-c13{fill:#b8d432}.msportalfx-svg-c14,.msportalfx-svg-c32{fill:#57a300}.msportalfx-svg-c15{fill:#59b4d9}.msportalfx-svg-c16{fill:#3999c6}.msportalfx-svg-c17{fill:#804998}.msportalfx-svg-c18{fill:#ec008c}.msportalfx-svg-c19{fill:#0072c6}.msportalfx-svg-c20{fill:#68217a}.msportalfx-svg-c21{fill:#00188f}.msportalfx-svg-c22{fill:#e81123}.fxs-mode-light .msportalfx-svg-c22{fill:#a4262c}.msportalfx-svg-c23{fill:#cae3f3}.msportalfx-svg-c24{fill:#59aed3}.msportalfx-svg-c25{fill:#4c3b12}.msportalfx-svg-c26{fill:#be9555}.msportalfx-svg-c27{fill:#4f4d52}.msportalfx-svg-c28{fill:#ef6f59}.msportalfx-svg-c29{fill:#f7cb64}.msportalfx-svg-c30{fill:#fdd8db}.msportalfx-svg-c31{fill:#f6ffec}.msportalfx-svg-c33{fill:#8a2da5}.msportalfx-svg-c34{fill:#e00b1c}.msportalfx-svg-c35{fill:#015cda}.msportalfx-svg-c36{fill:#5db300}.msportalfx-svg-c97{fill:#ffb900}.msportalfx-svg-c98{fill:#00a4ef}.msportalfx-svg-c99{fill:#f25022}.msportalfx-inverted-theme .msportalfx-svg-c05,.fxs-theme-dark .msportalfx-svg-c05{fill:#777}.msportalfx-inverted-theme .msportalfx-svg-c07,.fxs-theme-dark .msportalfx-svg-c07{fill:#f2f2f2}.msportalfx-svg-palette-white{fill:#fff}.msportalfx-svg-palette-blue{fill:#015cda}.msportalfx-svg-palette-black{fill:#1e1e1e}.msportalfx-svg-palette-green{fill:#57a300}.msportalfx-svg-palette-gray{fill:#a0a1a2}.msportalfx-svg-palette-inherit{fill:inherit}.msportalfx-svg-badge{position:absolute;left:0;bottom:0;min-height:10px;min-width:10px}.fxc-menu-icon&gt;.msportalfx-svg-badge{left:-2px;bottom:-2px;min-height:8px;min-width:8px}.msportalfx-svg-disabled{filter:grayscale(100%)}.msportalfx-svg-loading-square{animation:ProgressFlagAnimation 1.45s infinite ease-in-out;transform-origin:50%}.msportalfx-svg-loading-square:nth-child(1){animation-delay:0s}.msportalfx-svg-loading-square:nth-child(2){animation-delay:.2s}.msportalfx-svg-loading-square:nth-child(3){animation-delay:.4s}@keyframes ProgressFlagAnimation{0%{transform:scale(1);opacity:.3}36.1%{transform:scale(1.06);opacity:1}50%{transform:scale(1.06);opacity:1}86.1%{transform:scale(1);opacity:.3}}.msportalfx-svg-flip-horizontal&gt;svg,svg.msportalfx-svg-flip-horizontal{transform:scaleX(-1)}.msportalfx-svg-fabric-rotate360{animation:ImageRotation 1.3s cubic-bezier(.53,.21,.29,.67) infinite}@keyframes ImageRotation{0%{transform:rotate(-45deg)}100%{transform:rotate(315deg)}}.fxs-svg-number .msportalfx-font-bold{font-size:10px;fill:#0065ad}.fxs-svg-number .fxs-svg-circle{stroke-width:0%;fill:#0078d4}.fxs-svg-number .fxs-svg-text{fill:#fff;font-size:10px}.fxs-svg-number.msportalfx-svg-disabled{filter:grayscale(0%)}.fxs-svg-number.msportalfx-svg-disabled .fxs-svg-circle{fill:#fff;stroke-width:1px;stroke:#949494}.fxs-svg-number.msportalfx-svg-disabled .fxs-svg-text{fill:#949494}.fxs-theme-dark .fxs-svg-number .fxs-svg-text{fill:#0f0f0f}.fxs-theme-dark .fxs-svg-number .fxs-svg-circle{stroke-width:0%;fill:#0078d4}.fxs-theme-dark .fxs-svg-number.msportalfx-svg-disabled .fxs-svg-circle{fill:#0f0f0f;stroke-width:1px;stroke:#949494}.fxs-theme-dark .fxs-svg-number.msportalfx-svg-disabled .fxs-svg-text{fill:#949494}</style></svg>