<svg fill="none" viewBox="0 0 28 28" class="msportalfx-svg-placeholder" xmlns="http://www.w3.org/2000/svg"><title>Azure App Testing</title><desc></desc><g clip-path="url(#p5bjTBuRY__a)"><path fill="#58AAFE" d="M16.206 12.19a12.13 12.13 0 0 1 6.392-1.81 7.26 7.26 0 0 0-7.478-6.963 7.55 7.55 0 0 0-7.174 4.835c3.215 0 6.127 1.5 8.261 3.939z" /><path fill="#2052CB" d="M10.458 21.59h9.318c-.125-3.684-1.467-6.997-3.57-9.4a12.16 12.16 0 0 0-5.748 9.4" /><path fill="#367AF2" d="M16.206 12.19c-2.133-2.438-5.046-3.94-8.262-3.94a6.85 6.85 0 0 0-4.256 2.192 6.85 6.85 0 0 0-1.786 4.44 7 7 0 0 0 2.23 4.851 6.97 6.97 0 0 0 5.005 1.856q.318.023.633 0h.686a12.16 12.16 0 0 1 5.747-9.4zm9.916.042a5.77 5.77 0 0 0-3.526-1.85c-2.346 0-4.535.663-6.392 1.81 2.102 2.403 3.446 5.714 3.57 9.4h1.703q.152.022.302 0a5.83 5.83 0 0 0 5.83-5.664 5.77 5.77 0 0 0-1.488-3.693z" /><path fill="#16BBDA" d="M26.753 27.65h-12.99c-.416 0-.66-.661-.43-1.01l4.472-6.522a.46.46 0 0 0 .095-.296V15.51a.274.274 0 0 0-.257-.257h-.242a.52.52 0 0 1-.363-.149.52.52 0 0 1-.15-.362v-.229A.517.517 0 0 1 17.4 14h5.7a.513.513 0 0 1 .513.513v.229a.513.513 0 0 1-.513.512h-.242a.254.254 0 0 0-.257.257v4.325c0 .106.03.21.095.296l4.472 6.508c.229.338-.012 1.01-.415 1.01" /><path fill="#fff" d="m15.26 25.898 3.396-4.959c.158-.2.252-.445.269-.7v-1.994a.39.39 0 0 1 .39-.39h1.942a.39.39 0 0 1 .39.39v2.13c0 .169.051.332.15.472l3.476 5.053a.31.31 0 0 1-.244.471h-9.431a.294.294 0 0 1-.413-.29.3.3 0 0 1 .076-.181z" /><path fill="#6FE8F5" d="m25.27 25.899-1.892-2.75c.049.074.65 1.014-.57 1.014-1.536 0-2.56-1.28-3.802-1.28-1.067 0-1.983.438-2.606 1.348L15.26 25.9a.295.295 0 0 0-.022.372.29.29 0 0 0 .358.1h9.43a.32.32 0 0 0 .256-.167.31.31 0 0 0-.012-.303z" /><path fill="url(#p5bjTBuRY__b)" d="M13.88 5.31a.65.65 0 0 0-.31-.234l-1.62-.526a3.35 3.35 0 0 1-1.288-.812 3.35 3.35 0 0 1-.792-1.3L9.344.818a.63.63 0 0 0-.235-.31.63.63 0 0 0-.737 0h-.005a.66.66 0 0 0-.235.312l-.526 1.62a3.33 3.33 0 0 1-2.115 2.112l-1.621.526-.031.007a.65.65 0 0 0-.428.604.635.635 0 0 0 .428.603l1.62.526a3.33 3.33 0 0 1 2.116 2.113l.526 1.619a.65.65 0 0 0 .605.428.63.63 0 0 0 .37-.118l.032-.025a.64.64 0 0 0 .202-.287l.526-1.619q.043-.129.094-.253a3.35 3.35 0 0 1 2.02-1.869l1.62-.525a.65.65 0 0 0 .428-.604.63.63 0 0 0-.118-.367m-6.232 6.746-1.157-.377a2.38 2.38 0 0 1-1.489-1.509l-.376-1.157a.45.45 0 0 0-.43-.305.46.46 0 0 0-.432.305l-.378 1.157a2.37 2.37 0 0 1-1.51 1.51l-1.158.376-.024.006a.45.45 0 0 0-.305.43.45.45 0 0 0 .305.43l1.157.378a2.37 2.37 0 0 1 1.51 1.509l.377 1.157a.46.46 0 0 0 .865 0l.376-1.157a2.38 2.38 0 0 1 1.51-1.515l1.158-.377a.45.45 0 0 0 .305-.43.45.45 0 0 0-.084-.265.45.45 0 0 0-.22-.166" /></g><defs><linearGradient id="p5bjTBuRY__b" x1=".977" x2="11.4" y1="3.706" y2="12.454" gradientUnits="userSpaceOnUse"><stop offset=".466" stop-color="#FFCD0F" /><stop offset=".991" stop-color="#E67505" /></linearGradient><clipPath id="p5bjTBuRY__a"><path fill="#fff" d="M0 0h28v28H0z" /></clipPath></defs><style>.msportalfx-svg-c01{fill:#fff}.msportalfx-svg-c02{fill:#e5e5e5}.msportalfx-svg-c03{fill:#a0a1a2}.msportalfx-svg-c04{fill:#7a7a7a}.msportalfx-svg-c05{fill:#3e3e3e}.msportalfx-svg-c06{fill:#1e1e1e}.msportalfx-svg-c07{fill:#0f0f0f}.msportalfx-svg-c08{fill:#ba141a}.msportalfx-svg-c09{fill:#dd5900}.msportalfx-svg-c10{fill:#ff8c00}.msportalfx-svg-c11{fill:#fcd116}.msportalfx-svg-c12{fill:#fee087}.msportalfx-svg-c13{fill:#b8d432}.msportalfx-svg-c14,.msportalfx-svg-c32{fill:#57a300}.msportalfx-svg-c15{fill:#59b4d9}.msportalfx-svg-c16{fill:#3999c6}.msportalfx-svg-c17{fill:#804998}.msportalfx-svg-c18{fill:#ec008c}.msportalfx-svg-c19{fill:#0072c6}.msportalfx-svg-c20{fill:#68217a}.msportalfx-svg-c21{fill:#00188f}.msportalfx-svg-c22{fill:#e81123}.fxs-mode-light .msportalfx-svg-c22{fill:#a4262c}.msportalfx-svg-c23{fill:#cae3f3}.msportalfx-svg-c24{fill:#59aed3}.msportalfx-svg-c25{fill:#4c3b12}.msportalfx-svg-c26{fill:#be9555}.msportalfx-svg-c27{fill:#4f4d52}.msportalfx-svg-c28{fill:#ef6f59}.msportalfx-svg-c29{fill:#f7cb64}.msportalfx-svg-c30{fill:#fdd8db}.msportalfx-svg-c31{fill:#f6ffec}.msportalfx-svg-c33{fill:#8a2da5}.msportalfx-svg-c34{fill:#e00b1c}.msportalfx-svg-c35{fill:#015cda}.msportalfx-svg-c36{fill:#5db300}.msportalfx-svg-c97{fill:#ffb900}.msportalfx-svg-c98{fill:#00a4ef}.msportalfx-svg-c99{fill:#f25022}.msportalfx-inverted-theme .msportalfx-svg-c05,.fxs-theme-dark .msportalfx-svg-c05{fill:#777}.msportalfx-inverted-theme .msportalfx-svg-c07,.fxs-theme-dark .msportalfx-svg-c07{fill:#f2f2f2}.msportalfx-svg-palette-white{fill:#fff}.msportalfx-svg-palette-blue{fill:#015cda}.msportalfx-svg-palette-black{fill:#1e1e1e}.msportalfx-svg-palette-green{fill:#57a300}.msportalfx-svg-palette-gray{fill:#a0a1a2}.msportalfx-svg-palette-inherit{fill:inherit}.msportalfx-svg-badge{position:absolute;left:0;bottom:0;min-height:10px;min-width:10px}.fxc-menu-icon&gt;.msportalfx-svg-badge{left:-2px;bottom:-2px;min-height:8px;min-width:8px}.msportalfx-svg-disabled{filter:grayscale(100%)}.msportalfx-svg-loading-square{animation:ProgressFlagAnimation 1.45s infinite ease-in-out;transform-origin:50%}.msportalfx-svg-loading-square:nth-child(1){animation-delay:0s}.msportalfx-svg-loading-square:nth-child(2){animation-delay:.2s}.msportalfx-svg-loading-square:nth-child(3){animation-delay:.4s}@keyframes ProgressFlagAnimation{0%{transform:scale(1);opacity:.3}36.1%{transform:scale(1.06);opacity:1}50%{transform:scale(1.06);opacity:1}86.1%{transform:scale(1);opacity:.3}}.msportalfx-svg-flip-horizontal&gt;svg,svg.msportalfx-svg-flip-horizontal{transform:scaleX(-1)}.msportalfx-svg-fabric-rotate360{animation:ImageRotation 1.3s cubic-bezier(.53,.21,.29,.67) infinite}@keyframes ImageRotation{0%{transform:rotate(-45deg)}100%{transform:rotate(315deg)}}.fxs-svg-number .msportalfx-font-bold{font-size:10px;fill:#0065ad}.fxs-svg-number .fxs-svg-circle{stroke-width:0%;fill:#0078d4}.fxs-svg-number .fxs-svg-text{fill:#fff;font-size:10px}.fxs-svg-number.msportalfx-svg-disabled{filter:grayscale(0%)}.fxs-svg-number.msportalfx-svg-disabled .fxs-svg-circle{fill:#fff;stroke-width:1px;stroke:#949494}.fxs-svg-number.msportalfx-svg-disabled .fxs-svg-text{fill:#949494}.fxs-theme-dark .fxs-svg-number .fxs-svg-text{fill:#0f0f0f}.fxs-theme-dark .fxs-svg-number .fxs-svg-circle{stroke-width:0%;fill:#0078d4}.fxs-theme-dark .fxs-svg-number.msportalfx-svg-disabled .fxs-svg-circle{fill:#0f0f0f;stroke-width:1px;stroke:#949494}.fxs-theme-dark .fxs-svg-number.msportalfx-svg-disabled .fxs-svg-text{fill:#949494}</style></svg>