<svg fill="none" viewBox="0 0 32 32" class="msportalfx-svg-placeholder" xmlns="http://www.w3.org/2000/svg"><title>Playwright Workspace</title><desc>Use Playwright Workspaces to run Playwright tests with much higher parallelization across different operating system-browser combinations simultaneously.</desc><g clip-path="url(#pE6kmdoL6__a)"><path fill="url(#pE6kmdoL6__b)" d="M23.84 9.778h-1.618c-.978 0-1.778.8-1.778 1.778h-8a2.663 2.663 0 0 0-2.666 2.666v3.538H6.88C3.182 17.866.107 14.95 0 11.235a6.61 6.61 0 0 1 5.76-6.524C6.809 1.866 9.529-.036 12.569 0a6.966 6.966 0 0 1 7.111 6.809 5.55 5.55 0 0 1 3.164 1.582c.101.1.19.202.297.322l.077.087c.249.302.462.622.622.978" /><path fill="url(#pE6kmdoL6__c)" d="M21.333 12.445v18.62c0 .508-.43.939-.936.894-5.453-.473-9.73-5.049-9.73-10.625v-7.112c0-.981.796-1.777 1.777-1.777z" /><path fill="url(#pE6kmdoL6__d)" d="M22.222 10.667h8c.981 0 1.778.796 1.778 1.777v7.112c0 5.888-4.779 10.666-10.667 10.666V11.556a.89.89 0 0 1 .89-.89" /><path fill="#40601F" d="M26.665 16.889c1.297 0 2.378.926 2.617 2.155.053.266-.17.512-.44.512H24.49c-.27 0-.49-.246-.44-.512a2.67 2.67 0 0 1 2.617-2.155zm-.923 6.727a3.555 3.555 0 0 1-3.52 3.05h-.889v-3.555H25.3c.268 0 .481.238.444.505z" /><path fill="#962424" d="M18.617 19.044c.053.266-.17.512-.44.512h-4.355c-.27 0-.49-.246-.44-.512a2.667 2.667 0 0 1 5.235 0m-1.25 7.623a.448.448 0 0 1-.444-.505 3.555 3.555 0 0 1 3.52-3.05h.888v3.555h-3.966z" /><path fill="url(#pE6kmdoL6__e)" d="M21.333 12.445v18.62c0 .508-.43.939-.936.894-5.453-.473-9.73-5.049-9.73-10.625v-7.112c0-.981.796-1.777 1.777-1.777z" /></g><defs><linearGradient id="pE6kmdoL6__b" x1="12.231" x2="12.231" y1="20.471" y2="-3.833" gradientUnits="userSpaceOnUse"><stop stop-color="#0078D4" /><stop offset=".16" stop-color="#1380DA" /><stop offset=".53" stop-color="#3C91E5" /><stop offset=".82" stop-color="#559CEC" /><stop offset="1" stop-color="#5EA0EF" /></linearGradient><linearGradient id="pE6kmdoL6__c" x1="16" x2="16" y1="38" y2="1.444" gradientUnits="userSpaceOnUse"><stop stop-color="#E62323" /><stop offset="1" stop-color="#FF7381" /></linearGradient><linearGradient id="pE6kmdoL6__d" x1="26.667" x2="26.667" y1="30.221" y2="10.667" gradientUnits="userSpaceOnUse"><stop stop-color="#76BC2D" /><stop offset=".817" stop-color="#86D633" /></linearGradient><linearGradient id="pE6kmdoL6__e" x1="18.651" x2="21.66" y1="22.203" y2="22.203" gradientUnits="userSpaceOnUse"><stop stop-color="#E62323" stop-opacity="0" /><stop offset="1" stop-opacity=".2" /></linearGradient><clipPath id="pE6kmdoL6__a"><path fill="#fff" d="M0 0h32v32H0z" /></clipPath></defs><style>.msportalfx-svg-c01{fill:#fff}.msportalfx-svg-c02{fill:#e5e5e5}.msportalfx-svg-c03{fill:#a0a1a2}.msportalfx-svg-c04{fill:#7a7a7a}.msportalfx-svg-c05{fill:#3e3e3e}.msportalfx-svg-c06{fill:#1e1e1e}.msportalfx-svg-c07{fill:#0f0f0f}.msportalfx-svg-c08{fill:#ba141a}.msportalfx-svg-c09{fill:#dd5900}.msportalfx-svg-c10{fill:#ff8c00}.msportalfx-svg-c11{fill:#fcd116}.msportalfx-svg-c12{fill:#fee087}.msportalfx-svg-c13{fill:#b8d432}.msportalfx-svg-c14,.msportalfx-svg-c32{fill:#57a300}.msportalfx-svg-c15{fill:#59b4d9}.msportalfx-svg-c16{fill:#3999c6}.msportalfx-svg-c17{fill:#804998}.msportalfx-svg-c18{fill:#ec008c}.msportalfx-svg-c19{fill:#0072c6}.msportalfx-svg-c20{fill:#68217a}.msportalfx-svg-c21{fill:#00188f}.msportalfx-svg-c22{fill:#e81123}.fxs-mode-light .msportalfx-svg-c22{fill:#a4262c}.msportalfx-svg-c23{fill:#cae3f3}.msportalfx-svg-c24{fill:#59aed3}.msportalfx-svg-c25{fill:#4c3b12}.msportalfx-svg-c26{fill:#be9555}.msportalfx-svg-c27{fill:#4f4d52}.msportalfx-svg-c28{fill:#ef6f59}.msportalfx-svg-c29{fill:#f7cb64}.msportalfx-svg-c30{fill:#fdd8db}.msportalfx-svg-c31{fill:#f6ffec}.msportalfx-svg-c33{fill:#8a2da5}.msportalfx-svg-c34{fill:#e00b1c}.msportalfx-svg-c35{fill:#015cda}.msportalfx-svg-c36{fill:#5db300}.msportalfx-svg-c97{fill:#ffb900}.msportalfx-svg-c98{fill:#00a4ef}.msportalfx-svg-c99{fill:#f25022}.msportalfx-inverted-theme .msportalfx-svg-c05,.fxs-theme-dark .msportalfx-svg-c05{fill:#777}.msportalfx-inverted-theme .msportalfx-svg-c07,.fxs-theme-dark .msportalfx-svg-c07{fill:#f2f2f2}.msportalfx-svg-palette-white{fill:#fff}.msportalfx-svg-palette-blue{fill:#015cda}.msportalfx-svg-palette-black{fill:#1e1e1e}.msportalfx-svg-palette-green{fill:#57a300}.msportalfx-svg-palette-gray{fill:#a0a1a2}.msportalfx-svg-palette-inherit{fill:inherit}.msportalfx-svg-badge{position:absolute;left:0;bottom:0;min-height:10px;min-width:10px}.fxc-menu-icon&gt;.msportalfx-svg-badge{left:-2px;bottom:-2px;min-height:8px;min-width:8px}.msportalfx-svg-disabled{filter:grayscale(100%)}.msportalfx-svg-loading-square{animation:ProgressFlagAnimation 1.45s infinite ease-in-out;transform-origin:50%}.msportalfx-svg-loading-square:nth-child(1){animation-delay:0s}.msportalfx-svg-loading-square:nth-child(2){animation-delay:.2s}.msportalfx-svg-loading-square:nth-child(3){animation-delay:.4s}@keyframes ProgressFlagAnimation{0%{transform:scale(1);opacity:.3}36.1%{transform:scale(1.06);opacity:1}50%{transform:scale(1.06);opacity:1}86.1%{transform:scale(1);opacity:.3}}.msportalfx-svg-flip-horizontal&gt;svg,svg.msportalfx-svg-flip-horizontal{transform:scaleX(-1)}.msportalfx-svg-fabric-rotate360{animation:ImageRotation 1.3s cubic-bezier(.53,.21,.29,.67) infinite}@keyframes ImageRotation{0%{transform:rotate(-45deg)}100%{transform:rotate(315deg)}}.fxs-svg-number .msportalfx-font-bold{font-size:10px;fill:#0065ad}.fxs-svg-number .fxs-svg-circle{stroke-width:0%;fill:#0078d4}.fxs-svg-number .fxs-svg-text{fill:#fff;font-size:10px}.fxs-svg-number.msportalfx-svg-disabled{filter:grayscale(0%)}.fxs-svg-number.msportalfx-svg-disabled .fxs-svg-circle{fill:#fff;stroke-width:1px;stroke:#949494}.fxs-svg-number.msportalfx-svg-disabled .fxs-svg-text{fill:#949494}.fxs-theme-dark .fxs-svg-number .fxs-svg-text{fill:#0f0f0f}.fxs-theme-dark .fxs-svg-number .fxs-svg-circle{stroke-width:0%;fill:#0078d4}.fxs-theme-dark .fxs-svg-number.msportalfx-svg-disabled .fxs-svg-circle{fill:#0f0f0f;stroke-width:1px;stroke:#949494}.fxs-theme-dark .fxs-svg-number.msportalfx-svg-disabled .fxs-svg-text{fill:#949494}</style></svg>