<svg xml:space="preserve" viewBox="0 0 50 50"><circle cx="24.3" cy="11.1" r="4" fill="#7FBA00"/><circle cx="24.6" cy="38.9" r="4" fill="#7FBA00"/><path fill="#59B4D9" d="M14.5 40.9h-1.9c-6.1 0-11.1-5-11.1-11.1v-9.7c.1-5.8 5-10.8 11-11.1h3c1 0 1.8.8 1.8 1.8s-.8 1.8-1.8 1.8h-2.9c-4 .2-7.4 3.5-7.4 7.4v9.7c0 4.1 3.3 7.4 7.4 7.4h1.9c1 0 1.8.8 1.8 1.8 0 1.2-.8 2-1.8 2"/><path fill="#804998" d="M37.4 40.9h-3.9c-1 0-1.8-.8-1.8-1.8s.8-1.8 1.8-1.8h3.9c4.1 0 7.4-3.3 7.4-7.4v-9.7c0-4.1-3.3-7.4-7.4-7.4h-2.9c-1 0-1.8-.8-1.8-1.8s.8-1.8 1.8-1.8h2.9c6.1 0 11.1 5 11.1 11.1V30c0 6-5 10.9-11.1 10.9"/><path fill="#68217A" d="M24.1 22.2c-2.8 0-5.7-1.1-7.8-3.2-.7-.7-.7-1.9 0-2.6s1.9-.7 2.6 0c2.9 2.9 7.6 2.9 10.4 0 2.9-2.9 2.9-7.6 0-10.4-1.4-1.4-3.3-2.2-5.2-2.2-2 0-3.8.8-5.2 2.2-.7.7-1.9.7-2.6 0s-.7-1.9 0-2.6C18.4 1.2 21.2 0 24.1 0c3 0 5.7 1.2 7.8 3.2 4.3 4.3 4.3 11.4 0 15.7-2.1 2.2-4.9 3.3-7.8 3.3"/><path fill="#0072C6" d="M24.5 50c-3 0-5.7-1.2-7.8-3.2-4.3-4.3-4.3-11.4 0-15.7 2.1-2.1 4.9-3.2 7.8-3.2 3 0 5.7 1.2 7.8 3.2.7.7.7 1.9 0 2.6s-1.9.7-2.6 0c-1.4-1.4-3.3-2.2-5.2-2.2-2 0-3.8.8-5.2 2.2-2.9 2.9-2.9 7.6 0 10.4 1.4 1.4 3.2 2.2 5.2 2.2s3.8-.8 5.2-2.2c.7-.7 1.9-.7 2.6 0s.7 1.9 0 2.6c-2 2.1-4.8 3.3-7.8 3.3"/><style>.msportalfx-svg-c01{fill:#fff}.msportalfx-svg-c02{fill:#e5e5e5}.msportalfx-svg-c03{fill:#a0a1a2}.msportalfx-svg-c04{fill:#7a7a7a}.msportalfx-svg-c05{fill:#3e3e3e}.msportalfx-svg-c06{fill:#1e1e1e}.msportalfx-svg-c07{fill:#0f0f0f}.msportalfx-svg-c08{fill:#ba141a}.msportalfx-svg-c09{fill:#dd5900}.msportalfx-svg-c10{fill:#ff8c00}.msportalfx-svg-c11{fill:#fcd116}.msportalfx-svg-c12{fill:#fee087}.msportalfx-svg-c13{fill:#b8d432}.msportalfx-svg-c14,.msportalfx-svg-c32{fill:#57a300}.msportalfx-svg-c15{fill:#59b4d9}.msportalfx-svg-c16{fill:#3999c6}.msportalfx-svg-c17{fill:#804998}.msportalfx-svg-c18{fill:#ec008c}.msportalfx-svg-c19{fill:#0072c6}.msportalfx-svg-c20{fill:#68217a}.msportalfx-svg-c21{fill:#00188f}.msportalfx-svg-c22{fill:#e81123}.fxs-mode-light .msportalfx-svg-c22{fill:#a4262c}.msportalfx-svg-c23{fill:#cae3f3}.msportalfx-svg-c24{fill:#59aed3}.msportalfx-svg-c25{fill:#4c3b12}.msportalfx-svg-c26{fill:#be9555}.msportalfx-svg-c27{fill:#4f4d52}.msportalfx-svg-c28{fill:#ef6f59}.msportalfx-svg-c29{fill:#f7cb64}.msportalfx-svg-c30{fill:#fdd8db}.msportalfx-svg-c31{fill:#f6ffec}.msportalfx-svg-c33{fill:#8a2da5}.msportalfx-svg-c34{fill:#e00b1c}.msportalfx-svg-c35{fill:#015cda}.msportalfx-svg-c36{fill:#5db300}.msportalfx-svg-c97{fill:#ffb900}.msportalfx-svg-c98{fill:#00a4ef}.msportalfx-svg-c99{fill:#f25022}.msportalfx-inverted-theme .msportalfx-svg-c05,.fxs-theme-dark .msportalfx-svg-c05{fill:#777}.msportalfx-inverted-theme .msportalfx-svg-c07,.fxs-theme-dark .msportalfx-svg-c07{fill:#f2f2f2}.msportalfx-svg-palette-white{fill:#fff}.msportalfx-svg-palette-blue{fill:#015cda}.msportalfx-svg-palette-black{fill:#1e1e1e}.msportalfx-svg-palette-green{fill:#57a300}.msportalfx-svg-palette-gray{fill:#a0a1a2}.msportalfx-svg-palette-inherit{fill:inherit}.msportalfx-svg-badge{position:absolute;left:0;bottom:0;min-height:10px;min-width:10px}.fxc-menu-icon>.msportalfx-svg-badge{left:-2px;bottom:-2px;min-height:8px;min-width:8px}.msportalfx-svg-disabled{filter:grayscale(100%)}.msportalfx-svg-loading-square{animation:ProgressFlagAnimation 1.45s infinite ease-in-out;transform-origin:50%}.msportalfx-svg-loading-square:nth-child(1){animation-delay:0s}.msportalfx-svg-loading-square:nth-child(2){animation-delay:.2s}.msportalfx-svg-loading-square:nth-child(3){animation-delay:.4s}@keyframes ProgressFlagAnimation{0%{transform:scale(1);opacity:.3}36.1%{transform:scale(1.06);opacity:1}50%{transform:scale(1.06);opacity:1}86.1%{transform:scale(1);opacity:.3}}.msportalfx-svg-flip-horizontal>svg,svg.msportalfx-svg-flip-horizontal{transform:scaleX(-1)}.msportalfx-svg-fabric-rotate360{animation:ImageRotation 1.3s cubic-bezier(.53,.21,.29,.67) infinite}@keyframes ImageRotation{0%{transform:rotate(-45deg)}100%{transform:rotate(315deg)}}.fxs-svg-number .msportalfx-font-bold{font-size:10px;fill:#0065ad}.fxs-svg-number .fxs-svg-circle{stroke-width:0%;fill:#0078d4}.fxs-svg-number .fxs-svg-text{fill:#fff;font-size:10px}.fxs-svg-number.msportalfx-svg-disabled{filter:grayscale(0%)}.fxs-svg-number.msportalfx-svg-disabled .fxs-svg-circle{fill:#fff;stroke-width:1px;stroke:#949494}.fxs-svg-number.msportalfx-svg-disabled .fxs-svg-text{fill:#949494}.fxs-theme-dark .fxs-svg-number .fxs-svg-text{fill:#0f0f0f}.fxs-theme-dark .fxs-svg-number .fxs-svg-circle{stroke-width:0%;fill:#0078d4}.fxs-theme-dark .fxs-svg-number.msportalfx-svg-disabled .fxs-svg-circle{fill:#0f0f0f;stroke-width:1px;stroke:#949494}.fxs-theme-dark .fxs-svg-number.msportalfx-svg-disabled .fxs-svg-text{fill:#949494}</style></svg>