<svg viewBox="0 0 18 18"><defs><linearGradient id="pvmiUgf56__a" x1="6.11" x2="6.11" y1="12.5" y2="9.42" gradientUnits="userSpaceOnUse"><stop offset="0" stop-color="#6f4bb2"/><stop offset="1" stop-color="#c69aeb"/></linearGradient><linearGradient id="pvmiUgf56__b" x1="12.06" x2="12.06" y1="12.5" y2="9.42" gradientUnits="userSpaceOnUse"><stop offset="0" stop-color="#6f4bb2"/><stop offset="1" stop-color="#c69aeb"/></linearGradient></defs><path fill="#949494" d="M12.38 10.79 9.4 6.01l-.27.17-.26-.17-2.99 4.78.61.37 2.64-4.23 2.65 4.24z"/><circle cx="9.08" cy="6.21" r="1.54" fill="#86d633"/><circle cx="6.11" cy="10.96" r="1.54" fill="url(#pvmiUgf56__a)"/><circle cx="12.06" cy="10.96" r="1.54" fill="url(#pvmiUgf56__b)"/><g fill="#999"><path d="M1.15 1.27h1.29v3.6a.29.29 0 0 1-.29.29H.87a.29.29 0 0 1-.29-.29v-3a.57.57 0 0 1 .57-.6"/><path d="M1.15 1.27h1.29v3.6a.29.29 0 0 1-.29.29H.87a.29.29 0 0 1-.29-.29v-3a.57.57 0 0 1 .57-.6" opacity=".5"/></g><g fill="#999"><path d="M15.72 1.27H17a.57.57 0 0 1 .57.57v3a.29.29 0 0 1-.29.29H16a.29.29 0 0 1-.29-.29V1.27z"/><path d="M15.72 1.27H17a.57.57 0 0 1 .57.57v3a.29.29 0 0 1-.29.29H16a.29.29 0 0 1-.29-.29V1.27z" opacity=".5"/></g><path fill="#949494" d="M17.58 1.84V3.1h-17V1.84a.57.57 0 0 1 .57-.57h15.86a.57.57 0 0 1 .57.57"/><g fill="#999"><path d="M.87 12.52h1.29a.29.29 0 0 1 .29.29v3.6h-1.3a.57.57 0 0 1-.57-.57v-3a.29.29 0 0 1 .29-.32"/><path d="M.87 12.52h1.29a.29.29 0 0 1 .29.29v3.6h-1.3a.57.57 0 0 1-.57-.57v-3a.29.29 0 0 1 .29-.32" opacity=".5"/></g><g fill="#999"><path d="M16 12.52h1.3a.29.29 0 0 1 .29.29v3a.57.57 0 0 1-.57.57h-1.3v-3.6a.29.29 0 0 1 .28-.26"/><path d="M16 12.52h1.3a.29.29 0 0 1 .29.29v3a.57.57 0 0 1-.57.57h-1.3v-3.6a.29.29 0 0 1 .28-.26" opacity=".5"/></g><path fill="#949494" d="M.58 15.85v-1.26h17v1.26a.57.57 0 0 1-.57.57H1.15a.57.57 0 0 1-.57-.57"/><style>.msportalfx-svg-c01{fill:#fff}.msportalfx-svg-c02{fill:#e5e5e5}.msportalfx-svg-c03{fill:#a0a1a2}.msportalfx-svg-c04{fill:#7a7a7a}.msportalfx-svg-c05{fill:#3e3e3e}.msportalfx-svg-c06{fill:#1e1e1e}.msportalfx-svg-c07{fill:#0f0f0f}.msportalfx-svg-c08{fill:#ba141a}.msportalfx-svg-c09{fill:#dd5900}.msportalfx-svg-c10{fill:#ff8c00}.msportalfx-svg-c11{fill:#fcd116}.msportalfx-svg-c12{fill:#fee087}.msportalfx-svg-c13{fill:#b8d432}.msportalfx-svg-c14,.msportalfx-svg-c32{fill:#57a300}.msportalfx-svg-c15{fill:#59b4d9}.msportalfx-svg-c16{fill:#3999c6}.msportalfx-svg-c17{fill:#804998}.msportalfx-svg-c18{fill:#ec008c}.msportalfx-svg-c19{fill:#0072c6}.msportalfx-svg-c20{fill:#68217a}.msportalfx-svg-c21{fill:#00188f}.msportalfx-svg-c22{fill:#e81123}.fxs-mode-light .msportalfx-svg-c22{fill:#a4262c}.msportalfx-svg-c23{fill:#cae3f3}.msportalfx-svg-c24{fill:#59aed3}.msportalfx-svg-c25{fill:#4c3b12}.msportalfx-svg-c26{fill:#be9555}.msportalfx-svg-c27{fill:#4f4d52}.msportalfx-svg-c28{fill:#ef6f59}.msportalfx-svg-c29{fill:#f7cb64}.msportalfx-svg-c30{fill:#fdd8db}.msportalfx-svg-c31{fill:#f6ffec}.msportalfx-svg-c33{fill:#8a2da5}.msportalfx-svg-c34{fill:#e00b1c}.msportalfx-svg-c35{fill:#015cda}.msportalfx-svg-c36{fill:#5db300}.msportalfx-svg-c97{fill:#ffb900}.msportalfx-svg-c98{fill:#00a4ef}.msportalfx-svg-c99{fill:#f25022}.msportalfx-inverted-theme .msportalfx-svg-c05,.fxs-theme-dark .msportalfx-svg-c05{fill:#777}.msportalfx-inverted-theme .msportalfx-svg-c07,.fxs-theme-dark .msportalfx-svg-c07{fill:#f2f2f2}.msportalfx-svg-palette-white{fill:#fff}.msportalfx-svg-palette-blue{fill:#015cda}.msportalfx-svg-palette-black{fill:#1e1e1e}.msportalfx-svg-palette-green{fill:#57a300}.msportalfx-svg-palette-gray{fill:#a0a1a2}.msportalfx-svg-palette-inherit{fill:inherit}.msportalfx-svg-badge{position:absolute;left:0;bottom:0;min-height:10px;min-width:10px}.fxc-menu-icon>.msportalfx-svg-badge{left:-2px;bottom:-2px;min-height:8px;min-width:8px}.msportalfx-svg-disabled{filter:grayscale(100%)}.msportalfx-svg-loading-square{animation:ProgressFlagAnimation 1.45s infinite ease-in-out;transform-origin:50%}.msportalfx-svg-loading-square:nth-child(1){animation-delay:0s}.msportalfx-svg-loading-square:nth-child(2){animation-delay:.2s}.msportalfx-svg-loading-square:nth-child(3){animation-delay:.4s}@keyframes ProgressFlagAnimation{0%{transform:scale(1);opacity:.3}36.1%{transform:scale(1.06);opacity:1}50%{transform:scale(1.06);opacity:1}86.1%{transform:scale(1);opacity:.3}}.msportalfx-svg-flip-horizontal>svg,svg.msportalfx-svg-flip-horizontal{transform:scaleX(-1)}.msportalfx-svg-fabric-rotate360{animation:ImageRotation 1.3s cubic-bezier(.53,.21,.29,.67) infinite}@keyframes ImageRotation{0%{transform:rotate(-45deg)}100%{transform:rotate(315deg)}}.fxs-svg-number .msportalfx-font-bold{font-size:10px;fill:#0065ad}.fxs-svg-number .fxs-svg-circle{stroke-width:0%;fill:#0078d4}.fxs-svg-number .fxs-svg-text{fill:#fff;font-size:10px}.fxs-svg-number.msportalfx-svg-disabled{filter:grayscale(0%)}.fxs-svg-number.msportalfx-svg-disabled .fxs-svg-circle{fill:#fff;stroke-width:1px;stroke:#949494}.fxs-svg-number.msportalfx-svg-disabled .fxs-svg-text{fill:#949494}.fxs-theme-dark .fxs-svg-number .fxs-svg-text{fill:#0f0f0f}.fxs-theme-dark .fxs-svg-number .fxs-svg-circle{stroke-width:0%;fill:#0078d4}.fxs-theme-dark .fxs-svg-number.msportalfx-svg-disabled .fxs-svg-circle{fill:#0f0f0f;stroke-width:1px;stroke:#949494}.fxs-theme-dark .fxs-svg-number.msportalfx-svg-disabled .fxs-svg-text{fill:#949494}</style></svg>