<svg fill="none" viewBox="0 0 24 24" class="msportalfx-svg-placeholder" xmlns="http://www.w3.org/2000/svg"><title>Log Analytics dedicated cluster</title><desc>Dedicated cluster in Azure Monitor enables advanced security and control capabilities including Customer-managed keys, Lockbox, Availability zones, Ingest from Azure Event Hubs, and cost optimization. Linking and unlinking workspaces from cluster has no interruption to ingestion and query operations.</desc><path fill="#50CBFF" fill-rule="evenodd" d="M24 16.8v.202a6.9 6.9 0 0 1-1.981 4.92 6.93 6.93 0 0 1-4.886 2.077h-6.4a.75.75 0 0 1-.75-.75v-4.211h-4.24a.75.75 0 0 1-.75-.75v-4.233H.752a.753.753 0 0 1-.753-.75V6.998a6.92 6.92 0 0 1 1.984-4.92A6.95 6.95 0 0 1 6.869 0h.143a6.96 6.96 0 0 1 4.3 1.434 6.94 6.94 0 0 1 2.5 3.774 6.96 6.96 0 0 1 4.977 4.95 6.96 6.96 0 0 1 5.001 5.006c.133.535.204 1.084.21 1.636" clip-rule="evenodd" /><path fill="#2D9CCC" fill-rule="evenodd" d="M19.013 11.84v.206a6.9 6.9 0 0 1-1.983 4.917 6.93 6.93 0 0 1-4.886 2.075H9.98v-2.096a6.9 6.9 0 0 1 1.753-4.671 6.93 6.93 0 0 1-4.574 1.784H4.992v-2.073a6.9 6.9 0 0 1 1.984-4.923 6.93 6.93 0 0 1 4.89-2.074H12a7 7 0 0 1 1.806.22v.014c.135.534.206 1.082.211 1.633v.205a6.88 6.88 0 0 1-1.75 4.67 6.92 6.92 0 0 1 4.58-1.786h.14a7 7 0 0 1 1.8.217c0 .017.009.032.013.05a7 7 0 0 1 .213 1.633" clip-rule="evenodd" /><path fill="url(#phxGHxKZQ__a)" fill-rule="evenodd" d="M23.79 15.164a6.94 6.94 0 0 0-5.001-5.005 6.95 6.95 0 0 0-4.981-4.953 6.94 6.94 0 0 0-2.5-3.772A6.96 6.96 0 0 0 7.012 0H6.87a6.95 6.95 0 0 0-4.886 2.08A6.92 6.92 0 0 0 0 6.997v6.308a.75.75 0 0 0 .752.75h4.24v4.238a.75.75 0 0 0 .75.75H9.98v4.207a.75.75 0 0 0 .75.75h6.4a6.94 6.94 0 0 0 4.888-2.077A6.92 6.92 0 0 0 24 17.002V16.8a7 7 0 0 0-.21-1.636" clip-rule="evenodd" opacity=".3" /><defs><linearGradient id="phxGHxKZQ__a" x1="3.5" x2="11.486" y1="6" y2="15.512" gradientUnits="userSpaceOnUse"><stop stop-color="#fff" /><stop offset="0" stop-color="#fff" /><stop offset="1" stop-color="#fff" stop-opacity="0" /></linearGradient></defs><style>.msportalfx-svg-c01{fill:#fff}.msportalfx-svg-c02{fill:#e5e5e5}.msportalfx-svg-c03{fill:#a0a1a2}.msportalfx-svg-c04{fill:#7a7a7a}.msportalfx-svg-c05{fill:#3e3e3e}.msportalfx-svg-c06{fill:#1e1e1e}.msportalfx-svg-c07{fill:#0f0f0f}.msportalfx-svg-c08{fill:#ba141a}.msportalfx-svg-c09{fill:#dd5900}.msportalfx-svg-c10{fill:#ff8c00}.msportalfx-svg-c11{fill:#fcd116}.msportalfx-svg-c12{fill:#fee087}.msportalfx-svg-c13{fill:#b8d432}.msportalfx-svg-c14,.msportalfx-svg-c32{fill:#57a300}.msportalfx-svg-c15{fill:#59b4d9}.msportalfx-svg-c16{fill:#3999c6}.msportalfx-svg-c17{fill:#804998}.msportalfx-svg-c18{fill:#ec008c}.msportalfx-svg-c19{fill:#0072c6}.msportalfx-svg-c20{fill:#68217a}.msportalfx-svg-c21{fill:#00188f}.msportalfx-svg-c22{fill:#e81123}.fxs-mode-light .msportalfx-svg-c22{fill:#a4262c}.msportalfx-svg-c23{fill:#cae3f3}.msportalfx-svg-c24{fill:#59aed3}.msportalfx-svg-c25{fill:#4c3b12}.msportalfx-svg-c26{fill:#be9555}.msportalfx-svg-c27{fill:#4f4d52}.msportalfx-svg-c28{fill:#ef6f59}.msportalfx-svg-c29{fill:#f7cb64}.msportalfx-svg-c30{fill:#fdd8db}.msportalfx-svg-c31{fill:#f6ffec}.msportalfx-svg-c33{fill:#8a2da5}.msportalfx-svg-c34{fill:#e00b1c}.msportalfx-svg-c35{fill:#015cda}.msportalfx-svg-c36{fill:#5db300}.msportalfx-svg-c97{fill:#ffb900}.msportalfx-svg-c98{fill:#00a4ef}.msportalfx-svg-c99{fill:#f25022}.msportalfx-inverted-theme .msportalfx-svg-c05,.fxs-theme-dark .msportalfx-svg-c05{fill:#777}.msportalfx-inverted-theme .msportalfx-svg-c07,.fxs-theme-dark .msportalfx-svg-c07{fill:#f2f2f2}.msportalfx-svg-palette-white{fill:#fff}.msportalfx-svg-palette-blue{fill:#015cda}.msportalfx-svg-palette-black{fill:#1e1e1e}.msportalfx-svg-palette-green{fill:#57a300}.msportalfx-svg-palette-gray{fill:#a0a1a2}.msportalfx-svg-palette-inherit{fill:inherit}.msportalfx-svg-badge{position:absolute;left:0;bottom:0;min-height:10px;min-width:10px}.fxc-menu-icon&gt;.msportalfx-svg-badge{left:-2px;bottom:-2px;min-height:8px;min-width:8px}.msportalfx-svg-disabled{filter:grayscale(100%)}.msportalfx-svg-loading-square{animation:ProgressFlagAnimation 1.45s infinite ease-in-out;transform-origin:50%}.msportalfx-svg-loading-square:nth-child(1){animation-delay:0s}.msportalfx-svg-loading-square:nth-child(2){animation-delay:.2s}.msportalfx-svg-loading-square:nth-child(3){animation-delay:.4s}@keyframes ProgressFlagAnimation{0%{transform:scale(1);opacity:.3}36.1%{transform:scale(1.06);opacity:1}50%{transform:scale(1.06);opacity:1}86.1%{transform:scale(1);opacity:.3}}.msportalfx-svg-flip-horizontal&gt;svg,svg.msportalfx-svg-flip-horizontal{transform:scaleX(-1)}.msportalfx-svg-fabric-rotate360{animation:ImageRotation 1.3s cubic-bezier(.53,.21,.29,.67) infinite}@keyframes ImageRotation{0%{transform:rotate(-45deg)}100%{transform:rotate(315deg)}}.fxs-svg-number .msportalfx-font-bold{font-size:10px;fill:#0065ad}.fxs-svg-number .fxs-svg-circle{stroke-width:0%;fill:#0078d4}.fxs-svg-number .fxs-svg-text{fill:#fff;font-size:10px}.fxs-svg-number.msportalfx-svg-disabled{filter:grayscale(0%)}.fxs-svg-number.msportalfx-svg-disabled .fxs-svg-circle{fill:#fff;stroke-width:1px;stroke:#949494}.fxs-svg-number.msportalfx-svg-disabled .fxs-svg-text{fill:#949494}.fxs-theme-dark .fxs-svg-number .fxs-svg-text{fill:#0f0f0f}.fxs-theme-dark .fxs-svg-number .fxs-svg-circle{stroke-width:0%;fill:#0078d4}.fxs-theme-dark .fxs-svg-number.msportalfx-svg-disabled .fxs-svg-circle{fill:#0f0f0f;stroke-width:1px;stroke:#949494}.fxs-theme-dark .fxs-svg-number.msportalfx-svg-disabled .fxs-svg-text{fill:#949494}</style></svg>