<svg fill="none" viewBox="0 0 18 18" class="msportalfx-svg-placeholder" xmlns='http://www.w3.org/2000/svg'><g clip-path="url(#pNGFlkwlA__a)"><path fill="url(#pNGFlkwlA__b)" d="M15.882 6.855a2.76 2.76 0 0 0-.635-1.721 2.46 2.46 0 0 0-1.533-.866 3.45 3.45 0 0 0-1.001-2.311 3.04 3.04 0 0 0-2.236-.897 3.1 3.1 0 0 0-1.885.608 3.43 3.43 0 0 0-1.206 1.66 2.92 2.92 0 0 0-1.844 1.011 3.3 3.3 0 0 0-.777 2.05c.01.426.1.845.263 1.234.163.388.397.739.689 1.03.29.292.633.52 1.007.67s.773.22 1.172.204h5.478a2.46 2.46 0 0 0 1.767-.79 2.8 2.8 0 0 0 .741-1.883"/><path fill="#fff" d="m13.153 4.224-1.497-1.483c-.163-.167-.302-.108-.302.15v.667a.19.19 0 0 1-.117.172.2.2 0 0 1-.071.011c-.965 0-3.656.258-3.754 4.009 0 .05.02.1.055.135a.2.2 0 0 0 .133.056h.957a.2.2 0 0 0 .139-.062.2.2 0 0 0 .049-.146 2.34 2.34 0 0 1 .529-2.029c.24-.27.539-.48.874-.61s.694-.176 1.05-.136c.05 0 .098.02.133.056a.2.2 0 0 1 .056.135v.617q-.002.462.302.15l1.464-1.375a.19.19 0 0 0 .082-.158.2.2 0 0 0-.082-.159"/><g clip-path="url(#pNGFlkwlA__c)"><path fill="#0078D7" d="M.206 6.235c0-.406.33-.735.735-.735H10.5c.406 0 .735.33.735.735v9.56a.735.735 0 0 1-.735.734H.941a.735.735 0 0 1-.735-.735z"/><path fill="#fff" fill-opacity=".8" fill-rule="evenodd" d="M6.088 10.647V5.5h-.735v5.147H.206v.735h5.147v5.147h.735v-5.147h5.147v-.735z" clip-rule="evenodd"/><path fill="#fff" fill-rule="evenodd" d="M2.412 14.324V7.706h.735v6.618z" clip-rule="evenodd"/><path fill="#fff" fill-rule="evenodd" d="m2.676 8.223.52-.52 5.514 5.514-.52.52z" clip-rule="evenodd"/><path fill="#fff" fill-rule="evenodd" d="M9.03 8.441H3.146v-.735h5.882z" clip-rule="evenodd"/><path fill="url(#pNGFlkwlA__d)" d="M2.78 9.912a1.838 1.838 0 1 0 0-3.677 1.838 1.838 0 0 0 0 3.677"/><path fill="url(#pNGFlkwlA__e)" d="M8.662 9.176a1.103 1.103 0 1 0 0-2.205 1.103 1.103 0 0 0 0 2.205"/><path fill="url(#pNGFlkwlA__f)" d="M2.78 15.059a1.103 1.103 0 1 0 0-2.206 1.103 1.103 0 0 0 0 2.206"/><path fill="url(#pNGFlkwlA__g)" d="M8.662 15.059a1.103 1.103 0 1 0 0-2.206 1.103 1.103 0 0 0 0 2.206"/></g></g><defs><linearGradient id="pNGFlkwlA__b" x1="10.323" x2="10.323" y1="9.523" y2="1.06" gradientUnits="userSpaceOnUse"><stop stop-color="#198AB3"/><stop offset=".13" stop-color="#21A0C7"/><stop offset=".31" stop-color="#28B7DB"/><stop offset=".5" stop-color="#2EC7EA"/><stop offset=".72" stop-color="#31D1F2"/><stop offset="1" stop-color="#32D4F5"/></linearGradient><linearGradient id="pNGFlkwlA__d" x1="2.793" x2="2.773" y1="9.959" y2="7.299" gradientUnits="userSpaceOnUse"><stop stop-color="#CCC"/><stop offset=".12" stop-color="#D7D7D7"/><stop offset=".42" stop-color="#EBEBEB"/><stop offset=".72" stop-color="#F8F8F8"/><stop offset="1" stop-color="#FCFCFC"/></linearGradient><linearGradient id="pNGFlkwlA__e" x1="8.67" x2="8.658" y1="9.205" y2="7.609" gradientUnits="userSpaceOnUse"><stop stop-color="#CCC"/><stop offset=".12" stop-color="#D7D7D7"/><stop offset=".42" stop-color="#EBEBEB"/><stop offset=".72" stop-color="#F8F8F8"/><stop offset="1" stop-color="#FCFCFC"/></linearGradient><linearGradient id="pNGFlkwlA__f" x1="2.787" x2="2.775" y1="15.087" y2="13.491" gradientUnits="userSpaceOnUse"><stop stop-color="#CCC"/><stop offset=".12" stop-color="#D7D7D7"/><stop offset=".42" stop-color="#EBEBEB"/><stop offset=".72" stop-color="#F8F8F8"/><stop offset="1" stop-color="#FCFCFC"/></linearGradient><linearGradient id="pNGFlkwlA__g" x1="8.67" x2="8.658" y1="15.087" y2="13.491" gradientUnits="userSpaceOnUse"><stop stop-color="#CCC"/><stop offset=".12" stop-color="#D7D7D7"/><stop offset=".42" stop-color="#EBEBEB"/><stop offset=".72" stop-color="#F8F8F8"/><stop offset="1" stop-color="#FCFCFC"/></linearGradient><clipPath id="pNGFlkwlA__a"><path fill="#fff" d="M0 0h18v18H0z"/></clipPath><clipPath id="pNGFlkwlA__c"><path fill="#fff" d="M-.53 4.765h12.5v12.5H-.53z"/></clipPath></defs><style>.msportalfx-svg-c01{fill:#fff}.msportalfx-svg-c02{fill:#e5e5e5}.msportalfx-svg-c03{fill:#a0a1a2}.msportalfx-svg-c04{fill:#7a7a7a}.msportalfx-svg-c05{fill:#3e3e3e}.msportalfx-svg-c06{fill:#1e1e1e}.msportalfx-svg-c07{fill:#0f0f0f}.msportalfx-svg-c08{fill:#ba141a}.msportalfx-svg-c09{fill:#dd5900}.msportalfx-svg-c10{fill:#ff8c00}.msportalfx-svg-c11{fill:#fcd116}.msportalfx-svg-c12{fill:#fee087}.msportalfx-svg-c13{fill:#b8d432}.msportalfx-svg-c14,.msportalfx-svg-c32{fill:#57a300}.msportalfx-svg-c15{fill:#59b4d9}.msportalfx-svg-c16{fill:#3999c6}.msportalfx-svg-c17{fill:#804998}.msportalfx-svg-c18{fill:#ec008c}.msportalfx-svg-c19{fill:#0072c6}.msportalfx-svg-c20{fill:#68217a}.msportalfx-svg-c21{fill:#00188f}.msportalfx-svg-c22{fill:#e81123}.fxs-mode-light .msportalfx-svg-c22{fill:#a4262c}.msportalfx-svg-c23{fill:#cae3f3}.msportalfx-svg-c24{fill:#59aed3}.msportalfx-svg-c25{fill:#4c3b12}.msportalfx-svg-c26{fill:#be9555}.msportalfx-svg-c27{fill:#4f4d52}.msportalfx-svg-c28{fill:#ef6f59}.msportalfx-svg-c29{fill:#f7cb64}.msportalfx-svg-c30{fill:#fdd8db}.msportalfx-svg-c31{fill:#f6ffec}.msportalfx-svg-c33{fill:#8a2da5}.msportalfx-svg-c34{fill:#e00b1c}.msportalfx-svg-c35{fill:#015cda}.msportalfx-svg-c36{fill:#5db300}.msportalfx-svg-c97{fill:#ffb900}.msportalfx-svg-c98{fill:#00a4ef}.msportalfx-svg-c99{fill:#f25022}.msportalfx-inverted-theme .msportalfx-svg-c05,.fxs-theme-dark .msportalfx-svg-c05{fill:#777}.msportalfx-inverted-theme .msportalfx-svg-c07,.fxs-theme-dark .msportalfx-svg-c07{fill:#f2f2f2}.msportalfx-svg-palette-white{fill:#fff}.msportalfx-svg-palette-blue{fill:#015cda}.msportalfx-svg-palette-black{fill:#1e1e1e}.msportalfx-svg-palette-green{fill:#57a300}.msportalfx-svg-palette-gray{fill:#a0a1a2}.msportalfx-svg-palette-inherit{fill:inherit}.msportalfx-svg-badge{position:absolute;left:0;bottom:0;min-height:10px;min-width:10px}.fxc-menu-icon>.msportalfx-svg-badge{left:-2px;bottom:-2px;min-height:8px;min-width:8px}.msportalfx-svg-disabled{filter:grayscale(100%)}.msportalfx-svg-loading-square{animation:ProgressFlagAnimation 1.45s infinite ease-in-out;transform-origin:50%}.msportalfx-svg-loading-square:nth-child(1){animation-delay:0s}.msportalfx-svg-loading-square:nth-child(2){animation-delay:.2s}.msportalfx-svg-loading-square:nth-child(3){animation-delay:.4s}@keyframes ProgressFlagAnimation{0%{transform:scale(1);opacity:.3}36.1%{transform:scale(1.06);opacity:1}50%{transform:scale(1.06);opacity:1}86.1%{transform:scale(1);opacity:.3}}.msportalfx-svg-flip-horizontal>svg,svg.msportalfx-svg-flip-horizontal{transform:scaleX(-1)}.msportalfx-svg-fabric-rotate360{animation:ImageRotation 1.3s cubic-bezier(.53,.21,.29,.67) infinite}@keyframes ImageRotation{0%{transform:rotate(-45deg)}100%{transform:rotate(315deg)}}.fxs-svg-number .msportalfx-font-bold{font-size:10px;fill:#0065ad}.fxs-svg-number .fxs-svg-circle{stroke-width:0%;fill:#0078d4}.fxs-svg-number .fxs-svg-text{fill:#fff;font-size:10px}.fxs-svg-number.msportalfx-svg-disabled{filter:grayscale(0%)}.fxs-svg-number.msportalfx-svg-disabled .fxs-svg-circle{fill:#fff;stroke-width:1px;stroke:#949494}.fxs-svg-number.msportalfx-svg-disabled .fxs-svg-text{fill:#949494}.fxs-theme-dark .fxs-svg-number .fxs-svg-text{fill:#0f0f0f}.fxs-theme-dark .fxs-svg-number .fxs-svg-circle{stroke-width:0%;fill:#0078d4}.fxs-theme-dark .fxs-svg-number.msportalfx-svg-disabled .fxs-svg-circle{fill:#0f0f0f;stroke-width:1px;stroke:#949494}.fxs-theme-dark .fxs-svg-number.msportalfx-svg-disabled .fxs-svg-text{fill:#949494}</style></svg>