<svg viewBox="0 0 18 18" xmlns='http://www.w3.org/2000/svg'><defs><radialGradient id="p5Ob4G22P__a" cx="7.18" cy="9.5" r="7.38" gradientUnits="userSpaceOnUse"><stop offset="0" stop-color="#76bc2d"/><stop offset=".41" stop-color="#74b92c"/><stop offset=".66" stop-color="#6fb12a"/><stop offset=".88" stop-color="#66a227"/><stop offset="1" stop-color="#5e9624"/></radialGradient></defs><title>Icon-manage-302</title><path fill="#258277" d="M10 10.24a1 1 0 0 1-.31.79 1.5 1.5 0 0 1-.89.37v.6h-.44v-.62a2.36 2.36 0 0 1-1.1-.28v-.81a1.8 1.8 0 0 0 .5.25 2.5 2.5 0 0 0 .6.14V9.64a2.4 2.4 0 0 1-.91-.53 1.15 1.15 0 0 1 .06-1.55 1.4 1.4 0 0 1 .85-.38v-.55h.43v.54a2.2 2.2 0 0 1 .92.2v.8a2.3 2.3 0 0 0-.92-.31V9a2.34 2.34 0 0 1 .92.54 1 1 0 0 1 .29.7M8.36 8.81v-.93A.4.4 0 0 0 8 8.3c0 .21.13.38.4.51Zm.85 1.47c0-.19-.14-.34-.42-.47v.9c.28-.05.42-.19.42-.43"/><path fill="#ffca00" d="M16.54 9.49h-3.6a4.43 4.43 0 0 1-1.48 3.3l2.39 2.69a8 8 0 0 0 2.69-6"/><path fill="url(#p5Ob4G22P__a)" d="M8.52 13.93a4.43 4.43 0 0 1 0-8.86V1.49a8 8 0 0 0-8 8 8 8 0 0 0 8 8 8 8 0 0 0 5.34-2l-2.4-2.69a4.38 4.38 0 0 1-2.94 1.13"/><path fill="#ccc" d="M8.15.48v4.16a5.09 5.09 0 0 1 5.17 5.18h4.18A9.34 9.34 0 0 0 8.15.48"/><path fill="#999" d="M13.34 9.82a5.13 5.13 0 0 0-5.06-5.18h-.13l.33.62a4.5 4.5 0 0 1 4.23 4.25Z"/><style>.msportalfx-svg-c01{fill:#fff}.msportalfx-svg-c02{fill:#e5e5e5}.msportalfx-svg-c03{fill:#a0a1a2}.msportalfx-svg-c04{fill:#7a7a7a}.msportalfx-svg-c05{fill:#3e3e3e}.msportalfx-svg-c06{fill:#1e1e1e}.msportalfx-svg-c07{fill:#0f0f0f}.msportalfx-svg-c08{fill:#ba141a}.msportalfx-svg-c09{fill:#dd5900}.msportalfx-svg-c10{fill:#ff8c00}.msportalfx-svg-c11{fill:#fcd116}.msportalfx-svg-c12{fill:#fee087}.msportalfx-svg-c13{fill:#b8d432}.msportalfx-svg-c14,.msportalfx-svg-c32{fill:#57a300}.msportalfx-svg-c15{fill:#59b4d9}.msportalfx-svg-c16{fill:#3999c6}.msportalfx-svg-c17{fill:#804998}.msportalfx-svg-c18{fill:#ec008c}.msportalfx-svg-c19{fill:#0072c6}.msportalfx-svg-c20{fill:#68217a}.msportalfx-svg-c21{fill:#00188f}.msportalfx-svg-c22{fill:#e81123}.fxs-mode-light .msportalfx-svg-c22{fill:#a4262c}.msportalfx-svg-c23{fill:#cae3f3}.msportalfx-svg-c24{fill:#59aed3}.msportalfx-svg-c25{fill:#4c3b12}.msportalfx-svg-c26{fill:#be9555}.msportalfx-svg-c27{fill:#4f4d52}.msportalfx-svg-c28{fill:#ef6f59}.msportalfx-svg-c29{fill:#f7cb64}.msportalfx-svg-c30{fill:#fdd8db}.msportalfx-svg-c31{fill:#f6ffec}.msportalfx-svg-c33{fill:#8a2da5}.msportalfx-svg-c34{fill:#e00b1c}.msportalfx-svg-c35{fill:#015cda}.msportalfx-svg-c36{fill:#5db300}.msportalfx-svg-c97{fill:#ffb900}.msportalfx-svg-c98{fill:#00a4ef}.msportalfx-svg-c99{fill:#f25022}.msportalfx-inverted-theme .msportalfx-svg-c05,.fxs-theme-dark .msportalfx-svg-c05{fill:#777}.msportalfx-inverted-theme .msportalfx-svg-c07,.fxs-theme-dark .msportalfx-svg-c07{fill:#f2f2f2}.msportalfx-svg-palette-white{fill:#fff}.msportalfx-svg-palette-blue{fill:#015cda}.msportalfx-svg-palette-black{fill:#1e1e1e}.msportalfx-svg-palette-green{fill:#57a300}.msportalfx-svg-palette-gray{fill:#a0a1a2}.msportalfx-svg-palette-inherit{fill:inherit}.msportalfx-svg-badge{position:absolute;left:0;bottom:0;min-height:10px;min-width:10px}.fxc-menu-icon>.msportalfx-svg-badge{left:-2px;bottom:-2px;min-height:8px;min-width:8px}.msportalfx-svg-disabled{filter:grayscale(100%)}.msportalfx-svg-loading-square{animation:ProgressFlagAnimation 1.45s infinite ease-in-out;transform-origin:50%}.msportalfx-svg-loading-square:nth-child(1){animation-delay:0s}.msportalfx-svg-loading-square:nth-child(2){animation-delay:.2s}.msportalfx-svg-loading-square:nth-child(3){animation-delay:.4s}@keyframes ProgressFlagAnimation{0%{transform:scale(1);opacity:.3}36.1%{transform:scale(1.06);opacity:1}50%{transform:scale(1.06);opacity:1}86.1%{transform:scale(1);opacity:.3}}.msportalfx-svg-flip-horizontal>svg,svg.msportalfx-svg-flip-horizontal{transform:scaleX(-1)}.msportalfx-svg-fabric-rotate360{animation:ImageRotation 1.3s cubic-bezier(.53,.21,.29,.67) infinite}@keyframes ImageRotation{0%{transform:rotate(-45deg)}100%{transform:rotate(315deg)}}.fxs-svg-number .msportalfx-font-bold{font-size:10px;fill:#0065ad}.fxs-svg-number .fxs-svg-circle{stroke-width:0%;fill:#0078d4}.fxs-svg-number .fxs-svg-text{fill:#fff;font-size:10px}.fxs-svg-number.msportalfx-svg-disabled{filter:grayscale(0%)}.fxs-svg-number.msportalfx-svg-disabled .fxs-svg-circle{fill:#fff;stroke-width:1px;stroke:#949494}.fxs-svg-number.msportalfx-svg-disabled .fxs-svg-text{fill:#949494}.fxs-theme-dark .fxs-svg-number .fxs-svg-text{fill:#0f0f0f}.fxs-theme-dark .fxs-svg-number .fxs-svg-circle{stroke-width:0%;fill:#0078d4}.fxs-theme-dark .fxs-svg-number.msportalfx-svg-disabled .fxs-svg-circle{fill:#0f0f0f;stroke-width:1px;stroke:#949494}.fxs-theme-dark .fxs-svg-number.msportalfx-svg-disabled .fxs-svg-text{fill:#949494}</style></svg>