<svg viewBox="0 0 18 18" class="msportalfx-svg-placeholder" xmlns="http://www.w3.org/2000/svg"><title>Invoice</title><desc></desc><defs><linearGradient id="p6JfhdePS__a" x1="9.763" x2="9.763" y1="1.345" y2="17.983" gradientUnits="userSpaceOnUse"><stop offset="0" stop-color="#5ea0ef" /><stop offset="1" stop-color="#0078d4" /></linearGradient><linearGradient id="p6JfhdePS__b" x1="9.763" x2="9.763" y1="17.107" y2="2.221" gradientUnits="userSpaceOnUse"><stop offset="0" stop-color="#5ea0ef" /><stop offset="1" stop-color="#83b9f9" /></linearGradient></defs><rect width="13.588" height="16.638" x="1.444" y="-.017" fill="#005ba1" rx=".555" /><rect width="13.588" height="16.638" x="2.969" y="1.345" fill="url(#p6JfhdePS__a)" rx=".555" /><rect width="11.852" height="14.886" x="3.837" y="2.221" fill="url(#p6JfhdePS__b)" rx=".139" /><path fill="#fff" d="M12.759 13.949h1.162a.14.14 0 0 1 .139.138v1.162a.14.14 0 0 1-.139.139h-1.162a.14.14 0 0 1-.139-.139v-1.162a.14.14 0 0 1 .139-.138m-7.293.138v1.162a.14.14 0 0 0 .138.139h5.754a.14.14 0 0 0 .139-.139v-1.162a.14.14 0 0 0-.139-.138H5.6a.14.14 0 0 0-.134.138m7.154-2.893v1.162a.14.14 0 0 0 .139.139h1.162a.14.14 0 0 0 .139-.139v-1.162a.14.14 0 0 0-.139-.138h-1.162a.14.14 0 0 0-.139.138m-7.154 0v1.162a.14.14 0 0 0 .134.144h5.754a.14.14 0 0 0 .139-.139v-1.167a.14.14 0 0 0-.139-.138H5.6a.14.14 0 0 0-.134.138m1.685-7.05a.393.393 0 1 1-.392-.393.39.39 0 0 1 .392.393m-.016 5.364a.392.392 0 1 1-.391-.394.393.393 0 0 1 .391.394m-1.661-.895v-.877a1.7 1.7 0 0 0 .517.3 1.6 1.6 0 0 0 .564.1 1.3 1.3 0 0 0 .295-.026.7.7 0 0 0 .208-.083.36.36 0 0 0 .125-.127.3.3 0 0 0 .042-.157.34.34 0 0 0-.066-.206.7.7 0 0 0-.178-.167 2 2 0 0 0-.27-.149c-.1-.048-.216-.1-.336-.146a1.7 1.7 0 0 1-.685-.471 1.02 1.02 0 0 1-.224-.669 1.06 1.06 0 0 1 .124-.527 1.05 1.05 0 0 1 .337-.362 1.5 1.5 0 0 1 .492-.208 2.6 2.6 0 0 1 .592-.066 4 4 0 0 1 .544.039 2 2 0 0 1 .437.115v.819a1.3 1.3 0 0 0-.214-.121 2 2 0 0 0-.24-.087 2 2 0 0 0-.245-.051 2 2 0 0 0-.231-.018 1.2 1.2 0 0 0-.274.028.7.7 0 0 0-.209.081.4.4 0 0 0-.132.124.3.3 0 0 0-.047.163.3.3 0 0 0 .052.177.6.6 0 0 0 .148.149 1.6 1.6 0 0 0 .233.138q.136.067.309.139a3 3 0 0 1 .423.211 1.5 1.5 0 0 1 .321.251 1 1 0 0 1 .2.32 1.28 1.28 0 0 1-.056.97 1 1 0 0 1-.339.36 1.5 1.5 0 0 1-.5.2 3 3 0 0 1-.6.058 3.3 3.3 0 0 1-.615-.057 2 2 0 0 1-.502-.167" /><style>.msportalfx-svg-c01{fill:#fff}.msportalfx-svg-c02{fill:#e5e5e5}.msportalfx-svg-c03{fill:#a0a1a2}.msportalfx-svg-c04{fill:#7a7a7a}.msportalfx-svg-c05{fill:#3e3e3e}.msportalfx-svg-c06{fill:#1e1e1e}.msportalfx-svg-c07{fill:#0f0f0f}.msportalfx-svg-c08{fill:#ba141a}.msportalfx-svg-c09{fill:#dd5900}.msportalfx-svg-c10{fill:#ff8c00}.msportalfx-svg-c11{fill:#fcd116}.msportalfx-svg-c12{fill:#fee087}.msportalfx-svg-c13{fill:#b8d432}.msportalfx-svg-c14,.msportalfx-svg-c32{fill:#57a300}.msportalfx-svg-c15{fill:#59b4d9}.msportalfx-svg-c16{fill:#3999c6}.msportalfx-svg-c17{fill:#804998}.msportalfx-svg-c18{fill:#ec008c}.msportalfx-svg-c19{fill:#0072c6}.msportalfx-svg-c20{fill:#68217a}.msportalfx-svg-c21{fill:#00188f}.msportalfx-svg-c22{fill:#e81123}.fxs-mode-light .msportalfx-svg-c22{fill:#a4262c}.msportalfx-svg-c23{fill:#cae3f3}.msportalfx-svg-c24{fill:#59aed3}.msportalfx-svg-c25{fill:#4c3b12}.msportalfx-svg-c26{fill:#be9555}.msportalfx-svg-c27{fill:#4f4d52}.msportalfx-svg-c28{fill:#ef6f59}.msportalfx-svg-c29{fill:#f7cb64}.msportalfx-svg-c30{fill:#fdd8db}.msportalfx-svg-c31{fill:#f6ffec}.msportalfx-svg-c33{fill:#8a2da5}.msportalfx-svg-c34{fill:#e00b1c}.msportalfx-svg-c35{fill:#015cda}.msportalfx-svg-c36{fill:#5db300}.msportalfx-svg-c97{fill:#ffb900}.msportalfx-svg-c98{fill:#00a4ef}.msportalfx-svg-c99{fill:#f25022}.msportalfx-inverted-theme .msportalfx-svg-c05,.fxs-theme-dark .msportalfx-svg-c05{fill:#777}.msportalfx-inverted-theme .msportalfx-svg-c07,.fxs-theme-dark .msportalfx-svg-c07{fill:#f2f2f2}.msportalfx-svg-palette-white{fill:#fff}.msportalfx-svg-palette-blue{fill:#015cda}.msportalfx-svg-palette-black{fill:#1e1e1e}.msportalfx-svg-palette-green{fill:#57a300}.msportalfx-svg-palette-gray{fill:#a0a1a2}.msportalfx-svg-palette-inherit{fill:inherit}.msportalfx-svg-badge{position:absolute;left:0;bottom:0;min-height:10px;min-width:10px}.fxc-menu-icon&gt;.msportalfx-svg-badge{left:-2px;bottom:-2px;min-height:8px;min-width:8px}.msportalfx-svg-disabled{filter:grayscale(100%)}.msportalfx-svg-loading-square{animation:ProgressFlagAnimation 1.45s infinite ease-in-out;transform-origin:50%}.msportalfx-svg-loading-square:nth-child(1){animation-delay:0s}.msportalfx-svg-loading-square:nth-child(2){animation-delay:.2s}.msportalfx-svg-loading-square:nth-child(3){animation-delay:.4s}@keyframes ProgressFlagAnimation{0%{transform:scale(1);opacity:.3}36.1%{transform:scale(1.06);opacity:1}50%{transform:scale(1.06);opacity:1}86.1%{transform:scale(1);opacity:.3}}.msportalfx-svg-flip-horizontal&gt;svg,svg.msportalfx-svg-flip-horizontal{transform:scaleX(-1)}.msportalfx-svg-fabric-rotate360{animation:ImageRotation 1.3s cubic-bezier(.53,.21,.29,.67) infinite}@keyframes ImageRotation{0%{transform:rotate(-45deg)}100%{transform:rotate(315deg)}}.fxs-svg-number .msportalfx-font-bold{font-size:10px;fill:#0065ad}.fxs-svg-number .fxs-svg-circle{stroke-width:0%;fill:#0078d4}.fxs-svg-number .fxs-svg-text{fill:#fff;font-size:10px}.fxs-svg-number.msportalfx-svg-disabled{filter:grayscale(0%)}.fxs-svg-number.msportalfx-svg-disabled .fxs-svg-circle{fill:#fff;stroke-width:1px;stroke:#949494}.fxs-svg-number.msportalfx-svg-disabled .fxs-svg-text{fill:#949494}.fxs-theme-dark .fxs-svg-number .fxs-svg-text{fill:#0f0f0f}.fxs-theme-dark .fxs-svg-number .fxs-svg-circle{stroke-width:0%;fill:#0078d4}.fxs-theme-dark .fxs-svg-number.msportalfx-svg-disabled .fxs-svg-circle{fill:#0f0f0f;stroke-width:1px;stroke:#949494}.fxs-theme-dark .fxs-svg-number.msportalfx-svg-disabled .fxs-svg-text{fill:#949494}</style></svg>