<svg viewBox="0 0 115 115" class="msportalfx-svg-placeholder" role="presentation" focusable="false" xmlns:xlink="http://www.w3.org/1999/xlink" xmlns="http://www.w3.org/2000/svg"><desc></desc><g><title>Free service</title><path d="M73.5 87H42.3c3.5 12.3 1 14.1-19.5 14.1v6.4h69.8v-6.4C72 101.1 70 99.3 73.5 87" class="msportalfx-svg-c04" /><path d="M104.5 9H10c-3.2 0-5.8 2.9-5.8 6.1V81c0 3.2 2.6 6 5.8 6h94.5c3.2 0 6.4-2.8 6.4-6V15.1c.1-3.2-3.2-6.1-6.4-6.1" class="msportalfx-svg-c03" /><path opacity=".2" d="M104.6 9H10c-3.2 0-5.8 2.9-5.8 6.1V81c0 3.2 2.6 6 5.8 6h2.2l92.4-78z" class="msportalfx-svg-c01" /><path d="M102.7 17.2v61.6H12.3V17.2z" class="msportalfx-svg-c15" /><path d="M12.3 78.8h.2V17.2l82.5-.1-82.7.1z" class="msportalfx-svg-c15" /><path d="M22.7 101.1h69.8v6.4H22.7z" class="msportalfx-svg-c03" /><path d="M58.7 13.5c0 .8-.7 1.5-1.5 1.5s-1.5-.7-1.5-1.5.7-1.5 1.5-1.5 1.5.7 1.5 1.5" class="msportalfx-svg-c13" /><path d="M57.7 57.8c-.1 0-.1 0-.2-.1L44.1 50c-.1-.1-.2-.2-.2-.4 0-.1.1-.3.2-.3l13.3-7.7c.1-.1.3-.1.4 0l13.4 7.7c.1.1.2.2.2.3 0 .1-.1.3-.2.3l-13.3 7.7-.2.2" class="msportalfx-svg-c01" /><path opacity=".7" d="M55.7 76.5c-.1 0-.1 0-.2-.1l-13.3-7.7c-.1-.1-.2-.2-.2-.4V53c0-.1.1-.3.2-.4.1-.1.3-.1.4 0l13.3 7.7c.1.1.2.2.2.4v15.4c0 .1-.1.3-.2.4h-.2" class="msportalfx-svg-c01" /><path opacity=".4" d="M59.5 76.5c-.1 0-.1 0-.2-.1s-.2-.2-.2-.4V60.8c0-.1.1-.3.2-.4l13.3-7.7c.1-.1.3-.1.4 0 .1.1.2.2.2.3v15.3c0 .1-.1.3-.2.4l-13.3 7.7c0 .1-.1.1-.2.1" class="msportalfx-svg-c01" /><path d="M40.1 18c18.2 12.8 17.7 29.6 17.7 29.6s-5-16-26.3-22.6l11.4.3-2.8-7.3zM72 26.1C57.6 34.6 56.7 48 56.7 48S61.6 35.5 78 31.9l-8.6-.4 2.6-5.4zM57.7 45.9c-.2-.3-4.3-6.5-11.4-9.4-4.6-1.8-8.1-2.4-10.5-1.5-1.3.5-2.2 1.3-2.7 2.5-.8 2-.7 5.9 8.8 9.7 7.1 2.9 14.4 1.2 14.7 1.1l2.1-.8-1-1.6zm-12.6-6.4c3.8 1.5 6.7 4.2 8.3 6.1-2.5.2-6.4.2-10.2-1.4-5.5-2.2-7.5-4.5-7.1-5.6.1-.2.2-.5.8-.6.7-.3 3-.6 8.2 1.5zM58.5 48c.3.1 7.4 2.3 14.8.1 4.7-1.5 7.8-3.3 9.1-5.4.7-1.2.9-2.4.5-3.6-.6-2.1-3.2-5-13-2-7.3 2.3-12 8.2-12.2 8.4l-1.3 1.7 2.1.8zm13.9-3c-3.9 1.2-7.8.9-10.3.5 1.8-1.7 4.9-4.2 8.8-5.4 5.7-1.8 8.6-1.3 9-.1.1.2.1.5-.2 1-.4.6-1.9 2.3-7.3 4z" class="msportalfx-svg-c08" /></g><style>.msportalfx-svg-c01{fill:#fff}.msportalfx-svg-c02{fill:#e5e5e5}.msportalfx-svg-c03{fill:#a0a1a2}.msportalfx-svg-c04{fill:#7a7a7a}.msportalfx-svg-c05{fill:#3e3e3e}.msportalfx-svg-c06{fill:#1e1e1e}.msportalfx-svg-c07{fill:#0f0f0f}.msportalfx-svg-c08{fill:#ba141a}.msportalfx-svg-c09{fill:#dd5900}.msportalfx-svg-c10{fill:#ff8c00}.msportalfx-svg-c11{fill:#fcd116}.msportalfx-svg-c12{fill:#fee087}.msportalfx-svg-c13{fill:#b8d432}.msportalfx-svg-c14,.msportalfx-svg-c32{fill:#57a300}.msportalfx-svg-c15{fill:#59b4d9}.msportalfx-svg-c16{fill:#3999c6}.msportalfx-svg-c17{fill:#804998}.msportalfx-svg-c18{fill:#ec008c}.msportalfx-svg-c19{fill:#0072c6}.msportalfx-svg-c20{fill:#68217a}.msportalfx-svg-c21{fill:#00188f}.msportalfx-svg-c22{fill:#e81123}.fxs-mode-light .msportalfx-svg-c22{fill:#a4262c}.msportalfx-svg-c23{fill:#cae3f3}.msportalfx-svg-c24{fill:#59aed3}.msportalfx-svg-c25{fill:#4c3b12}.msportalfx-svg-c26{fill:#be9555}.msportalfx-svg-c27{fill:#4f4d52}.msportalfx-svg-c28{fill:#ef6f59}.msportalfx-svg-c29{fill:#f7cb64}.msportalfx-svg-c30{fill:#fdd8db}.msportalfx-svg-c31{fill:#f6ffec}.msportalfx-svg-c33{fill:#8a2da5}.msportalfx-svg-c34{fill:#e00b1c}.msportalfx-svg-c35{fill:#015cda}.msportalfx-svg-c36{fill:#5db300}.msportalfx-svg-c97{fill:#ffb900}.msportalfx-svg-c98{fill:#00a4ef}.msportalfx-svg-c99{fill:#f25022}.msportalfx-inverted-theme .msportalfx-svg-c05,.fxs-theme-dark .msportalfx-svg-c05{fill:#777}.msportalfx-inverted-theme .msportalfx-svg-c07,.fxs-theme-dark .msportalfx-svg-c07{fill:#f2f2f2}.msportalfx-svg-palette-white{fill:#fff}.msportalfx-svg-palette-blue{fill:#015cda}.msportalfx-svg-palette-black{fill:#1e1e1e}.msportalfx-svg-palette-green{fill:#57a300}.msportalfx-svg-palette-gray{fill:#a0a1a2}.msportalfx-svg-palette-inherit{fill:inherit}.msportalfx-svg-badge{position:absolute;left:0;bottom:0;min-height:10px;min-width:10px}.fxc-menu-icon&gt;.msportalfx-svg-badge{left:-2px;bottom:-2px;min-height:8px;min-width:8px}.msportalfx-svg-disabled{filter:grayscale(100%)}.msportalfx-svg-loading-square{animation:ProgressFlagAnimation 1.45s infinite ease-in-out;transform-origin:50%}.msportalfx-svg-loading-square:nth-child(1){animation-delay:0s}.msportalfx-svg-loading-square:nth-child(2){animation-delay:.2s}.msportalfx-svg-loading-square:nth-child(3){animation-delay:.4s}@keyframes ProgressFlagAnimation{0%{transform:scale(1);opacity:.3}36.1%{transform:scale(1.06);opacity:1}50%{transform:scale(1.06);opacity:1}86.1%{transform:scale(1);opacity:.3}}.msportalfx-svg-flip-horizontal&gt;svg,svg.msportalfx-svg-flip-horizontal{transform:scaleX(-1)}.msportalfx-svg-fabric-rotate360{animation:ImageRotation 1.3s cubic-bezier(.53,.21,.29,.67) infinite}@keyframes ImageRotation{0%{transform:rotate(-45deg)}100%{transform:rotate(315deg)}}.fxs-svg-number .msportalfx-font-bold{font-size:10px;fill:#0065ad}.fxs-svg-number .fxs-svg-circle{stroke-width:0%;fill:#0078d4}.fxs-svg-number .fxs-svg-text{fill:#fff;font-size:10px}.fxs-svg-number.msportalfx-svg-disabled{filter:grayscale(0%)}.fxs-svg-number.msportalfx-svg-disabled .fxs-svg-circle{fill:#fff;stroke-width:1px;stroke:#949494}.fxs-svg-number.msportalfx-svg-disabled .fxs-svg-text{fill:#949494}.fxs-theme-dark .fxs-svg-number .fxs-svg-text{fill:#0f0f0f}.fxs-theme-dark .fxs-svg-number .fxs-svg-circle{stroke-width:0%;fill:#0078d4}.fxs-theme-dark .fxs-svg-number.msportalfx-svg-disabled .fxs-svg-circle{fill:#0f0f0f;stroke-width:1px;stroke:#949494}.fxs-theme-dark .fxs-svg-number.msportalfx-svg-disabled .fxs-svg-text{fill:#949494}</style></svg>