<svg viewBox="0 0 18 18" class="msportalfx-svg-placeholder" role="presentation" focusable="false" xmlns:xlink="http://www.w3.org/1999/xlink" xmlns="http://www.w3.org/2000/svg"><desc>Virtual Appointments Builder is a no-code wizard that helps you create and deploy a virtual appointments sample</desc><g><title>Virtual Appointments Builder</title><defs><linearGradient id="definition-1" x1="-1516.205" y1="1550.824" x2="-1516.205" y2="1560.012" gradientTransform="matrix(1 0 0 -1 1524 1565.516)" gradientUnits="userSpaceOnUse"><stop offset=".001" stop-color="#773adc" /><stop offset=".229" stop-color="#7b3fde" /><stop offset=".507" stop-color="#864ee4" /><stop offset=".811" stop-color="#9867ed" /><stop offset="1" stop-color="#a67af4" /></linearGradient><linearGradient id="definition-2" x1="-551.781" y1="1016.108" x2="-551.781" y2="1009.663" gradientTransform="matrix(1 0 0 -1 564 1025.516)" gradientUnits="userSpaceOnUse"><stop offset="0" stop-color="#50e6ff" /><stop offset="1" stop-color="#32bedd" /></linearGradient></defs><path d="M.02 5.5h15.549v8.669a.52.52 0 0 1-.519.52H.54a.52.52 0 0 1-.52-.52V5.5Z" fill="url(#definition-1)" /><path d="M.542 2.19h14.505a.519.519 0 0 1 .519.52V5.5H.02V2.71a.52.52 0 0 1 .52-.52Z" fill="#773adc" /><path d="M1.847 10.723V6.892c0-.1.06-.183.134-.183h5.338c.074 0 .134.082.134.183v3.831c0 .1-.06.182-.134.182H1.981c-.074 0-.134-.081-.134-.182Z" fill="#f2f2f2" /><path d="M7.146 13.486H2.154c-.17 0-.307-.082-.307-.182v-1.273c0-.1.137-.182.307-.182h4.992c.17 0 .307.081.307.182V13.3c0 .1-.137.186-.307.186ZM14 8.226H8.827c-.176 0-.318-.081-.318-.182V6.787c0-.1.142-.182.318-.182H14c.176 0 .318.081.318.182v1.257c-.001.101-.143.182-.318.182Z" fill="#b796f9" /><path d="m17.643 14.8-3.277-1.525a.381.381 0 0 1-.233-.389v-.526a.386.386 0 0 1 .233-.39l3.277-1.524c.175-.045.337.142.337.389v3.575c0 .248-.164.434-.337.39Z" fill="#32bedd" /><rect x="8.544" y="9.388" width="7.35" height="6.422" rx=".385" fill="url(#definition-2)" /><path d="M10.79 12.623v-1.379a.382.382 0 0 1 .573-.331l1.2.69 1.194.689a.383.383 0 0 1 0 .662l-1.194.689-1.2.69A.382.382 0 0 1 10.79 14Z" fill="#c3f1ff" /></g><style>.msportalfx-svg-c01{fill:#fff}.msportalfx-svg-c02{fill:#e5e5e5}.msportalfx-svg-c03{fill:#a0a1a2}.msportalfx-svg-c04{fill:#7a7a7a}.msportalfx-svg-c05{fill:#3e3e3e}.msportalfx-svg-c06{fill:#1e1e1e}.msportalfx-svg-c07{fill:#0f0f0f}.msportalfx-svg-c08{fill:#ba141a}.msportalfx-svg-c09{fill:#dd5900}.msportalfx-svg-c10{fill:#ff8c00}.msportalfx-svg-c11{fill:#fcd116}.msportalfx-svg-c12{fill:#fee087}.msportalfx-svg-c13{fill:#b8d432}.msportalfx-svg-c14,.msportalfx-svg-c32{fill:#57a300}.msportalfx-svg-c15{fill:#59b4d9}.msportalfx-svg-c16{fill:#3999c6}.msportalfx-svg-c17{fill:#804998}.msportalfx-svg-c18{fill:#ec008c}.msportalfx-svg-c19{fill:#0072c6}.msportalfx-svg-c20{fill:#68217a}.msportalfx-svg-c21{fill:#00188f}.msportalfx-svg-c22{fill:#e81123}.fxs-mode-light .msportalfx-svg-c22{fill:#a4262c}.msportalfx-svg-c23{fill:#cae3f3}.msportalfx-svg-c24{fill:#59aed3}.msportalfx-svg-c25{fill:#4c3b12}.msportalfx-svg-c26{fill:#be9555}.msportalfx-svg-c27{fill:#4f4d52}.msportalfx-svg-c28{fill:#ef6f59}.msportalfx-svg-c29{fill:#f7cb64}.msportalfx-svg-c30{fill:#fdd8db}.msportalfx-svg-c31{fill:#f6ffec}.msportalfx-svg-c33{fill:#8a2da5}.msportalfx-svg-c34{fill:#e00b1c}.msportalfx-svg-c35{fill:#015cda}.msportalfx-svg-c36{fill:#5db300}.msportalfx-svg-c97{fill:#ffb900}.msportalfx-svg-c98{fill:#00a4ef}.msportalfx-svg-c99{fill:#f25022}.msportalfx-inverted-theme .msportalfx-svg-c05,.fxs-theme-dark .msportalfx-svg-c05{fill:#777}.msportalfx-inverted-theme .msportalfx-svg-c07,.fxs-theme-dark .msportalfx-svg-c07{fill:#f2f2f2}.msportalfx-svg-palette-white{fill:#fff}.msportalfx-svg-palette-blue{fill:#015cda}.msportalfx-svg-palette-black{fill:#1e1e1e}.msportalfx-svg-palette-green{fill:#57a300}.msportalfx-svg-palette-gray{fill:#a0a1a2}.msportalfx-svg-palette-inherit{fill:inherit}.msportalfx-svg-badge{position:absolute;left:0;bottom:0;min-height:10px;min-width:10px}.fxc-menu-icon&gt;.msportalfx-svg-badge{left:-2px;bottom:-2px;min-height:8px;min-width:8px}.msportalfx-svg-disabled{filter:grayscale(100%)}.msportalfx-svg-loading-square{animation:ProgressFlagAnimation 1.45s infinite ease-in-out;transform-origin:50%}.msportalfx-svg-loading-square:nth-child(1){animation-delay:0s}.msportalfx-svg-loading-square:nth-child(2){animation-delay:.2s}.msportalfx-svg-loading-square:nth-child(3){animation-delay:.4s}@keyframes ProgressFlagAnimation{0%{transform:scale(1);opacity:.3}36.1%{transform:scale(1.06);opacity:1}50%{transform:scale(1.06);opacity:1}86.1%{transform:scale(1);opacity:.3}}.msportalfx-svg-flip-horizontal&gt;svg,svg.msportalfx-svg-flip-horizontal{transform:scaleX(-1)}.msportalfx-svg-fabric-rotate360{animation:ImageRotation 1.3s cubic-bezier(.53,.21,.29,.67) infinite}@keyframes ImageRotation{0%{transform:rotate(-45deg)}100%{transform:rotate(315deg)}}.fxs-svg-number .msportalfx-font-bold{font-size:10px;fill:#0065ad}.fxs-svg-number .fxs-svg-circle{stroke-width:0%;fill:#0078d4}.fxs-svg-number .fxs-svg-text{fill:#fff;font-size:10px}.fxs-svg-number.msportalfx-svg-disabled{filter:grayscale(0%)}.fxs-svg-number.msportalfx-svg-disabled .fxs-svg-circle{fill:#fff;stroke-width:1px;stroke:#949494}.fxs-svg-number.msportalfx-svg-disabled .fxs-svg-text{fill:#949494}.fxs-theme-dark .fxs-svg-number .fxs-svg-text{fill:#0f0f0f}.fxs-theme-dark .fxs-svg-number .fxs-svg-circle{stroke-width:0%;fill:#0078d4}.fxs-theme-dark .fxs-svg-number.msportalfx-svg-disabled .fxs-svg-circle{fill:#0f0f0f;stroke-width:1px;stroke:#949494}.fxs-theme-dark .fxs-svg-number.msportalfx-svg-disabled .fxs-svg-text{fill:#949494}</style></svg>