<svg fill="none" viewBox="0 0 64 64" class="msportalfx-svg-placeholder" xmlns="http://www.w3.org/2000/svg"><title>Azure HorizonDB for PostgreSQL (Preview)</title><desc>Azure HorizonDB for PostgreSQL is a fully managed Azure Database service based on the PostgreSQL open source relational database, optimized for performance, security and cost efficiency.</desc><mask id="pcOcAP9lE__a" width="48" height="64" x="8" y="0" maskUnits="userSpaceOnUse"><path fill="#E8E8E8" fill-rule="evenodd" d="M32 .94c13.112 0 23.741 3.654 23.741 8.478v45.167c0 4.824-10.63 8.478-23.74 8.478h-.333C18.705 62.99 8.26 59.226 8.26 54.585V9.418l.008-.226C8.593 4.48 19.095.939 32.001.939" clip-rule="evenodd" /></mask><g mask="url(#pcOcAP9lE__a)"><path fill="url(#pcOcAP9lE__b)" d="M21.943-6.387c5.554-5.554 14.56-5.554 20.115 0l21.104 21.1a14.226 14.226 0 0 1 1.448 18.42l-7.58 10.428-21.26-21.257a5.334 5.334 0 0 0-7.542 0L6.971 43.558-.605 33.134a14.225 14.225 0 0 1 1.448-18.42z" /><path fill="url(#pcOcAP9lE__c)" fill-rule="evenodd" d="M29.486 23.566a3.555 3.555 0 0 1 5.028 0l25.785 25.781c1.388 1.388 1.387 8.08 0 9.472L33.792 85.326a3.557 3.557 0 0 1-5.028 0L2.983 59.541c-1.389-1.388-1.389-8.083 0-9.472zm6.285 19.694a5.333 5.333 0 0 0-7.542 0L12.924 58.566a5.333 5.333 0 0 0 0 7.541l15.305 15.306a5.333 5.333 0 0 0 7.542 0l15.306-15.306a5.333 5.333 0 0 0 0-7.541z" clip-rule="evenodd" /><path fill="url(#pcOcAP9lE__d)" d="M14.18 64.85a3.556 3.556 0 0 1 0-5.03l15.305-15.305a3.556 3.556 0 0 1 5.029 0l15.305 15.306a3.555 3.555 0 0 1 0 5.028L34.514 80.155a3.556 3.556 0 0 1-5.029 0z" /></g><path fill="#0667C3" fill-opacity=".6" d="M31.998 17.889c13.113 0 23.742-3.795 23.742-8.476 0-4.68-10.63-8.475-23.742-8.475S8.256 4.732 8.256 9.413s10.63 8.476 23.742 8.476" /><path fill="url(#pcOcAP9lE__e)" d="M31.998 17.889c13.113 0 23.742-3.795 23.742-8.476 0-4.68-10.63-8.475-23.742-8.475S8.256 4.732 8.256 9.413s10.63 8.476 23.742 8.476" /><defs><radialGradient id="pcOcAP9lE__b" cx="0" cy="0" r="1" gradientTransform="rotate(-90.121 40.034 6.887)scale(39.8247 100.005)" gradientUnits="userSpaceOnUse"><stop stop-color="#003067" /><stop offset="1" stop-color="#0078D4" /></radialGradient><radialGradient id="pcOcAP9lE__c" cx="0" cy="0" r="1" gradientTransform="matrix(0 -25.7778 89.3792 0 33.678 58.492)" gradientUnits="userSpaceOnUse"><stop stop-color="#0064B1" /><stop offset=".505" stop-color="#0078D4" /><stop offset="1" stop-color="#5EA0EF" /></radialGradient><radialGradient id="pcOcAP9lE__d" cx="0" cy="0" r="1" gradientTransform="matrix(0 -20.8889 45.6764 0 32 68.714)" gradientUnits="userSpaceOnUse"><stop offset=".085" stop-color="#0699BA" /><stop offset=".553" stop-color="#32BEDD" /><stop offset="1" stop-color="#50E6FF" /></radialGradient><radialGradient id="pcOcAP9lE__e" cx="0" cy="0" r="1" gradientTransform="rotate(73.156 5.464 14.56)scale(17.928 115.551)" gradientUnits="userSpaceOnUse"><stop stop-color="#0667C3" stop-opacity="0" /><stop offset=".357" stop-color="#044C90" stop-opacity="0" /><stop offset="1" stop-color="#03315D" /></radialGradient></defs><style>.msportalfx-svg-c01{fill:#fff}.msportalfx-svg-c02{fill:#e5e5e5}.msportalfx-svg-c03{fill:#a0a1a2}.msportalfx-svg-c04{fill:#7a7a7a}.msportalfx-svg-c05{fill:#3e3e3e}.msportalfx-svg-c06{fill:#1e1e1e}.msportalfx-svg-c07{fill:#0f0f0f}.msportalfx-svg-c08{fill:#ba141a}.msportalfx-svg-c09{fill:#dd5900}.msportalfx-svg-c10{fill:#ff8c00}.msportalfx-svg-c11{fill:#fcd116}.msportalfx-svg-c12{fill:#fee087}.msportalfx-svg-c13{fill:#b8d432}.msportalfx-svg-c14,.msportalfx-svg-c32{fill:#57a300}.msportalfx-svg-c15{fill:#59b4d9}.msportalfx-svg-c16{fill:#3999c6}.msportalfx-svg-c17{fill:#804998}.msportalfx-svg-c18{fill:#ec008c}.msportalfx-svg-c19{fill:#0072c6}.msportalfx-svg-c20{fill:#68217a}.msportalfx-svg-c21{fill:#00188f}.msportalfx-svg-c22{fill:#e81123}.fxs-mode-light .msportalfx-svg-c22{fill:#a4262c}.msportalfx-svg-c23{fill:#cae3f3}.msportalfx-svg-c24{fill:#59aed3}.msportalfx-svg-c25{fill:#4c3b12}.msportalfx-svg-c26{fill:#be9555}.msportalfx-svg-c27{fill:#4f4d52}.msportalfx-svg-c28{fill:#ef6f59}.msportalfx-svg-c29{fill:#f7cb64}.msportalfx-svg-c30{fill:#fdd8db}.msportalfx-svg-c31{fill:#f6ffec}.msportalfx-svg-c33{fill:#8a2da5}.msportalfx-svg-c34{fill:#e00b1c}.msportalfx-svg-c35{fill:#015cda}.msportalfx-svg-c36{fill:#5db300}.msportalfx-svg-c97{fill:#ffb900}.msportalfx-svg-c98{fill:#00a4ef}.msportalfx-svg-c99{fill:#f25022}.msportalfx-inverted-theme .msportalfx-svg-c05,.fxs-theme-dark .msportalfx-svg-c05{fill:#777}.msportalfx-inverted-theme .msportalfx-svg-c07,.fxs-theme-dark .msportalfx-svg-c07{fill:#f2f2f2}.msportalfx-svg-palette-white{fill:#fff}.msportalfx-svg-palette-blue{fill:#015cda}.msportalfx-svg-palette-black{fill:#1e1e1e}.msportalfx-svg-palette-green{fill:#57a300}.msportalfx-svg-palette-gray{fill:#a0a1a2}.msportalfx-svg-palette-inherit{fill:inherit}.msportalfx-svg-badge{position:absolute;left:0;bottom:0;min-height:10px;min-width:10px}.fxc-menu-icon&gt;.msportalfx-svg-badge{left:-2px;bottom:-2px;min-height:8px;min-width:8px}.msportalfx-svg-disabled{filter:grayscale(100%)}.msportalfx-svg-loading-square{animation:ProgressFlagAnimation 1.45s infinite ease-in-out;transform-origin:50%}.msportalfx-svg-loading-square:nth-child(1){animation-delay:0s}.msportalfx-svg-loading-square:nth-child(2){animation-delay:.2s}.msportalfx-svg-loading-square:nth-child(3){animation-delay:.4s}@keyframes ProgressFlagAnimation{0%{transform:scale(1);opacity:.3}36.1%{transform:scale(1.06);opacity:1}50%{transform:scale(1.06);opacity:1}86.1%{transform:scale(1);opacity:.3}}.msportalfx-svg-flip-horizontal&gt;svg,svg.msportalfx-svg-flip-horizontal{transform:scaleX(-1)}.msportalfx-svg-fabric-rotate360{animation:ImageRotation 1.3s cubic-bezier(.53,.21,.29,.67) infinite}@keyframes ImageRotation{0%{transform:rotate(-45deg)}100%{transform:rotate(315deg)}}.fxs-svg-number .msportalfx-font-bold{font-size:10px;fill:#0065ad}.fxs-svg-number .fxs-svg-circle{stroke-width:0%;fill:#0078d4}.fxs-svg-number .fxs-svg-text{fill:#fff;font-size:10px}.fxs-svg-number.msportalfx-svg-disabled{filter:grayscale(0%)}.fxs-svg-number.msportalfx-svg-disabled .fxs-svg-circle{fill:#fff;stroke-width:1px;stroke:#949494}.fxs-svg-number.msportalfx-svg-disabled .fxs-svg-text{fill:#949494}.fxs-theme-dark .fxs-svg-number .fxs-svg-text{fill:#0f0f0f}.fxs-theme-dark .fxs-svg-number .fxs-svg-circle{stroke-width:0%;fill:#0078d4}.fxs-theme-dark .fxs-svg-number.msportalfx-svg-disabled .fxs-svg-circle{fill:#0f0f0f;stroke-width:1px;stroke:#949494}.fxs-theme-dark .fxs-svg-number.msportalfx-svg-disabled .fxs-svg-text{fill:#949494}</style></svg>