<svg fill="none" viewBox="0 0 128 128" class="msportalfx-svg-placeholder" xmlns="http://www.w3.org/2000/svg"><title>1ES</title><desc></desc><svg viewBox="0 0 150 150"><defs><linearGradient id="pBNBTT3-8__b" x1="13758" x2="13802.9" y1="864.918" y2="911.005" gradientUnits="userSpaceOnUse"><stop offset=".053" stop-color="#CA2134" /><stop offset="1" stop-color="#CA2134" stop-opacity="0" /></linearGradient><linearGradient id="pBNBTT3-8__c" x1="13815.9" x2="13783.3" y1="1026.3" y2="935" gradientUnits="userSpaceOnUse"><stop stop-color="#9F1459" /><stop offset=".311" stop-color="#830B48" /><stop offset=".58" stop-color="#830B48" /><stop offset=".725" stop-color="#AA1D2D" /><stop offset=".842" stop-color="#AA1D2D" /><stop offset="1" stop-color="#8B1321" /></linearGradient><linearGradient id="pBNBTT3-8__d" x1="13927.1" x2="13727" y1="955.6" y2="955.6" gradientUnits="userSpaceOnUse"><stop stop-color="#FB5937" /><stop offset=".47" stop-color="#F83F54" /><stop offset="1" stop-color="#B91D6B" /></linearGradient><linearGradient id="pBNBTT3-8__e" x1="13757.1" x2="13840.2" y1="987.627" y2="987.627" gradientUnits="userSpaceOnUse"><stop stop-color="#FC92CB" stop-opacity=".5" /><stop offset="1" stop-color="#E82C41" stop-opacity="0" /></linearGradient><linearGradient id="pBNBTT3-8__f" x1="13941.4" x2="13762.9" y1="881.332" y2="851.73" gradientUnits="userSpaceOnUse"><stop stop-color="#FFD638" /><stop offset=".242" stop-color="#FF921F" /><stop offset=".613" stop-color="#FB5937" /><stop offset="1" stop-color="#E82C41" /></linearGradient><linearGradient id="pBNBTT3-8__g" x1="13742.5" x2="13819.1" y1="930.562" y2="930.562" gradientUnits="userSpaceOnUse"><stop stop-color="#FFD1DA" stop-opacity=".8" /><stop offset=".777" stop-color="#FB5937" stop-opacity="0" /></linearGradient><radialGradient id="pBNBTT3-8__a" cx="0" cy="0" r="1" gradientTransform="rotate(67.249 6269.46 10869.738)scale(54.8078 144.941)" gradientUnits="userSpaceOnUse"><stop stop-color="#CA2134" /><stop offset="1" stop-color="#830B48" /></radialGradient></defs><path fill="url(#pBNBTT3-8__a)" d="M13908 917.065c0 5.609-3.6 10.402-8.5 12.228-.2.098-.4.164-.7.229l-17.6 5.478-94.4-29.393c-17.1-5.325-28.8-21.164-28.8-39.085 0-3.587 2.9-6.522 6.5-6.522.7 0 1.5.13 2.1.326l.2.065 132.3 44.316c.1.032.3.065.4.13 5 1.859 8.5 6.62 8.5 12.228" transform="translate(-13758 -860)" /><path fill="url(#pBNBTT3-8__b)" d="M13908 917.065c0 5.609-3.6 10.402-8.5 12.228-.2.098-.4.164-.7.229l-17.6 5.478-94.4-29.393c-17.1-5.325-28.8-21.164-28.8-39.085 0-3.587 2.9-6.522 6.5-6.522.7 0 1.5.13 2.1.326l.2.065 132.3 44.316c.1.032.3.065.4.13 5 1.859 8.5 6.62 8.5 12.228" transform="translate(-13758 -860)" /><path fill="url(#pBNBTT3-8__c)" d="M13758 952.935c0-5.609 3.6-10.402 8.5-12.228.2-.098.4-.164.7-.229l17.6-5.478 94.4 29.393c17.1 5.325 28.8 21.164 28.8 39.087 0 3.59-2.9 6.52-6.5 6.52-.7 0-1.5-.13-2.1-.33l-.2-.06-132.3-44.317c-.1-.032-.3-.065-.4-.13-5-1.859-8.5-6.62-8.5-12.228" transform="translate(-13758 -860)" /><path fill="url(#pBNBTT3-8__d)" d="M13908 917.065v35.87c0 5.608-3.6 10.402-8.5 12.228-.1.065-.3.098-.4.13l-132.3 44.317-.2.06c-.6.2-1.4.33-2.1.33-3.6 0-6.5-2.93-6.5-6.52 0-17.979 11.7-33.863 28.9-39.194l94.3-29.286 17.6-5.478c.3-.065.5-.131.7-.229 4.9-1.826 8.5-6.619 8.5-12.228" transform="translate(-13758 -860)" /><path fill="url(#pBNBTT3-8__e)" fill-opacity=".5" d="M13908 917.065v35.87c0 5.608-3.6 10.402-8.5 12.228-.1.065-.3.098-.4.13l-132.3 44.317-.2.06c-.6.2-1.4.33-2.1.33-3.6 0-6.5-2.93-6.5-6.52 0-17.979 11.7-33.863 28.9-39.194l94.3-29.286 17.6-5.478c.3-.065.5-.131.7-.229 4.9-1.826 8.5-6.619 8.5-12.228" transform="translate(-13758 -860)" /><path fill="url(#pBNBTT3-8__f)" d="M13758 952.935v-35.87c0-5.608 3.6-10.402 8.5-12.228.1-.065.3-.098.4-.13l132.3-44.316.2-.065c.6-.196 1.4-.326 2.1-.326 3.6 0 6.5 2.935 6.5 6.522 0 17.977-11.7 33.861-28.9 39.192L13784.8 935l-17.6 5.478c-.3.065-.5.131-.7.229-4.9 1.826-8.5 6.619-8.5 12.228" transform="translate(-13758 -860)" /><path fill="url(#pBNBTT3-8__g)" fill-opacity=".8" d="M13758 952.935v-35.87c0-5.608 3.6-10.402 8.5-12.228.1-.065.3-.098.4-.13l132.3-44.316.2-.065c.6-.196 1.4-.326 2.1-.326 3.6 0 6.5 2.935 6.5 6.522 0 17.977-11.7 33.861-28.9 39.192L13784.8 935l-17.6 5.478c-.3.065-.5.131-.7.229-4.9 1.826-8.5 6.619-8.5 12.228" transform="translate(-13758 -860)" /></svg><style>.msportalfx-svg-c01{fill:#fff}.msportalfx-svg-c02{fill:#e5e5e5}.msportalfx-svg-c03{fill:#a0a1a2}.msportalfx-svg-c04{fill:#7a7a7a}.msportalfx-svg-c05{fill:#3e3e3e}.msportalfx-svg-c06{fill:#1e1e1e}.msportalfx-svg-c07{fill:#0f0f0f}.msportalfx-svg-c08{fill:#ba141a}.msportalfx-svg-c09{fill:#dd5900}.msportalfx-svg-c10{fill:#ff8c00}.msportalfx-svg-c11{fill:#fcd116}.msportalfx-svg-c12{fill:#fee087}.msportalfx-svg-c13{fill:#b8d432}.msportalfx-svg-c14,.msportalfx-svg-c32{fill:#57a300}.msportalfx-svg-c15{fill:#59b4d9}.msportalfx-svg-c16{fill:#3999c6}.msportalfx-svg-c17{fill:#804998}.msportalfx-svg-c18{fill:#ec008c}.msportalfx-svg-c19{fill:#0072c6}.msportalfx-svg-c20{fill:#68217a}.msportalfx-svg-c21{fill:#00188f}.msportalfx-svg-c22{fill:#e81123}.fxs-mode-light .msportalfx-svg-c22{fill:#a4262c}.msportalfx-svg-c23{fill:#cae3f3}.msportalfx-svg-c24{fill:#59aed3}.msportalfx-svg-c25{fill:#4c3b12}.msportalfx-svg-c26{fill:#be9555}.msportalfx-svg-c27{fill:#4f4d52}.msportalfx-svg-c28{fill:#ef6f59}.msportalfx-svg-c29{fill:#f7cb64}.msportalfx-svg-c30{fill:#fdd8db}.msportalfx-svg-c31{fill:#f6ffec}.msportalfx-svg-c33{fill:#8a2da5}.msportalfx-svg-c34{fill:#e00b1c}.msportalfx-svg-c35{fill:#015cda}.msportalfx-svg-c36{fill:#5db300}.msportalfx-svg-c97{fill:#ffb900}.msportalfx-svg-c98{fill:#00a4ef}.msportalfx-svg-c99{fill:#f25022}.msportalfx-inverted-theme .msportalfx-svg-c05,.fxs-theme-dark .msportalfx-svg-c05{fill:#777}.msportalfx-inverted-theme .msportalfx-svg-c07,.fxs-theme-dark .msportalfx-svg-c07{fill:#f2f2f2}.msportalfx-svg-palette-white{fill:#fff}.msportalfx-svg-palette-blue{fill:#015cda}.msportalfx-svg-palette-black{fill:#1e1e1e}.msportalfx-svg-palette-green{fill:#57a300}.msportalfx-svg-palette-gray{fill:#a0a1a2}.msportalfx-svg-palette-inherit{fill:inherit}.msportalfx-svg-badge{position:absolute;left:0;bottom:0;min-height:10px;min-width:10px}.fxc-menu-icon&gt;.msportalfx-svg-badge{left:-2px;bottom:-2px;min-height:8px;min-width:8px}.msportalfx-svg-disabled{filter:grayscale(100%)}.msportalfx-svg-loading-square{animation:ProgressFlagAnimation 1.45s infinite ease-in-out;transform-origin:50%}.msportalfx-svg-loading-square:nth-child(1){animation-delay:0s}.msportalfx-svg-loading-square:nth-child(2){animation-delay:.2s}.msportalfx-svg-loading-square:nth-child(3){animation-delay:.4s}@keyframes ProgressFlagAnimation{0%{transform:scale(1);opacity:.3}36.1%{transform:scale(1.06);opacity:1}50%{transform:scale(1.06);opacity:1}86.1%{transform:scale(1);opacity:.3}}.msportalfx-svg-flip-horizontal&gt;svg,svg.msportalfx-svg-flip-horizontal{transform:scaleX(-1)}.msportalfx-svg-fabric-rotate360{animation:ImageRotation 1.3s cubic-bezier(.53,.21,.29,.67) infinite}@keyframes ImageRotation{0%{transform:rotate(-45deg)}100%{transform:rotate(315deg)}}.fxs-svg-number .msportalfx-font-bold{font-size:10px;fill:#0065ad}.fxs-svg-number .fxs-svg-circle{stroke-width:0%;fill:#0078d4}.fxs-svg-number .fxs-svg-text{fill:#fff;font-size:10px}.fxs-svg-number.msportalfx-svg-disabled{filter:grayscale(0%)}.fxs-svg-number.msportalfx-svg-disabled .fxs-svg-circle{fill:#fff;stroke-width:1px;stroke:#949494}.fxs-svg-number.msportalfx-svg-disabled .fxs-svg-text{fill:#949494}.fxs-theme-dark .fxs-svg-number .fxs-svg-text{fill:#0f0f0f}.fxs-theme-dark .fxs-svg-number .fxs-svg-circle{stroke-width:0%;fill:#0078d4}.fxs-theme-dark .fxs-svg-number.msportalfx-svg-disabled .fxs-svg-circle{fill:#0f0f0f;stroke-width:1px;stroke:#949494}.fxs-theme-dark .fxs-svg-number.msportalfx-svg-disabled .fxs-svg-text{fill:#949494}</style></svg>