<svg viewBox="0 0 215 215" class="msportalfx-svg-placeholder" role="presentation" focusable="false" xmlns:xlink="http://www.w3.org/1999/xlink" xmlns="http://www.w3.org/2000/svg"><desc>Unity Catalog provides unified governance for all data and AI assets in your Lakehouse. Unity Catalog can be configured to use an Azure managed identity to access storage containers on behalf of Unity Catalog users. Managed identities provide an identity for applications to use when they connect to resources that support Microsoft Entra ID authentication.</desc><g><title>Access Connector for Azure Databricks</title><title>Access Connector for Azure Databricks</title><g clip-path="url(#clip0_1881_1102)"><path d="M117.147 31.318a10.915 10.915 0 0 0 1.476-5.518c0-6.106-4.945-11.051-11.051-11.051S96.521 19.694 96.521 25.8s4.945 11.051 11.051 11.051v14.835m0 126.864c6.106 0 11.051 4.945 11.051 11.051s-4.945 11.051-11.051 11.051-11.051-4.945-11.051-11.051c0-2.006.545-3.898 1.476-5.518M46.21 72.269c-3.052 5.289-9.803 7.095-15.092 4.042-5.29-3.053-7.095-9.804-4.042-15.093 3.053-5.29 9.804-7.095 15.093-4.042a10.934 10.934 0 0 1 4.042 4.042m122.722 81.9c3.053-5.289 9.804-7.095 15.093-4.042s7.095 9.804 4.042 15.093-9.804 7.095-15.093 4.042a10.92 10.92 0 0 1-4.042-4.042M46.21 143.118c3.054 5.289 1.248 12.04-4.041 15.093-5.29 3.053-12.04 1.247-15.093-4.042-3.053-5.289-1.247-12.04 4.042-15.093 1.749-1.003 3.64-1.49 5.518-1.476m132.297-65.331c-3.053-5.29-1.247-12.04 4.042-15.093 5.289-3.053 12.04-1.247 15.093 4.042 3.053 5.289 1.247 12.04-4.042 15.093-1.749 1.003-3.641 1.49-5.519 1.476" fill="none" stroke="#FF5F46" stroke-width="4" stroke-miterlimit="3" stroke-linecap="square" /><path d="m142.689 100.276-35.117 19.751-37.525-21.113-1.777.99v15.35l39.302 22.117 35.117-19.752v8.142l-35.117 19.765-37.51-21.113-1.792 1.004v2.594l39.302 22.116 39.302-22.116V112.66l-1.777-.989-37.525 21.099-35.102-19.737v-8.127l35.102 19.737 39.302-22.117V87.39l-1.978-1.103-37.324 20.998L74.319 88.58l33.253-18.705 27.405 15.408 2.437-1.376v-1.849l-29.842-16.784L68.27 87.39v2.38l39.302 22.116 35.117-19.751v8.141Z" fill="#FF5F46" /><path d="M90.329 35.762 46.21 61.218m122.723 0-51.787-29.9m61.361 106.253v-59.77M124.829 179.64l44.104-25.471m-122.723 0 51.802 29.9M36.65 77.83v59.77m70.922 26.115v14.835m48.518-98.857 12.843-7.424M46.21 143.118l12.858-7.41m0-56.015L46.21 72.27m122.723 70.848-12.843-7.41" stroke="#FF5F46" stroke-width="4" stroke-miterlimit="3" stroke-linecap="square" /></g></g><style>.msportalfx-svg-c01{fill:#fff}.msportalfx-svg-c02{fill:#e5e5e5}.msportalfx-svg-c03{fill:#a0a1a2}.msportalfx-svg-c04{fill:#7a7a7a}.msportalfx-svg-c05{fill:#3e3e3e}.msportalfx-svg-c06{fill:#1e1e1e}.msportalfx-svg-c07{fill:#0f0f0f}.msportalfx-svg-c08{fill:#ba141a}.msportalfx-svg-c09{fill:#dd5900}.msportalfx-svg-c10{fill:#ff8c00}.msportalfx-svg-c11{fill:#fcd116}.msportalfx-svg-c12{fill:#fee087}.msportalfx-svg-c13{fill:#b8d432}.msportalfx-svg-c14,.msportalfx-svg-c32{fill:#57a300}.msportalfx-svg-c15{fill:#59b4d9}.msportalfx-svg-c16{fill:#3999c6}.msportalfx-svg-c17{fill:#804998}.msportalfx-svg-c18{fill:#ec008c}.msportalfx-svg-c19{fill:#0072c6}.msportalfx-svg-c20{fill:#68217a}.msportalfx-svg-c21{fill:#00188f}.msportalfx-svg-c22{fill:#e81123}.fxs-mode-light .msportalfx-svg-c22{fill:#a4262c}.msportalfx-svg-c23{fill:#cae3f3}.msportalfx-svg-c24{fill:#59aed3}.msportalfx-svg-c25{fill:#4c3b12}.msportalfx-svg-c26{fill:#be9555}.msportalfx-svg-c27{fill:#4f4d52}.msportalfx-svg-c28{fill:#ef6f59}.msportalfx-svg-c29{fill:#f7cb64}.msportalfx-svg-c30{fill:#fdd8db}.msportalfx-svg-c31{fill:#f6ffec}.msportalfx-svg-c33{fill:#8a2da5}.msportalfx-svg-c34{fill:#e00b1c}.msportalfx-svg-c35{fill:#015cda}.msportalfx-svg-c36{fill:#5db300}.msportalfx-svg-c97{fill:#ffb900}.msportalfx-svg-c98{fill:#00a4ef}.msportalfx-svg-c99{fill:#f25022}.msportalfx-inverted-theme .msportalfx-svg-c05,.fxs-theme-dark .msportalfx-svg-c05{fill:#777}.msportalfx-inverted-theme .msportalfx-svg-c07,.fxs-theme-dark .msportalfx-svg-c07{fill:#f2f2f2}.msportalfx-svg-palette-white{fill:#fff}.msportalfx-svg-palette-blue{fill:#015cda}.msportalfx-svg-palette-black{fill:#1e1e1e}.msportalfx-svg-palette-green{fill:#57a300}.msportalfx-svg-palette-gray{fill:#a0a1a2}.msportalfx-svg-palette-inherit{fill:inherit}.msportalfx-svg-badge{position:absolute;left:0;bottom:0;min-height:10px;min-width:10px}.fxc-menu-icon&gt;.msportalfx-svg-badge{left:-2px;bottom:-2px;min-height:8px;min-width:8px}.msportalfx-svg-disabled{filter:grayscale(100%)}.msportalfx-svg-loading-square{animation:ProgressFlagAnimation 1.45s infinite ease-in-out;transform-origin:50%}.msportalfx-svg-loading-square:nth-child(1){animation-delay:0s}.msportalfx-svg-loading-square:nth-child(2){animation-delay:.2s}.msportalfx-svg-loading-square:nth-child(3){animation-delay:.4s}@keyframes ProgressFlagAnimation{0%{transform:scale(1);opacity:.3}36.1%{transform:scale(1.06);opacity:1}50%{transform:scale(1.06);opacity:1}86.1%{transform:scale(1);opacity:.3}}.msportalfx-svg-flip-horizontal&gt;svg,svg.msportalfx-svg-flip-horizontal{transform:scaleX(-1)}.msportalfx-svg-fabric-rotate360{animation:ImageRotation 1.3s cubic-bezier(.53,.21,.29,.67) infinite}@keyframes ImageRotation{0%{transform:rotate(-45deg)}100%{transform:rotate(315deg)}}.fxs-svg-number .msportalfx-font-bold{font-size:10px;fill:#0065ad}.fxs-svg-number .fxs-svg-circle{stroke-width:0%;fill:#0078d4}.fxs-svg-number .fxs-svg-text{fill:#fff;font-size:10px}.fxs-svg-number.msportalfx-svg-disabled{filter:grayscale(0%)}.fxs-svg-number.msportalfx-svg-disabled .fxs-svg-circle{fill:#fff;stroke-width:1px;stroke:#949494}.fxs-svg-number.msportalfx-svg-disabled .fxs-svg-text{fill:#949494}.fxs-theme-dark .fxs-svg-number .fxs-svg-text{fill:#0f0f0f}.fxs-theme-dark .fxs-svg-number .fxs-svg-circle{stroke-width:0%;fill:#0078d4}.fxs-theme-dark .fxs-svg-number.msportalfx-svg-disabled .fxs-svg-circle{fill:#0f0f0f;stroke-width:1px;stroke:#949494}.fxs-theme-dark .fxs-svg-number.msportalfx-svg-disabled .fxs-svg-text{fill:#949494}</style></svg>