<svg viewBox="0 0 18 18" class="msportalfx-svg-placeholder" xmlns="http://www.w3.org/2000/svg"><title>Scheduled Action</title><desc>Scheduled actions allow you to schedule a Start, Stop, or Hibernate on your virtual machines.</desc><defs><linearGradient id="p5gbBc8VT__a" x1="6.348" x2="6.348" y1="2.3" y2="15.048" gradientUnits="userSpaceOnUse"><stop offset="0" stop-color="#0078d4" /><stop offset="1" stop-color="#005ba1" /></linearGradient></defs><path fill="none" d="M0 0h18v18H0z" /><path fill="url(#p5gbBc8VT__a)" d="M8.916 15.048a4.5 4.5 0 0 1-.524-2.108c0-2.289 1.712-4.187 3.929-4.495V2.786a.486.486 0 0 0-.487-.485H.862a.486.486 0 0 0-.487.485V14.56c0 .268.218.485.487.485H2.93v.003z" /><path fill="#0078d4" d="M8.392 12.94c0-2.038 1.356-3.766 3.218-4.338V3.563q-.001-.024-.005-.046l-.005-.049q-.005-.023-.014-.046l-.014-.046q-.01-.022-.022-.042l-.022-.041q-.014-.019-.029-.036-.014-.019-.03-.036-.017-.016-.035-.029-.018-.016-.037-.03-.02-.013-.04-.022l-.042-.023q-.022-.008-.045-.014-.022-.009-.046-.014-.024-.004-.049-.005-.023-.004-.047-.005H1.602q-.024.001-.047.005l-.049.005q-.024.006-.046.014-.023.006-.045.014-.022.01-.042.023l-.04.022-.037.03-.035.029q-.016.017-.03.036-.016.017-.029.036-.012.02-.022.041-.012.02-.022.042l-.014.046q-.008.022-.014.046l-.005.049-.005.046V13.78c0 .268.218.485.487.485h6.984a4.5 4.5 0 0 1-.199-1.326Z" /><path fill="#5ea0ef" d="M7.279 1.421a.94.94 0 0 0-.828-1.04.94.94 0 0 0-1.045.824l-.004.048a1 1 0 0 0 0 .169H3.58a.404.404 0 0 0-.405.401v1.705h6.346V1.824a.403.403 0 0 0-.403-.403H7.28ZM6.211.968a.47.47 0 0 1 .599.45h-.012a.465.465 0 1 1-.912-.138.46.46 0 0 1 .324-.313Z" /><g fill="#fff"><rect width="1.565" height="1.251" x="2.319" y="6.146" opacity=".8" rx=".283" ry=".283" /><rect width="5.388" height="1.251" x="4.95" y="6.146" rx=".274" ry=".274" /></g><rect width="1.565" height="1.251" x="2.359" y="8.834" fill="#fff" opacity=".8" rx=".283" ry=".283" /><path fill="#fff" d="M10.336 9.225v-.118l-.002-.018.002-.001q-.001-.015-.005-.029l-.002-.01q-.005-.022-.013-.043l-.003-.007q-.01-.023-.024-.043l-.001-.002a.27.27 0 0 0-.226-.12H5.263a.274.274 0 0 0-.275.274v.703c0 .151.123.274.275.274h4.146a4.6 4.6 0 0 1 .925-.859Z" /><ellipse cx="12.954" cy="12.94" fill="#0078d4" rx="3.985" ry="3.965" /><ellipse cx="12.938" cy="12.94" fill="#fff" rx="3.47" ry="3.453" /><rect width=".535" height="3.04" x="12.648" y="10.018" fill="#7a7a7a" rx=".243" ry=".243" transform="rotate(-180 12.915 11.538)" /><path fill="#7a7a7a" d="m11.506 14.341.033.033a.243.243 0 0 0 .344 0l1.008-1.003a.24.24 0 0 0 0-.343l-.033-.033a.243.243 0 0 0-.344 0l-1.008 1.003a.24.24 0 0 0 0 .343" /><circle cx="12.936" cy="12.933" r=".564" fill="#5e5f60" /><path fill="#86d633" d="M13.742 9.045c2.168.437 3.57 2.54 3.131 4.697a3.98 3.98 0 0 1-1.838 2.61l-.132-.349a.08.08 0 0 0-.1-.045.1.1 0 0 0-.033.023l-1.039 1.254a.078.078 0 0 0 .048.126l1.614.263a.077.077 0 0 0 .089-.065.1.1 0 0 0-.004-.039l-.193-.516a4.67 4.67 0 0 0 2.176-2.766A4.065 4.065 0 0 0 14.674 9.2a4 4 0 0 0-.933-.156Z" /><style>.msportalfx-svg-c01{fill:#fff}.msportalfx-svg-c02{fill:#e5e5e5}.msportalfx-svg-c03{fill:#a0a1a2}.msportalfx-svg-c04{fill:#7a7a7a}.msportalfx-svg-c05{fill:#3e3e3e}.msportalfx-svg-c06{fill:#1e1e1e}.msportalfx-svg-c07{fill:#0f0f0f}.msportalfx-svg-c08{fill:#ba141a}.msportalfx-svg-c09{fill:#dd5900}.msportalfx-svg-c10{fill:#ff8c00}.msportalfx-svg-c11{fill:#fcd116}.msportalfx-svg-c12{fill:#fee087}.msportalfx-svg-c13{fill:#b8d432}.msportalfx-svg-c14,.msportalfx-svg-c32{fill:#57a300}.msportalfx-svg-c15{fill:#59b4d9}.msportalfx-svg-c16{fill:#3999c6}.msportalfx-svg-c17{fill:#804998}.msportalfx-svg-c18{fill:#ec008c}.msportalfx-svg-c19{fill:#0072c6}.msportalfx-svg-c20{fill:#68217a}.msportalfx-svg-c21{fill:#00188f}.msportalfx-svg-c22{fill:#e81123}.fxs-mode-light .msportalfx-svg-c22{fill:#a4262c}.msportalfx-svg-c23{fill:#cae3f3}.msportalfx-svg-c24{fill:#59aed3}.msportalfx-svg-c25{fill:#4c3b12}.msportalfx-svg-c26{fill:#be9555}.msportalfx-svg-c27{fill:#4f4d52}.msportalfx-svg-c28{fill:#ef6f59}.msportalfx-svg-c29{fill:#f7cb64}.msportalfx-svg-c30{fill:#fdd8db}.msportalfx-svg-c31{fill:#f6ffec}.msportalfx-svg-c33{fill:#8a2da5}.msportalfx-svg-c34{fill:#e00b1c}.msportalfx-svg-c35{fill:#015cda}.msportalfx-svg-c36{fill:#5db300}.msportalfx-svg-c97{fill:#ffb900}.msportalfx-svg-c98{fill:#00a4ef}.msportalfx-svg-c99{fill:#f25022}.msportalfx-inverted-theme .msportalfx-svg-c05,.fxs-theme-dark .msportalfx-svg-c05{fill:#777}.msportalfx-inverted-theme .msportalfx-svg-c07,.fxs-theme-dark .msportalfx-svg-c07{fill:#f2f2f2}.msportalfx-svg-palette-white{fill:#fff}.msportalfx-svg-palette-blue{fill:#015cda}.msportalfx-svg-palette-black{fill:#1e1e1e}.msportalfx-svg-palette-green{fill:#57a300}.msportalfx-svg-palette-gray{fill:#a0a1a2}.msportalfx-svg-palette-inherit{fill:inherit}.msportalfx-svg-badge{position:absolute;left:0;bottom:0;min-height:10px;min-width:10px}.fxc-menu-icon&gt;.msportalfx-svg-badge{left:-2px;bottom:-2px;min-height:8px;min-width:8px}.msportalfx-svg-disabled{filter:grayscale(100%)}.msportalfx-svg-loading-square{animation:ProgressFlagAnimation 1.45s infinite ease-in-out;transform-origin:50%}.msportalfx-svg-loading-square:nth-child(1){animation-delay:0s}.msportalfx-svg-loading-square:nth-child(2){animation-delay:.2s}.msportalfx-svg-loading-square:nth-child(3){animation-delay:.4s}@keyframes ProgressFlagAnimation{0%{transform:scale(1);opacity:.3}36.1%{transform:scale(1.06);opacity:1}50%{transform:scale(1.06);opacity:1}86.1%{transform:scale(1);opacity:.3}}.msportalfx-svg-flip-horizontal&gt;svg,svg.msportalfx-svg-flip-horizontal{transform:scaleX(-1)}.msportalfx-svg-fabric-rotate360{animation:ImageRotation 1.3s cubic-bezier(.53,.21,.29,.67) infinite}@keyframes ImageRotation{0%{transform:rotate(-45deg)}100%{transform:rotate(315deg)}}.fxs-svg-number .msportalfx-font-bold{font-size:10px;fill:#0065ad}.fxs-svg-number .fxs-svg-circle{stroke-width:0%;fill:#0078d4}.fxs-svg-number .fxs-svg-text{fill:#fff;font-size:10px}.fxs-svg-number.msportalfx-svg-disabled{filter:grayscale(0%)}.fxs-svg-number.msportalfx-svg-disabled .fxs-svg-circle{fill:#fff;stroke-width:1px;stroke:#949494}.fxs-svg-number.msportalfx-svg-disabled .fxs-svg-text{fill:#949494}.fxs-theme-dark .fxs-svg-number .fxs-svg-text{fill:#0f0f0f}.fxs-theme-dark .fxs-svg-number .fxs-svg-circle{stroke-width:0%;fill:#0078d4}.fxs-theme-dark .fxs-svg-number.msportalfx-svg-disabled .fxs-svg-circle{fill:#0f0f0f;stroke-width:1px;stroke:#949494}.fxs-theme-dark .fxs-svg-number.msportalfx-svg-disabled .fxs-svg-text{fill:#949494}</style></svg>