<svg fill="none" viewBox="0 0 1863 1251" class="msportalfx-svg-placeholder" xmlns="http://www.w3.org/2000/svg"><title>Quantum Provider Account</title><desc></desc><path fill="url(#plRn-sAru__a)" d="M1665.21 908.756c-76.6 11.699-256.92-6.635-317.4-50.927l-31.98-120.564 143.49-195.659c6.73 3.336 60.19 45.264 150.48 70.017 67.73 18.568 169.98 26.022 218.34 8.602C1848.3 680.02 1863 734.116 1863 759.528c0 47.374-74.45 130.392-197.79 149.228" /><path fill="url(#plRn-sAru__b)" d="M530.61 3.913C367.167-8.746 213.203 85.635 205.613 163.31c-7.589 77.675-10.175 333.292-10.175 333.292 35.532-21.317 155.148-104.499 347.012-97.115 191.865 7.384 281.878 69.574 402.683 153.965 148.357 103.636 238.057 174.1 322.147 245.161l246.34-257.004s-86.84-71.593-177.65-142.122c-111.33-86.458-296.09-220.842-405.051-279.078C835.591 69.459 694.053 16.571 530.61 3.913" /><path fill="url(#plRn-sAru__c)" d="M1597.71 380.536c135.01-9.474 241.6 81.721 241.6 155.146L1863 757.617c-14.58-18.377-72.95-61.894-185.94-43.251-104.23 17.196-236.87 129.264-298.46 187.283-87.75 82.668-193.05 184.771-230.95 184.771-59.29 0-390.628-34.96-444.129-43.83 0 0 128.365-113.122 249.898-221.477 93.821-83.644 224.611-209.088 294.901-267.663 92.38-76.982 214.37-163.44 349.39-172.914" /><path fill="url(#plRn-sAru__d)" d="M241.883 95.484C219.725 121.263 120.019 242.83 48.936 421.635-31.466 623.883-28.62 812.251 178.851 1016.53c207.472 204.28 418.077 248.71 605.204 229.76 187.127-18.94 268.305-81.4 325.695-119.61 51.82-34.51 168.44-130.312 190.57-148.572.84-.689.12-2.065-.94-1.806-56.6 13.919-240.62 23.167-407.549-22.54-171.766-47.033-376.621-137.386-496.24-265.295C270.939 555.175 202.539 418.5 202.539 288.158c0-90.192 31.299-169.203 40.993-191.514.46-1.058-.897-2.035-1.649-1.16" /><defs><linearGradient id="plRn-sAru__a" x1="1858.97" x2="1501.55" y1="786.322" y2="690.624" gradientUnits="userSpaceOnUse"><stop stop-color="#0078D4" /><stop offset="1" stop-color="#8DC8E8" /></linearGradient><linearGradient id="plRn-sAru__b" x1="189.514" x2="1162.26" y1="291.71" y2="1077.09" gradientUnits="userSpaceOnUse"><stop offset=".035" stop-color="#8661C5" /><stop offset=".473" stop-color="#0078D4" /><stop offset="1" stop-color="#8DC8E8" /></linearGradient><linearGradient id="plRn-sAru__c" x1="1703.11" x2="915.131" y1="586.726" y2="1205.4" gradientUnits="userSpaceOnUse"><stop stop-color="#8661C5" /><stop offset=".402" stop-color="#0078D4" /><stop offset="1" stop-color="#8DC8E8" /></linearGradient><linearGradient id="plRn-sAru__d" x1="1042.25" x2="98.218" y1="1159.84" y2="363.19" gradientUnits="userSpaceOnUse"><stop stop-color="#8661C5" /><stop offset=".515" stop-color="#0078D4" /><stop offset="1" stop-color="#8DC8E8" /></linearGradient></defs><style>.msportalfx-svg-c01{fill:#fff}.msportalfx-svg-c02{fill:#e5e5e5}.msportalfx-svg-c03{fill:#a0a1a2}.msportalfx-svg-c04{fill:#7a7a7a}.msportalfx-svg-c05{fill:#3e3e3e}.msportalfx-svg-c06{fill:#1e1e1e}.msportalfx-svg-c07{fill:#0f0f0f}.msportalfx-svg-c08{fill:#ba141a}.msportalfx-svg-c09{fill:#dd5900}.msportalfx-svg-c10{fill:#ff8c00}.msportalfx-svg-c11{fill:#fcd116}.msportalfx-svg-c12{fill:#fee087}.msportalfx-svg-c13{fill:#b8d432}.msportalfx-svg-c14,.msportalfx-svg-c32{fill:#57a300}.msportalfx-svg-c15{fill:#59b4d9}.msportalfx-svg-c16{fill:#3999c6}.msportalfx-svg-c17{fill:#804998}.msportalfx-svg-c18{fill:#ec008c}.msportalfx-svg-c19{fill:#0072c6}.msportalfx-svg-c20{fill:#68217a}.msportalfx-svg-c21{fill:#00188f}.msportalfx-svg-c22{fill:#e81123}.fxs-mode-light .msportalfx-svg-c22{fill:#a4262c}.msportalfx-svg-c23{fill:#cae3f3}.msportalfx-svg-c24{fill:#59aed3}.msportalfx-svg-c25{fill:#4c3b12}.msportalfx-svg-c26{fill:#be9555}.msportalfx-svg-c27{fill:#4f4d52}.msportalfx-svg-c28{fill:#ef6f59}.msportalfx-svg-c29{fill:#f7cb64}.msportalfx-svg-c30{fill:#fdd8db}.msportalfx-svg-c31{fill:#f6ffec}.msportalfx-svg-c33{fill:#8a2da5}.msportalfx-svg-c34{fill:#e00b1c}.msportalfx-svg-c35{fill:#015cda}.msportalfx-svg-c36{fill:#5db300}.msportalfx-svg-c97{fill:#ffb900}.msportalfx-svg-c98{fill:#00a4ef}.msportalfx-svg-c99{fill:#f25022}.msportalfx-inverted-theme .msportalfx-svg-c05,.fxs-theme-dark .msportalfx-svg-c05{fill:#777}.msportalfx-inverted-theme .msportalfx-svg-c07,.fxs-theme-dark .msportalfx-svg-c07{fill:#f2f2f2}.msportalfx-svg-palette-white{fill:#fff}.msportalfx-svg-palette-blue{fill:#015cda}.msportalfx-svg-palette-black{fill:#1e1e1e}.msportalfx-svg-palette-green{fill:#57a300}.msportalfx-svg-palette-gray{fill:#a0a1a2}.msportalfx-svg-palette-inherit{fill:inherit}.msportalfx-svg-badge{position:absolute;left:0;bottom:0;min-height:10px;min-width:10px}.fxc-menu-icon&gt;.msportalfx-svg-badge{left:-2px;bottom:-2px;min-height:8px;min-width:8px}.msportalfx-svg-disabled{filter:grayscale(100%)}.msportalfx-svg-loading-square{animation:ProgressFlagAnimation 1.45s infinite ease-in-out;transform-origin:50%}.msportalfx-svg-loading-square:nth-child(1){animation-delay:0s}.msportalfx-svg-loading-square:nth-child(2){animation-delay:.2s}.msportalfx-svg-loading-square:nth-child(3){animation-delay:.4s}@keyframes ProgressFlagAnimation{0%{transform:scale(1);opacity:.3}36.1%{transform:scale(1.06);opacity:1}50%{transform:scale(1.06);opacity:1}86.1%{transform:scale(1);opacity:.3}}.msportalfx-svg-flip-horizontal&gt;svg,svg.msportalfx-svg-flip-horizontal{transform:scaleX(-1)}.msportalfx-svg-fabric-rotate360{animation:ImageRotation 1.3s cubic-bezier(.53,.21,.29,.67) infinite}@keyframes ImageRotation{0%{transform:rotate(-45deg)}100%{transform:rotate(315deg)}}.fxs-svg-number .msportalfx-font-bold{font-size:10px;fill:#0065ad}.fxs-svg-number .fxs-svg-circle{stroke-width:0%;fill:#0078d4}.fxs-svg-number .fxs-svg-text{fill:#fff;font-size:10px}.fxs-svg-number.msportalfx-svg-disabled{filter:grayscale(0%)}.fxs-svg-number.msportalfx-svg-disabled .fxs-svg-circle{fill:#fff;stroke-width:1px;stroke:#949494}.fxs-svg-number.msportalfx-svg-disabled .fxs-svg-text{fill:#949494}.fxs-theme-dark .fxs-svg-number .fxs-svg-text{fill:#0f0f0f}.fxs-theme-dark .fxs-svg-number .fxs-svg-circle{stroke-width:0%;fill:#0078d4}.fxs-theme-dark .fxs-svg-number.msportalfx-svg-disabled .fxs-svg-circle{fill:#0f0f0f;stroke-width:1px;stroke:#949494}.fxs-theme-dark .fxs-svg-number.msportalfx-svg-disabled .fxs-svg-text{fill:#949494}</style></svg>