<svg xml:space="preserve" viewBox="0 0 18 18" class="msportalfx-svg-placeholder" xmlns="http://www.w3.org/2000/svg"><title>Quantum Workspace</title><desc>Create a quantum workspace to access diverse quantum resources today. Try now with free credits.</desc><path fill="#0078d4" d="M14.6 18q-.15 0 0 0L11 15.9l-1.8 1-7.3-4.2V4.2L9.1 0l7.3 4.2v8.6l-1.7 1 1.7 1v2.3z" /><path fill="#fff" d="M16.5 12.7V4.2L9.1 0H9L1.8 4.2v8.6L9.1 17l1.8-1 1.8 1 1.8 1 1.8-1v-2.3l-1.7-1zc-.1 0 0 0 0 0m-3.7 1.9v-1.8l1.6.9zM9 8.3l-1.5-.9L9 6.5zm.2-1.8 1.6.9-1.6.9zm-.3 2-1.5.9V7.6zm.1.1v1.8l-1.5-.9zm.2 0 1.6.9-1.6.9zm.1-.1 1.6-.9v1.8zm0-2.1 1.6-.9v1.8zm-1.9.9V5.5l1.6.9zm-.2 2.1-1.6-.9 1.6-.9zm1.7 1.2-1.6.9V9.7zm1.9-.9v1.8l-1.6-.9zm.2-2.1 1.6.9-1.6.9zm.1-.2 1.6-.9v1.8zm-.1-.1V5.5l1.6.9zM9.2 6.2V4.4l1.6.9zm-.2 0-1.5-.9L9 4.4zM7.2 7.3l-1.6-.9 1.6-.9zm-.1.1-1.5.9V6.5zm0 2.1-1.6.9V8.6zm.1.2v1.8l-1.6-.9zm1.8 1v1.8l-1.6-.9zm.2 0 1.6.9-1.6.9zm1.8-1 1.6.9-1.6.9zm.1-.2 1.6-.9v1.8zm1.7-3 1.6.9-1.6.9zm-1.7-1.2 1.6-.9v1.8zm-1.8-1 1.6-.9v1.8zm-1.9.9V3.4l1.6.9zm-1.8 1V4.4l1.6.9zm-.2 2.1-1.6-.9 1.6-.9zm0 2.1-1.6-.9 1.6-.9zm1.7 1.2-1.6.9v-1.8zm1.8 1.1-1.6.9v-1.8zm1.9-.9v1.8l-1.6-.9zm1.9-1.1v1.8l-1.6-.9zm.1-2.1 1.6.9-1.6.9zm.1-.1 1.6-.9v1.8zm0-2.1 1.6-.9v1.8zm-.1-.2V4.4l1.6.9zm-1.8-1V3.4l1.6.9zM9.2 4.1V2.3l1.6.9zm-.2 0-1.5-.9L9 2.3zM7.2 5.2l-1.6-.9 1.6-.9zm-1.8 1-1.6-.9 1.6-.9zm-.1.2-1.6.9V5.5zm0 2.1-1.6.9V7.6zm0 2.1-1.6.9V9.7zm.1.1v1.8l-1.6-.9zm1.8 1.1v1.8l-1.6-.9zm1.8 1v1.8l-1.6-.9zm.2 0 1.6.9-1.6.9zm1.8-1 1.6.9-1.6.9zm1.8-1.1 1.6.9-1.6.9zm.1-.1 1.6-.9v1.8zm1.7-3 1.6.9-1.6.9zm0-2.1 1.6.9-1.6.9zm-1.7-1.2 1.6-.9v1.8zm-1.8-1.1 1.6-.9v1.8zm-1.8-1 1.6-.9v1.8zm-1.9.9V1.3l1.6.9zm-1.8 1V2.3l1.6.9zM3.7 5.2V3.4l1.6.9zm-.1 2.1L2 6.4l1.6-.9zm0 2.1L2 8.5l1.6-.9zm0 2.1L2 10.6l1.6-.9zm1.7 1.2-1.6.9v-1.8zm1.8 1-1.6.9v-1.8zm1.8 1.1-1.6.9v-1.8zm1.9-.9v1.8l-1.6-.9zm1.9-1.1v1.8l-1.6-.9zm1.8 1.1v1.8l-1.6-.9zm-1.6-1.2 1.6-.9v1.8zm1.7-3 1.6.9-1.6.9zm.1-.2 1.6-.9v1.8zm0-2.1 1.6-.9v1.8zm0-2.1 1.6-.9v1.8zm-.1-.1V3.4l1.6.9zm-1.8-1.1V2.3l1.6.9zm-1.8-1V1.3l1.6.9zM9.2 2V.2l1.6.9zM9 2l-1.5-.9L9 .2zM7.2 3.1l-1.6-.9 1.6-.9zm-1.8 1-1.6-.9 1.6-.9zM3.6 5.2 2 4.3l1.6-.9zm-.1.1-1.6.9V4.4zm0 2.1-1.6.9V6.5zm0 2.1-1.6.9V8.6zm0 2.1-1.6.9v-1.8zm.1.2v1.8L2 12.7zm1.8 1v1.8l-1.6-.9zm1.8 1.1v1.8l-1.6-.9zm1.8 1v1.8l-1.6-.9zm.2 0 1.6.9-1.6.9zm1.8-1 1.6.9-1.6.9zm3.4 1.9-1.6.9v-1.8zm.1.2v1.8l-1.6-.9zm.1 0 1.6.9-1.6.9zm.1-.2 1.6-.9v1.8zm-.1-.1v-1.8l1.6.9zm0-3.9 1.6.9-1.6.9zm.1-.2 1.6-.9v1.8zm-2 3.3v1.8l-1.6-.9z" /><style>.msportalfx-svg-c01{fill:#fff}.msportalfx-svg-c02{fill:#e5e5e5}.msportalfx-svg-c03{fill:#a0a1a2}.msportalfx-svg-c04{fill:#7a7a7a}.msportalfx-svg-c05{fill:#3e3e3e}.msportalfx-svg-c06{fill:#1e1e1e}.msportalfx-svg-c07{fill:#0f0f0f}.msportalfx-svg-c08{fill:#ba141a}.msportalfx-svg-c09{fill:#dd5900}.msportalfx-svg-c10{fill:#ff8c00}.msportalfx-svg-c11{fill:#fcd116}.msportalfx-svg-c12{fill:#fee087}.msportalfx-svg-c13{fill:#b8d432}.msportalfx-svg-c14,.msportalfx-svg-c32{fill:#57a300}.msportalfx-svg-c15{fill:#59b4d9}.msportalfx-svg-c16{fill:#3999c6}.msportalfx-svg-c17{fill:#804998}.msportalfx-svg-c18{fill:#ec008c}.msportalfx-svg-c19{fill:#0072c6}.msportalfx-svg-c20{fill:#68217a}.msportalfx-svg-c21{fill:#00188f}.msportalfx-svg-c22{fill:#e81123}.fxs-mode-light .msportalfx-svg-c22{fill:#a4262c}.msportalfx-svg-c23{fill:#cae3f3}.msportalfx-svg-c24{fill:#59aed3}.msportalfx-svg-c25{fill:#4c3b12}.msportalfx-svg-c26{fill:#be9555}.msportalfx-svg-c27{fill:#4f4d52}.msportalfx-svg-c28{fill:#ef6f59}.msportalfx-svg-c29{fill:#f7cb64}.msportalfx-svg-c30{fill:#fdd8db}.msportalfx-svg-c31{fill:#f6ffec}.msportalfx-svg-c33{fill:#8a2da5}.msportalfx-svg-c34{fill:#e00b1c}.msportalfx-svg-c35{fill:#015cda}.msportalfx-svg-c36{fill:#5db300}.msportalfx-svg-c97{fill:#ffb900}.msportalfx-svg-c98{fill:#00a4ef}.msportalfx-svg-c99{fill:#f25022}.msportalfx-inverted-theme .msportalfx-svg-c05,.fxs-theme-dark .msportalfx-svg-c05{fill:#777}.msportalfx-inverted-theme .msportalfx-svg-c07,.fxs-theme-dark .msportalfx-svg-c07{fill:#f2f2f2}.msportalfx-svg-palette-white{fill:#fff}.msportalfx-svg-palette-blue{fill:#015cda}.msportalfx-svg-palette-black{fill:#1e1e1e}.msportalfx-svg-palette-green{fill:#57a300}.msportalfx-svg-palette-gray{fill:#a0a1a2}.msportalfx-svg-palette-inherit{fill:inherit}.msportalfx-svg-badge{position:absolute;left:0;bottom:0;min-height:10px;min-width:10px}.fxc-menu-icon&gt;.msportalfx-svg-badge{left:-2px;bottom:-2px;min-height:8px;min-width:8px}.msportalfx-svg-disabled{filter:grayscale(100%)}.msportalfx-svg-loading-square{animation:ProgressFlagAnimation 1.45s infinite ease-in-out;transform-origin:50%}.msportalfx-svg-loading-square:nth-child(1){animation-delay:0s}.msportalfx-svg-loading-square:nth-child(2){animation-delay:.2s}.msportalfx-svg-loading-square:nth-child(3){animation-delay:.4s}@keyframes ProgressFlagAnimation{0%{transform:scale(1);opacity:.3}36.1%{transform:scale(1.06);opacity:1}50%{transform:scale(1.06);opacity:1}86.1%{transform:scale(1);opacity:.3}}.msportalfx-svg-flip-horizontal&gt;svg,svg.msportalfx-svg-flip-horizontal{transform:scaleX(-1)}.msportalfx-svg-fabric-rotate360{animation:ImageRotation 1.3s cubic-bezier(.53,.21,.29,.67) infinite}@keyframes ImageRotation{0%{transform:rotate(-45deg)}100%{transform:rotate(315deg)}}.fxs-svg-number .msportalfx-font-bold{font-size:10px;fill:#0065ad}.fxs-svg-number .fxs-svg-circle{stroke-width:0%;fill:#0078d4}.fxs-svg-number .fxs-svg-text{fill:#fff;font-size:10px}.fxs-svg-number.msportalfx-svg-disabled{filter:grayscale(0%)}.fxs-svg-number.msportalfx-svg-disabled .fxs-svg-circle{fill:#fff;stroke-width:1px;stroke:#949494}.fxs-svg-number.msportalfx-svg-disabled .fxs-svg-text{fill:#949494}.fxs-theme-dark .fxs-svg-number .fxs-svg-text{fill:#0f0f0f}.fxs-theme-dark .fxs-svg-number .fxs-svg-circle{stroke-width:0%;fill:#0078d4}.fxs-theme-dark .fxs-svg-number.msportalfx-svg-disabled .fxs-svg-circle{fill:#0f0f0f;stroke-width:1px;stroke:#949494}.fxs-theme-dark .fxs-svg-number.msportalfx-svg-disabled .fxs-svg-text{fill:#949494}</style></svg>