<svg viewBox="0 0 18 18" class="msportalfx-svg-placeholder" xmlns="http://www.w3.org/2000/svg"><title>VMware datastore</title><desc>Datastores in this vCenter</desc><defs><linearGradient id="p3M3C9P8F__a" x1="2.214" x2="15.787" y1="10.229" y2="10.229" gradientUnits="userSpaceOnUse"><stop offset="0" stop-color="#0078d4" /><stop offset=".483" stop-color="#5ea0ef" /><stop offset="1" stop-color="#0078d4" /></linearGradient></defs><path fill="#0078d4" d="M12.234 4.618c.19-.04.38-.08.56-.12a3 3 0 0 1-.32.08c-.22.05-.46.1-.7.13.16-.03.31-.06.46-.09m1.49-.38c-.07.02-.14.05-.21.07-.11.03-.22.07-.33.1l-.36.09c.17-.05.34-.09.49-.14l.39-.13c.01 0 .02 0 .02.01m-10.69-.59c.04.03.09.06.14.09a.3.3 0 0 1-.08-.04.3.3 0 0 1-.06-.05" /><path fill="#0078d4" d="M12.234 4.618c.19-.04.38-.08.56-.12a3 3 0 0 1-.32.08c-.22.05-.46.1-.7.13.16-.03.31-.06.46-.09m2.96-1.15a2.3 2.3 0 0 1-.3.22 6 6 0 0 1-1.17.55c-.07.02-.14.05-.21.07-.11.03-.22.07-.33.1l-.36.09c.17-.05.34-.09.49-.14l.39-.13a5.3 5.3 0 0 0 1.49-.76" /><path fill="#9cebff" d="M11.024 4.808c-.25.04-.52.06-.79.08.04-.01.08-.01.12-.02Zm1.45-.23c-.22.05-.46.1-.7.13.16-.03.31-.06.46-.09a2 2 0 0 0 .24-.04m1.04-.27c-.11.03-.22.07-.33.1a.7.7 0 0 0 .13-.05 1 1 0 0 0 .2-.05" /><path fill="#e8e8e8" d="M9 0a17 17 0 0 0-2.18.13A19 19 0 0 1 9 .008a19 19 0 0 1 2.18.12A17 17 0 0 0 9 0" /><path fill="#0078d4" d="M15.784 13.088a.7.7 0 0 1-.05.29 1.87 1.87 0 0 1-.84.93A12 12 0 0 1 9 15.538a12 12 0 0 1-5.91-1.22 1.58 1.58 0 0 1-.88-1.23.97.97 0 0 1 .16-.54c.67 1.12 3.39 1.91 6.63 1.91s5.94-.82 6.62-1.91a.97.97 0 0 1 .164.54m-.16-4.08c-.68 1.09-3.39 1.91-6.62 1.91s-5.96-.79-6.63-1.91a.97.97 0 0 0-.16.54 1.58 1.58 0 0 0 .88 1.23A12 12 0 0 0 9 12.008a12 12 0 0 0 5.89-1.24 1.87 1.87 0 0 0 .84-.93.7.7 0 0 0 .05-.29.97.97 0 0 0-.156-.54m0-3.54c-.68 1.09-3.39 1.91-6.62 1.91s-5.96-.79-6.63-1.91a.97.97 0 0 0-.16.54 1.58 1.58 0 0 0 .88 1.23A12 12 0 0 0 9 8.468a12 12 0 0 0 5.89-1.24 1.87 1.87 0 0 0 .84-.93.7.7 0 0 0 .05-.29.97.97 0 0 0-.156-.54M9 .013c-3.748 0-6.786 1.058-6.786 2.456A1.57 1.57 0 0 0 3.093 3.7 12 12 0 0 0 9 4.926a12 12 0 0 0 5.893-1.238 1.9 1.9 0 0 0 .844-.925 1 1 0 0 0 .049-.294C15.786 1.071 12.748.013 9 .013" /><path fill="#9cebff" d="M14.894 3.688a6 6 0 0 1-1.17.55A15 15 0 0 1 9 4.928a14.8 14.8 0 0 1-4.74-.69 5.3 5.3 0 0 1-1.17-.54 1.58 1.58 0 0 1-.88-1.23v2.46a1 1 0 0 0 .05.29 1.4 1.4 0 0 0 .11.25c.5.84 2.15 1.49 4.31 1.77h.01a19 19 0 0 0 2.31.14 19 19 0 0 0 2.3-.14h.01c2.15-.29 3.8-.95 4.31-1.77a3 3 0 0 0 .11-.25v-2.45a1.9 1.9 0 0 1-.836.92m0 3.54a6 6 0 0 1-1.17.55A15 15 0 0 1 9 8.468a14.8 14.8 0 0 1-4.74-.69 5.3 5.3 0 0 1-1.17-.54 1.58 1.58 0 0 1-.88-1.23v2.46a1 1 0 0 0 .05.29 1.4 1.4 0 0 0 .11.25c.5.84 2.15 1.49 4.31 1.77h.01a19 19 0 0 0 2.31.14 19 19 0 0 0 2.3-.14h.01c2.15-.29 3.8-.95 4.31-1.77a3 3 0 0 0 .11-.25V6.3a1.87 1.87 0 0 1-.836.928m0 3.54a6 6 0 0 1-1.17.55 15 15 0 0 1-4.72.69 14.8 14.8 0 0 1-4.74-.69 5.3 5.3 0 0 1-1.17-.54 1.58 1.58 0 0 1-.88-1.23v2.46a1 1 0 0 0 .05.29 1.4 1.4 0 0 0 .11.25c.67 1.12 3.39 1.91 6.63 1.91s5.94-.82 6.62-1.91a3 3 0 0 0 .11-.25v-2.46a1.87 1.87 0 0 1-.84.93m0 3.54A12 12 0 0 1 9 15.538a12 12 0 0 1-5.91-1.22 1.58 1.58 0 0 1-.88-1.23v2.45a1 1 0 0 0 .05.3C2.654 17.088 5.524 18 9 18s6.33-.94 6.73-2.16v-2.46a1.87 1.87 0 0 1-.836.928" /><path fill="#e8e8e8" d="M9 0C5.252 0 2.214 1.059 2.214 2.457S5.252 4.913 9 4.913s6.786-1.1 6.786-2.456C15.786 1.059 12.748 0 9 0m.006 3.822c-2.87 0-5.21-.7-5.21-1.557S6.126.7 9.006.7s5.2.7 5.2 1.557-2.332 1.565-5.2 1.565" /><path fill="url(#p3M3C9P8F__a)" d="M15.787 2.457v13.086C15.787 16.9 12.748 18 9 18s-6.786-1.059-6.786-2.457V2.457c0 1.4 3.039 2.457 6.786 2.457s6.787-1.101 6.787-2.457" opacity=".7" /><style>.msportalfx-svg-c01{fill:#fff}.msportalfx-svg-c02{fill:#e5e5e5}.msportalfx-svg-c03{fill:#a0a1a2}.msportalfx-svg-c04{fill:#7a7a7a}.msportalfx-svg-c05{fill:#3e3e3e}.msportalfx-svg-c06{fill:#1e1e1e}.msportalfx-svg-c07{fill:#0f0f0f}.msportalfx-svg-c08{fill:#ba141a}.msportalfx-svg-c09{fill:#dd5900}.msportalfx-svg-c10{fill:#ff8c00}.msportalfx-svg-c11{fill:#fcd116}.msportalfx-svg-c12{fill:#fee087}.msportalfx-svg-c13{fill:#b8d432}.msportalfx-svg-c14,.msportalfx-svg-c32{fill:#57a300}.msportalfx-svg-c15{fill:#59b4d9}.msportalfx-svg-c16{fill:#3999c6}.msportalfx-svg-c17{fill:#804998}.msportalfx-svg-c18{fill:#ec008c}.msportalfx-svg-c19{fill:#0072c6}.msportalfx-svg-c20{fill:#68217a}.msportalfx-svg-c21{fill:#00188f}.msportalfx-svg-c22{fill:#e81123}.fxs-mode-light .msportalfx-svg-c22{fill:#a4262c}.msportalfx-svg-c23{fill:#cae3f3}.msportalfx-svg-c24{fill:#59aed3}.msportalfx-svg-c25{fill:#4c3b12}.msportalfx-svg-c26{fill:#be9555}.msportalfx-svg-c27{fill:#4f4d52}.msportalfx-svg-c28{fill:#ef6f59}.msportalfx-svg-c29{fill:#f7cb64}.msportalfx-svg-c30{fill:#fdd8db}.msportalfx-svg-c31{fill:#f6ffec}.msportalfx-svg-c33{fill:#8a2da5}.msportalfx-svg-c34{fill:#e00b1c}.msportalfx-svg-c35{fill:#015cda}.msportalfx-svg-c36{fill:#5db300}.msportalfx-svg-c97{fill:#ffb900}.msportalfx-svg-c98{fill:#00a4ef}.msportalfx-svg-c99{fill:#f25022}.msportalfx-inverted-theme .msportalfx-svg-c05,.fxs-theme-dark .msportalfx-svg-c05{fill:#777}.msportalfx-inverted-theme .msportalfx-svg-c07,.fxs-theme-dark .msportalfx-svg-c07{fill:#f2f2f2}.msportalfx-svg-palette-white{fill:#fff}.msportalfx-svg-palette-blue{fill:#015cda}.msportalfx-svg-palette-black{fill:#1e1e1e}.msportalfx-svg-palette-green{fill:#57a300}.msportalfx-svg-palette-gray{fill:#a0a1a2}.msportalfx-svg-palette-inherit{fill:inherit}.msportalfx-svg-badge{position:absolute;left:0;bottom:0;min-height:10px;min-width:10px}.fxc-menu-icon&gt;.msportalfx-svg-badge{left:-2px;bottom:-2px;min-height:8px;min-width:8px}.msportalfx-svg-disabled{filter:grayscale(100%)}.msportalfx-svg-loading-square{animation:ProgressFlagAnimation 1.45s infinite ease-in-out;transform-origin:50%}.msportalfx-svg-loading-square:nth-child(1){animation-delay:0s}.msportalfx-svg-loading-square:nth-child(2){animation-delay:.2s}.msportalfx-svg-loading-square:nth-child(3){animation-delay:.4s}@keyframes ProgressFlagAnimation{0%{transform:scale(1);opacity:.3}36.1%{transform:scale(1.06);opacity:1}50%{transform:scale(1.06);opacity:1}86.1%{transform:scale(1);opacity:.3}}.msportalfx-svg-flip-horizontal&gt;svg,svg.msportalfx-svg-flip-horizontal{transform:scaleX(-1)}.msportalfx-svg-fabric-rotate360{animation:ImageRotation 1.3s cubic-bezier(.53,.21,.29,.67) infinite}@keyframes ImageRotation{0%{transform:rotate(-45deg)}100%{transform:rotate(315deg)}}.fxs-svg-number .msportalfx-font-bold{font-size:10px;fill:#0065ad}.fxs-svg-number .fxs-svg-circle{stroke-width:0%;fill:#0078d4}.fxs-svg-number .fxs-svg-text{fill:#fff;font-size:10px}.fxs-svg-number.msportalfx-svg-disabled{filter:grayscale(0%)}.fxs-svg-number.msportalfx-svg-disabled .fxs-svg-circle{fill:#fff;stroke-width:1px;stroke:#949494}.fxs-svg-number.msportalfx-svg-disabled .fxs-svg-text{fill:#949494}.fxs-theme-dark .fxs-svg-number .fxs-svg-text{fill:#0f0f0f}.fxs-theme-dark .fxs-svg-number .fxs-svg-circle{stroke-width:0%;fill:#0078d4}.fxs-theme-dark .fxs-svg-number.msportalfx-svg-disabled .fxs-svg-circle{fill:#0f0f0f;stroke-width:1px;stroke:#949494}.fxs-theme-dark .fxs-svg-number.msportalfx-svg-disabled .fxs-svg-text{fill:#949494}</style></svg>