<svg viewBox="0 0 18 18" class="msportalfx-svg-placeholder" xmlns="http://www.w3.org/2000/svg"><title>VMware cluster</title><desc>Clusters in this vCenter</desc><defs><linearGradient id="pVmP-GtkD__a" x1="9" x2="9" y1="1.508" y2="16.492" gradientUnits="userSpaceOnUse"><stop offset="0" stop-color="#b3b3b3" /><stop offset=".468" stop-color="#a2a2a2" /><stop offset="1" stop-color="#949494" /></linearGradient></defs><path fill="url(#pVmP-GtkD__a)" d="M3.875 16.491H.494A.47.47 0 0 1 0 16.046V3.79a.473.473 0 0 1 .494-.445h3.217v12.661a.94.94 0 0 0 .164.485M17.506 3.345h-3.217v12.661a.95.95 0 0 1-.163.485h3.38a.47.47 0 0 0 .494-.445V3.79a.473.473 0 0 0-.494-.445m-3.642-1.329a.54.54 0 0 0-.562-.508H4.7a.54.54 0 0 0-.562.508v13.967a.54.54 0 0 0 .562.509h8.6a.54.54 0 0 0 .562-.509Z" /><path fill="#003067" d="M3.711 7.944v2.044H2.179a.98.98 0 0 1-.929-.976v-.047a.977.977 0 0 1 .932-1.021ZM2.183 4.907a.977.977 0 0 0-.933.974v.047a.98.98 0 0 0 .932 1.023h1.529V4.907ZM15.9 7.944h-1.611v2.044H15.9a1.027 1.027 0 0 0 0-2.044m0-3.037h-1.611v2.044H15.9a.98.98 0 0 0 .928-1.023.98.98 0 0 0-.928-1.021m-3.378 3.006a1.115 1.115 0 0 0-1.057-1.164H6.624a1.113 1.113 0 0 0-1.062 1.164 1.114 1.114 0 0 0 1.057 1.165h4.846a1.115 1.115 0 0 0 1.057-1.165m-1.057-4.626H6.624a1.115 1.115 0 0 0-1.062 1.165 1.116 1.116 0 0 0 1.062 1.166h4.841a1.117 1.117 0 0 0 1.057-1.166 1.116 1.116 0 0 0-1.057-1.165" /><path fill="#50e6ff" d="M3.257 5.928a.686.686 0 1 1-.686-.686.686.686 0 0 1 .686.686m-.686 2.351a.686.686 0 1 0 .686.686.686.686 0 0 0-.686-.686M7.066 3.67a.782.782 0 1 0 .782.782.78.78 0 0 0-.782-.782m0 3.462a.782.782 0 1 0 .782.781.78.78 0 0 0-.782-.781" /><style>.msportalfx-svg-c01{fill:#fff}.msportalfx-svg-c02{fill:#e5e5e5}.msportalfx-svg-c03{fill:#a0a1a2}.msportalfx-svg-c04{fill:#7a7a7a}.msportalfx-svg-c05{fill:#3e3e3e}.msportalfx-svg-c06{fill:#1e1e1e}.msportalfx-svg-c07{fill:#0f0f0f}.msportalfx-svg-c08{fill:#ba141a}.msportalfx-svg-c09{fill:#dd5900}.msportalfx-svg-c10{fill:#ff8c00}.msportalfx-svg-c11{fill:#fcd116}.msportalfx-svg-c12{fill:#fee087}.msportalfx-svg-c13{fill:#b8d432}.msportalfx-svg-c14,.msportalfx-svg-c32{fill:#57a300}.msportalfx-svg-c15{fill:#59b4d9}.msportalfx-svg-c16{fill:#3999c6}.msportalfx-svg-c17{fill:#804998}.msportalfx-svg-c18{fill:#ec008c}.msportalfx-svg-c19{fill:#0072c6}.msportalfx-svg-c20{fill:#68217a}.msportalfx-svg-c21{fill:#00188f}.msportalfx-svg-c22{fill:#e81123}.fxs-mode-light .msportalfx-svg-c22{fill:#a4262c}.msportalfx-svg-c23{fill:#cae3f3}.msportalfx-svg-c24{fill:#59aed3}.msportalfx-svg-c25{fill:#4c3b12}.msportalfx-svg-c26{fill:#be9555}.msportalfx-svg-c27{fill:#4f4d52}.msportalfx-svg-c28{fill:#ef6f59}.msportalfx-svg-c29{fill:#f7cb64}.msportalfx-svg-c30{fill:#fdd8db}.msportalfx-svg-c31{fill:#f6ffec}.msportalfx-svg-c33{fill:#8a2da5}.msportalfx-svg-c34{fill:#e00b1c}.msportalfx-svg-c35{fill:#015cda}.msportalfx-svg-c36{fill:#5db300}.msportalfx-svg-c97{fill:#ffb900}.msportalfx-svg-c98{fill:#00a4ef}.msportalfx-svg-c99{fill:#f25022}.msportalfx-inverted-theme .msportalfx-svg-c05,.fxs-theme-dark .msportalfx-svg-c05{fill:#777}.msportalfx-inverted-theme .msportalfx-svg-c07,.fxs-theme-dark .msportalfx-svg-c07{fill:#f2f2f2}.msportalfx-svg-palette-white{fill:#fff}.msportalfx-svg-palette-blue{fill:#015cda}.msportalfx-svg-palette-black{fill:#1e1e1e}.msportalfx-svg-palette-green{fill:#57a300}.msportalfx-svg-palette-gray{fill:#a0a1a2}.msportalfx-svg-palette-inherit{fill:inherit}.msportalfx-svg-badge{position:absolute;left:0;bottom:0;min-height:10px;min-width:10px}.fxc-menu-icon&gt;.msportalfx-svg-badge{left:-2px;bottom:-2px;min-height:8px;min-width:8px}.msportalfx-svg-disabled{filter:grayscale(100%)}.msportalfx-svg-loading-square{animation:ProgressFlagAnimation 1.45s infinite ease-in-out;transform-origin:50%}.msportalfx-svg-loading-square:nth-child(1){animation-delay:0s}.msportalfx-svg-loading-square:nth-child(2){animation-delay:.2s}.msportalfx-svg-loading-square:nth-child(3){animation-delay:.4s}@keyframes ProgressFlagAnimation{0%{transform:scale(1);opacity:.3}36.1%{transform:scale(1.06);opacity:1}50%{transform:scale(1.06);opacity:1}86.1%{transform:scale(1);opacity:.3}}.msportalfx-svg-flip-horizontal&gt;svg,svg.msportalfx-svg-flip-horizontal{transform:scaleX(-1)}.msportalfx-svg-fabric-rotate360{animation:ImageRotation 1.3s cubic-bezier(.53,.21,.29,.67) infinite}@keyframes ImageRotation{0%{transform:rotate(-45deg)}100%{transform:rotate(315deg)}}.fxs-svg-number .msportalfx-font-bold{font-size:10px;fill:#0065ad}.fxs-svg-number .fxs-svg-circle{stroke-width:0%;fill:#0078d4}.fxs-svg-number .fxs-svg-text{fill:#fff;font-size:10px}.fxs-svg-number.msportalfx-svg-disabled{filter:grayscale(0%)}.fxs-svg-number.msportalfx-svg-disabled .fxs-svg-circle{fill:#fff;stroke-width:1px;stroke:#949494}.fxs-svg-number.msportalfx-svg-disabled .fxs-svg-text{fill:#949494}.fxs-theme-dark .fxs-svg-number .fxs-svg-text{fill:#0f0f0f}.fxs-theme-dark .fxs-svg-number .fxs-svg-circle{stroke-width:0%;fill:#0078d4}.fxs-theme-dark .fxs-svg-number.msportalfx-svg-disabled .fxs-svg-circle{fill:#0f0f0f;stroke-width:1px;stroke:#949494}.fxs-theme-dark .fxs-svg-number.msportalfx-svg-disabled .fxs-svg-text{fill:#949494}</style></svg>