<svg viewBox="0 0 18 18" class="msportalfx-svg-placeholder" xmlns="http://www.w3.org/2000/svg"><title>VMware virtual network</title><desc>Networks in this vCenter</desc><defs><linearGradient id="pwDA8fNG9__a" x1="9.029" x2="9.029" y1=".055" y2="11.622" gradientUnits="userSpaceOnUse"><stop offset="0" stop-color="#5ea0ef" /><stop offset="1" stop-color="#0078d4" /></linearGradient><linearGradient id="pwDA8fNG9__b" x1="9.02" x2="8.971" y1="18.488" y2="11.315" gradientUnits="userSpaceOnUse"><stop offset="0" stop-color="#0078d4" /><stop offset="1" stop-color="#5ea0ef" /></linearGradient><linearGradient id="pwDA8fNG9__c" x1="9" x2="9" y1="4.323" y2="17.11" gradientUnits="userSpaceOnUse"><stop offset="0" stop-color="#9cebff" /><stop offset="1" stop-color="#50e6ff" /></linearGradient></defs><path fill="url(#pwDA8fNG9__a)" d="M13.66 2.339a5.81 5.81 0 0 0-8.149-1.086l-.059.047a5.821 5.821 0 0 0 2.624 10.341V7.424a1.832 1.832 0 0 1 .681-3.4A2 2 0 0 1 9 4.006a1.6 1.6 0 0 1 .323.031 1.829 1.829 0 0 1 .6 3.388v4.222a5.8 5.8 0 0 0 2.65-1.149 5.824 5.824 0 0 0 1.087-8.159" /><path fill="#8bc1fd" d="M14.349 3.412 14.3 3.3A5.9 5.9 0 0 0 9.811.06a1.3 1.3 0 0 0-.275-.033A6 6 0 0 0 9.014 0a6 6 0 0 0-.6.031 1.5 1.5 0 0 0-.32.049A5.9 5.9 0 0 0 3.736 3.3h-.008v.011a5.876 5.876 0 0 0 4.348 8.408v-.844a5.75 5.75 0 0 1-1.6-2.518h1.6v-.57H6.287A6.8 6.8 0 0 1 5.979 5.9a8.8 8.8 0 0 1 .239-2.033h2.539v.157A2 2 0 0 1 9 4.006a1.6 1.6 0 0 1 .323.031v-.171h2.409A8.8 8.8 0 0 1 11.97 5.9a6.8 6.8 0 0 1-.308 1.886H9.925v.57h1.547a5.7 5.7 0 0 1-1.547 2.466v.9a5.9 5.9 0 0 0 4.98-5.822 5.8 5.8 0 0 0-.556-2.488m-2.043.454h1.629a5.3 5.3 0 0 1 .052 3.919H12.26a7.3 7.3 0 0 0 .277-1.885 9.3 9.3 0 0 0-.231-2.034M5.69 7.785H4.04a5.28 5.28 0 0 1 .054-3.919h1.548A9.3 9.3 0 0 0 5.413 5.9a7.2 7.2 0 0 0 .277 1.885m1.621 3.16a5.35 5.35 0 0 1-3.018-2.59h1.574a8 8 0 0 0 1.444 2.59M5.791 3.3h-1.42A5.35 5.35 0 0 1 6.943.987 6.8 6.8 0 0 0 5.791 3.3m2.963 0H6.376A4.38 4.38 0 0 1 8.242.629q.253-.036.512-.05Zm.568 0V.584q.174.009.346.028A4.3 4.3 0 0 1 11.573 3.3Zm1.65-2.35a5.36 5.36 0 0 1 2.685 2.35h-1.5A6.8 6.8 0 0 0 10.972.946Zm1.112 7.409h1.652a5.35 5.35 0 0 1-3.136 2.629 7.9 7.9 0 0 0 1.484-2.633Z" /><path fill="url(#pwDA8fNG9__b)" d="M18 13.676V17.4a.6.6 0 0 1-.6.6H.6a.6.6 0 0 1-.6-.6v-3.724a.6.6 0 0 1 .6-.6h7.476v.812a.14.14 0 0 1-.067.112A1.826 1.826 0 0 0 9 17.373 1.829 1.829 0 0 0 9.991 14a.14.14 0 0 1-.066-.119v-.81H17.4a.6.6 0 0 1 .6.605" /><rect width="1.345" height="1.347" x="15.201" y="13.935" fill="#fff" rx=".301" /><rect width="1.345" height="1.347" x="15.201" y="15.792" fill="#fff" opacity=".6" rx=".301" /><path fill="url(#pwDA8fNG9__c)" d="M10.233 15.532a1.235 1.235 0 1 1-2.47 0 1.22 1.22 0 0 1 .737-1.107.29.29 0 0 0 .178-.261v-6.94a.29.29 0 0 0-.178-.262 1.22 1.22 0 0 1-.735-1.116 1.23 1.23 0 0 1 .99-1.211A1.3 1.3 0 0 1 9 4.611h.008a1.3 1.3 0 0 1 .314.041 1.236 1.236 0 0 1 .915 1.2A1.22 1.22 0 0 1 9.5 6.964a.285.285 0 0 0-.177.261v6.935a.29.29 0 0 0 .177.261 1.22 1.22 0 0 1 .733 1.111" /><style>.msportalfx-svg-c01{fill:#fff}.msportalfx-svg-c02{fill:#e5e5e5}.msportalfx-svg-c03{fill:#a0a1a2}.msportalfx-svg-c04{fill:#7a7a7a}.msportalfx-svg-c05{fill:#3e3e3e}.msportalfx-svg-c06{fill:#1e1e1e}.msportalfx-svg-c07{fill:#0f0f0f}.msportalfx-svg-c08{fill:#ba141a}.msportalfx-svg-c09{fill:#dd5900}.msportalfx-svg-c10{fill:#ff8c00}.msportalfx-svg-c11{fill:#fcd116}.msportalfx-svg-c12{fill:#fee087}.msportalfx-svg-c13{fill:#b8d432}.msportalfx-svg-c14,.msportalfx-svg-c32{fill:#57a300}.msportalfx-svg-c15{fill:#59b4d9}.msportalfx-svg-c16{fill:#3999c6}.msportalfx-svg-c17{fill:#804998}.msportalfx-svg-c18{fill:#ec008c}.msportalfx-svg-c19{fill:#0072c6}.msportalfx-svg-c20{fill:#68217a}.msportalfx-svg-c21{fill:#00188f}.msportalfx-svg-c22{fill:#e81123}.fxs-mode-light .msportalfx-svg-c22{fill:#a4262c}.msportalfx-svg-c23{fill:#cae3f3}.msportalfx-svg-c24{fill:#59aed3}.msportalfx-svg-c25{fill:#4c3b12}.msportalfx-svg-c26{fill:#be9555}.msportalfx-svg-c27{fill:#4f4d52}.msportalfx-svg-c28{fill:#ef6f59}.msportalfx-svg-c29{fill:#f7cb64}.msportalfx-svg-c30{fill:#fdd8db}.msportalfx-svg-c31{fill:#f6ffec}.msportalfx-svg-c33{fill:#8a2da5}.msportalfx-svg-c34{fill:#e00b1c}.msportalfx-svg-c35{fill:#015cda}.msportalfx-svg-c36{fill:#5db300}.msportalfx-svg-c97{fill:#ffb900}.msportalfx-svg-c98{fill:#00a4ef}.msportalfx-svg-c99{fill:#f25022}.msportalfx-inverted-theme .msportalfx-svg-c05,.fxs-theme-dark .msportalfx-svg-c05{fill:#777}.msportalfx-inverted-theme .msportalfx-svg-c07,.fxs-theme-dark .msportalfx-svg-c07{fill:#f2f2f2}.msportalfx-svg-palette-white{fill:#fff}.msportalfx-svg-palette-blue{fill:#015cda}.msportalfx-svg-palette-black{fill:#1e1e1e}.msportalfx-svg-palette-green{fill:#57a300}.msportalfx-svg-palette-gray{fill:#a0a1a2}.msportalfx-svg-palette-inherit{fill:inherit}.msportalfx-svg-badge{position:absolute;left:0;bottom:0;min-height:10px;min-width:10px}.fxc-menu-icon&gt;.msportalfx-svg-badge{left:-2px;bottom:-2px;min-height:8px;min-width:8px}.msportalfx-svg-disabled{filter:grayscale(100%)}.msportalfx-svg-loading-square{animation:ProgressFlagAnimation 1.45s infinite ease-in-out;transform-origin:50%}.msportalfx-svg-loading-square:nth-child(1){animation-delay:0s}.msportalfx-svg-loading-square:nth-child(2){animation-delay:.2s}.msportalfx-svg-loading-square:nth-child(3){animation-delay:.4s}@keyframes ProgressFlagAnimation{0%{transform:scale(1);opacity:.3}36.1%{transform:scale(1.06);opacity:1}50%{transform:scale(1.06);opacity:1}86.1%{transform:scale(1);opacity:.3}}.msportalfx-svg-flip-horizontal&gt;svg,svg.msportalfx-svg-flip-horizontal{transform:scaleX(-1)}.msportalfx-svg-fabric-rotate360{animation:ImageRotation 1.3s cubic-bezier(.53,.21,.29,.67) infinite}@keyframes ImageRotation{0%{transform:rotate(-45deg)}100%{transform:rotate(315deg)}}.fxs-svg-number .msportalfx-font-bold{font-size:10px;fill:#0065ad}.fxs-svg-number .fxs-svg-circle{stroke-width:0%;fill:#0078d4}.fxs-svg-number .fxs-svg-text{fill:#fff;font-size:10px}.fxs-svg-number.msportalfx-svg-disabled{filter:grayscale(0%)}.fxs-svg-number.msportalfx-svg-disabled .fxs-svg-circle{fill:#fff;stroke-width:1px;stroke:#949494}.fxs-svg-number.msportalfx-svg-disabled .fxs-svg-text{fill:#949494}.fxs-theme-dark .fxs-svg-number .fxs-svg-text{fill:#0f0f0f}.fxs-theme-dark .fxs-svg-number .fxs-svg-circle{stroke-width:0%;fill:#0078d4}.fxs-theme-dark .fxs-svg-number.msportalfx-svg-disabled .fxs-svg-circle{fill:#0f0f0f;stroke-width:1px;stroke:#949494}.fxs-theme-dark .fxs-svg-number.msportalfx-svg-disabled .fxs-svg-text{fill:#949494}</style></svg>