<svg fill="none" viewBox="0 0 16 16" class="msportalfx-svg-placeholder" xmlns="http://www.w3.org/2000/svg"><title>Hierarchy Configuration Template</title><desc>Hierarchy Configuration Template resource menu for ConfigManager</desc><g clip-path="url(#ppPTXUVzO__a)"><path fill="url(#ppPTXUVzO__b)" d="M15.476 7.467A3.35 3.35 0 0 0 12.56 4.24 4.23 4.23 0 0 0 8.196.187a4.37 4.37 0 0 0-4.17 2.835 3.98 3.98 0 0 0-3.502 3.85 4.07 4.07 0 0 0 4.214 3.91q.182.015.364 0h6.818a.6.6 0 0 0 .178 0 3.396 3.396 0 0 0 3.377-3.315" /><path fill="#76BC2D" d="M7.235 14.222v-.533l-.542-.187-.142-.364.276-.551v-.063l-.17-.168-.204-.205h-.07l-.534.267-.365-.098-.23-.596h-.525l-.178.543-.4.177-.596-.337-.39.337v.071l.266.525-.151.364-.613.267v.551h.08l.56.187.15.364-.284.614.373.373h.072l.533-.267.364.151.232.64h.524v-.08l.187-.56.355-.15.622.284.374-.374v-.07l-.267-.525.098-.373zm-2.23.489a.746.746 0 1 1 .737-.747.747.747 0 0 1-.738.711z" /><path fill="url(#ppPTXUVzO__c)" d="M15.36 11.236v-1.04l-.053-.045-1.085-.373-.275-.711.55-1.067.054-.116-.329-.355-.391-.418-.142.071-1.04.533-.711-.204-.454-1.156h-1.03l-.054.054-.356 1.058-.729.275-1.2-.569-.729.73.072.141L8 9.075l-.294.712-1.253.453v1.04l.151.044 1.102.365.294.755-.57 1.2.73.738.142-.062 1.04-.533.711.293.454 1.253h1.048v-.222l.365-1.102.702-.293 1.218.56.729-.73-.071-.142-.507-.96.204-.729zm-4.365.96a1.458 1.458 0 1 1 1.45-1.467 1.467 1.467 0 0 1-1.45 1.467" /><path fill="#fff" d="M10.995 12.196a1.458 1.458 0 1 1 1.45-1.467 1.466 1.466 0 0 1-1.45 1.467" /></g><defs><linearGradient id="ppPTXUVzO__b" x1="8" x2="8" y1="13.893" y2="-2.231" gradientUnits="userSpaceOnUse"><stop stop-color="#0078D4" /><stop offset=".16" stop-color="#1380DA" /><stop offset=".53" stop-color="#3C91E5" /><stop offset=".82" stop-color="#559CEC" /><stop offset="1" stop-color="#5EA0EF" /></linearGradient><linearGradient id="ppPTXUVzO__c" x1="10.898" x2="10.898" y1="6.373" y2="15.298" gradientUnits="userSpaceOnUse"><stop stop-color="#FFD70F" /><stop offset=".27" stop-color="#FFD310" /><stop offset=".54" stop-color="#FFC613" /><stop offset=".83" stop-color="#FEB217" /><stop offset="1" stop-color="#FEA11B" /></linearGradient><clipPath id="ppPTXUVzO__a"><path fill="#fff" d="M0 0h16v16H0z" /></clipPath></defs><style>.msportalfx-svg-c01{fill:#fff}.msportalfx-svg-c02{fill:#e5e5e5}.msportalfx-svg-c03{fill:#a0a1a2}.msportalfx-svg-c04{fill:#7a7a7a}.msportalfx-svg-c05{fill:#3e3e3e}.msportalfx-svg-c06{fill:#1e1e1e}.msportalfx-svg-c07{fill:#0f0f0f}.msportalfx-svg-c08{fill:#ba141a}.msportalfx-svg-c09{fill:#dd5900}.msportalfx-svg-c10{fill:#ff8c00}.msportalfx-svg-c11{fill:#fcd116}.msportalfx-svg-c12{fill:#fee087}.msportalfx-svg-c13{fill:#b8d432}.msportalfx-svg-c14,.msportalfx-svg-c32{fill:#57a300}.msportalfx-svg-c15{fill:#59b4d9}.msportalfx-svg-c16{fill:#3999c6}.msportalfx-svg-c17{fill:#804998}.msportalfx-svg-c18{fill:#ec008c}.msportalfx-svg-c19{fill:#0072c6}.msportalfx-svg-c20{fill:#68217a}.msportalfx-svg-c21{fill:#00188f}.msportalfx-svg-c22{fill:#e81123}.fxs-mode-light .msportalfx-svg-c22{fill:#a4262c}.msportalfx-svg-c23{fill:#cae3f3}.msportalfx-svg-c24{fill:#59aed3}.msportalfx-svg-c25{fill:#4c3b12}.msportalfx-svg-c26{fill:#be9555}.msportalfx-svg-c27{fill:#4f4d52}.msportalfx-svg-c28{fill:#ef6f59}.msportalfx-svg-c29{fill:#f7cb64}.msportalfx-svg-c30{fill:#fdd8db}.msportalfx-svg-c31{fill:#f6ffec}.msportalfx-svg-c33{fill:#8a2da5}.msportalfx-svg-c34{fill:#e00b1c}.msportalfx-svg-c35{fill:#015cda}.msportalfx-svg-c36{fill:#5db300}.msportalfx-svg-c97{fill:#ffb900}.msportalfx-svg-c98{fill:#00a4ef}.msportalfx-svg-c99{fill:#f25022}.msportalfx-inverted-theme .msportalfx-svg-c05,.fxs-theme-dark .msportalfx-svg-c05{fill:#777}.msportalfx-inverted-theme .msportalfx-svg-c07,.fxs-theme-dark .msportalfx-svg-c07{fill:#f2f2f2}.msportalfx-svg-palette-white{fill:#fff}.msportalfx-svg-palette-blue{fill:#015cda}.msportalfx-svg-palette-black{fill:#1e1e1e}.msportalfx-svg-palette-green{fill:#57a300}.msportalfx-svg-palette-gray{fill:#a0a1a2}.msportalfx-svg-palette-inherit{fill:inherit}.msportalfx-svg-badge{position:absolute;left:0;bottom:0;min-height:10px;min-width:10px}.fxc-menu-icon&gt;.msportalfx-svg-badge{left:-2px;bottom:-2px;min-height:8px;min-width:8px}.msportalfx-svg-disabled{filter:grayscale(100%)}.msportalfx-svg-loading-square{animation:ProgressFlagAnimation 1.45s infinite ease-in-out;transform-origin:50%}.msportalfx-svg-loading-square:nth-child(1){animation-delay:0s}.msportalfx-svg-loading-square:nth-child(2){animation-delay:.2s}.msportalfx-svg-loading-square:nth-child(3){animation-delay:.4s}@keyframes ProgressFlagAnimation{0%{transform:scale(1);opacity:.3}36.1%{transform:scale(1.06);opacity:1}50%{transform:scale(1.06);opacity:1}86.1%{transform:scale(1);opacity:.3}}.msportalfx-svg-flip-horizontal&gt;svg,svg.msportalfx-svg-flip-horizontal{transform:scaleX(-1)}.msportalfx-svg-fabric-rotate360{animation:ImageRotation 1.3s cubic-bezier(.53,.21,.29,.67) infinite}@keyframes ImageRotation{0%{transform:rotate(-45deg)}100%{transform:rotate(315deg)}}.fxs-svg-number .msportalfx-font-bold{font-size:10px;fill:#0065ad}.fxs-svg-number .fxs-svg-circle{stroke-width:0%;fill:#0078d4}.fxs-svg-number .fxs-svg-text{fill:#fff;font-size:10px}.fxs-svg-number.msportalfx-svg-disabled{filter:grayscale(0%)}.fxs-svg-number.msportalfx-svg-disabled .fxs-svg-circle{fill:#fff;stroke-width:1px;stroke:#949494}.fxs-svg-number.msportalfx-svg-disabled .fxs-svg-text{fill:#949494}.fxs-theme-dark .fxs-svg-number .fxs-svg-text{fill:#0f0f0f}.fxs-theme-dark .fxs-svg-number .fxs-svg-circle{stroke-width:0%;fill:#0078d4}.fxs-theme-dark .fxs-svg-number.msportalfx-svg-disabled .fxs-svg-circle{fill:#0f0f0f;stroke-width:1px;stroke:#949494}.fxs-theme-dark .fxs-svg-number.msportalfx-svg-disabled .fxs-svg-text{fill:#949494}</style></svg>