<svg xml:space="preserve" viewBox="-291 239 50 50" class="msportalfx-svg-placeholder" xmlns="http://www.w3.org/2000/svg"><title>Custom image</title><desc></desc><path fill="#68217a" d="m-263.4 243.8-2.9-2.8-1.2-1.2h-21.2v30.1h26.5V245z" /><path fill="#FFF" d="M-267.7 241h-19.8v27.7h24.1v-23.5h-4.3z" opacity=".8" /><path fill="#68217a" d="M-273.2 263.4c0 .4-.3.7-.7.7h-9.1c-.4 0-.7-.3-.7-.7s.3-.7.7-.7h9.1c.4 0 .7.3.7.7m6.1-9c0 .4-.3.7-.7.7h-15.1c-.4 0-.7-.3-.7-.7s.3-.7.7-.7h15.1c.4 0 .7.3.7.7m0 4.5c0 .4-.3.7-.7.7h-15.1c-.4 0-.7-.3-.7-.7s.3-.7.7-.7h15.1c.4 0 .7.3.7.7m0-9.1c0 .4-.3.7-.7.7h-15.1c-.4 0-.7-.3-.7-.7s.3-.7.7-.7h15.1c.4 0 .7.3.7.7m6.4 25.9h-8.2c1 3.5-.3 4-6.1 4v1.8h19.8v-1.8c-6 0-6.5-.5-5.5-4" /><path fill="#7a7a7a" d="M-252 253.7h-26.7c-.9 0-1.6.8-1.6 1.7V274c0 .9.7 1.7 1.6 1.7h26.7c.9 0 1.8-.8 1.8-1.7v-18.6c.1-.9-.9-1.7-1.8-1.7m-.5 2.3v17.4H-278V256z" /><path fill="#59B4D9" d="M-252.5 256v17.4H-278V256h25.6z" /><path fill="#FFF" d="M-278 273.4V256h23.3l2.7-2.3h-26.7c-.9 0-1.6.8-1.6 1.7V274c0 .9.7 1.7 1.6 1.7h.6l2.7-2.3z" opacity=".2" /><path fill="#59B4D9" d="M-278 273.4V256h23.4-23.4z" /><path fill="#7a7a7a" d="M-275.1 279.7h19.7v1.8h-19.7z" /><path fill="#B8D433" d="M-264.9 254.9c0 .2-.2.4-.4.4s-.4-.2-.4-.4.2-.4.4-.4.4.2.4.4" /><path fill="#FFF" d="m-264.9 264.2-5.4-3.1-.1-.1c0-.1 0-.1.1-.1l5.3-3h.2l5.3 3.1.1.1c0 .1 0 .1-.1.1zc.1 0 0 0 0 0" /><path fill="#FFF" d="M-265.6 271.6q-.15 0 0 0l-5.4-3.1c-.1 0-.1-.1-.1-.1v-6.1c0-.1 0-.1.1-.1h.2l5.3 3.1.1.1v6.1c-.1 0-.1.1-.2.1" opacity=".7" /><path fill="#FFF" d="M-264.1 271.6q-.15 0 0 0c-.1-.1-.2-.1-.2-.2v-6.1c0-.1 0-.1.1-.1l5.3-3.1h.2c.1 0 .1.1.1.1v6.1c0 .1 0 .1-.1.1z" opacity=".4" /><path fill="#7B7B7B" d="M-256.9 279.5h-8.2c1 3.5-.3 4-6.1 4v1.8h19.8v-1.8c-5.9 0-6.5-.5-5.5-4" /><path fill="#7a7a7a" d="M-248.1 257.5h-26.7c-.9 0-1.6.8-1.6 1.7v18.6c0 .9.7 1.7 1.6 1.7h26.7c.9 0 1.8-.8 1.8-1.7v-18.6c0-.9-.9-1.7-1.8-1.7m-.5 2.3v17.4h-25.5v-17.4z" /><path fill="#59B4D9" d="M-248.6 259.8v17.4h-25.5v-17.4z" /><path fill="#FFF" d="M-274.1 277.2v-17.4h23.3l2.7-2.3h-26.7c-.9 0-1.6.8-1.6 1.7v18.6c0 .9.7 1.7 1.6 1.7h.6l2.7-2.3z" opacity=".2" /><path fill="#59B4D9" d="M-274.1 277.2v-17.4h23.3-23.3z" /><path fill="#7a7a7a" d="M-271.2 283.5h19.7v1.8h-19.7z" /><path fill="#B8D433" d="M-261 258.8c0 .2-.2.4-.4.4s-.4-.2-.4-.4.2-.4.4-.4.4.1.4.4" /><path fill="#FFF" d="M-261 268q-.15 0 0 0l-5.4-3.1-.1-.1c0-.1 0-.1.1-.1l5.3-3h.2l5.3 3.1.1.1c0 .1 0 .1-.1.1z" /><path fill="#FFF" d="m-261.8 275.4-5.4-3.1c-.1 0-.1-.1-.1-.1v-6.1c0-.1 0-.1.1-.1h.2l5.3 3.1.1.1v6.1s-.1.1-.2.1c.1 0 0 0 0 0" opacity=".7" /><path fill="#FFF" d="M-260.3 275.4c-.1-.1-.2-.1-.2-.2v-6.1c0-.1 0-.1.1-.1l5.3-3.1h.2c.1 0 .1.1.1.1v6.1c0 .1 0 .1-.1.1zc.1 0 0 0 0 0" opacity=".4" /><path fill="#7a7a7a" d="M-253.3 283.2h-8.2c1 3.5-.3 4-6.1 4v1.8h19.8v-1.8c-5.9-.1-6.4-.6-5.5-4m8.8-22.1h-26.7c-.9 0-1.6.8-1.6 1.7v18.6c0 .9.7 1.7 1.6 1.7h26.7c.9 0 1.8-.8 1.8-1.7v-18.6c0-.9-.9-1.7-1.8-1.7m-.5 2.4v17.4h-25.5v-17.4z" /><path fill="#59B4D9" d="M-245 263.5v17.3h-25.5v-17.3l25.5-.1z" /><path fill="#FFF" d="M-270.5 280.8v-17.4h23.3l2.7-2.3h-26.7c-.9 0-1.6.8-1.6 1.7v18.6c0 .9.7 1.7 1.6 1.7h.6l2.7-2.3z" opacity=".2" /><path fill="#59B4D9" d="M-270.5 280.8v-17.3l23.3-.1-23.3.1z" /><path fill="#7a7a7a" d="M-267.6 287.1h19.7v1.8h-19.7z" /><path fill="#68217a" d="M-257.4 262.4c0 .2-.2.4-.4.4s-.4-.2-.4-.4.2-.4.4-.4.4.2.4.4" /><path fill="#FFF" d="M-257.4 271.6s-.1 0 0 0l-5.4-3.1-.1-.1c0-.1 0-.1.1-.1l5.3-3h.2l5.3 3.1.1.1c0 .1 0 .1-.1.1z" /><path fill="#FFF" d="m-258.2 279.1-5.4-3.1c-.1 0-.1-.1-.1-.1v-6.1c0-.1 0-.1.1-.1h.2l5.3 3.1.1.1v6.1zq.15 0 0 0" opacity=".7" /><path fill="#FFF" d="M-256.7 279.1c-.1-.1-.2-.1-.2-.2v-6.1c0-.1 0-.1.1-.1l5.3-3.1h.2c.1 0 .1.1.1.1v6.1c0 .1 0 .1-.1.1zq.15 0 0 0" opacity=".4" /><style>.msportalfx-svg-c01{fill:#fff}.msportalfx-svg-c02{fill:#e5e5e5}.msportalfx-svg-c03{fill:#a0a1a2}.msportalfx-svg-c04{fill:#7a7a7a}.msportalfx-svg-c05{fill:#3e3e3e}.msportalfx-svg-c06{fill:#1e1e1e}.msportalfx-svg-c07{fill:#0f0f0f}.msportalfx-svg-c08{fill:#ba141a}.msportalfx-svg-c09{fill:#dd5900}.msportalfx-svg-c10{fill:#ff8c00}.msportalfx-svg-c11{fill:#fcd116}.msportalfx-svg-c12{fill:#fee087}.msportalfx-svg-c13{fill:#b8d432}.msportalfx-svg-c14,.msportalfx-svg-c32{fill:#57a300}.msportalfx-svg-c15{fill:#59b4d9}.msportalfx-svg-c16{fill:#3999c6}.msportalfx-svg-c17{fill:#804998}.msportalfx-svg-c18{fill:#ec008c}.msportalfx-svg-c19{fill:#0072c6}.msportalfx-svg-c20{fill:#68217a}.msportalfx-svg-c21{fill:#00188f}.msportalfx-svg-c22{fill:#e81123}.fxs-mode-light .msportalfx-svg-c22{fill:#a4262c}.msportalfx-svg-c23{fill:#cae3f3}.msportalfx-svg-c24{fill:#59aed3}.msportalfx-svg-c25{fill:#4c3b12}.msportalfx-svg-c26{fill:#be9555}.msportalfx-svg-c27{fill:#4f4d52}.msportalfx-svg-c28{fill:#ef6f59}.msportalfx-svg-c29{fill:#f7cb64}.msportalfx-svg-c30{fill:#fdd8db}.msportalfx-svg-c31{fill:#f6ffec}.msportalfx-svg-c33{fill:#8a2da5}.msportalfx-svg-c34{fill:#e00b1c}.msportalfx-svg-c35{fill:#015cda}.msportalfx-svg-c36{fill:#5db300}.msportalfx-svg-c97{fill:#ffb900}.msportalfx-svg-c98{fill:#00a4ef}.msportalfx-svg-c99{fill:#f25022}.msportalfx-inverted-theme .msportalfx-svg-c05,.fxs-theme-dark .msportalfx-svg-c05{fill:#777}.msportalfx-inverted-theme .msportalfx-svg-c07,.fxs-theme-dark .msportalfx-svg-c07{fill:#f2f2f2}.msportalfx-svg-palette-white{fill:#fff}.msportalfx-svg-palette-blue{fill:#015cda}.msportalfx-svg-palette-black{fill:#1e1e1e}.msportalfx-svg-palette-green{fill:#57a300}.msportalfx-svg-palette-gray{fill:#a0a1a2}.msportalfx-svg-palette-inherit{fill:inherit}.msportalfx-svg-badge{position:absolute;left:0;bottom:0;min-height:10px;min-width:10px}.fxc-menu-icon&gt;.msportalfx-svg-badge{left:-2px;bottom:-2px;min-height:8px;min-width:8px}.msportalfx-svg-disabled{filter:grayscale(100%)}.msportalfx-svg-loading-square{animation:ProgressFlagAnimation 1.45s infinite ease-in-out;transform-origin:50%}.msportalfx-svg-loading-square:nth-child(1){animation-delay:0s}.msportalfx-svg-loading-square:nth-child(2){animation-delay:.2s}.msportalfx-svg-loading-square:nth-child(3){animation-delay:.4s}@keyframes ProgressFlagAnimation{0%{transform:scale(1);opacity:.3}36.1%{transform:scale(1.06);opacity:1}50%{transform:scale(1.06);opacity:1}86.1%{transform:scale(1);opacity:.3}}.msportalfx-svg-flip-horizontal&gt;svg,svg.msportalfx-svg-flip-horizontal{transform:scaleX(-1)}.msportalfx-svg-fabric-rotate360{animation:ImageRotation 1.3s cubic-bezier(.53,.21,.29,.67) infinite}@keyframes ImageRotation{0%{transform:rotate(-45deg)}100%{transform:rotate(315deg)}}.fxs-svg-number .msportalfx-font-bold{font-size:10px;fill:#0065ad}.fxs-svg-number .fxs-svg-circle{stroke-width:0%;fill:#0078d4}.fxs-svg-number .fxs-svg-text{fill:#fff;font-size:10px}.fxs-svg-number.msportalfx-svg-disabled{filter:grayscale(0%)}.fxs-svg-number.msportalfx-svg-disabled .fxs-svg-circle{fill:#fff;stroke-width:1px;stroke:#949494}.fxs-svg-number.msportalfx-svg-disabled .fxs-svg-text{fill:#949494}.fxs-theme-dark .fxs-svg-number .fxs-svg-text{fill:#0f0f0f}.fxs-theme-dark .fxs-svg-number .fxs-svg-circle{stroke-width:0%;fill:#0078d4}.fxs-theme-dark .fxs-svg-number.msportalfx-svg-disabled .fxs-svg-circle{fill:#0f0f0f;stroke-width:1px;stroke:#949494}.fxs-theme-dark .fxs-svg-number.msportalfx-svg-disabled .fxs-svg-text{fill:#949494}</style></svg>