<svg viewBox="0 0 18 18" class="msportalfx-svg-placeholder" xmlns="http://www.w3.org/2000/svg"><desc></desc><defs><linearGradient id="pMhQ24923__a" x1="9" x2="9" y1="16.39" y2="-1.94" gradientUnits="userSpaceOnUse"><stop offset="0" stop-color="#0078d4" /><stop offset=".16" stop-color="#1380da" /><stop offset=".53" stop-color="#3c91e5" /><stop offset=".82" stop-color="#559cec" /><stop offset="1" stop-color="#5ea0ef" /></linearGradient><linearGradient id="pMhQ24923__b" x1="9.88" x2="9.99" y1="7.11" y2="17.27" gradientUnits="userSpaceOnUse"><stop offset="0" stop-color="#32d4f5" /><stop offset=".32" stop-color="#31d1f3" /><stop offset=".53" stop-color="#2ec9eb" /><stop offset=".7" stop-color="#29bade" /><stop offset=".86" stop-color="#22a5cb" /><stop offset="1" stop-color="#198ab3" /><stop offset="1" stop-color="#198ab3" /></linearGradient></defs><title>DevTest Lab</title><path fill="url(#pMhQ24923__a)" d="M17.5 9.08a3.82 3.82 0 0 0-3.32-3.67A4.81 4.81 0 0 0 9.23.8 5 5 0 0 0 4.48 4a4.54 4.54 0 0 0-4 4.39 4.62 4.62 0 0 0 4.79 4.44 3 3 0 0 0 .42 0h7.75a.6.6 0 0 0 .2 0 3.86 3.86 0 0 0 3.86-3.75" /><path fill="url(#pMhQ24923__b)" d="M14.81 17.2H5.17c-.31 0-.49-.49-.32-.75l3.32-4.84a.34.34 0 0 0 .07-.22v-3.2A.2.2 0 0 0 8.05 8h-.18a.38.38 0 0 1-.38-.38v-.17a.38.38 0 0 1 .38-.38h4.23a.38.38 0 0 1 .38.38v.17a.38.38 0 0 1-.38.38h-.18a.19.19 0 0 0-.19.19v3.21a.36.36 0 0 0 .07.22l3.32 4.83c.17.25-.01.75-.31.75" /><path fill="#552f99" d="m6.28 15.9 2.52-3.68a.94.94 0 0 0 .2-.52v-1.48a.29.29 0 0 1 .29-.29h1.44a.29.29 0 0 1 .29.29v1.58a.6.6 0 0 0 .11.35l2.58 3.75a.23.23 0 0 1-.18.35h-7a.22.22 0 0 1-.25-.35" /><style>.msportalfx-svg-c01{fill:#fff}.msportalfx-svg-c02{fill:#e5e5e5}.msportalfx-svg-c03{fill:#a0a1a2}.msportalfx-svg-c04{fill:#7a7a7a}.msportalfx-svg-c05{fill:#3e3e3e}.msportalfx-svg-c06{fill:#1e1e1e}.msportalfx-svg-c07{fill:#0f0f0f}.msportalfx-svg-c08{fill:#ba141a}.msportalfx-svg-c09{fill:#dd5900}.msportalfx-svg-c10{fill:#ff8c00}.msportalfx-svg-c11{fill:#fcd116}.msportalfx-svg-c12{fill:#fee087}.msportalfx-svg-c13{fill:#b8d432}.msportalfx-svg-c14,.msportalfx-svg-c32{fill:#57a300}.msportalfx-svg-c15{fill:#59b4d9}.msportalfx-svg-c16{fill:#3999c6}.msportalfx-svg-c17{fill:#804998}.msportalfx-svg-c18{fill:#ec008c}.msportalfx-svg-c19{fill:#0072c6}.msportalfx-svg-c20{fill:#68217a}.msportalfx-svg-c21{fill:#00188f}.msportalfx-svg-c22{fill:#e81123}.fxs-mode-light .msportalfx-svg-c22{fill:#a4262c}.msportalfx-svg-c23{fill:#cae3f3}.msportalfx-svg-c24{fill:#59aed3}.msportalfx-svg-c25{fill:#4c3b12}.msportalfx-svg-c26{fill:#be9555}.msportalfx-svg-c27{fill:#4f4d52}.msportalfx-svg-c28{fill:#ef6f59}.msportalfx-svg-c29{fill:#f7cb64}.msportalfx-svg-c30{fill:#fdd8db}.msportalfx-svg-c31{fill:#f6ffec}.msportalfx-svg-c33{fill:#8a2da5}.msportalfx-svg-c34{fill:#e00b1c}.msportalfx-svg-c35{fill:#015cda}.msportalfx-svg-c36{fill:#5db300}.msportalfx-svg-c97{fill:#ffb900}.msportalfx-svg-c98{fill:#00a4ef}.msportalfx-svg-c99{fill:#f25022}.msportalfx-inverted-theme .msportalfx-svg-c05,.fxs-theme-dark .msportalfx-svg-c05{fill:#777}.msportalfx-inverted-theme .msportalfx-svg-c07,.fxs-theme-dark .msportalfx-svg-c07{fill:#f2f2f2}.msportalfx-svg-palette-white{fill:#fff}.msportalfx-svg-palette-blue{fill:#015cda}.msportalfx-svg-palette-black{fill:#1e1e1e}.msportalfx-svg-palette-green{fill:#57a300}.msportalfx-svg-palette-gray{fill:#a0a1a2}.msportalfx-svg-palette-inherit{fill:inherit}.msportalfx-svg-badge{position:absolute;left:0;bottom:0;min-height:10px;min-width:10px}.fxc-menu-icon&gt;.msportalfx-svg-badge{left:-2px;bottom:-2px;min-height:8px;min-width:8px}.msportalfx-svg-disabled{filter:grayscale(100%)}.msportalfx-svg-loading-square{animation:ProgressFlagAnimation 1.45s infinite ease-in-out;transform-origin:50%}.msportalfx-svg-loading-square:nth-child(1){animation-delay:0s}.msportalfx-svg-loading-square:nth-child(2){animation-delay:.2s}.msportalfx-svg-loading-square:nth-child(3){animation-delay:.4s}@keyframes ProgressFlagAnimation{0%{transform:scale(1);opacity:.3}36.1%{transform:scale(1.06);opacity:1}50%{transform:scale(1.06);opacity:1}86.1%{transform:scale(1);opacity:.3}}.msportalfx-svg-flip-horizontal&gt;svg,svg.msportalfx-svg-flip-horizontal{transform:scaleX(-1)}.msportalfx-svg-fabric-rotate360{animation:ImageRotation 1.3s cubic-bezier(.53,.21,.29,.67) infinite}@keyframes ImageRotation{0%{transform:rotate(-45deg)}100%{transform:rotate(315deg)}}.fxs-svg-number .msportalfx-font-bold{font-size:10px;fill:#0065ad}.fxs-svg-number .fxs-svg-circle{stroke-width:0%;fill:#0078d4}.fxs-svg-number .fxs-svg-text{fill:#fff;font-size:10px}.fxs-svg-number.msportalfx-svg-disabled{filter:grayscale(0%)}.fxs-svg-number.msportalfx-svg-disabled .fxs-svg-circle{fill:#fff;stroke-width:1px;stroke:#949494}.fxs-svg-number.msportalfx-svg-disabled .fxs-svg-text{fill:#949494}.fxs-theme-dark .fxs-svg-number .fxs-svg-text{fill:#0f0f0f}.fxs-theme-dark .fxs-svg-number .fxs-svg-circle{stroke-width:0%;fill:#0078d4}.fxs-theme-dark .fxs-svg-number.msportalfx-svg-disabled .fxs-svg-circle{fill:#0f0f0f;stroke-width:1px;stroke:#949494}.fxs-theme-dark .fxs-svg-number.msportalfx-svg-disabled .fxs-svg-text{fill:#949494}</style></svg>