<svg xml:space="preserve" viewBox="0 0 18 18" class="msportalfx-svg-placeholder" xmlns="http://www.w3.org/2000/svg"><title>DevTest Labs virtual machine</title><desc></desc><linearGradient id="pmIWibxRS__a" x1="9" x2="9" y1="785.877" y2="774.88" gradientTransform="translate(0 -772)" gradientUnits="userSpaceOnUse"><stop offset="0" stop-color="#0078d4" /><stop offset=".82" stop-color="#5ea0ef" /></linearGradient><path fill="url(#pmIWibxRS__a)" d="M1 2.9h16c.3 0 .6.2.6.6v9.9c0 .3-.3.6-.6.6H1c-.3 0-.6-.2-.6-.6v-10c.1-.3.3-.5.6-.5" /><path fill="#50E6FF" d="M11.9 6.8V10l-2.8 1.6V8.4z" /><path fill="#C3F1FF" d="M11.9 6.8 9.1 8.4 6.2 6.8l2.9-1.6z" /><path fill="#9CEBFF" d="M9.1 8.4v3.2L6.2 10V6.8z" /><path fill="#C3F1FF" d="m6.2 10 2.9-1.6v3.2z" /><path fill="#9CEBFF" d="M11.9 10 9.1 8.4v3.2z" /><linearGradient id="pmIWibxRS__b" x1="9.058" x2="9.058" y1="790.123" y2="785.877" gradientTransform="translate(0 -772)" gradientUnits="userSpaceOnUse"><stop offset=".15" stop-color="#ccc" /><stop offset="1" stop-color="#707070" /></linearGradient><path fill="url(#pmIWibxRS__b)" d="M12.5 17.2c-1.7-.3-1.7-1.4-1.7-3.3H7.4c0 1.9 0 3.1-1.7 3.3-.5.1-.8.5-.9.9h8.5c.1-.4-.3-.8-.8-.9" /><linearGradient id="pmIWibxRS__c" x1="14.217" x2="14.289" y1="783.467" y2="790.046" gradientTransform="translate(0 -772)" gradientUnits="userSpaceOnUse"><stop offset="0" stop-color="#32d4f5" /><stop offset=".32" stop-color="#31d1f3" /><stop offset=".53" stop-color="#2ec9eb" /><stop offset=".7" stop-color="#29bade" /><stop offset=".86" stop-color="#22a5cb" /><stop offset="1" stop-color="#198ab3" /><stop offset="1" stop-color="#198ab3" /></linearGradient><path fill="url(#pmIWibxRS__c)" d="M17.4 18h-6.2c-.2 0-.3-.3-.2-.5l2.1-3.1v-2.2c0-.1-.1-.1-.1-.1h-.1c-.1 0-.2-.1-.2-.2v-.1c0-.1.1-.2.2-.2h2.7c.1 0 .2.1.2.2v.1c0 .1-.1.2-.2.2h-.1c-.1 0-.1.1-.1.1v2.2l2.1 3.1c.2.2.1.5-.1.5" /><path fill="#552F99" d="m11.9 17.2 1.6-2.4c.1-.1.1-.2.1-.3v-1c0-.1.1-.2.2-.2h.9c.1 0 .2.1.2.2v1c0 .1 0 .2.1.2l1.7 2.4v.2h-4.6c-.1 0-.2 0-.2-.1 0 .1 0 0 0 0" /><style>.msportalfx-svg-c01{fill:#fff}.msportalfx-svg-c02{fill:#e5e5e5}.msportalfx-svg-c03{fill:#a0a1a2}.msportalfx-svg-c04{fill:#7a7a7a}.msportalfx-svg-c05{fill:#3e3e3e}.msportalfx-svg-c06{fill:#1e1e1e}.msportalfx-svg-c07{fill:#0f0f0f}.msportalfx-svg-c08{fill:#ba141a}.msportalfx-svg-c09{fill:#dd5900}.msportalfx-svg-c10{fill:#ff8c00}.msportalfx-svg-c11{fill:#fcd116}.msportalfx-svg-c12{fill:#fee087}.msportalfx-svg-c13{fill:#b8d432}.msportalfx-svg-c14,.msportalfx-svg-c32{fill:#57a300}.msportalfx-svg-c15{fill:#59b4d9}.msportalfx-svg-c16{fill:#3999c6}.msportalfx-svg-c17{fill:#804998}.msportalfx-svg-c18{fill:#ec008c}.msportalfx-svg-c19{fill:#0072c6}.msportalfx-svg-c20{fill:#68217a}.msportalfx-svg-c21{fill:#00188f}.msportalfx-svg-c22{fill:#e81123}.fxs-mode-light .msportalfx-svg-c22{fill:#a4262c}.msportalfx-svg-c23{fill:#cae3f3}.msportalfx-svg-c24{fill:#59aed3}.msportalfx-svg-c25{fill:#4c3b12}.msportalfx-svg-c26{fill:#be9555}.msportalfx-svg-c27{fill:#4f4d52}.msportalfx-svg-c28{fill:#ef6f59}.msportalfx-svg-c29{fill:#f7cb64}.msportalfx-svg-c30{fill:#fdd8db}.msportalfx-svg-c31{fill:#f6ffec}.msportalfx-svg-c33{fill:#8a2da5}.msportalfx-svg-c34{fill:#e00b1c}.msportalfx-svg-c35{fill:#015cda}.msportalfx-svg-c36{fill:#5db300}.msportalfx-svg-c97{fill:#ffb900}.msportalfx-svg-c98{fill:#00a4ef}.msportalfx-svg-c99{fill:#f25022}.msportalfx-inverted-theme .msportalfx-svg-c05,.fxs-theme-dark .msportalfx-svg-c05{fill:#777}.msportalfx-inverted-theme .msportalfx-svg-c07,.fxs-theme-dark .msportalfx-svg-c07{fill:#f2f2f2}.msportalfx-svg-palette-white{fill:#fff}.msportalfx-svg-palette-blue{fill:#015cda}.msportalfx-svg-palette-black{fill:#1e1e1e}.msportalfx-svg-palette-green{fill:#57a300}.msportalfx-svg-palette-gray{fill:#a0a1a2}.msportalfx-svg-palette-inherit{fill:inherit}.msportalfx-svg-badge{position:absolute;left:0;bottom:0;min-height:10px;min-width:10px}.fxc-menu-icon&gt;.msportalfx-svg-badge{left:-2px;bottom:-2px;min-height:8px;min-width:8px}.msportalfx-svg-disabled{filter:grayscale(100%)}.msportalfx-svg-loading-square{animation:ProgressFlagAnimation 1.45s infinite ease-in-out;transform-origin:50%}.msportalfx-svg-loading-square:nth-child(1){animation-delay:0s}.msportalfx-svg-loading-square:nth-child(2){animation-delay:.2s}.msportalfx-svg-loading-square:nth-child(3){animation-delay:.4s}@keyframes ProgressFlagAnimation{0%{transform:scale(1);opacity:.3}36.1%{transform:scale(1.06);opacity:1}50%{transform:scale(1.06);opacity:1}86.1%{transform:scale(1);opacity:.3}}.msportalfx-svg-flip-horizontal&gt;svg,svg.msportalfx-svg-flip-horizontal{transform:scaleX(-1)}.msportalfx-svg-fabric-rotate360{animation:ImageRotation 1.3s cubic-bezier(.53,.21,.29,.67) infinite}@keyframes ImageRotation{0%{transform:rotate(-45deg)}100%{transform:rotate(315deg)}}.fxs-svg-number .msportalfx-font-bold{font-size:10px;fill:#0065ad}.fxs-svg-number .fxs-svg-circle{stroke-width:0%;fill:#0078d4}.fxs-svg-number .fxs-svg-text{fill:#fff;font-size:10px}.fxs-svg-number.msportalfx-svg-disabled{filter:grayscale(0%)}.fxs-svg-number.msportalfx-svg-disabled .fxs-svg-circle{fill:#fff;stroke-width:1px;stroke:#949494}.fxs-svg-number.msportalfx-svg-disabled .fxs-svg-text{fill:#949494}.fxs-theme-dark .fxs-svg-number .fxs-svg-text{fill:#0f0f0f}.fxs-theme-dark .fxs-svg-number .fxs-svg-circle{stroke-width:0%;fill:#0078d4}.fxs-theme-dark .fxs-svg-number.msportalfx-svg-disabled .fxs-svg-circle{fill:#0f0f0f;stroke-width:1px;stroke:#949494}.fxs-theme-dark .fxs-svg-number.msportalfx-svg-disabled .fxs-svg-text{fill:#949494}</style></svg>