<svg viewBox="0 0 18 18" class="msportalfx-svg-placeholder" xmlns="http://www.w3.org/2000/svg"><title>Kubernetes center</title><desc>Kubernetes Center is a unified interface designed to simplify management, monitoring, and optimization of Azure Kubernetes Service (AKS) environments at scale. It consolidates multiple Kubernetes-related Azure services into a single pane of glass to enhance visibility, control, and operational efficiency.</desc><defs><linearGradient id="piwR74xnE__a" x1="9.02" x2="9" y1="774.72" y2="782.52" gradientTransform="matrix(1 0 0 -1 0 791.52)" gradientUnits="userSpaceOnUse"><stop offset="0" stop-color="#d8f7ff" /><stop offset="1" stop-color="#d8f7ff" stop-opacity=".5" /></linearGradient><linearGradient id="piwR74xnE__b" x1="5.67" x2="12.53" y1="792.51" y2="771.91" gradientTransform="matrix(1 0 0 -1 0 791.52)" gradientUnits="userSpaceOnUse"><stop offset="0" stop-color="#0094f0" /><stop offset="1" stop-color="#2052cb" /></linearGradient></defs><path fill="#fff" d="M1.15 14.79V3.21c0-.55.22-1.07.6-1.46.39-.39.91-.6 1.46-.6h11.57c.55 0 1.07.22 1.46.6.39.39.6.91.6 1.46v11.57c0 .55-.22 1.07-.6 1.46-.39.39-.91.6-1.46.6H3.21c-.55 0-1.07-.22-1.46-.6-.39-.39-.6-.91-.6-1.46Z" /><path fill="url(#piwR74xnE__a)" d="M1.15 14.79V3.21c0-.55.22-1.07.6-1.46.39-.39.91-.6 1.46-.6h11.57c.55 0 1.07.22 1.46.6.39.39.6.91.6 1.46v11.57c0 .55-.22 1.07-.6 1.46-.39.39-.91.6-1.46.6H3.21c-.55 0-1.07-.22-1.46-.6-.39-.39-.6-.91-.6-1.46Z" /><path fill="url(#piwR74xnE__b)" d="M14.79 18H3.21c-.86 0-1.67-.33-2.27-.94-.61-.61-.94-1.41-.94-2.27V3.21C0 2.35.33 1.54.94.94 1.55.33 2.35 0 3.21 0h11.57c.86 0 1.67.33 2.27.94.61.61.94 1.41.94 2.27v11.57c0 .86-.33 1.67-.94 2.27-.61.61-1.41.94-2.27.94ZM3.21 1.15a2.05 2.05 0 0 0-2.06 2.06v11.57a2.05 2.05 0 0 0 2.06 2.06h11.57c.54 0 1.07-.22 1.46-.6.39-.39.6-.91.6-1.46V3.21a2.05 2.05 0 0 0-2.06-2.06z" /><path fill="#a265ec" d="m9.69 9.38 2.43-1.4 2.43 1.4v2.81l-2.43 1.4-2.43-1.4v-2.8Z" /><path fill="#552f99" d="m9.71 9.39 2.42 1.39v2.8l-2.43-1.4V9.39Z" /><path fill="#8b4ee3" d="m12.13 13.57 2.42-1.39v-2.8l-2.43 1.4v2.79Z" /><path fill="#a265ec" d="m6.6 3.98 2.43-1.4 2.43 1.4v2.81l-2.43 1.4-2.43-1.4v-2.8Z" /><path fill="#552f99" d="m6.62 3.98 2.42 1.39v2.8l-2.43-1.4V3.98Z" /><path fill="#8b4ee3" d="m9.03 8.17 2.42-1.39v-2.8l-2.43 1.4v2.79Z" /><path fill="#a265ec" d="m9.69 5.71 2.43-1.4 2.43 1.4v2.81l-2.43 1.4-2.43-1.4v-2.8Z" /><path fill="#552f99" d="m9.71 5.72 2.42 1.39v2.8L9.7 8.51V5.72Z" /><path fill="#8b4ee3" d="m12.13 9.9 2.42-1.39v-2.8l-2.43 1.4V9.9Z" /><path fill="#bd96ff" d="m3.5 9.35 2.43-1.4 2.43 1.4v2.81l-2.43 1.4-2.43-1.4v-2.8Z" /><path fill="#8b52f4" d="m3.52 9.36 2.42 1.39v2.8l-2.43-1.4V9.36Z" /><path fill="#9c6cfe" d="m5.94 13.54 2.42-1.39v-2.8l-2.43 1.4v2.79Z" /><path fill="#bd96ff" d="m6.6 11.09 2.43-1.4 2.43 1.4v2.81l-2.43 1.4-2.43-1.4v-2.8Z" /><path fill="#8b52f4" d="m6.6 11.1 2.42 1.39v2.8l-2.43-1.4V11.1Z" /><path fill="#9c6cfe" d="m9.04 15.28 2.42-1.39v-2.8l-2.43 1.4v2.79Z" /><path fill="#bd96ff" d="m3.5 5.81 2.43-1.4 2.43 1.4v2.81l-2.43 1.4-2.43-1.4v-2.8Z" /><path fill="#8b52f4" d="m3.52 5.82 2.42 1.39v2.8l-2.43-1.4V5.82Z" /><path fill="#9c6cfe" d="m5.94 10 2.42-1.39v-2.8l-2.43 1.4V10Z" /><path fill="#bd96ff" d="m6.6 7.55 2.43-1.4 2.43 1.4v2.81l-2.43 1.4-2.43-1.4v-2.8Z" /><path fill="#8b52f4" d="m6.62 7.56 2.42 1.39v2.8l-2.43-1.4V7.56Z" /><path fill="#9c6cfe" d="m9.04 11.74 2.42-1.39v-2.8l-2.43 1.4v2.79Z" /><style>.msportalfx-svg-c01{fill:#fff}.msportalfx-svg-c02{fill:#e5e5e5}.msportalfx-svg-c03{fill:#a0a1a2}.msportalfx-svg-c04{fill:#7a7a7a}.msportalfx-svg-c05{fill:#3e3e3e}.msportalfx-svg-c06{fill:#1e1e1e}.msportalfx-svg-c07{fill:#0f0f0f}.msportalfx-svg-c08{fill:#ba141a}.msportalfx-svg-c09{fill:#dd5900}.msportalfx-svg-c10{fill:#ff8c00}.msportalfx-svg-c11{fill:#fcd116}.msportalfx-svg-c12{fill:#fee087}.msportalfx-svg-c13{fill:#b8d432}.msportalfx-svg-c14,.msportalfx-svg-c32{fill:#57a300}.msportalfx-svg-c15{fill:#59b4d9}.msportalfx-svg-c16{fill:#3999c6}.msportalfx-svg-c17{fill:#804998}.msportalfx-svg-c18{fill:#ec008c}.msportalfx-svg-c19{fill:#0072c6}.msportalfx-svg-c20{fill:#68217a}.msportalfx-svg-c21{fill:#00188f}.msportalfx-svg-c22{fill:#e81123}.fxs-mode-light .msportalfx-svg-c22{fill:#a4262c}.msportalfx-svg-c23{fill:#cae3f3}.msportalfx-svg-c24{fill:#59aed3}.msportalfx-svg-c25{fill:#4c3b12}.msportalfx-svg-c26{fill:#be9555}.msportalfx-svg-c27{fill:#4f4d52}.msportalfx-svg-c28{fill:#ef6f59}.msportalfx-svg-c29{fill:#f7cb64}.msportalfx-svg-c30{fill:#fdd8db}.msportalfx-svg-c31{fill:#f6ffec}.msportalfx-svg-c33{fill:#8a2da5}.msportalfx-svg-c34{fill:#e00b1c}.msportalfx-svg-c35{fill:#015cda}.msportalfx-svg-c36{fill:#5db300}.msportalfx-svg-c97{fill:#ffb900}.msportalfx-svg-c98{fill:#00a4ef}.msportalfx-svg-c99{fill:#f25022}.msportalfx-inverted-theme .msportalfx-svg-c05,.fxs-theme-dark .msportalfx-svg-c05{fill:#777}.msportalfx-inverted-theme .msportalfx-svg-c07,.fxs-theme-dark .msportalfx-svg-c07{fill:#f2f2f2}.msportalfx-svg-palette-white{fill:#fff}.msportalfx-svg-palette-blue{fill:#015cda}.msportalfx-svg-palette-black{fill:#1e1e1e}.msportalfx-svg-palette-green{fill:#57a300}.msportalfx-svg-palette-gray{fill:#a0a1a2}.msportalfx-svg-palette-inherit{fill:inherit}.msportalfx-svg-badge{position:absolute;left:0;bottom:0;min-height:10px;min-width:10px}.fxc-menu-icon&gt;.msportalfx-svg-badge{left:-2px;bottom:-2px;min-height:8px;min-width:8px}.msportalfx-svg-disabled{filter:grayscale(100%)}.msportalfx-svg-loading-square{animation:ProgressFlagAnimation 1.45s infinite ease-in-out;transform-origin:50%}.msportalfx-svg-loading-square:nth-child(1){animation-delay:0s}.msportalfx-svg-loading-square:nth-child(2){animation-delay:.2s}.msportalfx-svg-loading-square:nth-child(3){animation-delay:.4s}@keyframes ProgressFlagAnimation{0%{transform:scale(1);opacity:.3}36.1%{transform:scale(1.06);opacity:1}50%{transform:scale(1.06);opacity:1}86.1%{transform:scale(1);opacity:.3}}.msportalfx-svg-flip-horizontal&gt;svg,svg.msportalfx-svg-flip-horizontal{transform:scaleX(-1)}.msportalfx-svg-fabric-rotate360{animation:ImageRotation 1.3s cubic-bezier(.53,.21,.29,.67) infinite}@keyframes ImageRotation{0%{transform:rotate(-45deg)}100%{transform:rotate(315deg)}}.fxs-svg-number .msportalfx-font-bold{font-size:10px;fill:#0065ad}.fxs-svg-number .fxs-svg-circle{stroke-width:0%;fill:#0078d4}.fxs-svg-number .fxs-svg-text{fill:#fff;font-size:10px}.fxs-svg-number.msportalfx-svg-disabled{filter:grayscale(0%)}.fxs-svg-number.msportalfx-svg-disabled .fxs-svg-circle{fill:#fff;stroke-width:1px;stroke:#949494}.fxs-svg-number.msportalfx-svg-disabled .fxs-svg-text{fill:#949494}.fxs-theme-dark .fxs-svg-number .fxs-svg-text{fill:#0f0f0f}.fxs-theme-dark .fxs-svg-number .fxs-svg-circle{stroke-width:0%;fill:#0078d4}.fxs-theme-dark .fxs-svg-number.msportalfx-svg-disabled .fxs-svg-circle{fill:#0f0f0f;stroke-width:1px;stroke:#949494}.fxs-theme-dark .fxs-svg-number.msportalfx-svg-disabled .fxs-svg-text{fill:#949494}</style></svg>