<svg viewBox="0 0 18 18"><defs><linearGradient id="plRvm7XAB__a" x1="5.73" x2="17.988" y1="11.363" y2="11.363" gradientUnits="userSpaceOnUse"><stop offset="0" stop-color="#c74634"/><stop offset=".5" stop-color="#db897d"/><stop offset="1" stop-color="#c74634"/></linearGradient><linearGradient id="plRvm7XAB__b" x1="5.599" x2="5.599" y1="8.084" y2="0" gradientUnits="userSpaceOnUse"><stop offset="0" stop-color="#32bedd"/><stop offset="1" stop-color="#50e6ff"/></linearGradient></defs><path fill="url(#plRvm7XAB__a)" d="M11.859 14.979c-3.385 0-6.129-.595-6.129-1.329v3.094c0 .734 2.744 1.329 6.129 1.329s6.129-.595 6.129-1.329V13.65c0 .734-2.744 1.329-6.129 1.329m5.157.63a9.8 9.8 0 0 1-3.174.534.255.255 0 1 1 0-.51 9.2 9.2 0 0 0 3.007-.506.256.256 0 0 1 .168.483ZM11.859 11c-3.385 0-6.129-.595-6.129-1.329v3.258c0 .734 2.744 1.328 6.129 1.328s6.129-.595 6.129-1.329V9.67c0 .734-2.744 1.329-6.129 1.329Zm5.157.738a9.8 9.8 0 0 1-3.174.534.255.255 0 1 1 0-.51 9.2 9.2 0 0 0 3.007-.506.256.256 0 0 1 .168.483Zm-5.157-7.085c-3.385 0-6.129.588-6.129 1.561v2.737c0 .734 2.744 1.328 6.129 1.328s6.129-.595 6.129-1.329V6.313c0-1.073-2.744-1.661-6.129-1.661Zm5.157 3.325a9.8 9.8 0 0 1-3.174.534.255.255 0 1 1 0-.51 9.2 9.2 0 0 0 3.007-.506.256.256 0 0 1 .168.483Zm-5.157-.905c-3.049 0-5.52-.555-5.52-.884 0-.404 2.471-1.028 5.52-1.028s5.52.649 5.52 1.028c0 .344-2.471.884-5.52.884"/><path fill="url(#plRvm7XAB__b)" d="M5.73 6.188v-.047c0-.907 2.388-1.479 5.457-1.552A2.56 2.56 0 0 0 9.191 3.09 3.23 3.23 0 0 0 5.865.002 3.31 3.31 0 0 0 2.7 2.16 3.055 3.055 0 0 0 .012 5.104a3.1 3.1 0 0 0 3.211 2.978c.095 0 .192-.004.282-.012h2.224V6.188Z"/><path fill="none" d="M0 0h18v18H0z"/><style>.msportalfx-svg-c01{fill:#fff}.msportalfx-svg-c02{fill:#e5e5e5}.msportalfx-svg-c03{fill:#a0a1a2}.msportalfx-svg-c04{fill:#7a7a7a}.msportalfx-svg-c05{fill:#3e3e3e}.msportalfx-svg-c06{fill:#1e1e1e}.msportalfx-svg-c07{fill:#0f0f0f}.msportalfx-svg-c08{fill:#ba141a}.msportalfx-svg-c09{fill:#dd5900}.msportalfx-svg-c10{fill:#ff8c00}.msportalfx-svg-c11{fill:#fcd116}.msportalfx-svg-c12{fill:#fee087}.msportalfx-svg-c13{fill:#b8d432}.msportalfx-svg-c14,.msportalfx-svg-c32{fill:#57a300}.msportalfx-svg-c15{fill:#59b4d9}.msportalfx-svg-c16{fill:#3999c6}.msportalfx-svg-c17{fill:#804998}.msportalfx-svg-c18{fill:#ec008c}.msportalfx-svg-c19{fill:#0072c6}.msportalfx-svg-c20{fill:#68217a}.msportalfx-svg-c21{fill:#00188f}.msportalfx-svg-c22{fill:#e81123}.fxs-mode-light .msportalfx-svg-c22{fill:#a4262c}.msportalfx-svg-c23{fill:#cae3f3}.msportalfx-svg-c24{fill:#59aed3}.msportalfx-svg-c25{fill:#4c3b12}.msportalfx-svg-c26{fill:#be9555}.msportalfx-svg-c27{fill:#4f4d52}.msportalfx-svg-c28{fill:#ef6f59}.msportalfx-svg-c29{fill:#f7cb64}.msportalfx-svg-c30{fill:#fdd8db}.msportalfx-svg-c31{fill:#f6ffec}.msportalfx-svg-c33{fill:#8a2da5}.msportalfx-svg-c34{fill:#e00b1c}.msportalfx-svg-c35{fill:#015cda}.msportalfx-svg-c36{fill:#5db300}.msportalfx-svg-c97{fill:#ffb900}.msportalfx-svg-c98{fill:#00a4ef}.msportalfx-svg-c99{fill:#f25022}.msportalfx-inverted-theme .msportalfx-svg-c05,.fxs-theme-dark .msportalfx-svg-c05{fill:#777}.msportalfx-inverted-theme .msportalfx-svg-c07,.fxs-theme-dark .msportalfx-svg-c07{fill:#f2f2f2}.msportalfx-svg-palette-white{fill:#fff}.msportalfx-svg-palette-blue{fill:#015cda}.msportalfx-svg-palette-black{fill:#1e1e1e}.msportalfx-svg-palette-green{fill:#57a300}.msportalfx-svg-palette-gray{fill:#a0a1a2}.msportalfx-svg-palette-inherit{fill:inherit}.msportalfx-svg-badge{position:absolute;left:0;bottom:0;min-height:10px;min-width:10px}.fxc-menu-icon>.msportalfx-svg-badge{left:-2px;bottom:-2px;min-height:8px;min-width:8px}.msportalfx-svg-disabled{filter:grayscale(100%)}.msportalfx-svg-loading-square{animation:ProgressFlagAnimation 1.45s infinite ease-in-out;transform-origin:50%}.msportalfx-svg-loading-square:nth-child(1){animation-delay:0s}.msportalfx-svg-loading-square:nth-child(2){animation-delay:.2s}.msportalfx-svg-loading-square:nth-child(3){animation-delay:.4s}@keyframes ProgressFlagAnimation{0%{transform:scale(1);opacity:.3}36.1%{transform:scale(1.06);opacity:1}50%{transform:scale(1.06);opacity:1}86.1%{transform:scale(1);opacity:.3}}.msportalfx-svg-flip-horizontal>svg,svg.msportalfx-svg-flip-horizontal{transform:scaleX(-1)}.msportalfx-svg-fabric-rotate360{animation:ImageRotation 1.3s cubic-bezier(.53,.21,.29,.67) infinite}@keyframes ImageRotation{0%{transform:rotate(-45deg)}100%{transform:rotate(315deg)}}.fxs-svg-number .msportalfx-font-bold{font-size:10px;fill:#0065ad}.fxs-svg-number .fxs-svg-circle{stroke-width:0%;fill:#0078d4}.fxs-svg-number .fxs-svg-text{fill:#fff;font-size:10px}.fxs-svg-number.msportalfx-svg-disabled{filter:grayscale(0%)}.fxs-svg-number.msportalfx-svg-disabled .fxs-svg-circle{fill:#fff;stroke-width:1px;stroke:#949494}.fxs-svg-number.msportalfx-svg-disabled .fxs-svg-text{fill:#949494}.fxs-theme-dark .fxs-svg-number .fxs-svg-text{fill:#0f0f0f}.fxs-theme-dark .fxs-svg-number .fxs-svg-circle{stroke-width:0%;fill:#0078d4}.fxs-theme-dark .fxs-svg-number.msportalfx-svg-disabled .fxs-svg-circle{fill:#0f0f0f;stroke-width:1px;stroke:#949494}.fxs-theme-dark .fxs-svg-number.msportalfx-svg-disabled .fxs-svg-text{fill:#949494}</style></svg>