<svg viewBox="0 0 18 18"><defs><linearGradient id="pkDg3sXyg__a" x1="4.919" x2="4.919" y1="8.584" y2=".48" gradientUnits="userSpaceOnUse"><stop offset="0" stop-color="#32bedd"/><stop offset="1" stop-color="#50e6ff"/></linearGradient><linearGradient id="pkDg3sXyg__b" x1="4.497" x2="13.503" y1="12.594" y2="12.594" gradientUnits="userSpaceOnUse"><stop offset="0" stop-color="#c74634"/><stop offset=".5" stop-color="#db897d"/><stop offset="1" stop-color="#c74634"/></linearGradient></defs><path fill="url(#pkDg3sXyg__a)" d="M9 7.664c.277 0 .808.018.808.018s-.354-.582-.471-1.193l-.518-.518a.83.83 0 0 1 0-1.174l.006-.006a.82.82 0 0 1 .587-.243l.052.003q.142-.425.375-.803a2.5 2.5 0 0 0-.636-.17A3.236 3.236 0 0 0 5.869.483a3.32 3.32 0 0 0-3.173 2.164A3.06 3.06 0 0 0 0 5.597a3.11 3.11 0 0 0 3.22 2.985c.096 0 .193-.004.283-.012h1.081c.401-.569 2.223-.906 4.417-.906Z"/><path fill="#0078d4" d="m10.78 6.704 1.053-1.053a.38.38 0 0 0 0-.537l-.006-.006a.38.38 0 0 0-.537 0l-.408.408a2.784 2.784 0 0 1 2.769-2.514c1.177 0 1.799.555 2.212 1.093.142.185.411.21.576.045l.003-.003a.38.38 0 0 0 .038-.494 3.56 3.56 0 0 0-2.829-1.405 3.54 3.54 0 0 0-3.542 3.299l-.429-.429a.38.38 0 0 0-.537 0l-.006.006a.38.38 0 0 0 0 .537l1.053 1.053a.417.417 0 0 0 .59 0m2.126-2.473-.954 2.621a.41.41 0 1 0 .775.263l.165-.52h1.289l.166.518a.414.414 0 1 0 .785-.265l-.929-2.613a.69.69 0 0 0-1.296-.005Zm1.087 1.738h-.927l.394-1.228q.051-.157.063-.316h.02q.018.19.061.326zm3.896-.059-1.051-1.051a.417.417 0 0 0-.59 0l-1.053 1.053a.38.38 0 0 0 0 .537l.006.006a.38.38 0 0 0 .537 0l.408-.408a2.784 2.784 0 0 1-4.981 1.421.383.383 0 0 0-.576-.045l-.003.003a.38.38 0 0 0-.038.494 3.56 3.56 0 0 0 2.829 1.405 3.555 3.555 0 0 0 3.542-3.308l.431.431a.38.38 0 0 0 .535.002l.002-.002a.38.38 0 0 0 .002-.539Z"/><path fill="url(#pkDg3sXyg__b)" d="M9 12.327c-2.487 0-4.503-.437-4.503-.976v2.394c0 .539 2.016.976 4.503.976s4.503-.437 4.503-.976v-2.394c0 .539-2.016.976-4.503.976m3.789.542a7.2 7.2 0 0 1-2.332.392.188.188 0 1 1 0-.376 6.8 6.8 0 0 0 2.209-.372.188.188 0 0 1 .123.355ZM9 15.25c-2.487 0-4.503-.437-4.503-.976v2.273c0 .539 2.016.976 4.503.976s4.503-.437 4.503-.976v-2.273c0 .539-2.016.976-4.503.976m3.789.463a7.1 7.1 0 0 1-2.332.392.188.188 0 1 1 0-.376 6.8 6.8 0 0 0 2.209-.372.188.188 0 0 1 .123.355Zm.714-5.86c-.23 0-.451-.033-.67-.068.03.022.06.044.073.082a.19.19 0 0 1-.116.239 7.2 7.2 0 0 1-2.332.392.188.188 0 1 1 0-.375c.407 0 .817-.038 1.217-.111q.484-.09.954-.251a4.2 4.2 0 0 1-1.221-.48c-.675.094-1.502.16-2.407.16-2.24 0-4.056-.408-4.056-.65 0-.297 1.816-.755 4.056-.755.366 0 .714.016 1.051.039-.091-.125-.166-.259-.243-.394a19 19 0 0 0-.808-.018c-2.487 0-4.503.432-4.503 1.147v2.011c0 .539 2.016.976 4.503.976s4.503-.437 4.503-.976v-.968Z"/><path fill="none" d="M0 0h18v18H0z"/><style>.msportalfx-svg-c01{fill:#fff}.msportalfx-svg-c02{fill:#e5e5e5}.msportalfx-svg-c03{fill:#a0a1a2}.msportalfx-svg-c04{fill:#7a7a7a}.msportalfx-svg-c05{fill:#3e3e3e}.msportalfx-svg-c06{fill:#1e1e1e}.msportalfx-svg-c07{fill:#0f0f0f}.msportalfx-svg-c08{fill:#ba141a}.msportalfx-svg-c09{fill:#dd5900}.msportalfx-svg-c10{fill:#ff8c00}.msportalfx-svg-c11{fill:#fcd116}.msportalfx-svg-c12{fill:#fee087}.msportalfx-svg-c13{fill:#b8d432}.msportalfx-svg-c14,.msportalfx-svg-c32{fill:#57a300}.msportalfx-svg-c15{fill:#59b4d9}.msportalfx-svg-c16{fill:#3999c6}.msportalfx-svg-c17{fill:#804998}.msportalfx-svg-c18{fill:#ec008c}.msportalfx-svg-c19{fill:#0072c6}.msportalfx-svg-c20{fill:#68217a}.msportalfx-svg-c21{fill:#00188f}.msportalfx-svg-c22{fill:#e81123}.fxs-mode-light .msportalfx-svg-c22{fill:#a4262c}.msportalfx-svg-c23{fill:#cae3f3}.msportalfx-svg-c24{fill:#59aed3}.msportalfx-svg-c25{fill:#4c3b12}.msportalfx-svg-c26{fill:#be9555}.msportalfx-svg-c27{fill:#4f4d52}.msportalfx-svg-c28{fill:#ef6f59}.msportalfx-svg-c29{fill:#f7cb64}.msportalfx-svg-c30{fill:#fdd8db}.msportalfx-svg-c31{fill:#f6ffec}.msportalfx-svg-c33{fill:#8a2da5}.msportalfx-svg-c34{fill:#e00b1c}.msportalfx-svg-c35{fill:#015cda}.msportalfx-svg-c36{fill:#5db300}.msportalfx-svg-c97{fill:#ffb900}.msportalfx-svg-c98{fill:#00a4ef}.msportalfx-svg-c99{fill:#f25022}.msportalfx-inverted-theme .msportalfx-svg-c05,.fxs-theme-dark .msportalfx-svg-c05{fill:#777}.msportalfx-inverted-theme .msportalfx-svg-c07,.fxs-theme-dark .msportalfx-svg-c07{fill:#f2f2f2}.msportalfx-svg-palette-white{fill:#fff}.msportalfx-svg-palette-blue{fill:#015cda}.msportalfx-svg-palette-black{fill:#1e1e1e}.msportalfx-svg-palette-green{fill:#57a300}.msportalfx-svg-palette-gray{fill:#a0a1a2}.msportalfx-svg-palette-inherit{fill:inherit}.msportalfx-svg-badge{position:absolute;left:0;bottom:0;min-height:10px;min-width:10px}.fxc-menu-icon>.msportalfx-svg-badge{left:-2px;bottom:-2px;min-height:8px;min-width:8px}.msportalfx-svg-disabled{filter:grayscale(100%)}.msportalfx-svg-loading-square{animation:ProgressFlagAnimation 1.45s infinite ease-in-out;transform-origin:50%}.msportalfx-svg-loading-square:nth-child(1){animation-delay:0s}.msportalfx-svg-loading-square:nth-child(2){animation-delay:.2s}.msportalfx-svg-loading-square:nth-child(3){animation-delay:.4s}@keyframes ProgressFlagAnimation{0%{transform:scale(1);opacity:.3}36.1%{transform:scale(1.06);opacity:1}50%{transform:scale(1.06);opacity:1}86.1%{transform:scale(1);opacity:.3}}.msportalfx-svg-flip-horizontal>svg,svg.msportalfx-svg-flip-horizontal{transform:scaleX(-1)}.msportalfx-svg-fabric-rotate360{animation:ImageRotation 1.3s cubic-bezier(.53,.21,.29,.67) infinite}@keyframes ImageRotation{0%{transform:rotate(-45deg)}100%{transform:rotate(315deg)}}.fxs-svg-number .msportalfx-font-bold{font-size:10px;fill:#0065ad}.fxs-svg-number .fxs-svg-circle{stroke-width:0%;fill:#0078d4}.fxs-svg-number .fxs-svg-text{fill:#fff;font-size:10px}.fxs-svg-number.msportalfx-svg-disabled{filter:grayscale(0%)}.fxs-svg-number.msportalfx-svg-disabled .fxs-svg-circle{fill:#fff;stroke-width:1px;stroke:#949494}.fxs-svg-number.msportalfx-svg-disabled .fxs-svg-text{fill:#949494}.fxs-theme-dark .fxs-svg-number .fxs-svg-text{fill:#0f0f0f}.fxs-theme-dark .fxs-svg-number .fxs-svg-circle{stroke-width:0%;fill:#0078d4}.fxs-theme-dark .fxs-svg-number.msportalfx-svg-disabled .fxs-svg-circle{fill:#0f0f0f;stroke-width:1px;stroke:#949494}.fxs-theme-dark .fxs-svg-number.msportalfx-svg-disabled .fxs-svg-text{fill:#949494}</style></svg>