<svg fill="none" viewBox="0 0 60 60" class="msportalfx-svg-placeholder" xmlns="http://www.w3.org/2000/svg"><title>GoldenGate Connection</title><desc></desc><path fill="url(#pczNgvMp3__a)" d="M30.525 5.284c5.866-.183 10.786 4.385 11.042 10.251 3.001.399 5.454 2.347 6.626 4.977l-.048.001a8.056 8.056 0 0 1-7.313 11.437h-.017l-.122.118H22.69c-.299.027-.62.04-.936.04-5.67.203-10.438-4.216-10.66-9.886a10.14 10.14 0 0 1 8.924-9.774 11 11 0 0 1 10.507-7.164" /><path fill="url(#pczNgvMp3__b)" d="M58.572 44.352H45.244v2.666a5.2 5.2 0 0 0-.96.488h-.954V44.31H16.9v2.369a5 5 0 0 0-.26-.006h-.018A5.2 5.2 0 0 0 15 46.93v-2.62H1.43v-1.897h57.142zm-13.328-20.72v.955c0 3.594 3.043 14.018 12.371 14.018h.957v1.94H1.43v-1.897h1.185c9.343 0 12.386-10.424 12.386-14.018v-.955h1.9v.955a16.4 16.4 0 0 0 2.529 8.357 12.1 12.1 0 0 0 4.68 4.155 12.1 12.1 0 0 0 6.134 1.263 11.74 11.74 0 0 0 10.671-5.703 16.8 16.8 0 0 0 2.415-8.115v-.955zm-30.243 8.37q-.52 1.08-1.157 2.097a14.8 14.8 0 0 1-4.443 4.506h5.6zm1.9 6.603h5.957a13.64 13.64 0 0 1-5.028-4.62 18 18 0 0 1-.929-1.626zm26.429-6.331c-.229.456-.5.94-.786 1.426a13.73 13.73 0 0 1-5.157 4.905h5.943zm1.914 6.331h5.586A14.7 14.7 0 0 1 46.4 34.1a17 17 0 0 1-1.157-2.096z" /><path fill="#0078D4" d="M54.719 48.06a3.78 3.78 0 0 1 2.486.913 1.86 1.86 0 0 0 1.328.514v3.57h.04v1.91a3.7 3.7 0 0 1-2.471-.912 1.96 1.96 0 0 0-1.343-.513 1.92 1.92 0 0 0-1.329.513 3.73 3.73 0 0 1-2.471.913 3.78 3.78 0 0 1-2.486-.913 1.973 1.973 0 0 0-2.657 0 3.78 3.78 0 0 1-2.486.913 3.73 3.73 0 0 1-2.471-.913 1.92 1.92 0 0 0-1.329-.513 1.96 1.96 0 0 0-1.342.513 3.804 3.804 0 0 1-4.943 0 1.96 1.96 0 0 0-1.343-.513 1.92 1.92 0 0 0-1.329.513 3.73 3.73 0 0 1-2.471.913 3.78 3.78 0 0 1-2.486-.913 1.973 1.973 0 0 0-2.657 0 3.78 3.78 0 0 1-2.486.913 3.73 3.73 0 0 1-2.471-.913 1.92 1.92 0 0 0-1.329-.513 1.96 1.96 0 0 0-1.343.513 3.8 3.8 0 0 1-4.943 0 1.96 1.96 0 0 0-1.343-.513 1.92 1.92 0 0 0-1.328.513 3.73 3.73 0 0 1-2.471.913 3.78 3.78 0 0 1-2.486-.913 1.92 1.92 0 0 0-1.329-.513v-1.904h-.04v-3.577a3.7 3.7 0 0 1 2.472.912c.362.342.845.526 1.343.514a1.86 1.86 0 0 0 1.329-.514 3.73 3.73 0 0 1 2.47-.912 3.78 3.78 0 0 1 2.487.912 1.97 1.97 0 0 0 2.657 0 3.78 3.78 0 0 1 2.485-.912 3.73 3.73 0 0 1 2.472.912 1.86 1.86 0 0 0 1.329.514c.497.012.98-.172 1.342-.514a3.805 3.805 0 0 1 4.943 0c.362.342.845.526 1.343.514a1.86 1.86 0 0 0 1.329-.514 3.73 3.73 0 0 1 2.471-.912 3.78 3.78 0 0 1 2.486.912 1.97 1.97 0 0 0 2.657 0 3.78 3.78 0 0 1 2.486-.912 3.74 3.74 0 0 1 2.471.912 1.86 1.86 0 0 0 1.329.514c.497.012.98-.172 1.342-.514a3.804 3.804 0 0 1 4.944 0c.361.342.844.526 1.342.514a1.86 1.86 0 0 0 1.329-.514 3.73 3.73 0 0 1 2.471-.912" /><defs><linearGradient id="pczNgvMp3__a" x1="29.991" x2="29.991" y1="32.115" y2="5.28" gradientUnits="userSpaceOnUse"><stop offset="0" stop-color="#32BEDD" /><stop offset="1" stop-color="#50E6FF" /></linearGradient><linearGradient id="pczNgvMp3__b" x1="1.43" x2="58.566" y1="35.568" y2="35.568" gradientUnits="userSpaceOnUse"><stop offset="0" stop-color="#C74634" /><stop offset=".5" stop-color="#DB897D" /><stop offset="1" stop-color="#C74634" /></linearGradient></defs><style>.msportalfx-svg-c01{fill:#fff}.msportalfx-svg-c02{fill:#e5e5e5}.msportalfx-svg-c03{fill:#a0a1a2}.msportalfx-svg-c04{fill:#7a7a7a}.msportalfx-svg-c05{fill:var(--fxs-svg-c05-fill,#3e3e3e)}.msportalfx-svg-c06{fill:#1e1e1e}.msportalfx-svg-c07{fill:var(--fxs-svg-c07-fill,#0f0f0f)}.msportalfx-svg-c08{fill:#ba141a}.msportalfx-svg-c09{fill:#dd5900}.msportalfx-svg-c10{fill:#ff8c00}.msportalfx-svg-c11{fill:#fcd116}.msportalfx-svg-c12{fill:#fee087}.msportalfx-svg-c13{fill:#b8d432}.msportalfx-svg-c14,.msportalfx-svg-c32{fill:#57a300}.msportalfx-svg-c15{fill:#59b4d9}.msportalfx-svg-c16{fill:#3999c6}.msportalfx-svg-c17{fill:#804998}.msportalfx-svg-c18{fill:#ec008c}.msportalfx-svg-c19{fill:#0072c6}.msportalfx-svg-c20{fill:#68217a}.msportalfx-svg-c21{fill:#00188f}.msportalfx-svg-c22{fill:var(--fxs-svg-c22-fill,#e81123)}.fxs-mode-light{--fxs-svg-c22-fill:#a4262c}.msportalfx-svg-c23{fill:#cae3f3}.msportalfx-svg-c24{fill:#59aed3}.msportalfx-svg-c25{fill:#4c3b12}.msportalfx-svg-c26{fill:#be9555}.msportalfx-svg-c27{fill:#4f4d52}.msportalfx-svg-c28{fill:#ef6f59}.msportalfx-svg-c29{fill:#f7cb64}.msportalfx-svg-c30{fill:#fdd8db}.msportalfx-svg-c31{fill:#f6ffec}.msportalfx-svg-c33{fill:#8a2da5}.msportalfx-svg-c34{fill:#e00b1c}.msportalfx-svg-c35{fill:#015cda}.msportalfx-svg-c36{fill:#5db300}.msportalfx-svg-c97{fill:#ffb900}.msportalfx-svg-c98{fill:#00a4ef}.msportalfx-svg-c99{fill:#f25022}.msportalfx-inverted-theme,.fxs-theme-dark{--fxs-svg-c05-fill:#777;--fxs-svg-c07-fill:#f2f2f2}.msportalfx-svg-palette-white{fill:#fff}.msportalfx-svg-palette-blue{fill:#015cda}.msportalfx-svg-palette-black{fill:#1e1e1e}.msportalfx-svg-palette-green{fill:#57a300}.msportalfx-svg-palette-gray{fill:#a0a1a2}.msportalfx-svg-palette-inherit{fill:inherit}.msportalfx-svg-badge{position:absolute;left:0;bottom:0;min-height:10px;min-width:10px}.fxc-menu-icon&gt;.msportalfx-svg-badge{left:-2px;bottom:-2px;min-height:8px;min-width:8px}.msportalfx-svg-disabled{filter:grayscale(100%)}.msportalfx-svg-loading-square{animation:ProgressFlagAnimation 1.45s infinite ease-in-out;transform-origin:50%}.msportalfx-svg-loading-square:nth-child(1){animation-delay:0s}.msportalfx-svg-loading-square:nth-child(2){animation-delay:.2s}.msportalfx-svg-loading-square:nth-child(3){animation-delay:.4s}@keyframes ProgressFlagAnimation{0%{transform:scale(1);opacity:.3}36.1%{transform:scale(1.06);opacity:1}50%{transform:scale(1.06);opacity:1}86.1%{transform:scale(1);opacity:.3}}.msportalfx-svg-flip-horizontal&gt;svg,svg.msportalfx-svg-flip-horizontal{transform:scaleX(-1)}.msportalfx-svg-fabric-rotate360{animation:ImageRotation 1.3s cubic-bezier(.53,.21,.29,.67) infinite}@keyframes ImageRotation{0%{transform:rotate(-45deg)}100%{transform:rotate(315deg)}}.msportalfx-ascend.msportalfx-svg-c07{opacity:var(--fxs-svg-sortarrow-ascend-opacity,1);fill:var(--fxs-svg-sortarrow-ascend-fill,var(--fxs-svg-c07-fill,#0f0f0f))}.msportalfx-descend.msportalfx-svg-c07{opacity:var(--fxs-svg-sortarrow-descend-opacity,1);fill:var(--fxs-svg-sortarrow-descend-fill,var(--fxs-svg-c07-fill,#0f0f0f))}.fxs-svg-number .msportalfx-font-bold{font-size:10px;fill:#0065ad}.fxs-svg-number .fxs-svg-circle{fill:var(--fxs-svg-num-circle-fill,#0078d4);stroke:var(--fxs-svg-num-circle-stroke,none);stroke-width:var(--fxs-svg-num-circle-stroke-width,0%)}.fxs-svg-number .fxs-svg-text{fill:var(--fxs-svg-num-text-fill,#fff);font-size:10px}.fxs-svg-number.msportalfx-svg-disabled{filter:grayscale(0%);--fxs-svg-num-circle-fill:var(--fxs-svg-num-disabled-circle-fill,#fff);--fxs-svg-num-circle-stroke:#949494;--fxs-svg-num-circle-stroke-width:1px;--fxs-svg-num-text-fill:#949494}.fxs-theme-dark{--fxs-svg-num-text-fill:#0f0f0f;--fxs-svg-num-disabled-circle-fill:#0f0f0f}</style></svg>