<svg viewBox="0 0 18 18"><defs><linearGradient id="p7Sj0ta91__a" x1="5.35" x2="5.35" y1="7.02" y2="17.19" gradientUnits="userSpaceOnUse"><stop offset="0" stop-color="#b3b2b3"/><stop offset=".38" stop-color="#afaeaf"/><stop offset=".76" stop-color="#a2a2a2"/><stop offset="1" stop-color="#979797"/></linearGradient><linearGradient id="p7Sj0ta91__b" x1="11.33" x2="11.33" y1="15.74" y2="6.99" gradientUnits="userSpaceOnUse"><stop offset="0" stop-color="#0078d4"/><stop offset=".16" stop-color="#1380da"/><stop offset=".53" stop-color="#3c91e5"/><stop offset=".82" stop-color="#559cec"/><stop offset="1" stop-color="#5ea0ef"/></linearGradient></defs><title>Icon-databases-127</title><path fill="#949494" d="M7.77 10.68a.39.39 0 0 1-.42.34H.92a.39.39 0 0 1-.42-.34V1.2A.39.39 0 0 1 .92.86h6.43a.39.39 0 0 1 .42.34Z"/><path fill="#003067" d="M1.57 5.2a.79.79 0 0 1 .79-.79H6a.79.79 0 0 1 .79.79A.79.79 0 0 1 6 6H2.36a.79.79 0 0 1-.79-.79Zm0-2.34a.79.79 0 0 1 .79-.8H6a.79.79 0 0 1 .79.8.79.79 0 0 1-.79.79H2.36a.79.79 0 0 1-.79-.79"/><circle cx="2.39" cy="2.86" r=".53" fill="#50e6ff"/><circle cx="2.39" cy="5.2" r=".53" fill="#50e6ff"/><path fill="#949494" d="M15.79 10.63a.39.39 0 0 1-.42.35H8.94a.39.39 0 0 1-.42-.35V1.16a.39.39 0 0 1 .42-.35h6.43a.39.39 0 0 1 .42.35Z"/><path fill="#003067" d="M9.59 5.16a.79.79 0 0 1 .79-.79H14a.79.79 0 0 1 .79.79A.79.79 0 0 1 14 6h-3.62a.79.79 0 0 1-.79-.79Zm0-2.35a.79.79 0 0 1 .79-.81H14a.8.8 0 0 1 .79.79.79.79 0 0 1-.79.81h-3.62a.79.79 0 0 1-.79-.79"/><circle cx="10.41" cy="2.81" r=".53" fill="#50e6ff"/><circle cx="10.41" cy="5.16" r=".53" fill="#50e6ff"/><path fill="url(#p7Sj0ta91__a)" d="M9 16.84a.39.39 0 0 1-.42.35H2.14a.39.39 0 0 1-.42-.35V7.37A.39.39 0 0 1 2.14 7h6.43a.39.39 0 0 1 .43.37Z"/><path fill="#003067" d="M2.79 11.37a.79.79 0 0 1 .79-.79H7.2a.79.79 0 0 1 .79.79H8a.8.8 0 0 1-.79.79H3.58a.79.79 0 0 1-.79-.79m0-2.37a.79.79 0 0 1 .79-.79H7.2A.79.79 0 0 1 8 9a.8.8 0 0 1-.79.79H3.58A.79.79 0 0 1 2.79 9"/><circle cx="3.61" cy="9.02" r=".53" fill="#50e6ff"/><circle cx="3.61" cy="11.37" r=".53" fill="#50e6ff"/><path fill="url(#p7Sj0ta91__b)" d="M17.5 13a2.77 2.77 0 0 0-2.41-2.66A3.49 3.49 0 0 0 11.5 7a3.58 3.58 0 0 0-3.43 2.33 3.31 3.31 0 0 0-2.91 3.18 3.37 3.37 0 0 0 3.48 3.23h5.93a.4.4 0 0 0 .15 0A2.8 2.8 0 0 0 17.5 13"/><style>.msportalfx-svg-c01{fill:#fff}.msportalfx-svg-c02{fill:#e5e5e5}.msportalfx-svg-c03{fill:#a0a1a2}.msportalfx-svg-c04{fill:#7a7a7a}.msportalfx-svg-c05{fill:#3e3e3e}.msportalfx-svg-c06{fill:#1e1e1e}.msportalfx-svg-c07{fill:#0f0f0f}.msportalfx-svg-c08{fill:#ba141a}.msportalfx-svg-c09{fill:#dd5900}.msportalfx-svg-c10{fill:#ff8c00}.msportalfx-svg-c11{fill:#fcd116}.msportalfx-svg-c12{fill:#fee087}.msportalfx-svg-c13{fill:#b8d432}.msportalfx-svg-c14,.msportalfx-svg-c32{fill:#57a300}.msportalfx-svg-c15{fill:#59b4d9}.msportalfx-svg-c16{fill:#3999c6}.msportalfx-svg-c17{fill:#804998}.msportalfx-svg-c18{fill:#ec008c}.msportalfx-svg-c19{fill:#0072c6}.msportalfx-svg-c20{fill:#68217a}.msportalfx-svg-c21{fill:#00188f}.msportalfx-svg-c22{fill:#e81123}.fxs-mode-light .msportalfx-svg-c22{fill:#a4262c}.msportalfx-svg-c23{fill:#cae3f3}.msportalfx-svg-c24{fill:#59aed3}.msportalfx-svg-c25{fill:#4c3b12}.msportalfx-svg-c26{fill:#be9555}.msportalfx-svg-c27{fill:#4f4d52}.msportalfx-svg-c28{fill:#ef6f59}.msportalfx-svg-c29{fill:#f7cb64}.msportalfx-svg-c30{fill:#fdd8db}.msportalfx-svg-c31{fill:#f6ffec}.msportalfx-svg-c33{fill:#8a2da5}.msportalfx-svg-c34{fill:#e00b1c}.msportalfx-svg-c35{fill:#015cda}.msportalfx-svg-c36{fill:#5db300}.msportalfx-svg-c97{fill:#ffb900}.msportalfx-svg-c98{fill:#00a4ef}.msportalfx-svg-c99{fill:#f25022}.msportalfx-inverted-theme .msportalfx-svg-c05,.fxs-theme-dark .msportalfx-svg-c05{fill:#777}.msportalfx-inverted-theme .msportalfx-svg-c07,.fxs-theme-dark .msportalfx-svg-c07{fill:#f2f2f2}.msportalfx-svg-palette-white{fill:#fff}.msportalfx-svg-palette-blue{fill:#015cda}.msportalfx-svg-palette-black{fill:#1e1e1e}.msportalfx-svg-palette-green{fill:#57a300}.msportalfx-svg-palette-gray{fill:#a0a1a2}.msportalfx-svg-palette-inherit{fill:inherit}.msportalfx-svg-badge{position:absolute;left:0;bottom:0;min-height:10px;min-width:10px}.fxc-menu-icon>.msportalfx-svg-badge{left:-2px;bottom:-2px;min-height:8px;min-width:8px}.msportalfx-svg-disabled{filter:grayscale(100%)}.msportalfx-svg-loading-square{animation:ProgressFlagAnimation 1.45s infinite ease-in-out;transform-origin:50%}.msportalfx-svg-loading-square:nth-child(1){animation-delay:0s}.msportalfx-svg-loading-square:nth-child(2){animation-delay:.2s}.msportalfx-svg-loading-square:nth-child(3){animation-delay:.4s}@keyframes ProgressFlagAnimation{0%{transform:scale(1);opacity:.3}36.1%{transform:scale(1.06);opacity:1}50%{transform:scale(1.06);opacity:1}86.1%{transform:scale(1);opacity:.3}}.msportalfx-svg-flip-horizontal>svg,svg.msportalfx-svg-flip-horizontal{transform:scaleX(-1)}.msportalfx-svg-fabric-rotate360{animation:ImageRotation 1.3s cubic-bezier(.53,.21,.29,.67) infinite}@keyframes ImageRotation{0%{transform:rotate(-45deg)}100%{transform:rotate(315deg)}}.fxs-svg-number .msportalfx-font-bold{font-size:10px;fill:#0065ad}.fxs-svg-number .fxs-svg-circle{stroke-width:0%;fill:#0078d4}.fxs-svg-number .fxs-svg-text{fill:#fff;font-size:10px}.fxs-svg-number.msportalfx-svg-disabled{filter:grayscale(0%)}.fxs-svg-number.msportalfx-svg-disabled .fxs-svg-circle{fill:#fff;stroke-width:1px;stroke:#949494}.fxs-svg-number.msportalfx-svg-disabled .fxs-svg-text{fill:#949494}.fxs-theme-dark .fxs-svg-number .fxs-svg-text{fill:#0f0f0f}.fxs-theme-dark .fxs-svg-number .fxs-svg-circle{stroke-width:0%;fill:#0078d4}.fxs-theme-dark .fxs-svg-number.msportalfx-svg-disabled .fxs-svg-circle{fill:#0f0f0f;stroke-width:1px;stroke:#949494}.fxs-theme-dark .fxs-svg-number.msportalfx-svg-disabled .fxs-svg-text{fill:#949494}</style></svg>