<svg viewBox="0 0 18 18"><defs><linearGradient id="ptmvxaclY__a" x1="8.44" x2="8.44" y1="4.529" y2="12.659" gradientUnits="userSpaceOnUse"><stop offset=".196" stop-color="#5ea0ef"/><stop offset="1" stop-color="#0078d4"/></linearGradient></defs><path fill="#005ba1" d="M14.006.47v8.579h-.075l-.592.005h-.08A4.7 4.7 0 0 0 9.894 11q-.041.057-.078.112a.2.2 0 0 0-.027.039.2.2 0 0 0-.023.041l-.01.022-.013.04h-.678a.57.57 0 0 0-.076-.362 1 1 0 0 0-.183-.234L7.168 8.874a.7.7 0 0 0-.218-.181.7.7 0 0 0-.3-.072.66.66 0 0 0-.513.248l-1.76 1.818a.67.67 0 0 0-.232.568H.477a.47.47 0 0 1-.469-.47V.461A.47.47 0 0 1 .477 0h13.059a.47.47 0 0 1 .47.47"/><path fill="url(#ptmvxaclY__a)" d="M15.318 4.529v4.788a4.7 4.7 0 0 0-6.179 3.342H2.024a.46.46 0 0 1-.461-.461V4.529Z"/><path fill="#0078d4" d="M2.025 1.6h12.831a.46.46 0 0 1 .462.461v2.468H1.564V2.053a.46.46 0 0 1 .461-.453"/><path fill="#fff" d="M11.888 6.591a1.068 1.068 0 1 1-1.068 1.068 1.07 1.07 0 0 1 1.068-1.068M7.419 7.659a1.068 1.068 0 1 0 1.068-1.068 1.067 1.067 0 0 0-1.068 1.068m-3.493 0a1.068 1.068 0 1 0 1.067-1.068 1.067 1.067 0 0 0-1.067 1.068"/><path fill="#50e6ff" d="M15.959 15.8h1.509a4.24 4.24 0 0 0 .524-1.909h-1.654a5.3 5.3 0 0 1-.379 1.909m.379-2.211h1.654a4.2 4.2 0 0 0-.523-1.909h-1.535a4.9 4.9 0 0 1 .404 1.906ZM14.094 18a4.29 4.29 0 0 0 3.192-1.9H15.81a5.1 5.1 0 0 1-1.716 1.9m1.688-6.625h1.5A4.28 4.28 0 0 0 14 9.471h-.066l.066.037a5.34 5.34 0 0 1 1.784 1.867Zm-2.006 0h1.677a5 5 0 0 0-.226-.33A5.2 5.2 0 0 0 14 9.865q-.108-.076-.222-.145Zm0 2.211h2.26a4.55 4.55 0 0 0-.433-1.909h-1.827Zm0 2.211h1.845a4.9 4.9 0 0 0 .415-1.909h-2.26Zm1.7.3h-1.7v1.751a5 5 0 0 0 1.698-1.748Zm-2 0H11.9a4.9 4.9 0 0 0 1.577 1.673Zm0-6.381a4.75 4.75 0 0 0-1.527 1.531l-.075.124h1.6Zm0 4.168h-2.14a4.85 4.85 0 0 0 .415 1.909h1.725Zm0-2.211h-1.745a5 5 0 0 0-.264.8 5 5 0 0 0-.133 1.114h2.14ZM13.266 18a5.14 5.14 0 0 1-1.707-1.9h-1.41q.021.032.045.062a4 4 0 0 0 .356.454A4.3 4.3 0 0 0 13.266 18m.034-8.527a4.3 4.3 0 0 0-3.072 1.778q-.044.061-.084.121h1.4l.066-.121a5 5 0 0 1 1.69-1.778m-3.867 4.111h1.6a5 5 0 0 1 .126-1.114 5.4 5.4 0 0 1 .243-.795h-1.44a4.2 4.2 0 0 0-.338.8 4.3 4.3 0 0 0-.188 1.111Zm.529 2.216h1.448l-.05-.133a5.2 5.2 0 0 1-.314-1.442 5 5 0 0 1-.014-.334h-1.6q.002.105.013.209a4 4 0 0 0 .065.46 4.2 4.2 0 0 0 .452 1.24m-.339.25a4.19 4.19 0 0 1-3.753-4.482.2.2 0 0 0-.014-.087.2.2 0 0 0-.115-.124.2.2 0 0 0-.086-.018h-.8c-.309 0-.378-.167-.18-.368l1.776-1.828a.2.2 0 0 1 .084-.075.23.23 0 0 1 .212 0 .2.2 0 0 1 .083.075l1.643 1.787a.8.8 0 0 1 .122.152q.078.139-.062.188a.7.7 0 0 1-.24.03h-.736a.23.23 0 0 0-.23.23 2.74 2.74 0 0 0 1.733 2.86 4.6 4.6 0 0 0 .563 1.657Z"/><style>.msportalfx-svg-c01{fill:#fff}.msportalfx-svg-c02{fill:#e5e5e5}.msportalfx-svg-c03{fill:#a0a1a2}.msportalfx-svg-c04{fill:#7a7a7a}.msportalfx-svg-c05{fill:#3e3e3e}.msportalfx-svg-c06{fill:#1e1e1e}.msportalfx-svg-c07{fill:#0f0f0f}.msportalfx-svg-c08{fill:#ba141a}.msportalfx-svg-c09{fill:#dd5900}.msportalfx-svg-c10{fill:#ff8c00}.msportalfx-svg-c11{fill:#fcd116}.msportalfx-svg-c12{fill:#fee087}.msportalfx-svg-c13{fill:#b8d432}.msportalfx-svg-c14,.msportalfx-svg-c32{fill:#57a300}.msportalfx-svg-c15{fill:#59b4d9}.msportalfx-svg-c16{fill:#3999c6}.msportalfx-svg-c17{fill:#804998}.msportalfx-svg-c18{fill:#ec008c}.msportalfx-svg-c19{fill:#0072c6}.msportalfx-svg-c20{fill:#68217a}.msportalfx-svg-c21{fill:#00188f}.msportalfx-svg-c22{fill:#e81123}.fxs-mode-light .msportalfx-svg-c22{fill:#a4262c}.msportalfx-svg-c23{fill:#cae3f3}.msportalfx-svg-c24{fill:#59aed3}.msportalfx-svg-c25{fill:#4c3b12}.msportalfx-svg-c26{fill:#be9555}.msportalfx-svg-c27{fill:#4f4d52}.msportalfx-svg-c28{fill:#ef6f59}.msportalfx-svg-c29{fill:#f7cb64}.msportalfx-svg-c30{fill:#fdd8db}.msportalfx-svg-c31{fill:#f6ffec}.msportalfx-svg-c33{fill:#8a2da5}.msportalfx-svg-c34{fill:#e00b1c}.msportalfx-svg-c35{fill:#015cda}.msportalfx-svg-c36{fill:#5db300}.msportalfx-svg-c97{fill:#ffb900}.msportalfx-svg-c98{fill:#00a4ef}.msportalfx-svg-c99{fill:#f25022}.msportalfx-inverted-theme .msportalfx-svg-c05,.fxs-theme-dark .msportalfx-svg-c05{fill:#777}.msportalfx-inverted-theme .msportalfx-svg-c07,.fxs-theme-dark .msportalfx-svg-c07{fill:#f2f2f2}.msportalfx-svg-palette-white{fill:#fff}.msportalfx-svg-palette-blue{fill:#015cda}.msportalfx-svg-palette-black{fill:#1e1e1e}.msportalfx-svg-palette-green{fill:#57a300}.msportalfx-svg-palette-gray{fill:#a0a1a2}.msportalfx-svg-palette-inherit{fill:inherit}.msportalfx-svg-badge{position:absolute;left:0;bottom:0;min-height:10px;min-width:10px}.fxc-menu-icon>.msportalfx-svg-badge{left:-2px;bottom:-2px;min-height:8px;min-width:8px}.msportalfx-svg-disabled{filter:grayscale(100%)}.msportalfx-svg-loading-square{animation:ProgressFlagAnimation 1.45s infinite ease-in-out;transform-origin:50%}.msportalfx-svg-loading-square:nth-child(1){animation-delay:0s}.msportalfx-svg-loading-square:nth-child(2){animation-delay:.2s}.msportalfx-svg-loading-square:nth-child(3){animation-delay:.4s}@keyframes ProgressFlagAnimation{0%{transform:scale(1);opacity:.3}36.1%{transform:scale(1.06);opacity:1}50%{transform:scale(1.06);opacity:1}86.1%{transform:scale(1);opacity:.3}}.msportalfx-svg-flip-horizontal>svg,svg.msportalfx-svg-flip-horizontal{transform:scaleX(-1)}.msportalfx-svg-fabric-rotate360{animation:ImageRotation 1.3s cubic-bezier(.53,.21,.29,.67) infinite}@keyframes ImageRotation{0%{transform:rotate(-45deg)}100%{transform:rotate(315deg)}}.fxs-svg-number .msportalfx-font-bold{font-size:10px;fill:#0065ad}.fxs-svg-number .fxs-svg-circle{stroke-width:0%;fill:#0078d4}.fxs-svg-number .fxs-svg-text{fill:#fff;font-size:10px}.fxs-svg-number.msportalfx-svg-disabled{filter:grayscale(0%)}.fxs-svg-number.msportalfx-svg-disabled .fxs-svg-circle{fill:#fff;stroke-width:1px;stroke:#949494}.fxs-svg-number.msportalfx-svg-disabled .fxs-svg-text{fill:#949494}.fxs-theme-dark .fxs-svg-number .fxs-svg-text{fill:#0f0f0f}.fxs-theme-dark .fxs-svg-number .fxs-svg-circle{stroke-width:0%;fill:#0078d4}.fxs-theme-dark .fxs-svg-number.msportalfx-svg-disabled .fxs-svg-circle{fill:#0f0f0f;stroke-width:1px;stroke:#949494}.fxs-theme-dark .fxs-svg-number.msportalfx-svg-disabled .fxs-svg-text{fill:#949494}</style></svg>