<svg viewBox="0 0 18 18" class="msportalfx-svg-placeholder" xmlns="http://www.w3.org/2000/svg"><title>DDoS custom policy</title><desc>Use Azure DDoS Protection Custom Policies to fine-tune your defense against distributed denial-of-service attacks. Custom policies let you define thresholds and mitigation settings tailored to your application&amp;#39;s traffic patterns, helping reduce false positives and improve resiliency.</desc><defs><linearGradient id="pSDegUxA2__a" x1="6.41" x2="6.41" y1="19.23" y2="5.26" gradientUnits="userSpaceOnUse"><stop offset="0" stop-color="#0078d4" /><stop offset="1" stop-color="#5ea0ef" /></linearGradient></defs><path fill="none" d="M0 0h18v18H0z" /><path fill="#0078d4" d="m12.88 8.29-.63.63-.38.13-2.33.82-.09.03h-.11c-.5 0-.92-.41-.93-.91v-.12l.03-.1.82-2.33.14-.4.62-.62 1.63-1.63c-1.13-.31-2.24-.88-3.34-1.7a.525.525 0 0 0-.63 0C5.9 3.42 4.09 4.08 2.23 4.08c-.29 0-.52.23-.52.52v3.67c0 3.49 2.07 6.06 6.09 7.65a.5.5 0 0 0 .38 0c4.03-1.59 6.09-4.15 6.09-7.65V6.89l-1.39 1.39Z" /><path fill="url(#pSDegUxA2__a)" d="m12.25 8.92-.38.13-2.33.82-.09.03h-.11c-.5 0-.92-.41-.93-.91v-.12l.03-.1.82-2.33.14-.4.62-.62.03-.03c-1.12-.31-2.23-.88-3.32-1.7a.525.525 0 0 0-.63 0C4.32 5.02 2.51 5.68.65 5.68c-.29 0-.52.23-.52.52v3.67c0 3.49 2.07 6.06 6.09 7.65a.5.5 0 0 0 .38 0c4.03-1.59 6.09-4.15 6.09-7.65V8.46l-.45.45Z" /><path fill="#f2f2f2" d="m15.63 2.67-1.01-1.01L9.9 6.38l.19.31.58.94-.77-1.25-.91 2.59c0 .2.16.34.34.34l2.59-.91-1.25-.77.95.57.31.19 4.72-4.72-1.01-1.02Zm2.15-.59-.77-.77-.77-.77a.344.344 0 0 0-.48 0l-.83.83 1.01 1.01 1.01 1.01.83-.83c.13-.13.13-.35 0-.48" /><path fill="#86d633" d="M14.62 1.66 9.91 6.37l.18.32.59.94 4.96-4.96zm1.32.71 1.07-1.07-.77-.77a.344.344 0 0 0-.48 0l-.83.83z" /><path fill="#76bc2d" d="M16.65 3.69 11.93 8.4l-.31-.19-.95-.58 4.97-4.96zm-.72-1.32L17 1.3l.77.77c.13.13.13.35 0 .48l-.83.83z" /><path fill="#f2f2f2" d="M3.43 7.85h3.31c.28 0 .52.23.52.52 0 .28-.23.52-.52.52H3.43c-.28 0-.52-.23-.52-.52 0-.28.23-.52.52-.52m0 1.99h4.33c.28 0 .52.23.52.52 0 .28-.23.52-.52.52H3.43c-.28 0-.52-.23-.52-.52 0-.28.23-.52.52-.52m0 1.98h5.96c.28 0 .52.23.52.52 0 .28-.23.52-.52.52H3.43c-.28 0-.52-.23-.52-.52 0-.28.23-.52.52-.52" /><style>.msportalfx-svg-c01{fill:#fff}.msportalfx-svg-c02{fill:#e5e5e5}.msportalfx-svg-c03{fill:#a0a1a2}.msportalfx-svg-c04{fill:#7a7a7a}.msportalfx-svg-c05{fill:#3e3e3e}.msportalfx-svg-c06{fill:#1e1e1e}.msportalfx-svg-c07{fill:#0f0f0f}.msportalfx-svg-c08{fill:#ba141a}.msportalfx-svg-c09{fill:#dd5900}.msportalfx-svg-c10{fill:#ff8c00}.msportalfx-svg-c11{fill:#fcd116}.msportalfx-svg-c12{fill:#fee087}.msportalfx-svg-c13{fill:#b8d432}.msportalfx-svg-c14,.msportalfx-svg-c32{fill:#57a300}.msportalfx-svg-c15{fill:#59b4d9}.msportalfx-svg-c16{fill:#3999c6}.msportalfx-svg-c17{fill:#804998}.msportalfx-svg-c18{fill:#ec008c}.msportalfx-svg-c19{fill:#0072c6}.msportalfx-svg-c20{fill:#68217a}.msportalfx-svg-c21{fill:#00188f}.msportalfx-svg-c22{fill:#e81123}.fxs-mode-light .msportalfx-svg-c22{fill:#a4262c}.msportalfx-svg-c23{fill:#cae3f3}.msportalfx-svg-c24{fill:#59aed3}.msportalfx-svg-c25{fill:#4c3b12}.msportalfx-svg-c26{fill:#be9555}.msportalfx-svg-c27{fill:#4f4d52}.msportalfx-svg-c28{fill:#ef6f59}.msportalfx-svg-c29{fill:#f7cb64}.msportalfx-svg-c30{fill:#fdd8db}.msportalfx-svg-c31{fill:#f6ffec}.msportalfx-svg-c33{fill:#8a2da5}.msportalfx-svg-c34{fill:#e00b1c}.msportalfx-svg-c35{fill:#015cda}.msportalfx-svg-c36{fill:#5db300}.msportalfx-svg-c97{fill:#ffb900}.msportalfx-svg-c98{fill:#00a4ef}.msportalfx-svg-c99{fill:#f25022}.msportalfx-inverted-theme .msportalfx-svg-c05,.fxs-theme-dark .msportalfx-svg-c05{fill:#777}.msportalfx-inverted-theme .msportalfx-svg-c07,.fxs-theme-dark .msportalfx-svg-c07{fill:#f2f2f2}.msportalfx-svg-palette-white{fill:#fff}.msportalfx-svg-palette-blue{fill:#015cda}.msportalfx-svg-palette-black{fill:#1e1e1e}.msportalfx-svg-palette-green{fill:#57a300}.msportalfx-svg-palette-gray{fill:#a0a1a2}.msportalfx-svg-palette-inherit{fill:inherit}.msportalfx-svg-badge{position:absolute;left:0;bottom:0;min-height:10px;min-width:10px}.fxc-menu-icon&gt;.msportalfx-svg-badge{left:-2px;bottom:-2px;min-height:8px;min-width:8px}.msportalfx-svg-disabled{filter:grayscale(100%)}.msportalfx-svg-loading-square{animation:ProgressFlagAnimation 1.45s infinite ease-in-out;transform-origin:50%}.msportalfx-svg-loading-square:nth-child(1){animation-delay:0s}.msportalfx-svg-loading-square:nth-child(2){animation-delay:.2s}.msportalfx-svg-loading-square:nth-child(3){animation-delay:.4s}@keyframes ProgressFlagAnimation{0%{transform:scale(1);opacity:.3}36.1%{transform:scale(1.06);opacity:1}50%{transform:scale(1.06);opacity:1}86.1%{transform:scale(1);opacity:.3}}.msportalfx-svg-flip-horizontal&gt;svg,svg.msportalfx-svg-flip-horizontal{transform:scaleX(-1)}.msportalfx-svg-fabric-rotate360{animation:ImageRotation 1.3s cubic-bezier(.53,.21,.29,.67) infinite}@keyframes ImageRotation{0%{transform:rotate(-45deg)}100%{transform:rotate(315deg)}}.fxs-svg-number .msportalfx-font-bold{font-size:10px;fill:#0065ad}.fxs-svg-number .fxs-svg-circle{stroke-width:0%;fill:#0078d4}.fxs-svg-number .fxs-svg-text{fill:#fff;font-size:10px}.fxs-svg-number.msportalfx-svg-disabled{filter:grayscale(0%)}.fxs-svg-number.msportalfx-svg-disabled .fxs-svg-circle{fill:#fff;stroke-width:1px;stroke:#949494}.fxs-svg-number.msportalfx-svg-disabled .fxs-svg-text{fill:#949494}.fxs-theme-dark .fxs-svg-number .fxs-svg-text{fill:#0f0f0f}.fxs-theme-dark .fxs-svg-number .fxs-svg-circle{stroke-width:0%;fill:#0078d4}.fxs-theme-dark .fxs-svg-number.msportalfx-svg-disabled .fxs-svg-circle{fill:#0f0f0f;stroke-width:1px;stroke:#949494}.fxs-theme-dark .fxs-svg-number.msportalfx-svg-disabled .fxs-svg-text{fill:#949494}</style></svg>