<svg viewBox="0 0 18 18"><defs><radialGradient id="p4h7eGD_Q__a" cx="15013.284" cy="4584.191" r="56.626" gradientTransform="matrix(.15 0 0 .15 -2243.333 -678.832)" gradientUnits="userSpaceOnUse"><stop offset=".183" stop-color="#5ea0ef"/><stop offset="1" stop-color="#0078d4"/></radialGradient><linearGradient id="p4h7eGD_Q__b" x1="4.022" x2="3.991" y1="171.297" y2="167.338" gradientTransform="translate(0 -160)" gradientUnits="userSpaceOnUse"><stop offset="0" stop-color="#ccc"/><stop offset=".123" stop-color="#d7d7d7"/><stop offset=".421" stop-color="#ebebeb"/><stop offset=".716" stop-color="#f8f8f8"/><stop offset="1" stop-color="#fcfcfc"/></linearGradient></defs><title>Icon-362Artboard 1</title><path fill="url(#p4h7eGD_Q__a)" d="M13.9 15.5A8.512 8.512 0 0 1 3.4 2.1l.1-.1a8.521 8.521 0 0 1 10.4 13.5"/><path fill="#83b9f9" d="M2.1 10.5a26 26 0 0 0-.8 2.6l.6.9.6.6a14.3 14.3 0 0 1 1.1-3.5 2.53 2.53 0 0 1-1.5-.6m1-4.6A13.7 13.7 0 0 1 2.4 3a7.6 7.6 0 0 0-1.1 1.4 10.6 10.6 0 0 0 .6 2.4 2.73 2.73 0 0 1 1.2-.9"/><circle cx="4" cy="8.5" r="2.7" fill="url(#p4h7eGD_Q__b)"/><path fill="#83b9f9" d="M8 13.5a2.1 2.1 0 0 1 .5-1.3A9.2 9.2 0 0 1 6 10.3a2.75 2.75 0 0 1-1.5.8A19 19 0 0 0 6 12.5a8.2 8.2 0 0 0 2 1.2Zm6.3.2a13.3 13.3 0 0 1-2.8-.3v.1a1.66 1.66 0 0 1-.5 1.2 13 13 0 0 0 3.4.2c.4-.4.8-.9 1.2-1.3a5.3 5.3 0 0 1-1.3.1"/><circle cx="9.8" cy="13.5" r="1.8" fill="none"/><path fill="#83b9f9" d="M9.3 4.9a13.5 13.5 0 0 1 5.9-1.4 6.7 6.7 0 0 0-1.5-1.4A15.3 15.3 0 0 0 9 3.2a9 9 0 0 0-1 .5A18.7 18.7 0 0 1 6 .8a1.9 1.9 0 0 0-.9.3 21 21 0 0 0 2.1 3.1A9.8 9.8 0 0 0 5 5.9 2.85 2.85 0 0 1 6.3 7a9 9 0 0 1 1.9-1.5 22.4 22.4 0 0 0 3.7 3.2 2.1 2.1 0 0 1 .6-1 28 28 0 0 1-3.2-2.8"/><circle cx="13.8" cy="9.1" r="1.9" fill="#f2f2f2"/><path fill="#83b9f9" d="M17 10.4c-.1-.1-.2-.1-.3-.2s-.2-.1-.3-.2h-.1l-.3-.2h-.1l-.3-.2a1.46 1.46 0 0 1-.6.9c.1.1.2.1.4.2h.1c.1.1.2.1.3.2.3.2.6.3.9.5.1-.3.2-.7.3-1"/><circle cx="4" cy="8.5" r="2.7" fill="#f2f2f2"/><circle cx="9.8" cy="13.5" r="1.8" fill="#f2f2f2"/><path fill="#821010" d="M5.2 10.5h12.1c.2 0 .5.2.5.4v6.4a.536.536 0 0 1-.5.5H5.2a.46.46 0 0 1-.4-.5V11a.46.46 0 0 1 .4-.5"/><path fill="#e62323" d="M5.3 11.3h3.6v1.6H5.3z"/><path fill="#ff7381" d="M9.5 11.3h3.6v1.6H9.5z"/><path fill="#e62323" d="M13.6 11.3h3.6v1.6h-3.6zm-8.3 2.1h1.5V15H5.3z"/><path fill="#ff7381" d="M15.7 13.4h1.5V15h-1.5zm-8.3 0H11V15H7.4z"/><path fill="#e62323" d="M11.5 13.4h3.6V15h-3.6zm-6.2 2.1h3.6v1.6H5.3z"/><path fill="#ff7381" d="M9.5 15.5h3.6v1.6H9.5z"/><path fill="#e62323" d="M13.6 15.5h3.6v1.6h-3.6z"/><style>.msportalfx-svg-c01{fill:#fff}.msportalfx-svg-c02{fill:#e5e5e5}.msportalfx-svg-c03{fill:#a0a1a2}.msportalfx-svg-c04{fill:#7a7a7a}.msportalfx-svg-c05{fill:#3e3e3e}.msportalfx-svg-c06{fill:#1e1e1e}.msportalfx-svg-c07{fill:#0f0f0f}.msportalfx-svg-c08{fill:#ba141a}.msportalfx-svg-c09{fill:#dd5900}.msportalfx-svg-c10{fill:#ff8c00}.msportalfx-svg-c11{fill:#fcd116}.msportalfx-svg-c12{fill:#fee087}.msportalfx-svg-c13{fill:#b8d432}.msportalfx-svg-c14,.msportalfx-svg-c32{fill:#57a300}.msportalfx-svg-c15{fill:#59b4d9}.msportalfx-svg-c16{fill:#3999c6}.msportalfx-svg-c17{fill:#804998}.msportalfx-svg-c18{fill:#ec008c}.msportalfx-svg-c19{fill:#0072c6}.msportalfx-svg-c20{fill:#68217a}.msportalfx-svg-c21{fill:#00188f}.msportalfx-svg-c22{fill:#e81123}.fxs-mode-light .msportalfx-svg-c22{fill:#a4262c}.msportalfx-svg-c23{fill:#cae3f3}.msportalfx-svg-c24{fill:#59aed3}.msportalfx-svg-c25{fill:#4c3b12}.msportalfx-svg-c26{fill:#be9555}.msportalfx-svg-c27{fill:#4f4d52}.msportalfx-svg-c28{fill:#ef6f59}.msportalfx-svg-c29{fill:#f7cb64}.msportalfx-svg-c30{fill:#fdd8db}.msportalfx-svg-c31{fill:#f6ffec}.msportalfx-svg-c33{fill:#8a2da5}.msportalfx-svg-c34{fill:#e00b1c}.msportalfx-svg-c35{fill:#015cda}.msportalfx-svg-c36{fill:#5db300}.msportalfx-svg-c97{fill:#ffb900}.msportalfx-svg-c98{fill:#00a4ef}.msportalfx-svg-c99{fill:#f25022}.msportalfx-inverted-theme .msportalfx-svg-c05,.fxs-theme-dark .msportalfx-svg-c05{fill:#777}.msportalfx-inverted-theme .msportalfx-svg-c07,.fxs-theme-dark .msportalfx-svg-c07{fill:#f2f2f2}.msportalfx-svg-palette-white{fill:#fff}.msportalfx-svg-palette-blue{fill:#015cda}.msportalfx-svg-palette-black{fill:#1e1e1e}.msportalfx-svg-palette-green{fill:#57a300}.msportalfx-svg-palette-gray{fill:#a0a1a2}.msportalfx-svg-palette-inherit{fill:inherit}.msportalfx-svg-badge{position:absolute;left:0;bottom:0;min-height:10px;min-width:10px}.fxc-menu-icon>.msportalfx-svg-badge{left:-2px;bottom:-2px;min-height:8px;min-width:8px}.msportalfx-svg-disabled{filter:grayscale(100%)}.msportalfx-svg-loading-square{animation:ProgressFlagAnimation 1.45s infinite ease-in-out;transform-origin:50%}.msportalfx-svg-loading-square:nth-child(1){animation-delay:0s}.msportalfx-svg-loading-square:nth-child(2){animation-delay:.2s}.msportalfx-svg-loading-square:nth-child(3){animation-delay:.4s}@keyframes ProgressFlagAnimation{0%{transform:scale(1);opacity:.3}36.1%{transform:scale(1.06);opacity:1}50%{transform:scale(1.06);opacity:1}86.1%{transform:scale(1);opacity:.3}}.msportalfx-svg-flip-horizontal>svg,svg.msportalfx-svg-flip-horizontal{transform:scaleX(-1)}.msportalfx-svg-fabric-rotate360{animation:ImageRotation 1.3s cubic-bezier(.53,.21,.29,.67) infinite}@keyframes ImageRotation{0%{transform:rotate(-45deg)}100%{transform:rotate(315deg)}}.fxs-svg-number .msportalfx-font-bold{font-size:10px;fill:#0065ad}.fxs-svg-number .fxs-svg-circle{stroke-width:0%;fill:#0078d4}.fxs-svg-number .fxs-svg-text{fill:#fff;font-size:10px}.fxs-svg-number.msportalfx-svg-disabled{filter:grayscale(0%)}.fxs-svg-number.msportalfx-svg-disabled .fxs-svg-circle{fill:#fff;stroke-width:1px;stroke:#949494}.fxs-svg-number.msportalfx-svg-disabled .fxs-svg-text{fill:#949494}.fxs-theme-dark .fxs-svg-number .fxs-svg-text{fill:#0f0f0f}.fxs-theme-dark .fxs-svg-number .fxs-svg-circle{stroke-width:0%;fill:#0078d4}.fxs-theme-dark .fxs-svg-number.msportalfx-svg-disabled .fxs-svg-circle{fill:#0f0f0f;stroke-width:1px;stroke:#949494}.fxs-theme-dark .fxs-svg-number.msportalfx-svg-disabled .fxs-svg-text{fill:#949494}</style></svg>