<svg fill="none" viewBox="0 0 18 18" class="msportalfx-svg-placeholder" xmlns="http://www.w3.org/2000/svg"><title>Load balancing and content delivery</title><desc></desc><path fill="url(#pkyM47ugw__a)" d="M7.787 1.065c.67-.67 1.756-.67 2.426 0l6.722 6.722c.67.67.67 1.756 0 2.426l-6.722 6.722c-.67.67-1.756.67-2.426 0l-6.722-6.722a1.715 1.715 0 0 1 0-2.426z" /><path fill="url(#pkyM47ugw__b)" d="M8.362 1.67a.9.9 0 0 1 1.276 0l6.692 6.692a.9.9 0 0 1 0 1.276L9.638 16.33a.9.9 0 0 1-1.276 0L1.67 9.638a.9.9 0 0 1 0-1.276z" /><path fill="url(#pkyM47ugw__c)" d="M6.476 5.432a.654.654 0 0 1 .008-.924l2.079-2.043a.654.654 0 0 1 .916 0l2.079 2.043a.654.654 0 0 1-.916.932l-.968-.95v3.915h3.986l-.94-.922a.654.654 0 0 1 .917-.933l2.079 2.043a.654.654 0 0 1 0 .932l-2.079 2.043a.654.654 0 1 1-.916-.933l.939-.922H4.382l.939.922a.654.654 0 1 1-.916.933l-2.08-2.043a.654.654 0 0 1 0-.932l2.08-2.043a.654.654 0 1 1 .916.933l-.94.922h3.986V4.49l-.967.95a.654.654 0 0 1-.924-.008" /><path fill="#D9D9D9" d="M9.712 11.727a2.6 2.6 0 1 0-1.3 0v1.54a1.298 1.298 0 1 0 1.3 0z" /><path fill="#fff" d="M9.712 11.727a2.6 2.6 0 1 0-1.3 0v1.54a1.298 1.298 0 1 0 1.3 0z" /><circle cx="9.063" cy="9.21" r="1.299" fill="#0078D4" /><defs><linearGradient id="pkyM47ugw__a" x1="9" x2="9" y1=".563" y2="17.438" gradientUnits="userSpaceOnUse"><stop stop-color="#0094F0" /><stop offset="1" stop-color="#2052CB" /></linearGradient><linearGradient id="pkyM47ugw__b" x1="10.898" x2="4.426" y1="2.097" y2="15.03" gradientUnits="userSpaceOnUse"><stop stop-color="#0FAFFF" /><stop offset="1" stop-color="#2764E7" /></linearGradient><radialGradient id="pkyM47ugw__c" cx="0" cy="0" r="1" gradientTransform="matrix(0 5.2888 -4.19702 0 9.02 9.118)" gradientUnits="userSpaceOnUse"><stop stop-color="#D8F7FF" stop-opacity=".5" /><stop offset="1" stop-color="#D8F7FF" /></radialGradient></defs><style>.msportalfx-svg-c01{fill:#fff}.msportalfx-svg-c02{fill:#e5e5e5}.msportalfx-svg-c03{fill:#a0a1a2}.msportalfx-svg-c04{fill:#7a7a7a}.msportalfx-svg-c05{fill:#3e3e3e}.msportalfx-svg-c06{fill:#1e1e1e}.msportalfx-svg-c07{fill:#0f0f0f}.msportalfx-svg-c08{fill:#ba141a}.msportalfx-svg-c09{fill:#dd5900}.msportalfx-svg-c10{fill:#ff8c00}.msportalfx-svg-c11{fill:#fcd116}.msportalfx-svg-c12{fill:#fee087}.msportalfx-svg-c13{fill:#b8d432}.msportalfx-svg-c14,.msportalfx-svg-c32{fill:#57a300}.msportalfx-svg-c15{fill:#59b4d9}.msportalfx-svg-c16{fill:#3999c6}.msportalfx-svg-c17{fill:#804998}.msportalfx-svg-c18{fill:#ec008c}.msportalfx-svg-c19{fill:#0072c6}.msportalfx-svg-c20{fill:#68217a}.msportalfx-svg-c21{fill:#00188f}.msportalfx-svg-c22{fill:#e81123}.fxs-mode-light .msportalfx-svg-c22{fill:#a4262c}.msportalfx-svg-c23{fill:#cae3f3}.msportalfx-svg-c24{fill:#59aed3}.msportalfx-svg-c25{fill:#4c3b12}.msportalfx-svg-c26{fill:#be9555}.msportalfx-svg-c27{fill:#4f4d52}.msportalfx-svg-c28{fill:#ef6f59}.msportalfx-svg-c29{fill:#f7cb64}.msportalfx-svg-c30{fill:#fdd8db}.msportalfx-svg-c31{fill:#f6ffec}.msportalfx-svg-c33{fill:#8a2da5}.msportalfx-svg-c34{fill:#e00b1c}.msportalfx-svg-c35{fill:#015cda}.msportalfx-svg-c36{fill:#5db300}.msportalfx-svg-c97{fill:#ffb900}.msportalfx-svg-c98{fill:#00a4ef}.msportalfx-svg-c99{fill:#f25022}.msportalfx-inverted-theme .msportalfx-svg-c05,.fxs-theme-dark .msportalfx-svg-c05{fill:#777}.msportalfx-inverted-theme .msportalfx-svg-c07,.fxs-theme-dark .msportalfx-svg-c07{fill:#f2f2f2}.msportalfx-svg-palette-white{fill:#fff}.msportalfx-svg-palette-blue{fill:#015cda}.msportalfx-svg-palette-black{fill:#1e1e1e}.msportalfx-svg-palette-green{fill:#57a300}.msportalfx-svg-palette-gray{fill:#a0a1a2}.msportalfx-svg-palette-inherit{fill:inherit}.msportalfx-svg-badge{position:absolute;left:0;bottom:0;min-height:10px;min-width:10px}.fxc-menu-icon&gt;.msportalfx-svg-badge{left:-2px;bottom:-2px;min-height:8px;min-width:8px}.msportalfx-svg-disabled{filter:grayscale(100%)}.msportalfx-svg-loading-square{animation:ProgressFlagAnimation 1.45s infinite ease-in-out;transform-origin:50%}.msportalfx-svg-loading-square:nth-child(1){animation-delay:0s}.msportalfx-svg-loading-square:nth-child(2){animation-delay:.2s}.msportalfx-svg-loading-square:nth-child(3){animation-delay:.4s}@keyframes ProgressFlagAnimation{0%{transform:scale(1);opacity:.3}36.1%{transform:scale(1.06);opacity:1}50%{transform:scale(1.06);opacity:1}86.1%{transform:scale(1);opacity:.3}}.msportalfx-svg-flip-horizontal&gt;svg,svg.msportalfx-svg-flip-horizontal{transform:scaleX(-1)}.msportalfx-svg-fabric-rotate360{animation:ImageRotation 1.3s cubic-bezier(.53,.21,.29,.67) infinite}@keyframes ImageRotation{0%{transform:rotate(-45deg)}100%{transform:rotate(315deg)}}.fxs-svg-number .msportalfx-font-bold{font-size:10px;fill:#0065ad}.fxs-svg-number .fxs-svg-circle{stroke-width:0%;fill:#0078d4}.fxs-svg-number .fxs-svg-text{fill:#fff;font-size:10px}.fxs-svg-number.msportalfx-svg-disabled{filter:grayscale(0%)}.fxs-svg-number.msportalfx-svg-disabled .fxs-svg-circle{fill:#fff;stroke-width:1px;stroke:#949494}.fxs-svg-number.msportalfx-svg-disabled .fxs-svg-text{fill:#949494}.fxs-theme-dark .fxs-svg-number .fxs-svg-text{fill:#0f0f0f}.fxs-theme-dark .fxs-svg-number .fxs-svg-circle{stroke-width:0%;fill:#0078d4}.fxs-theme-dark .fxs-svg-number.msportalfx-svg-disabled .fxs-svg-circle{fill:#0f0f0f;stroke-width:1px;stroke:#949494}.fxs-theme-dark .fxs-svg-number.msportalfx-svg-disabled .fxs-svg-text{fill:#949494}</style></svg>