<svg viewBox="0 0 18 18"><defs><linearGradient id="pWuLe6mgz__a" x1="-559.176" x2="-559.176" y1="1007.063" y2="1010.919" gradientTransform="matrix(1 0 0 -1 564 1025.516)" gradientUnits="userSpaceOnUse"><stop offset="0" stop-color="#76bc2d"/><stop offset=".4" stop-color="#84d332"/><stop offset=".75" stop-color="#86d633"/></linearGradient><linearGradient id="pWuLe6mgz__b" x1="-555.849" x2="-555.849" y1="73.585" y2="55.904" gradientTransform="translate(564 -54.484)" gradientUnits="userSpaceOnUse"><stop offset="0" stop-color="#0078d4"/><stop offset="1" stop-color="#83b9f9"/></linearGradient><linearGradient id="pWuLe6mgz__c" x1="8.151" x2="8.151" y1="4.178" y2="10.677" gradientUnits="userSpaceOnUse"><stop offset="0" stop-color="#fff"/><stop offset="1" stop-color="#fff" stop-opacity=".7"/></linearGradient></defs><path fill="url(#pWuLe6mgz__a)" d="M5.927 14.472H3.721a.12.12 0 0 0-.119.119v3.338a.06.06 0 0 0 .06.06.06.06 0 0 0 .037-.013l1.089-.853.024-.011 1.238-.965v-1.556a.12.12 0 0 0-.123-.119"/><path fill="#76bc2d" d="m4.808 17.109 1.238-.965v1.8a.06.06 0 0 1-.059.056.06.06 0 0 1-.037-.012Z"/><path fill="#0078d4" d="M1.871 1.632 3.092.21A.6.6 0 0 1 3.545 0h11.708a.817.817 0 0 1 .894.732 1 1 0 0 1 0 .1v13.456a.57.57 0 0 1-.2.433l-1.311 1.2H2.668l-.817-.332Z"/><path fill="#fff" d="m2.859 1.627.746-.853a.5.5 0 0 1 .353-.181h10.983a.525.525 0 0 1 .524.524v12.72a.52.52 0 0 1-.171.394l-1.17 1.059Z"/><path fill="url(#pWuLe6mgz__b)" d="M14.043 1.611H1.939a.06.06 0 0 0-.061.061v13.952a.394.394 0 0 0 .394.382h11.771a.38.38 0 0 0 .382-.382V2.008a.4.4 0 0 0-.382-.397"/><path fill="#fff" d="M8.156 14.123A1.625 1.625 0 1 1 9.781 12.5a1.626 1.626 0 0 1-1.625 1.623m0-2.562a.938.938 0 1 0 .944.939.94.94 0 0 0-.944-.939" opacity=".9"/><path fill="url(#pWuLe6mgz__c)" d="M11.944 6.737H9.906a.071.071 0 0 0-.051.122l.582.582a.083.083 0 0 1 0 .117L8.859 9.137c-.071.07-.122.152-.187.226V5.15a.07.07 0 0 1 .072-.072h.85a.073.073 0 0 0 .051-.123L8.2 3.515a.07.07 0 0 0-.1 0l-1.438 1.44a.073.073 0 0 0 .051.123h.843a.08.08 0 0 1 .072.072v4.21c-.064-.073-.115-.154-.184-.223L5.866 7.558a.08.08 0 0 1 0-.117l.581-.582a.07.07 0 0 0 0-.1.07.07 0 0 0-.05-.02H4.359a.07.07 0 0 0-.071.071v2.036a.07.07 0 0 0 .072.071.1.1 0 0 0 .05-.02l.61-.61a.08.08 0 0 1 .117 0l1.578 1.578a3.04 3.04 0 0 1 .726 1.182 1.56 1.56 0 0 1 1.42-.006 3.05 3.05 0 0 1 .726-1.176l1.578-1.578a.083.083 0 0 1 .118 0l.61.61a.07.07 0 0 0 .049.02.073.073 0 0 0 .073-.071V6.808a.07.07 0 0 0-.071-.071"/><style>.msportalfx-svg-c01{fill:#fff}.msportalfx-svg-c02{fill:#e5e5e5}.msportalfx-svg-c03{fill:#a0a1a2}.msportalfx-svg-c04{fill:#7a7a7a}.msportalfx-svg-c05{fill:#3e3e3e}.msportalfx-svg-c06{fill:#1e1e1e}.msportalfx-svg-c07{fill:#0f0f0f}.msportalfx-svg-c08{fill:#ba141a}.msportalfx-svg-c09{fill:#dd5900}.msportalfx-svg-c10{fill:#ff8c00}.msportalfx-svg-c11{fill:#fcd116}.msportalfx-svg-c12{fill:#fee087}.msportalfx-svg-c13{fill:#b8d432}.msportalfx-svg-c14,.msportalfx-svg-c32{fill:#57a300}.msportalfx-svg-c15{fill:#59b4d9}.msportalfx-svg-c16{fill:#3999c6}.msportalfx-svg-c17{fill:#804998}.msportalfx-svg-c18{fill:#ec008c}.msportalfx-svg-c19{fill:#0072c6}.msportalfx-svg-c20{fill:#68217a}.msportalfx-svg-c21{fill:#00188f}.msportalfx-svg-c22{fill:#e81123}.fxs-mode-light .msportalfx-svg-c22{fill:#a4262c}.msportalfx-svg-c23{fill:#cae3f3}.msportalfx-svg-c24{fill:#59aed3}.msportalfx-svg-c25{fill:#4c3b12}.msportalfx-svg-c26{fill:#be9555}.msportalfx-svg-c27{fill:#4f4d52}.msportalfx-svg-c28{fill:#ef6f59}.msportalfx-svg-c29{fill:#f7cb64}.msportalfx-svg-c30{fill:#fdd8db}.msportalfx-svg-c31{fill:#f6ffec}.msportalfx-svg-c33{fill:#8a2da5}.msportalfx-svg-c34{fill:#e00b1c}.msportalfx-svg-c35{fill:#015cda}.msportalfx-svg-c36{fill:#5db300}.msportalfx-svg-c97{fill:#ffb900}.msportalfx-svg-c98{fill:#00a4ef}.msportalfx-svg-c99{fill:#f25022}.msportalfx-inverted-theme .msportalfx-svg-c05,.fxs-theme-dark .msportalfx-svg-c05{fill:#777}.msportalfx-inverted-theme .msportalfx-svg-c07,.fxs-theme-dark .msportalfx-svg-c07{fill:#f2f2f2}.msportalfx-svg-palette-white{fill:#fff}.msportalfx-svg-palette-blue{fill:#015cda}.msportalfx-svg-palette-black{fill:#1e1e1e}.msportalfx-svg-palette-green{fill:#57a300}.msportalfx-svg-palette-gray{fill:#a0a1a2}.msportalfx-svg-palette-inherit{fill:inherit}.msportalfx-svg-badge{position:absolute;left:0;bottom:0;min-height:10px;min-width:10px}.fxc-menu-icon>.msportalfx-svg-badge{left:-2px;bottom:-2px;min-height:8px;min-width:8px}.msportalfx-svg-disabled{filter:grayscale(100%)}.msportalfx-svg-loading-square{animation:ProgressFlagAnimation 1.45s infinite ease-in-out;transform-origin:50%}.msportalfx-svg-loading-square:nth-child(1){animation-delay:0s}.msportalfx-svg-loading-square:nth-child(2){animation-delay:.2s}.msportalfx-svg-loading-square:nth-child(3){animation-delay:.4s}@keyframes ProgressFlagAnimation{0%{transform:scale(1);opacity:.3}36.1%{transform:scale(1.06);opacity:1}50%{transform:scale(1.06);opacity:1}86.1%{transform:scale(1);opacity:.3}}.msportalfx-svg-flip-horizontal>svg,svg.msportalfx-svg-flip-horizontal{transform:scaleX(-1)}.msportalfx-svg-fabric-rotate360{animation:ImageRotation 1.3s cubic-bezier(.53,.21,.29,.67) infinite}@keyframes ImageRotation{0%{transform:rotate(-45deg)}100%{transform:rotate(315deg)}}.fxs-svg-number .msportalfx-font-bold{font-size:10px;fill:#0065ad}.fxs-svg-number .fxs-svg-circle{stroke-width:0%;fill:#0078d4}.fxs-svg-number .fxs-svg-text{fill:#fff;font-size:10px}.fxs-svg-number.msportalfx-svg-disabled{filter:grayscale(0%)}.fxs-svg-number.msportalfx-svg-disabled .fxs-svg-circle{fill:#fff;stroke-width:1px;stroke:#949494}.fxs-svg-number.msportalfx-svg-disabled .fxs-svg-text{fill:#949494}.fxs-theme-dark .fxs-svg-number .fxs-svg-text{fill:#0f0f0f}.fxs-theme-dark .fxs-svg-number .fxs-svg-circle{stroke-width:0%;fill:#0078d4}.fxs-theme-dark .fxs-svg-number.msportalfx-svg-disabled .fxs-svg-circle{fill:#0f0f0f;stroke-width:1px;stroke:#949494}.fxs-theme-dark .fxs-svg-number.msportalfx-svg-disabled .fxs-svg-text{fill:#949494}</style></svg>