<svg fill="none" viewBox="0 0 28 28" class="msportalfx-svg-placeholder" xmlns="http://www.w3.org/2000/svg"><title>Network foundation</title><desc></desc><path fill="red" d="M1.792 23.002V4.998a3.206 3.206 0 0 1 3.206-3.206h18.004a3.206 3.206 0 0 1 3.206 3.206v18.004a3.206 3.206 0 0 1-3.206 3.206H4.998a3.206 3.206 0 0 1-3.206-3.206" /><path fill="url(#pat1GYfJw__a)" d="M1.792 23.002V4.998a3.206 3.206 0 0 1 3.206-3.206h18.004a3.206 3.206 0 0 1 3.206 3.206v18.004a3.206 3.206 0 0 1-3.206 3.206H4.998a3.206 3.206 0 0 1-3.206-3.206" /><path stroke="url(#pat1GYfJw__b)" stroke-linecap="round" stroke-linejoin="round" stroke-width="1.743" d="M.871 23.002V4.998A4.127 4.127 0 0 1 4.998.872h18.004a4.127 4.127 0 0 1 4.126 4.126v18.004a4.126 4.126 0 0 1-4.126 4.127H4.997A4.127 4.127 0 0 1 .87 23.002M.92 4.998v18.004a4.08 4.08 0 0 0 4.077 4.078h18.004a4.077 4.077 0 0 0 4.077-4.078V4.998A4.08 4.08 0 0 0 23.001.921H4.999A4.08 4.08 0 0 0 .92 4.998" /><path fill="url(#pat1GYfJw__c)" fill-rule="evenodd" d="M13.973 4.501a9.526 9.526 0 1 1 0 19.052 9.526 9.526 0 0 1 0-19.052m0 17.464c.39 0 1.17-.357 1.948-1.912a10.8 10.8 0 0 0 .815-2.322H11.21c.21.886.489 1.67.814 2.322.778 1.555 1.558 1.912 1.948 1.912m-3.046-5.821c-.084-.67-.13-1.38-.13-2.117s.046-1.446.13-2.117h6.092c.084.67.13 1.38.13 2.117s-.046 1.446-.13 2.117zm7.436 1.587c-.3 1.42-.767 2.662-1.351 3.632a7.97 7.97 0 0 0 3.984-3.632zm3.263-1.587h-3.008c.077-.681.118-1.39.118-2.117q0-1.094-.118-2.117h3.008c.186.674.285 1.384.285 2.117s-.099 1.443-.285 2.117m-12.298 0H6.32a8 8 0 0 1-.285-2.117c0-.733.1-1.443.285-2.117h3.008c-.077.68-.118 1.39-.118 2.117q.001 1.094.118 2.117M6.951 17.73h2.633c.3 1.42.766 2.662 1.35 3.632a7.97 7.97 0 0 1-3.983-3.632m4.26-7.409h5.525c-.21-.885-.49-1.67-.815-2.32-.777-1.556-1.558-1.913-1.948-1.913s-1.17.357-1.948 1.912a10.8 10.8 0 0 0-.814 2.321m7.152 0h2.633a7.97 7.97 0 0 0-3.984-3.63c.584.968 1.05 2.212 1.35 3.63m-7.428-3.63c-.585.968-1.051 2.212-1.351 3.63H6.95a7.97 7.97 0 0 1 3.984-3.63" clip-rule="evenodd" /><defs><linearGradient id="pat1GYfJw__a" x1="6.573" x2="16.161" y1=".938" y2="29.736" gradientUnits="userSpaceOnUse"><stop stop-color="#0FAFFF" /><stop offset="1" stop-color="#2764E7" /></linearGradient><linearGradient id="pat1GYfJw__b" x1="5.738" x2="16.404" y1="-.53" y2="31.505" gradientUnits="userSpaceOnUse"><stop stop-color="#0094F0" /><stop offset="1" stop-color="#2052CB" /></linearGradient><linearGradient id="pat1GYfJw__c" x1="13.993" x2="13.993" y1="6.795" y2="30.796" gradientUnits="userSpaceOnUse"><stop stop-color="#D8F7FF" /><stop offset="1" stop-color="#D8F7FF" stop-opacity=".5" /></linearGradient></defs><style>.msportalfx-svg-c01{fill:#fff}.msportalfx-svg-c02{fill:#e5e5e5}.msportalfx-svg-c03{fill:#a0a1a2}.msportalfx-svg-c04{fill:#7a7a7a}.msportalfx-svg-c05{fill:#3e3e3e}.msportalfx-svg-c06{fill:#1e1e1e}.msportalfx-svg-c07{fill:#0f0f0f}.msportalfx-svg-c08{fill:#ba141a}.msportalfx-svg-c09{fill:#dd5900}.msportalfx-svg-c10{fill:#ff8c00}.msportalfx-svg-c11{fill:#fcd116}.msportalfx-svg-c12{fill:#fee087}.msportalfx-svg-c13{fill:#b8d432}.msportalfx-svg-c14,.msportalfx-svg-c32{fill:#57a300}.msportalfx-svg-c15{fill:#59b4d9}.msportalfx-svg-c16{fill:#3999c6}.msportalfx-svg-c17{fill:#804998}.msportalfx-svg-c18{fill:#ec008c}.msportalfx-svg-c19{fill:#0072c6}.msportalfx-svg-c20{fill:#68217a}.msportalfx-svg-c21{fill:#00188f}.msportalfx-svg-c22{fill:#e81123}.fxs-mode-light .msportalfx-svg-c22{fill:#a4262c}.msportalfx-svg-c23{fill:#cae3f3}.msportalfx-svg-c24{fill:#59aed3}.msportalfx-svg-c25{fill:#4c3b12}.msportalfx-svg-c26{fill:#be9555}.msportalfx-svg-c27{fill:#4f4d52}.msportalfx-svg-c28{fill:#ef6f59}.msportalfx-svg-c29{fill:#f7cb64}.msportalfx-svg-c30{fill:#fdd8db}.msportalfx-svg-c31{fill:#f6ffec}.msportalfx-svg-c33{fill:#8a2da5}.msportalfx-svg-c34{fill:#e00b1c}.msportalfx-svg-c35{fill:#015cda}.msportalfx-svg-c36{fill:#5db300}.msportalfx-svg-c97{fill:#ffb900}.msportalfx-svg-c98{fill:#00a4ef}.msportalfx-svg-c99{fill:#f25022}.msportalfx-inverted-theme .msportalfx-svg-c05,.fxs-theme-dark .msportalfx-svg-c05{fill:#777}.msportalfx-inverted-theme .msportalfx-svg-c07,.fxs-theme-dark .msportalfx-svg-c07{fill:#f2f2f2}.msportalfx-svg-palette-white{fill:#fff}.msportalfx-svg-palette-blue{fill:#015cda}.msportalfx-svg-palette-black{fill:#1e1e1e}.msportalfx-svg-palette-green{fill:#57a300}.msportalfx-svg-palette-gray{fill:#a0a1a2}.msportalfx-svg-palette-inherit{fill:inherit}.msportalfx-svg-badge{position:absolute;left:0;bottom:0;min-height:10px;min-width:10px}.fxc-menu-icon&gt;.msportalfx-svg-badge{left:-2px;bottom:-2px;min-height:8px;min-width:8px}.msportalfx-svg-disabled{filter:grayscale(100%)}.msportalfx-svg-loading-square{animation:ProgressFlagAnimation 1.45s infinite ease-in-out;transform-origin:50%}.msportalfx-svg-loading-square:nth-child(1){animation-delay:0s}.msportalfx-svg-loading-square:nth-child(2){animation-delay:.2s}.msportalfx-svg-loading-square:nth-child(3){animation-delay:.4s}@keyframes ProgressFlagAnimation{0%{transform:scale(1);opacity:.3}36.1%{transform:scale(1.06);opacity:1}50%{transform:scale(1.06);opacity:1}86.1%{transform:scale(1);opacity:.3}}.msportalfx-svg-flip-horizontal&gt;svg,svg.msportalfx-svg-flip-horizontal{transform:scaleX(-1)}.msportalfx-svg-fabric-rotate360{animation:ImageRotation 1.3s cubic-bezier(.53,.21,.29,.67) infinite}@keyframes ImageRotation{0%{transform:rotate(-45deg)}100%{transform:rotate(315deg)}}.fxs-svg-number .msportalfx-font-bold{font-size:10px;fill:#0065ad}.fxs-svg-number .fxs-svg-circle{stroke-width:0%;fill:#0078d4}.fxs-svg-number .fxs-svg-text{fill:#fff;font-size:10px}.fxs-svg-number.msportalfx-svg-disabled{filter:grayscale(0%)}.fxs-svg-number.msportalfx-svg-disabled .fxs-svg-circle{fill:#fff;stroke-width:1px;stroke:#949494}.fxs-svg-number.msportalfx-svg-disabled .fxs-svg-text{fill:#949494}.fxs-theme-dark .fxs-svg-number .fxs-svg-text{fill:#0f0f0f}.fxs-theme-dark .fxs-svg-number .fxs-svg-circle{stroke-width:0%;fill:#0078d4}.fxs-theme-dark .fxs-svg-number.msportalfx-svg-disabled .fxs-svg-circle{fill:#0f0f0f;stroke-width:1px;stroke:#949494}.fxs-theme-dark .fxs-svg-number.msportalfx-svg-disabled .fxs-svg-text{fill:#949494}</style></svg>