<svg viewBox="0 0 18 18" class="msportalfx-svg-placeholder" xmlns="http://www.w3.org/2000/svg"><title>Network watcher center</title><desc></desc><defs><linearGradient id="pB__jTO3Q__a" x1="8.98" x2="8.98" y1="16.47" y2="1.53" gradientUnits="userSpaceOnUse"><stop offset="0" stop-color="#0078d4" /><stop offset=".78" stop-color="#5ea0ef" /></linearGradient><linearGradient id="pB__jTO3Q__b" x1="8.98" x2="8.98" y1="12.59" y2="5.42" gradientUnits="userSpaceOnUse"><stop offset="0" stop-color="#005ba1" /><stop offset="1" stop-color="#0078d4" /></linearGradient></defs><path fill="none" d="M0 0h18v18H0z" /><path fill="url(#pB__jTO3Q__a)" d="M8.98 16.47c-.29 0-.59-.06-.87-.17l-5.58-2.26c-.75-.3-1.23-1.02-1.23-1.83V5.78c0-.81.48-1.53 1.23-1.83l5.58-2.26c.56-.23 1.18-.23 1.73 0l5.58 2.26c.75.3 1.23 1.02 1.23 1.83v6.43c0 .81-.48 1.53-1.23 1.83L9.84 16.3c-.28.11-.57.17-.87.17Zm0-14.19c-.2 0-.4.04-.59.11L2.81 4.65c-.46.19-.76.63-.76 1.13v6.43c0 .5.3.95.76 1.13l5.58 2.26c.38.15.79.15 1.17 0l5.58-2.26c.46-.19.76-.63.76-1.13V5.78c0-.5-.3-.95-.76-1.13L9.56 2.39c-.19-.08-.39-.11-.58-.11" /><path fill="url(#pB__jTO3Q__b)" d="m12.31 9.75-.46-.34c-.13-.1-.21-.25-.21-.41s.08-.31.21-.41l.46-.34c.09-.07.13-.19.1-.3-.16-.52-.44-1-.81-1.39a.26.26 0 0 0-.31-.06l-.51.23a.518.518 0 0 1-.71-.41l-.06-.56a.28.28 0 0 0-.21-.24c-.26-.06-.53-.09-.8-.09q-.42 0-.81.09c-.12.03-.2.12-.21.24l-.06.56c-.02.16-.11.3-.25.38s-.31.09-.46.03L6.7 6.5a.27.27 0 0 0-.31.06c-.37.4-.65.87-.81 1.39-.03.11 0 .23.1.3l.46.34c.13.1.21.25.21.41s-.08.31-.21.41l-.46.34c-.09.07-.13.19-.1.3.16.52.44 1 .81 1.4.08.09.2.11.31.06l.52-.23c.15-.06.32-.05.46.03s.23.22.25.38l.06.56c.01.12.1.21.21.24.53.13 1.09.13 1.62 0 .11-.03.2-.12.21-.24l.06-.56c.02-.16.11-.3.25-.38s.31-.09.46-.03l.52.23c.11.05.23.02.31-.06.37-.4.65-.87.81-1.39a.27.27 0 0 0-.1-.3Zm-3.33.59a1.34 1.34 0 1 1 0-2.68 1.34 1.34 0 0 1 0 2.68" /><path fill="#0078d4" d="m1.53 5.16 2.89 1.68a.37.37 0 0 0 .51-.14c.1-.18.04-.41-.14-.51L1.9 4.51a.375.375 0 0 0-.37.65m2.92 6.06-2.9 1.66a.375.375 0 0 0 .19.7c.06 0 .13-.02.19-.05l2.9-1.66a.375.375 0 0 0-.37-.65Zm4.57 2.13c-.21 0-.37.17-.38.37v2.96c-.01.21.15.38.36.38s.37-.17.38-.37v-2.96a.357.357 0 0 0-.36-.38m7.41-.51-2.89-1.68a.375.375 0 0 0-.37.65l2.89 1.68a.37.37 0 0 0 .51-.14c.1-.18.04-.41-.14-.51m-3.11-6.01c.06 0 .13-.02.19-.05l2.9-1.66a.375.375 0 0 0-.37-.65l-2.9 1.66a.375.375 0 0 0 .19.7ZM8.99 4.69c.21 0 .37-.17.37-.38l-.04-3.17c0-.21-.22-.38-.38-.37-.21 0-.37.17-.37.38l.04 3.17c0 .21.17.37.38.37" /><path fill="#86d633" d="M8.98.56a1.34 1.34 0 1 0 0 2.68 1.34 1.34 0 0 0 0-2.68m0 14.19a1.34 1.34 0 1 0 0 2.68 1.34 1.34 0 0 0 0-2.68m7.3-2.93a1.34 1.34 0 1 0 0 2.68 1.34 1.34 0 0 0 0-2.68m0-5.64a1.34 1.34 0 1 0 0-2.68 1.34 1.34 0 0 0 0 2.68M1.72 11.82a1.34 1.34 0 1 0 0 2.68 1.34 1.34 0 0 0 0-2.68m0-8.33a1.34 1.34 0 1 0 0 2.68 1.34 1.34 0 0 0 0-2.68" /><style>.msportalfx-svg-c01{fill:#fff}.msportalfx-svg-c02{fill:#e5e5e5}.msportalfx-svg-c03{fill:#a0a1a2}.msportalfx-svg-c04{fill:#7a7a7a}.msportalfx-svg-c05{fill:#3e3e3e}.msportalfx-svg-c06{fill:#1e1e1e}.msportalfx-svg-c07{fill:#0f0f0f}.msportalfx-svg-c08{fill:#ba141a}.msportalfx-svg-c09{fill:#dd5900}.msportalfx-svg-c10{fill:#ff8c00}.msportalfx-svg-c11{fill:#fcd116}.msportalfx-svg-c12{fill:#fee087}.msportalfx-svg-c13{fill:#b8d432}.msportalfx-svg-c14,.msportalfx-svg-c32{fill:#57a300}.msportalfx-svg-c15{fill:#59b4d9}.msportalfx-svg-c16{fill:#3999c6}.msportalfx-svg-c17{fill:#804998}.msportalfx-svg-c18{fill:#ec008c}.msportalfx-svg-c19{fill:#0072c6}.msportalfx-svg-c20{fill:#68217a}.msportalfx-svg-c21{fill:#00188f}.msportalfx-svg-c22{fill:#e81123}.fxs-mode-light .msportalfx-svg-c22{fill:#a4262c}.msportalfx-svg-c23{fill:#cae3f3}.msportalfx-svg-c24{fill:#59aed3}.msportalfx-svg-c25{fill:#4c3b12}.msportalfx-svg-c26{fill:#be9555}.msportalfx-svg-c27{fill:#4f4d52}.msportalfx-svg-c28{fill:#ef6f59}.msportalfx-svg-c29{fill:#f7cb64}.msportalfx-svg-c30{fill:#fdd8db}.msportalfx-svg-c31{fill:#f6ffec}.msportalfx-svg-c33{fill:#8a2da5}.msportalfx-svg-c34{fill:#e00b1c}.msportalfx-svg-c35{fill:#015cda}.msportalfx-svg-c36{fill:#5db300}.msportalfx-svg-c97{fill:#ffb900}.msportalfx-svg-c98{fill:#00a4ef}.msportalfx-svg-c99{fill:#f25022}.msportalfx-inverted-theme .msportalfx-svg-c05,.fxs-theme-dark .msportalfx-svg-c05{fill:#777}.msportalfx-inverted-theme .msportalfx-svg-c07,.fxs-theme-dark .msportalfx-svg-c07{fill:#f2f2f2}.msportalfx-svg-palette-white{fill:#fff}.msportalfx-svg-palette-blue{fill:#015cda}.msportalfx-svg-palette-black{fill:#1e1e1e}.msportalfx-svg-palette-green{fill:#57a300}.msportalfx-svg-palette-gray{fill:#a0a1a2}.msportalfx-svg-palette-inherit{fill:inherit}.msportalfx-svg-badge{position:absolute;left:0;bottom:0;min-height:10px;min-width:10px}.fxc-menu-icon&gt;.msportalfx-svg-badge{left:-2px;bottom:-2px;min-height:8px;min-width:8px}.msportalfx-svg-disabled{filter:grayscale(100%)}.msportalfx-svg-loading-square{animation:ProgressFlagAnimation 1.45s infinite ease-in-out;transform-origin:50%}.msportalfx-svg-loading-square:nth-child(1){animation-delay:0s}.msportalfx-svg-loading-square:nth-child(2){animation-delay:.2s}.msportalfx-svg-loading-square:nth-child(3){animation-delay:.4s}@keyframes ProgressFlagAnimation{0%{transform:scale(1);opacity:.3}36.1%{transform:scale(1.06);opacity:1}50%{transform:scale(1.06);opacity:1}86.1%{transform:scale(1);opacity:.3}}.msportalfx-svg-flip-horizontal&gt;svg,svg.msportalfx-svg-flip-horizontal{transform:scaleX(-1)}.msportalfx-svg-fabric-rotate360{animation:ImageRotation 1.3s cubic-bezier(.53,.21,.29,.67) infinite}@keyframes ImageRotation{0%{transform:rotate(-45deg)}100%{transform:rotate(315deg)}}.fxs-svg-number .msportalfx-font-bold{font-size:10px;fill:#0065ad}.fxs-svg-number .fxs-svg-circle{stroke-width:0%;fill:#0078d4}.fxs-svg-number .fxs-svg-text{fill:#fff;font-size:10px}.fxs-svg-number.msportalfx-svg-disabled{filter:grayscale(0%)}.fxs-svg-number.msportalfx-svg-disabled .fxs-svg-circle{fill:#fff;stroke-width:1px;stroke:#949494}.fxs-svg-number.msportalfx-svg-disabled .fxs-svg-text{fill:#949494}.fxs-theme-dark .fxs-svg-number .fxs-svg-text{fill:#0f0f0f}.fxs-theme-dark .fxs-svg-number .fxs-svg-circle{stroke-width:0%;fill:#0078d4}.fxs-theme-dark .fxs-svg-number.msportalfx-svg-disabled .fxs-svg-circle{fill:#0f0f0f;stroke-width:1px;stroke:#949494}.fxs-theme-dark .fxs-svg-number.msportalfx-svg-disabled .fxs-svg-text{fill:#949494}</style></svg>