<svg viewBox="0 0 18 18"><defs><radialGradient id="pOzXoDw-___a" cx="6.61" cy="45.13" r="6.4" gradientTransform="matrix(.94 0 0 .94 5.04 -35.89)" gradientUnits="userSpaceOnUse"><stop offset="0" stop-color="#5ea0ef"/><stop offset=".28" stop-color="#5b9fee"/><stop offset=".47" stop-color="#529bec"/><stop offset=".64" stop-color="#4394e7"/><stop offset=".79" stop-color="#2d8be1"/><stop offset=".93" stop-color="#117fd9"/><stop offset="1" stop-color="#0078d4"/></radialGradient></defs><title>Icon-networking-66</title><rect width="5.89" height="1.34" x="-.15" y="14.53" fill="#198ab3" rx=".63" transform="rotate(-45 2.797 15.202)"/><path fill="url(#pOzXoDw-___a)" d="M17 4.35A6.4 6.4 0 0 0 16.25 3a6.24 6.24 0 0 0-8.74-1.24l-.06.05a6.18 6.18 0 0 0-2.21 3.33c0 .22-.1.44-.13.66A6.25 6.25 0 0 0 7 11.26a2 2 0 0 0 .22.2l.22.18a6 6 0 0 0 .94.6l.1.06.17.07.14.07.15.06.16.06.14.05.2.06h.11l.29.08.32.07h.08a2 2 0 0 0 .25 0h1.52a5 5 0 0 0 .76-.15 6.2 6.2 0 0 0 2.21-1.1 6.4 6.4 0 0 0 1.13-1.13A6.28 6.28 0 0 0 17 4.35m-1.45-.93h-1.22a5.9 5.9 0 0 0-.88-1.66 5.34 5.34 0 0 1 2.13 1.66Zm-3.91-2a3.27 3.27 0 0 1 1.8 2h-1.8Zm0 2.84h2.07a9.2 9.2 0 0 1 .33 2.11h-2.4Zm0 2.91h2.4a9.2 9.2 0 0 1-.33 2.12h-2.04V7.13ZM8.52 5.74a8.7 8.7 0 0 1 .28-1.52h2.07v2.11H8.48c.01-.2.02-.4.04-.59m2.35-4.36v2H9.08a3.23 3.23 0 0 1 1.79-2M7.94 2.44a6 6 0 0 1 1.1-.64 6.1 6.1 0 0 0-.88 1.67H7a5.7 5.7 0 0 1 .94-1.03M6.45 4.22H8a9 9 0 0 0-.24 1.34c0 .25-.05.51-.05.77H5.85A7 7 0 0 1 6 5.58a6 6 0 0 1 .45-1.36m-.6 2.91h1.83A9.4 9.4 0 0 0 8 9.25H6.45a5.4 5.4 0 0 1-.6-2.12M7 10.07h1.21a5.9 5.9 0 0 0 .88 1.66A5.3 5.3 0 0 1 7 10.07m3.89 2a3.23 3.23 0 0 1-1.79-2h1.79Zm0-2.84H8.8a9.2 9.2 0 0 1-.32-2.12h2.39v2.14Zm1.53 2.42a2 2 0 0 1-.73.42v-2h1.8a4.4 4.4 0 0 1-1.09 1.6ZM14.6 11a5.2 5.2 0 0 1-1.15.68 5.9 5.9 0 0 0 .88-1.66h1.25a5.4 5.4 0 0 1-.98.98m1.48-1.78h-1.5a10.6 10.6 0 0 0 .29-2.12h1.81a5.3 5.3 0 0 1-.6 2.15Zm-1.21-2.89a10.6 10.6 0 0 0-.29-2.11h1.51a5.5 5.5 0 0 1 .6 2.11Z"/><circle cx="6.36" cy="10.94" r="4.04" fill="#50e6ff"/><circle cx="6.35" cy="10.87" r="3.17" fill="#fff"/><path fill="#76bc2d" d="m4.72 10.94.8 1.86.81-2.39.67 1.36.83-1.4h1.29A4 4 0 0 0 9 9.9H7.61l-.54.91-.83-1.58-.77 2.27-.7-1.61-.86 1.57h-.46a2.6 2.6 0 0 0 .15.47h.58Z"/><style>.msportalfx-svg-c01{fill:#fff}.msportalfx-svg-c02{fill:#e5e5e5}.msportalfx-svg-c03{fill:#a0a1a2}.msportalfx-svg-c04{fill:#7a7a7a}.msportalfx-svg-c05{fill:#3e3e3e}.msportalfx-svg-c06{fill:#1e1e1e}.msportalfx-svg-c07{fill:#0f0f0f}.msportalfx-svg-c08{fill:#ba141a}.msportalfx-svg-c09{fill:#dd5900}.msportalfx-svg-c10{fill:#ff8c00}.msportalfx-svg-c11{fill:#fcd116}.msportalfx-svg-c12{fill:#fee087}.msportalfx-svg-c13{fill:#b8d432}.msportalfx-svg-c14,.msportalfx-svg-c32{fill:#57a300}.msportalfx-svg-c15{fill:#59b4d9}.msportalfx-svg-c16{fill:#3999c6}.msportalfx-svg-c17{fill:#804998}.msportalfx-svg-c18{fill:#ec008c}.msportalfx-svg-c19{fill:#0072c6}.msportalfx-svg-c20{fill:#68217a}.msportalfx-svg-c21{fill:#00188f}.msportalfx-svg-c22{fill:#e81123}.fxs-mode-light .msportalfx-svg-c22{fill:#a4262c}.msportalfx-svg-c23{fill:#cae3f3}.msportalfx-svg-c24{fill:#59aed3}.msportalfx-svg-c25{fill:#4c3b12}.msportalfx-svg-c26{fill:#be9555}.msportalfx-svg-c27{fill:#4f4d52}.msportalfx-svg-c28{fill:#ef6f59}.msportalfx-svg-c29{fill:#f7cb64}.msportalfx-svg-c30{fill:#fdd8db}.msportalfx-svg-c31{fill:#f6ffec}.msportalfx-svg-c33{fill:#8a2da5}.msportalfx-svg-c34{fill:#e00b1c}.msportalfx-svg-c35{fill:#015cda}.msportalfx-svg-c36{fill:#5db300}.msportalfx-svg-c97{fill:#ffb900}.msportalfx-svg-c98{fill:#00a4ef}.msportalfx-svg-c99{fill:#f25022}.msportalfx-inverted-theme .msportalfx-svg-c05,.fxs-theme-dark .msportalfx-svg-c05{fill:#777}.msportalfx-inverted-theme .msportalfx-svg-c07,.fxs-theme-dark .msportalfx-svg-c07{fill:#f2f2f2}.msportalfx-svg-palette-white{fill:#fff}.msportalfx-svg-palette-blue{fill:#015cda}.msportalfx-svg-palette-black{fill:#1e1e1e}.msportalfx-svg-palette-green{fill:#57a300}.msportalfx-svg-palette-gray{fill:#a0a1a2}.msportalfx-svg-palette-inherit{fill:inherit}.msportalfx-svg-badge{position:absolute;left:0;bottom:0;min-height:10px;min-width:10px}.fxc-menu-icon>.msportalfx-svg-badge{left:-2px;bottom:-2px;min-height:8px;min-width:8px}.msportalfx-svg-disabled{filter:grayscale(100%)}.msportalfx-svg-loading-square{animation:ProgressFlagAnimation 1.45s infinite ease-in-out;transform-origin:50%}.msportalfx-svg-loading-square:nth-child(1){animation-delay:0s}.msportalfx-svg-loading-square:nth-child(2){animation-delay:.2s}.msportalfx-svg-loading-square:nth-child(3){animation-delay:.4s}@keyframes ProgressFlagAnimation{0%{transform:scale(1);opacity:.3}36.1%{transform:scale(1.06);opacity:1}50%{transform:scale(1.06);opacity:1}86.1%{transform:scale(1);opacity:.3}}.msportalfx-svg-flip-horizontal>svg,svg.msportalfx-svg-flip-horizontal{transform:scaleX(-1)}.msportalfx-svg-fabric-rotate360{animation:ImageRotation 1.3s cubic-bezier(.53,.21,.29,.67) infinite}@keyframes ImageRotation{0%{transform:rotate(-45deg)}100%{transform:rotate(315deg)}}.fxs-svg-number .msportalfx-font-bold{font-size:10px;fill:#0065ad}.fxs-svg-number .fxs-svg-circle{stroke-width:0%;fill:#0078d4}.fxs-svg-number .fxs-svg-text{fill:#fff;font-size:10px}.fxs-svg-number.msportalfx-svg-disabled{filter:grayscale(0%)}.fxs-svg-number.msportalfx-svg-disabled .fxs-svg-circle{fill:#fff;stroke-width:1px;stroke:#949494}.fxs-svg-number.msportalfx-svg-disabled .fxs-svg-text{fill:#949494}.fxs-theme-dark .fxs-svg-number .fxs-svg-text{fill:#0f0f0f}.fxs-theme-dark .fxs-svg-number .fxs-svg-circle{stroke-width:0%;fill:#0078d4}.fxs-theme-dark .fxs-svg-number.msportalfx-svg-disabled .fxs-svg-circle{fill:#0f0f0f;stroke-width:1px;stroke:#949494}.fxs-theme-dark .fxs-svg-number.msportalfx-svg-disabled .fxs-svg-text{fill:#949494}</style></svg>