<svg viewBox="0 0 18 18"><defs><linearGradient id="pj6hiwxJP__a" x1="9" x2="9" y1="19.25" y2="-.46" gradientTransform="rotate(45 9.003 8.999)" gradientUnits="userSpaceOnUse"><stop offset="0" stop-color="#5e9624"/><stop offset=".55" stop-color="#6dad2a"/><stop offset="1" stop-color="#76bc2d"/></linearGradient><linearGradient id="pj6hiwxJP__b" x1="7.54" x2="7.53" y1="6.44" y2="5.18" gradientUnits="userSpaceOnUse"><stop offset="0" stop-color="#ccc"/><stop offset=".12" stop-color="#d7d7d7"/><stop offset=".42" stop-color="#ebebeb"/><stop offset=".72" stop-color="#f8f8f8"/><stop offset="1" stop-color="#fcfcfc"/></linearGradient></defs><rect width="12.35" height="12.35" x="2.82" y="2.82" fill="url(#pj6hiwxJP__a)" rx=".57" transform="rotate(-45 8.999 9.003)"/><g fill="#fff"><path d="M10.89 10.51h2.84a.11.11 0 0 0 .1-.11V7.57a.1.1 0 0 0-.18-.07l-.78.78v.05a.1.1 0 0 1-.14 0L9.26 4.91a.1.1 0 0 0-.14 0l-.88.88a.11.11 0 0 0 0 .15l3.41 3.41a.11.11 0 0 1 0 .15l-.05.05-.78.78a.11.11 0 0 0 .07.18"/><path d="M6.92 10.51H4.08A.11.11 0 0 1 4 10.4V7.57a.1.1 0 0 1 .17-.07l.79.78v.05a.1.1 0 0 0 .14 0l3.45-3.42a.1.1 0 0 1 .14 0l.88.88a.11.11 0 0 1 0 .15L6.16 9.35a.11.11 0 0 0 0 .15v.05l.78.78a.11.11 0 0 1-.02.18"/><path d="m6.82 13.07 2 2a.1.1 0 0 0 .14 0l2-2a.1.1 0 0 0-.07-.17H9.72a.11.11 0 0 1-.1-.1V8a.1.1 0 0 0-.1-.11H8.28a.11.11 0 0 0-.11.11v4.8a.1.1 0 0 1-.1.1H6.89a.1.1 0 0 0-.07.17"/></g><path fill="#0078d4" d="M10.65 7.78A2.71 2.71 0 0 1 7.33 3.5a2.71 2.71 0 0 1 3.29 4.3"/><circle cx="7.53" cy="5.55" r=".87" fill="url(#pj6hiwxJP__b)"/><path fill="#f2f2f2" d="m6.67 7 .19.3.14.2a6 6 0 0 1 .34-1.1.85.85 0 0 1-.45-.23 7 7 0 0 0-.22.83m.57-2.27A4 4 0 0 1 7 3.8a2.5 2.5 0 0 0-.34.46 3.5 3.5 0 0 0 .2.74 1 1 0 0 1 .38-.27m.93 1.41a.87.87 0 0 1-.48.26 5 5 0 0 0 .46.41 4 4 0 0 0 .65.39v-.07a.53.53 0 0 1 .2-.4 3.6 3.6 0 0 1-.83-.59m2.62 1.06a4 4 0 0 1-.87-.1.55.55 0 0 1-.16.39 3.8 3.8 0 0 0 1.08.08 3 3 0 0 0 .37-.42Z" opacity=".55"/><circle cx="9.36" cy="7.13" r=".56" fill="url(#pj6hiwxJP__eedce6dd-706a-43c4-ac66-66b73578221d)"/><circle cx="10.64" cy="5.74" r=".6" fill="#f2f2f2"/><path fill="#f2f2f2" d="M9.21 4.42A4.3 4.3 0 0 1 11.09 4a2.2 2.2 0 0 0-.47-.45 4.5 4.5 0 0 0-1.49.35c-.1 0-.19.11-.29.16a6 6 0 0 1-.63-.93l-.34.13a5.4 5.4 0 0 0 .65 1 4 4 0 0 0-.67.55.87.87 0 0 1 .43.35 3.3 3.3 0 0 1 .61-.48 9 9 0 0 0 1.17 1 .57.57 0 0 1 .2-.32 8.4 8.4 0 0 1-1.05-.94m2.34 1.67h-.18l-.1-.06a.6.6 0 0 1-.2.3l.12.07.11.06.28.14a4 4 0 0 0 .09-.35Z" opacity=".55"/><circle cx="7.53" cy="5.55" r=".87" fill="#f2f2f2"/><circle cx="9.36" cy="7.13" r=".56" fill="#f2f2f2"/><style>.msportalfx-svg-c01{fill:#fff}.msportalfx-svg-c02{fill:#e5e5e5}.msportalfx-svg-c03{fill:#a0a1a2}.msportalfx-svg-c04{fill:#7a7a7a}.msportalfx-svg-c05{fill:#3e3e3e}.msportalfx-svg-c06{fill:#1e1e1e}.msportalfx-svg-c07{fill:#0f0f0f}.msportalfx-svg-c08{fill:#ba141a}.msportalfx-svg-c09{fill:#dd5900}.msportalfx-svg-c10{fill:#ff8c00}.msportalfx-svg-c11{fill:#fcd116}.msportalfx-svg-c12{fill:#fee087}.msportalfx-svg-c13{fill:#b8d432}.msportalfx-svg-c14,.msportalfx-svg-c32{fill:#57a300}.msportalfx-svg-c15{fill:#59b4d9}.msportalfx-svg-c16{fill:#3999c6}.msportalfx-svg-c17{fill:#804998}.msportalfx-svg-c18{fill:#ec008c}.msportalfx-svg-c19{fill:#0072c6}.msportalfx-svg-c20{fill:#68217a}.msportalfx-svg-c21{fill:#00188f}.msportalfx-svg-c22{fill:#e81123}.fxs-mode-light .msportalfx-svg-c22{fill:#a4262c}.msportalfx-svg-c23{fill:#cae3f3}.msportalfx-svg-c24{fill:#59aed3}.msportalfx-svg-c25{fill:#4c3b12}.msportalfx-svg-c26{fill:#be9555}.msportalfx-svg-c27{fill:#4f4d52}.msportalfx-svg-c28{fill:#ef6f59}.msportalfx-svg-c29{fill:#f7cb64}.msportalfx-svg-c30{fill:#fdd8db}.msportalfx-svg-c31{fill:#f6ffec}.msportalfx-svg-c33{fill:#8a2da5}.msportalfx-svg-c34{fill:#e00b1c}.msportalfx-svg-c35{fill:#015cda}.msportalfx-svg-c36{fill:#5db300}.msportalfx-svg-c97{fill:#ffb900}.msportalfx-svg-c98{fill:#00a4ef}.msportalfx-svg-c99{fill:#f25022}.msportalfx-inverted-theme .msportalfx-svg-c05,.fxs-theme-dark .msportalfx-svg-c05{fill:#777}.msportalfx-inverted-theme .msportalfx-svg-c07,.fxs-theme-dark .msportalfx-svg-c07{fill:#f2f2f2}.msportalfx-svg-palette-white{fill:#fff}.msportalfx-svg-palette-blue{fill:#015cda}.msportalfx-svg-palette-black{fill:#1e1e1e}.msportalfx-svg-palette-green{fill:#57a300}.msportalfx-svg-palette-gray{fill:#a0a1a2}.msportalfx-svg-palette-inherit{fill:inherit}.msportalfx-svg-badge{position:absolute;left:0;bottom:0;min-height:10px;min-width:10px}.fxc-menu-icon>.msportalfx-svg-badge{left:-2px;bottom:-2px;min-height:8px;min-width:8px}.msportalfx-svg-disabled{filter:grayscale(100%)}.msportalfx-svg-loading-square{animation:ProgressFlagAnimation 1.45s infinite ease-in-out;transform-origin:50%}.msportalfx-svg-loading-square:nth-child(1){animation-delay:0s}.msportalfx-svg-loading-square:nth-child(2){animation-delay:.2s}.msportalfx-svg-loading-square:nth-child(3){animation-delay:.4s}@keyframes ProgressFlagAnimation{0%{transform:scale(1);opacity:.3}36.1%{transform:scale(1.06);opacity:1}50%{transform:scale(1.06);opacity:1}86.1%{transform:scale(1);opacity:.3}}.msportalfx-svg-flip-horizontal>svg,svg.msportalfx-svg-flip-horizontal{transform:scaleX(-1)}.msportalfx-svg-fabric-rotate360{animation:ImageRotation 1.3s cubic-bezier(.53,.21,.29,.67) infinite}@keyframes ImageRotation{0%{transform:rotate(-45deg)}100%{transform:rotate(315deg)}}.fxs-svg-number .msportalfx-font-bold{font-size:10px;fill:#0065ad}.fxs-svg-number .fxs-svg-circle{stroke-width:0%;fill:#0078d4}.fxs-svg-number .fxs-svg-text{fill:#fff;font-size:10px}.fxs-svg-number.msportalfx-svg-disabled{filter:grayscale(0%)}.fxs-svg-number.msportalfx-svg-disabled .fxs-svg-circle{fill:#fff;stroke-width:1px;stroke:#949494}.fxs-svg-number.msportalfx-svg-disabled .fxs-svg-text{fill:#949494}.fxs-theme-dark .fxs-svg-number .fxs-svg-text{fill:#0f0f0f}.fxs-theme-dark .fxs-svg-number .fxs-svg-circle{stroke-width:0%;fill:#0078d4}.fxs-theme-dark .fxs-svg-number.msportalfx-svg-disabled .fxs-svg-circle{fill:#0f0f0f;stroke-width:1px;stroke:#949494}.fxs-theme-dark .fxs-svg-number.msportalfx-svg-disabled .fxs-svg-text{fill:#949494}</style></svg>