<svg viewBox="0 0 50 50"><defs><linearGradient id="pwF9wM2wf__a" x1="21.5" x2="21.5" y1="25" y2="37" gradientUnits="userSpaceOnUse"><stop offset=".23" stop-color="#5ea0ef"/><stop offset=".32" stop-color="#5b9fee"/><stop offset=".48" stop-color="#509aeb"/><stop offset=".57" stop-color="#3f92e6"/><stop offset=".75" stop-color="#2688df"/><stop offset=".93" stop-color="#127fd9"/></linearGradient><linearGradient id="pwF9wM2wf__b" x1="27.5" x2="27.5" y1="30" y2="42" gradientUnits="userSpaceOnUse"><stop offset=".02" stop-color="#5ea0ef"/><stop offset=".14" stop-color="#5b9fee"/><stop offset=".23" stop-color="#5b9fee"/><stop offset=".34" stop-color="#509aeb"/><stop offset=".44" stop-color="#3f92e6"/><stop offset=".63" stop-color="#2688df"/><stop offset=".93" stop-color="#127fd9"/></linearGradient></defs><title>Artboard 1</title><path fill="#7a7a7a" d="M23 7.1h3V26h-3z"/><path fill="#1490df" d="M28.9 6.5a4.4 4.4 0 0 1-8.8 0 4.4 4.4 0 0 1 8.8 0"/><path fill="url(#pwF9wM2wf__a)" d="M23.9 25h-4.8a6 6 0 0 0-.93 11.92 6.4 6.4 0 0 1 .06-2.23 3.79 3.79 0 0 1 .87-7.49h4.8a3.8 3.8 0 1 1 0 7.6h-1.32a2.9 2.9 0 0 0-.28 1.2 2.8 2.8 0 0 0 .19 1h1.41a6 6 0 0 0 0-12"/><path fill="url(#pwF9wM2wf__b)" d="M30.83 30.08a7 7 0 0 1 .07.92 6.3 6.3 0 0 1-.13 1.31 3.79 3.79 0 0 1-.87 7.49h-4.8a3.8 3.8 0 0 1 0-7.6h1.32a2.8 2.8 0 0 0 .28-1.2 2.8 2.8 0 0 0-.19-1H25.1a6 6 0 0 0 0 12h4.8a6 6 0 0 0 .93-11.92"/><path fill="#50e6ff" d="m15.86 44.52-1.1 1.11a.75.75 0 0 1-1.06 0L1.39 33.35a1.51 1.51 0 0 1 0-2.13l1.11-1.1 13.36 13.34a.74.74 0 0 1 0 1.06"/><path fill="#1490df" d="m14.53 19.12 1.23 1.23a.75.75 0 0 1 0 1.06L2.62 34.59l-1.23-1.22a1.51 1.51 0 0 1 0-2.13l12.08-12.12a.75.75 0 0 1 1.06 0"/><path fill="#50e6ff" d="M34.13 45.39a.74.74 0 0 1 0-1.06L47.5 31l1.11 1.11a1.51 1.51 0 0 1 0 2.13L36.29 46.5a.74.74 0 0 1-1.06 0z"/><path fill="#1490df" d="m36.52 20 12.09 12.12a1.5 1.5 0 0 1 0 2.12l-1.23 1.23-13.15-13.18a.77.77 0 0 1 0-1.07L35.46 20a.75.75 0 0 1 1.06 0"/><style>.msportalfx-svg-c01{fill:#fff}.msportalfx-svg-c02{fill:#e5e5e5}.msportalfx-svg-c03{fill:#a0a1a2}.msportalfx-svg-c04{fill:#7a7a7a}.msportalfx-svg-c05{fill:#3e3e3e}.msportalfx-svg-c06{fill:#1e1e1e}.msportalfx-svg-c07{fill:#0f0f0f}.msportalfx-svg-c08{fill:#ba141a}.msportalfx-svg-c09{fill:#dd5900}.msportalfx-svg-c10{fill:#ff8c00}.msportalfx-svg-c11{fill:#fcd116}.msportalfx-svg-c12{fill:#fee087}.msportalfx-svg-c13{fill:#b8d432}.msportalfx-svg-c14,.msportalfx-svg-c32{fill:#57a300}.msportalfx-svg-c15{fill:#59b4d9}.msportalfx-svg-c16{fill:#3999c6}.msportalfx-svg-c17{fill:#804998}.msportalfx-svg-c18{fill:#ec008c}.msportalfx-svg-c19{fill:#0072c6}.msportalfx-svg-c20{fill:#68217a}.msportalfx-svg-c21{fill:#00188f}.msportalfx-svg-c22{fill:#e81123}.fxs-mode-light .msportalfx-svg-c22{fill:#a4262c}.msportalfx-svg-c23{fill:#cae3f3}.msportalfx-svg-c24{fill:#59aed3}.msportalfx-svg-c25{fill:#4c3b12}.msportalfx-svg-c26{fill:#be9555}.msportalfx-svg-c27{fill:#4f4d52}.msportalfx-svg-c28{fill:#ef6f59}.msportalfx-svg-c29{fill:#f7cb64}.msportalfx-svg-c30{fill:#fdd8db}.msportalfx-svg-c31{fill:#f6ffec}.msportalfx-svg-c33{fill:#8a2da5}.msportalfx-svg-c34{fill:#e00b1c}.msportalfx-svg-c35{fill:#015cda}.msportalfx-svg-c36{fill:#5db300}.msportalfx-svg-c97{fill:#ffb900}.msportalfx-svg-c98{fill:#00a4ef}.msportalfx-svg-c99{fill:#f25022}.msportalfx-inverted-theme .msportalfx-svg-c05,.fxs-theme-dark .msportalfx-svg-c05{fill:#777}.msportalfx-inverted-theme .msportalfx-svg-c07,.fxs-theme-dark .msportalfx-svg-c07{fill:#f2f2f2}.msportalfx-svg-palette-white{fill:#fff}.msportalfx-svg-palette-blue{fill:#015cda}.msportalfx-svg-palette-black{fill:#1e1e1e}.msportalfx-svg-palette-green{fill:#57a300}.msportalfx-svg-palette-gray{fill:#a0a1a2}.msportalfx-svg-palette-inherit{fill:inherit}.msportalfx-svg-badge{position:absolute;left:0;bottom:0;min-height:10px;min-width:10px}.fxc-menu-icon>.msportalfx-svg-badge{left:-2px;bottom:-2px;min-height:8px;min-width:8px}.msportalfx-svg-disabled{filter:grayscale(100%)}.msportalfx-svg-loading-square{animation:ProgressFlagAnimation 1.45s infinite ease-in-out;transform-origin:50%}.msportalfx-svg-loading-square:nth-child(1){animation-delay:0s}.msportalfx-svg-loading-square:nth-child(2){animation-delay:.2s}.msportalfx-svg-loading-square:nth-child(3){animation-delay:.4s}@keyframes ProgressFlagAnimation{0%{transform:scale(1);opacity:.3}36.1%{transform:scale(1.06);opacity:1}50%{transform:scale(1.06);opacity:1}86.1%{transform:scale(1);opacity:.3}}.msportalfx-svg-flip-horizontal>svg,svg.msportalfx-svg-flip-horizontal{transform:scaleX(-1)}.msportalfx-svg-fabric-rotate360{animation:ImageRotation 1.3s cubic-bezier(.53,.21,.29,.67) infinite}@keyframes ImageRotation{0%{transform:rotate(-45deg)}100%{transform:rotate(315deg)}}.fxs-svg-number .msportalfx-font-bold{font-size:10px;fill:#0065ad}.fxs-svg-number .fxs-svg-circle{stroke-width:0%;fill:#0078d4}.fxs-svg-number .fxs-svg-text{fill:#fff;font-size:10px}.fxs-svg-number.msportalfx-svg-disabled{filter:grayscale(0%)}.fxs-svg-number.msportalfx-svg-disabled .fxs-svg-circle{fill:#fff;stroke-width:1px;stroke:#949494}.fxs-svg-number.msportalfx-svg-disabled .fxs-svg-text{fill:#949494}.fxs-theme-dark .fxs-svg-number .fxs-svg-text{fill:#0f0f0f}.fxs-theme-dark .fxs-svg-number .fxs-svg-circle{stroke-width:0%;fill:#0078d4}.fxs-theme-dark .fxs-svg-number.msportalfx-svg-disabled .fxs-svg-circle{fill:#0f0f0f;stroke-width:1px;stroke:#949494}.fxs-theme-dark .fxs-svg-number.msportalfx-svg-disabled .fxs-svg-text{fill:#949494}</style></svg>