<svg viewBox="0 0 18 18"><defs><linearGradient id="pWNY2Kd4C__a" x1="7.699" x2="7.699" y1="956.076" y2="960.567" gradientTransform="translate(0 -950)" gradientUnits="userSpaceOnUse"><stop offset=".23" stop-color="#5ea0ef"/><stop offset=".32" stop-color="#5b9fee"/><stop offset=".48" stop-color="#509aeb"/><stop offset=".57" stop-color="#3f92e6"/><stop offset=".75" stop-color="#2688df"/><stop offset=".93" stop-color="#127fd9"/></linearGradient><linearGradient id="pWNY2Kd4C__b" x1="9.927" x2="9.927" y1="957.947" y2="962.438" gradientTransform="translate(0 -950)" gradientUnits="userSpaceOnUse"><stop offset=".02" stop-color="#5ea0ef"/><stop offset=".14" stop-color="#5b9fee"/><stop offset=".23" stop-color="#5b9fee"/><stop offset=".34" stop-color="#509aeb"/><stop offset=".44" stop-color="#3f92e6"/><stop offset=".63" stop-color="#2688df"/><stop offset=".93" stop-color="#127fd9"/></linearGradient></defs><path fill="url(#pWNY2Kd4C__a)" d="M8.588 6.076h-1.8a2.246 2.246 0 0 0-.348 4.461 2.4 2.4 0 0 1 .026-.837 1.418 1.418 0 0 1 .326-2.8h1.8a1.422 1.422 0 0 1 0 2.844h-.498a1.1 1.1 0 0 0-.1.449 1 1 0 0 0 .071.374h.527a2.246 2.246 0 1 0 0-4.491Z"/><path fill="url(#pWNY2Kd4C__b)" d="M11.182 7.977a3 3 0 0 1 .026.345 2.3 2.3 0 0 1-.049.49 1.418 1.418 0 0 1-.325 2.8h-1.8a1.422 1.422 0 0 1 0-2.844h.494a1.05 1.05 0 0 0 .1-.449 1 1 0 0 0-.071-.375h-.52a2.246 2.246 0 0 0 0 4.491h1.8a2.246 2.246 0 0 0 .348-4.461Z"/><path fill="#50e6ff" d="m5.58 13.381-.412.416a.28.28 0 0 1-.4 0L.164 9.2a.566.566 0 0 1 0-.8l.416-.408 5 4.993a.276.276 0 0 1 0 .391Z"/><path fill="#1490df" d="m5.082 3.876.46.46a.28.28 0 0 1 0 .4L.625 9.665l-.461-.456a.566.566 0 0 1 0-.8l4.521-4.533a.28.28 0 0 1 .397 0"/><path fill="#50e6ff" d="M12.417 13.707a.276.276 0 0 1-.006-.391h.006l5-4.988.416.415a.566.566 0 0 1 0 .8l-4.611 4.588a.276.276 0 0 1-.391.006l-.006-.005Z"/><path fill="#1490df" d="m13.311 4.205 4.525 4.536a.563.563 0 0 1 0 .793l-.461.46-4.921-4.932a.287.287 0 0 1 0-.4l.46-.457a.28.28 0 0 1 .397 0"/><style>.msportalfx-svg-c01{fill:#fff}.msportalfx-svg-c02{fill:#e5e5e5}.msportalfx-svg-c03{fill:#a0a1a2}.msportalfx-svg-c04{fill:#7a7a7a}.msportalfx-svg-c05{fill:#3e3e3e}.msportalfx-svg-c06{fill:#1e1e1e}.msportalfx-svg-c07{fill:#0f0f0f}.msportalfx-svg-c08{fill:#ba141a}.msportalfx-svg-c09{fill:#dd5900}.msportalfx-svg-c10{fill:#ff8c00}.msportalfx-svg-c11{fill:#fcd116}.msportalfx-svg-c12{fill:#fee087}.msportalfx-svg-c13{fill:#b8d432}.msportalfx-svg-c14,.msportalfx-svg-c32{fill:#57a300}.msportalfx-svg-c15{fill:#59b4d9}.msportalfx-svg-c16{fill:#3999c6}.msportalfx-svg-c17{fill:#804998}.msportalfx-svg-c18{fill:#ec008c}.msportalfx-svg-c19{fill:#0072c6}.msportalfx-svg-c20{fill:#68217a}.msportalfx-svg-c21{fill:#00188f}.msportalfx-svg-c22{fill:#e81123}.fxs-mode-light .msportalfx-svg-c22{fill:#a4262c}.msportalfx-svg-c23{fill:#cae3f3}.msportalfx-svg-c24{fill:#59aed3}.msportalfx-svg-c25{fill:#4c3b12}.msportalfx-svg-c26{fill:#be9555}.msportalfx-svg-c27{fill:#4f4d52}.msportalfx-svg-c28{fill:#ef6f59}.msportalfx-svg-c29{fill:#f7cb64}.msportalfx-svg-c30{fill:#fdd8db}.msportalfx-svg-c31{fill:#f6ffec}.msportalfx-svg-c33{fill:#8a2da5}.msportalfx-svg-c34{fill:#e00b1c}.msportalfx-svg-c35{fill:#015cda}.msportalfx-svg-c36{fill:#5db300}.msportalfx-svg-c97{fill:#ffb900}.msportalfx-svg-c98{fill:#00a4ef}.msportalfx-svg-c99{fill:#f25022}.msportalfx-inverted-theme .msportalfx-svg-c05,.fxs-theme-dark .msportalfx-svg-c05{fill:#777}.msportalfx-inverted-theme .msportalfx-svg-c07,.fxs-theme-dark .msportalfx-svg-c07{fill:#f2f2f2}.msportalfx-svg-palette-white{fill:#fff}.msportalfx-svg-palette-blue{fill:#015cda}.msportalfx-svg-palette-black{fill:#1e1e1e}.msportalfx-svg-palette-green{fill:#57a300}.msportalfx-svg-palette-gray{fill:#a0a1a2}.msportalfx-svg-palette-inherit{fill:inherit}.msportalfx-svg-badge{position:absolute;left:0;bottom:0;min-height:10px;min-width:10px}.fxc-menu-icon>.msportalfx-svg-badge{left:-2px;bottom:-2px;min-height:8px;min-width:8px}.msportalfx-svg-disabled{filter:grayscale(100%)}.msportalfx-svg-loading-square{animation:ProgressFlagAnimation 1.45s infinite ease-in-out;transform-origin:50%}.msportalfx-svg-loading-square:nth-child(1){animation-delay:0s}.msportalfx-svg-loading-square:nth-child(2){animation-delay:.2s}.msportalfx-svg-loading-square:nth-child(3){animation-delay:.4s}@keyframes ProgressFlagAnimation{0%{transform:scale(1);opacity:.3}36.1%{transform:scale(1.06);opacity:1}50%{transform:scale(1.06);opacity:1}86.1%{transform:scale(1);opacity:.3}}.msportalfx-svg-flip-horizontal>svg,svg.msportalfx-svg-flip-horizontal{transform:scaleX(-1)}.msportalfx-svg-fabric-rotate360{animation:ImageRotation 1.3s cubic-bezier(.53,.21,.29,.67) infinite}@keyframes ImageRotation{0%{transform:rotate(-45deg)}100%{transform:rotate(315deg)}}.fxs-svg-number .msportalfx-font-bold{font-size:10px;fill:#0065ad}.fxs-svg-number .fxs-svg-circle{stroke-width:0%;fill:#0078d4}.fxs-svg-number .fxs-svg-text{fill:#fff;font-size:10px}.fxs-svg-number.msportalfx-svg-disabled{filter:grayscale(0%)}.fxs-svg-number.msportalfx-svg-disabled .fxs-svg-circle{fill:#fff;stroke-width:1px;stroke:#949494}.fxs-svg-number.msportalfx-svg-disabled .fxs-svg-text{fill:#949494}.fxs-theme-dark .fxs-svg-number .fxs-svg-text{fill:#0f0f0f}.fxs-theme-dark .fxs-svg-number .fxs-svg-circle{stroke-width:0%;fill:#0078d4}.fxs-theme-dark .fxs-svg-number.msportalfx-svg-disabled .fxs-svg-circle{fill:#0f0f0f;stroke-width:1px;stroke:#949494}.fxs-theme-dark .fxs-svg-number.msportalfx-svg-disabled .fxs-svg-text{fill:#949494}</style></svg>