<svg viewBox="0 0 18 18"><defs><linearGradient id="p3SF0se8D__a" x1="9.016" x2="9.016" y1="3.116" y2="7.162" gradientUnits="userSpaceOnUse"><stop offset="0" stop-color="#a3a3a3"/><stop offset="1" stop-color="#999"/></linearGradient></defs><path fill="#9cebff" d="m4.847 10.497 4.136-2.402 4.129 2.402L8.983 12.9z"/><path fill="#32bedd" d="M13.126 10.487v4.789l-4.149 2.41v-4.797z"/><path fill="#50e6ff" d="M8.977 12.897v4.789l-4.141-2.41v-4.789zM4 16.149l-.295.3a.2.2 0 0 1-.285 0l-3.3-3.294a.4.4 0 0 1 0-.571l.3-.295L4 15.865a.2.2 0 0 1 0 .28Z"/><path fill="#1490df" d="m3.642 9.337.33.33a.2.2 0 0 1 0 .284L.448 13.486l-.33-.327a.406.406 0 0 1 0-.572l3.24-3.25a.2.2 0 0 1 .284 0"/><path fill="#50e6ff" d="M14.023 16.13a.2.2 0 0 1 0-.278l3.564-3.554.3.3a.4.4 0 0 1 0 .568l-3.287 3.26a.2.2 0 0 1-.279 0Z"/><path fill="#1490df" d="m14.66 9.362 3.223 3.231a.4.4 0 0 1 0 .565l-.328.328-3.5-3.513a.206.206 0 0 1 0-.286l.327-.325a.2.2 0 0 1 .278 0"/><path fill="url(#p3SF0se8D__a)" d="M8.524 7.317a.92.92 0 0 1 .921 0l.132.077V2.186H8.455v5.171Z"/><path fill="#1490df" d="M10.663 1.961A1.647 1.647 0 1 1 9.016.314a1.65 1.65 0 0 1 1.647 1.647"/><style>.msportalfx-svg-c01{fill:#fff}.msportalfx-svg-c02{fill:#e5e5e5}.msportalfx-svg-c03{fill:#a0a1a2}.msportalfx-svg-c04{fill:#7a7a7a}.msportalfx-svg-c05{fill:#3e3e3e}.msportalfx-svg-c06{fill:#1e1e1e}.msportalfx-svg-c07{fill:#0f0f0f}.msportalfx-svg-c08{fill:#ba141a}.msportalfx-svg-c09{fill:#dd5900}.msportalfx-svg-c10{fill:#ff8c00}.msportalfx-svg-c11{fill:#fcd116}.msportalfx-svg-c12{fill:#fee087}.msportalfx-svg-c13{fill:#b8d432}.msportalfx-svg-c14,.msportalfx-svg-c32{fill:#57a300}.msportalfx-svg-c15{fill:#59b4d9}.msportalfx-svg-c16{fill:#3999c6}.msportalfx-svg-c17{fill:#804998}.msportalfx-svg-c18{fill:#ec008c}.msportalfx-svg-c19{fill:#0072c6}.msportalfx-svg-c20{fill:#68217a}.msportalfx-svg-c21{fill:#00188f}.msportalfx-svg-c22{fill:#e81123}.fxs-mode-light .msportalfx-svg-c22{fill:#a4262c}.msportalfx-svg-c23{fill:#cae3f3}.msportalfx-svg-c24{fill:#59aed3}.msportalfx-svg-c25{fill:#4c3b12}.msportalfx-svg-c26{fill:#be9555}.msportalfx-svg-c27{fill:#4f4d52}.msportalfx-svg-c28{fill:#ef6f59}.msportalfx-svg-c29{fill:#f7cb64}.msportalfx-svg-c30{fill:#fdd8db}.msportalfx-svg-c31{fill:#f6ffec}.msportalfx-svg-c33{fill:#8a2da5}.msportalfx-svg-c34{fill:#e00b1c}.msportalfx-svg-c35{fill:#015cda}.msportalfx-svg-c36{fill:#5db300}.msportalfx-svg-c97{fill:#ffb900}.msportalfx-svg-c98{fill:#00a4ef}.msportalfx-svg-c99{fill:#f25022}.msportalfx-inverted-theme .msportalfx-svg-c05,.fxs-theme-dark .msportalfx-svg-c05{fill:#777}.msportalfx-inverted-theme .msportalfx-svg-c07,.fxs-theme-dark .msportalfx-svg-c07{fill:#f2f2f2}.msportalfx-svg-palette-white{fill:#fff}.msportalfx-svg-palette-blue{fill:#015cda}.msportalfx-svg-palette-black{fill:#1e1e1e}.msportalfx-svg-palette-green{fill:#57a300}.msportalfx-svg-palette-gray{fill:#a0a1a2}.msportalfx-svg-palette-inherit{fill:inherit}.msportalfx-svg-badge{position:absolute;left:0;bottom:0;min-height:10px;min-width:10px}.fxc-menu-icon>.msportalfx-svg-badge{left:-2px;bottom:-2px;min-height:8px;min-width:8px}.msportalfx-svg-disabled{filter:grayscale(100%)}.msportalfx-svg-loading-square{animation:ProgressFlagAnimation 1.45s infinite ease-in-out;transform-origin:50%}.msportalfx-svg-loading-square:nth-child(1){animation-delay:0s}.msportalfx-svg-loading-square:nth-child(2){animation-delay:.2s}.msportalfx-svg-loading-square:nth-child(3){animation-delay:.4s}@keyframes ProgressFlagAnimation{0%{transform:scale(1);opacity:.3}36.1%{transform:scale(1.06);opacity:1}50%{transform:scale(1.06);opacity:1}86.1%{transform:scale(1);opacity:.3}}.msportalfx-svg-flip-horizontal>svg,svg.msportalfx-svg-flip-horizontal{transform:scaleX(-1)}.msportalfx-svg-fabric-rotate360{animation:ImageRotation 1.3s cubic-bezier(.53,.21,.29,.67) infinite}@keyframes ImageRotation{0%{transform:rotate(-45deg)}100%{transform:rotate(315deg)}}.fxs-svg-number .msportalfx-font-bold{font-size:10px;fill:#0065ad}.fxs-svg-number .fxs-svg-circle{stroke-width:0%;fill:#0078d4}.fxs-svg-number .fxs-svg-text{fill:#fff;font-size:10px}.fxs-svg-number.msportalfx-svg-disabled{filter:grayscale(0%)}.fxs-svg-number.msportalfx-svg-disabled .fxs-svg-circle{fill:#fff;stroke-width:1px;stroke:#949494}.fxs-svg-number.msportalfx-svg-disabled .fxs-svg-text{fill:#949494}.fxs-theme-dark .fxs-svg-number .fxs-svg-text{fill:#0f0f0f}.fxs-theme-dark .fxs-svg-number .fxs-svg-circle{stroke-width:0%;fill:#0078d4}.fxs-theme-dark .fxs-svg-number.msportalfx-svg-disabled .fxs-svg-circle{fill:#0f0f0f;stroke-width:1px;stroke:#949494}.fxs-theme-dark .fxs-svg-number.msportalfx-svg-disabled .fxs-svg-text{fill:#949494}</style></svg>