<svg viewBox="0 0 18 18" class="msportalfx-svg-placeholder" xmlns="http://www.w3.org/2000/svg"><title>Virtual network terminal access point</title><desc></desc><defs><linearGradient id="pdmnhdCYI__a" x1="8.101" x2="8.101" y1="14.411" y2=".756" gradientUnits="userSpaceOnUse"><stop offset="0" stop-color="#0078d4" /><stop offset="1" stop-color="#46a0de" /></linearGradient><linearGradient id="pdmnhdCYI__b" x1="-555.834" x2="-555.834" y1="1018.418" y2="1017.386" gradientTransform="matrix(1 0 0 -1 564 1025.516)" gradientUnits="userSpaceOnUse"><stop offset="0" stop-color="#fff" /><stop offset="1" stop-color="#fff" stop-opacity=".6" /></linearGradient><radialGradient id="pdmnhdCYI__c" cx="103.221" cy="634.208" r="3.837" gradientTransform="matrix(1.024 0 0 -1 -91.718 645.516)" gradientUnits="userSpaceOnUse"><stop offset=".225" stop-color="#32d4f5" /><stop offset=".59" stop-color="#32d2f2" /><stop offset=".825" stop-color="#32caea" /><stop offset="1" stop-color="#32bedd" /></radialGradient></defs><path fill="url(#pdmnhdCYI__a)" d="M16.077 14.411H.723a.6.6 0 0 1-.598-.598V1.354c0-.33.268-.598.598-.598H15.48c.33 0 .598.268.598.598v7.462" /><path fill="url(#pdmnhdCYI__b)" d="M9.806 7.094c.405 0 .7.467.377.892-.424.323-.892.028-.892-.377 0-.284.23-.515.515-.515m-1.887.005c-.655.576.027 1.346.625.891.323-.424.028-.892-.377-.892zm-1.641-.001c-.655.576.027 1.347.624.892.323-.424.028-.892-.377-.892z" /><path fill="#fff" d="m6.917 9.669-.294.295a.133.133 0 0 1-.188 0L4.256 7.791a.265.265 0 0 1-.001-.375l.001-.001.294-.295 2.367 2.361a.133.133 0 0 1 0 .188m4.866-2.553L9.416 9.477a.13.13 0 0 0-.001.187l.001.001.295.295a.13.13 0 0 0 .187.001l.001-.001 2.177-2.173a.266.266 0 0 0 0-.376l-.294-.295z" /><path fill="#fff" d="m6.581 5.267.295.294a.133.133 0 0 1 0 .188L4.551 8.082l-.295-.295a.265.265 0 0 1-.001-.375l.001-.001 2.135-2.144a.133.133 0 0 1 .188-.002zm5.495 2.514a.265.265 0 0 0 .001-.375l-.001-.001-2.135-2.144a.133.133 0 0 0-.188 0l-.298.298a.133.133 0 0 0 0 .188l2.325 2.332.295-.295z" opacity=".8" /><path fill="#198ab3" d="m8.28 16.169 3.187-3.113a.62.62 0 0 1 .862 0l.06.059a.586.586 0 0 1 0 .842L9.202 17.07a.62.62 0 0 1-.862 0l-.06-.059a.586.586 0 0 1 0-.842" /><ellipse cx="13.947" cy="11.308" fill="url(#pdmnhdCYI__c)" rx="3.928" ry="3.837" /><ellipse cx="13.939" cy="11.239" fill="#fff" rx="3.086" ry="3.014" /><path fill="#c3f1ff" d="M10.949 11.985s.844-4.129 4.791-3.192a3.08 3.08 0 0 0-3.64.027 2.91 2.91 0 0 0-1.151 3.165" /><style>.msportalfx-svg-c01{fill:#fff}.msportalfx-svg-c02{fill:#e5e5e5}.msportalfx-svg-c03{fill:#a0a1a2}.msportalfx-svg-c04{fill:#7a7a7a}.msportalfx-svg-c05{fill:#3e3e3e}.msportalfx-svg-c06{fill:#1e1e1e}.msportalfx-svg-c07{fill:#0f0f0f}.msportalfx-svg-c08{fill:#ba141a}.msportalfx-svg-c09{fill:#dd5900}.msportalfx-svg-c10{fill:#ff8c00}.msportalfx-svg-c11{fill:#fcd116}.msportalfx-svg-c12{fill:#fee087}.msportalfx-svg-c13{fill:#b8d432}.msportalfx-svg-c14,.msportalfx-svg-c32{fill:#57a300}.msportalfx-svg-c15{fill:#59b4d9}.msportalfx-svg-c16{fill:#3999c6}.msportalfx-svg-c17{fill:#804998}.msportalfx-svg-c18{fill:#ec008c}.msportalfx-svg-c19{fill:#0072c6}.msportalfx-svg-c20{fill:#68217a}.msportalfx-svg-c21{fill:#00188f}.msportalfx-svg-c22{fill:#e81123}.fxs-mode-light .msportalfx-svg-c22{fill:#a4262c}.msportalfx-svg-c23{fill:#cae3f3}.msportalfx-svg-c24{fill:#59aed3}.msportalfx-svg-c25{fill:#4c3b12}.msportalfx-svg-c26{fill:#be9555}.msportalfx-svg-c27{fill:#4f4d52}.msportalfx-svg-c28{fill:#ef6f59}.msportalfx-svg-c29{fill:#f7cb64}.msportalfx-svg-c30{fill:#fdd8db}.msportalfx-svg-c31{fill:#f6ffec}.msportalfx-svg-c33{fill:#8a2da5}.msportalfx-svg-c34{fill:#e00b1c}.msportalfx-svg-c35{fill:#015cda}.msportalfx-svg-c36{fill:#5db300}.msportalfx-svg-c97{fill:#ffb900}.msportalfx-svg-c98{fill:#00a4ef}.msportalfx-svg-c99{fill:#f25022}.msportalfx-inverted-theme .msportalfx-svg-c05,.fxs-theme-dark .msportalfx-svg-c05{fill:#777}.msportalfx-inverted-theme .msportalfx-svg-c07,.fxs-theme-dark .msportalfx-svg-c07{fill:#f2f2f2}.msportalfx-svg-palette-white{fill:#fff}.msportalfx-svg-palette-blue{fill:#015cda}.msportalfx-svg-palette-black{fill:#1e1e1e}.msportalfx-svg-palette-green{fill:#57a300}.msportalfx-svg-palette-gray{fill:#a0a1a2}.msportalfx-svg-palette-inherit{fill:inherit}.msportalfx-svg-badge{position:absolute;left:0;bottom:0;min-height:10px;min-width:10px}.fxc-menu-icon&gt;.msportalfx-svg-badge{left:-2px;bottom:-2px;min-height:8px;min-width:8px}.msportalfx-svg-disabled{filter:grayscale(100%)}.msportalfx-svg-loading-square{animation:ProgressFlagAnimation 1.45s infinite ease-in-out;transform-origin:50%}.msportalfx-svg-loading-square:nth-child(1){animation-delay:0s}.msportalfx-svg-loading-square:nth-child(2){animation-delay:.2s}.msportalfx-svg-loading-square:nth-child(3){animation-delay:.4s}@keyframes ProgressFlagAnimation{0%{transform:scale(1);opacity:.3}36.1%{transform:scale(1.06);opacity:1}50%{transform:scale(1.06);opacity:1}86.1%{transform:scale(1);opacity:.3}}.msportalfx-svg-flip-horizontal&gt;svg,svg.msportalfx-svg-flip-horizontal{transform:scaleX(-1)}.msportalfx-svg-fabric-rotate360{animation:ImageRotation 1.3s cubic-bezier(.53,.21,.29,.67) infinite}@keyframes ImageRotation{0%{transform:rotate(-45deg)}100%{transform:rotate(315deg)}}.fxs-svg-number .msportalfx-font-bold{font-size:10px;fill:#0065ad}.fxs-svg-number .fxs-svg-circle{stroke-width:0%;fill:#0078d4}.fxs-svg-number .fxs-svg-text{fill:#fff;font-size:10px}.fxs-svg-number.msportalfx-svg-disabled{filter:grayscale(0%)}.fxs-svg-number.msportalfx-svg-disabled .fxs-svg-circle{fill:#fff;stroke-width:1px;stroke:#949494}.fxs-svg-number.msportalfx-svg-disabled .fxs-svg-text{fill:#949494}.fxs-theme-dark .fxs-svg-number .fxs-svg-text{fill:#0f0f0f}.fxs-theme-dark .fxs-svg-number .fxs-svg-circle{stroke-width:0%;fill:#0078d4}.fxs-theme-dark .fxs-svg-number.msportalfx-svg-disabled .fxs-svg-circle{fill:#0f0f0f;stroke-width:1px;stroke:#949494}.fxs-theme-dark .fxs-svg-number.msportalfx-svg-disabled .fxs-svg-text{fill:#949494}</style></svg>