<svg viewBox="0 0 18 18" class="msportalfx-svg-placeholder" xmlns='http://www.w3.org/2000/svg'><defs><linearGradient id="pGtMnlnXQ__a" x1="8.991" x2="8.991" y1="14.11" y2="1.365" gradientUnits="userSpaceOnUse"><stop offset="0" stop-color="#773adc"/><stop offset=".817" stop-color="#a67af4"/></linearGradient><linearGradient id="pGtMnlnXQ__b" x1="12.253" x2="12.253" y1="4.246" y2="9.797" gradientUnits="userSpaceOnUse"><stop offset="0" stop-color="#c3f1ff"/><stop offset=".999" stop-color="#9cebff"/></linearGradient><linearGradient id="pGtMnlnXQ__c" x1="12.253" x2="12.253" y1="16.635" y2="12.512" gradientUnits="userSpaceOnUse"><stop offset="0" stop-color="#c3f1ff"/><stop offset=".999" stop-color="#9cebff"/></linearGradient></defs><path fill="url(#pGtMnlnXQ__a)" d="M17.982 10.118c0-.818-1.193-1.087-1.652-1.717-.632-.867-.7-1.977-1.855-2.166a5.09 5.09 0 0 0-5.244-4.87 5.225 5.225 0 0 0-4.993 3.4A4.82 4.82 0 0 0 0 9.408a4.893 4.893 0 0 0 5.063 4.7q.227 0 .446-.019h8.2a.8.8 0 0 0 .216-.032 4.09 4.09 0 0 0 4.057-3.939"/><rect width="9.178" height="3.679" x="7.664" y="6.553" fill="#005ba1" rx=".3"/><rect width="7.367" height="5.55" x="8.57" y="4.246" fill="url(#pGtMnlnXQ__b)" rx=".3"/><path fill="#5ea0ef" d="M7.106 8.18H17.4a.6.6 0 0 1 .6.6v6.1H6.507v-6.1a.6.6 0 0 1 .599-.6"/><path fill="#0078d4" d="M6.507 14.093H18v1.02H6.507z"/><rect width="8.509" height="1.192" x="7.997" y="12.305" fill="#83b9f9" rx=".3"/><circle cx="16.045" cy="10.082" r=".285" fill="#c3f1ff"/><path fill="url(#pGtMnlnXQ__c)" d="M8.57 12.512h7.367v3.823a.3.3 0 0 1-.3.3H8.869a.3.3 0 0 1-.3-.3v-3.823z"/><style>.msportalfx-svg-c01{fill:#fff}.msportalfx-svg-c02{fill:#e5e5e5}.msportalfx-svg-c03{fill:#a0a1a2}.msportalfx-svg-c04{fill:#7a7a7a}.msportalfx-svg-c05{fill:#3e3e3e}.msportalfx-svg-c06{fill:#1e1e1e}.msportalfx-svg-c07{fill:#0f0f0f}.msportalfx-svg-c08{fill:#ba141a}.msportalfx-svg-c09{fill:#dd5900}.msportalfx-svg-c10{fill:#ff8c00}.msportalfx-svg-c11{fill:#fcd116}.msportalfx-svg-c12{fill:#fee087}.msportalfx-svg-c13{fill:#b8d432}.msportalfx-svg-c14,.msportalfx-svg-c32{fill:#57a300}.msportalfx-svg-c15{fill:#59b4d9}.msportalfx-svg-c16{fill:#3999c6}.msportalfx-svg-c17{fill:#804998}.msportalfx-svg-c18{fill:#ec008c}.msportalfx-svg-c19{fill:#0072c6}.msportalfx-svg-c20{fill:#68217a}.msportalfx-svg-c21{fill:#00188f}.msportalfx-svg-c22{fill:#e81123}.fxs-mode-light .msportalfx-svg-c22{fill:#a4262c}.msportalfx-svg-c23{fill:#cae3f3}.msportalfx-svg-c24{fill:#59aed3}.msportalfx-svg-c25{fill:#4c3b12}.msportalfx-svg-c26{fill:#be9555}.msportalfx-svg-c27{fill:#4f4d52}.msportalfx-svg-c28{fill:#ef6f59}.msportalfx-svg-c29{fill:#f7cb64}.msportalfx-svg-c30{fill:#fdd8db}.msportalfx-svg-c31{fill:#f6ffec}.msportalfx-svg-c33{fill:#8a2da5}.msportalfx-svg-c34{fill:#e00b1c}.msportalfx-svg-c35{fill:#015cda}.msportalfx-svg-c36{fill:#5db300}.msportalfx-svg-c97{fill:#ffb900}.msportalfx-svg-c98{fill:#00a4ef}.msportalfx-svg-c99{fill:#f25022}.msportalfx-inverted-theme .msportalfx-svg-c05,.fxs-theme-dark .msportalfx-svg-c05{fill:#777}.msportalfx-inverted-theme .msportalfx-svg-c07,.fxs-theme-dark .msportalfx-svg-c07{fill:#f2f2f2}.msportalfx-svg-palette-white{fill:#fff}.msportalfx-svg-palette-blue{fill:#015cda}.msportalfx-svg-palette-black{fill:#1e1e1e}.msportalfx-svg-palette-green{fill:#57a300}.msportalfx-svg-palette-gray{fill:#a0a1a2}.msportalfx-svg-palette-inherit{fill:inherit}.msportalfx-svg-badge{position:absolute;left:0;bottom:0;min-height:10px;min-width:10px}.fxc-menu-icon>.msportalfx-svg-badge{left:-2px;bottom:-2px;min-height:8px;min-width:8px}.msportalfx-svg-disabled{filter:grayscale(100%)}.msportalfx-svg-loading-square{animation:ProgressFlagAnimation 1.45s infinite ease-in-out;transform-origin:50%}.msportalfx-svg-loading-square:nth-child(1){animation-delay:0s}.msportalfx-svg-loading-square:nth-child(2){animation-delay:.2s}.msportalfx-svg-loading-square:nth-child(3){animation-delay:.4s}@keyframes ProgressFlagAnimation{0%{transform:scale(1);opacity:.3}36.1%{transform:scale(1.06);opacity:1}50%{transform:scale(1.06);opacity:1}86.1%{transform:scale(1);opacity:.3}}.msportalfx-svg-flip-horizontal>svg,svg.msportalfx-svg-flip-horizontal{transform:scaleX(-1)}.msportalfx-svg-fabric-rotate360{animation:ImageRotation 1.3s cubic-bezier(.53,.21,.29,.67) infinite}@keyframes ImageRotation{0%{transform:rotate(-45deg)}100%{transform:rotate(315deg)}}.fxs-svg-number .msportalfx-font-bold{font-size:10px;fill:#0065ad}.fxs-svg-number .fxs-svg-circle{stroke-width:0%;fill:#0078d4}.fxs-svg-number .fxs-svg-text{fill:#fff;font-size:10px}.fxs-svg-number.msportalfx-svg-disabled{filter:grayscale(0%)}.fxs-svg-number.msportalfx-svg-disabled .fxs-svg-circle{fill:#fff;stroke-width:1px;stroke:#949494}.fxs-svg-number.msportalfx-svg-disabled .fxs-svg-text{fill:#949494}.fxs-theme-dark .fxs-svg-number .fxs-svg-text{fill:#0f0f0f}.fxs-theme-dark .fxs-svg-number .fxs-svg-circle{stroke-width:0%;fill:#0078d4}.fxs-theme-dark .fxs-svg-number.msportalfx-svg-disabled .fxs-svg-circle{fill:#0f0f0f;stroke-width:1px;stroke:#949494}.fxs-theme-dark .fxs-svg-number.msportalfx-svg-disabled .fxs-svg-text{fill:#949494}</style></svg>