<svg viewBox="0 0 18 18" class="msportalfx-svg-placeholder" xmlns="http://www.w3.org/2000/svg"><title>Database watcher</title><desc>Database watcher is a managed monitoring solution for database services in the Azure SQL family. Create a watcher to monitor your Azure SQL estate in depth and with low latency.</desc><defs><linearGradient id="p6Ta_w0hP__a" x1="-.012" x2="12.969" y1="334.188" y2="334.188" gradientTransform="matrix(1 0 0 -1 0 344)" gradientUnits="userSpaceOnUse"><stop offset="0" stop-color="#005ba1" /><stop offset=".07" stop-color="#0060a9" /><stop offset=".36" stop-color="#0071c8" /><stop offset=".52" stop-color="#0078d4" /><stop offset=".64" stop-color="#0074cd" /><stop offset=".82" stop-color="#006abb" /><stop offset="1" stop-color="#005ba1" /></linearGradient><linearGradient id="p6Ta_w0hP__b" x1="13.025" x2="17.872" y1="331.136" y2="326.444" gradientTransform="scale(1 -1)rotate(-45 -400.076 157.026)" gradientUnits="userSpaceOnUse"><stop offset="0" stop-color="#198ab3" /><stop offset=".605" stop-color="#50e6ff" /></linearGradient></defs><path fill="url(#p6Ta_w0hP__a)" d="M6.479 4.729c-3.585 0-6.491-1.013-6.491-2.349V14.9c0 1.286 2.855 2.329 6.4 2.349h.092c3.584 0 6.49-1.013 6.49-2.349V2.38c-.001 1.306-2.907 2.349-6.491 2.349" /><path fill="#e8e8e8" d="M12.969 2.38c0 1.306-2.906 2.349-6.49 2.349S-.012 3.716-.012 2.38 2.894.03 6.479.03s6.49 1.013 6.49 2.35" /><path fill="#50e6ff" d="M11.461 2.187c0 .831-2.238 1.5-4.982 1.5S1.5 3.018 1.5 2.187 3.734.7 6.479.7s4.982.668 4.982 1.488" /><path fill="#198ab3" d="M6.479 2.562a11.7 11.7 0 0 0-3.94.577 11.6 11.6 0 0 0 3.94.547 11.3 11.3 0 0 0 3.939-.586 12 12 0 0 0-3.939-.538" /><path fill="#fff" d="M14.152 10.4a3.512 3.512 0 1 1-3.516-3.509h.007a3.51 3.51 0 0 1 3.509 3.509" /><rect width="1.503" height="5.86" x="14.478" y="12.068" fill="url(#p6Ta_w0hP__b)" rx=".703" transform="rotate(-45 15.23 14.997)" /><path fill="#50e6ff" d="M14.8 9.485a4.262 4.262 0 0 0-8.346 1.726 4 4 0 0 0 .206.72A4.261 4.261 0 0 0 14.9 10.4a4.2 4.2 0 0 0-.1-.915m-4.159 4.429a3.51 3.51 0 0 1-3.509-3.38V10.4a3.51 3.51 0 0 1 3.5-3.51h.007A3.51 3.51 0 0 1 14 9.364a3.4 3.4 0 0 1 .147.778q.009.13.009.26a3.51 3.51 0 0 1-3.515 3.512" /><path fill="#32bedd" d="M14.242 9.647a.265.265 0 0 0-.25-.278h-1.5a.12.12 0 0 0-.107.065l-.549.984-.9-1.819L10.1 11.2l-.71-1.853-.941 1.741a.13.13 0 0 1-.107.071H7.1v.527h1.527a.13.13 0 0 0 .114-.071l.559-1.048.863 2.141.878-2.755.77 1.563.863-1.548a.11.11 0 0 1 .107-.064h1.2a.264.264 0 0 0 .261-.257" /><style>.msportalfx-svg-c01{fill:#fff}.msportalfx-svg-c02{fill:#e5e5e5}.msportalfx-svg-c03{fill:#a0a1a2}.msportalfx-svg-c04{fill:#7a7a7a}.msportalfx-svg-c05{fill:#3e3e3e}.msportalfx-svg-c06{fill:#1e1e1e}.msportalfx-svg-c07{fill:#0f0f0f}.msportalfx-svg-c08{fill:#ba141a}.msportalfx-svg-c09{fill:#dd5900}.msportalfx-svg-c10{fill:#ff8c00}.msportalfx-svg-c11{fill:#fcd116}.msportalfx-svg-c12{fill:#fee087}.msportalfx-svg-c13{fill:#b8d432}.msportalfx-svg-c14,.msportalfx-svg-c32{fill:#57a300}.msportalfx-svg-c15{fill:#59b4d9}.msportalfx-svg-c16{fill:#3999c6}.msportalfx-svg-c17{fill:#804998}.msportalfx-svg-c18{fill:#ec008c}.msportalfx-svg-c19{fill:#0072c6}.msportalfx-svg-c20{fill:#68217a}.msportalfx-svg-c21{fill:#00188f}.msportalfx-svg-c22{fill:#e81123}.fxs-mode-light .msportalfx-svg-c22{fill:#a4262c}.msportalfx-svg-c23{fill:#cae3f3}.msportalfx-svg-c24{fill:#59aed3}.msportalfx-svg-c25{fill:#4c3b12}.msportalfx-svg-c26{fill:#be9555}.msportalfx-svg-c27{fill:#4f4d52}.msportalfx-svg-c28{fill:#ef6f59}.msportalfx-svg-c29{fill:#f7cb64}.msportalfx-svg-c30{fill:#fdd8db}.msportalfx-svg-c31{fill:#f6ffec}.msportalfx-svg-c33{fill:#8a2da5}.msportalfx-svg-c34{fill:#e00b1c}.msportalfx-svg-c35{fill:#015cda}.msportalfx-svg-c36{fill:#5db300}.msportalfx-svg-c97{fill:#ffb900}.msportalfx-svg-c98{fill:#00a4ef}.msportalfx-svg-c99{fill:#f25022}.msportalfx-inverted-theme .msportalfx-svg-c05,.fxs-theme-dark .msportalfx-svg-c05{fill:#777}.msportalfx-inverted-theme .msportalfx-svg-c07,.fxs-theme-dark .msportalfx-svg-c07{fill:#f2f2f2}.msportalfx-svg-palette-white{fill:#fff}.msportalfx-svg-palette-blue{fill:#015cda}.msportalfx-svg-palette-black{fill:#1e1e1e}.msportalfx-svg-palette-green{fill:#57a300}.msportalfx-svg-palette-gray{fill:#a0a1a2}.msportalfx-svg-palette-inherit{fill:inherit}.msportalfx-svg-badge{position:absolute;left:0;bottom:0;min-height:10px;min-width:10px}.fxc-menu-icon&gt;.msportalfx-svg-badge{left:-2px;bottom:-2px;min-height:8px;min-width:8px}.msportalfx-svg-disabled{filter:grayscale(100%)}.msportalfx-svg-loading-square{animation:ProgressFlagAnimation 1.45s infinite ease-in-out;transform-origin:50%}.msportalfx-svg-loading-square:nth-child(1){animation-delay:0s}.msportalfx-svg-loading-square:nth-child(2){animation-delay:.2s}.msportalfx-svg-loading-square:nth-child(3){animation-delay:.4s}@keyframes ProgressFlagAnimation{0%{transform:scale(1);opacity:.3}36.1%{transform:scale(1.06);opacity:1}50%{transform:scale(1.06);opacity:1}86.1%{transform:scale(1);opacity:.3}}.msportalfx-svg-flip-horizontal&gt;svg,svg.msportalfx-svg-flip-horizontal{transform:scaleX(-1)}.msportalfx-svg-fabric-rotate360{animation:ImageRotation 1.3s cubic-bezier(.53,.21,.29,.67) infinite}@keyframes ImageRotation{0%{transform:rotate(-45deg)}100%{transform:rotate(315deg)}}.fxs-svg-number .msportalfx-font-bold{font-size:10px;fill:#0065ad}.fxs-svg-number .fxs-svg-circle{stroke-width:0%;fill:#0078d4}.fxs-svg-number .fxs-svg-text{fill:#fff;font-size:10px}.fxs-svg-number.msportalfx-svg-disabled{filter:grayscale(0%)}.fxs-svg-number.msportalfx-svg-disabled .fxs-svg-circle{fill:#fff;stroke-width:1px;stroke:#949494}.fxs-svg-number.msportalfx-svg-disabled .fxs-svg-text{fill:#949494}.fxs-theme-dark .fxs-svg-number .fxs-svg-text{fill:#0f0f0f}.fxs-theme-dark .fxs-svg-number .fxs-svg-circle{stroke-width:0%;fill:#0078d4}.fxs-theme-dark .fxs-svg-number.msportalfx-svg-disabled .fxs-svg-circle{fill:#0f0f0f;stroke-width:1px;stroke:#949494}.fxs-theme-dark .fxs-svg-number.msportalfx-svg-disabled .fxs-svg-text{fill:#949494}</style></svg>