<svg viewBox="0 0 18 18" class="msportalfx-svg-placeholder" xmlns="http://www.w3.org/2000/svg"><title></title><desc></desc><defs><linearGradient id="pRJuk87K6__a" x1="8.864" x2="8.864" y1="13.227" y2=".972" gradientUnits="userSpaceOnUse"><stop offset="0" stop-color="#0078d4" /><stop offset=".156" stop-color="#1380da" /><stop offset=".528" stop-color="#3c91e5" /><stop offset=".822" stop-color="#559cec" /><stop offset="1" stop-color="#5ea0ef" /></linearGradient><linearGradient id="pRJuk87K6__b" x1="12.612" x2="12.612" y1="13.206" y2="13.203" gradientUnits="userSpaceOnUse"><stop offset="0" stop-color="#0078d4" /><stop offset=".156" stop-color="#1380da" /><stop offset=".528" stop-color="#3c91e5" /><stop offset=".822" stop-color="#559cec" /><stop offset="1" stop-color="#5ea0ef" /></linearGradient></defs><path fill="url(#pRJuk87K6__a)" d="m5.251 13.217 2.139-2.139a.561.561 0 0 1 .958.4v1.3H11.3a.5.5 0 0 1 .1.02.5.5 0 0 1 .1-.02h2.948v-1.3a.56.56 0 0 1 .562-.562.56.56 0 0 1 .4.165l.949.949a3.92 3.92 0 0 0 1.157-2.639 3.88 3.88 0 0 0-3.38-3.731A4.9 4.9 0 0 0 9.1.974a5.02 5.02 0 0 0-4.8 3.273A4.63 4.63 0 0 0 .221 8.71a4.705 4.705 0 0 0 4.869 4.514q.083-.002.161-.007" /><path fill="url(#pRJuk87K6__b)" d="M13.416 13.2h-1.609H13.4Z" /><rect width="2.513" height="2.513" x="4.017" y="9.164" fill="#9cebff" rx=".211" /><rect width="2.513" height="2.513" x="11.164" y="9.164" fill="#9cebff" rx=".211" /><rect width="2.513" height="2.513" x="7.591" y="5.564" fill="#fff" opacity=".8" rx=".211" /><rect width="2.513" height="2.513" x="4.017" y="5.564" fill="#fff" opacity=".8" rx=".211" /><path fill="#50e6ff" d="m15.1 11.377 2.587 2.587a.31.31 0 0 1 0 .436L15.1 16.987a.138.138 0 0 1-.236-.1V15.3a.137.137 0 0 0-.137-.138H11.5a.11.11 0 0 1-.11-.11v-1.739a.11.11 0 0 1 .11-.11h3.234a.137.137 0 0 0 .137-.138v-1.59a.138.138 0 0 1 .229-.098" /><path fill="#005ba1" d="M7.69 16.987 5.1 14.4a.307.307 0 0 1 0-.436l2.59-2.587a.138.138 0 0 1 .235.1v1.59a.14.14 0 0 0 .138.138H11.3a.11.11 0 0 1 .11.11v1.738a.11.11 0 0 1-.11.11H8.063a.14.14 0 0 0-.138.138v1.589a.137.137 0 0 1-.235.097" /><path fill="#9cebff" d="M7.786 10.913a.56.56 0 0 1 .562.562v.2h1.544a.21.21 0 0 0 .212-.211V9.375a.21.21 0 0 0-.212-.211H7.8a.21.21 0 0 0-.211.211v1.577a.6.6 0 0 1 .197-.039" /><style>.msportalfx-svg-c01{fill:#fff}.msportalfx-svg-c02{fill:#e5e5e5}.msportalfx-svg-c03{fill:#a0a1a2}.msportalfx-svg-c04{fill:#7a7a7a}.msportalfx-svg-c05{fill:#3e3e3e}.msportalfx-svg-c06{fill:#1e1e1e}.msportalfx-svg-c07{fill:#0f0f0f}.msportalfx-svg-c08{fill:#ba141a}.msportalfx-svg-c09{fill:#dd5900}.msportalfx-svg-c10{fill:#ff8c00}.msportalfx-svg-c11{fill:#fcd116}.msportalfx-svg-c12{fill:#fee087}.msportalfx-svg-c13{fill:#b8d432}.msportalfx-svg-c14,.msportalfx-svg-c32{fill:#57a300}.msportalfx-svg-c15{fill:#59b4d9}.msportalfx-svg-c16{fill:#3999c6}.msportalfx-svg-c17{fill:#804998}.msportalfx-svg-c18{fill:#ec008c}.msportalfx-svg-c19{fill:#0072c6}.msportalfx-svg-c20{fill:#68217a}.msportalfx-svg-c21{fill:#00188f}.msportalfx-svg-c22{fill:#e81123}.fxs-mode-light .msportalfx-svg-c22{fill:#a4262c}.msportalfx-svg-c23{fill:#cae3f3}.msportalfx-svg-c24{fill:#59aed3}.msportalfx-svg-c25{fill:#4c3b12}.msportalfx-svg-c26{fill:#be9555}.msportalfx-svg-c27{fill:#4f4d52}.msportalfx-svg-c28{fill:#ef6f59}.msportalfx-svg-c29{fill:#f7cb64}.msportalfx-svg-c30{fill:#fdd8db}.msportalfx-svg-c31{fill:#f6ffec}.msportalfx-svg-c33{fill:#8a2da5}.msportalfx-svg-c34{fill:#e00b1c}.msportalfx-svg-c35{fill:#015cda}.msportalfx-svg-c36{fill:#5db300}.msportalfx-svg-c97{fill:#ffb900}.msportalfx-svg-c98{fill:#00a4ef}.msportalfx-svg-c99{fill:#f25022}.msportalfx-inverted-theme .msportalfx-svg-c05,.fxs-theme-dark .msportalfx-svg-c05{fill:#777}.msportalfx-inverted-theme .msportalfx-svg-c07,.fxs-theme-dark .msportalfx-svg-c07{fill:#f2f2f2}.msportalfx-svg-palette-white{fill:#fff}.msportalfx-svg-palette-blue{fill:#015cda}.msportalfx-svg-palette-black{fill:#1e1e1e}.msportalfx-svg-palette-green{fill:#57a300}.msportalfx-svg-palette-gray{fill:#a0a1a2}.msportalfx-svg-palette-inherit{fill:inherit}.msportalfx-svg-badge{position:absolute;left:0;bottom:0;min-height:10px;min-width:10px}.fxc-menu-icon&gt;.msportalfx-svg-badge{left:-2px;bottom:-2px;min-height:8px;min-width:8px}.msportalfx-svg-disabled{filter:grayscale(100%)}.msportalfx-svg-loading-square{animation:ProgressFlagAnimation 1.45s infinite ease-in-out;transform-origin:50%}.msportalfx-svg-loading-square:nth-child(1){animation-delay:0s}.msportalfx-svg-loading-square:nth-child(2){animation-delay:.2s}.msportalfx-svg-loading-square:nth-child(3){animation-delay:.4s}@keyframes ProgressFlagAnimation{0%{transform:scale(1);opacity:.3}36.1%{transform:scale(1.06);opacity:1}50%{transform:scale(1.06);opacity:1}86.1%{transform:scale(1);opacity:.3}}.msportalfx-svg-flip-horizontal&gt;svg,svg.msportalfx-svg-flip-horizontal{transform:scaleX(-1)}.msportalfx-svg-fabric-rotate360{animation:ImageRotation 1.3s cubic-bezier(.53,.21,.29,.67) infinite}@keyframes ImageRotation{0%{transform:rotate(-45deg)}100%{transform:rotate(315deg)}}.fxs-svg-number .msportalfx-font-bold{font-size:10px;fill:#0065ad}.fxs-svg-number .fxs-svg-circle{stroke-width:0%;fill:#0078d4}.fxs-svg-number .fxs-svg-text{fill:#fff;font-size:10px}.fxs-svg-number.msportalfx-svg-disabled{filter:grayscale(0%)}.fxs-svg-number.msportalfx-svg-disabled .fxs-svg-circle{fill:#fff;stroke-width:1px;stroke:#949494}.fxs-svg-number.msportalfx-svg-disabled .fxs-svg-text{fill:#949494}.fxs-theme-dark .fxs-svg-number .fxs-svg-text{fill:#0f0f0f}.fxs-theme-dark .fxs-svg-number .fxs-svg-circle{stroke-width:0%;fill:#0078d4}.fxs-theme-dark .fxs-svg-number.msportalfx-svg-disabled .fxs-svg-circle{fill:#0f0f0f;stroke-width:1px;stroke:#949494}.fxs-theme-dark .fxs-svg-number.msportalfx-svg-disabled .fxs-svg-text{fill:#949494}</style></svg>