<svg viewBox="0 0 16 16" class="msportalfx-svg-placeholder" role="presentation" focusable="false" xmlns:xlink="http://www.w3.org/1999/xlink" xmlns="http://www.w3.org/2000/svg"><desc></desc><g><title>Container registry scope map</title><path fill-rule="evenodd" clip-rule="evenodd" d="M10.562 11a1.066 1.066 0 0 1-.797-.358L6 6.41l.566-.808L10.5 9.984c.029.02.063.03.098.03h3.914l.02.986h-3.97Z" class="msportalfx-svg-c03" /><path fill-rule="evenodd" clip-rule="evenodd" d="M3 5h11v1H3V5Zm3 1.8v6H5v-6h1Z" class="msportalfx-svg-c03" /><path d="M5.5 15a1.5 1.5 0 1 0 0-3 1.5 1.5 0 0 0 0 3Zm9-8a1.5 1.5 0 1 0 0-3 1.5 1.5 0 0 0 0 3Z" class="msportalfx-svg-c10" /><path d="M6.686 9.962A3.98 3.98 0 1 0 6.69 2a3.98 3.98 0 0 0-.004 7.962Z" class="msportalfx-svg-c09" /><path d="M6.25 9.962A3.98 3.98 0 1 0 6.25 2a3.98 3.98 0 0 0 0 7.962Z" class="msportalfx-svg-c10" /><path d="M6.25 8.94a2.954 2.954 0 1 0 0-5.908 2.954 2.954 0 0 0 0 5.908Z" class="msportalfx-svg-c01" /><path d="M4.414 9.962A3.98 3.98 0 1 0 4.418 2a3.98 3.98 0 0 0-.004 7.962Z" class="msportalfx-svg-c09" /><path d="M3.98 9.962A3.98 3.98 0 1 0 3.98 2a3.98 3.98 0 0 0 0 7.962Z" class="msportalfx-svg-c10" /><path d="M3.98 8.94a2.954 2.954 0 1 0 0-5.907 2.954 2.954 0 0 0 0 5.907Z" class="msportalfx-svg-c01" /><path d="m5.775 4.732-.633-.354-1.234.737-1.235-.737-.632.354v.719l1.228.738v1.565l.64.357.634-.357V6.189l1.224-.737.008-.72Z" class="msportalfx-svg-c14" /><path fill-rule="evenodd" clip-rule="evenodd" d="M3.903 2a3.98 3.98 0 0 0 0 7.96V2Z" fill-opacity=".3" class="msportalfx-svg-c01" /><path d="M14.5 12a1.5 1.5 0 1 0 0-3 1.5 1.5 0 0 0 0 3Z" class="msportalfx-svg-c10" /></g><style>.msportalfx-svg-c01{fill:#fff}.msportalfx-svg-c02{fill:#e5e5e5}.msportalfx-svg-c03{fill:#a0a1a2}.msportalfx-svg-c04{fill:#7a7a7a}.msportalfx-svg-c05{fill:#3e3e3e}.msportalfx-svg-c06{fill:#1e1e1e}.msportalfx-svg-c07{fill:#0f0f0f}.msportalfx-svg-c08{fill:#ba141a}.msportalfx-svg-c09{fill:#dd5900}.msportalfx-svg-c10{fill:#ff8c00}.msportalfx-svg-c11{fill:#fcd116}.msportalfx-svg-c12{fill:#fee087}.msportalfx-svg-c13{fill:#b8d432}.msportalfx-svg-c14,.msportalfx-svg-c32{fill:#57a300}.msportalfx-svg-c15{fill:#59b4d9}.msportalfx-svg-c16{fill:#3999c6}.msportalfx-svg-c17{fill:#804998}.msportalfx-svg-c18{fill:#ec008c}.msportalfx-svg-c19{fill:#0072c6}.msportalfx-svg-c20{fill:#68217a}.msportalfx-svg-c21{fill:#00188f}.msportalfx-svg-c22{fill:#e81123}.fxs-mode-light .msportalfx-svg-c22{fill:#a4262c}.msportalfx-svg-c23{fill:#cae3f3}.msportalfx-svg-c24{fill:#59aed3}.msportalfx-svg-c25{fill:#4c3b12}.msportalfx-svg-c26{fill:#be9555}.msportalfx-svg-c27{fill:#4f4d52}.msportalfx-svg-c28{fill:#ef6f59}.msportalfx-svg-c29{fill:#f7cb64}.msportalfx-svg-c30{fill:#fdd8db}.msportalfx-svg-c31{fill:#f6ffec}.msportalfx-svg-c33{fill:#8a2da5}.msportalfx-svg-c34{fill:#e00b1c}.msportalfx-svg-c35{fill:#015cda}.msportalfx-svg-c36{fill:#5db300}.msportalfx-svg-c97{fill:#ffb900}.msportalfx-svg-c98{fill:#00a4ef}.msportalfx-svg-c99{fill:#f25022}.msportalfx-inverted-theme .msportalfx-svg-c05,.fxs-theme-dark .msportalfx-svg-c05{fill:#777}.msportalfx-inverted-theme .msportalfx-svg-c07,.fxs-theme-dark .msportalfx-svg-c07{fill:#f2f2f2}.msportalfx-svg-palette-white{fill:#fff}.msportalfx-svg-palette-blue{fill:#015cda}.msportalfx-svg-palette-black{fill:#1e1e1e}.msportalfx-svg-palette-green{fill:#57a300}.msportalfx-svg-palette-gray{fill:#a0a1a2}.msportalfx-svg-palette-inherit{fill:inherit}.msportalfx-svg-badge{position:absolute;left:0;bottom:0;min-height:10px;min-width:10px}.fxc-menu-icon&gt;.msportalfx-svg-badge{left:-2px;bottom:-2px;min-height:8px;min-width:8px}.msportalfx-svg-disabled{filter:grayscale(100%)}.msportalfx-svg-loading-square{animation:ProgressFlagAnimation 1.45s infinite ease-in-out;transform-origin:50%}.msportalfx-svg-loading-square:nth-child(1){animation-delay:0s}.msportalfx-svg-loading-square:nth-child(2){animation-delay:.2s}.msportalfx-svg-loading-square:nth-child(3){animation-delay:.4s}@keyframes ProgressFlagAnimation{0%{transform:scale(1);opacity:.3}36.1%{transform:scale(1.06);opacity:1}50%{transform:scale(1.06);opacity:1}86.1%{transform:scale(1);opacity:.3}}.msportalfx-svg-flip-horizontal&gt;svg,svg.msportalfx-svg-flip-horizontal{transform:scaleX(-1)}.msportalfx-svg-fabric-rotate360{animation:ImageRotation 1.3s cubic-bezier(.53,.21,.29,.67) infinite}@keyframes ImageRotation{0%{transform:rotate(-45deg)}100%{transform:rotate(315deg)}}.fxs-svg-number .msportalfx-font-bold{font-size:10px;fill:#0065ad}.fxs-svg-number .fxs-svg-circle{stroke-width:0%;fill:#0078d4}.fxs-svg-number .fxs-svg-text{fill:#fff;font-size:10px}.fxs-svg-number.msportalfx-svg-disabled{filter:grayscale(0%)}.fxs-svg-number.msportalfx-svg-disabled .fxs-svg-circle{fill:#fff;stroke-width:1px;stroke:#949494}.fxs-svg-number.msportalfx-svg-disabled .fxs-svg-text{fill:#949494}.fxs-theme-dark .fxs-svg-number .fxs-svg-text{fill:#0f0f0f}.fxs-theme-dark .fxs-svg-number .fxs-svg-circle{stroke-width:0%;fill:#0078d4}.fxs-theme-dark .fxs-svg-number.msportalfx-svg-disabled .fxs-svg-circle{fill:#0f0f0f;stroke-width:1px;stroke:#949494}.fxs-theme-dark .fxs-svg-number.msportalfx-svg-disabled .fxs-svg-text{fill:#949494}</style></svg>