<svg viewBox="0 0 18 18" class="msportalfx-svg-placeholder" xmlns="http://www.w3.org/2000/svg"><desc>A curated collection of workloads that are deployable for the end user.</desc><defs><linearGradient id="pXLcKtBRk__a" x1="9" x2="9" y1="15.834" y2="5.788" gradientUnits="userSpaceOnUse"><stop offset="0" stop-color="#0078d4" /><stop offset=".502" stop-color="#4093e6" /><stop offset=".775" stop-color="#5ea0ef" /></linearGradient><linearGradient id="pXLcKtBRk__b" x1="3.754" x2="6.975" y1="11.614" y2="11.614" gradientTransform="rotate(44.919 5.331 11.647)" gradientUnits="userSpaceOnUse"><stop offset="0" stop-color="#5ea0ef" /><stop offset=".372" stop-color="#9fc6f5" /><stop offset=".8" stop-color="#e4effc" /><stop offset="1" stop-color="#fff" /></linearGradient><linearGradient id="pXLcKtBRk__c" x1="10.83" x2="14.05" y1="11.614" y2="11.614" gradientTransform="rotate(135.081 12.473 11.646)" gradientUnits="userSpaceOnUse"><stop offset="0" stop-color="#fff" /><stop offset=".2" stop-color="#e4effc" /><stop offset=".628" stop-color="#9fc6f5" /><stop offset="1" stop-color="#5ea0ef" /></linearGradient></defs><title>Application Template</title><path fill="url(#pXLcKtBRk__a)" d="M.5 5.788h17v9.478a.57.57 0 0 1-.568.568H1.068a.57.57 0 0 1-.568-.568z" /><path fill="#0078d4" d="M1.071 2.166h15.858a.57.57 0 0 1 .568.568v3.054H.5V2.734a.57.57 0 0 1 .571-.568" /><path fill="url(#pXLcKtBRk__b)" d="M5.244 9.632h.49V13.5a.157.157 0 0 1-.157.157h-.49a.157.157 0 0 1-.157-.157V9.945a.314.314 0 0 1 .314-.314Z" transform="rotate(-44.919 5.333 11.646)" /><path fill="#f2f2f2" d="m4.19 11.074-.347-.347a.314.314 0 0 1 0-.444l2.562-2.554a.157.157 0 0 1 .222 0l.346.347a.157.157 0 0 1 0 .222z" /><path fill="url(#pXLcKtBRk__c)" d="M12.228 9.632h.49a.157.157 0 0 1 .157.157v3.873h-.49a.314.314 0 0 1-.314-.314v-3.56a.157.157 0 0 1 .157-.157Z" transform="rotate(-135.081 12.473 11.647)" /><path fill="#f2f2f2" d="m10.824 8.078.346-.347a.157.157 0 0 1 .222 0l2.56 2.553a.314.314 0 0 1 .002.444l-.346.347-2.782-2.773a.157.157 0 0 1-.002-.224" /><rect width=".806" height="7.634" x="8.547" y="6.598" fill="#f2f2f2" rx=".112" transform="rotate(17.752 8.95 10.416)" /><style>.msportalfx-svg-c01{fill:#fff}.msportalfx-svg-c02{fill:#e5e5e5}.msportalfx-svg-c03{fill:#a0a1a2}.msportalfx-svg-c04{fill:#7a7a7a}.msportalfx-svg-c05{fill:#3e3e3e}.msportalfx-svg-c06{fill:#1e1e1e}.msportalfx-svg-c07{fill:#0f0f0f}.msportalfx-svg-c08{fill:#ba141a}.msportalfx-svg-c09{fill:#dd5900}.msportalfx-svg-c10{fill:#ff8c00}.msportalfx-svg-c11{fill:#fcd116}.msportalfx-svg-c12{fill:#fee087}.msportalfx-svg-c13{fill:#b8d432}.msportalfx-svg-c14,.msportalfx-svg-c32{fill:#57a300}.msportalfx-svg-c15{fill:#59b4d9}.msportalfx-svg-c16{fill:#3999c6}.msportalfx-svg-c17{fill:#804998}.msportalfx-svg-c18{fill:#ec008c}.msportalfx-svg-c19{fill:#0072c6}.msportalfx-svg-c20{fill:#68217a}.msportalfx-svg-c21{fill:#00188f}.msportalfx-svg-c22{fill:#e81123}.fxs-mode-light .msportalfx-svg-c22{fill:#a4262c}.msportalfx-svg-c23{fill:#cae3f3}.msportalfx-svg-c24{fill:#59aed3}.msportalfx-svg-c25{fill:#4c3b12}.msportalfx-svg-c26{fill:#be9555}.msportalfx-svg-c27{fill:#4f4d52}.msportalfx-svg-c28{fill:#ef6f59}.msportalfx-svg-c29{fill:#f7cb64}.msportalfx-svg-c30{fill:#fdd8db}.msportalfx-svg-c31{fill:#f6ffec}.msportalfx-svg-c33{fill:#8a2da5}.msportalfx-svg-c34{fill:#e00b1c}.msportalfx-svg-c35{fill:#015cda}.msportalfx-svg-c36{fill:#5db300}.msportalfx-svg-c97{fill:#ffb900}.msportalfx-svg-c98{fill:#00a4ef}.msportalfx-svg-c99{fill:#f25022}.msportalfx-inverted-theme .msportalfx-svg-c05,.fxs-theme-dark .msportalfx-svg-c05{fill:#777}.msportalfx-inverted-theme .msportalfx-svg-c07,.fxs-theme-dark .msportalfx-svg-c07{fill:#f2f2f2}.msportalfx-svg-palette-white{fill:#fff}.msportalfx-svg-palette-blue{fill:#015cda}.msportalfx-svg-palette-black{fill:#1e1e1e}.msportalfx-svg-palette-green{fill:#57a300}.msportalfx-svg-palette-gray{fill:#a0a1a2}.msportalfx-svg-palette-inherit{fill:inherit}.msportalfx-svg-badge{position:absolute;left:0;bottom:0;min-height:10px;min-width:10px}.fxc-menu-icon&gt;.msportalfx-svg-badge{left:-2px;bottom:-2px;min-height:8px;min-width:8px}.msportalfx-svg-disabled{filter:grayscale(100%)}.msportalfx-svg-loading-square{animation:ProgressFlagAnimation 1.45s infinite ease-in-out;transform-origin:50%}.msportalfx-svg-loading-square:nth-child(1){animation-delay:0s}.msportalfx-svg-loading-square:nth-child(2){animation-delay:.2s}.msportalfx-svg-loading-square:nth-child(3){animation-delay:.4s}@keyframes ProgressFlagAnimation{0%{transform:scale(1);opacity:.3}36.1%{transform:scale(1.06);opacity:1}50%{transform:scale(1.06);opacity:1}86.1%{transform:scale(1);opacity:.3}}.msportalfx-svg-flip-horizontal&gt;svg,svg.msportalfx-svg-flip-horizontal{transform:scaleX(-1)}.msportalfx-svg-fabric-rotate360{animation:ImageRotation 1.3s cubic-bezier(.53,.21,.29,.67) infinite}@keyframes ImageRotation{0%{transform:rotate(-45deg)}100%{transform:rotate(315deg)}}.fxs-svg-number .msportalfx-font-bold{font-size:10px;fill:#0065ad}.fxs-svg-number .fxs-svg-circle{stroke-width:0%;fill:#0078d4}.fxs-svg-number .fxs-svg-text{fill:#fff;font-size:10px}.fxs-svg-number.msportalfx-svg-disabled{filter:grayscale(0%)}.fxs-svg-number.msportalfx-svg-disabled .fxs-svg-circle{fill:#fff;stroke-width:1px;stroke:#949494}.fxs-svg-number.msportalfx-svg-disabled .fxs-svg-text{fill:#949494}.fxs-theme-dark .fxs-svg-number .fxs-svg-text{fill:#0f0f0f}.fxs-theme-dark .fxs-svg-number .fxs-svg-circle{stroke-width:0%;fill:#0078d4}.fxs-theme-dark .fxs-svg-number.msportalfx-svg-disabled .fxs-svg-circle{fill:#0f0f0f;stroke-width:1px;stroke:#949494}.fxs-theme-dark .fxs-svg-number.msportalfx-svg-disabled .fxs-svg-text{fill:#949494}</style></svg>