<svg viewBox="0 0 18 18"><defs><linearGradient id="pe1xq67w4__a" x1="9.041" x2="9.041" y1="11.332" y2="5.788" gradientUnits="userSpaceOnUse"><stop offset="0" stop-color="#9b9c9c"/><stop offset=".038" stop-color="#a4a5a4"/><stop offset=".154" stop-color="#bdbcb9"/><stop offset=".285" stop-color="#d0cfca"/><stop offset=".437" stop-color="#dddcd6"/><stop offset=".63" stop-color="#e5e3dc"/><stop offset=".999" stop-color="#e8e6df"/></linearGradient><linearGradient id="pe1xq67w4__b" x1="60.506" x2="60.506" y1="639.246" y2="635.828" gradientTransform="translate(-56 -626)" gradientUnits="userSpaceOnUse"><stop offset=".001" stop-color="#773adc"/><stop offset="1" stop-color="#a67af4"/></linearGradient><linearGradient id="pe1xq67w4__c" x1="65.062" x2="65.062" y1="640.692" y2="637.274" gradientTransform="translate(-56 -626)" gradientUnits="userSpaceOnUse"><stop offset=".001" stop-color="#773adc"/><stop offset="1" stop-color="#a67af4"/></linearGradient><linearGradient id="pe1xq67w4__d" x1="69.583" x2="69.583" y1="639.269" y2="635.851" gradientTransform="translate(-56 -626)" gradientUnits="userSpaceOnUse"><stop offset=".001" stop-color="#773adc"/><stop offset="1" stop-color="#a67af4"/></linearGradient><linearGradient id="pe1xq67w4__e" x1="64.708" x2="64.708" y1="632.327" y2="626.694" gradientTransform="translate(-56 -626)" gradientUnits="userSpaceOnUse"><stop offset="0" stop-color="#0078d4"/><stop offset=".878" stop-color="#5ea0ef"/></linearGradient><linearGradient id="pe1xq67w4__f" x1="62.427" x2="63.854" y1="641.475" y2="641.475" gradientTransform="matrix(1 0 0 -1 -55.999 645.517)" gradientUnits="userSpaceOnUse"><stop offset="0" stop-color="#5ea0ef"/><stop offset=".372" stop-color="#9fc6f5"/><stop offset=".8" stop-color="#e4effc"/><stop offset="1" stop-color="#fff"/></linearGradient><linearGradient id="pe1xq67w4__g" x1="65.563" x2="66.99" y1="641.475" y2="641.475" gradientTransform="matrix(1 0 0 -1 -56 645.517)" gradientUnits="userSpaceOnUse"><stop offset="0" stop-color="#fff"/><stop offset=".2" stop-color="#e4effc"/><stop offset=".628" stop-color="#9fc6f5"/><stop offset="1" stop-color="#5ea0ef"/></linearGradient></defs><path fill="#5ea0ef" d="M17.506 15.083c-.159.697-1.03 1.385-2.604 1.92a21.5 21.5 0 0 1-12.067.017c-1.45-.512-2.232-1.165-2.354-1.831-.022-.118 0-1.956 0-1.956l17.054-.159s-.008 1.926-.027 2.01z"/><ellipse cx="8.999" cy="13.192" fill="#50e6ff" rx="8.534" ry="2.95" transform="rotate(-.575 9.002 13.199)"/><path fill="url(#pe1xq67w4__a)" d="M13.677 7.48H9.793a.21.21 0 0 1-.209-.209V5.788H8.541v1.483a.21.21 0 0 1-.209.209h-3.93a.42.42 0 0 0-.418.418V9.82h1.043V8.752a.21.21 0 0 1 .209-.209h3.303v2.789h1.043V8.547h3.258c.115 0 .209.093.209.209v1.089h1.047V7.898a.42.42 0 0 0-.418-.418h-.003Z"/><rect width="3.418" height="3.418" x="2.797" y="9.828" fill="url(#pe1xq67w4__b)" rx=".31" ry=".31"/><rect width="3.418" height="3.418" x="7.353" y="11.274" fill="url(#pe1xq67w4__c)" rx=".31" ry=".31"/><rect width="3.418" height="3.418" x="11.874" y="9.851" fill="url(#pe1xq67w4__d)" rx=".31" ry=".31"/><rect width="5.633" height="5.633" x="6.599" y=".125" fill="#005ba1" rx=".51" ry=".51"/><rect width="5.633" height="5.633" x="5.891" y=".694" fill="url(#pe1xq67w4__e)" rx=".51" ry=".51"/><path fill="url(#pe1xq67w4__f)" d="m6.469 3.452.154-.153 1.21 1.214a.07.07 0 0 1 0 .098l-.154.153a.07.07 0 0 1-.098 0L6.469 3.649a.14.14 0 0 1 0-.197"/><path fill="#f2f2f2" d="m6.62 3.802-.153-.154a.14.14 0 0 1 0-.197l1.135-1.132a.07.07 0 0 1 .098 0l.153.154a.07.07 0 0 1 0 .098z"/><path fill="url(#pe1xq67w4__g)" d="m9.737 4.765-.154-.153a.07.07 0 0 1 0-.098l1.212-1.215.154.153a.14.14 0 0 1 0 .197L9.835 4.766a.07.07 0 0 1-.098 0Z"/><path fill="#f2f2f2" d="m9.56 2.475.153-.154a.07.07 0 0 1 .098 0l1.135 1.132a.14.14 0 0 1 0 .197l-.153.154-1.232-1.229a.07.07 0 0 1-.002-.098Z"/><rect width="3.383" height=".357" x="7.039" y="3.332" fill="#f2f2f2" rx=".05" ry=".05" transform="rotate(-72.248 8.73 3.51)"/><style>.msportalfx-svg-c01{fill:#fff}.msportalfx-svg-c02{fill:#e5e5e5}.msportalfx-svg-c03{fill:#a0a1a2}.msportalfx-svg-c04{fill:#7a7a7a}.msportalfx-svg-c05{fill:#3e3e3e}.msportalfx-svg-c06{fill:#1e1e1e}.msportalfx-svg-c07{fill:#0f0f0f}.msportalfx-svg-c08{fill:#ba141a}.msportalfx-svg-c09{fill:#dd5900}.msportalfx-svg-c10{fill:#ff8c00}.msportalfx-svg-c11{fill:#fcd116}.msportalfx-svg-c12{fill:#fee087}.msportalfx-svg-c13{fill:#b8d432}.msportalfx-svg-c14,.msportalfx-svg-c32{fill:#57a300}.msportalfx-svg-c15{fill:#59b4d9}.msportalfx-svg-c16{fill:#3999c6}.msportalfx-svg-c17{fill:#804998}.msportalfx-svg-c18{fill:#ec008c}.msportalfx-svg-c19{fill:#0072c6}.msportalfx-svg-c20{fill:#68217a}.msportalfx-svg-c21{fill:#00188f}.msportalfx-svg-c22{fill:#e81123}.fxs-mode-light .msportalfx-svg-c22{fill:#a4262c}.msportalfx-svg-c23{fill:#cae3f3}.msportalfx-svg-c24{fill:#59aed3}.msportalfx-svg-c25{fill:#4c3b12}.msportalfx-svg-c26{fill:#be9555}.msportalfx-svg-c27{fill:#4f4d52}.msportalfx-svg-c28{fill:#ef6f59}.msportalfx-svg-c29{fill:#f7cb64}.msportalfx-svg-c30{fill:#fdd8db}.msportalfx-svg-c31{fill:#f6ffec}.msportalfx-svg-c33{fill:#8a2da5}.msportalfx-svg-c34{fill:#e00b1c}.msportalfx-svg-c35{fill:#015cda}.msportalfx-svg-c36{fill:#5db300}.msportalfx-svg-c97{fill:#ffb900}.msportalfx-svg-c98{fill:#00a4ef}.msportalfx-svg-c99{fill:#f25022}.msportalfx-inverted-theme .msportalfx-svg-c05,.fxs-theme-dark .msportalfx-svg-c05{fill:#777}.msportalfx-inverted-theme .msportalfx-svg-c07,.fxs-theme-dark .msportalfx-svg-c07{fill:#f2f2f2}.msportalfx-svg-palette-white{fill:#fff}.msportalfx-svg-palette-blue{fill:#015cda}.msportalfx-svg-palette-black{fill:#1e1e1e}.msportalfx-svg-palette-green{fill:#57a300}.msportalfx-svg-palette-gray{fill:#a0a1a2}.msportalfx-svg-palette-inherit{fill:inherit}.msportalfx-svg-badge{position:absolute;left:0;bottom:0;min-height:10px;min-width:10px}.fxc-menu-icon>.msportalfx-svg-badge{left:-2px;bottom:-2px;min-height:8px;min-width:8px}.msportalfx-svg-disabled{filter:grayscale(100%)}.msportalfx-svg-loading-square{animation:ProgressFlagAnimation 1.45s infinite ease-in-out;transform-origin:50%}.msportalfx-svg-loading-square:nth-child(1){animation-delay:0s}.msportalfx-svg-loading-square:nth-child(2){animation-delay:.2s}.msportalfx-svg-loading-square:nth-child(3){animation-delay:.4s}@keyframes ProgressFlagAnimation{0%{transform:scale(1);opacity:.3}36.1%{transform:scale(1.06);opacity:1}50%{transform:scale(1.06);opacity:1}86.1%{transform:scale(1);opacity:.3}}.msportalfx-svg-flip-horizontal>svg,svg.msportalfx-svg-flip-horizontal{transform:scaleX(-1)}.msportalfx-svg-fabric-rotate360{animation:ImageRotation 1.3s cubic-bezier(.53,.21,.29,.67) infinite}@keyframes ImageRotation{0%{transform:rotate(-45deg)}100%{transform:rotate(315deg)}}.fxs-svg-number .msportalfx-font-bold{font-size:10px;fill:#0065ad}.fxs-svg-number .fxs-svg-circle{stroke-width:0%;fill:#0078d4}.fxs-svg-number .fxs-svg-text{fill:#fff;font-size:10px}.fxs-svg-number.msportalfx-svg-disabled{filter:grayscale(0%)}.fxs-svg-number.msportalfx-svg-disabled .fxs-svg-circle{fill:#fff;stroke-width:1px;stroke:#949494}.fxs-svg-number.msportalfx-svg-disabled .fxs-svg-text{fill:#949494}.fxs-theme-dark .fxs-svg-number .fxs-svg-text{fill:#0f0f0f}.fxs-theme-dark .fxs-svg-number .fxs-svg-circle{stroke-width:0%;fill:#0078d4}.fxs-theme-dark .fxs-svg-number.msportalfx-svg-disabled .fxs-svg-circle{fill:#0f0f0f;stroke-width:1px;stroke:#949494}.fxs-theme-dark .fxs-svg-number.msportalfx-svg-disabled .fxs-svg-text{fill:#949494}</style></svg>