<svg viewBox="0 0 18 18" class="msportalfx-svg-placeholder" xmlns="http://www.w3.org/2000/svg"><title>SQL managed instance - Azure Arc</title><desc>Create a fully managed SQL Managed Instance enabled by Azure Arc on the infrastructure of your choice, with built-in management capabilities that drastically reduce your management overhead.</desc><defs><linearGradient id="p2iiLGHjD__a" x1="6.267" x2="6.267" y1="13.967" gradientUnits="userSpaceOnUse"><stop offset="0" stop-color="#949494" /><stop offset="1" stop-color="#b3b3b3" /></linearGradient><linearGradient id="p2iiLGHjD__b" x1="10.135" x2="10.135" y1="14.02" y2="5.219" gradientUnits="userSpaceOnUse"><stop offset="0" stop-color="#0078d4" /><stop offset="1" stop-color="#5ea0ef" /></linearGradient></defs><path fill="#5ea0ef" d="M17.549 15.146c-.16.7-1.035 1.391-2.617 1.929a21.6 21.6 0 0 1-12.125.017C1.35 16.578.564 15.922.441 15.25c-.022-.118 0-1.966 0-1.966l17.136-.16s-.008 1.937-.028 2.022" /><ellipse cx="9.001" cy="13.246" fill="#50e6ff" rx="8.576" ry="2.965" transform="rotate(-.575 9.001 13.298)" /><path fill="url(#p2iiLGHjD__a)" d="M10.368 13.491a.484.484 0 0 1-.476.476H2.641a.476.476 0 0 1-.476-.476V.476A.47.47 0 0 1 2.624 0h7.268a.476.476 0 0 1 .476.476Z" /><path fill="#003067" d="M3.368 4.895a.893.893 0 0 1 .886-.885h4.093a.893.893 0 0 1 .918.868v.017a.9.9 0 0 1-.894.9H4.254a.893.893 0 0 1-.886-.9m.886-1.754h4.11a.893.893 0 0 0 .9-.885V2.23a.893.893 0 0 0-.918-.868H4.254a.89.89 0 0 0 0 1.779" /><path fill="#50e6ff" d="M4.3 1.654a.6.6 0 1 1-.6.6.6.6 0 0 1 .6-.6m-.6 3.241a.6.6 0 1 0 .6-.6.6.6 0 0 0-.6.6" /><path fill="url(#p2iiLGHjD__b)" d="M16.366 11.252a2.806 2.806 0 0 0-2.431-2.689A3.524 3.524 0 0 0 10.3 5.221a3.61 3.61 0 0 0-3.457 2.322A3.34 3.34 0 0 0 3.9 10.76a3.39 3.39 0 0 0 3.508 3.257h6.174a2.83 2.83 0 0 0 2.784-2.765" /><path fill="#f2f2f2" d="M13.117 11.562V8.755h-.777V12.2h2.047v-.634Zm-5.931-1.379a2 2 0 0 1-.426-.259.37.37 0 0 1-.1-.267.29.29 0 0 1 .126-.251.56.56 0 0 1 .351-.1 1.4 1.4 0 0 1 .835.242V8.83a2.4 2.4 0 0 0-.835-.125 1.4 1.4 0 0 0-.911.275.92.92 0 0 0-.342.744 1.12 1.12 0 0 0 .785 1 2 2 0 0 1 .509.3.35.35 0 0 1 .126.267.29.29 0 0 1-.126.251.63.63 0 0 1-.376.1 1.36 1.36 0 0 1-.9-.351v.769a1.9 1.9 0 0 0 .861.192 1.6 1.6 0 0 0 .96-.234.9.9 0 0 0 .36-.76.84.84 0 0 0-.209-.585 2 2 0 0 0-.688-.49M11.5 11.5a2 2 0 0 0 .276-1.053 1.9 1.9 0 0 0-.209-.935 1.47 1.47 0 0 0-.576-.618 1.6 1.6 0 0 0-.891-.214 1.84 1.84 0 0 0-.835.242 1.56 1.56 0 0 0-.61.643 2.1 2.1 0 0 0-.226.952 1.9 1.9 0 0 0 .2.877 1.57 1.57 0 0 0 .568.619 1.7 1.7 0 0 0 .835.242l.71.835h1l-.994-.919a1.5 1.5 0 0 0 .752-.671m-.777-.209a.818.818 0 0 1-1.261-.008 1.25 1.25 0 0 1-.234-.836 1.22 1.22 0 0 1 .242-.835.77.77 0 0 1 .643-.309.72.72 0 0 1 .619.309 1.3 1.3 0 0 1 .234.835 1.23 1.23 0 0 1-.247.847Z" /><style>.msportalfx-svg-c01{fill:#fff}.msportalfx-svg-c02{fill:#e5e5e5}.msportalfx-svg-c03{fill:#a0a1a2}.msportalfx-svg-c04{fill:#7a7a7a}.msportalfx-svg-c05{fill:#3e3e3e}.msportalfx-svg-c06{fill:#1e1e1e}.msportalfx-svg-c07{fill:#0f0f0f}.msportalfx-svg-c08{fill:#ba141a}.msportalfx-svg-c09{fill:#dd5900}.msportalfx-svg-c10{fill:#ff8c00}.msportalfx-svg-c11{fill:#fcd116}.msportalfx-svg-c12{fill:#fee087}.msportalfx-svg-c13{fill:#b8d432}.msportalfx-svg-c14,.msportalfx-svg-c32{fill:#57a300}.msportalfx-svg-c15{fill:#59b4d9}.msportalfx-svg-c16{fill:#3999c6}.msportalfx-svg-c17{fill:#804998}.msportalfx-svg-c18{fill:#ec008c}.msportalfx-svg-c19{fill:#0072c6}.msportalfx-svg-c20{fill:#68217a}.msportalfx-svg-c21{fill:#00188f}.msportalfx-svg-c22{fill:#e81123}.fxs-mode-light .msportalfx-svg-c22{fill:#a4262c}.msportalfx-svg-c23{fill:#cae3f3}.msportalfx-svg-c24{fill:#59aed3}.msportalfx-svg-c25{fill:#4c3b12}.msportalfx-svg-c26{fill:#be9555}.msportalfx-svg-c27{fill:#4f4d52}.msportalfx-svg-c28{fill:#ef6f59}.msportalfx-svg-c29{fill:#f7cb64}.msportalfx-svg-c30{fill:#fdd8db}.msportalfx-svg-c31{fill:#f6ffec}.msportalfx-svg-c33{fill:#8a2da5}.msportalfx-svg-c34{fill:#e00b1c}.msportalfx-svg-c35{fill:#015cda}.msportalfx-svg-c36{fill:#5db300}.msportalfx-svg-c97{fill:#ffb900}.msportalfx-svg-c98{fill:#00a4ef}.msportalfx-svg-c99{fill:#f25022}.msportalfx-inverted-theme .msportalfx-svg-c05,.fxs-theme-dark .msportalfx-svg-c05{fill:#777}.msportalfx-inverted-theme .msportalfx-svg-c07,.fxs-theme-dark .msportalfx-svg-c07{fill:#f2f2f2}.msportalfx-svg-palette-white{fill:#fff}.msportalfx-svg-palette-blue{fill:#015cda}.msportalfx-svg-palette-black{fill:#1e1e1e}.msportalfx-svg-palette-green{fill:#57a300}.msportalfx-svg-palette-gray{fill:#a0a1a2}.msportalfx-svg-palette-inherit{fill:inherit}.msportalfx-svg-badge{position:absolute;left:0;bottom:0;min-height:10px;min-width:10px}.fxc-menu-icon&gt;.msportalfx-svg-badge{left:-2px;bottom:-2px;min-height:8px;min-width:8px}.msportalfx-svg-disabled{filter:grayscale(100%)}.msportalfx-svg-loading-square{animation:ProgressFlagAnimation 1.45s infinite ease-in-out;transform-origin:50%}.msportalfx-svg-loading-square:nth-child(1){animation-delay:0s}.msportalfx-svg-loading-square:nth-child(2){animation-delay:.2s}.msportalfx-svg-loading-square:nth-child(3){animation-delay:.4s}@keyframes ProgressFlagAnimation{0%{transform:scale(1);opacity:.3}36.1%{transform:scale(1.06);opacity:1}50%{transform:scale(1.06);opacity:1}86.1%{transform:scale(1);opacity:.3}}.msportalfx-svg-flip-horizontal&gt;svg,svg.msportalfx-svg-flip-horizontal{transform:scaleX(-1)}.msportalfx-svg-fabric-rotate360{animation:ImageRotation 1.3s cubic-bezier(.53,.21,.29,.67) infinite}@keyframes ImageRotation{0%{transform:rotate(-45deg)}100%{transform:rotate(315deg)}}.fxs-svg-number .msportalfx-font-bold{font-size:10px;fill:#0065ad}.fxs-svg-number .fxs-svg-circle{stroke-width:0%;fill:#0078d4}.fxs-svg-number .fxs-svg-text{fill:#fff;font-size:10px}.fxs-svg-number.msportalfx-svg-disabled{filter:grayscale(0%)}.fxs-svg-number.msportalfx-svg-disabled .fxs-svg-circle{fill:#fff;stroke-width:1px;stroke:#949494}.fxs-svg-number.msportalfx-svg-disabled .fxs-svg-text{fill:#949494}.fxs-theme-dark .fxs-svg-number .fxs-svg-text{fill:#0f0f0f}.fxs-theme-dark .fxs-svg-number .fxs-svg-circle{stroke-width:0%;fill:#0078d4}.fxs-theme-dark .fxs-svg-number.msportalfx-svg-disabled .fxs-svg-circle{fill:#0f0f0f;stroke-width:1px;stroke:#949494}.fxs-theme-dark .fxs-svg-number.msportalfx-svg-disabled .fxs-svg-text{fill:#949494}</style></svg>