<svg viewBox="0 0 18 18" class="msportalfx-svg-placeholder" xmlns="http://www.w3.org/2000/svg"><title>SQL Server instance</title><desc>SQL Server instance allows you to manage your global inventory of SQL servers, protect SQL Server instances with Microsoft Defender for Cloud or periodically assess and tune the health of your SQL Server configurations.</desc><defs><linearGradient id="pQxMGIxxX__a" x1="9" x2="9" y1="9.628" gradientUnits="userSpaceOnUse"><stop offset="0" stop-color="#0078d4" /><stop offset=".82" stop-color="#5ea0ef" /></linearGradient><linearGradient id="pQxMGIxxX__b" x1="9" x2="9" y1="13.343" y2="9.628" gradientUnits="userSpaceOnUse"><stop offset=".151" stop-color="#ccc" /><stop offset="1" stop-color="#707070" /></linearGradient></defs><path fill="#5ea0ef" d="M17.549 15.194c-.16.7-1.035 1.391-2.617 1.929a21.6 21.6 0 0 1-12.125.017C1.35 16.626.564 15.97.441 15.3c-.022-.118 0-1.966 0-1.966l17.136-.16s-.008 1.935-.028 2.02" /><ellipse cx="9.001" cy="13.294" fill="#50e6ff" rx="8.576" ry="2.965" transform="rotate(-.575 9.001 13.298)" /><rect width="14.442" height="9.628" x="1.779" fill="url(#pQxMGIxxX__a)" rx=".481" /><path fill="url(#pQxMGIxxX__b)" d="M11.9 12.54c-1.428-.224-1.484-1.251-1.484-2.912H7.58c0 1.661-.048 2.688-1.476 2.912a.8.8 0 0 0-.714.8h7.22a.8.8 0 0 0-.71-.8" /><path fill="#fff" d="M12.2 5.545V2.557h-.86v3.649h2.172v-.661ZM5.9 4.068a1.8 1.8 0 0 1-.451-.268.4.4 0 0 1-.111-.292.31.31 0 0 1 .137-.267.6.6 0 0 1 .369-.094A1.43 1.43 0 0 1 6.7 3.4v-.758a2.4 2.4 0 0 0-.856-.142 1.5 1.5 0 0 0-.97.3.96.96 0 0 0-.361.79 1.19 1.19 0 0 0 .756 1.065 2.1 2.1 0 0 1 .541.317.35.35 0 0 1 .137.284.34.34 0 0 1-.137.275.66.66 0 0 1-.361.111 1.45 1.45 0 0 1-.961-.378v.856a1.94 1.94 0 0 0 .944.206 1.7 1.7 0 0 0 1.039-.335.96.96 0 0 0 .378-.807.86.86 0 0 0-.223-.618 2.2 2.2 0 0 0-.726-.498m4.585 1.408a2.06 2.06 0 0 0 .292-1.116 2.1 2.1 0 0 0-.223-.971 1.6 1.6 0 0 0-.618-.661 1.8 1.8 0 0 0-.863-.228 1.9 1.9 0 0 0-.953.241 1.63 1.63 0 0 0-.653.687A2.1 2.1 0 0 0 7.2 4.437a2.1 2.1 0 0 0 .206.927 1.64 1.64 0 0 0 .61.653 1.8 1.8 0 0 0 .858.258l.756.858h1.07l-1.039-1a1.53 1.53 0 0 0 .82-.657Zm-.858-.223a.81.81 0 0 1-.67.309.79.79 0 0 1-.67-.318 1.33 1.33 0 0 1-.258-.858 1.35 1.35 0 0 1 .258-.859.86.86 0 0 1 .687-.318.77.77 0 0 1 .661.318 1.4 1.4 0 0 1 .241.859 1.3 1.3 0 0 1-.215.867Z" /><style>.msportalfx-svg-c01{fill:#fff}.msportalfx-svg-c02{fill:#e5e5e5}.msportalfx-svg-c03{fill:#a0a1a2}.msportalfx-svg-c04{fill:#7a7a7a}.msportalfx-svg-c05{fill:#3e3e3e}.msportalfx-svg-c06{fill:#1e1e1e}.msportalfx-svg-c07{fill:#0f0f0f}.msportalfx-svg-c08{fill:#ba141a}.msportalfx-svg-c09{fill:#dd5900}.msportalfx-svg-c10{fill:#ff8c00}.msportalfx-svg-c11{fill:#fcd116}.msportalfx-svg-c12{fill:#fee087}.msportalfx-svg-c13{fill:#b8d432}.msportalfx-svg-c14,.msportalfx-svg-c32{fill:#57a300}.msportalfx-svg-c15{fill:#59b4d9}.msportalfx-svg-c16{fill:#3999c6}.msportalfx-svg-c17{fill:#804998}.msportalfx-svg-c18{fill:#ec008c}.msportalfx-svg-c19{fill:#0072c6}.msportalfx-svg-c20{fill:#68217a}.msportalfx-svg-c21{fill:#00188f}.msportalfx-svg-c22{fill:#e81123}.fxs-mode-light .msportalfx-svg-c22{fill:#a4262c}.msportalfx-svg-c23{fill:#cae3f3}.msportalfx-svg-c24{fill:#59aed3}.msportalfx-svg-c25{fill:#4c3b12}.msportalfx-svg-c26{fill:#be9555}.msportalfx-svg-c27{fill:#4f4d52}.msportalfx-svg-c28{fill:#ef6f59}.msportalfx-svg-c29{fill:#f7cb64}.msportalfx-svg-c30{fill:#fdd8db}.msportalfx-svg-c31{fill:#f6ffec}.msportalfx-svg-c33{fill:#8a2da5}.msportalfx-svg-c34{fill:#e00b1c}.msportalfx-svg-c35{fill:#015cda}.msportalfx-svg-c36{fill:#5db300}.msportalfx-svg-c97{fill:#ffb900}.msportalfx-svg-c98{fill:#00a4ef}.msportalfx-svg-c99{fill:#f25022}.msportalfx-inverted-theme .msportalfx-svg-c05,.fxs-theme-dark .msportalfx-svg-c05{fill:#777}.msportalfx-inverted-theme .msportalfx-svg-c07,.fxs-theme-dark .msportalfx-svg-c07{fill:#f2f2f2}.msportalfx-svg-palette-white{fill:#fff}.msportalfx-svg-palette-blue{fill:#015cda}.msportalfx-svg-palette-black{fill:#1e1e1e}.msportalfx-svg-palette-green{fill:#57a300}.msportalfx-svg-palette-gray{fill:#a0a1a2}.msportalfx-svg-palette-inherit{fill:inherit}.msportalfx-svg-badge{position:absolute;left:0;bottom:0;min-height:10px;min-width:10px}.fxc-menu-icon&gt;.msportalfx-svg-badge{left:-2px;bottom:-2px;min-height:8px;min-width:8px}.msportalfx-svg-disabled{filter:grayscale(100%)}.msportalfx-svg-loading-square{animation:ProgressFlagAnimation 1.45s infinite ease-in-out;transform-origin:50%}.msportalfx-svg-loading-square:nth-child(1){animation-delay:0s}.msportalfx-svg-loading-square:nth-child(2){animation-delay:.2s}.msportalfx-svg-loading-square:nth-child(3){animation-delay:.4s}@keyframes ProgressFlagAnimation{0%{transform:scale(1);opacity:.3}36.1%{transform:scale(1.06);opacity:1}50%{transform:scale(1.06);opacity:1}86.1%{transform:scale(1);opacity:.3}}.msportalfx-svg-flip-horizontal&gt;svg,svg.msportalfx-svg-flip-horizontal{transform:scaleX(-1)}.msportalfx-svg-fabric-rotate360{animation:ImageRotation 1.3s cubic-bezier(.53,.21,.29,.67) infinite}@keyframes ImageRotation{0%{transform:rotate(-45deg)}100%{transform:rotate(315deg)}}.fxs-svg-number .msportalfx-font-bold{font-size:10px;fill:#0065ad}.fxs-svg-number .fxs-svg-circle{stroke-width:0%;fill:#0078d4}.fxs-svg-number .fxs-svg-text{fill:#fff;font-size:10px}.fxs-svg-number.msportalfx-svg-disabled{filter:grayscale(0%)}.fxs-svg-number.msportalfx-svg-disabled .fxs-svg-circle{fill:#fff;stroke-width:1px;stroke:#949494}.fxs-svg-number.msportalfx-svg-disabled .fxs-svg-text{fill:#949494}.fxs-theme-dark .fxs-svg-number .fxs-svg-text{fill:#0f0f0f}.fxs-theme-dark .fxs-svg-number .fxs-svg-circle{stroke-width:0%;fill:#0078d4}.fxs-theme-dark .fxs-svg-number.msportalfx-svg-disabled .fxs-svg-circle{fill:#0f0f0f;stroke-width:1px;stroke:#949494}.fxs-theme-dark .fxs-svg-number.msportalfx-svg-disabled .fxs-svg-text{fill:#949494}</style></svg>