<svg viewBox="0 0 18 18" class="msportalfx-svg-placeholder" xmlns="http://www.w3.org/2000/svg"><title>Connector Namespace (preview)</title><desc>Hosts pre-built integrations to SaaS, data, and line-of-business systems - exposing actions, triggers, and MCP servers with managed authentication and event delivery for any Azure compute or AI agent.</desc><defs><linearGradient id="pI09cw1rH__b" x1="-609.66" x2="-609.66" y1="-210.47" y2="-216.53" gradientTransform="matrix(1 0 0 -1 617.13 -205.76)" gradientUnits="userSpaceOnUse"><stop offset=".23" stop-color="#5ea0ef" /><stop offset=".32" stop-color="#5b9fee" /><stop offset=".48" stop-color="#509aeb" /><stop offset=".57" stop-color="#3f92e6" /><stop offset=".75" stop-color="#2688df" /><stop offset=".93" stop-color="#127fd9" /></linearGradient><linearGradient id="pI09cw1rH__c" x1="-606.62" x2="-606.62" y1="-212.99" y2="-219.05" gradientTransform="matrix(1 0 0 -1 617.13 -205.76)" gradientUnits="userSpaceOnUse"><stop offset=".02" stop-color="#5ea0ef" /><stop offset=".14" stop-color="#5b9fee" /><stop offset=".23" stop-color="#5b9fee" /><stop offset=".34" stop-color="#509aeb" /><stop offset=".44" stop-color="#3f92e6" /><stop offset=".63" stop-color="#2688df" /><stop offset=".93" stop-color="#127fd9" /></linearGradient><clipPath id="pI09cw1rH__a"><path fill="none" d="M0 0h18v18H0z" /></clipPath></defs><g clip-path="url(#pI09cw1rH__a)"><path fill="#999" d="M1.07 1.43h1.29v3.6c0 .16-.13.29-.29.29H.79c-.16 0-.28-.12-.29-.28V2c0-.31.26-.57.57-.57" /><path fill="#999" d="M1.07 1.43h1.29v3.6c0 .16-.13.29-.29.29H.79c-.16 0-.28-.12-.29-.28V2c0-.31.26-.57.57-.57" opacity=".5" /><path fill="#999" d="M15.64 1.43h1.29c.32 0 .57.25.57.57v3.03c0 .16-.13.29-.29.29h-1.29a.29.29 0 0 1-.29-.29v-3.6Z" /><path fill="#999" d="M15.64 1.43h1.29c.32 0 .57.25.57.57v3.03c0 .16-.13.29-.29.29h-1.29a.29.29 0 0 1-.29-.29v-3.6Z" opacity=".5" /><path fill="#949494" d="M17.5 2v1.25H.5V2c0-.31.25-.57.57-.57h15.87c.31 0 .56.25.56.57" /><path fill="#999" d="M.79 12.68h1.29c.16 0 .29.13.29.29v3.6H1.08c-.31 0-.57-.25-.57-.56v-3.03c0-.16.13-.29.29-.29Z" /><path fill="#999" d="M.79 12.68h1.29c.16 0 .29.13.29.29v3.6H1.08c-.31 0-.57-.25-.57-.56v-3.03c0-.16.13-.29.29-.29Z" opacity=".5" /><path fill="#999" d="M15.92 12.68h1.29c.16 0 .29.13.29.29V16c0 .32-.26.57-.57.57h-1.29v-3.6c0-.16.12-.29.28-.29" /><path fill="#999" d="M15.92 12.68h1.29c.16 0 .29.13.29.29V16c0 .32-.26.57-.57.57h-1.29v-3.6c0-.16.12-.29.28-.29" opacity=".5" /><path fill="#949494" d="M.5 16v-1.25h17V16c0 .31-.25.57-.57.57H1.07A.57.57 0 0 1 .5 16" /><path fill="url(#pI09cw1rH__b)" d="M8.7 4.71H6.28a3.02 3.02 0 0 0-3.01 3.04c0 1.48 1.08 2.73 2.54 2.97-.06-.37-.05-.76.03-1.12a1.916 1.916 0 0 1-1.45-2.29c.2-.88.99-1.51 1.89-1.49H8.7a1.92 1.92 0 0 1 0 3.84h-.67c-.09.19-.14.4-.14.61 0 .17.03.34.1.51h.72c1.67-.03 3-1.41 2.97-3.09a3.023 3.023 0 0 0-2.97-2.97Z" /><path fill="url(#pI09cw1rH__c)" d="M12.2 7.28c.02.15.03.31.04.46 0 .22-.02.44-.07.66 1.03.23 1.69 1.24 1.46 2.27a1.92 1.92 0 0 1-1.9 1.51H9.31a1.92 1.92 0 0 1 0-3.84h.67c.17-.35.19-.75.05-1.11h-.71c-1.67 0-3.03 1.36-3.03 3.03s1.36 3.03 3.03 3.03h2.42a3.034 3.034 0 0 0 3.01-3.05 3.035 3.035 0 0 0-2.54-2.97Z" /></g><style>.msportalfx-svg-c01{fill:#fff}.msportalfx-svg-c02{fill:#e5e5e5}.msportalfx-svg-c03{fill:#a0a1a2}.msportalfx-svg-c04{fill:#7a7a7a}.msportalfx-svg-c05{fill:#3e3e3e}.msportalfx-svg-c06{fill:#1e1e1e}.msportalfx-svg-c07{fill:#0f0f0f}.msportalfx-svg-c08{fill:#ba141a}.msportalfx-svg-c09{fill:#dd5900}.msportalfx-svg-c10{fill:#ff8c00}.msportalfx-svg-c11{fill:#fcd116}.msportalfx-svg-c12{fill:#fee087}.msportalfx-svg-c13{fill:#b8d432}.msportalfx-svg-c14,.msportalfx-svg-c32{fill:#57a300}.msportalfx-svg-c15{fill:#59b4d9}.msportalfx-svg-c16{fill:#3999c6}.msportalfx-svg-c17{fill:#804998}.msportalfx-svg-c18{fill:#ec008c}.msportalfx-svg-c19{fill:#0072c6}.msportalfx-svg-c20{fill:#68217a}.msportalfx-svg-c21{fill:#00188f}.msportalfx-svg-c22{fill:#e81123}.fxs-mode-light .msportalfx-svg-c22{fill:#a4262c}.msportalfx-svg-c23{fill:#cae3f3}.msportalfx-svg-c24{fill:#59aed3}.msportalfx-svg-c25{fill:#4c3b12}.msportalfx-svg-c26{fill:#be9555}.msportalfx-svg-c27{fill:#4f4d52}.msportalfx-svg-c28{fill:#ef6f59}.msportalfx-svg-c29{fill:#f7cb64}.msportalfx-svg-c30{fill:#fdd8db}.msportalfx-svg-c31{fill:#f6ffec}.msportalfx-svg-c33{fill:#8a2da5}.msportalfx-svg-c34{fill:#e00b1c}.msportalfx-svg-c35{fill:#015cda}.msportalfx-svg-c36{fill:#5db300}.msportalfx-svg-c97{fill:#ffb900}.msportalfx-svg-c98{fill:#00a4ef}.msportalfx-svg-c99{fill:#f25022}.msportalfx-inverted-theme .msportalfx-svg-c05,.fxs-theme-dark .msportalfx-svg-c05{fill:#777}.msportalfx-inverted-theme .msportalfx-svg-c07,.fxs-theme-dark .msportalfx-svg-c07{fill:#f2f2f2}.msportalfx-svg-palette-white{fill:#fff}.msportalfx-svg-palette-blue{fill:#015cda}.msportalfx-svg-palette-black{fill:#1e1e1e}.msportalfx-svg-palette-green{fill:#57a300}.msportalfx-svg-palette-gray{fill:#a0a1a2}.msportalfx-svg-palette-inherit{fill:inherit}.msportalfx-svg-badge{position:absolute;left:0;bottom:0;min-height:10px;min-width:10px}.fxc-menu-icon&gt;.msportalfx-svg-badge{left:-2px;bottom:-2px;min-height:8px;min-width:8px}.msportalfx-svg-disabled{filter:grayscale(100%)}.msportalfx-svg-loading-square{animation:ProgressFlagAnimation 1.45s infinite ease-in-out;transform-origin:50%}.msportalfx-svg-loading-square:nth-child(1){animation-delay:0s}.msportalfx-svg-loading-square:nth-child(2){animation-delay:.2s}.msportalfx-svg-loading-square:nth-child(3){animation-delay:.4s}@keyframes ProgressFlagAnimation{0%{transform:scale(1);opacity:.3}36.1%{transform:scale(1.06);opacity:1}50%{transform:scale(1.06);opacity:1}86.1%{transform:scale(1);opacity:.3}}.msportalfx-svg-flip-horizontal&gt;svg,svg.msportalfx-svg-flip-horizontal{transform:scaleX(-1)}.msportalfx-svg-fabric-rotate360{animation:ImageRotation 1.3s cubic-bezier(.53,.21,.29,.67) infinite}@keyframes ImageRotation{0%{transform:rotate(-45deg)}100%{transform:rotate(315deg)}}.fxs-svg-number .msportalfx-font-bold{font-size:10px;fill:#0065ad}.fxs-svg-number .fxs-svg-circle{stroke-width:0%;fill:#0078d4}.fxs-svg-number .fxs-svg-text{fill:#fff;font-size:10px}.fxs-svg-number.msportalfx-svg-disabled{filter:grayscale(0%)}.fxs-svg-number.msportalfx-svg-disabled .fxs-svg-circle{fill:#fff;stroke-width:1px;stroke:#949494}.fxs-svg-number.msportalfx-svg-disabled .fxs-svg-text{fill:#949494}.fxs-theme-dark .fxs-svg-number .fxs-svg-text{fill:#0f0f0f}.fxs-theme-dark .fxs-svg-number .fxs-svg-circle{stroke-width:0%;fill:#0078d4}.fxs-theme-dark .fxs-svg-number.msportalfx-svg-disabled .fxs-svg-circle{fill:#0f0f0f;stroke-width:1px;stroke:#949494}.fxs-theme-dark .fxs-svg-number.msportalfx-svg-disabled .fxs-svg-text{fill:#949494}</style></svg>