<svg viewBox="0 0 18 18" class="msportalfx-svg-placeholder" xmlns="http://www.w3.org/2000/svg"><title>Connector Namespace (preview)</title><desc>Hosts pre-built integrations to SaaS, data, and line-of-business systems - exposing actions, triggers, and MCP servers with managed authentication and event delivery for any Azure compute or AI agent.</desc><defs><linearGradient id="pI09cw1rH__a" x1="14.52" x2="16.12" y1="788.13" y2="781.67" gradientTransform="matrix(1 0 0 -1 0 791.52)" gradientUnits="userSpaceOnUse"><stop offset=".08" stop-color="#1b44b1" /><stop offset=".94" stop-color="#0094f0" /></linearGradient><linearGradient id="pI09cw1rH__b" x1="-.1" x2="5.33" y1="778.28" y2="781.97" gradientTransform="matrix(1 0 0 -1 0 791.52)" gradientUnits="userSpaceOnUse"><stop offset="0" stop-color="#0094f0" /><stop offset=".81" stop-color="#1b44b1" /></linearGradient><linearGradient id="pI09cw1rH__c" x1="10.41" x2="10.78" y1="778.63" y2="773.09" gradientTransform="matrix(1 0 0 -1 0 791.52)" gradientUnits="userSpaceOnUse"><stop offset=".1" stop-color="#4b20a0" /><stop offset=".68" stop-color="#9529c1" /></linearGradient><linearGradient id="pI09cw1rH__d" x1="8.81" x2="5.29" y1="790.71" y2="785.89" gradientTransform="matrix(1 0 0 -1 0 791.52)" gradientUnits="userSpaceOnUse"><stop offset=".07" stop-color="#a931d8" /><stop offset=".92" stop-color="#7f21a9" /></linearGradient><linearGradient id="pI09cw1rH__e" x1="7.65" x2="14.13" y1="782.93" y2="789.41" gradientTransform="matrix(1 0 0 -1 0 791.52)" gradientUnits="userSpaceOnUse"><stop offset=".5" stop-color="#3bd5ff" /><stop offset="1" stop-color="#73edd8" /></linearGradient><linearGradient id="pI09cw1rH__f" x1="15.86" x2="1.16" y1="775.65" y2="790.35" gradientTransform="matrix(1 0 0 -1 0 791.52)" gradientUnits="userSpaceOnUse"><stop offset=".05" stop-color="#bb45ea" /><stop offset=".25" stop-color="#8b52f4" /><stop offset=".51" stop-color="#8b52f4" /><stop offset=".79" stop-color="#dc3ce2" /><stop offset=".93" stop-color="#f97dbd" /></linearGradient><linearGradient id="pI09cw1rH__h" x1="2.96" x2="10.48" y1="774.69" y2="782.21" gradientTransform="matrix(1 0 0 -1 0 791.52)" gradientUnits="userSpaceOnUse"><stop offset="0" stop-color="#0fafff" /><stop offset=".89" stop-color="#3bd5ff" /></linearGradient><radialGradient id="pI09cw1rH__g" cx="-768.71" cy="780.39" r="1" gradientTransform="matrix(.73958 -3.45135 -4.80673 .09703 4329.28 -2721.94)" gradientUnits="userSpaceOnUse"><stop offset="0" stop-color="#4b20a0" /><stop offset=".8" stop-color="#c655ee" stop-opacity="0" /></radialGradient></defs><path fill="url(#pI09cw1rH__a)" d="m17.14 7.94-3.39 3.39-1.2-5.88 1.07-1.07c.98-.98 2.56-.98 3.54 0s.98 2.56 0 3.54Z" /><path fill="url(#pI09cw1rH__b)" d="m5.46 12.55-1.07 1.07c-.98.98-2.56.98-3.54 0s-.98-2.56 0-3.54L3.9 7.03z" /><path fill="url(#pI09cw1rH__c)" d="M13.61 17.14c-.98.98-2.56.98-3.54 0l-3.35-3.35 5.83-1.24 1.07 1.07c.98.98.98 2.56 0 3.54Z" /><path fill="url(#pI09cw1rH__d)" d="M10.97 3.89 5.46 5.46 4.39 4.39A2.499 2.499 0 1 1 7.93.86l3.04 3.04Z" /><path fill="url(#pI09cw1rH__e)" d="M17.15 4.4c-.98-.98-2.56-.98-3.54 0l-1.07 1.07-1.31 1.31a3.157 3.157 0 0 1-4.46 0L5.46 5.47s1.73-1.95 4.2-2.88c2.14-.79 4.84-.83 7.49 1.81" /><path fill="url(#pI09cw1rH__f)" d="M4.39.86c-.98.98-.98 2.56 0 3.54l1.07 1.07 1.31 1.31a3.157 3.157 0 0 0 4.46 0l1.31-1.31s1.95 1.73 2.88 4.2c.79 2.14.83 4.84-1.81 7.49.48-.49.73-1.12.73-1.78s-.25-1.28-.73-1.77l-1.07-1.07-1.31-1.31a3.157 3.157 0 0 0-4.46 0l-1.31 1.31s-1.95-1.73-2.88-4.2C1.79 6.2 1.75 3.5 4.39.85Z" /><path fill="url(#pI09cw1rH__g)" fill-opacity=".6" d="M4.39.86c-.98.98-.98 2.56 0 3.54l1.07 1.07 1.31 1.31a3.157 3.157 0 0 0 4.46 0l1.31-1.31s1.95 1.73 2.88 4.2c.79 2.14.83 4.84-1.81 7.49.48-.49.73-1.12.73-1.78s-.25-1.28-.73-1.77l-1.07-1.07-1.31-1.31a3.157 3.157 0 0 0-4.46 0l-1.31 1.31s-1.95-1.73-2.88-4.2C1.79 6.2 1.75 3.5 4.39.85Z" /><path fill="url(#pI09cw1rH__h)" d="m11.23 11.24 1.31 1.31s-1.73 1.95-4.2 2.88c-2.14.79-4.84.83-7.49-1.81.49.48 1.12.73 1.78.73s1.28-.25 1.77-.73l1.07-1.07 1.31-1.31a3.157 3.157 0 0 1 4.46 0Z" /><style>.msportalfx-svg-c01{fill:#fff}.msportalfx-svg-c02{fill:#e5e5e5}.msportalfx-svg-c03{fill:#a0a1a2}.msportalfx-svg-c04{fill:#7a7a7a}.msportalfx-svg-c05{fill:var(--fxs-svg-c05-fill,#3e3e3e)}.msportalfx-svg-c06{fill:#1e1e1e}.msportalfx-svg-c07{fill:var(--fxs-svg-c07-fill,#0f0f0f)}.msportalfx-svg-c08{fill:#ba141a}.msportalfx-svg-c09{fill:#dd5900}.msportalfx-svg-c10{fill:#ff8c00}.msportalfx-svg-c11{fill:#fcd116}.msportalfx-svg-c12{fill:#fee087}.msportalfx-svg-c13{fill:#b8d432}.msportalfx-svg-c14,.msportalfx-svg-c32{fill:#57a300}.msportalfx-svg-c15{fill:#59b4d9}.msportalfx-svg-c16{fill:#3999c6}.msportalfx-svg-c17{fill:#804998}.msportalfx-svg-c18{fill:#ec008c}.msportalfx-svg-c19{fill:#0072c6}.msportalfx-svg-c20{fill:#68217a}.msportalfx-svg-c21{fill:#00188f}.msportalfx-svg-c22{fill:var(--fxs-svg-c22-fill,#e81123)}.fxs-mode-light{--fxs-svg-c22-fill:#a4262c}.msportalfx-svg-c23{fill:#cae3f3}.msportalfx-svg-c24{fill:#59aed3}.msportalfx-svg-c25{fill:#4c3b12}.msportalfx-svg-c26{fill:#be9555}.msportalfx-svg-c27{fill:#4f4d52}.msportalfx-svg-c28{fill:#ef6f59}.msportalfx-svg-c29{fill:#f7cb64}.msportalfx-svg-c30{fill:#fdd8db}.msportalfx-svg-c31{fill:#f6ffec}.msportalfx-svg-c33{fill:#8a2da5}.msportalfx-svg-c34{fill:#e00b1c}.msportalfx-svg-c35{fill:#015cda}.msportalfx-svg-c36{fill:#5db300}.msportalfx-svg-c97{fill:#ffb900}.msportalfx-svg-c98{fill:#00a4ef}.msportalfx-svg-c99{fill:#f25022}.msportalfx-inverted-theme,.fxs-theme-dark{--fxs-svg-c05-fill:#777;--fxs-svg-c07-fill:#f2f2f2}.msportalfx-svg-palette-white{fill:#fff}.msportalfx-svg-palette-blue{fill:#015cda}.msportalfx-svg-palette-black{fill:#1e1e1e}.msportalfx-svg-palette-green{fill:#57a300}.msportalfx-svg-palette-gray{fill:#a0a1a2}.msportalfx-svg-palette-inherit{fill:inherit}.msportalfx-svg-badge{position:absolute;left:0;bottom:0;min-height:10px;min-width:10px}.fxc-menu-icon&gt;.msportalfx-svg-badge{left:-2px;bottom:-2px;min-height:8px;min-width:8px}.msportalfx-svg-disabled{filter:grayscale(100%)}.msportalfx-svg-loading-square{animation:ProgressFlagAnimation 1.45s infinite ease-in-out;transform-origin:50%}.msportalfx-svg-loading-square:nth-child(1){animation-delay:0s}.msportalfx-svg-loading-square:nth-child(2){animation-delay:.2s}.msportalfx-svg-loading-square:nth-child(3){animation-delay:.4s}@keyframes ProgressFlagAnimation{0%{transform:scale(1);opacity:.3}36.1%{transform:scale(1.06);opacity:1}50%{transform:scale(1.06);opacity:1}86.1%{transform:scale(1);opacity:.3}}.msportalfx-svg-flip-horizontal&gt;svg,svg.msportalfx-svg-flip-horizontal{transform:scaleX(-1)}.msportalfx-svg-fabric-rotate360{animation:ImageRotation 1.3s cubic-bezier(.53,.21,.29,.67) infinite}@keyframes ImageRotation{0%{transform:rotate(-45deg)}100%{transform:rotate(315deg)}}.msportalfx-ascend.msportalfx-svg-c07{opacity:var(--fxs-svg-sortarrow-ascend-opacity,1);fill:var(--fxs-svg-sortarrow-ascend-fill,var(--fxs-svg-c07-fill,#0f0f0f))}.msportalfx-descend.msportalfx-svg-c07{opacity:var(--fxs-svg-sortarrow-descend-opacity,1);fill:var(--fxs-svg-sortarrow-descend-fill,var(--fxs-svg-c07-fill,#0f0f0f))}.fxs-svg-number .msportalfx-font-bold{font-size:10px;fill:#0065ad}.fxs-svg-number .fxs-svg-circle{fill:var(--fxs-svg-num-circle-fill,#0078d4);stroke:var(--fxs-svg-num-circle-stroke,none);stroke-width:var(--fxs-svg-num-circle-stroke-width,0%)}.fxs-svg-number .fxs-svg-text{fill:var(--fxs-svg-num-text-fill,#fff);font-size:10px}.fxs-svg-number.msportalfx-svg-disabled{filter:grayscale(0%);--fxs-svg-num-circle-fill:var(--fxs-svg-num-disabled-circle-fill,#fff);--fxs-svg-num-circle-stroke:#949494;--fxs-svg-num-circle-stroke-width:1px;--fxs-svg-num-text-fill:#949494}.fxs-theme-dark{--fxs-svg-num-text-fill:#0f0f0f;--fxs-svg-num-disabled-circle-fill:#0f0f0f}</style></svg>