<svg viewBox="0 0 18 18" class="msportalfx-svg-placeholder" xmlns="http://www.w3.org/2000/svg"><title>Logic Apps Template</title><desc>Browse existing Logic Apps templates</desc><defs><linearGradient id="pl0DussW2__a" x1="8.994" x2="8.994" y1="18" y2="0" gradientUnits="userSpaceOnUse"><stop offset="0" stop-color="#119fc5" /><stop offset=".873" stop-color="#36dff1" /></linearGradient><linearGradient id="pl0DussW2__b" x1="63.781" x2="63.781" y1="638.899" y2="636.46" gradientTransform="matrix(1 0 0 -1 -56 645.516)" gradientUnits="userSpaceOnUse"><stop offset="0" stop-color="#9cebff" /><stop offset="1" stop-color="#50e6ff" /></linearGradient><linearGradient id="pl0DussW2__c" x1="7.781" x2="7.781" y1="14.804" y2="11.436" gradientUnits="userSpaceOnUse"><stop offset="0" stop-color="#86d633" /><stop offset=".999" stop-color="#b4ec36" /></linearGradient></defs><path fill="url(#pl0DussW2__a)" d="M16.429 14.999h-.881V3.711c0-.703-.57-1.273-1.273-1.273H3.001V1.274a.281.281 0 0 0-.562 0v1.164H1.261c-.704 0-1.274.57-1.274 1.273v13.016C-.013 17.43.557 18 1.26 18h13.016c.703 0 1.273-.57 1.273-1.273v-1.165h.881a.281.281 0 0 0 0-.562ZM16.808.003h-.018l-.053-.002h-1.51a.281.281 0 0 0 0 .562h1.543a.29.29 0 0 0 .288-.274.274.274 0 0 0-.25-.287Zm-9.081.56h1.5a.281.281 0 0 0 0-.563h-1.5a.281.281 0 0 0 0 .562Zm3.75 0h1.5a.281.281 0 0 0 0-.563h-1.5a.281.281 0 0 0 0 .562Zm-7.5 0h1.5a.281.281 0 0 0 0-.563h-1.5a.281.281 0 0 0 0 .562Zm14.022 13.773-.562-.021zm-.28-13.031a.28.28 0 0 0-.281.281v1.5a.281.281 0 0 0 .562 0v-1.5a.28.28 0 0 0-.281-.281m0 3.75a.28.28 0 0 0-.281.281v1.5a.281.281 0 0 0 .562 0v-1.5a.28.28 0 0 0-.281-.281m0 7.5a.28.28 0 0 0-.281.281v1.453H18v-1.453a.28.28 0 0 0-.281-.281m0-3.75a.28.28 0 0 0-.281.281v1.5a.281.281 0 0 0 .562 0v-1.5a.28.28 0 0 0-.281-.281" /><path fill="#fff" d="M14.276 3.001a.71.71 0 0 1 .71.71v13.016a.71.71 0 0 1-.71.71H1.26a.71.71 0 0 1-.71-.71V3.711a.71.71 0 0 1 .71-.71z" /><path fill="#0078d4" d="M10.367 10.483H8.815a.81.81 0 0 1-.809-.809V7.969h-.449v1.706a.81.81 0 0 1-.809.809H5.196a.64.64 0 0 0-.64.64v1.246h.448v-1.248c0-.105.085-.189.189-.189h1.554c.353 0 .689-.147.927-.407a.147.147 0 0 1 .209-.008l.008.008c.238.259.573.407.925.407h1.552c.104 0 .189.084.189.188v1.247h.448v-1.246a.64.64 0 0 0-.64-.638Z" /><rect width="3.597" height="3.597" x="5.982" y="5.649" fill="url(#pl0DussW2__b)" rx=".322" ry=".322" /><path fill="url(#pl0DussW2__c)" d="M6.258 11.669H3.305a.32.32 0 0 0-.322.322v2.953c0 .178.144.322.322.322h2.953a.32.32 0 0 0 .322-.322v-2.953a.32.32 0 0 0-.322-.322m5.999 0H9.304a.32.32 0 0 0-.322.322v2.953c0 .178.144.322.322.322h2.953a.32.32 0 0 0 .322-.322v-2.953a.32.32 0 0 0-.322-.322" /><style>.msportalfx-svg-c01{fill:#fff}.msportalfx-svg-c02{fill:#e5e5e5}.msportalfx-svg-c03{fill:#a0a1a2}.msportalfx-svg-c04{fill:#7a7a7a}.msportalfx-svg-c05{fill:#3e3e3e}.msportalfx-svg-c06{fill:#1e1e1e}.msportalfx-svg-c07{fill:#0f0f0f}.msportalfx-svg-c08{fill:#ba141a}.msportalfx-svg-c09{fill:#dd5900}.msportalfx-svg-c10{fill:#ff8c00}.msportalfx-svg-c11{fill:#fcd116}.msportalfx-svg-c12{fill:#fee087}.msportalfx-svg-c13{fill:#b8d432}.msportalfx-svg-c14,.msportalfx-svg-c32{fill:#57a300}.msportalfx-svg-c15{fill:#59b4d9}.msportalfx-svg-c16{fill:#3999c6}.msportalfx-svg-c17{fill:#804998}.msportalfx-svg-c18{fill:#ec008c}.msportalfx-svg-c19{fill:#0072c6}.msportalfx-svg-c20{fill:#68217a}.msportalfx-svg-c21{fill:#00188f}.msportalfx-svg-c22{fill:#e81123}.fxs-mode-light .msportalfx-svg-c22{fill:#a4262c}.msportalfx-svg-c23{fill:#cae3f3}.msportalfx-svg-c24{fill:#59aed3}.msportalfx-svg-c25{fill:#4c3b12}.msportalfx-svg-c26{fill:#be9555}.msportalfx-svg-c27{fill:#4f4d52}.msportalfx-svg-c28{fill:#ef6f59}.msportalfx-svg-c29{fill:#f7cb64}.msportalfx-svg-c30{fill:#fdd8db}.msportalfx-svg-c31{fill:#f6ffec}.msportalfx-svg-c33{fill:#8a2da5}.msportalfx-svg-c34{fill:#e00b1c}.msportalfx-svg-c35{fill:#015cda}.msportalfx-svg-c36{fill:#5db300}.msportalfx-svg-c97{fill:#ffb900}.msportalfx-svg-c98{fill:#00a4ef}.msportalfx-svg-c99{fill:#f25022}.msportalfx-inverted-theme .msportalfx-svg-c05,.fxs-theme-dark .msportalfx-svg-c05{fill:#777}.msportalfx-inverted-theme .msportalfx-svg-c07,.fxs-theme-dark .msportalfx-svg-c07{fill:#f2f2f2}.msportalfx-svg-palette-white{fill:#fff}.msportalfx-svg-palette-blue{fill:#015cda}.msportalfx-svg-palette-black{fill:#1e1e1e}.msportalfx-svg-palette-green{fill:#57a300}.msportalfx-svg-palette-gray{fill:#a0a1a2}.msportalfx-svg-palette-inherit{fill:inherit}.msportalfx-svg-badge{position:absolute;left:0;bottom:0;min-height:10px;min-width:10px}.fxc-menu-icon&gt;.msportalfx-svg-badge{left:-2px;bottom:-2px;min-height:8px;min-width:8px}.msportalfx-svg-disabled{filter:grayscale(100%)}.msportalfx-svg-loading-square{animation:ProgressFlagAnimation 1.45s infinite ease-in-out;transform-origin:50%}.msportalfx-svg-loading-square:nth-child(1){animation-delay:0s}.msportalfx-svg-loading-square:nth-child(2){animation-delay:.2s}.msportalfx-svg-loading-square:nth-child(3){animation-delay:.4s}@keyframes ProgressFlagAnimation{0%{transform:scale(1);opacity:.3}36.1%{transform:scale(1.06);opacity:1}50%{transform:scale(1.06);opacity:1}86.1%{transform:scale(1);opacity:.3}}.msportalfx-svg-flip-horizontal&gt;svg,svg.msportalfx-svg-flip-horizontal{transform:scaleX(-1)}.msportalfx-svg-fabric-rotate360{animation:ImageRotation 1.3s cubic-bezier(.53,.21,.29,.67) infinite}@keyframes ImageRotation{0%{transform:rotate(-45deg)}100%{transform:rotate(315deg)}}.fxs-svg-number .msportalfx-font-bold{font-size:10px;fill:#0065ad}.fxs-svg-number .fxs-svg-circle{stroke-width:0%;fill:#0078d4}.fxs-svg-number .fxs-svg-text{fill:#fff;font-size:10px}.fxs-svg-number.msportalfx-svg-disabled{filter:grayscale(0%)}.fxs-svg-number.msportalfx-svg-disabled .fxs-svg-circle{fill:#fff;stroke-width:1px;stroke:#949494}.fxs-svg-number.msportalfx-svg-disabled .fxs-svg-text{fill:#949494}.fxs-theme-dark .fxs-svg-number .fxs-svg-text{fill:#0f0f0f}.fxs-theme-dark .fxs-svg-number .fxs-svg-circle{stroke-width:0%;fill:#0078d4}.fxs-theme-dark .fxs-svg-number.msportalfx-svg-disabled .fxs-svg-circle{fill:#0f0f0f;stroke-width:1px;stroke:#949494}.fxs-theme-dark .fxs-svg-number.msportalfx-svg-disabled .fxs-svg-text{fill:#949494}</style></svg>