<svg xml:space="preserve" viewBox="0 0 50 50" class="msportalfx-svg-placeholder" xmlns="http://www.w3.org/2000/svg"><title>Managed Connector</title><desc></desc><path fill="#3999C6" d="m40.742 19.632-.851-.187.067-.867c.024-.315.04-.634.04-.954 0-7.182-5.843-13.024-13.023-13.024-5.358 0-10.244 3.371-12.156 8.389l-.29.76-.803-.129a10 10 0 0 0-1.565-.131C6.613 13.488 2.1 18.001 2.1 23.549c0 5.122 3.955 9.556 9.04 10.1-.01-.138-.04-.27-.04-.411 0-.792.15-1.542.448-2.23a5.9 5.9 0 0 1 1.223-1.824 5.8 5.8 0 0 1 1.808-1.233 5.5 5.5 0 0 1 2.205-.45h7.304c.781 0 1.522.151 2.203.45a5.8 5.8 0 0 1 1.806 1.23c.514.516.925 1.13 1.226 1.827.255.591.38 1.233.416 1.902h3.579c.781 0 1.522.151 2.203.45a5.8 5.8 0 0 1 1.806 1.23c.514.516.925 1.13 1.226 1.827.166.383.275.789.348 1.206l.158.023c4.884-.152 8.843-4.222 8.843-9.109-.002-4.25-3.012-7.995-7.16-8.905" /><path fill="#FFF" d="m40.742 19.632-.851-.187.067-.867c.024-.315.04-.634.04-.954 0-7.182-5.843-13.024-13.023-13.024-5.358 0-10.244 3.371-12.156 8.389l-.29.76-.803-.129a10 10 0 0 0-1.565-.131C6.613 13.488 2.1 18.001 2.1 23.549c0 5.122 3.955 9.556 9.04 10.1-.01-.138-.04-.27-.04-.411 0-.792.15-1.542.448-2.23a5.9 5.9 0 0 1 1.223-1.824 5.8 5.8 0 0 1 1.808-1.233 5.5 5.5 0 0 1 2.205-.45h7.304c.781 0 1.522.151 2.203.45a5.8 5.8 0 0 1 1.806 1.23c.514.516.925 1.13 1.226 1.827.255.591.38 1.233.416 1.902h3.579c.781 0 1.522.151 2.203.45a5.8 5.8 0 0 1 1.806 1.23c.514.516.925 1.13 1.226 1.827.166.383.275.789.348 1.206l.158.023c4.884-.152 8.843-4.222 8.843-9.109-.002-4.25-3.012-7.995-7.16-8.905" opacity=".8" /><path fill="#59B4D9" d="M40.956 18.655q.042-.511.043-1.031c0-7.733-6.291-14.024-14.024-14.024-5.797 0-11.027 3.619-13.09 9.032a11 11 0 0 0-1.724-.144c-6.099 0-11.061 4.961-11.061 11.06 0 5.648 4.341 10.498 9.9 11.091v-2.827c-4.009-.581-7.1-4.134-7.1-8.265 0-4.555 3.706-8.26 8.261-8.26.406 0 .825.035 1.281.109l2.248.36.811-2.127C18.15 9.305 22.359 6.4 26.975 6.4c6.189 0 11.224 5.035 11.224 11.224 0 .25-.011.515-.035.81l-.193 2.433 2.384.523c3.328.73 5.744 3.736 5.744 7.147 0 3.952-3.165 7.195-7.094 7.318L39 35.854v2.795c5.474-.121 9.9-4.617 9.9-10.111a10.13 10.13 0 0 0-7.944-9.883" /><path fill="#7FBA00" d="M26.012 45.5a6.4 6.4 0 0 1-2.606-.534 6.8 6.8 0 0 1-2.115-1.443 6.9 6.9 0 0 1-1.431-2.134 6.6 6.6 0 0 1-.531-2.627c0-.93.179-1.814.532-2.627a6.9 6.9 0 0 1 1.43-2.133 6.8 6.8 0 0 1 2.115-1.443 6.4 6.4 0 0 1 2.606-.535h1.206v2.43h-.292c-.697 0-1.371.082-2.005.243a4.7 4.7 0 0 0-1.646.759 3.7 3.7 0 0 0-1.119 1.321c-.276.534-.416 1.202-.416 1.986 0 .589.114 1.149.339 1.664.226.52.537.981.924 1.371.386.389.844.703 1.359.931a4.05 4.05 0 0 0 1.651.342h7.304c.583 0 1.139-.115 1.651-.342a4.4 4.4 0 0 0 1.359-.931c.385-.389.696-.851.923-1.371.225-.516.34-1.076.34-1.664 0-.783-.14-1.452-.416-1.986a3.76 3.76 0 0 0-1.119-1.321 4.8 4.8 0 0 0-1.647-.759 8 8 0 0 0-2.004-.243h-.292v-2.43h1.205c.922 0 1.798.18 2.606.535a6.8 6.8 0 0 1 2.115 1.443 6.9 6.9 0 0 1 1.431 2.133A6.6 6.6 0 0 1 40 38.762c0 .928-.179 1.812-.531 2.627a6.9 6.9 0 0 1-1.431 2.134 6.8 6.8 0 0 1-2.115 1.443 6.4 6.4 0 0 1-2.607.534z" /><path fill="#3999C6" d="M22.882 39.977v-2.43h.292a8 8 0 0 0 2.004-.244 4.8 4.8 0 0 0 1.648-.758c.464-.339.84-.784 1.117-1.321.276-.536.417-1.204.417-1.986 0-.588-.114-1.149-.34-1.665a4.5 4.5 0 0 0-.924-1.37 4.4 4.4 0 0 0-1.359-.931 4 4 0 0 0-1.65-.342h-7.304c-.583 0-1.139.115-1.651.342a4.4 4.4 0 0 0-1.359.931 4.5 4.5 0 0 0-.924 1.37 4.15 4.15 0 0 0-.339 1.665c0 .782.14 1.451.417 1.986.276.536.652.981 1.118 1.322.47.344 1.024.598 1.646.757a8 8 0 0 0 2.005.244h.292v2.43h-1.206c-.92 0-1.797-.18-2.606-.535A6.9 6.9 0 0 1 12.061 38a6.9 6.9 0 0 1-1.431-2.134 6.6 6.6 0 0 1-.53-2.627c0-.93.178-1.813.53-2.627a6.9 6.9 0 0 1 1.431-2.133 6.8 6.8 0 0 1 2.115-1.443 6.4 6.4 0 0 1 2.607-.535h7.304c.922 0 1.798.18 2.606.535a6.8 6.8 0 0 1 2.115 1.443 6.9 6.9 0 0 1 1.431 2.133c.352.814.531 1.698.531 2.627 0 .93-.179 1.814-.532 2.627A6.9 6.9 0 0 1 28.808 38a6.8 6.8 0 0 1-2.115 1.443 6.4 6.4 0 0 1-2.606.534z" /><style>.msportalfx-svg-c01{fill:#fff}.msportalfx-svg-c02{fill:#e5e5e5}.msportalfx-svg-c03{fill:#a0a1a2}.msportalfx-svg-c04{fill:#7a7a7a}.msportalfx-svg-c05{fill:#3e3e3e}.msportalfx-svg-c06{fill:#1e1e1e}.msportalfx-svg-c07{fill:#0f0f0f}.msportalfx-svg-c08{fill:#ba141a}.msportalfx-svg-c09{fill:#dd5900}.msportalfx-svg-c10{fill:#ff8c00}.msportalfx-svg-c11{fill:#fcd116}.msportalfx-svg-c12{fill:#fee087}.msportalfx-svg-c13{fill:#b8d432}.msportalfx-svg-c14,.msportalfx-svg-c32{fill:#57a300}.msportalfx-svg-c15{fill:#59b4d9}.msportalfx-svg-c16{fill:#3999c6}.msportalfx-svg-c17{fill:#804998}.msportalfx-svg-c18{fill:#ec008c}.msportalfx-svg-c19{fill:#0072c6}.msportalfx-svg-c20{fill:#68217a}.msportalfx-svg-c21{fill:#00188f}.msportalfx-svg-c22{fill:#e81123}.fxs-mode-light .msportalfx-svg-c22{fill:#a4262c}.msportalfx-svg-c23{fill:#cae3f3}.msportalfx-svg-c24{fill:#59aed3}.msportalfx-svg-c25{fill:#4c3b12}.msportalfx-svg-c26{fill:#be9555}.msportalfx-svg-c27{fill:#4f4d52}.msportalfx-svg-c28{fill:#ef6f59}.msportalfx-svg-c29{fill:#f7cb64}.msportalfx-svg-c30{fill:#fdd8db}.msportalfx-svg-c31{fill:#f6ffec}.msportalfx-svg-c33{fill:#8a2da5}.msportalfx-svg-c34{fill:#e00b1c}.msportalfx-svg-c35{fill:#015cda}.msportalfx-svg-c36{fill:#5db300}.msportalfx-svg-c97{fill:#ffb900}.msportalfx-svg-c98{fill:#00a4ef}.msportalfx-svg-c99{fill:#f25022}.msportalfx-inverted-theme .msportalfx-svg-c05,.fxs-theme-dark .msportalfx-svg-c05{fill:#777}.msportalfx-inverted-theme .msportalfx-svg-c07,.fxs-theme-dark .msportalfx-svg-c07{fill:#f2f2f2}.msportalfx-svg-palette-white{fill:#fff}.msportalfx-svg-palette-blue{fill:#015cda}.msportalfx-svg-palette-black{fill:#1e1e1e}.msportalfx-svg-palette-green{fill:#57a300}.msportalfx-svg-palette-gray{fill:#a0a1a2}.msportalfx-svg-palette-inherit{fill:inherit}.msportalfx-svg-badge{position:absolute;left:0;bottom:0;min-height:10px;min-width:10px}.fxc-menu-icon&gt;.msportalfx-svg-badge{left:-2px;bottom:-2px;min-height:8px;min-width:8px}.msportalfx-svg-disabled{filter:grayscale(100%)}.msportalfx-svg-loading-square{animation:ProgressFlagAnimation 1.45s infinite ease-in-out;transform-origin:50%}.msportalfx-svg-loading-square:nth-child(1){animation-delay:0s}.msportalfx-svg-loading-square:nth-child(2){animation-delay:.2s}.msportalfx-svg-loading-square:nth-child(3){animation-delay:.4s}@keyframes ProgressFlagAnimation{0%{transform:scale(1);opacity:.3}36.1%{transform:scale(1.06);opacity:1}50%{transform:scale(1.06);opacity:1}86.1%{transform:scale(1);opacity:.3}}.msportalfx-svg-flip-horizontal&gt;svg,svg.msportalfx-svg-flip-horizontal{transform:scaleX(-1)}.msportalfx-svg-fabric-rotate360{animation:ImageRotation 1.3s cubic-bezier(.53,.21,.29,.67) infinite}@keyframes ImageRotation{0%{transform:rotate(-45deg)}100%{transform:rotate(315deg)}}.fxs-svg-number .msportalfx-font-bold{font-size:10px;fill:#0065ad}.fxs-svg-number .fxs-svg-circle{stroke-width:0%;fill:#0078d4}.fxs-svg-number .fxs-svg-text{fill:#fff;font-size:10px}.fxs-svg-number.msportalfx-svg-disabled{filter:grayscale(0%)}.fxs-svg-number.msportalfx-svg-disabled .fxs-svg-circle{fill:#fff;stroke-width:1px;stroke:#949494}.fxs-svg-number.msportalfx-svg-disabled .fxs-svg-text{fill:#949494}.fxs-theme-dark .fxs-svg-number .fxs-svg-text{fill:#0f0f0f}.fxs-theme-dark .fxs-svg-number .fxs-svg-circle{stroke-width:0%;fill:#0078d4}.fxs-theme-dark .fxs-svg-number.msportalfx-svg-disabled .fxs-svg-circle{fill:#0f0f0f;stroke-width:1px;stroke:#949494}.fxs-theme-dark .fxs-svg-number.msportalfx-svg-disabled .fxs-svg-text{fill:#949494}</style></svg>